<svg xmlns="http://www.w3.org/2000/svg" width="400" height="139.273" viewBox="0 0 400 139.273">
  <g id="Grupo_74696" data-name="Grupo 74696" transform="translate(-179.824 -2617.501)">
    <rect id="Rectángulo_32408" data-name="Rectángulo 32408" width="400" height="137.466" transform="translate(179.824 2619.308)" fill="none"/>
    <g id="Grupo_74605" data-name="Grupo 74605" transform="translate(201.189 2722.208)">
      <path id="Trazado_116262" data-name="Trazado 116262" d="M88.982,147.477,71.639,157.49a5.62,5.62,0,0,1-5.041-.21h0c-1.486-.858-1.648-2.167-.362-2.91l17.343-10.013a5.62,5.62,0,0,1,5.041.21h0C90.105,145.425,90.268,146.734,88.982,147.477Z" transform="translate(-65.368 -140.226)" fill="#92b4d1" opacity="0.183"/>
      <path id="Trazado_116263" data-name="Trazado 116263" d="M84.256,153.886,101.6,163.9a5.624,5.624,0,0,0,5.041-.208h0c1.486-.858,1.648-2.167.362-2.91L89.659,150.766a5.62,5.62,0,0,0-5.041.21h0C83.132,151.834,82.968,153.143,84.256,153.886Z" transform="translate(-58.175 -137.667)" fill="#92b4d1" opacity="0.167"/>
      <g id="Grupo_73273" data-name="Grupo 73273" transform="translate(1.681)">
        <g id="Grupo_73272" data-name="Grupo 73272">
          <path id="Trazado_116264" data-name="Trazado 116264" d="M80.355,141.972a3.186,3.186,0,1,1,3.186,5.518l-7.533,4.354-2.726-5.79Z" transform="translate(-63.89 -141.149)" fill="#421e47"/>
          <g id="Grupo_73269" data-name="Grupo 73269" transform="translate(9.392 0.399)">
            <path id="Trazado_116265" data-name="Trazado 116265" d="M80.355,141.972a3.186,3.186,0,1,1,3.186,5.518l-7.533,4.354-2.726-5.79Z" transform="translate(-73.282 -141.548)" fill="#c0d5ff"/>
          </g>
          <g id="Grupo_73270" data-name="Grupo 73270" transform="translate(8.996)">
            <path id="Trazado_116266" data-name="Trazado 116266" d="M76.121,152.354a.383.383,0,0,1-.119-.018.389.389,0,0,1-.239-.209l-2.726-5.79a.4.4,0,0,1,.16-.512l7.073-4.084h0a3.583,3.583,0,1,1,3.583,6.205L76.318,152.3A.393.393,0,0,1,76.121,152.354Zm-2.212-6.025L76.3,151.4l7.16-4.139a2.79,2.79,0,1,0-2.789-4.833Z" transform="translate(-72.999 -141.263)" fill="none"/>
          </g>
          <path id="Trazado_116267" data-name="Trazado 116267" d="M77.214,144.928a1.24,1.24,0,0,0-1.364-.112v0l-.055.032h0l-7.347,4.242a3.187,3.187,0,1,0,3.186,5.52l6.943-4a1.768,1.768,0,0,0,.709-1.685A5.214,5.214,0,0,0,77.214,144.928Z" transform="translate(-66.456 -139.907)" fill="#748fff"/>
          <g id="Grupo_73271" data-name="Grupo 73271" transform="translate(0 4.358)">
            <path id="Trazado_116268" data-name="Trazado 116268" d="M70.163,155.541a3.653,3.653,0,0,1-.939-.124,3.579,3.579,0,0,1-.865-6.559l7.347-4.242.042-.021a1.635,1.635,0,0,1,1.785.109h0a5.576,5.576,0,0,1,2.258,4.321,2.129,2.129,0,0,1-.921,2.041l-6.93,4A3.538,3.538,0,0,1,70.163,155.541Zm5.956-10.249-7.364,4.251a2.787,2.787,0,0,0,.674,5.108,2.759,2.759,0,0,0,2.116-.276l6.943-4A1.447,1.447,0,0,0,79,149.039a4.865,4.865,0,0,0-1.879-3.66h0a.924.924,0,0,0-.939-.12A.394.394,0,0,1,76.12,145.292Z" transform="translate(-66.57 -144.377)" fill="none"/>
          </g>
        </g>
      </g>
      <g id="Grupo_73278" data-name="Grupo 73278" transform="translate(27.448 8.97)">
        <g id="Grupo_73277" data-name="Grupo 73277">
          <path id="Trazado_116269" data-name="Trazado 116269" d="M90.046,148.381A3.186,3.186,0,1,0,86.86,153.9l7.535,4.354,2.724-5.79Z" transform="translate(-84.872 -147.559)" fill="#421e47"/>
          <g id="Grupo_73274" data-name="Grupo 73274" transform="translate(0.397 0.397)">
            <path id="Trazado_116270" data-name="Trazado 116270" d="M90.046,148.381A3.186,3.186,0,1,0,86.86,153.9l7.535,4.354,2.724-5.79Z" transform="translate(-85.269 -147.957)" fill="#c0d5ff"/>
          </g>
          <g id="Grupo_73275" data-name="Grupo 73275">
            <path id="Trazado_116271" data-name="Trazado 116271" d="M94.506,158.764a.381.381,0,0,1-.2-.055l-7.535-4.354a3.582,3.582,0,1,1,3.583-6.2h0l7.073,4.084a.4.4,0,0,1,.159.512l-2.724,5.788a.4.4,0,0,1-.241.21A.384.384,0,0,1,94.506,158.764Zm-5.937-10.3a2.791,2.791,0,0,0-1.4,5.206l7.16,4.139,2.387-5.071-6.758-3.9A2.768,2.768,0,0,0,88.57,148.464Z" transform="translate(-84.985 -147.673)" fill="none"/>
          </g>
          <path id="Trazado_116272" data-name="Trazado 116272" d="M93.353,151.338a1.238,1.238,0,0,1,1.364-.113v0l.055.032h0l7.347,4.242a3.187,3.187,0,0,1-3.186,5.52l-6.941-4a1.765,1.765,0,0,1-.711-1.683A5.214,5.214,0,0,1,93.353,151.338Z" transform="translate(-82.472 -146.317)" fill="#748fff"/>
          <g id="Grupo_73276" data-name="Grupo 73276" transform="translate(8.415 4.357)">
            <path id="Trazado_116273" data-name="Trazado 116273" d="M100.635,161.951a3.559,3.559,0,0,1-1.784-.48l-6.943-4A2.127,2.127,0,0,1,91,155.434a5.578,5.578,0,0,1,2.258-4.322h0A1.649,1.649,0,0,1,95,150.979l.02.01,7.41,4.277a3.583,3.583,0,0,1-1.8,6.685Zm-6.964-10.164a4.862,4.862,0,0,0-1.879,3.66,1.45,1.45,0,0,0,.5,1.326l6.955,4.01a2.79,2.79,0,1,0,2.79-4.833l-7.348-4.241v0a.356.356,0,0,1-.08-.041.927.927,0,0,0-.939.12Z" transform="translate(-91 -150.786)" fill="none"/>
          </g>
        </g>
      </g>
    </g>
    <g id="Grupo_73310" data-name="Grupo 73310" transform="translate(183.071 2622.36)">
      <g id="Grupo_73302" data-name="Grupo 73302">
        <path id="Trazado_116295" data-name="Trazado 116295" d="M162.144,142.973s11.87,1.516,8.682-5.266c-2.989-6.357-16.058-8.614-25.952-14.742-2.748-1.7-8.514-9.112-10.2-10.664-9.3-8.542-18.293-15.306-18.293-15.306s6.293,0,11.038,3.448c7.338,5.331,15.75,9.444,21.1,7.419,8.172-3.1-2.692-8.968-10.661-16.473-4.679-4.4-11.955-9.486-21.476-14.657-11.5-6.246-25.68-5.433-36.785-9.3A124.685,124.685,0,0,1,59.18,58.325h-.043c-2.3-1.017-5.164-.771-8.283,1.029-7.544,4.356-13.66,16.043-13.66,26.1,0,5.59,1.888,9.5,4.862,11.124.72.392,16.118,6.494,27,12.533,9.093,5.044,23.426,28.45,31.6,39.768,10.26,14.209,25.587,19.419,35.551,22.989,7.924,2.839,9.739-.733,8.888-3.4-1.74-5.448-10.426-9.977-10.426-9.977s9.81,4.1,14.949,5.836c3.005,1.013,9.876,4.44,12.575.037,1.942-3.169-1.8-6.4-5.6-8.719-2.055-1.254-12.638-6.2-16.943-9.1,0,0,8.293,2.453,13.81,4.4,5.862,2.074,10.818,5.408,15.223,4.174C178.459,152.38,162.144,142.973,162.144,142.973Z" transform="translate(-36.687 -57.216)" fill="#71a0ff"/>
        <path id="Trazado_116296" data-name="Trazado 116296" d="M141.419,173.626a15.7,15.7,0,0,1-5.179-1.075l-.761-.274c-9.928-3.551-24.934-8.916-35.029-22.9-1.818-2.516-3.964-5.667-6.236-9-8.121-11.918-18.227-26.751-25.2-30.618-8.679-4.814-20.048-9.589-24.9-11.63-1.376-.576-1.94-.815-2.1-.9-3.256-1.778-5.124-5.994-5.124-11.566,0-10.2,6.241-22.11,13.914-26.54,3.114-1.8,6.1-2.177,8.639-1.1h.033l.164.068A125.175,125.175,0,0,0,79.962,67.16,85.708,85.708,0,0,0,94.62,70.331c7.532,1.192,15.321,2.423,22.2,6.16,9.173,4.982,16.635,10.077,21.583,14.734,1.88,1.772,3.9,3.431,5.851,5.034,4.617,3.8,8.265,6.794,7.838,9.387-.2,1.209-1.244,2.154-3.2,2.894-6.448,2.449-16.285-3.638-21.574-7.482a19.68,19.68,0,0,0-9.1-3.234c2.857,2.216,9.873,7.769,16.991,14.311.6.549,1.675,1.79,2.92,3.226,2.306,2.658,5.465,6.3,7.208,7.38a84.053,84.053,0,0,0,12.005,5.772c6.555,2.735,12.216,5.1,14.139,9.185.78,1.661.79,3.036.028,4.084-1.351,1.853-4.856,2.1-7.15,2.044,3,1.932,8.519,5.943,8.126,9.07-.169,1.337-1.336,2.319-3.47,2.917-3.359.943-7.026-.64-10.907-2.314-1.484-.641-3.02-1.3-4.622-1.87-3.049-1.079-6.981-2.321-9.866-3.209,2.73,1.516,6.039,3.187,8.694,4.528,2.231,1.125,3.994,2.014,4.737,2.468,3.665,2.237,5.772,4.4,6.261,6.43a3.819,3.819,0,0,1-.493,2.985c-2.563,4.184-8.354,1.987-11.815.676-.506-.192-.963-.364-1.354-.5-2.7-.912-6.709-2.485-9.9-3.77,2.443,1.857,5.111,4.426,6.021,7.277a3.734,3.734,0,0,1-.828,3.924A4.854,4.854,0,0,1,141.419,173.626ZM56.439,58.437A10.4,10.4,0,0,0,51.31,60C43.918,64.266,37.9,75.779,37.9,85.661c0,5.191,1.675,9.083,4.6,10.678.124.067.955.417,2.005.858,4.871,2.045,16.276,6.836,25,11.678,7.178,3.982,17.36,18.925,25.54,30.932,2.269,3.331,4.411,6.475,6.221,8.981,9.91,13.725,24.738,19.026,34.55,22.536l.761.27c4.942,1.773,6.926.835,7.667.119a2.753,2.753,0,0,0,.566-2.889c-1.655-5.183-10.092-9.638-10.177-9.683l.431-.915c.1.04,9.853,4.116,14.915,5.822.4.135.87.314,1.389.509,3.373,1.279,8.467,3.208,10.593-.257a2.808,2.808,0,0,0,.371-2.219c-.424-1.758-2.378-3.71-5.806-5.8-.706-.432-2.54-1.357-4.665-2.429-4-2.019-9.481-4.785-12.3-6.686l-2.718-1.835,3.146.93c.083.025,8.37,2.478,13.835,4.413,1.635.578,3.186,1.247,4.685,1.9,3.872,1.67,7.216,3.112,10.232,2.269,1.7-.479,2.625-1.174,2.737-2.069.359-2.854-6.659-7.574-9.394-9.152l-2.182-1.257,2.5.317c1.835.23,6.9.421,8.287-1.494.528-.723.486-1.752-.127-3.052-1.755-3.735-7.25-6.028-13.611-8.683A85.123,85.123,0,0,1,144.81,123.6c-1.873-1.16-4.961-4.719-7.44-7.579-1.224-1.413-2.283-2.631-2.839-3.142-9.172-8.427-18.166-15.209-18.257-15.276l-1.212-.912h1.518c.262,0,6.514.042,11.336,3.546,8.721,6.335,16.238,9.011,20.623,7.353,1.561-.593,2.421-1.3,2.553-2.112.332-2.015-3.463-5.134-7.482-8.439-1.964-1.615-4-3.286-5.9-5.079-4.882-4.6-12.272-9.639-21.369-14.58-6.727-3.653-14.428-4.872-21.875-6.049A86.646,86.646,0,0,1,79.63,68.118a127.578,127.578,0,0,1-20.416-9.1L59.132,59A6.589,6.589,0,0,0,56.439,58.437Z" transform="translate(-36.89 -57.422)" fill="none"/>
      </g>
      <g id="Grupo_73303" data-name="Grupo 73303" transform="translate(79.01 87.885)">
        <path id="Trazado_116297" data-name="Trazado 116297" d="M103.183,123.98a.534.534,0,0,1-.239-.057c-.721-.359-1.5-.728-2.319-1.112-3.331-1.573-7.479-3.53-10.608-6.372-4.907-4.458-5.645-5.443-5.712-5.542a.536.536,0,0,1,.877-.616,59.579,59.579,0,0,0,5.555,5.365c3.01,2.735,6.908,4.573,10.346,6.2.825.387,1.611.758,2.339,1.122a.536.536,0,0,1-.239,1.015Z" transform="translate(-84.21 -110.056)" fill="#05d"/>
      </g>
      <g id="Grupo_73304" data-name="Grupo 73304" transform="translate(88.652 79.218)">
        <path id="Trazado_116298" data-name="Trazado 116298" d="M111.429,119.493a.522.522,0,0,1-.255-.067c-.055-.028-5.487-3.016-11.763-6.622a50.442,50.442,0,0,1-9.269-7.025.535.535,0,1,1,.756-.758,49.306,49.306,0,0,0,9.045,6.854c6.268,3.6,11.691,6.584,11.745,6.614a.535.535,0,0,1-.259,1Z" transform="translate(-89.984 -104.865)" fill="#05d"/>
      </g>
      <g id="Grupo_73305" data-name="Grupo 73305" transform="translate(97.447 71.673)">
        <path id="Trazado_116299" data-name="Trazado 116299" d="M123.261,114.967a.537.537,0,0,1-.24-.058c-1.546-.778-4-1.763-6.589-2.805-3.129-1.257-6.677-2.682-9.414-4.061-4.949-2.491-11.454-6.667-11.519-6.709a.535.535,0,1,1,.578-.9c.065.04,6.525,4.186,11.424,6.654,2.7,1.357,6.221,2.773,9.33,4.022,2.615,1.05,5.086,2.044,6.67,2.844a.535.535,0,0,1-.24,1.014Z" transform="translate(-95.252 -100.347)" fill="#05d"/>
      </g>
      <g id="Grupo_73306" data-name="Grupo 73306" transform="translate(49.777 15.739)">
        <path id="Trazado_116300" data-name="Trazado 116300" d="M67.238,76.638c-.022,0-.043,0-.065,0a.536.536,0,0,1-.468-.6,17.28,17.28,0,0,1,4.822-9.025.536.536,0,1,1,.775.74,16.433,16.433,0,0,0-4.533,8.414A.535.535,0,0,1,67.238,76.638Z" transform="translate(-66.702 -66.848)" fill="#05d"/>
      </g>
      <g id="Grupo_73307" data-name="Grupo 73307" transform="translate(33.391 28.609)">
        <path id="Trazado_116301" data-name="Trazado 116301" d="M57.422,83.822A.537.537,0,0,1,56.968,83c.217-.351,5.363-8.614,14.44-8.445a.537.537,0,0,1,.528.543.569.569,0,0,1-.544.529c-.065,0-.13,0-.194,0-8.293,0-13.269,7.859-13.319,7.94A.535.535,0,0,1,57.422,83.822Z" transform="translate(-56.888 -74.555)" fill="#05d"/>
      </g>
      <g id="Grupo_73308" data-name="Grupo 73308" transform="translate(55.099 34.588)">
        <path id="Trazado_116302" data-name="Trazado 116302" d="M79.743,117.86a.537.537,0,0,1-.529-.451c-.017-.107-1.718-10.821-2.186-20.982-.459-9.93-6.938-17.327-7-17.4a.535.535,0,0,1,.8-.711c.277.312,6.8,7.743,7.275,18.063.466,10.1,2.157,20.756,2.174,20.863a.535.535,0,0,1-.444.613A.727.727,0,0,1,79.743,117.86Z" transform="translate(-69.889 -78.136)" fill="#05d"/>
      </g>
      <g id="Grupo_73309" data-name="Grupo 73309" transform="translate(58.869 32.707)">
        <path id="Trazado_116303" data-name="Trazado 116303" d="M88.2,84.17l-.033,0c-7.4-.451-15.445-5.948-15.784-6.181a.536.536,0,0,1,.608-.883c.08.057,8.145,5.564,15.241,6a.536.536,0,0,1-.032,1.07Z" transform="translate(-72.147 -77.01)" fill="#05d"/>
      </g>
    </g>
    <g id="Grupo_73327" data-name="Grupo 73327" transform="translate(229.265 2648.573)">
      <path id="Trazado_116304" data-name="Trazado 116304" d="M88.948,122.877,64.84,108.958,125.773,73.4l24.108,13.919Z" transform="translate(-64.366 -72.931)" fill="#6abff4"/>
      <path id="Trazado_116305" data-name="Trazado 116305" d="M73.159,113.821l-2.135-1.26,60.934-35.554,2.135,1.26Z" transform="translate(-60.225 -70.518)" fill="#748fff"/>
      <g id="Grupo_73311" data-name="Grupo 73311">
        <path id="Trazado_116306" data-name="Trazado 116306" d="M89.137,123.54a.485.485,0,0,1-.237-.063L64.793,109.558a.472.472,0,0,1,0-.818l60.933-35.553a.471.471,0,0,1,.476,0L150.307,87.1a.474.474,0,0,1,0,.818L89.376,123.475A.471.471,0,0,1,89.137,123.54ZM65.972,109.147,89.136,122.52l59.993-35.006L125.965,74.141Z" transform="translate(-64.556 -73.121)" fill="none"/>
      </g>
      <g id="Grupo_73312" data-name="Grupo 73312" transform="translate(24.581 14.392)">
        <path id="Trazado_116307" data-name="Trazado 116307" d="M100.589,104.859,79.278,117.294v30.451l47.929-27.966,13-7.588V81.74Z" transform="translate(-79.278 -81.74)" fill="#748fff"/>
      </g>
      <g id="Grupo_73313" data-name="Grupo 73313" transform="translate(24.109 13.918)">
        <path id="Trazado_116308" data-name="Trazado 116308" d="M79.468,148.408a.48.48,0,0,1-.235-.063.473.473,0,0,1-.237-.409V117.483a.47.47,0,0,1,.235-.407l21.31-12.434.237.407-.237-.407,39.622-23.119a.461.461,0,0,1,.473,0,.469.469,0,0,1,.237.409v30.452a.468.468,0,0,1-.234.407L79.706,148.343A.472.472,0,0,1,79.468,148.408Zm.472-30.653v29.357l59.988-35V82.753Z" transform="translate(-78.995 -81.456)" fill="none"/>
      </g>
      <g id="Grupo_73314" data-name="Grupo 73314" transform="translate(55.048 19.991)">
        <path id="Trazado_116309" data-name="Trazado 116309" d="M97.525,101.461l27.257-16.368v22.3L97.525,123.763Z" transform="translate(-97.525 -85.093)" fill="#fff"/>
      </g>
      <g id="Grupo_73315" data-name="Grupo 73315" transform="translate(54.576 19.518)">
        <path id="Trazado_116310" data-name="Trazado 116310" d="M97.715,124.425a.456.456,0,0,1-.234-.063.471.471,0,0,1-.239-.411v-22.3a.476.476,0,0,1,.229-.406l27.256-16.367a.473.473,0,0,1,.716.406v22.3a.476.476,0,0,1-.229.406L97.958,124.357A.476.476,0,0,1,97.715,124.425Zm.472-22.508v21.2l26.311-15.8V86.12Z" transform="translate(-97.242 -84.81)" fill="none"/>
      </g>
      <g id="Grupo_73316" data-name="Grupo 73316" transform="translate(28.181 56.975)">
        <path id="Trazado_116311" data-name="Trazado 116311" d="M81.434,120.818,104.7,107.244V110.5L81.434,124.073Z" transform="translate(-81.434 -107.244)" fill="#c0d5ff"/>
      </g>
      <g id="Grupo_73317" data-name="Grupo 73317" transform="translate(27.709 56.502)">
        <path id="Trazado_116312" data-name="Trazado 116312" d="M81.624,124.736a.474.474,0,0,1-.473-.472v-3.256a.468.468,0,0,1,.234-.407l23.266-13.575a.461.461,0,0,1,.473,0,.469.469,0,0,1,.237.409v3.254a.468.468,0,0,1-.234.407L81.862,124.671A.472.472,0,0,1,81.624,124.736Zm.473-3.456v2.159l22.319-13.022v-2.159Z" transform="translate(-81.151 -106.96)" fill="none"/>
      </g>
      <g id="Grupo_73318" data-name="Grupo 73318" transform="translate(28.181 54.334)">
        <path id="Trazado_116313" data-name="Trazado 116313" d="M81.434,115.144l16.353-9.482v3.255L81.434,118.4Z" transform="translate(-81.434 -105.662)" fill="#c0d5ff"/>
      </g>
      <g id="Grupo_73319" data-name="Grupo 73319" transform="translate(27.709 53.862)">
        <path id="Trazado_116314" data-name="Trazado 116314" d="M81.624,119.061a.474.474,0,0,1-.473-.473v-3.254a.469.469,0,0,1,.235-.409l16.353-9.482a.473.473,0,0,1,.71.409v3.254a.473.473,0,0,1-.235.409L81.861,119A.48.48,0,0,1,81.624,119.061Zm.473-3.455v2.162L97.5,108.832v-2.159Z" transform="translate(-81.151 -105.379)" fill="none"/>
      </g>
      <g id="Grupo_73320" data-name="Grupo 73320" transform="translate(28.181 42.653)">
        <path id="Trazado_116315" data-name="Trazado 116315" d="M81.434,108.148v8.567l16.353-9.482V98.666Z" transform="translate(-81.434 -98.666)" fill="#c0d5ff"/>
      </g>
      <g id="Grupo_73321" data-name="Grupo 73321" transform="translate(27.709 42.18)">
        <path id="Trazado_116316" data-name="Trazado 116316" d="M81.624,117.378a.474.474,0,0,1-.473-.473v-8.567a.469.469,0,0,1,.235-.409L97.74,98.447a.473.473,0,0,1,.71.409v8.567a.473.473,0,0,1-.235.409l-16.353,9.482A.481.481,0,0,1,81.624,117.378Zm.473-8.766v7.472L97.5,107.151V99.675Z" transform="translate(-81.151 -98.383)" fill="none"/>
      </g>
      <path id="Trazado_116317" data-name="Trazado 116317" d="M64.84,94.7l24.108,13.919v30.451L64.84,125.149Z" transform="translate(-64.366 -58.671)" fill="#5fb0e2"/>
      <g id="Grupo_73322" data-name="Grupo 73322" transform="translate(0 35.555)">
        <path id="Trazado_116318" data-name="Trazado 116318" d="M89.137,139.73a.486.486,0,0,1-.237-.063L64.793,125.747a.471.471,0,0,1-.237-.409V94.888a.473.473,0,0,1,.71-.409L89.375,108.4a.473.473,0,0,1,.235.409v30.451a.475.475,0,0,1-.235.409A.481.481,0,0,1,89.137,139.73ZM65.5,125.066l23.164,13.371V109.079L65.5,95.706Z" transform="translate(-64.556 -94.415)" fill="none"/>
      </g>
      <g id="Grupo_73324" data-name="Grupo 73324" transform="translate(59.097 36.884)">
        <path id="Trazado_116319" data-name="Trazado 116319" d="M102.34,98.252l12.688-2.7a2.662,2.662,0,0,1,1.109,5.208l-12.688,2.7a2.662,2.662,0,0,1-1.109-5.208Z" transform="translate(-99.76 -95.021)" fill="#748fff"/>
        <g id="Grupo_73323" data-name="Grupo 73323">
          <path id="Trazado_116320" data-name="Trazado 116320" d="M103.083,104.181a3.135,3.135,0,0,1-.651-6.2h0l12.688-2.7a3.135,3.135,0,0,1,1.306,6.133l-12.688,2.7A3.114,3.114,0,0,1,103.083,104.181Zm-.454-5.276a2.189,2.189,0,0,0,.912,4.281l12.688-2.7a2.185,2.185,0,0,0,.735-3.972,2.142,2.142,0,0,0-1.645-.307Z" transform="translate(-99.949 -95.211)" fill="#05d"/>
        </g>
      </g>
      <g id="Grupo_73326" data-name="Grupo 73326" transform="translate(64.126 29.053)">
        <path id="Trazado_116321" data-name="Trazado 116321" d="M103.508,103.99l5.642-11.683a2.661,2.661,0,1,1,4.792,2.316L108.3,106.3a2.662,2.662,0,0,1-4.794-2.314Z" transform="translate(-102.771 -90.331)" fill="#748fff"/>
        <g id="Grupo_73325" data-name="Grupo 73325">
          <path id="Trazado_116322" data-name="Trazado 116322" d="M106.088,108.472a3.139,3.139,0,0,1-2.815-4.5l5.64-11.681a3.135,3.135,0,0,1,5.647,2.727L108.92,106.7a3.156,3.156,0,0,1-2.832,1.77Zm5.655-17a2.185,2.185,0,0,0-.726.124,2.163,2.163,0,0,0-1.251,1.112l-5.642,11.681h0a2.189,2.189,0,0,0,3.942,1.9l5.642-11.683a2.185,2.185,0,0,0-1.965-3.137ZM103.7,104.181h0Z" transform="translate(-102.961 -90.521)" fill="#05d"/>
        </g>
      </g>
    </g>
    <g id="Grupo_73360" data-name="Grupo 73360" transform="translate(318.695 2649.508)">
      <path id="Trazado_116323" data-name="Trazado 116323" d="M-333.689,262.993c-4.048,0-7.329,1.746-7.329,3.9s3.281,3.9,7.329,3.9,7.329-1.746,7.329-3.9S-329.642,262.993-333.689,262.993Z" transform="translate(351.241 -252.417)" fill="#92b4d1" opacity="0.182"/>
      <path id="Trazado_116324" data-name="Trazado 116324" d="M-342.059,257.312c-4.047,0-7.328,1.745-7.328,3.9s3.281,3.9,7.328,3.9,7.329-1.746,7.329-3.9S-338.011,257.312-342.059,257.312Z" transform="translate(349.387 -253.676)" fill="#92b4d1" opacity="0.164"/>
      <g id="Grupo_73357" data-name="Grupo 73357" transform="translate(12.82 6.766)">
        <path id="Trazado_116325" data-name="Trazado 116325" d="M-334.188,263.52a27.883,27.883,0,0,1-4.7-1.6v4.1c0,1.383,2.106,2.5,4.7,2.5s4.7-1.12,4.7-2.5v-4.1S-332.688,263.52-334.188,263.52Z" transform="translate(338.892 -259.42)" fill="#4f83fd"/>
        <g id="Grupo_73356" data-name="Grupo 73356">
          <path id="Trazado_116326" data-name="Trazado 116326" d="M-334.188,259.874c-2.6,0-4.7,1.12-4.7,2.5s2.106,2.5,4.7,2.5,4.7-1.12,4.7-2.5S-331.59,259.874-334.188,259.874Z" transform="translate(338.892 -259.874)" fill="#71a0ff"/>
        </g>
      </g>
      <g id="Grupo_73359" data-name="Grupo 73359" transform="translate(2.624)">
        <path id="Trazado_116327" data-name="Trazado 116327" d="M-342.534,257.981a27.905,27.905,0,0,1-4.705-1.6v4.1c0,1.383,2.107,2.5,4.705,2.5s4.7-1.12,4.7-2.5v-4.1S-341.035,257.981-342.534,257.981Z" transform="translate(347.239 -253.881)" fill="#4f83fd"/>
        <g id="Grupo_73358" data-name="Grupo 73358">
          <path id="Trazado_116328" data-name="Trazado 116328" d="M-342.534,254.335c-2.6,0-4.705,1.12-4.705,2.5s2.107,2.5,4.705,2.5,4.7-1.12,4.7-2.5S-339.935,254.335-342.534,254.335Z" transform="translate(347.239 -254.335)" fill="#71a0ff"/>
        </g>
      </g>
    </g>
    <g id="Grupo_74699" data-name="Grupo 74699" transform="translate(420.472 2720.258)">
      <path id="Trazado_116323-2" data-name="Trazado 116323" d="M-333.689,262.993c4.048,0,7.329,1.746,7.329,3.9s-3.281,3.9-7.329,3.9-7.329-1.746-7.329-3.9S-337.736,262.993-333.689,262.993Z" transform="translate(341.018 -252.417)" fill="#92b4d1" opacity="0.182"/>
      <path id="Trazado_116324-2" data-name="Trazado 116324" d="M-342.058,257.312c4.047,0,7.328,1.745,7.328,3.9s-3.281,3.9-7.328,3.9-7.329-1.746-7.329-3.9S-346.106,257.312-342.058,257.312Z" transform="translate(359.611 -253.676)" fill="#92b4d1" opacity="0.164"/>
      <g id="Grupo_73357-2" data-name="Grupo 73357" transform="translate(2.653 6.766)">
        <path id="Trazado_116325-2" data-name="Trazado 116325" d="M-334.188,263.52a27.885,27.885,0,0,0,4.7-1.6v4.1c0,1.383-2.106,2.5-4.7,2.5s-4.7-1.12-4.7-2.5v-4.1S-335.688,263.52-334.188,263.52Z" transform="translate(338.892 -259.42)" fill="#4f83fd"/>
        <g id="Grupo_73356-2" data-name="Grupo 73356">
          <path id="Trazado_116326-2" data-name="Trazado 116326" d="M-334.188,259.874c2.6,0,4.7,1.12,4.7,2.5s-2.106,2.5-4.7,2.5-4.7-1.12-4.7-2.5S-336.786,259.874-334.188,259.874Z" transform="translate(338.892 -259.874)" fill="#71a0ff"/>
        </g>
      </g>
      <g id="Grupo_73359-2" data-name="Grupo 73359" transform="translate(12.848 0)">
        <path id="Trazado_116327-2" data-name="Trazado 116327" d="M-342.535,257.981a27.906,27.906,0,0,0,4.705-1.6v4.1c0,1.383-2.107,2.5-4.705,2.5s-4.7-1.12-4.7-2.5v-4.1S-344.034,257.981-342.535,257.981Z" transform="translate(347.239 -253.881)" fill="#4f83fd"/>
        <g id="Grupo_73358-2" data-name="Grupo 73358">
          <path id="Trazado_116328-2" data-name="Trazado 116328" d="M-342.535,254.335c2.6,0,4.705,1.12,4.705,2.5s-2.107,2.5-4.705,2.5-4.7-1.12-4.7-2.5S-345.133,254.335-342.535,254.335Z" transform="translate(347.239 -254.335)" fill="#71a0ff"/>
        </g>
      </g>
    </g>
    <g id="Grupo_74604" data-name="Grupo 74604" transform="translate(345.9 2656.974)">
      <path id="Trazado_116329" data-name="Trazado 116329" d="M-373.145,284.991c-12.129,0-21.962,5.207-21.962,11.633s9.833,11.633,21.962,11.633,21.962-5.208,21.962-11.633S-361.017,284.991-373.145,284.991Z" transform="translate(395.107 -235.786)" fill="#92b4d1" opacity="0.173"/>
      <g id="Grupo_73371" data-name="Grupo 73371" transform="translate(3.575)">
        <g id="Grupo_73361" data-name="Grupo 73361" transform="translate(2.166 20.21)">
          <path id="Trazado_116330" data-name="Trazado 116330" d="M-390.834,263.578v38.436c0,4.841,7.379,8.765,16.48,8.765s16.478-3.924,16.478-8.765v-38.6Z" transform="translate(390.834 -263.413)" fill="#748fff"/>
        </g>
        <g id="Grupo_73363" data-name="Grupo 73363" transform="translate(2.166 26.436)">
          <g id="Grupo_73362" data-name="Grupo 73362">
            <path id="Trazado_116331" data-name="Trazado 116331" d="M-390.834,268.047v24.66c0,4.84,7.379,8.765,16.48,8.765a26.409,26.409,0,0,0,10.564-2.042V274.771a26.432,26.432,0,0,1-10.564,2.041C-383.455,276.812-390.834,272.888-390.834,268.047Z" transform="translate(390.834 -268.047)" fill="#f6f6f6"/>
          </g>
        </g>
        <g id="Grupo_73365" data-name="Grupo 73365" transform="translate(2.166 30.179)">
          <g id="Grupo_73364" data-name="Grupo 73364">
            <path id="Trazado_116332" data-name="Trazado 116332" d="M-368.018,278.916a29.278,29.278,0,0,1-6.337.683c-9.1,0-16.48-3.925-16.48-8.767v4.006c0,4.842,7.379,8.765,16.48,8.765a29.29,29.29,0,0,0,6.337-.681Z" transform="translate(390.834 -270.832)" fill="#4f83fd"/>
          </g>
        </g>
        <g id="Grupo_73370" data-name="Grupo 73370">
          <g id="Grupo_73366" data-name="Grupo 73366" transform="translate(0 8.917)">
            <path id="Trazado_116333" data-name="Trazado 116333" d="M-358.776,258.841c-3.453-2.33-8.8-3.832-14.809-3.832a31.955,31.955,0,0,0-9.868,1.5l-1.561-.148-7.431,4.411v4.275c0,5.54,8.444,10.032,18.861,10.032s18.862-4.492,18.862-10.032v-4.275Z" transform="translate(392.446 -255.009)" fill="#cedcff"/>
          </g>
          <g id="Grupo_73367" data-name="Grupo 73367" transform="translate(0 4.644)">
            <path id="Trazado_116334" data-name="Trazado 116334" d="M-373.585,251.829c-10.417,0-18.861,4.492-18.861,10.032s8.444,10.032,18.861,10.032,18.862-4.491,18.862-10.032S-363.169,251.829-373.585,251.829Z" transform="translate(392.446 -251.829)" fill="#f6f6f6"/>
          </g>
          <g id="Grupo_73368" data-name="Grupo 73368" transform="translate(3.104 4.882)">
            <path id="Trazado_116335" data-name="Trazado 116335" d="M-361.88,255.222c-2.9-1.955-7.383-3.216-12.428-3.216a26.79,26.79,0,0,0-8.281,1.255l-1.31-.125-6.236,2.408v4.882c0,4.649,7.087,8.42,15.828,8.42s15.829-3.771,15.829-8.42v-4.882Z" transform="translate(390.136 -252.006)" fill="#4f83fd"/>
          </g>
          <g id="Grupo_73369" data-name="Grupo 73369" transform="translate(3.104)">
            <path id="Trazado_116336" data-name="Trazado 116336" d="M-374.308,248.373c-8.741,0-15.828,3.769-15.828,8.42s7.087,8.42,15.828,8.42,15.829-3.771,15.829-8.42S-365.566,248.373-374.308,248.373Z" transform="translate(390.136 -248.373)" fill="#71a0ff"/>
          </g>
        </g>
      </g>
    </g>
    <g id="Grupo_73424" data-name="Grupo 73424" transform="translate(359.025 2617.501)">
      <path id="Trazado_116350" data-name="Trazado 116350" d="M-266.782,244.977-292.275,259.7c-2.878,1.662-7.953,1.452-11.277-.468l-67.295-38.852c-3.324-1.919-3.687-4.849-.81-6.511l25.493-14.717c2.879-1.662,7.953-1.452,11.276.467l67.295,38.852C-264.268,240.385-263.9,243.315-266.782,244.977Z" transform="translate(373.598 -194.808)" fill="#92b4d1" opacity="0.251"/>
      <g id="Grupo_73423" data-name="Grupo 73423" transform="translate(3.058)">
        <g id="Grupo_73389" data-name="Grupo 73389" transform="translate(0.007 3.098)">
          <path id="Trazado_116351" data-name="Trazado 116351" d="M-267.572,236.407l-2.234.254c-.126-.083-.249-.164-.385-.243l-64.049-36.979c-3.164-1.826-7.994-2.027-10.733-.445L-369.235,213c-.143.083-.272.17-.4.259l-1.441-.616v2.894a1.9,1.9,0,0,0,0,.2v.057h0c.051,1.188.928,2.428,2.608,3.4l64.047,36.979c3.164,1.826,7.994,2.027,10.734.445l24.263-14.009a3.251,3.251,0,0,0,1.835-2.5l.013-.006Z" transform="translate(371.077 -197.927)" fill="#c0d5ff"/>
        </g>
        <g id="Grupo_73390" data-name="Grupo 73390">
          <path id="Trazado_116352" data-name="Trazado 116352" d="M-269.419,240.067l-24.263,14.008c-2.74,1.582-7.571,1.381-10.734-.445l-64.049-36.979c-3.164-1.826-3.51-4.615-.77-6.2l24.263-14.009c2.739-1.582,7.57-1.381,10.733.445l64.049,36.979C-267.026,235.7-266.679,238.485-269.419,240.067Z" transform="translate(371.083 -195.379)" fill="#f6f6f6"/>
        </g>
        <g id="Grupo_73422" data-name="Grupo 73422" transform="translate(10.533 4.675)">
          <g id="Grupo_73393" data-name="Grupo 73393" transform="translate(14.113 16.751)">
            <g id="Grupo_73392" data-name="Grupo 73392">
              <path id="Trazado_116353" data-name="Trazado 116353" d="M-346.212,217.461c-2.541,0-4.6-1.1-4.6-2.446v3.228c0,1.351,2.058,2.446,4.6,2.446s4.6-1.1,4.6-2.446v-3.228C-341.613,216.366-343.672,217.461-346.212,217.461Z" transform="translate(350.811 -212.569)" fill="#748fff"/>
              <g id="Grupo_73391" data-name="Grupo 73391">
                <path id="Trazado_116354" data-name="Trazado 116354" d="M-346.212,213c-2.541,0-4.6,1.1-4.6,2.446s2.058,2.446,4.6,2.446,4.6-1.1,4.6-2.446S-343.672,213-346.212,213Z" transform="translate(350.811 -213.003)" fill="#6abff4"/>
              </g>
            </g>
          </g>
          <g id="Grupo_73421" data-name="Grupo 73421">
            <g id="Grupo_73396" data-name="Grupo 73396" transform="translate(15.486)">
              <g id="Grupo_73395" data-name="Grupo 73395">
                <path id="Trazado_116355" data-name="Trazado 116355" d="M-345.082,203.683c-2.54,0-4.6-1.1-4.6-2.446v3.229c0,1.351,2.06,2.446,4.6,2.446s4.6-1.1,4.6-2.446v-3.229C-340.484,202.588-342.543,203.683-345.082,203.683Z" transform="translate(349.682 -198.791)" fill="#748fff"/>
                <g id="Grupo_73394" data-name="Grupo 73394">
                  <path id="Trazado_116356" data-name="Trazado 116356" d="M-345.082,199.225c-2.54,0-4.6,1.1-4.6,2.446s2.06,2.446,4.6,2.446,4.6-1.1,4.6-2.446S-342.543,199.225-345.082,199.225Z" transform="translate(349.682 -199.225)" fill="#6abff4"/>
                </g>
              </g>
            </g>
            <g id="Grupo_73399" data-name="Grupo 73399" transform="translate(0 8.599)">
              <g id="Grupo_73398" data-name="Grupo 73398">
                <path id="Trazado_116357" data-name="Trazado 116357" d="M-357.821,210.756c-2.54,0-4.6-1.1-4.6-2.446v3.228c0,1.351,2.058,2.446,4.6,2.446s4.6-1.1,4.6-2.446V208.31C-353.221,209.661-355.281,210.756-357.821,210.756Z" transform="translate(362.419 -205.864)" fill="#748fff"/>
                <g id="Grupo_73397" data-name="Grupo 73397">
                  <path id="Trazado_116358" data-name="Trazado 116358" d="M-357.821,206.3c-2.54,0-4.6,1.094-4.6,2.446s2.058,2.446,4.6,2.446,4.6-1.1,4.6-2.446S-355.281,206.3-357.821,206.3Z" transform="translate(362.419 -206.298)" fill="#6abff4"/>
                </g>
              </g>
            </g>
            <g id="Grupo_73402" data-name="Grupo 73402" transform="translate(29.599 8.153)">
              <g id="Grupo_73401" data-name="Grupo 73401">
                <path id="Trazado_116359" data-name="Trazado 116359" d="M-333.475,210.389c-2.54,0-4.6-1.1-4.6-2.446v3.228c0,1.351,2.06,2.446,4.6,2.446s4.6-1.1,4.6-2.446v-3.228C-328.875,209.294-330.935,210.389-333.475,210.389Z" transform="translate(338.074 -205.497)" fill="#748fff"/>
                <g id="Grupo_73400" data-name="Grupo 73400">
                  <path id="Trazado_116360" data-name="Trazado 116360" d="M-333.475,205.931c-2.54,0-4.6,1.094-4.6,2.446s2.06,2.446,4.6,2.446,4.6-1.1,4.6-2.446S-330.935,205.931-333.475,205.931Z" transform="translate(338.074 -205.931)" fill="#6abff4"/>
                </g>
              </g>
            </g>
            <g id="Grupo_73405" data-name="Grupo 73405" transform="translate(43.713 15.917)">
              <g id="Grupo_73404" data-name="Grupo 73404">
                <path id="Trazado_116361" data-name="Trazado 116361" d="M-321.867,216.775c-2.54,0-4.6-1.1-4.6-2.446v3.229c0,1.351,2.058,2.446,4.6,2.446s4.6-1.1,4.6-2.446v-3.229C-317.267,215.68-319.327,216.775-321.867,216.775Z" transform="translate(326.465 -211.883)" fill="#748fff"/>
                <g id="Grupo_73403" data-name="Grupo 73403">
                  <path id="Trazado_116362" data-name="Trazado 116362" d="M-321.867,212.317c-2.54,0-4.6,1.1-4.6,2.446s2.058,2.446,4.6,2.446,4.6-1.1,4.6-2.446S-319.327,212.317-321.867,212.317Z" transform="translate(326.465 -212.317)" fill="#6abff4"/>
                </g>
              </g>
            </g>
            <g id="Grupo_73408" data-name="Grupo 73408" transform="translate(28.226 24.517)">
              <g id="Grupo_73407" data-name="Grupo 73407">
                <path id="Trazado_116363" data-name="Trazado 116363" d="M-334.6,223.848c-2.54,0-4.6-1.1-4.6-2.446v3.228c0,1.351,2.06,2.446,4.6,2.446s4.6-1.1,4.6-2.446V221.4C-330.005,222.753-332.064,223.848-334.6,223.848Z" transform="translate(339.203 -218.956)" fill="#748fff"/>
                <g id="Grupo_73406" data-name="Grupo 73406">
                  <path id="Trazado_116364" data-name="Trazado 116364" d="M-334.6,219.39c-2.54,0-4.6,1.1-4.6,2.446s2.06,2.446,4.6,2.446,4.6-1.1,4.6-2.446S-332.064,219.39-334.6,219.39Z" transform="translate(339.203 -219.39)" fill="#6abff4"/>
                </g>
              </g>
            </g>
            <g id="Grupo_73411" data-name="Grupo 73411" transform="translate(57.826 24.07)">
              <g id="Grupo_73410" data-name="Grupo 73410">
                <path id="Trazado_116365" data-name="Trazado 116365" d="M-310.259,223.481c-2.54,0-4.6-1.1-4.6-2.446v3.228c0,1.351,2.058,2.446,4.6,2.446s4.6-1.1,4.6-2.446v-3.228C-305.659,222.386-307.719,223.481-310.259,223.481Z" transform="translate(314.857 -218.589)" fill="#748fff"/>
                <g id="Grupo_73409" data-name="Grupo 73409">
                  <path id="Trazado_116366" data-name="Trazado 116366" d="M-310.259,219.023c-2.54,0-4.6,1.094-4.6,2.446s2.058,2.446,4.6,2.446,4.6-1.1,4.6-2.446S-307.719,219.023-310.259,219.023Z" transform="translate(314.857 -219.023)" fill="#6abff4"/>
                </g>
              </g>
            </g>
            <g id="Grupo_73414" data-name="Grupo 73414" transform="translate(42.339 32.669)">
              <g id="Grupo_73413" data-name="Grupo 73413">
                <path id="Trazado_116367" data-name="Trazado 116367" d="M-323,230.553c-2.54,0-4.6-1.1-4.6-2.446v3.229c0,1.351,2.06,2.446,4.6,2.446s4.6-1.1,4.6-2.446v-3.229C-318.4,229.458-320.456,230.553-323,230.553Z" transform="translate(327.595 -225.661)" fill="#748fff"/>
                <g id="Grupo_73412" data-name="Grupo 73412">
                  <path id="Trazado_116368" data-name="Trazado 116368" d="M-323,226.095c-2.54,0-4.6,1.1-4.6,2.446s2.06,2.446,4.6,2.446,4.6-1.1,4.6-2.446S-320.456,226.095-323,226.095Z" transform="translate(327.595 -226.095)" fill="#6abff4"/>
                </g>
              </g>
            </g>
            <g id="Grupo_73417" data-name="Grupo 73417" transform="translate(71.939 32.222)">
              <g id="Grupo_73416" data-name="Grupo 73416">
                <path id="Trazado_116369" data-name="Trazado 116369" d="M-298.65,230.186c-2.54,0-4.6-1.1-4.6-2.446v3.228c0,1.351,2.06,2.446,4.6,2.446s4.6-1.1,4.6-2.446V227.74C-294.051,229.091-296.11,230.186-298.65,230.186Z" transform="translate(303.249 -225.294)" fill="#748fff"/>
                <g id="Grupo_73415" data-name="Grupo 73415">
                  <path id="Trazado_116370" data-name="Trazado 116370" d="M-298.65,225.728c-2.54,0-4.6,1.1-4.6,2.446s2.06,2.446,4.6,2.446,4.6-1.1,4.6-2.446S-296.11,225.728-298.65,225.728Z" transform="translate(303.249 -225.728)" fill="#6abff4"/>
                </g>
              </g>
            </g>
            <g id="Grupo_73420" data-name="Grupo 73420" transform="translate(56.453 40.821)">
              <g id="Grupo_73419" data-name="Grupo 73419">
                <path id="Trazado_116371" data-name="Trazado 116371" d="M-311.388,237.259c-2.54,0-4.6-1.1-4.6-2.447v3.229c0,1.351,2.058,2.446,4.6,2.446s4.6-1.1,4.6-2.446v-3.229C-306.788,236.164-308.848,237.259-311.388,237.259Z" transform="translate(315.986 -232.366)" fill="#748fff"/>
                <g id="Grupo_73418" data-name="Grupo 73418">
                  <path id="Trazado_116372" data-name="Trazado 116372" d="M-311.388,232.8c-2.54,0-4.6,1.1-4.6,2.446s2.058,2.447,4.6,2.447,4.6-1.1,4.6-2.447S-308.848,232.8-311.388,232.8Z" transform="translate(315.986 -232.8)" fill="#6abff4"/>
                </g>
              </g>
            </g>
          </g>
        </g>
      </g>
    </g>
    <g id="Grupo_73476" data-name="Grupo 73476" transform="translate(498.05 2678.784)">
      <path id="Trazado_116408" data-name="Trazado 116408" d="M-150.66,255.991h0a.849.849,0,0,1-.847-.847h0a.849.849,0,0,1,.847-.847h0a.85.85,0,0,1,.847.847h0A.849.849,0,0,1-150.66,255.991Z" transform="translate(151.507 -254.297)" fill="#fff"/>
    </g>
    <g id="Grupo_73388" data-name="Grupo 73388" transform="translate(430.025 2639.969)">
      <path id="Trazado_116337" data-name="Trazado 116337" d="M-299.822,350.357l90.11-51.95-49.327-28.479-90.11,51.95Z" transform="translate(349.149 -252.278)" fill="#92b4d1" opacity="0.191"/>
      <g id="Grupo_73387" data-name="Grupo 73387" transform="translate(7.929 0)">
        <g id="Grupo_73373" data-name="Grupo 73373">
          <path id="Trazado_116338" data-name="Trazado 116338" d="M-301.492,327.712l81.645-47.138-41.64-24.041-81.645,47.138Z" transform="translate(343.132 -256.534)" fill="#f6f6f6"/>
        </g>
        <g id="Grupo_73374" data-name="Grupo 73374" transform="translate(14.345 29.996)">
          <path id="Trazado_116339" data-name="Trazado 116339" d="M-304.951,316.992l38.091-21.875-27.3-15.82-38.091,21.875Z" transform="translate(332.246 -279.297)" fill="#6abff4"/>
        </g>
        <g id="Grupo_73375" data-name="Grupo 73375" transform="translate(6.664 4.436)">
          <path id="Trazado_116340" data-name="Trazado 116340" d="M-334.445,305.19l75.086-43.351-3.63-1.939-75.086,43.351Z" transform="translate(338.075 -259.9)" fill="#71a0ff"/>
        </g>
        <g id="Grupo_73376" data-name="Grupo 73376" transform="translate(57.251 8.843)">
          <path id="Trazado_116341" data-name="Trazado 116341" d="M-296.056,283.421l31.887-18.238-3.63-1.939-31.887,18.238Z" transform="translate(299.685 -263.245)" fill="#71a0ff"/>
        </g>
        <g id="Grupo_73377" data-name="Grupo 73377" transform="translate(64.704 12.862)">
          <path id="Trazado_116342" data-name="Trazado 116342" d="M-290.4,286.47l31.888-18.237-3.63-1.939-31.887,18.237Z" transform="translate(294.029 -266.294)" fill="#71a0ff"/>
        </g>
        <g id="Grupo_73378" data-name="Grupo 73378" transform="translate(41.64 24.041)">
          <path id="Trazado_116343" data-name="Trazado 116343" d="M-229.887,296.261V274.778l-81.645,47.138V343.4Z" transform="translate(311.532 -274.778)" fill="#c0d5ff"/>
        </g>
        <g id="Grupo_73379" data-name="Grupo 73379" transform="translate(0 47.138)">
          <path id="Trazado_116344" data-name="Trazado 116344" d="M-343.132,313.789V292.305l41.64,24.041v21.483Z" transform="translate(343.132 -292.305)" fill="#b3c8f2"/>
        </g>
        <g id="Grupo_73380" data-name="Grupo 73380" transform="translate(5.042 55.529)">
          <path id="Trazado_116345" data-name="Trazado 116345" d="M-339.306,308.839V298.674l31.557,18.219v10.165Z" transform="translate(339.306 -298.674)" fill="#b3c8f2"/>
        </g>
        <g id="Grupo_73383" data-name="Grupo 73383" transform="translate(51.447 38.312)">
          <g id="Grupo_73381" data-name="Grupo 73381" transform="translate(1.849 0.099)">
            <path id="Trazado_116346" data-name="Trazado 116346" d="M-299.655,293.276c.759-2.244,1.865-7.593,1.865-7.593l4.115,1.535c1.95.658,2.434,4.438,1.082,8.443s-4.03,6.718-6.52,5.876l-3.574-1.352S-300.413,295.521-299.655,293.276Z" transform="translate(302.687 -285.683)" fill="#c0d5ff"/>
          </g>
          <g id="Grupo_73382" data-name="Grupo 73382">
            <path id="Trazado_116347" data-name="Trazado 116347" d="M-296.262,294.149c-1.352,4-4.03,6.718-5.979,6.059s-2.435-4.439-1.083-8.444,4.03-6.716,5.98-6.058S-294.911,290.145-296.262,294.149Z" transform="translate(304.09 -285.608)" fill="#fff"/>
          </g>
        </g>
        <g id="Grupo_73386" data-name="Grupo 73386" transform="translate(31.193 43.737)">
          <g id="Grupo_73384" data-name="Grupo 73384" transform="translate(0 2.801)">
            <path id="Trazado_116348" data-name="Trazado 116348" d="M-311.423,293.523c2.348.32,7.809.4,7.809.4l-.73,4.331c-.278,2.04-3.9,3.23-8.087,2.658s-7.357-2.687-7-5.292l.654-3.766S-313.771,293.2-311.423,293.523Z" transform="translate(319.461 -291.85)" fill="#c0d5ff"/>
          </g>
          <g id="Grupo_73385" data-name="Grupo 73385" transform="translate(0.664)">
            <path id="Trazado_116349" data-name="Trazado 116349" d="M-311.861,297.252c-4.188-.571-7.357-2.687-7.079-4.727s3.9-3.228,8.087-2.658,7.357,2.688,7.079,4.727S-307.673,297.824-311.861,297.252Z" transform="translate(318.957 -289.725)" fill="#fff"/>
          </g>
        </g>
      </g>
    </g>
    <g id="Grupo_74698" data-name="Grupo 74698" transform="translate(100.98 -786.388)">
      <path id="Trazado_110210" data-name="Trazado 110210" d="M324.574,206.159c.381-6.816,10.861-12.28,23.766-12.28s23.382,5.464,23.762,12.28c.006.126.035.251.035.379,0,6.992-10.655,12.659-23.8,12.659s-23.8-5.667-23.8-12.659C324.539,206.41,324.569,206.285,324.574,206.159Z" transform="translate(96.345 3320)" fill="#92b4d1" opacity="0.156"/>
      <g id="Grupo_70720" data-name="Grupo 70720" transform="translate(425.155 3443.361)">
        <g id="Grupo_70715" data-name="Grupo 70715" transform="translate(2.135 30.466)">
          <path id="Trazado_110418" data-name="Trazado 110418" d="M345.4,186.495c9.629,0,17.438-4.152,17.438-9.277v40.339c0,5.124-7.808,9.275-17.437,9.275s-17.441-4.151-17.441-9.275V177.218C327.957,182.342,335.765,186.495,345.4,186.495Z" transform="translate(-327.957 -167.943)" fill="#d1bdbd"/>
          <path id="Trazado_110419" data-name="Trazado 110419" d="M345.4,172.2c9.629,0,17.438,4.152,17.438,9.275s-7.808,9.277-17.437,9.277-17.441-4.152-17.441-9.277S335.765,172.2,345.4,172.2Z" transform="translate(-327.957 -172.197)" fill="#f4e6e6"/>
        </g>
        <path id="Trazado_110420" data-name="Trazado 110420" d="M346.381,183c10.784,0,19.527-4.649,19.527-10.387v49.859c0,5.737-8.743,10.387-19.527,10.387s-19.53-4.649-19.53-10.387V172.609C326.851,178.346,335.594,183,346.381,183Z" transform="translate(-326.851 -141.382)" fill="#e8d6d6" opacity="0.7"/>
        <path id="Trazado_110421" data-name="Trazado 110421" d="M326.881,177.062c.312-5.593,8.911-10.076,19.5-10.076s19.185,4.483,19.5,10.076c.006.1.03.205.03.31,0,5.737-8.743,10.387-19.527,10.387s-19.53-4.649-19.53-10.387C326.851,177.267,326.875,177.166,326.881,177.062Z" transform="translate(-326.851 -146.146)" fill="#e8d6d6" opacity="0.5"/>
        <path id="Trazado_110422" data-name="Trazado 110422" d="M330.668,170.7c.2-3.584,5.71-6.456,12.492-6.456s12.293,2.872,12.493,6.456c0,.067.02.131.02.2,0,3.676-5.6,6.654-12.513,6.654s-12.511-2.978-12.511-6.654C330.649,170.835,330.664,170.77,330.668,170.7Z" transform="translate(-323.632 -148.466)" fill="#e8d6d6" opacity="0.7"/>
        <g id="Grupo_70716" data-name="Grupo 70716" transform="translate(0 46.706)">
          <path id="Trazado_110423" data-name="Trazado 110423" d="M346.381,191.376c10.784,0,19.527-4.649,19.527-10.387v18.2c0,5.737-8.743,10.387-19.527,10.387s-19.53-4.649-19.53-10.387v-18.2C326.851,186.726,335.594,191.376,346.381,191.376Z" transform="translate(-326.851 -180.989)" fill="#7e5ee3"/>
        </g>
        <g id="Grupo_70717" data-name="Grupo 70717" transform="translate(2.211 9.674)">
          <path id="Trazado_110424" data-name="Trazado 110424" d="M344.395,169.652c0-.092.02-.181.026-.273v-8.394h4.413v14.809C346.083,174.163,344.395,172.015,344.395,169.652Z" transform="translate(-344.395 -160.904)" fill="#bca4a4"/>
          <path id="Trazado_110425" data-name="Trazado 110425" d="M347.328,161.022c.183-.035.382-.05.569-.081v17.526a22.425,22.425,0,0,1-7.636-2.636V161.022Z" transform="translate(-335.822 -160.941)" fill="#af9797"/>
        </g>
        <g id="Grupo_70718" data-name="Grupo 70718" transform="translate(14.286 9.21)">
          <path id="Trazado_110426" data-name="Trazado 110426" d="M333.234,160.985v15.221a19.387,19.387,0,0,1-2.394,1.049v-16.27Z" transform="translate(-315.832 -160.44)" fill="#bca4a4"/>
          <path id="Trazado_110427" data-name="Trazado 110427" d="M330.309,160.985v8.394c.006.092.026.181.026.273a6.308,6.308,0,0,1-2.287,4.563v-13.23Z" transform="translate(-307.775 -160.44)" fill="#bca4a4"/>
          <path id="Trazado_110428" data-name="Trazado 110428" d="M341.012,160.69c1.044,0,2.063.055,3.055.151v18.119c-.994.094-2.012.151-3.055.151a31.624,31.624,0,0,1-5.244-.432V161.154A30.926,30.926,0,0,1,341.012,160.69Z" transform="translate(-335.768 -160.69)" fill="#bca4a4"/>
          <path id="Trazado_110429" data-name="Trazado 110429" d="M332.157,160.985v13.23a13.268,13.268,0,0,1-2.871,1.991V160.985Z" transform="translate(-311.884 -160.44)" fill="#bca4a4"/>
          <path id="Trazado_110430" data-name="Trazado 110430" d="M332.157,160.985v13.23a13.268,13.268,0,0,1-2.871,1.991V160.985Z" transform="translate(-311.884 -160.44)" fill="#fff" opacity="0.3"/>
          <path id="Trazado_110431" data-name="Trazado 110431" d="M334.892,161.165h3.953v16.27a27.284,27.284,0,0,1-6.709,1.456V160.772C333.082,160.864,334,161,334.892,161.165Z" transform="translate(-323.837 -160.621)" fill="#bca4a4"/>
          <path id="Trazado_110432" data-name="Trazado 110432" d="M334.892,161.165h3.953v16.27a27.284,27.284,0,0,1-6.709,1.456V160.772C333.082,160.864,334,161,334.892,161.165Z" transform="translate(-323.837 -160.621)" fill="#fff" opacity="0.3"/>
        </g>
        <path id="Trazado_110433" data-name="Trazado 110433" d="M328.076,164.639c.275-4.96,7.9-8.935,17.292-8.935s17.013,3.975,17.29,8.935c0,.092.026.183.026.275,0,5.089-7.753,9.212-17.316,9.212s-17.319-4.123-17.319-9.212C328.048,164.822,328.07,164.731,328.076,164.639Z" transform="translate(-325.837 -155.704)" fill="#f4e6e6"/>
        <g id="Grupo_70719" data-name="Grupo 70719" transform="translate(10.871 4.005)">
          <path id="Trazado_110434" data-name="Trazado 110434" d="M341.439,159.017c-4.524,0-8.194,1.851-8.582,4.2a2.54,2.54,0,0,1-.122-.743c0-.046.009-.092.013-.139.138-2.479,3.951-4.467,8.645-4.467s8.508,1.988,8.645,4.467c0,.046.015.092.015.139a2.569,2.569,0,0,1-.074.569C349.441,160.778,345.848,159.017,341.439,159.017Z" transform="translate(-332.735 -157.872)" fill="#af9797"/>
          <path id="Trazado_110435" data-name="Trazado 110435" d="M341.311,166.557c-4.3,0-7.865-1.672-8.536-3.863.388-2.351,4.058-4.2,8.582-4.2,4.409,0,8,1.76,8.54,4.029C349.368,164.795,345.729,166.557,341.311,166.557Z" transform="translate(-332.653 -157.347)" fill="#d1bdbd"/>
        </g>
      </g>
    </g>
  </g>
</svg>
