<svg xmlns="http://www.w3.org/2000/svg" width="155" height="155" viewBox="0 0 155 155">
  <g id="Grupo_75140" data-name="Grupo 75140" transform="translate(-4978 12937)">
    <g id="Grupo_75136" data-name="Grupo 75136">
      <rect id="Rectángulo_32802" data-name="Rectángulo 32802" width="155" height="155" transform="translate(4978 -12937)" fill="none"/>
      <path id="Trazado_146290" data-name="Trazado 146290" d="M42.5,0A42.5,42.5,0,1,1,0,42.5,42.5,42.5,0,0,1,42.5,0Z" transform="translate(5013 -12922)" fill="#7e5ee3"/>
      <path id="Trazado_146291" data-name="Trazado 146291" d="M9.019,13.971H7.163V19H3.735V4.781h5.6A6.246,6.246,0,0,1,13.286,5.9a3.8,3.8,0,0,1,1.426,3.17,4.616,4.616,0,0,1-.6,2.458,4.263,4.263,0,0,1-1.88,1.58L15.2,18.853V19H11.528ZM7.163,11.334H9.331a1.946,1.946,0,0,0,1.47-.514,1.987,1.987,0,0,0,.493-1.434,2.01,2.01,0,0,0-.5-1.444,1.928,1.928,0,0,0-1.465-.524H7.163ZM21.743,19.2a5.432,5.432,0,0,1-3.936-1.45,5.008,5.008,0,0,1-1.5-3.774V13.7a6.489,6.489,0,0,1,.6-2.861,4.395,4.395,0,0,1,1.753-1.919,5.292,5.292,0,0,1,2.734-.679A4.574,4.574,0,0,1,24.907,9.62,5.43,5.43,0,0,1,26.2,13.473v1.279H19.653a2.372,2.372,0,0,0,.771,1.4,2.3,2.3,0,0,0,1.543.508,2.958,2.958,0,0,0,2.441-1.094l1.5,1.777a4.2,4.2,0,0,1-1.743,1.353A5.891,5.891,0,0,1,21.743,19.2Zm-.371-8.418q-1.445,0-1.719,1.914h3.32v-.254a1.63,1.63,0,0,0-.4-1.226A1.593,1.593,0,0,0,21.372,10.777Zm11.68,5.254a.76.76,0,0,0-.439-.674,6.685,6.685,0,0,0-1.67-.527,7.615,7.615,0,0,1-2.031-.718,3.4,3.4,0,0,1-1.221-1.079,2.577,2.577,0,0,1-.42-1.455,2.92,2.92,0,0,1,1.2-2.4,4.948,4.948,0,0,1,3.145-.942,5.482,5.482,0,0,1,3.359.947,2.962,2.962,0,0,1,1.27,2.49h-3.3q0-1.27-1.338-1.27a1.326,1.326,0,0,0-.869.288.892.892,0,0,0-.352.718.819.819,0,0,0,.43.713,4.06,4.06,0,0,0,1.372.449,11.857,11.857,0,0,1,1.655.42,3.007,3.007,0,0,1,2.383,2.939,2.767,2.767,0,0,1-1.284,2.354,5.632,5.632,0,0,1-3.325.908,5.747,5.747,0,0,1-2.422-.488,4.05,4.05,0,0,1-1.66-1.328,3.007,3.007,0,0,1-.6-1.768h3.076a1.272,1.272,0,0,0,.488,1.069,2.009,2.009,0,0,0,1.2.337,1.58,1.58,0,0,0,1.011-.273A.875.875,0,0,0,33.052,16.031Zm14.521-2.236a6.372,6.372,0,0,1-1.108,3.931,3.554,3.554,0,0,1-2.993,1.47,3.046,3.046,0,0,1-2.393-1.064v4.932H37.788V8.434h3.076l.1.977a3.046,3.046,0,0,1,2.49-1.172,3.582,3.582,0,0,1,3.037,1.44,6.45,6.45,0,0,1,1.084,3.96Zm-3.291-.205q0-2.812-1.641-2.812a1.549,1.549,0,0,0-1.562.84v4.16a1.6,1.6,0,0,0,1.582.879q1.572,0,1.621-2.715Zm4.326.029a6.236,6.236,0,0,1,.615-2.817,4.4,4.4,0,0,1,1.768-1.9A5.323,5.323,0,0,1,53.7,8.238a4.858,4.858,0,0,1,3.74,1.47,5.64,5.64,0,0,1,1.367,4v.117a5.472,5.472,0,0,1-1.372,3.921,4.871,4.871,0,0,1-3.716,1.45,4.927,4.927,0,0,1-3.623-1.353,5.29,5.29,0,0,1-1.475-3.667Zm3.291.205a3.932,3.932,0,0,0,.459,2.148,1.529,1.529,0,0,0,1.357.684q1.758,0,1.8-2.705v-.332q0-2.842-1.816-2.842-1.65,0-1.787,2.451ZM63.276,8.434l.107,1.24A3.583,3.583,0,0,1,66.4,8.238a3.015,3.015,0,0,1,2.466.986,4.7,4.7,0,0,1,.845,2.969V19h-3.3V12.33a1.783,1.783,0,0,0-.322-1.177,1.491,1.491,0,0,0-1.172-.376,1.569,1.569,0,0,0-1.436.762V19H60.19V8.434Zm13.789,7.6a.76.76,0,0,0-.439-.674,6.685,6.685,0,0,0-1.67-.527,7.615,7.615,0,0,1-2.031-.718A3.4,3.4,0,0,1,71.7,13.033a2.577,2.577,0,0,1-.42-1.455,2.92,2.92,0,0,1,1.2-2.4,4.948,4.948,0,0,1,3.145-.942,5.482,5.482,0,0,1,3.359.947,2.962,2.962,0,0,1,1.27,2.49h-3.3q0-1.27-1.338-1.27a1.326,1.326,0,0,0-.869.288.892.892,0,0,0-.352.718.819.819,0,0,0,.43.713,4.06,4.06,0,0,0,1.372.449,11.857,11.857,0,0,1,1.655.42,3.007,3.007,0,0,1,2.383,2.939,2.767,2.767,0,0,1-1.284,2.354,5.631,5.631,0,0,1-3.325.908,5.747,5.747,0,0,1-2.422-.488,4.05,4.05,0,0,1-1.66-1.328,3.007,3.007,0,0,1-.6-1.768h3.076a1.272,1.272,0,0,0,.488,1.069,2.009,2.009,0,0,0,1.2.337,1.58,1.58,0,0,0,1.011-.273A.875.875,0,0,0,77.065,16.031ZM87.729,19a3.716,3.716,0,0,1-.312-.947A3.06,3.06,0,0,1,84.878,19.2a3.749,3.749,0,0,1-2.539-.9,2.875,2.875,0,0,1-1.045-2.271,2.955,2.955,0,0,1,1.27-2.6,6.468,6.468,0,0,1,3.691-.879h1.016v-.559q0-1.462-1.26-1.462a1.03,1.03,0,0,0-1.172,1.158H81.548a2.95,2.95,0,0,1,1.3-2.487,5.479,5.479,0,0,1,3.325-.956,4.8,4.8,0,0,1,3.193.986,3.429,3.429,0,0,1,1.2,2.705v4.678a4.79,4.79,0,0,0,.449,2.227V19Zm-2.061-2.148a1.836,1.836,0,0,0,1.021-.264,1.653,1.653,0,0,0,.581-.6V14.3h-.957q-1.719,0-1.719,1.543a.942.942,0,0,0,.3.728A1.1,1.1,0,0,0,85.669,16.852ZM102.2,13.8a6.44,6.44,0,0,1-1.074,3.994A3.6,3.6,0,0,1,98.1,19.2a3.122,3.122,0,0,1-2.6-1.279L95.366,19H92.417V4h3.291V9.283a3.013,3.013,0,0,1,2.373-1.045,3.6,3.6,0,0,1,3.047,1.416,6.473,6.473,0,0,1,1.074,3.984Zm-3.3-.21a4.3,4.3,0,0,0-.405-2.169,1.366,1.366,0,0,0-1.245-.648,1.576,1.576,0,0,0-1.543.848v4.192a1.585,1.585,0,0,0,1.563.838,1.4,1.4,0,0,0,1.475-1.131A8.121,8.121,0,0,0,98.9,13.595ZM107.124,19h-3.3V8.434h3.3Zm-3.5-13.3a1.482,1.482,0,0,1,.508-1.159,2.149,2.149,0,0,1,2.637,0A1.482,1.482,0,0,1,107.28,5.7a1.482,1.482,0,0,1-.508,1.159,2.149,2.149,0,0,1-2.637,0A1.482,1.482,0,0,1,103.628,5.7ZM112.622,19h-3.3V4h3.3Zm5.5,0h-3.3V8.434h3.3Zm-3.5-13.3a1.482,1.482,0,0,1,.508-1.159,2.149,2.149,0,0,1,2.637,0,1.482,1.482,0,0,1,.508,1.159,1.482,1.482,0,0,1-.508,1.159,2.149,2.149,0,0,1-2.637,0A1.482,1.482,0,0,1,114.624,5.7Zm5.107,7.939a6.455,6.455,0,0,1,1.084-3.955,3.568,3.568,0,0,1,3.027-1.445,3.035,3.035,0,0,1,2.383,1.113V4h3.3V19h-2.959l-.166-1.133a3.116,3.116,0,0,1-2.578,1.328,3.562,3.562,0,0,1-2.988-1.445A6.659,6.659,0,0,1,119.731,13.639Zm3.291.205q0,2.813,1.641,2.813a1.62,1.62,0,0,0,1.563-.918V11.715a1.576,1.576,0,0,0-1.543-.937q-1.523,0-1.65,2.461ZM137.349,19a3.716,3.716,0,0,1-.312-.947A3.06,3.06,0,0,1,134.5,19.2a3.749,3.749,0,0,1-2.539-.9,2.875,2.875,0,0,1-1.045-2.271,2.955,2.955,0,0,1,1.27-2.6,6.468,6.468,0,0,1,3.691-.879h1.016v-.559q0-1.462-1.26-1.462a1.03,1.03,0,0,0-1.172,1.158h-3.291a2.95,2.95,0,0,1,1.3-2.487,5.479,5.479,0,0,1,3.325-.956,4.8,4.8,0,0,1,3.193.986,3.429,3.429,0,0,1,1.2,2.705v4.678a4.79,4.79,0,0,0,.449,2.227V19Zm-2.061-2.148a1.836,1.836,0,0,0,1.021-.264,1.653,1.653,0,0,0,.581-.6V14.3h-.957q-1.719,0-1.719,1.543a.942.942,0,0,0,.3.728A1.1,1.1,0,0,0,135.288,16.852Zm6.309-3.213a6.455,6.455,0,0,1,1.084-3.955,3.568,3.568,0,0,1,3.027-1.445,3.035,3.035,0,0,1,2.383,1.113V4h3.3V19h-2.959l-.166-1.133a3.116,3.116,0,0,1-2.578,1.328A3.562,3.562,0,0,1,142.7,17.75,6.659,6.659,0,0,1,141.6,13.639Zm3.291.205q0,2.813,1.641,2.813a1.62,1.62,0,0,0,1.563-.918V11.715a1.576,1.576,0,0,0-1.543-.937q-1.523,0-1.65,2.461Z" transform="translate(4978 -12821)" fill="#12263f"/>
      <g id="Grupo_74991" data-name="Grupo 74991" transform="translate(4167.716 -14081.676)">
        <path id="Trazado_145658" data-name="Trazado 145658" d="M917.017,1203.31h-7.276c-.173,3.075.175,6.121-.215,9.179h8.421v16.572H864.231a3.227,3.227,0,0,1-3.308-3.251c-.009-8.456-.035-16.912.013-25.368a7.974,7.974,0,0,1,4.166-7.094c.211-.128.432-.24.716-.4a5.573,5.573,0,0,1-2.109-4.928,5.353,5.353,0,0,1,1.716-3.479,5.491,5.491,0,0,1,7.072-.405c2.366,1.765,2.823,4.506,1.231,7.657.365-.144.681-.263.992-.393,2.686-1.119,5.364-2.257,8.063-3.344a11.025,11.025,0,0,1,1.829-.406,1.521,1.521,0,0,0,.379-.08c2.245-1.156,4.479-2.333,6.732-3.475a24.265,24.265,0,0,1,6-2.465,5.57,5.57,0,0,1-1.792-4.721,5.387,5.387,0,0,1,1.928-3.612,5.522,5.522,0,0,1,7.3.163,5.584,5.584,0,0,1,.175,7.986c.147.058.276.118.41.162a8.278,8.278,0,0,1,5.79,7.878c.01.9,0,1.795,0,2.739h5.475Zm-.884,11.047c-.139-.01-.231-.022-.323-.022q-17.426,0-34.852.009a1.007,1.007,0,0,0-.6.24c-.679.591-1.3,1.26-2.006,1.809a2.216,2.216,0,0,0-.886,2.008,3.2,3.2,0,0,1-4.149,3.164.862.862,0,0,0-.689.147q-2.583,2.331-5.12,4.712a3.708,3.708,0,0,0-.48.753h49.107Zm-44.169-9.227h.74a4.605,4.605,0,0,1,4.781,4.785c.006,1.4,0,2.8,0,4.2,0,.158.023.316.042.553.7-.648,1.317-1.255,1.98-1.8a1.555,1.555,0,0,1,.9-.355c4.122-.023,8.243-.015,12.365-.015h.571a12.346,12.346,0,0,1-.2-1.533q-.024-5.435,0-10.87a4.462,4.462,0,0,1,2.566-4.171c.814-.426,1.633-.846,2.467-1.23a.716.716,0,0,0,.495-.776c-.032-1.092-.011-2.185-.011-3.278v-2.86c-.248.113-.42.186-.587.269q-4.52,2.261-9.038,4.526a4.052,4.052,0,0,1-2.246.586.621.621,0,0,0-.319.082c-1,.511-1.992,1.056-3.009,1.539-3.666,1.74-7.343,3.456-11.009,5.2-.2.1-.459.344-.464.526C871.948,1202.014,871.964,1203.528,871.964,1205.13Zm11.794-15.484c-.052.02-.228.084-.4.156-2.227.926-4.493,1.769-6.668,2.8a15.379,15.379,0,0,1-7.357,1.52,6.322,6.322,0,0,0-6.571,6.557c-.009,2.339-.005,4.678,0,7.016a2.768,2.768,0,0,0,2.948,2.953c1.706,0,3.413,0,5.119,0a1.861,1.861,0,0,1,2.056,2.071q.005,2.79,0,5.579a1.457,1.457,0,0,0,.554,1.262,1.28,1.28,0,0,0,1.408.152,1.387,1.387,0,0,0,.8-1.351c0-2.818,0-5.636,0-8.454a2.766,2.766,0,0,0-2.959-2.942c-.837,0-1.675,0-2.562,0v-.565c0-2.281.009-4.563-.009-6.844a.716.716,0,0,1,.486-.774q6.741-3.142,13.462-6.323c.22-.1.435-.216.513-.254Zm16.688-3.808a.64.64,0,0,1,.042.139c0,3.086.012,6.172-.009,9.258a.766.766,0,0,1-.383.526c-1.135.6-2.285,1.163-3.436,1.73a2.828,2.828,0,0,0-1.69,2.764c.012,1.9,0,3.8,0,5.693,0,1.687-.007,3.373,0,5.06a1.381,1.381,0,1,0,2.754-.017c.009-2.531,0-5.06,0-7.591a1.923,1.923,0,0,1,1.667-2.187c.975-.264,1.947-.534,2.965-.813v-8.164h3.612c.152-2.128.113-4.159-1.417-5.66l1.224-1.39a7.115,7.115,0,0,1,2.065,4.879c.037,1.609,0,3.22.013,4.83a.923.923,0,1,0,1.834.019c.007-1.9.034-3.8-.013-5.693a6.271,6.271,0,0,0-4.774-5.92,14.345,14.345,0,0,0-7.72.391c-3.8,1.294-7.22,3.424-10.817,5.166a1.213,1.213,0,0,0-.535,1.5,1.307,1.307,0,0,0,1.986.744c3.12-1.551,6.257-3.069,9.338-4.693A5.543,5.543,0,0,1,900.447,1185.837Zm3.763,8.281v7.3h10.971v-7.3H911.54c0,.35.011.671,0,.991a2.759,2.759,0,0,1-5.514-.023c-.011-.318,0-.638,0-.973Zm-35-1.876a3.68,3.68,0,1,0-3.685-3.689A3.694,3.694,0,0,0,869.208,1192.242Zm35.889-14.7a3.68,3.68,0,1,0-3.744,3.651A3.688,3.688,0,0,0,905.1,1177.545Zm-42.337,34.187v.247q0,6.813,0,13.626a2.985,2.985,0,0,0,.014.4,1.375,1.375,0,0,0,2.729.015,3.561,3.561,0,0,0,.017-.516q0-6.21,0-12.419v-.427Zm4.617,12.288c1.384-1.274,2.681-2.46,3.961-3.663.083-.078.081-.293.055-.433a11.982,11.982,0,0,1-.334-1.667c-.05-1.339-.016-2.681-.016-4.021v-1.7h-3.666Zm32.2-20.941v1.678c0,2.028.013,4.057-.009,6.085a14.766,14.766,0,0,1-.184,1.607h4.035c-.055-.719-.147-1.4-.153-2.078-.02-2.143-.007-4.286-.007-6.429v-.625l-.9-.042-.055-.944Zm5.531.234c0,2.678-.015,5.3.011,7.922a1.331,1.331,0,0,0,1.222,1.248,1.366,1.366,0,0,0,1.447-.98,1.775,1.775,0,0,0,.07-.508q.006-3.68,0-7.36a1.8,1.8,0,0,0-.06-.322Z" transform="translate(0 0)" fill="#fff"/>
        <path id="Trazado_145659" data-name="Trazado 145659" d="M965.754,1293.989h-1.76v-1.79h1.76Z" transform="translate(-58.859 -68.63)" fill="#fff"/>
        <path id="Trazado_145660" data-name="Trazado 145660" d="M974.373,1292.24v1.749h-1.79v-1.749Z" transform="translate(-63.763 -68.653)" fill="#fff"/>
        <path id="Trazado_145661" data-name="Trazado 145661" d="M982.925,1294.008h-1.749v-1.79h1.749Z" transform="translate(-68.669 -68.641)" fill="#fff"/>
      </g>
    </g>
  </g>
</svg>
