<svg xmlns="http://www.w3.org/2000/svg" width="155" height="155" viewBox="0 0 155 155">
  <g id="Grupo_75144" data-name="Grupo 75144" transform="translate(-4978 13145)">
    <path id="Trazado_146284" data-name="Trazado 146284" d="M12.227,14.176V19H8.8V4.781h5.674a6.608,6.608,0,0,1,2.886.6A4.526,4.526,0,0,1,19.3,7.091a4.667,4.667,0,0,1,.688,2.515A4.114,4.114,0,0,1,18.5,12.931a6.179,6.179,0,0,1-4.087,1.245Zm0-2.646h2.246a2.118,2.118,0,0,0,1.519-.5,1.85,1.85,0,0,0,.522-1.406,2.287,2.287,0,0,0-.537-1.592,1.9,1.9,0,0,0-1.465-.605H12.227ZM26.65,19.2a5.432,5.432,0,0,1-3.936-1.45,5.008,5.008,0,0,1-1.5-3.774V13.7a6.489,6.489,0,0,1,.6-2.861,4.395,4.395,0,0,1,1.753-1.919A5.292,5.292,0,0,1,26.3,8.238,4.574,4.574,0,0,1,29.814,9.62,5.43,5.43,0,0,1,31.1,13.473v1.279H24.561a2.372,2.372,0,0,0,.771,1.4,2.3,2.3,0,0,0,1.543.508,2.958,2.958,0,0,0,2.441-1.094l1.5,1.777a4.2,4.2,0,0,1-1.743,1.353A5.891,5.891,0,0,1,26.65,19.2Zm-.371-8.418q-1.445,0-1.719,1.914h3.32v-.254a1.63,1.63,0,0,0-.4-1.226A1.593,1.593,0,0,0,26.279,10.777Zm12.539.635-1.084-.078a1.947,1.947,0,0,0-1.992.977V19H32.451V8.434h3.086l.107,1.357a2.548,2.548,0,0,1,2.314-1.553,3.209,3.209,0,0,1,.918.117Zm5.508-5.605V8.434h1.738v2.285H44.326v4.834a1.234,1.234,0,0,0,.215.83,1.152,1.152,0,0,0,.85.234,4.828,4.828,0,0,0,.82-.059v2.354a6.074,6.074,0,0,1-1.855.283,3.448,3.448,0,0,1-2.51-.8,3.282,3.282,0,0,1-.811-2.432V10.719H39.688V8.434h1.348V5.807ZM52.471,19.2a5.432,5.432,0,0,1-3.936-1.45,5.008,5.008,0,0,1-1.5-3.774V13.7a6.489,6.489,0,0,1,.6-2.861,4.395,4.395,0,0,1,1.753-1.919,5.292,5.292,0,0,1,2.734-.679A4.574,4.574,0,0,1,55.635,9.62a5.43,5.43,0,0,1,1.289,3.853v1.279H50.381a2.372,2.372,0,0,0,.771,1.4,2.3,2.3,0,0,0,1.543.508,2.958,2.958,0,0,0,2.441-1.094l1.5,1.777A4.2,4.2,0,0,1,54.9,18.692,5.891,5.891,0,0,1,52.471,19.2ZM52.1,10.777q-1.445,0-1.719,1.914H53.7v-.254a1.63,1.63,0,0,0-.4-1.226A1.593,1.593,0,0,0,52.1,10.777Zm9.17-2.344.107,1.24a3.583,3.583,0,0,1,3.018-1.436,3.015,3.015,0,0,1,2.466.986,4.7,4.7,0,0,1,.845,2.969V19H64.4V12.33a1.783,1.783,0,0,0-.322-1.177,1.491,1.491,0,0,0-1.172-.376,1.569,1.569,0,0,0-1.436.762V19H58.184V8.434ZM74.639,19.2a5.432,5.432,0,0,1-3.936-1.45,5.008,5.008,0,0,1-1.5-3.774V13.7a6.489,6.489,0,0,1,.6-2.861,4.395,4.395,0,0,1,1.753-1.919,5.292,5.292,0,0,1,2.734-.679A4.574,4.574,0,0,1,77.8,9.62a5.43,5.43,0,0,1,1.289,3.853v1.279H72.549a2.372,2.372,0,0,0,.771,1.4,2.3,2.3,0,0,0,1.543.508A2.958,2.958,0,0,0,77.3,15.563l1.5,1.777a4.2,4.2,0,0,1-1.743,1.353A5.891,5.891,0,0,1,74.639,19.2Zm-.371-8.418q-1.445,0-1.719,1.914h3.32v-.254a1.63,1.63,0,0,0-.4-1.226A1.593,1.593,0,0,0,74.268,10.777Zm9.17-2.344.107,1.24a3.583,3.583,0,0,1,3.018-1.436,3.015,3.015,0,0,1,2.466.986,4.7,4.7,0,0,1,.845,2.969V19h-3.3V12.33a1.783,1.783,0,0,0-.322-1.177,1.491,1.491,0,0,0-1.172-.376,1.569,1.569,0,0,0-1.436.762V19H80.352V8.434Zm12.725,8.223a1.464,1.464,0,0,0,1.074-.376,1.379,1.379,0,0,0,.371-1.05h3.086a3.653,3.653,0,0,1-1.245,2.852A4.631,4.631,0,0,1,96.24,19.2a4.689,4.689,0,0,1-3.633-1.445,5.7,5.7,0,0,1-1.328-4v-.137a6.436,6.436,0,0,1,.591-2.827,4.3,4.3,0,0,1,1.7-1.885,5.081,5.081,0,0,1,2.637-.659,4.573,4.573,0,0,1,3.271,1.143,4.053,4.053,0,0,1,1.211,3.1H97.607a1.806,1.806,0,0,0-.4-1.26,1.382,1.382,0,0,0-1.074-.439q-1.279,0-1.494,1.631a11.508,11.508,0,0,0-.068,1.426,4.52,4.52,0,0,0,.381,2.207A1.319,1.319,0,0,0,96.162,16.656ZM105.557,19h-3.3V8.434h3.3Zm-3.5-13.3a1.482,1.482,0,0,1,.508-1.159,2.149,2.149,0,0,1,2.637,0,1.482,1.482,0,0,1,.508,1.159,1.482,1.482,0,0,1-.508,1.159,2.149,2.149,0,0,1-2.637,0A1.482,1.482,0,0,1,102.061,5.7ZM113.535,19a3.716,3.716,0,0,1-.312-.947,3.06,3.06,0,0,1-2.539,1.143,3.749,3.749,0,0,1-2.539-.9,2.875,2.875,0,0,1-1.045-2.271,2.955,2.955,0,0,1,1.27-2.6,6.468,6.468,0,0,1,3.691-.879h1.016v-.559q0-1.462-1.26-1.462a1.03,1.03,0,0,0-1.172,1.158h-3.291a2.95,2.95,0,0,1,1.3-2.487,5.479,5.479,0,0,1,3.325-.956,4.8,4.8,0,0,1,3.193.986,3.429,3.429,0,0,1,1.2,2.705v4.678a4.79,4.79,0,0,0,.449,2.227V19Zm-2.061-2.148a1.836,1.836,0,0,0,1.021-.264,1.653,1.653,0,0,0,.581-.6V14.3h-.957q-1.719,0-1.719,1.543a.942.942,0,0,0,.3.728A1.1,1.1,0,0,0,111.475,16.852Z" transform="translate(4993 -13029)" fill="#12263f"/>
    <g id="Grupo_75133" data-name="Grupo 75133">
      <rect id="Rectángulo_32800" data-name="Rectángulo 32800" width="155" height="155" transform="translate(4978 -13145)" fill="none"/>
      <path id="Trazado_146285" data-name="Trazado 146285" d="M42.5,0A42.5,42.5,0,1,1,0,42.5,42.5,42.5,0,0,1,42.5,0Z" transform="translate(5013 -13130)" fill="#7e5ee3"/>
      <g id="O8TOvX" transform="translate(3980.226 -14282.776)">
        <g id="Grupo_74992" data-name="Grupo 74992" transform="translate(1048.398 1168.495)">
          <path id="Trazado_145662" data-name="Trazado 145662" d="M1092.128,1185.944c-.513,1.883-1.013,3.7-1.5,5.52a.727.727,0,0,0,.051.473,4.533,4.533,0,0,1-4.061,6.534c-.056,0-.112.013-.207.024-.049.163-.108.336-.153.513a9.9,9.9,0,0,1-4.407,6.095c-.32.2-.455.379-.336.765a6.582,6.582,0,0,1,.257,1.276.677.677,0,0,0,.643.7c.759.135,1.507.34,2.33.533a10.007,10.007,0,0,1,3.98-8.79,9.684,9.684,0,0,1,6.64-2.01,10,10,0,0,1,1.144,19.824c.277,1.2.641,2.4.807,3.614s.137,2.481.2,3.76h-41.774a14.581,14.581,0,0,1,10.885-15.968c1.373-.35,2.753-.672,4.136-.976.368-.081.556-.222.6-.609a6.6,6.6,0,0,1,.252-1.277.64.64,0,0,0-.346-.863,10.008,10.008,0,0,1-4.506-6.569c-.33-.043-.667-.071-1-.134a4.515,4.515,0,0,1-3.358-6.211,1.494,1.494,0,0,0,.063-.853c-.179-.792-.446-1.563-.623-2.355-.089-.4-.259-.5-.65-.494-3.538.016-7.076.01-10.615.009-1.48,0-2.164-.675-2.164-2.138q0-7.861,0-15.723a1.869,1.869,0,0,1,2.123-2.121H1069.9c1.46,0,2.135.685,2.135,2.167,0,1.89,0,3.781,0,5.755l2.171-.768a10.658,10.658,0,0,1,12.236,2.951,1.385,1.385,0,0,0,.19.14,9.086,9.086,0,0,1,16.039-6.916,9.037,9.037,0,0,1,.627,10.639,9.065,9.065,0,0,1-11.168,3.481Zm-23.635,5.048a64.933,64.933,0,0,0,.042,6.775,8.057,8.057,0,0,0,8.579,7.048,8.221,8.221,0,0,0,7.63-8.059c.028-2.646.016-5.293,0-7.94a3,3,0,0,0-3.1-3.065,11.768,11.768,0,0,0-6.538,2.1A21.245,21.245,0,0,1,1068.492,1190.992Zm-4.522-.985a10.712,10.712,0,0,1,2.336-.582,9.358,9.358,0,0,0,4.134-1.049c1.548-.783,3.037-1.685,4.535-2.563a12.944,12.944,0,0,1,6.8-1.875,4.779,4.779,0,0,1,4.7,3.973c.084.477.095.967.129,1.341l2.571.765a17.752,17.752,0,0,0,1.012-4.833,3.027,3.027,0,0,0-3.092-3.308,1.009,1.009,0,0,1-.639-.331c-.433-.5-.805-1.049-1.219-1.565a8.793,8.793,0,0,0-9.438-2.93c-3.193,1.042-6.352,2.2-9.492,3.391a5.216,5.216,0,0,0-3.308,5.521C1063.212,1187.351,1063.65,1188.706,1063.971,1190.007Zm-13.713-3.408h10.959l-.112-1.764H1053.9v-5.448h3.627v-3.639h3.619v-3.577h5.453v6.2c1.153-.413,2.256-.8,3.345-1.215a.592.592,0,0,0,.264-.456c.024-1.021.012-2.042.012-3.063v-3.3h-19.959Zm44.165,27.323a10.224,10.224,0,0,1,.8,1.224c.237.509.586.531,1.055.435a8.173,8.173,0,1,0-9.7-7.5.915.915,0,0,0,.742.987,13.772,13.772,0,0,1,6.062,3.731,1.7,1.7,0,0,1,.229.5l.221-.2a2.811,2.811,0,0,1,0-.338,1.006,1.006,0,0,0-.589-1.164,2.724,2.724,0,0,1-1.145-3.1h1.678c.236,1.761.481,1.987,1.834,1.717.136-1.377.024-1.528-1.327-1.783a2.611,2.611,0,0,1-2.206-2.22,31.392,31.392,0,0,1-.023-3.213h1.791v-1.762h1.8c0,.542-.025,1.051.013,1.556a.742.742,0,0,0,.285.516,2.88,2.88,0,0,1,1.446,3.3h-1.721c-.1-1.694-.359-1.94-1.791-1.715-.172,1.342-.021,1.55,1.3,1.79a2.659,2.659,0,0,1,2.244,2.319c.086,1.008.018,2.029.018,3.107h-1.814v1.819Zm-36.935,9.039h16.379a2.246,2.246,0,0,0-.118-.233q-3.92-5.7-7.838-11.4c-.18-.263-.336-.275-.607-.161a12.419,12.419,0,0,0-3.538,2.219A12.672,12.672,0,0,0,1057.488,1222.96Zm38.138,0a12.619,12.619,0,0,0-7.841-11.829c-.375-.153-.465.08-.611.292q-3.812,5.535-7.621,11.071c-.092.133-.17.276-.286.466Zm2.287-42.679a8.2,8.2,0,0,0,.089-5.126.569.569,0,0,0-.435-.292c-1.284-.023-2.569-.021-3.854,0a.523.523,0,0,0-.4.257,8.134,8.134,0,0,0,.079,5.162Zm-18.2,25.838a9.891,9.891,0,0,1-6.276.013c-.122.587-.247,1.1-.324,1.617a.487.487,0,0,0,.19.393c.993.617,1.994,1.222,3.009,1.8a.655.655,0,0,0,.551-.01c1-.571,1.983-1.166,2.961-1.771a.5.5,0,0,0,.223-.381C1079.965,1207.25,1079.836,1206.721,1079.711,1206.123Zm5.917,4.337c-1.424-.339-2.725-.653-4.03-.953a.743.743,0,0,0-.488.03c-.893.513-1.771,1.051-2.735,1.63l4.857,2.777Zm-10.853.706c-.947-.568-1.784-1.079-2.631-1.572a.731.731,0,0,0-.475-.1c-1.355.3-2.7.628-4.148.968l2.394,3.486Zm1.8,6.378a2.69,2.69,0,0,1-.508-.005c-.526-.1-.724.158-.838.63-.169.694-.421,1.369-.586,2.063a1.037,1.037,0,0,0,.1.71,18.989,18.989,0,0,0,1.184,1.723,1.142,1.142,0,0,0,.582.319c.354.1.582-.082.775-.393a7.643,7.643,0,0,0,1.249-1.988c.134-.6-.307-1.325-.5-1.992C1077.724,1217.542,1077.721,1217.544,1076.579,1217.544Zm14.9-42.689c-.816,0-1.552-.016-2.286.014a.542.542,0,0,0-.373.307,6.67,6.67,0,0,0,.016,4.814.542.542,0,0,0,.382.3c.733.029,1.469.014,2.256.014A10.428,10.428,0,0,1,1091.478,1174.854Zm8.343,0a10.435,10.435,0,0,1,0,5.448c.806,0,1.56.013,2.312-.013a.493.493,0,0,0,.335-.284,6.769,6.769,0,0,0,.008-4.82.588.588,0,0,0-.422-.317C1101.343,1174.836,1100.625,1174.854,1099.821,1174.854Zm-13.225,16.373v5.4a2.7,2.7,0,1,0,0-5.4Zm-20.044,5.4v-5.4a2.7,2.7,0,0,0,0,5.4Zm7.641,16.97c.97,2.181.97,2.181,3.256,2.129a.478.478,0,0,0,.168,0c.112-.048.264-.087.316-.177.358-.632.7-1.276,1.05-1.935-.763-.437-1.461-.848-2.174-1.232a.566.566,0,0,0-.462,0C1075.619,1212.767,1074.906,1213.189,1074.193,1213.6Zm-11.217-32.989a3.847,3.847,0,0,1,.751-.679c1.033-.488,1.112-1.337,1.056-2.333-.068-1.2-.016-2.405-.016-3.612h-1.79Zm-3.62-3v5.379h1.749V1177.6Zm13.826,41.083c.17-.546.31-.951.421-1.363.062-.23.176-.519.093-.7-.328-.712-.724-1.392-1.111-2.112l-1.629.943Zm6.864-.113,2.151-3.128-1.583-.9C1079.746,1215.8,1078.925,1217.017,1080.046,1218.575Zm15.6-34.1,1.523-2.324h-3.057Zm0-13.791-1.5,2.3h3.04Zm5.616,2.3a7.16,7.16,0,0,0-3.373-2.294,4.405,4.405,0,0,1,.543.921c.389,1.443,1.418,1.625,2.668,1.419C1101.116,1173.024,1101.133,1173.018,1101.261,1172.982Zm-7.9-2.289a7.3,7.3,0,0,0-3.366,2.344c.718,0,1.3.012,1.877-.01a.482.482,0,0,0,.343-.21C1092.6,1172.146,1092.95,1171.462,1093.361,1170.693Zm7.954,11.428c-.728,0-1.307-.012-1.885.01a.485.485,0,0,0-.346.206c-.38.672-.736,1.357-1.14,2.111A7.274,7.274,0,0,0,1101.316,1182.121Zm-45.591-.885v1.746h1.745v-1.746Zm35.5.931a5.3,5.3,0,0,0,.656,1.49,5.134,5.134,0,0,0,1.374.824c-.219-.636-.565-1.119-.776-1.655C1092.236,1182.211,1091.879,1181.968,1091.225,1182.168Z" transform="translate(-1048.41 -1168.495)" fill="#fff"/>
          <path id="Trazado_145663" data-name="Trazado 145663" d="M1054.768,1263.472c-1.685-1.4-3.329-2.738-4.93-4.122a3.94,3.94,0,0,1-.781-5.223,4.1,4.1,0,0,1,5.2-1.442,1.041,1.041,0,0,0,1.035-.013,4.106,4.106,0,0,1,5.161,1.434,3.938,3.938,0,0,1-.748,5.228C1058.1,1260.731,1056.44,1262.074,1054.768,1263.472Zm.039-7.987c-.315-.332-.514-.559-.731-.767a2.334,2.334,0,0,0-3.265.1,2.159,2.159,0,0,0,.222,3.17c.715.617,1.45,1.211,2.175,1.815l1.559,1.3c1.258-1.048,2.468-2.045,3.665-3.056a2.174,2.174,0,0,0,.306-3.207,2.325,2.325,0,0,0-3.3-.1A8.777,8.777,0,0,0,1054.807,1255.484Z" transform="translate(-1048.398 -1218.689)" fill="#fff"/>
          <path id="Trazado_145664" data-name="Trazado 145664" d="M1116.408,1240.917a5.176,5.176,0,0,1-9.461.015l1.613-.821a3.372,3.372,0,0,0,3.114,2.076,3.328,3.328,0,0,0,3.114-2.081Z" transform="translate(-1083.475 -1211.396)" fill="#fff"/>
          <path id="Trazado_145665" data-name="Trazado 145665" d="M1106.877,1230.589a.9.9,0,1,1-.9-.91A.914.914,0,0,1,1106.877,1230.589Z" transform="translate(-1082.35 -1205.15)" fill="#fff"/>
          <path id="Trazado_145666" data-name="Trazado 145666" d="M1128.645,1231.486a.9.9,0,1,1,.888-.92A.913.913,0,0,1,1128.645,1231.486Z" transform="translate(-1095.923 -1205.15)" fill="#fff"/>
        </g>
      </g>
    </g>
  </g>
</svg>
