<svg xmlns="http://www.w3.org/2000/svg" width="432.759" height="159.527" viewBox="0 0 432.759 159.527">
  <g id="Grupo_75212" data-name="Grupo 75212" transform="translate(-194 11992.418)">
    <path id="Trazado_146527" data-name="Trazado 146527" d="M17.45,12.474H15.78V17H12.695V4.2h5.036a5.621,5.621,0,0,1,3.56,1.01,3.421,3.421,0,0,1,1.283,2.853,4.155,4.155,0,0,1-.541,2.213A3.837,3.837,0,0,1,20.341,11.7l2.672,5.167V17h-3.3ZM15.78,10.1h1.951a1.751,1.751,0,0,0,1.323-.463A1.788,1.788,0,0,0,19.5,8.347a1.809,1.809,0,0,0-.448-1.3,1.735,1.735,0,0,0-1.318-.471H15.78ZM28.9,17.176a4.889,4.889,0,0,1-3.542-1.305,4.507,4.507,0,0,1-1.354-3.4v-.246a5.84,5.84,0,0,1,.541-2.575,3.955,3.955,0,0,1,1.578-1.727,4.763,4.763,0,0,1,2.461-.611A4.117,4.117,0,0,1,31.75,8.558a4.887,4.887,0,0,1,1.16,3.467v1.151H27.021a2.135,2.135,0,0,0,.694,1.257,2.066,2.066,0,0,0,1.389.457,2.662,2.662,0,0,0,2.2-.984l1.354,1.6a3.784,3.784,0,0,1-1.569,1.217A5.3,5.3,0,0,1,28.9,17.176ZM28.568,9.6q-1.3,0-1.547,1.723h2.988v-.229a1.467,1.467,0,0,0-.36-1.1A1.434,1.434,0,0,0,28.568,9.6Zm5.159,2.549A5.709,5.709,0,0,1,34.711,8.6a3.233,3.233,0,0,1,2.716-1.283,2.761,2.761,0,0,1,2.338,1.2l.211-1.02h2.566V20.656H39.572V16.209a2.757,2.757,0,0,1-2.162.967,3.2,3.2,0,0,1-2.685-1.305A6.027,6.027,0,0,1,33.727,12.148Zm2.962.185q0,2.558,1.477,2.558a1.43,1.43,0,0,0,1.406-.773V10.355A1.4,1.4,0,0,0,38.183,9.6q-1.38,0-1.485,2.206Zm13.192,3.639a3.054,3.054,0,0,1-2.54,1.2,3,3,0,0,1-2.369-.91,3.826,3.826,0,0,1-.8-2.615V7.49H47.13v6.179a1.065,1.065,0,0,0,1.187,1.222,1.548,1.548,0,0,0,1.45-.729V7.49h2.979V17H49.969ZM57.493,17H54.522V7.49h2.971ZM54.346,5.029A1.334,1.334,0,0,1,54.8,3.986a1.934,1.934,0,0,1,2.373,0,1.334,1.334,0,0,1,.457,1.043,1.334,1.334,0,0,1-.457,1.043,1.934,1.934,0,0,1-2.373,0A1.334,1.334,0,0,1,54.346,5.029Zm9.949,9.3a.684.684,0,0,0-.4-.606,6.016,6.016,0,0,0-1.5-.475,6.853,6.853,0,0,1-1.828-.646,3.062,3.062,0,0,1-1.1-.971,2.319,2.319,0,0,1-.378-1.31,2.628,2.628,0,0,1,1.081-2.158A4.453,4.453,0,0,1,63,7.314a4.934,4.934,0,0,1,3.023.853,2.666,2.666,0,0,1,1.143,2.241H64.2q0-1.143-1.2-1.143a1.194,1.194,0,0,0-.782.259.8.8,0,0,0-.316.646.737.737,0,0,0,.387.642,3.654,3.654,0,0,0,1.235.4,10.671,10.671,0,0,1,1.49.378,2.706,2.706,0,0,1,2.145,2.646A2.491,2.491,0,0,1,66,16.358,5.068,5.068,0,0,1,63,17.176a5.172,5.172,0,0,1-2.18-.439,3.645,3.645,0,0,1-1.494-1.2,2.707,2.707,0,0,1-.536-1.591h2.769a1.145,1.145,0,0,0,.439.962,1.808,1.808,0,0,0,1.081.3,1.422,1.422,0,0,0,.91-.246A.787.787,0,0,0,64.3,14.328ZM71.661,17H68.69V7.49h2.971ZM68.514,5.029a1.334,1.334,0,0,1,.457-1.043,1.934,1.934,0,0,1,2.373,0A1.334,1.334,0,0,1,71.8,5.029a1.334,1.334,0,0,1-.457,1.043,1.934,1.934,0,0,1-2.373,0A1.334,1.334,0,0,1,68.514,5.029Zm8.42.1V7.49H78.5V9.547H76.934V13.9a1.111,1.111,0,0,0,.193.747,1.037,1.037,0,0,0,.765.211,4.345,4.345,0,0,0,.738-.053v2.118a5.466,5.466,0,0,1-1.67.255,3.1,3.1,0,0,1-2.259-.721,2.954,2.954,0,0,1-.729-2.188V9.547H72.759V7.49h1.213V5.126Zm2.092,7.031a5.613,5.613,0,0,1,.554-2.536A3.96,3.96,0,0,1,81.17,7.912a4.791,4.791,0,0,1,2.435-.6,4.373,4.373,0,0,1,3.366,1.323,5.076,5.076,0,0,1,1.23,3.6v.105a4.925,4.925,0,0,1-1.235,3.529,4.384,4.384,0,0,1-3.344,1.305,4.434,4.434,0,0,1-3.261-1.217,4.761,4.761,0,0,1-1.327-3.3Zm2.962.185a3.538,3.538,0,0,0,.413,1.934,1.376,1.376,0,0,0,1.222.615q1.582,0,1.617-2.435v-.3Q85.24,9.6,83.6,9.6,82.12,9.6,82,11.806Zm12.5,1.986a.684.684,0,0,0-.4-.606,6.016,6.016,0,0,0-1.5-.475,6.853,6.853,0,0,1-1.828-.646,3.062,3.062,0,0,1-1.1-.971,2.319,2.319,0,0,1-.378-1.31,2.628,2.628,0,0,1,1.081-2.158,4.453,4.453,0,0,1,2.83-.848,4.934,4.934,0,0,1,3.023.853,2.666,2.666,0,0,1,1.143,2.241H94.389q0-1.143-1.2-1.143a1.194,1.194,0,0,0-.782.259.8.8,0,0,0-.316.646.737.737,0,0,0,.387.642,3.654,3.654,0,0,0,1.235.4,10.671,10.671,0,0,1,1.49.378,2.706,2.706,0,0,1,2.145,2.646,2.491,2.491,0,0,1-1.156,2.118,5.068,5.068,0,0,1-2.993.817,5.172,5.172,0,0,1-2.18-.439,3.645,3.645,0,0,1-1.494-1.2,2.707,2.707,0,0,1-.536-1.591h2.769a1.145,1.145,0,0,0,.439.962,1.808,1.808,0,0,0,1.081.3,1.422,1.422,0,0,0,.91-.246A.787.787,0,0,0,94.486,14.328ZM108.566,17a3.344,3.344,0,0,1-.281-.853A2.754,2.754,0,0,1,106,17.176a3.374,3.374,0,0,1-2.285-.813,2.588,2.588,0,0,1-.94-2.043,2.66,2.66,0,0,1,1.143-2.338,5.821,5.821,0,0,1,3.322-.791h.914v-.5q0-1.316-1.134-1.316a.927.927,0,0,0-1.055,1.042H103a2.655,2.655,0,0,1,1.173-2.239,4.931,4.931,0,0,1,2.993-.86,4.323,4.323,0,0,1,2.874.888,3.086,3.086,0,0,1,1.081,2.435v4.21a4.311,4.311,0,0,0,.4,2V17Zm-1.854-1.934a1.652,1.652,0,0,0,.918-.237,1.487,1.487,0,0,0,.523-.536V12.772h-.861q-1.547,0-1.547,1.389a.848.848,0,0,0,.272.655A.986.986,0,0,0,106.711,15.066Zm14.555-.176a1.317,1.317,0,0,0,.967-.338,1.241,1.241,0,0,0,.334-.945h2.777a3.288,3.288,0,0,1-1.121,2.566,4.168,4.168,0,0,1-2.887,1,4.22,4.22,0,0,1-3.27-1.3,5.125,5.125,0,0,1-1.2-3.6v-.123A5.792,5.792,0,0,1,117.4,9.6a3.872,3.872,0,0,1,1.534-1.7,4.573,4.573,0,0,1,2.373-.593,4.116,4.116,0,0,1,2.944,1.028,3.647,3.647,0,0,1,1.09,2.786h-2.777a1.626,1.626,0,0,0-.36-1.134,1.244,1.244,0,0,0-.967-.4q-1.151,0-1.345,1.468a10.357,10.357,0,0,0-.062,1.283,4.068,4.068,0,0,0,.343,1.986A1.187,1.187,0,0,0,121.266,14.891Zm11,1.081a3.054,3.054,0,0,1-2.54,1.2,3,3,0,0,1-2.369-.91,3.826,3.826,0,0,1-.8-2.615V7.49h2.962v6.179a1.065,1.065,0,0,0,1.187,1.222,1.548,1.548,0,0,0,1.45-.729V7.49h2.979V17h-2.777Zm7.286-8.481.1,1.116a3.27,3.27,0,0,1,2.716-1.292,2.407,2.407,0,0,1,2.435,1.433,3.165,3.165,0,0,1,2.795-1.433q2.892,0,2.971,3.5V17h-2.971V11a1.813,1.813,0,0,0-.246-1.063,1.048,1.048,0,0,0-.9-.334,1.4,1.4,0,0,0-1.31.782l.009.123V17h-2.971V11.015a1.906,1.906,0,0,0-.237-1.081,1.045,1.045,0,0,0-.905-.334,1.42,1.42,0,0,0-1.3.782V17H136.77V7.49Zm21.533,4.825a5.735,5.735,0,0,1-1,3.538,3.2,3.2,0,0,1-2.694,1.323,2.742,2.742,0,0,1-2.153-.958v4.438h-2.962V7.49h2.769l.088.879a2.742,2.742,0,0,1,2.241-1.055,3.224,3.224,0,0,1,2.733,1.3,5.805,5.805,0,0,1,.976,3.564Zm-2.962-.185q0-2.531-1.477-2.531a1.394,1.394,0,0,0-1.406.756V14.1a1.439,1.439,0,0,0,1.424.791q1.415,0,1.459-2.443ZM165.51,17H162.54V3.5h2.971Zm4.948,0h-2.971V7.49h2.971ZM167.312,5.029a1.334,1.334,0,0,1,.457-1.043,1.934,1.934,0,0,1,2.373,0,1.334,1.334,0,0,1,.457,1.043,1.334,1.334,0,0,1-.457,1.043,1.934,1.934,0,0,1-2.373,0A1.334,1.334,0,0,1,167.312,5.029Zm10.723,5.142-.976-.07a1.752,1.752,0,0,0-1.793.879V17H172.3V7.49h2.777l.1,1.222a2.294,2.294,0,0,1,2.083-1.4,2.888,2.888,0,0,1,.826.105Z" transform="translate(316 -11995.918)" fill="#12263f"/>
    <path id="Trazado_146528" data-name="Trazado 146528" d="M18.5,13.6a1.268,1.268,0,0,0-.479-1.055,5.954,5.954,0,0,0-1.683-.782,16.147,16.147,0,0,1-1.969-.782q-2.487-1.222-2.487-3.357a3.011,3.011,0,0,1,.62-1.876A4.008,4.008,0,0,1,14.25,4.48,6.823,6.823,0,0,1,16.8,4.027a5.969,5.969,0,0,1,2.474.492,3.917,3.917,0,0,1,1.7,1.4A3.661,3.661,0,0,1,21.58,8H18.5a1.547,1.547,0,0,0-.479-1.213,1.867,1.867,0,0,0-1.3-.431,2.106,2.106,0,0,0-1.305.365,1.074,1.074,0,0,0,.048,1.819,6.65,6.65,0,0,0,1.854.826,11.36,11.36,0,0,1,2.18.918,3.663,3.663,0,0,1,2.074,3.3,3.125,3.125,0,0,1-1.266,2.637,5.629,5.629,0,0,1-3.472.958,6.888,6.888,0,0,1-2.817-.558,4.247,4.247,0,0,1-1.9-1.529,3.985,3.985,0,0,1-.637-2.237h3.094a1.963,1.963,0,0,0,.532,1.516,2.513,2.513,0,0,0,1.727.488,1.985,1.985,0,0,0,1.208-.33A1.088,1.088,0,0,0,18.5,13.6Zm9.132,3.577a4.889,4.889,0,0,1-3.542-1.305,4.507,4.507,0,0,1-1.354-3.4v-.246a5.84,5.84,0,0,1,.541-2.575A3.955,3.955,0,0,1,24.85,7.925a4.763,4.763,0,0,1,2.461-.611,4.117,4.117,0,0,1,3.164,1.244,4.887,4.887,0,0,1,1.16,3.467v1.151H25.746a2.135,2.135,0,0,0,.694,1.257,2.066,2.066,0,0,0,1.389.457,2.662,2.662,0,0,0,2.2-.984l1.354,1.6a3.784,3.784,0,0,1-1.569,1.217A5.3,5.3,0,0,1,27.627,17.176ZM27.293,9.6q-1.3,0-1.547,1.723h2.988v-.229a1.467,1.467,0,0,0-.36-1.1A1.434,1.434,0,0,0,27.293,9.6Zm5.186,2.575a6.421,6.421,0,0,1,.475-2.549,3.821,3.821,0,0,1,1.362-1.709,3.591,3.591,0,0,1,2.065-.6,2.855,2.855,0,0,1,2.32,1l.105-.826H41.5V16.64a4.009,4.009,0,0,1-.584,2.184,3.75,3.75,0,0,1-1.692,1.424,6.219,6.219,0,0,1-2.566.5,5.365,5.365,0,0,1-2.026-.4,3.657,3.657,0,0,1-1.5-1.028l1.239-1.74a2.716,2.716,0,0,0,2.18.976,1.764,1.764,0,0,0,1.969-2.021v-.3a2.781,2.781,0,0,1-2.153.94,3.437,3.437,0,0,1-2.812-1.332,5.517,5.517,0,0,1-1.072-3.564Zm2.971.185a3.383,3.383,0,0,0,.439,1.85,1.387,1.387,0,0,0,1.23.681,1.573,1.573,0,0,0,1.4-.642v-4a1.534,1.534,0,0,0-1.38-.65,1.4,1.4,0,0,0-1.239.708A3.858,3.858,0,0,0,35.449,12.359Zm13.395,3.612a3.054,3.054,0,0,1-2.54,1.2,3,3,0,0,1-2.369-.91,3.826,3.826,0,0,1-.8-2.615V7.49h2.962v6.179a1.065,1.065,0,0,0,1.187,1.222,1.548,1.548,0,0,0,1.45-.729V7.49h2.979V17H48.932Zm10.239-5.8-.976-.07a1.752,1.752,0,0,0-1.793.879V17H53.353V7.49H56.13l.1,1.222a2.294,2.294,0,0,1,2.083-1.4,2.888,2.888,0,0,1,.826.105ZM63.275,17H60.3V7.49h2.971ZM60.129,5.029a1.334,1.334,0,0,1,.457-1.043,1.934,1.934,0,0,1,2.373,0,1.334,1.334,0,0,1,.457,1.043,1.334,1.334,0,0,1-.457,1.043,1.934,1.934,0,0,1-2.373,0A1.334,1.334,0,0,1,60.129,5.029Zm4.6,7.146a5.809,5.809,0,0,1,.976-3.56,3.211,3.211,0,0,1,2.725-1.3,2.731,2.731,0,0,1,2.145,1V3.5h2.971V17H70.878l-.149-1.02a2.8,2.8,0,0,1-2.32,1.2,3.205,3.205,0,0,1-2.689-1.3A5.993,5.993,0,0,1,64.726,12.175Zm2.962.185q0,2.531,1.477,2.531a1.458,1.458,0,0,0,1.406-.826V10.443A1.419,1.419,0,0,0,69.182,9.6q-1.371,0-1.485,2.215ZM80.581,17a3.344,3.344,0,0,1-.281-.853,2.754,2.754,0,0,1-2.285,1.028,3.374,3.374,0,0,1-2.285-.813,2.588,2.588,0,0,1-.94-2.043,2.66,2.66,0,0,1,1.143-2.338,5.821,5.821,0,0,1,3.322-.791h.914v-.5q0-1.316-1.134-1.316a.927.927,0,0,0-1.055,1.042H75.018a2.655,2.655,0,0,1,1.173-2.239,4.931,4.931,0,0,1,2.993-.86,4.323,4.323,0,0,1,2.874.888,3.086,3.086,0,0,1,1.081,2.435v4.21a4.311,4.311,0,0,0,.4,2V17Zm-1.854-1.934a1.652,1.652,0,0,0,.918-.237,1.487,1.487,0,0,0,.523-.536V12.772h-.861q-1.547,0-1.547,1.389a.848.848,0,0,0,.272.655A.986.986,0,0,0,78.727,15.066ZM84.4,12.175a5.809,5.809,0,0,1,.976-3.56,3.211,3.211,0,0,1,2.725-1.3,2.731,2.731,0,0,1,2.145,1V3.5H93.22V17H90.557l-.149-1.02a2.8,2.8,0,0,1-2.32,1.2,3.205,3.205,0,0,1-2.689-1.3A5.993,5.993,0,0,1,84.4,12.175Zm2.962.185q0,2.531,1.477,2.531a1.458,1.458,0,0,0,1.406-.826V10.443A1.419,1.419,0,0,0,88.86,9.6q-1.371,0-1.485,2.215Z" transform="translate(184 -11853.635)" fill="#12263f"/>
    <path id="Trazado_146529" data-name="Trazado 146529" d="M42.5,0A42.5,42.5,0,1,1,0,42.5,42.5,42.5,0,0,1,42.5,0Z" transform="translate(194 -11954.635)" fill="#00bcd4"/>
    <path id="Trazado_146525" data-name="Trazado 146525" d="M42.5,0A42.5,42.5,0,1,1,0,42.5,42.5,42.5,0,0,1,42.5,0Z" transform="translate(314 -11954.635)" fill="#00bcd4"/>
    <path id="Trazado_146522" data-name="Trazado 146522" d="M42.5,0A42.5,42.5,0,1,1,0,42.5,42.5,42.5,0,0,1,42.5,0Z" transform="translate(430.389 -11954.635)" fill="#00bcd4"/>
    <path id="Trazado_146523" data-name="Trazado 146523" d="M42.5,0A42.5,42.5,0,1,1,0,42.5,42.5,42.5,0,0,1,42.5,0Z" transform="translate(541.759 -11954.635)" fill="#00bcd4"/>
    <path id="Trazado_146524" data-name="Trazado 146524" d="M19.016,11.568H14.165v3.059H19.9V17H11.08V4.2h8.833V6.585H14.165v2.7h4.852ZM21.706,17V9.547h-1.38V7.49h1.38V7.174a3.631,3.631,0,0,1,1.248-2.909A4.987,4.987,0,0,1,26.2,3.315a11.509,11.509,0,0,1,3.094.51l-.4,2.338-.492-.132a7.832,7.832,0,0,0-2.021-.255q-1.7,0-1.7,1.547V7.49H26.54V9.547H24.676V17Zm8.947,0H27.673V7.49h2.979Zm5.827-2.109a1.317,1.317,0,0,0,.967-.338,1.241,1.241,0,0,0,.334-.945h2.777a3.288,3.288,0,0,1-1.121,2.566,4.168,4.168,0,0,1-2.887,1,4.22,4.22,0,0,1-3.27-1.3,5.125,5.125,0,0,1-1.2-3.6v-.123A5.792,5.792,0,0,1,32.617,9.6a3.872,3.872,0,0,1,1.534-1.7,4.573,4.573,0,0,1,2.373-.593,4.116,4.116,0,0,1,2.944,1.028,3.647,3.647,0,0,1,1.09,2.786H37.781A1.626,1.626,0,0,0,37.42,10a1.244,1.244,0,0,0-.967-.4q-1.151,0-1.345,1.468a10.357,10.357,0,0,0-.062,1.283,4.068,4.068,0,0,0,.343,1.986A1.187,1.187,0,0,0,36.48,14.891ZM47.167,17a3.344,3.344,0,0,1-.281-.853A2.754,2.754,0,0,1,44.6,17.176a3.374,3.374,0,0,1-2.285-.813,2.588,2.588,0,0,1-.94-2.043,2.66,2.66,0,0,1,1.143-2.338,5.821,5.821,0,0,1,3.322-.791h.914v-.5q0-1.316-1.134-1.316a.927.927,0,0,0-1.055,1.042H41.6a2.655,2.655,0,0,1,1.173-2.239,4.931,4.931,0,0,1,2.993-.86,4.323,4.323,0,0,1,2.874.888,3.086,3.086,0,0,1,1.081,2.435v4.21a4.311,4.311,0,0,0,.4,2V17Zm-1.854-1.934a1.652,1.652,0,0,0,.918-.237,1.487,1.487,0,0,0,.523-.536V12.772h-.861q-1.547,0-1.547,1.389a.848.848,0,0,0,.272.655A.986.986,0,0,0,45.313,15.066Zm10.072-.176a1.317,1.317,0,0,0,.967-.338,1.241,1.241,0,0,0,.334-.945h2.777a3.288,3.288,0,0,1-1.121,2.566,4.168,4.168,0,0,1-2.887,1,4.22,4.22,0,0,1-3.27-1.3,5.125,5.125,0,0,1-1.2-3.6v-.123A5.792,5.792,0,0,1,51.522,9.6a3.872,3.872,0,0,1,1.534-1.7,4.573,4.573,0,0,1,2.373-.593,4.116,4.116,0,0,1,2.944,1.028,3.647,3.647,0,0,1,1.09,2.786H56.686A1.626,1.626,0,0,0,56.326,10a1.244,1.244,0,0,0-.967-.4q-1.151,0-1.345,1.468a10.357,10.357,0,0,0-.062,1.283,4.068,4.068,0,0,0,.343,1.986A1.187,1.187,0,0,0,55.385,14.891ZM63.84,17H60.87V7.49H63.84ZM60.694,5.029a1.334,1.334,0,0,1,.457-1.043,1.934,1.934,0,0,1,2.373,0,1.334,1.334,0,0,1,.457,1.043,1.334,1.334,0,0,1-.457,1.043,1.934,1.934,0,0,1-2.373,0A1.334,1.334,0,0,1,60.694,5.029ZM71.021,17a3.344,3.344,0,0,1-.281-.853,2.754,2.754,0,0,1-2.285,1.028,3.374,3.374,0,0,1-2.285-.813,2.588,2.588,0,0,1-.94-2.043,2.66,2.66,0,0,1,1.143-2.338,5.821,5.821,0,0,1,3.322-.791h.914v-.5q0-1.316-1.134-1.316a.927.927,0,0,0-1.055,1.042H65.458a2.655,2.655,0,0,1,1.173-2.239,4.931,4.931,0,0,1,2.993-.86A4.323,4.323,0,0,1,72.5,8.2a3.086,3.086,0,0,1,1.081,2.435v4.21a4.311,4.311,0,0,0,.4,2V17Zm-1.854-1.934a1.652,1.652,0,0,0,.918-.237,1.487,1.487,0,0,0,.523-.536V12.772h-.861q-1.547,0-1.547,1.389a.848.848,0,0,0,.272.655A.986.986,0,0,0,69.167,15.066Z" transform="translate(430.389 -11853.635)" fill="#12263f"/>
    <path id="Trazado_146526" data-name="Trazado 146526" d="M25.438,12.474h-1.67V17H20.684V4.2H25.72a5.621,5.621,0,0,1,3.56,1.01,3.421,3.421,0,0,1,1.283,2.853,4.155,4.155,0,0,1-.541,2.213A3.837,3.837,0,0,1,28.33,11.7L31,16.868V17H27.7ZM23.769,10.1H25.72a1.751,1.751,0,0,0,1.323-.463,1.788,1.788,0,0,0,.444-1.291,1.809,1.809,0,0,0-.448-1.3,1.735,1.735,0,0,0-1.318-.471H23.769ZM37.646,17a3.344,3.344,0,0,1-.281-.853,2.754,2.754,0,0,1-2.285,1.028,3.374,3.374,0,0,1-2.285-.813,2.588,2.588,0,0,1-.94-2.043A2.66,2.66,0,0,1,33,11.981a5.821,5.821,0,0,1,3.322-.791h.914v-.5q0-1.316-1.134-1.316a.927.927,0,0,0-1.055,1.042H32.083a2.655,2.655,0,0,1,1.173-2.239,4.931,4.931,0,0,1,2.993-.86,4.323,4.323,0,0,1,2.874.888A3.086,3.086,0,0,1,40.2,10.637v4.21a4.311,4.311,0,0,0,.4,2V17Zm-1.854-1.934a1.652,1.652,0,0,0,.918-.237,1.487,1.487,0,0,0,.523-.536V12.772h-.861q-1.547,0-1.547,1.389a.848.848,0,0,0,.272.655A.986.986,0,0,0,35.792,15.066Zm14.88-2.751a5.735,5.735,0,0,1-1,3.538,3.2,3.2,0,0,1-2.694,1.323,2.742,2.742,0,0,1-2.153-.958v4.438H41.865V7.49h2.769l.088.879a2.742,2.742,0,0,1,2.241-1.055,3.224,3.224,0,0,1,2.733,1.3,5.805,5.805,0,0,1,.976,3.564Zm-2.962-.185q0-2.531-1.477-2.531a1.394,1.394,0,0,0-1.406.756V14.1a1.439,1.439,0,0,0,1.424.791q1.415,0,1.459-2.443ZM55.1,17H52.131V7.49H55.1ZM51.955,5.029a1.334,1.334,0,0,1,.457-1.043,1.934,1.934,0,0,1,2.373,0,1.334,1.334,0,0,1,.457,1.043,1.334,1.334,0,0,1-.457,1.043,1.934,1.934,0,0,1-2.373,0A1.334,1.334,0,0,1,51.955,5.029Zm4.6,7.146a5.809,5.809,0,0,1,.976-3.56,3.211,3.211,0,0,1,2.725-1.3,2.731,2.731,0,0,1,2.145,1V3.5h2.971V17H62.7l-.149-1.02a2.8,2.8,0,0,1-2.32,1.2,3.205,3.205,0,0,1-2.689-1.3A5.993,5.993,0,0,1,56.552,12.175Zm2.962.185q0,2.531,1.477,2.531a1.458,1.458,0,0,0,1.406-.826V10.443A1.419,1.419,0,0,0,61.008,9.6q-1.371,0-1.485,2.215Zm12.138,4.816a4.889,4.889,0,0,1-3.542-1.305,4.507,4.507,0,0,1-1.354-3.4v-.246A5.84,5.84,0,0,1,67.3,9.652a3.955,3.955,0,0,1,1.578-1.727,4.763,4.763,0,0,1,2.461-.611A4.117,4.117,0,0,1,74.5,8.558a4.887,4.887,0,0,1,1.16,3.467v1.151H69.771a2.135,2.135,0,0,0,.694,1.257,2.066,2.066,0,0,0,1.389.457,2.662,2.662,0,0,0,2.2-.984l1.354,1.6a3.784,3.784,0,0,1-1.569,1.217A5.3,5.3,0,0,1,71.651,17.176ZM71.317,9.6q-1.3,0-1.547,1.723h2.988v-.229a1.467,1.467,0,0,0-.36-1.1A1.434,1.434,0,0,0,71.317,9.6Zm9.026,5.115h4.333V17H76.6V15.348l4.219-5.572H76.784V7.49h7.8v1.6Z" transform="translate(304 -11853.635)" fill="#12263f"/>
    <path id="Trazado_146521" data-name="Trazado 146521" d="M34.916,12.667a4.673,4.673,0,0,1-.721,2.36,4.35,4.35,0,0,1-1.85,1.586,6.3,6.3,0,0,1-2.72.563,5.025,5.025,0,0,1-3.973-1.644,6.786,6.786,0,0,1-1.45-4.641v-.633a7.746,7.746,0,0,1,.655-3.292,4.961,4.961,0,0,1,1.885-2.18,5.26,5.26,0,0,1,2.848-.769,5.516,5.516,0,0,1,3.744,1.226,4.844,4.844,0,0,1,1.608,3.379H31.866a2.292,2.292,0,0,0-.589-1.679,2.422,2.422,0,0,0-1.687-.51A1.843,1.843,0,0,0,27.9,7.3a5.536,5.536,0,0,0-.562,2.751v.905a6.126,6.126,0,0,0,.514,2.927,1.882,1.882,0,0,0,1.771.879,2.369,2.369,0,0,0,1.626-.5,2.126,2.126,0,0,0,.6-1.591Zm.949-.51a5.613,5.613,0,0,1,.554-2.536,3.96,3.96,0,0,1,1.591-1.709,4.791,4.791,0,0,1,2.435-.6A4.373,4.373,0,0,1,43.81,8.637a5.076,5.076,0,0,1,1.23,3.6v.105a4.925,4.925,0,0,1-1.235,3.529,4.384,4.384,0,0,1-3.344,1.305A4.434,4.434,0,0,1,37.2,15.958a4.761,4.761,0,0,1-1.327-3.3Zm2.962.185a3.538,3.538,0,0,0,.413,1.934,1.376,1.376,0,0,0,1.222.615q1.582,0,1.617-2.435v-.3q0-2.558-1.635-2.558-1.485,0-1.608,2.206ZM49.066,7.49l.1,1.116a3.225,3.225,0,0,1,2.716-1.292A2.713,2.713,0,0,1,54.1,8.2a4.226,4.226,0,0,1,.76,2.672V17H51.887V11a1.6,1.6,0,0,0-.29-1.059A1.342,1.342,0,0,0,50.542,9.6a1.413,1.413,0,0,0-1.292.686V17H46.289V7.49ZM59.947,5.126V7.49h1.564V9.547H59.947V13.9a1.111,1.111,0,0,0,.193.747,1.037,1.037,0,0,0,.765.211,4.345,4.345,0,0,0,.738-.053v2.118a5.466,5.466,0,0,1-1.67.255,3.1,3.1,0,0,1-2.259-.721,2.954,2.954,0,0,1-.729-2.188V9.547H55.772V7.49h1.213V5.126Zm8.481,5.045-.976-.07a1.752,1.752,0,0,0-1.793.879V17H62.7V7.49h2.777l.1,1.222a2.294,2.294,0,0,1,2.083-1.4,2.888,2.888,0,0,1,.826.105Zm.378,1.986a5.613,5.613,0,0,1,.554-2.536,3.96,3.96,0,0,1,1.591-1.709,4.791,4.791,0,0,1,2.435-.6,4.373,4.373,0,0,1,3.366,1.323,5.076,5.076,0,0,1,1.23,3.6v.105a4.925,4.925,0,0,1-1.235,3.529A4.384,4.384,0,0,1,73.4,17.176a4.434,4.434,0,0,1-3.261-1.217,4.761,4.761,0,0,1-1.327-3.3Zm2.962.185a3.538,3.538,0,0,0,.413,1.934,1.376,1.376,0,0,0,1.222.615q1.582,0,1.617-2.435v-.3q0-2.558-1.635-2.558-1.485,0-1.608,2.206ZM82.412,17H79.441V3.5h2.971Z" transform="translate(530.759 -11853.635)" fill="#12263f"/>
    <text id="_1" data-name="1" transform="translate(219.007 -11904.667)" fill="#fff" font-size="23" font-family="Roboto-Regular, Roboto"><tspan x="-6.458" y="0">1</tspan></text>
    <path id="Trazado_145524" data-name="Trazado 145524" d="M1990,916.565c.05-.2.1-.408.15-.61a4.347,4.347,0,0,1,1.123-1.964q4.765-4.771,9.537-9.535a4.452,4.452,0,0,1,7.569,3.505,4.246,4.246,0,0,1-1.235,2.755c-3.2,3.207-6.384,6.421-9.61,9.6a4.18,4.18,0,0,1-4.5,1,4.281,4.281,0,0,1-2.973-3.495,1.307,1.307,0,0,0-.059-.176Zm11.939-2.4c.325-.335.645-.673.973-1,1.078-1.082,2.165-2.153,3.236-3.241a3.184,3.184,0,1,0-4.521-4.484c-1.373,1.356-2.731,2.727-4.095,4.091a1.349,1.349,0,0,0-.1.125Zm-5.46-3.566c-.03.025-.065.048-.094.077-1.4,1.395-2.8,2.777-4.18,4.188a3.179,3.179,0,0,0,4.49,4.5c1.421-1.383,2.809-2.8,4.211-4.2a.511.511,0,0,0,.061-.085Z" transform="translate(-1753.104 -12831.054)" fill="#fff"/>
    <path id="Trazado_145525" data-name="Trazado 145525" d="M1990,957.312c.085-.445.141-.9.259-1.335a6.389,6.389,0,1,1-.108,3c-.064-.3-.1-.6-.151-.905Zm11.184,2.167a5.073,5.073,0,0,0-1.423-5.668,4.971,4.971,0,0,0-5.117-.882Zm-3.023,2.994-6.527-6.53a5.065,5.065,0,0,0,6.527,6.53Zm2.365-1.72-7.225-7.228-1.04,1.039,7.227,7.236c.184-.166.4-.343.589-.537C2000.24,961.1,2000.384,960.914,2000.525,960.751Z" transform="translate(-1753.104 -12859.584)" fill="#fff"/>
    <path id="Trazado_145526" data-name="Trazado 145526" d="M2051.4,917.27c-.062.3-.115.6-.185.9a6.392,6.392,0,1,1,.125-2.377,1.391,1.391,0,0,0,.06.206Zm-4.537-5.368a5.1,5.1,0,0,0-5.685,1.352,5.022,5.022,0,0,0-.913,5.218c.079-.075.157-.144.231-.218.316-.314.628-.631.946-.944.343-.338.7-.369.979-.092s.256.651-.091,1c-.2.2-.4.407-.608.607-.285.278-.575.553-.915.88l1.051,1.086,7.25-7.254-1.022-1.059c-.147.139-.225.209-.3.283-.428.427-.849.86-1.285,1.279a.637.637,0,1,1-.884-.911C2046.023,912.732,2046.428,912.33,2046.862,911.9Zm-3.62,9.536a5.042,5.042,0,0,0,5.6-1.383,4.984,4.984,0,0,0,.93-5.151Z" transform="translate(-1781.924 -12835.258)" fill="#fff"/>
    <path id="Trazado_145527" data-name="Trazado 145527" d="M2036.5,955.727a4.473,4.473,0,0,1-2.818-1.124c-1.665-1.4-3.338-2.78-5.008-4.171-1.742-1.451-3.49-2.9-5.223-4.359a4.447,4.447,0,0,1,.959-7.376,4.236,4.236,0,0,1,4.741.545c1.28,1.012,2.516,2.08,3.77,3.123,2.142,1.783,4.278,3.573,6.428,5.346a4.468,4.468,0,0,1-2.849,8.016Zm-2.474-10.783-4.078,4.9c1.641,1.358,3.241,2.717,4.883,4.023a2.86,2.86,0,0,0,2.6.485,3.177,3.177,0,0,0,1.429-5.362c-.414-.408-.883-.761-1.331-1.134C2036.368,946.893,2035.211,945.932,2034.023,944.944Zm-.979-.814-.793-.661c-1.271-1.058-2.538-2.12-3.813-3.174a3.178,3.178,0,0,0-4.241,4.733c.9.807,1.848,1.557,2.775,2.331.658.549,1.317,1.1,2,1.663Z" transform="translate(-1772.012 -12851.827)" fill="#fff"/>
    <path id="Trazado_145528" data-name="Trazado 145528" d="M2050.286,922.567a.622.622,0,0,1,.63-.622.631.631,0,1,1-.017,1.262A.625.625,0,0,1,2050.286,922.567Z" transform="translate(-1788.839 -12842.186)" fill="#fff"/>
    <text id="_2" data-name="2" transform="translate(337.007 -11904.667)" fill="#fff" font-size="23" font-family="Roboto-Regular, Roboto"><tspan x="-6.458" y="0">2</tspan></text>
    <path id="Trazado_145524-2" data-name="Trazado 145524" d="M1990,916.565c.05-.2.1-.408.15-.61a4.347,4.347,0,0,1,1.123-1.964q4.765-4.771,9.537-9.535a4.452,4.452,0,0,1,7.569,3.505,4.246,4.246,0,0,1-1.235,2.755c-3.2,3.207-6.384,6.421-9.61,9.6a4.18,4.18,0,0,1-4.5,1,4.281,4.281,0,0,1-2.973-3.495,1.307,1.307,0,0,0-.059-.176Zm11.939-2.4c.325-.335.645-.673.973-1,1.078-1.082,2.165-2.153,3.236-3.241a3.184,3.184,0,1,0-4.521-4.484c-1.373,1.356-2.731,2.727-4.095,4.091a1.349,1.349,0,0,0-.1.125Zm-5.46-3.566c-.03.025-.065.048-.094.077-1.4,1.395-2.8,2.777-4.18,4.188a3.179,3.179,0,0,0,4.49,4.5c1.421-1.383,2.809-2.8,4.211-4.2a.511.511,0,0,0,.061-.085Z" transform="translate(-1635.104 -12831.054)" fill="#fff"/>
    <path id="Trazado_145525-2" data-name="Trazado 145525" d="M1990,957.312c.085-.445.141-.9.259-1.335a6.389,6.389,0,1,1-.108,3c-.064-.3-.1-.6-.151-.905Zm11.184,2.167a5.073,5.073,0,0,0-1.423-5.668,4.971,4.971,0,0,0-5.117-.882Zm-3.023,2.994-6.527-6.53a5.065,5.065,0,0,0,6.527,6.53Zm2.365-1.72-7.225-7.228-1.04,1.039,7.227,7.236c.184-.166.4-.343.589-.537C2000.24,961.1,2000.384,960.914,2000.525,960.751Z" transform="translate(-1635.104 -12859.584)" fill="#fff"/>
    <path id="Trazado_145526-2" data-name="Trazado 145526" d="M2051.4,917.27c-.062.3-.115.6-.185.9a6.392,6.392,0,1,1,.125-2.377,1.391,1.391,0,0,0,.06.206Zm-4.537-5.368a5.1,5.1,0,0,0-5.685,1.352,5.022,5.022,0,0,0-.913,5.218c.079-.075.157-.144.231-.218.316-.314.628-.631.946-.944.343-.338.7-.369.979-.092s.256.651-.091,1c-.2.2-.4.407-.608.607-.285.278-.575.553-.915.88l1.051,1.086,7.25-7.254-1.022-1.059c-.147.139-.225.209-.3.283-.428.427-.849.86-1.285,1.279a.637.637,0,1,1-.884-.911C2046.023,912.732,2046.428,912.33,2046.862,911.9Zm-3.62,9.536a5.042,5.042,0,0,0,5.6-1.383,4.984,4.984,0,0,0,.93-5.151Z" transform="translate(-1663.924 -12835.258)" fill="#fff"/>
    <path id="Trazado_145527-2" data-name="Trazado 145527" d="M2036.5,955.727a4.473,4.473,0,0,1-2.818-1.124c-1.665-1.4-3.338-2.78-5.008-4.171-1.742-1.451-3.49-2.9-5.223-4.359a4.447,4.447,0,0,1,.959-7.376,4.236,4.236,0,0,1,4.741.545c1.28,1.012,2.516,2.08,3.77,3.123,2.142,1.783,4.278,3.573,6.428,5.346a4.468,4.468,0,0,1-2.849,8.016Zm-2.474-10.783-4.078,4.9c1.641,1.358,3.241,2.717,4.883,4.023a2.86,2.86,0,0,0,2.6.485,3.177,3.177,0,0,0,1.429-5.362c-.414-.408-.883-.761-1.331-1.134C2036.368,946.893,2035.211,945.932,2034.023,944.944Zm-.979-.814-.793-.661c-1.271-1.058-2.538-2.12-3.813-3.174a3.178,3.178,0,0,0-4.241,4.733c.9.807,1.848,1.557,2.775,2.331.658.549,1.317,1.1,2,1.663Z" transform="translate(-1654.012 -12851.827)" fill="#fff"/>
    <path id="Trazado_145528-2" data-name="Trazado 145528" d="M2050.286,922.567a.622.622,0,0,1,.63-.622.631.631,0,1,1-.017,1.262A.625.625,0,0,1,2050.286,922.567Z" transform="translate(-1670.839 -12842.186)" fill="#fff"/>
    <text id="_3" data-name="3" transform="translate(454.007 -11904.667)" fill="#fff" font-size="23" font-family="Roboto-Regular, Roboto"><tspan x="-6.458" y="0">3</tspan></text>
    <g id="Grupo_74974" data-name="Grupo 74974" transform="translate(437.092 -11928.77)">
      <path id="Trazado_145524-3" data-name="Trazado 145524" d="M1990,916.565c.05-.2.1-.408.15-.61a4.347,4.347,0,0,1,1.123-1.964q4.765-4.771,9.537-9.535a4.452,4.452,0,0,1,7.569,3.505,4.246,4.246,0,0,1-1.235,2.755c-3.2,3.207-6.384,6.421-9.61,9.6a4.18,4.18,0,0,1-4.5,1,4.281,4.281,0,0,1-2.973-3.495,1.307,1.307,0,0,0-.059-.176Zm11.939-2.4c.325-.335.645-.673.973-1,1.078-1.082,2.165-2.153,3.236-3.241a3.184,3.184,0,1,0-4.521-4.484c-1.373,1.356-2.731,2.727-4.095,4.091a1.349,1.349,0,0,0-.1.125Zm-5.46-3.566c-.03.025-.065.048-.094.077-1.4,1.395-2.8,2.777-4.18,4.188a3.179,3.179,0,0,0,4.49,4.5c1.421-1.383,2.809-2.8,4.211-4.2a.511.511,0,0,0,.061-.085Z" transform="translate(-1955.197 -902.285)" fill="#fff"/>
      <path id="Trazado_145525-3" data-name="Trazado 145525" d="M1990,957.312c.085-.445.141-.9.259-1.335a6.389,6.389,0,1,1-.108,3c-.064-.3-.1-.6-.151-.905Zm11.184,2.167a5.073,5.073,0,0,0-1.423-5.668,4.971,4.971,0,0,0-5.117-.882Zm-3.023,2.994-6.527-6.53a5.065,5.065,0,0,0,6.527,6.53Zm2.365-1.72-7.225-7.228-1.04,1.039,7.227,7.236c.184-.166.4-.343.589-.537C2000.24,961.1,2000.384,960.914,2000.525,960.751Z" transform="translate(-1955.197 -930.814)" fill="#fff"/>
      <path id="Trazado_145526-3" data-name="Trazado 145526" d="M2051.4,917.27c-.062.3-.115.6-.185.9a6.392,6.392,0,1,1,.125-2.377,1.391,1.391,0,0,0,.06.206Zm-4.537-5.368a5.1,5.1,0,0,0-5.685,1.352,5.022,5.022,0,0,0-.913,5.218c.079-.075.157-.144.231-.218.316-.314.628-.631.946-.944.343-.338.7-.369.979-.092s.256.651-.091,1c-.2.2-.4.407-.608.607-.285.278-.575.553-.915.88l1.051,1.086,7.25-7.254-1.022-1.059c-.147.139-.225.209-.3.283-.428.427-.849.86-1.285,1.279a.637.637,0,1,1-.884-.911C2046.023,912.732,2046.428,912.33,2046.862,911.9Zm-3.62,9.536a5.042,5.042,0,0,0,5.6-1.383,4.984,4.984,0,0,0,.93-5.151Z" transform="translate(-1984.016 -906.489)" fill="#fff"/>
      <path id="Trazado_145527-3" data-name="Trazado 145527" d="M2036.5,955.727a4.473,4.473,0,0,1-2.818-1.124c-1.665-1.4-3.338-2.78-5.008-4.171-1.742-1.451-3.49-2.9-5.223-4.359a4.447,4.447,0,0,1,.959-7.376,4.236,4.236,0,0,1,4.741.545c1.28,1.012,2.516,2.08,3.77,3.123,2.142,1.783,4.278,3.573,6.428,5.346a4.468,4.468,0,0,1-2.849,8.016Zm-2.474-10.783-4.078,4.9c1.641,1.358,3.241,2.717,4.883,4.023a2.86,2.86,0,0,0,2.6.485,3.177,3.177,0,0,0,1.429-5.362c-.414-.408-.883-.761-1.331-1.134C2036.368,946.893,2035.211,945.932,2034.023,944.944Zm-.979-.814-.793-.661c-1.271-1.058-2.538-2.12-3.813-3.174a3.178,3.178,0,0,0-4.241,4.733c.9.807,1.848,1.557,2.775,2.331.658.549,1.317,1.1,2,1.663Z" transform="translate(-1974.105 -923.058)" fill="#fff"/>
      <path id="Trazado_145528-3" data-name="Trazado 145528" d="M2050.286,922.567a.622.622,0,0,1,.63-.622.631.631,0,1,1-.017,1.262A.625.625,0,0,1,2050.286,922.567Z" transform="translate(-1990.932 -913.416)" fill="#fff"/>
    </g>
    <g id="Grupo_74978" data-name="Grupo 74978" transform="translate(-64.676 -12847.416)">
      <text id="_4" data-name="4" transform="translate(632.682 942.749)" fill="#fff" font-size="23" font-family="Roboto-Regular, Roboto"><tspan x="-6.458" y="0">4</tspan></text>
      <g id="Grupo_74974-2" data-name="Grupo 74974" transform="translate(617.768 918.646)">
        <path id="Trazado_145524-4" data-name="Trazado 145524" d="M1990,916.565c.05-.2.1-.408.15-.61a4.347,4.347,0,0,1,1.123-1.964q4.765-4.771,9.537-9.535a4.452,4.452,0,0,1,7.569,3.505,4.246,4.246,0,0,1-1.235,2.755c-3.2,3.207-6.384,6.421-9.61,9.6a4.18,4.18,0,0,1-4.5,1,4.281,4.281,0,0,1-2.973-3.495,1.307,1.307,0,0,0-.059-.176Zm11.939-2.4c.325-.335.645-.673.973-1,1.078-1.082,2.165-2.153,3.236-3.241a3.184,3.184,0,1,0-4.521-4.484c-1.373,1.356-2.731,2.727-4.095,4.091a1.349,1.349,0,0,0-.1.125Zm-5.46-3.566c-.03.025-.065.048-.094.077-1.4,1.395-2.8,2.777-4.18,4.188a3.179,3.179,0,0,0,4.49,4.5c1.421-1.383,2.809-2.8,4.211-4.2a.511.511,0,0,0,.061-.085Z" transform="translate(-1955.197 -902.285)" fill="#fff"/>
        <path id="Trazado_145525-4" data-name="Trazado 145525" d="M1990,957.312c.085-.445.141-.9.259-1.335a6.389,6.389,0,1,1-.108,3c-.064-.3-.1-.6-.151-.905Zm11.184,2.167a5.073,5.073,0,0,0-1.423-5.668,4.971,4.971,0,0,0-5.117-.882Zm-3.023,2.994-6.527-6.53a5.065,5.065,0,0,0,6.527,6.53Zm2.365-1.72-7.225-7.228-1.04,1.039,7.227,7.236c.184-.166.4-.343.589-.537C2000.24,961.1,2000.384,960.914,2000.525,960.751Z" transform="translate(-1955.197 -930.814)" fill="#fff"/>
        <path id="Trazado_145526-4" data-name="Trazado 145526" d="M2051.4,917.27c-.062.3-.115.6-.185.9a6.392,6.392,0,1,1,.125-2.377,1.391,1.391,0,0,0,.06.206Zm-4.537-5.368a5.1,5.1,0,0,0-5.685,1.352,5.022,5.022,0,0,0-.913,5.218c.079-.075.157-.144.231-.218.316-.314.628-.631.946-.944.343-.338.7-.369.979-.092s.256.651-.091,1c-.2.2-.4.407-.608.607-.285.278-.575.553-.915.88l1.051,1.086,7.25-7.254-1.022-1.059c-.147.139-.225.209-.3.283-.428.427-.849.86-1.285,1.279a.637.637,0,1,1-.884-.911C2046.023,912.732,2046.428,912.33,2046.862,911.9Zm-3.62,9.536a5.042,5.042,0,0,0,5.6-1.383,4.984,4.984,0,0,0,.93-5.151Z" transform="translate(-1984.016 -906.489)" fill="#fff"/>
        <path id="Trazado_145527-4" data-name="Trazado 145527" d="M2036.5,955.727a4.473,4.473,0,0,1-2.818-1.124c-1.665-1.4-3.338-2.78-5.008-4.171-1.742-1.451-3.49-2.9-5.223-4.359a4.447,4.447,0,0,1,.959-7.376,4.236,4.236,0,0,1,4.741.545c1.28,1.012,2.516,2.08,3.77,3.123,2.142,1.783,4.278,3.573,6.428,5.346a4.468,4.468,0,0,1-2.849,8.016Zm-2.474-10.783-4.078,4.9c1.641,1.358,3.241,2.717,4.883,4.023a2.86,2.86,0,0,0,2.6.485,3.177,3.177,0,0,0,1.429-5.362c-.414-.408-.883-.761-1.331-1.134C2036.368,946.893,2035.211,945.932,2034.023,944.944Zm-.979-.814-.793-.661c-1.271-1.058-2.538-2.12-3.813-3.174a3.178,3.178,0,0,0-4.241,4.733c.9.807,1.848,1.557,2.775,2.331.658.549,1.317,1.1,2,1.663Z" transform="translate(-1974.105 -923.058)" fill="#fff"/>
        <path id="Trazado_145528-4" data-name="Trazado 145528" d="M2050.286,922.567a.622.622,0,0,1,.63-.622.631.631,0,1,1-.017,1.262A.625.625,0,0,1,2050.286,922.567Z" transform="translate(-1990.932 -913.416)" fill="#fff"/>
      </g>
    </g>
    <g id="Elipse_4754" data-name="Elipse 4754" transform="translate(204 -11928)" fill="none" stroke="#fff" stroke-width="2">
      <circle cx="15" cy="15" r="15" stroke="none"/>
      <circle cx="15" cy="15" r="14" fill="none"/>
    </g>
    <g id="Elipse_4755" data-name="Elipse 4755" transform="translate(322 -11928)" fill="none" stroke="#fff" stroke-width="2">
      <circle cx="15" cy="15" r="15" stroke="none"/>
      <circle cx="15" cy="15" r="14" fill="none"/>
    </g>
    <g id="Elipse_4756" data-name="Elipse 4756" transform="translate(439 -11928)" fill="none" stroke="#fff" stroke-width="2">
      <circle cx="15" cy="15" r="15" stroke="none"/>
      <circle cx="15" cy="15" r="14" fill="none"/>
    </g>
    <g id="Elipse_4757" data-name="Elipse 4757" transform="translate(554 -11928)" fill="none" stroke="#fff" stroke-width="2">
      <circle cx="15" cy="15" r="15" stroke="none"/>
      <circle cx="15" cy="15" r="14" fill="none"/>
    </g>
  </g>
</svg>
