<svg id="Слой_1" data-name="Слой 1" xmlns="http://www.w3.org/2000/svg" width="2845.07" height="1602.2" viewBox="0 0 2845.07 1602.2">
  <defs>
    <style>
      .cls-1 {
        fill: #ebf3fa;
      }

      .cls-2 {
        fill: #dfebfd;
      }

      .cls-3 {
        fill: #cde0fb;
      }

      .cls-4 {
        fill: #ffb27d;
      }

      .cls-5 {
        fill: #fff;
      }

      .cls-6 {
        fill: #f99746;
      }

      .cls-7 {
        fill: #aec3ff;
      }

      .cls-8 {
        fill: #a8c3f7;
      }

      .cls-9 {
        fill: #91cecf;
      }

      .cls-10 {
        fill: #163560;
      }

      .cls-11 {
        fill: #2b478b;
      }

      .cls-12 {
        fill: #233862;
      }

      .cls-13 {
        fill: #abddda;
      }

      .cls-14 {
        fill: #fca56b;
      }

      .cls-15 {
        fill: #c0d8fb;
      }

      .cls-15, .cls-17, .cls-19, .cls-23 {
        opacity: 0.5;
      }

      .cls-16, .cls-17 {
        fill: #afcdfb;
      }

      .cls-18 {
        fill: #ef7e29;
      }

      .cls-19 {
        fill: #ffe2cc;
      }

      .cls-20 {
        fill: #fcecdb;
      }

      .cls-21 {
        fill: #f7e0cb;
      }

      .cls-22, .cls-23 {
        fill: #efcbab;
      }

      .cls-24 {
        fill: #d8661a;
      }

      .cls-25 {
        fill: #ed985f;
      }

      .cls-26 {
        fill: #b5453c;
      }

      .cls-27 {
        fill: #699ff0;
      }

      .cls-28 {
        fill: #e9f3fe;
        opacity: 0.4;
      }

      .cls-29 {
        fill: #2e3552;
      }
    </style>
  </defs>
  <g>
    <path class="cls-1" d="M157.63,1598.64S-245.13,646.51,621.15,469.5C1161.68,359.05,1147.55-24.93,1912.4,1.28c783.24,26.84,474.8,766.82,576.42,936.08s362.42,237.17,267.85,661.28Z"/>
    <path class="cls-2" d="M2002.2,207.37c-27.79-62.66-135-25.21-135-25.21s-57.28,126-78.65,132.06S1816.5,197,1816.5,197c-42.86,2.42-142.5,70.78-142.5,70.78s27.4,132.45,5.18,133.09-18.27-118.52-18.27-118.52c-39,18.56-69.77,72.12-69.77,72.12-35.71,85,75.28,126.47,75.28,126.47s8.5,46.1-11.91,103.64h0s-5,10.81-8.94,28.49l11.14-1.72c.45-3.12,1-6.17,1.69-9.11a.08.08,0,0,1,0-.05l0-.13c.5-1.84,1.22-4.46,2.12-7.66h0s0,0,0,0c2.38-7.19,3.92-12.47,4.82-16.25a0,0,0,0,0,0,0c7-22.49,17.47-52,26.38-59.24a21.67,21.67,0,0,1-3.17-4.74l3.17,4.74c25.38,37.93,121.79,30,173.23,11s26-30.5-6.38-50.41-91.3-4.26-110.48-11.07,5.23-20.33,41.07-23.06,59,29.95,117.06,26.57,85.06-117.71,85.06-117.71c-37.62,18.35-111.82,7.48-116.64-5.72s100.28-28,116-34.62S2030,270,2002.2,207.37Z"/>
    <path class="cls-2" d="M2313.16,1291.81c99.7-59.56,14.81-232.19,14.81-232.19S2104.36,989,2089.76,954.32s203,23,203,23c-12.84-71.59-148.18-225.2-148.18-225.2s-217.18,73.15-222.79,35.92,195.6-55,195.6-55c-39.18-61.76-135.56-102.6-135.56-102.6C1831.52,587.81,1784.47,783,1784.47,783s-75.8,23.73-176.76,1.16h0s-19.18-6.11-49.74-9.21l5.16,18.39q8,.16,15.68,1a.1.1,0,0,1,.09,0l.22,0c3.2.47,7.75,1.14,13.31,2h0c12.57,2.53,21.76,4,28.3,4.79h.06c39.26,7.13,91.05,18.74,105,32.26a36.82,36.82,0,0,1,7.33-6.3l-7.33,6.3c-58.6,50.43-25.62,211,17,293.6s56.62,37.46,83.49-21-11.51-154.45-4-188.1,35.27,4.65,47.2,64.37-38.32,105.37-20.78,202.33,215.37,119,215.37,119C2025.62,1244,2028.74,1117,2050,1106.2s67.62,162.94,81.94,188S2213.45,1351.36,2313.16,1291.81Z"/>
    <path class="cls-3" d="M834.88,592.7c55.84-80.56,196.36.79,196.36.79s46.67,192.32,75.07,206.61-7.8-172.23-7.8-172.23c59.56,14.9,181.18,137.65,181.18,137.65s-74,178.7-43,185.55,57.45-161.57,57.45-161.57c49.77,36.52,78.66,120,78.66,120,27.36,129-139.67,157.44-139.67,157.44s-24.31,62.48-11.07,148.78h0s4,16.51,4.91,42.42l-15.19-5.4c.2-4.52.24-8.94.07-13.26a.11.11,0,0,0,0-.08,1.28,1.28,0,0,0,0-.19c-.2-2.71-.51-6.58-.93-11.31v0s0,0,0,0c-1.41-10.73-2.16-18.56-2.42-24.11v0c-3.76-33.46-10.58-77.74-21.17-90.28a31.47,31.47,0,0,0,5.73-5.81l-5.73,5.81c-45.81,46.47-179.12,9.52-246.26-31.09s-28.31-49.81,22.48-69.1,129.4,18.51,158.16,14.1-1.9-30-51.5-43.42-90.92,26.24-171.57,5.93-87.9-188.16-87.9-188.16c47.92,35.87,155.06,40.5,165.38,23.24s-133.35-66.24-153.65-79.74S779,673.26,834.88,592.7Z"/>
    <path class="cls-4" d="M1851.7,712.88c-.19-.44-.41-.91-.68-1.4-.88-3.44-8.59-21.67-9.45-23.66-2.42-5.68-6.39-2.66-6.39,1.58,0,1.31.56,10.67.24,12-6.55-4.82-10.59-9.84-27.48-14.62,0,0-12.89-4.23-6.69,8.75,4.14,8.68,9.08,9.77,15.11,21.91s17.18,20.49,27.16,19.73l10.71,3.62,10.83-16-7-4.3A16.38,16.38,0,0,1,1851.7,712.88Z"/>
    <g>
      <g>
        <rect class="cls-5" x="1200.83" y="346.23" width="634.35" height="912.84"/>
        <g>
          <rect class="cls-6" x="1363.51" y="428.43" width="289.14" height="15.01"/>
          <rect class="cls-6" x="1326.14" y="463.27" width="144.57" height="15.01"/>
          <rect class="cls-6" x="1488.15" y="463.27" width="212.19" height="15.01"/>
        </g>
        <g>
          <rect class="cls-7" x="1341.69" y="801.44" width="311.95" height="11.43"/>
          <g>
            <rect class="cls-7" x="1506.19" y="770.94" width="220.89" height="11.43"/>
            <rect class="cls-7" x="1268.25" y="770.94" width="215.18" height="11.43"/>
          </g>
          <g>
            <rect class="cls-7" x="1515.42" y="740.44" width="190.03" height="11.43"/>
            <rect class="cls-7" x="1289.88" y="740.44" width="190.03" height="11.43"/>
          </g>
        </g>
        <g>
          <g>
            <path class="cls-8" d="M1548.58,914.17h-91.73a7.59,7.59,0,0,1-7.57-7.56h0a7.59,7.59,0,0,1,7.57-7.57h91.73a7.58,7.58,0,0,1,7.56,7.57h0A7.58,7.58,0,0,1,1548.58,914.17Z"/>
            <path class="cls-8" d="M1676.54,914.17h-91.73a7.59,7.59,0,0,1-7.57-7.56h0a7.59,7.59,0,0,1,7.57-7.57h91.73a7.59,7.59,0,0,1,7.57,7.57h0A7.59,7.59,0,0,1,1676.54,914.17Z"/>
          </g>
          <g>
            <path class="cls-8" d="M1564.5,1115.14a82.64,82.64,0,1,1,82.63-82.63A82.73,82.73,0,0,1,1564.5,1115.14Zm0-161.1a78.47,78.47,0,1,0,78.47,78.47A78.56,78.56,0,0,0,1564.5,954Z"/>
            <path class="cls-8" d="M1564.5,1099.09a66.59,66.59,0,1,1,66.58-66.58A66.66,66.66,0,0,1,1564.5,1099.09Zm0-129a62.42,62.42,0,1,0,62.42,62.42A62.49,62.49,0,0,0,1564.5,970.09Z"/>
            <path class="cls-8" d="M1565.38,1058.63c-8.65,2.8-17.09,4.26-23.73,3.71-10.11-.84-15.81-6.14-16-14.92-.18-7,2.71-13.07,8.38-18-.06-.47-.1-1-.14-1.43-.37-4.91.68-8.17,3.12-9.7,4-2.46,9.82.91,10.06,1.05l-1.31,2.25c-1.31-.77-5.22-2.45-7.38-1.09-1.86,1.16-2.08,4.38-1.92,7a55.25,55.25,0,0,1,18-8.05,96.61,96.61,0,0,1,16.95-2.89c0-.61.08-1.16.14-1.61.18-1.2.6-2.61,1.78-2.9a2,2,0,0,1,2.1,1.1,6.24,6.24,0,0,1,.8,3.15c1.88,0,3.63,0,5.18.11l0-.1a29.75,29.75,0,0,1,.4-9c.66-3,1.74-4.53,3.25-4.67a2,2,0,0,1,2.06,1.27c.85,2-.74,7.55-3,12.83a0,0,0,0,0,0,0c2.15.37,3.61,1,4.07,1.8a1.93,1.93,0,0,1-.52,2.43c-1.74,1.6-3.13,1.2-3.8.82a3.68,3.68,0,0,1-1.39-1.6c-1.74,3.44-3.63,6.38-5.12,7.63a2.58,2.58,0,0,1-3,.44,2.91,2.91,0,0,1-.65-.53,35.29,35.29,0,0,1-2,4.09c-2.72,4.78-5.78,7.23-8.85,7.08a5,5,0,0,1-3.32-1.47,47.72,47.72,0,0,1-6,9.8c-2.16,2.67-4.92,3.64-7.76,2.75-5-1.57-9.6-8.86-11.31-17.5a19.53,19.53,0,0,0-6.26,14.92c.2,7.49,4.79,11.66,13.66,12.4,22.38,1.86,61.61-18.94,64.59-34.25h0C1604,1038,1585.42,1052.13,1565.38,1058.63Zm-28.63-28.19c1.37,9.11,5.93,15.81,9.8,17,1.81.56,3.49-.08,5-1.91a44.79,44.79,0,0,0,6.25-10.69,15.71,15.71,0,0,1-1.08-3.39,24.39,24.39,0,0,1,0-10,65.84,65.84,0,0,0-12.25,4.27A40,40,0,0,0,1536.75,1030.44Zm23.89,4.26a3,3,0,0,0,2.29,1.56c2,.08,4.33-2,6.47-5.77a34,34,0,0,0,2.68-6.06,26,26,0,0,1-.73-5.28,93.07,93.07,0,0,0-9.25,1.21C1563.79,1023.64,1562.81,1029.18,1560.64,1034.7Zm14.15-10.22c.41,1.22.77,1.46.77,1.46,1.46-1.25,3.11-4,4.62-7-1.23,0-2.62,0-4.13,0A31.34,31.34,0,0,1,1574.79,1024.48Zm-15.24-3.34c-.66,1.38-1.14,5.79-.34,9.72C1560.52,1026.55,1560.79,1022.83,1559.55,1021.14Zm25.57-1.66h0Zm-.38-13.33a16.67,16.67,0,0,0-.62,2.72A19.9,19.9,0,0,0,1584.74,1006.15Z"/>
          </g>
        </g>
      </g>
      <g>
        <rect class="cls-7" x="1323.5" y="662.59" width="348.32" height="11.43"/>
        <g>
          <rect class="cls-7" x="1507.18" y="632.09" width="246.65" height="11.43"/>
          <rect class="cls-7" x="1241.5" y="632.09" width="240.27" height="11.43"/>
        </g>
        <g>
          <rect class="cls-7" x="1517.49" y="601.59" width="212.19" height="11.43"/>
          <rect class="cls-7" x="1265.65" y="601.59" width="212.19" height="11.43"/>
        </g>
      </g>
    </g>
    <g>
      <path class="cls-9" d="M2110.79,684.35s53.33,204.3-108.81,170.34c-43.78-9.17-160.41-125.39-160.41-125.39s11.23-17.71,25-15.83c0,0,112.68,36.64,130.7,49.9,10,7.35,21.37-108.4,55.89-106.75S2110.79,684.35,2110.79,684.35Z"/>
      <path class="cls-10" d="M2183.86,1548.23s-3,48-12.28,48.74c-1.23.09-47.14.09-47.14.09l-58.62-.34s.39-14.12,17.52-17.11,45.81-15,56.19-37.67C2150.44,1518.12,2183.86,1548.23,2183.86,1548.23Z"/>
      <path class="cls-11" d="M2187.24,1551.56s-17.82,6-31.73,6a116.64,116.64,0,0,1-29.62-4.22s-3.35-32.44-21.81-103.92c-9.68-37.46-23.5-85.63-43.16-145.49-54.37-165.42-70.9-262.19-72.41-271.36-.08-.48-.11-.72-.11-.72l.17-.08,167.14-73.39s-20.65,228,5.7,315.51a368.43,368.43,0,0,1,9.57,41.92C2187.62,1410.83,2187.24,1551.56,2187.24,1551.56Z"/>
      <path class="cls-12" d="M2171,1315.77l-66.9,133.61c-9.68-37.46-23.5-85.63-43.16-145.49-54.37-165.42-70.9-262.19-72.41-271.36,0-.27,0-.53.06-.8l167.14-73.39s-20.65,228,5.7,315.51A368.43,368.43,0,0,1,2171,1315.77Z"/>
      <path class="cls-10" d="M2053.31,1548.23s-3,48-12.27,48.74c-1.24.09-47.15.09-47.15.09l-58.61-.34s.38-14.12,17.51-17.11,45.81-15,56.19-37.67C2019.9,1518.12,2053.31,1548.23,2053.31,1548.23Z"/>
      <path class="cls-11" d="M1958.55,963.71s-2.17,147.75,23.39,329.14,16.9,258.41,16.9,258.41,17.56,5.69,24.65,6.26c18.06,1.48,36.57-4.23,36.57-4.23s36.59-181.47,26.1-272.26,50.1-311.56,50.1-311.56Z"/>
      <path class="cls-4" d="M2080.29,612.15,2051,637.89l-47.91-2.11c.11-3.86,1-19.91,1.8-34.46l.15-2.55c.7-12.38,1.32-23,1.32-23l40.88-25.39,15.24-9.47c0,.26.63,13.54.73,15.48C2064.94,590.78,2080.29,612.15,2080.29,612.15Z"/>
      <path class="cls-13" d="M1948.81,970.11c.67,78,5.87,260.41,9.69,264.12,40.62,39.2,219.27-10.75,228.75-54s-36-553.82-105.38-574.22c-14.39-4.22-91.36,20.66-91.36,20.66a488.72,488.72,0,0,0-20,71.81c-2.93,14.91-12.51,121.26-18.1,192.34-1.48,18.94-2.69,35.37-3.4,46.9C1948.74,942.53,1948.68,954.14,1948.81,970.11Z"/>
      <path class="cls-14" d="M2060,557.44c-7.28,17.57-41,36.63-55.13,43.88l.15-2.55c.7-12.38,1.32-23,1.32-23l40.88-25.39C2056.84,548.88,2063,550.21,2060,557.44Z"/>
      <path class="cls-4" d="M1991.22,577.49s74,6.88,77.55-39.25,15.53-76.32-31.55-82.66-57.63,10.55-62.57,25.66S1972.07,574.51,1991.22,577.49Z"/>
      <path class="cls-10" d="M1976.48,476.47s15.18,49.58,25.16,45.16,19.1-8.06,20.82,7.49-9,36.22,23.73,32.06,61.38-97,49.19-110.87C2060.21,410.39,1927.83,429,1976.48,476.47Z"/>
      <path class="cls-9" d="M2009.38,607.19c.92-.39,52.8-23.66,58.87-21.66s13.63,20.54,13.63,20.54l-91.36,20.65S1997.71,612.1,2009.38,607.19Z"/>
      <path class="cls-9" d="M1948.81,1026c139-100.52,149.82-259.85,149.82-259.85-66.14,37.31-129,99-149.33,166.78-1.47,19,.44,49.21-.27,60.73C1948.74,998.4,1948.68,1010,1948.81,1026Z"/>
      <path class="cls-4" d="M1861.53,974.54s-1.75-1.39-5.64-1.7c-3.36-1.13-12.73-5.26-14.33-6.72-5.09-4.61-6.87.3-3.32,5.2.77,1.06,3.52,2.87,4.48,3.88-7.61,2.88-17.77,8.81-31,20.39,0,0-10.56,8.51,3.7,10.37,9.54,1.24,13.14-2.31,26.61-.78s26.54-3.29,31.32-12.07l8.87-7-7.56-17.8Z"/>
      <path class="cls-13" d="M2039.59,630.41s146.41-7,14,239.3c-21.17,39.4-172.48,125-172.48,125s-14.22-15.4-8.85-28.27c0,0,98.53-112.13,111.74-116.69,11.71-4,9.29-140.58,19.77-173.5S2039.59,630.41,2039.59,630.41Z"/>
    </g>
    <g>
      <path class="cls-15" d="M1866.36,1594.46l-106.14,0-56.14,0a39.73,39.73,0,0,1-39.6-39.64l.12-392.19a39.72,39.72,0,0,1,39.62-39.61l49.79,0,112.49,0a39.74,39.74,0,0,1,39.61,39.64l-.12,392.19A39.74,39.74,0,0,1,1866.36,1594.46Z"/>
      <path class="cls-16" d="M1888.87,1483.27l-2.82-20.64h0l-2.82-20.65a19.4,19.4,0,0,0-21.77-16.55c-.59.08-1.16.2-1.72.32a19.18,19.18,0,0,0,3.33-9.14,19.33,19.33,0,0,0,36.64-11.93l-4.85-20.26h0l-4.85-20.26a19.34,19.34,0,1,0-37.62,9l7.31,30.53a19.17,19.17,0,0,0-15.26-8.22,19.36,19.36,0,0,0,2.15-20.24,19.41,19.41,0,0,0-6.17-20.55l-32.12-26.54a19.33,19.33,0,0,0-26.36,28.19,19.06,19.06,0,0,0-5.15.66l-20.1,5.5h0l-20.1,5.5a19.38,19.38,0,0,0-13.67,14.09l-2.11-5h0l-8-19.23a19.34,19.34,0,0,0-35.7,14.91l8,19.23h0l5.15,12.32a19.36,19.36,0,0,0-12.22,17l-1,20.81h0l-1,20.81a19.28,19.28,0,0,0,24.86,19.48,19.45,19.45,0,0,0-1.53,13.07,19.1,19.1,0,0,0-8.2,9.31l-8,19.25h0l-8,19.26a19.32,19.32,0,0,0,32.09,20.46,19.19,19.19,0,0,0,6,7.79,19.4,19.4,0,0,0,27.11-3.61l12.66-16.54h0l12.67-16.55a19.09,19.09,0,0,0,3.45-7.36,19.24,19.24,0,0,0,12.89-3.3l3.31-2.28-4.59,6h0l-12.66,16.54a19.34,19.34,0,0,0,30.71,23.51l12.66-16.54h0l12.67-16.55c.16-.21.3-.44.45-.66a19.49,19.49,0,0,0,3.71,4.37l-4.51,5.89a19.34,19.34,0,0,0,30.72,23.51l25.33-33.09a19.26,19.26,0,0,0-8.23-29.71l.71-.06A19.4,19.4,0,0,0,1888.87,1483.27Zm-174.29-18.46.36-7.09a18.53,18.53,0,0,0,7.2,7l-8.86,6.11A19.31,19.31,0,0,0,1714.58,1464.81Zm130.33-17.6,3.79,27.76a19.41,19.41,0,0,0-20.08-10.64,19.12,19.12,0,0,0,5.26-4.72l10.88-14.2Q1844.79,1446.31,1844.91,1447.21Zm-44-75,4.87,4-5,3.46A19.18,19.18,0,0,0,1800.92,1372.22Zm4.2,61.33a19.25,19.25,0,0,0-3.42-8.21,19.12,19.12,0,0,0,4.16-2.15l15.24-10.51Zm12.65,36.19a19.48,19.48,0,0,0-14.58-4.4l.41-5.21a19,19,0,0,0,3.17,3.09,19.27,19.27,0,0,0,14.5,3.75A19.67,19.67,0,0,0,1817.77,1469.74Zm-39-73.2a19.38,19.38,0,0,0,.15,21.71c.08.12.18.23.26.35a18.93,18.93,0,0,0-4,2.06,19.38,19.38,0,0,0-6.63-21.28l-.06,0Zm-19.25,46.51,7.46-9.75a18.3,18.3,0,0,0-.24,1.83l-1.42,17.89a19.42,19.42,0,0,0-9.82-4.73l4-5.24Zm-34.92,81.74,2.18-5.3a19.11,19.11,0,0,0,.93-11.76c.45-.26.89-.51,1.31-.81l34.31-23.66c.22-.15.42-.32.63-.48a19.36,19.36,0,0,0,2.18,5.29l-6.11,4.21a19.28,19.28,0,0,0-7.81,11.54,19.34,19.34,0,0,0-17.27,7.45Zm91-23.84,1.07,4.47a19.34,19.34,0,0,0-5.36-1.51Zm40.85,4.52-1.49-6.23h0l-.28-1.19a19.37,19.37,0,0,0,7.9,5.8A19.59,19.59,0,0,0,1856.49,1505.47Zm-117.15-99.65-10.5,13.71h0l-12.66,16.55c-.06.07-.1.15-.16.23l.66-13.12c0-.33,0-.66,0-1,.6-.18,1.19-.39,1.78-.63a19.43,19.43,0,0,0,11.81-19.36A19.44,19.44,0,0,0,1739.34,1405.82Z"/>
      <path class="cls-17" d="M1760.22,1594.43l-56.14,0a39.73,39.73,0,0,1-39.6-39.64l.12-392.19a39.72,39.72,0,0,1,39.62-39.61l49.79,0a48.51,48.51,0,0,1,6.5,24.5l-.13,443C1760.38,1591.81,1760.33,1593.12,1760.22,1594.43Z"/>
      <path class="cls-6" d="M1903.5,1141.51l-150.74,0-85.55,0a7.71,7.71,0,0,1-7.7-7.7V1096.8a7.72,7.72,0,0,1,7.71-7.7l85.43,0h0l150.84.05a7.72,7.72,0,0,1,7.7,7.7v36.94A7.71,7.71,0,0,1,1903.5,1141.51Z"/>
      <path class="cls-18" d="M1752.76,1141.47l-85.55,0a7.71,7.71,0,0,1-7.7-7.7V1096.8a7.72,7.72,0,0,1,7.71-7.7l85.43,0h0a7.73,7.73,0,0,1,7.68,7.71v36.93A7.74,7.74,0,0,1,1752.76,1141.47Z"/>
    </g>
    <g>
      <path class="cls-18" d="M2458.71,1571a26.07,26.07,0,0,1-26,26H2310.05a26,26,0,0,1,0-52h122.68A26.05,26.05,0,0,1,2458.71,1571Z"/>
      <path class="cls-6" d="M2395.42,1571a26.05,26.05,0,0,1-26,26h-59.4a26,26,0,0,1,0-52h59.4A26,26,0,0,1,2395.42,1571Z"/>
      <rect class="cls-19" x="2314.1" y="1550.76" width="124.39" height="8.19" rx="3.68"/>
    </g>
    <g>
      <g>
        <g>
          <path class="cls-20" d="M1339.22,889.72v365.81a40.94,40.94,0,0,1-40.82,40.82H1081a40.47,40.47,0,0,1-16.38-3.46,41,41,0,0,1-24.43-37.36V889.72A40.94,40.94,0,0,1,1081,848.9H1298.4A40.93,40.93,0,0,1,1339.22,889.72Z"/>
          <path class="cls-21" d="M1242.9,986.46a44.43,44.43,0,1,1,57.22-26A44.41,44.41,0,0,1,1242.9,986.46Z"/>
          <path class="cls-22" d="M1300.12,960.49l-83.19-31.24a44.43,44.43,0,1,1,83.19,31.24Z"/>
          <path class="cls-21" d="M1092.75,979.29a44.43,44.43,0,1,1,62.52-6.32A44.44,44.44,0,0,1,1092.75,979.29Z"/>
          <path class="cls-22" d="M1155.27,973l-68.84-56.2a44.43,44.43,0,0,1,68.84,56.2Z"/>
          <path class="cls-21" d="M1242.9,1257.5a44.43,44.43,0,1,1,57.22-26A44.42,44.42,0,0,1,1242.9,1257.5Z"/>
          <path class="cls-22" d="M1300.12,1234.55l-83.19-31.24a44.43,44.43,0,1,1,83.19,31.24Z"/>
          <path class="cls-21" d="M1092.75,1250.33a44.43,44.43,0,1,1,62.52-6.32A44.44,44.44,0,0,1,1092.75,1250.33Z"/>
          <path class="cls-22" d="M1155.27,1247l-68.84-56.19a44.43,44.43,0,0,1,68.84,56.19Z"/>
          <g>
            <path class="cls-21" d="M1277.55,1125.58a44.43,44.43,0,1,1,21.12-59.18A44.42,44.42,0,0,1,1277.55,1125.58Z"/>
            <path class="cls-22" d="M1298.67,1066.4l-80.3,38.06a44.43,44.43,0,0,1,80.3-38.06Z"/>
          </g>
          <path class="cls-21" d="M1079.6,1068.92a44.43,44.43,0,1,1,24.74,57.76A44.43,44.43,0,0,1,1079.6,1068.92Z"/>
          <path class="cls-22" d="M1104.34,1126.68l33-82.5a44.43,44.43,0,1,1-33,82.5Z"/>
        </g>
        <path class="cls-23" d="M1339.22,939.78V1258.1c0,21-16.8,38.25-37.35,38.25h-199a36.28,36.28,0,0,1-15-3.24V983.85a44.45,44.45,0,0,1,13.69-32.15,43.16,43.16,0,0,1,10.51-7.44,41.88,41.88,0,0,1,18.84-4.48Z"/>
      </g>
      <g>
        <rect class="cls-20" x="1020.83" y="1016.03" width="447.44" height="299.06" rx="40.82" transform="translate(2410.12 -78.99) rotate(90)"/>
        <path class="cls-21" d="M1297.77,1079.4a44.43,44.43,0,1,1,57.22-26A44.42,44.42,0,0,1,1297.77,1079.4Z"/>
        <path class="cls-22" d="M1355,1053.43l-83.19-31.24a44.43,44.43,0,1,1,83.19,31.24Z"/>
        <path class="cls-21" d="M1147.62,1072.23a44.43,44.43,0,1,1,62.52-6.33A44.44,44.44,0,0,1,1147.62,1072.23Z"/>
        <path class="cls-22" d="M1210.14,1065.9l-68.84-56.19a44.43,44.43,0,0,1,68.84,56.19Z"/>
        <path class="cls-21" d="M1297.77,1350.44a44.43,44.43,0,1,1,57.22-26A44.42,44.42,0,0,1,1297.77,1350.44Z"/>
        <path class="cls-22" d="M1355,1327.48l-83.19-31.23a44.43,44.43,0,1,1,83.19,31.23Z"/>
        <circle class="cls-21" cx="1175.72" cy="1308.85" r="44.43" transform="translate(-499.53 1846.38) rotate(-65.86)"/>
        <path class="cls-22" d="M1210.14,1340l-68.84-56.19a44.43,44.43,0,0,1,68.84,56.19Z"/>
        <g>
          <path class="cls-21" d="M1332.42,1218.52a44.43,44.43,0,1,1,21.12-59.18A44.43,44.43,0,0,1,1332.42,1218.52Z"/>
          <path class="cls-22" d="M1353.54,1159.34l-80.3,38.06a44.43,44.43,0,0,1,80.3-38.06Z"/>
        </g>
        <path class="cls-21" d="M1134.47,1161.86a44.43,44.43,0,1,1,24.74,57.76A44.43,44.43,0,0,1,1134.47,1161.86Z"/>
        <path class="cls-22" d="M1159.21,1219.62l33-82.5a44.43,44.43,0,1,1-33,82.5Z"/>
      </g>
      <g>
        <rect class="cls-18" x="1018.94" y="1087.75" width="341.49" height="509.63"/>
        <rect class="cls-6" x="1066.51" y="1087.75" width="341.49" height="509.64"/>
        <polygon class="cls-24" points="1066.51 1117.33 1050.14 1142.78 1018.94 1142.78 1018.94 1087.75 1066.51 1087.75 1066.51 1117.33"/>
        <polygon class="cls-6" points="1037.34 1127.9 989.77 1127.9 1018.94 1087.75 1066.51 1087.75 1037.34 1127.9"/>
        <polygon class="cls-23" points="1242.64 1599.01 1066.51 1599.01 1066.51 1110.98 1242.64 1127.9 1242.64 1599.01"/>
        <polygon class="cls-18" points="1408 1127.9 1380.29 1142.78 1082.97 1142.78 1066.51 1117.33 1066.51 1087.75 1408 1127.9"/>
        <polygon class="cls-6" points="1432.12 1127.9 1090.63 1127.9 1066.51 1087.75 1408 1087.75 1432.12 1127.9"/>
      </g>
    </g>
    <g>
      <path class="cls-25" d="M682.2,956.74c-9-29-48.34-34.47-64.16-8.51a32.32,32.32,0,0,0-4.8,16.18c-.87,34,66.25,165.75,75.15,177.4C704.61,1163,802.5,1214,802.5,1214l20.8-3a153.8,153.8,0,0,1-23.93-19.55c-25.16-25.11-61.82-65.93-68.54-71.58C719.3,1110.16,699.37,1011.84,682.2,956.74Z"/>
      <g>
        <rect class="cls-20" x="767.48" y="1225.27" width="547.13" height="370.93" rx="50.27"/>
        <path class="cls-21" d="M935.69,1344.72c-10.55,28.51-41.87,42.92-70,32.22s-42.32-42.46-31.76-71,41.87-42.91,70-32.22S946.24,1316.24,935.69,1344.72Z"/>
        <path class="cls-22" d="M903.93,1273.76l-38.2,103.18c-28.09-10.69-42.32-42.46-31.76-71S875.84,1263.07,903.93,1273.76Z"/>
        <path class="cls-21" d="M926.92,1531a53.8,53.8,0,0,1-76.45,7.84,55.64,55.64,0,0,1-7.73-77.53,53.81,53.81,0,0,1,76.45-7.84A55.65,55.65,0,0,1,926.92,1531Z"/>
        <path class="cls-22" d="M919.19,1453.42l-68.72,85.37a55.64,55.64,0,0,1-7.73-77.53A53.81,53.81,0,0,1,919.19,1453.42Z"/>
        <path class="cls-21" d="M1267.12,1344.72c-10.56,28.51-41.88,42.92-70,32.22s-42.31-42.46-31.76-71,41.87-42.91,70-32.22S1277.66,1316.24,1267.12,1344.72Z"/>
        <path class="cls-22" d="M1235.36,1273.76l-38.19,103.18c-28.09-10.69-42.32-42.46-31.77-71S1207.28,1263.07,1235.36,1273.76Z"/>
        <path class="cls-21" d="M1258.34,1531a53.77,53.77,0,0,1-74,9.72c-.83-.58-1.63-1.22-2.44-1.88a55.65,55.65,0,0,1-7.72-77.54,53.8,53.8,0,0,1,76.44-7.83c.79.66,1.55,1.32,2.31,2A55.67,55.67,0,0,1,1258.34,1531Z"/>
        <path class="cls-22" d="M1252.92,1455.44l-68.59,85.23c-.83-.58-1.63-1.22-2.44-1.88a55.65,55.65,0,0,1-7.72-77.54,53.8,53.8,0,0,1,76.44-7.83C1251.4,1454.08,1252.16,1454.74,1252.92,1455.44Z"/>
        <g>
          <path class="cls-21" d="M1105.81,1301.75c12.85,27.52,1.28,60.37-25.83,73.4a54,54,0,0,1-72.37-26.2c-12.84-27.49-1.28-60.36,25.83-73.39A54,54,0,0,1,1105.81,1301.75Z"/>
          <path class="cls-22" d="M1033.44,1275.56l46.54,99.59a54,54,0,0,1-72.37-26.2C994.77,1321.46,1006.33,1288.59,1033.44,1275.56Z"/>
        </g>
        <path class="cls-21" d="M1036.52,1547.27c-27.87-11.32-41.4-43.39-30.25-71.64s42.76-42,70.63-30.69,41.4,43.39,30.25,71.64S1064.37,1558.57,1036.52,1547.27Z"/>
        <path class="cls-22" d="M1107.15,1516.58l-100.88-40.95c11.15-28.25,42.76-42,70.63-30.69S1118.3,1488.33,1107.15,1516.58Z"/>
      </g>
      <path class="cls-26" d="M710.62,790.25c.54-2.19-47.49,21.71-49.93,24.41-22.52,25-16.1,57.59-3.21,57.9,8.27.2,6.67,14,6.67,14l92.08-39S745.15,782.89,710.62,790.25Z"/>
      <path class="cls-26" d="M722,795.29s3.3-35.87-36.79-35.87c0,0,12.15,3.29,18.43,9.88,0,0-25.56-15-53.38,8.06s-10.54,80.9-19,91.88-41.4,13.18-37.38,48.68,104.56,80,98.11,109.36c0,0,39.4-57.91,11.22-84.34,0,0,13.74,12.93,15.13,28.31,0,0,3.73-30-15.37-39.62-16.9-8.5-30.75-39.57-29.29-45.12S722,795.29,722,795.29Z"/>
      <path class="cls-11" d="M609.37,1571l-19.93-2.93s-67-53.25-77-152.6a177.76,177.76,0,0,1-.48-30.72,5.36,5.36,0,0,0-.69-3.39l0,0c-2.14-3.29-7.48-11.53-14.7-23.24-7.13-11.54-19.32-33.36-32.73-57.84-24.16-44.09-52.29-96.81-61.94-113.61C371.15,1133.1,386,1097.1,386,1097.1s85.76-8.47,109.26-29l8.46,13s18.58,82.27,17.71,82.65l2.79,8.54c14.66,45.26,31.53,101.83,40.72,147.9,5.17,25.93,7.91,48.52,6.44,63.9-.51,5.28.11,13.4,1.51,23.41C581.17,1466.55,609.37,1571,609.37,1571Z"/>
      <path class="cls-12" d="M651.17,1596.19H568s-2-12.67,2.35-22.28c4.16-9.23,10.09-9.52.76-24,5.28,5.44,22.26,7.69,34.28,6.07,1.48,2.39,9.5,18.41,14.42,21.94C625.27,1581.85,649.5,1580.46,651.17,1596.19Z"/>
      <path class="cls-12" d="M524.19,1172.3c-7.27,40-24.42,106.72-60.36,127.93-24.16-44.09-52.29-96.81-61.94-113.61C371.15,1133.1,386,1097.1,386,1097.1s85.76-8.47,109.26-29l8.46,13s18.58,82.27,17.71,82.65Z"/>
      <path class="cls-11" d="M465.88,1103.29l.28-15.55c-31,3.91-106.83-37-106.83-37s-32.41,21.56-36.84,83.12c-2.17,30.05-15.87,157.13-17.39,195.08-.55,13.75-.73,23.56-.79,27.49v0a5.42,5.42,0,0,1-1.32,3.21,176.77,176.77,0,0,0-16.78,25.73c-47.28,88-22.56,207.47-22.56,207.47l11-2.79s40-123.9,66.1-177.49c4.43-9.09,8.46-16.16,11.83-20.25,9.82-11.93,20.18-32.2,30.39-56.58,19.3-46.1,38-106.93,51.4-154C435.29,1181.88,465.88,1103.29,465.88,1103.29Z"/>
      <path class="cls-4" d="M647.18,999.51c-50.65-11.62-18.29-82.79-15.36-81.54,7-1.43,22.43-13.75,36.22-37.82l1.86,1.62L701,909s-7.19,10.61-13.24,21c-4.73,8.13-8.75,16.14-8.11,18.9C682.16,950.9,660.69,1002.61,647.18,999.51Z"/>
      <path class="cls-9" d="M679.15,946.64s8.91,17.58,13.66,32.8,16.64,63.63,16.64,63.63-24.52,28-58.62,26.35c0,0-18.34-28.71-11.88-54.63S679.15,946.64,679.15,946.64Z"/>
      <path class="cls-25" d="M701,909.05s-7.2,10.59-13.24,21c-19.34-11.92-19.36-35.86-17.87-48.27Z"/>
      <path class="cls-4" d="M701.87,922.71s-47-26.13-30.24-55.13,21.93-51.89,52.62-36.43S754.33,861,751.1,872,714.51,928.76,701.87,922.71Z"/>
      <path class="cls-26" d="M759,855.12c-2.15-12.87-8.69-14.1-13.25-13.24-17.34-28.68-45.67-17.49-45.67-17.49-15.14,19-37,22.24-37,22.24S668.55,856.77,691,863c6.86,1.92,14.64.76,22.15-1.77a125.13,125.13,0,0,1-31.87,12c29.59,2.71,57.74-24.34,60.66-27.23,1.36,4.19,3.76,13,2.32,19.38-1.94,8.72-9.68,24.51-5,26.56C739.3,892,762.26,874.43,759,855.12Z"/>
      <path class="cls-12" d="M329.77,1596.19H246.63s-2-12.67,2.35-22.28c4.16-9.23,10.68-13.42,9.11-24.58,5.29,5.44,13.9,11.53,25.92,9.91,1.47,2.39,9.5,15.17,14.42,18.7C303.87,1581.85,328.09,1580.46,329.77,1596.19Z"/>
      <path class="cls-13" d="M653.14,1055.93c-10.7,3.73-25.71,5.78-41.07,7.45-21.86,2.39-44.44,4-56.26,8.73a75.19,75.19,0,0,0-15.77,8.61v0a4,4,0,0,0-.46.34,50,50,0,0,0-6.52,5.63,35.75,35.75,0,0,0-7.63,11.32c-4.34,10.71,1.41,40.41,5.09,56.65A14.75,14.75,0,0,1,523,1171q-12.48,6.45-24.51,11.9l-1.27.57c.08-1.65.11-3.29.11-4.89a151.24,151.24,0,0,0-1.41-20.52c-2,11.3-9.42,23.51-16.37,32.91-111.57,44.77-189.52,25.3-188.25,3,4.41-77.43,56.62-143.29,56.62-143.29,97.39-113.26,294.39-143.07,294.39-143.07s9.44-1.13,20.82,12.55C679.48,939.9,680.29,945,680.29,945S684.62,1045,653.14,1055.93Z"/>
      <path class="cls-9" d="M612.06,1063.38c-21.86,2.38-44.43,4-56.25,8.73C551,999.91,585.05,945.6,585.05,945.6S607.27,1036.05,612.06,1063.38Z"/>
      <path class="cls-4" d="M635,931.63s-54.79,5.41-59.18,41,52.53,180.61,60.68,193.74c14.84,23.91,102.23,105.85,102.23,105.85l16.11-9.76s-62-104.94-71.59-114.76C668.21,1132.29,653.58,944,635,931.63Z"/>
      <path class="cls-13" d="M663.1,999.64s5.62-91.79-64.64-69.6,10.91,180.09,10.91,180.09,41.23-2,55.86-38Z"/>
      <path class="cls-9" d="M530.52,1154.68A14.75,14.75,0,0,1,523,1171q-12.48,6.45-24.51,11.9c-.43-1.37-.82-2.8-1.16-4.32a75.1,75.1,0,0,1-1.41-20.52c1.86-34.28,25.2-60.24,37.17-71.39a35.75,35.75,0,0,0-7.63,11.32C521.09,1108.74,526.84,1138.44,530.52,1154.68Z"/>
      <path class="cls-9" d="M642.28,907.65s8.58-10.84,14.38-10.49c0,0,23.44,32.82,23.63,47.88C680.29,945,651.05,906.13,642.28,907.65Z"/>
      <path class="cls-25" d="M867.21,1225.26s-12.47.22-15.16-.16-6.17-1.53-9.72-1.66-6.7,1-10,1.68a7.35,7.35,0,0,1-1.48.14H810.19s-2.07-1-4.34-4.64c-1-1.58-1.11-5.35-3.35-6.59-12.52-7,20.8-3,20.8-3s20.92-.38,22.86,1.06C849.59,1214.65,868,1224.27,867.21,1225.26Z"/>
      <path class="cls-25" d="M810.19,1225.27s12.7,3.66,16.15,6l3.64,2.3s2.11-2.35-1.21-5c-1.75-1.37-6.59-5.4-6.75-10S807.54,1218,810.19,1225.27Z"/>
      <path class="cls-4" d="M754.86,1262.47s9.07,8.06,16,9.76,14.74,21.46,16,24.28-6.58-1.26-9.72-6.06-5.28-6.69-6.19-5.65.55,14.22,5.77,21.54,8.37,13.79,4.6,13.38-26.13-5.86-30.73-19.45-1.23-14.06-11.8-28S754.86,1262.47,754.86,1262.47Z"/>
    </g>
    <g>
      <g>
        <path class="cls-11" d="M1755.54,1567a28.71,28.71,0,0,1-28.61,28.61H1591.81a28.61,28.61,0,0,1,0-57.22h135.12A28.7,28.7,0,0,1,1755.54,1567Z"/>
        <path class="cls-27" d="M1685.84,1567a28.7,28.7,0,0,1-28.61,28.61h-65.42a28.61,28.61,0,0,1,0-57.22h65.42A28.69,28.69,0,0,1,1685.84,1567Z"/>
        <rect class="cls-28" x="1596.28" y="1544.75" width="136.99" height="9.02" rx="4.05"/>
      </g>
      <g>
        <path class="cls-18" d="M1640.24,1486a30.43,30.43,0,0,1-13.53,40.71l-128.06,64.18a30.33,30.33,0,0,1-27.18-54.24l128.07-64.17A30.41,30.41,0,0,1,1640.24,1486Z"/>
        <path class="cls-6" d="M1574.18,1519.07a30.44,30.44,0,0,1-13.52,40.71l-62,31.08a30.33,30.33,0,0,1-27.18-54.24l62-31.07A30.42,30.42,0,0,1,1574.18,1519.07Z"/>
        <path class="cls-19" d="M1609,1485.93l-122.15,61.21a4.31,4.31,0,0,1-5.77-1.92l-.43-.86a4.31,4.31,0,0,1,1.91-5.77l122.16-61.22a4.32,4.32,0,0,1,5.77,1.92l.43.87A4.31,4.31,0,0,1,1609,1485.93Z"/>
      </g>
    </g>
    <rect class="cls-29" y="1595.07" width="2845.07" height="7.13" rx="3.13"/>
  </g>
</svg>
