<svg xmlns="http://www.w3.org/2000/svg" width="142" height="142" viewBox="0 0 142 142">
  <g id="Grupo_75119" data-name="Grupo 75119" transform="translate(4314 12455)">
    <rect id="Rectángulo_32797" data-name="Rectángulo 32797" width="142" height="142" transform="translate(-4314 -12455)" fill="none"/>
    <g id="Grupo_75116" data-name="Grupo 75116" transform="translate(-8 -189.727)">
      <path id="Trazado_146197" data-name="Trazado 146197" d="M20.9,14.186a5.193,5.193,0,0,1-.8,2.622,4.833,4.833,0,0,1-2.056,1.763,7,7,0,0,1-3.022.625,5.584,5.584,0,0,1-4.414-1.826A7.54,7.54,0,0,1,9,12.213v-.7a8.607,8.607,0,0,1,.728-3.657A5.513,5.513,0,0,1,11.82,5.431a5.844,5.844,0,0,1,3.164-.854,6.129,6.129,0,0,1,4.16,1.362,5.383,5.383,0,0,1,1.787,3.755H17.514a2.547,2.547,0,0,0-.654-1.865,2.691,2.691,0,0,0-1.875-.566,2.048,2.048,0,0,0-1.875.957,6.151,6.151,0,0,0-.625,3.057v1.006a6.806,6.806,0,0,0,.571,3.252,2.091,2.091,0,0,0,1.968.977,2.632,2.632,0,0,0,1.807-.557,2.363,2.363,0,0,0,.664-1.768ZM28.324,19a3.716,3.716,0,0,1-.312-.947A3.06,3.06,0,0,1,25.473,19.2a3.749,3.749,0,0,1-2.539-.9,2.875,2.875,0,0,1-1.045-2.271,2.955,2.955,0,0,1,1.27-2.6,6.468,6.468,0,0,1,3.691-.879h1.016v-.559q0-1.462-1.26-1.462a1.03,1.03,0,0,0-1.172,1.158H22.143a2.95,2.95,0,0,1,1.3-2.487,5.479,5.479,0,0,1,3.325-.956,4.8,4.8,0,0,1,3.193.986,3.429,3.429,0,0,1,1.2,2.705v4.678a4.79,4.79,0,0,0,.449,2.227V19Zm-2.061-2.148a1.836,1.836,0,0,0,1.021-.264,1.653,1.653,0,0,0,.581-.6V14.3h-.957q-1.719,0-1.719,1.543a.942.942,0,0,0,.3.728A1.1,1.1,0,0,0,26.264,16.852ZM36.459,19h-3.3V4h3.3Zm5.5,0h-3.3V8.434h3.3Zm-3.5-13.3a1.482,1.482,0,0,1,.508-1.159,2.149,2.149,0,0,1,2.637,0A1.482,1.482,0,0,1,42.113,5.7a1.482,1.482,0,0,1-.508,1.159,2.149,2.149,0,0,1-2.637,0A1.482,1.482,0,0,1,38.461,5.7Zm5.107,7.939a6.455,6.455,0,0,1,1.084-3.955A3.568,3.568,0,0,1,47.68,8.238a3.035,3.035,0,0,1,2.383,1.113V4h3.3V19H50.4l-.166-1.133A3.116,3.116,0,0,1,47.66,19.2a3.562,3.562,0,0,1-2.988-1.445A6.659,6.659,0,0,1,43.568,13.639Zm3.291.205q0,2.813,1.641,2.813a1.62,1.62,0,0,0,1.563-.918V11.715a1.576,1.576,0,0,0-1.543-.937q-1.523,0-1.65,2.461ZM61.186,19a3.716,3.716,0,0,1-.312-.947A3.06,3.06,0,0,1,58.334,19.2a3.749,3.749,0,0,1-2.539-.9,2.875,2.875,0,0,1-1.045-2.271,2.955,2.955,0,0,1,1.27-2.6,6.468,6.468,0,0,1,3.691-.879h1.016v-.559q0-1.462-1.26-1.462a1.03,1.03,0,0,0-1.172,1.158H55a2.95,2.95,0,0,1,1.3-2.487,5.479,5.479,0,0,1,3.325-.956,4.8,4.8,0,0,1,3.193.986,3.429,3.429,0,0,1,1.2,2.705v4.678a4.79,4.79,0,0,0,.449,2.227V19Zm-2.061-2.148a1.836,1.836,0,0,0,1.021-.264,1.653,1.653,0,0,0,.581-.6V14.3H59.77q-1.719,0-1.719,1.543a.942.942,0,0,0,.3.728A1.1,1.1,0,0,0,59.125,16.852Zm6.309-3.213a6.455,6.455,0,0,1,1.084-3.955,3.568,3.568,0,0,1,3.027-1.445,3.035,3.035,0,0,1,2.383,1.113V4h3.3V19H72.27L72.1,17.867A3.116,3.116,0,0,1,69.525,19.2a3.562,3.562,0,0,1-2.988-1.445A6.659,6.659,0,0,1,65.434,13.639Zm3.291.205q0,2.813,1.641,2.813a1.62,1.62,0,0,0,1.563-.918V11.715a1.576,1.576,0,0,0-1.543-.937q-1.523,0-1.65,2.461Z" transform="translate(-4277 -12153.273)" fill="#12263f"/>
      <circle id="Elipse_4737" data-name="Elipse 4737" cx="42.5" cy="42.5" r="42.5" transform="translate(-4277 -12254.273)" fill="#00bcd4"/>
      <g id="Grupo_75113" data-name="Grupo 75113" transform="translate(-5747.957 -12269.146)">
        <path id="Trazado_145302" data-name="Trazado 145302" d="M1515.049,25.353c.257.047.52.078.771.145a2.375,2.375,0,0,1,1.677,1.464,5.723,5.723,0,0,0,.908,2.03c.5.462,1.394.468,2.079.759,1.155.491,2.277,1.064,3.427,1.569a1.167,1.167,0,0,0,.769.047c.576-.192,1.124-.465,1.687-.7a2.29,2.29,0,0,1,2.609.406q1.4,1.311,2.711,2.715a2.272,2.272,0,0,1,.428,2.552,6.01,6.01,0,0,0-.788,2.079c.023.68.64,1.324.922,2.014.444,1.087.858,2.19,1.22,3.307a1.155,1.155,0,0,0,.822.919,11.989,11.989,0,0,1,1.528.6,2.2,2.2,0,0,1,1.464,1.939c.064,1.4.066,2.8,0,4.2a2.179,2.179,0,0,1-1.475,1.927,6.081,6.081,0,0,0-2.073.948c-.462.495-.455,1.4-.745,2.09-.48,1.138-1.048,2.24-1.544,3.371a1.182,1.182,0,0,0-.046.777c.192.576.468,1.123.7,1.687a2.3,2.3,0,0,1-.419,2.608c-.8.862-1.627,1.7-2.487,2.507a.673.673,0,0,0-.206.92q2.485,5.625,4.928,11.267a3.261,3.261,0,0,1-.809,3.983,3.551,3.551,0,0,1-2.388.753c-1.26,0-2.521-.026-3.78.013a1.525,1.525,0,0,0-.9.369c-.708.639-1.365,1.337-2.042,2.01-1.943,1.931-4.434,1.481-5.581-1.023-1.538-3.358-3.057-6.725-4.585-10.088-.1-.217-.2-.43-.359-.752-.149.3-.259.5-.355.71-1.56,3.437-3.111,6.879-4.68,10.312a3.157,3.157,0,0,1-3.9,1.874,4.25,4.25,0,0,1-1.431-.879c-.774-.687-1.46-1.473-2.224-2.171a1.515,1.515,0,0,0-.9-.373c-1.279-.039-2.561,0-3.841-.014a3.226,3.226,0,0,1-3.1-4.783c1.625-3.741,3.244-7.485,4.889-11.218a.671.671,0,0,0-.211-.917c-.86-.8-1.687-1.645-2.489-2.507a2.268,2.268,0,0,1-.421-2.551,5.952,5.952,0,0,0,.792-2.077c-.023-.679-.647-1.321-.927-2.012-.471-1.164-.865-2.359-1.324-3.528a1.179,1.179,0,0,0-.5-.587c-.524-.263-1.088-.445-1.633-.667a2.276,2.276,0,0,1-1.587-2.048c-.062-1.357-.067-2.722,0-4.078a2.055,2.055,0,0,1,1.549-1.989,3.438,3.438,0,0,0,2.728-2.862,21.744,21.744,0,0,1,1.547-3.493,1.369,1.369,0,0,0,.06-.884c-.189-.6-.486-1.159-.716-1.744a2.168,2.168,0,0,1,.377-2.394q1.382-1.5,2.882-2.886a2.188,2.188,0,0,1,2.4-.373c.606.232,1.186.536,1.8.746a1.05,1.05,0,0,0,.767-.048,22.483,22.483,0,0,1,5.1-2.115,1.156,1.156,0,0,0,.6-.564,13.442,13.442,0,0,0,.6-1.463,2.441,2.441,0,0,1,2.265-1.742,1.318,1.318,0,0,0,.288-.085Zm15.19,37.855c-.074-.19-.122-.323-.177-.453a22.954,22.954,0,0,1-.9-2.194,1.637,1.637,0,0,1,.084-1.192,19.9,19.9,0,0,0,2.468-6,1.272,1.272,0,0,1,.881-.99c.724-.264,1.429-.58,2.151-.849a.687.687,0,0,0,.532-.711q-.013-1.524,0-3.048a.679.679,0,0,0-.532-.708c-.7-.258-1.388-.573-2.094-.826a1.365,1.365,0,0,1-.955-1.075,18.146,18.146,0,0,0-2.442-5.874,1.285,1.285,0,0,1-.1-1.324c.329-.719.651-1.445.919-2.188a.882.882,0,0,0-.089-.748q-1.067-1.169-2.236-2.241a.87.87,0,0,0-.742-.107c-.762.275-1.5.613-2.245.942a1.25,1.25,0,0,1-1.268-.1,17.883,17.883,0,0,0-5.93-2.457,1.333,1.333,0,0,1-1.043-.914c-.274-.743-.556-1.483-.887-2.2a.807.807,0,0,0-.557-.422c-1.073-.041-2.151-.045-3.224,0a.875.875,0,0,0-.586.464c-.335.716-.611,1.459-.894,2.2a1.258,1.258,0,0,1-.952.85,18.215,18.215,0,0,0-5.986,2.482,1.283,1.283,0,0,1-1.325.074c-.719-.329-1.443-.654-2.187-.921a.871.871,0,0,0-.74.113c-.764.7-1.5,1.427-2.2,2.192a.933.933,0,0,0-.129.791c.267.765.671,1.483.911,2.255a1.631,1.631,0,0,1-.081,1.193,21.839,21.839,0,0,0-2.519,6.047,1.644,1.644,0,0,1-.784.9,17.94,17.94,0,0,1-2.195.9.679.679,0,0,0-.54.7c.009,1.016.007,2.032,0,3.048a.676.676,0,0,0,.535.705c.706.254,1.39.567,2.094.827a1.374,1.374,0,0,1,.955,1.077,17.89,17.89,0,0,0,2.437,5.875,1.328,1.328,0,0,1,.081,1.381c-.316.681-.572,1.39-.9,2.067a.708.708,0,0,0,.15.924c.711.7,1.419,1.4,2.113,2.109a.663.663,0,0,0,.864.143c.7-.326,1.418-.6,2.121-.921a1.349,1.349,0,0,1,1.382.1,18.167,18.167,0,0,0,5.875,2.438,1.339,1.339,0,0,1,1.039.913c.282.74.557,1.484.9,2.2a.869.869,0,0,0,.614.43c1.014.046,2.031.009,3.046.029a.694.694,0,0,0,.749-.554c.253-.706.56-1.393.826-2.1a1.341,1.341,0,0,1,1.036-.917,18.318,18.318,0,0,0,5.93-2.463,1.259,1.259,0,0,1,1.27-.1c.744.326,1.483.665,2.246.939a.864.864,0,0,0,.736-.114c.764-.7,1.483-1.444,2.209-2.183A2.589,2.589,0,0,0,1530.239,63.208Zm-18.368,9.974a2.608,2.608,0,0,1-2.611-1.943,7.778,7.778,0,0,0-.53-1.294,1.33,1.33,0,0,0-.616-.553,27.385,27.385,0,0,1-3.781-1.488,2.993,2.993,0,0,0-3.55-.065,1.987,1.987,0,0,0-.719.727c-1.714,3.88-3.4,7.773-5.089,11.664-.519,1.2-.063,1.9,1.24,1.913s2.6.012,3.9,0a2.817,2.817,0,0,1,2.177.908c.675.7,1.379,1.381,2.071,2.069.943.938,1.711.807,2.257-.389q1.442-3.157,2.874-6.318C1510.277,76.691,1511.057,74.975,1511.871,73.181Zm3.24,0a1.791,1.791,0,0,0,.061.239q2.617,5.765,5.241,11.526a1.124,1.124,0,0,0,1.975.34c.76-.733,1.515-1.475,2.245-2.239a2.882,2.882,0,0,1,2.233-.922c1.26.015,2.52.009,3.78,0,1.394-.01,1.832-.686,1.279-1.959-1.487-3.425-3.049-6.819-4.425-10.287a3.848,3.848,0,0,0-2.808-2.662,1.325,1.325,0,0,0-.775.056,30.813,30.813,0,0,1-3.953,1.706,2.825,2.825,0,0,0-2.288,2.2A2.528,2.528,0,0,1,1515.112,73.182Z" transform="translate(0)" fill="#fff"/>
        <path id="Trazado_145303" data-name="Trazado 145303" d="M1504.407,56.954a16.655,16.655,0,1,1,16.605,16.682A16.646,16.646,0,0,1,1504.407,56.954Zm2.094.034a14.563,14.563,0,1,0,14.559-14.575A14.58,14.58,0,0,0,1506.5,56.988Z" transform="translate(-7.601 -7.678)" fill="#fff"/>
        <path id="Trazado_145304" data-name="Trazado 145304" d="M1524.595,68.674c2.677-2.682,5.325-5.321,7.957-7.978a3.144,3.144,0,0,1,3.033-1.012,3.11,3.11,0,0,1,1.64,5.166c-.7.764-1.457,1.474-2.19,2.207q-3.987,3.989-7.977,7.976a3.19,3.19,0,0,1-4.965.005c-.561-.56-1.124-1.118-1.681-1.682a3.105,3.105,0,0,1-.356-4.289,3.158,3.158,0,0,1,4.283-.553Zm-2.119,1.166a4.2,4.2,0,0,0-.89.752.913.913,0,0,0,.181,1.172c.594.612,1.2,1.21,1.807,1.812.761.758,1.233.756,2-.015q4.914-4.91,9.825-9.824a3.234,3.234,0,0,0,.405-.452,1,1,0,0,0-.142-1.329,1.022,1.022,0,0,0-1.338-.062,4.115,4.115,0,0,0-.4.376l-8.275,8.272c-.887.887-1.273.877-2.181.01A8.969,8.969,0,0,0,1522.476,69.841Z" transform="translate(-15.265 -17.563)" fill="#fff"/>
      </g>
    </g>
  </g>
</svg>
