<?xml version="1.0" encoding="utf-8"?>
<!-- Generator: Adobe Illustrator 25.3.1, SVG Export Plug-In . SVG Version: 6.00 Build 0)  -->
<svg version="1.1" id="Layer_1" xmlns="http://www.w3.org/2000/svg" xmlns:xlink="http://www.w3.org/1999/xlink" x="0px" y="0px"
	 viewBox="0 0 338.5 323.8" style="enable-background:new 0 0 338.5 323.8;" xml:space="preserve">
<style type="text/css">
	.st0{fill:#E4DDFA;}
	.st1{fill:#969595;}
	.st2{fill:#E8E8E8;}
	.st3{fill:#AFAFAF;}
	.st4{fill:#BCE4ED;}
	.st5{fill:#FFFFFF;}
	.st6{fill:#00BCD4;}
	.st7{fill:#F7B0B0;}
	.st8{fill:#81D4FA;}
	.st9{fill:#FF9D00;}
	.st10{fill:#773128;}
	.st11{fill:#F9AA8F;}
	.st12{fill:#CC6148;}
	.st13{fill:#A54D3C;}
	.st14{fill:#7E5EE3;}
	.st15{fill:#81F2EF;}
	.st16{fill:#939AA0;}
	.st17{fill:#6A8F9B;}
	.st18{fill:#1E5259;}
	.st19{fill:#FF7769;}
	.st20{fill:#DD4231;}
</style>
<g>
	<path id="Trazado_117784" class="st0" d="M158.1,0c87.3,0,158.1,72.5,158.1,161.9s-70.8,161.9-158.1,161.9S0,251.3,0,161.9
		S70.8,0,158.1,0z"/>
	<g id="Enmascarar_grupo_128" transform="translate(1020 1718.758)">
		<g id="Grupo_74418" transform="translate(27.822 5.155)">
			<g id="computer" transform="translate(31.064 136.117)">
				<rect id="Rectángulo_32514" x="-932.4" y="-1578" class="st1" width="40.4" height="18.1"/>
				<g id="Grupo_74387" transform="translate(0 0)">
					<path id="Trazado_117785" class="st2" d="M-1010.1-1699.8h195.8c3.2-0.1,5.8,2.5,5.8,5.6v111.8c-0.1,3.2-2.7,5.7-5.8,5.6
						h-195.8c-3.2,0.1-5.8-2.5-5.8-5.6v-111.8C-1015.8-1697.3-1013.2-1699.9-1010.1-1699.8z"/>
					<path id="Trazado_117786" class="st3" d="M-1008-1571.6h191.8c7.2,0.1,13.1-5.6,13.2-12.8v-107.9c-0.1-7.2-6.1-12.9-13.2-12.8
						H-1008c-7.2-0.1-13.1,5.6-13.2,12.8v107.9C-1021.1-1577.1-1015.2-1571.4-1008-1571.6z M-816.3-1694.6c1.3,0,2.4,1,2.5,2.4
						v107.9c0,1.3-1.1,2.4-2.5,2.4H-1008c-1.3,0-2.4-1-2.5-2.4v-107.9c0-1.3,1.1-2.4,2.5-2.4H-816.3z"/>
				</g>
				<g id="Grupo_74388" transform="translate(62.254 142.602)">
					<path id="Trazado_117787" class="st4" d="M-932.5-1699.8L-932.5-1699.8z"/>
					<path id="Trazado_117788" class="st1" d="M-1015.9-1694.6h83.4c2.9,0.2,5.3-2,5.5-4.9c0.2-2.9-2-5.3-4.9-5.5
						c-0.2,0-0.4,0-0.6,0h-83.4c-2.9-0.2-5.3,2-5.5,4.9c-0.2,2.9,2,5.3,4.9,5.5C-1016.3-1694.6-1016.1-1694.6-1015.9-1694.6z"/>
				</g>
			</g>
			<g id="window_4" transform="translate(0 46.785)">
				<path id="Rectángulo_32515" class="st5" d="M-1015.1-1703.7h140.9c2.7,0,4.8,2.2,4.8,4.8v131.9c0,2.7-2.2,4.8-4.8,4.8h-140.9
					c-2.7,0-4.8-2.2-4.8-4.8v-131.9C-1019.9-1701.5-1017.8-1703.7-1015.1-1703.7z"/>
				<g id="Grupo_74389" transform="translate(14.57 31.148)">
					<path id="Trazado_117789" class="st6" d="M-1019.5-1703.3l126.4,0.1v96l-126.4-0.4V-1703.3z"/>
					<path id="Trazado_117790" class="st6" d="M-893.1-1605.4c0.5,0,0.9-0.2,1.3-0.5c0.3-0.3,0.5-0.8,0.5-1.2v-96
						c0-1-0.8-1.7-1.8-1.7l-126.4-0.1l0,0c-0.5,0-0.9,0.2-1.3,0.5c-0.3,0.3-0.5,0.8-0.5,1.2v95.7c0,1,0.8,1.7,1.8,1.7L-893.1-1605.4
						L-893.1-1605.4z M-894.9-1701.4v92.5l-122.8-0.4v-92.3L-894.9-1701.4z"/>
				</g>
				<g id="Grupo_74390" transform="translate(17.24 14.291)">
					<path id="Trazado_117791" class="st7" d="M-883.9-1701.7c-0.1,1.9,1.4,3.5,3.3,3.6c1.9,0.1,3.5-1.4,3.6-3.3s-1.4-3.5-3.3-3.6
						c0,0-0.1,0-0.1,0C-882.3-1705-883.9-1703.5-883.9-1701.7z"/>
					<path id="Trazado_117792" class="st7" d="M-906.8-1701.7c-0.1,1.9,1.4,3.5,3.3,3.6c1.9,0.1,3.5-1.4,3.6-3.3s-1.4-3.5-3.3-3.6
						c0,0-0.1,0-0.1,0C-905.2-1705-906.8-1703.5-906.8-1701.7z"/>
					<path id="Trazado_117793" class="st7" d="M-929.7-1701.7c-0.1,1.9,1.4,3.5,3.3,3.6c1.9,0.1,3.5-1.4,3.6-3.3s-1.4-3.5-3.3-3.6
						c0,0-0.1,0-0.1,0C-928.1-1705-929.7-1703.5-929.7-1701.7z"/>
					<path id="Trazado_117794" class="st7" d="M-952.6-1701.7c-0.1,1.9,1.4,3.5,3.3,3.6c1.9,0.1,3.5-1.4,3.6-3.3s-1.4-3.5-3.3-3.6
						c0,0-0.1,0-0.1,0C-951-1705-952.6-1703.5-952.6-1701.7z"/>
					<path id="Trazado_117795" class="st7" d="M-975.5-1701.7c-0.1,1.9,1.4,3.5,3.3,3.6c1.9,0.1,3.5-1.4,3.6-3.3s-1.4-3.5-3.3-3.6
						c0,0-0.1,0-0.1,0C-973.9-1705-975.5-1703.5-975.5-1701.7z"/>
					<path id="Trazado_117796" class="st7" d="M-998.4-1701.7c-0.1,1.9,1.4,3.5,3.3,3.6c1.9,0.1,3.5-1.4,3.6-3.3s-1.4-3.5-3.3-3.6
						c0,0-0.1,0-0.1,0C-996.8-1705-998.3-1703.5-998.4-1701.7z"/>
					<path id="Trazado_117797" class="st7" d="M-1021.3-1701.7c-0.1,1.9,1.4,3.5,3.3,3.6c1.9,0.1,3.5-1.4,3.6-3.3s-1.4-3.5-3.3-3.6
						c0,0-0.1,0-0.1,0C-1019.7-1705-1021.2-1703.5-1021.3-1701.7z"/>
				</g>
				<g id="Grupo_74393" transform="translate(22.835 39.188)">
					<g id="Grupo_74391" transform="translate(0)">
						<rect id="Rectángulo_32516" x="-1019.9" y="-1703.7" class="st5" width="16" height="80.6"/>
						<path id="Trazado_117798" class="st5" d="M-1019.9-1621.8h16c0.7,0,1.3-0.6,1.3-1.3c0,0,0,0,0,0v-80.6c0-0.7-0.6-1.3-1.3-1.3
							c0,0,0,0,0,0h-16c-0.7,0-1.3,0.6-1.3,1.3c0,0,0,0,0,0v80.6C-1021.3-1622.4-1020.7-1621.8-1019.9-1621.8z M-1005.3-1624.4
							h-13.3v-78h13.3L-1005.3-1624.4z"/>
					</g>
					<g id="Grupo_74392" transform="translate(0 24.676)">
						<rect id="Rectángulo_32517" x="-1019.9" y="-1703.7" class="st8" width="16" height="55.9"/>
						<path id="Trazado_117799" class="st8" d="M-1019.9-1646.5h16c0.7,0,1.3-0.6,1.3-1.3c0,0,0,0,0,0v-55.9c0-0.7-0.6-1.3-1.3-1.3
							h-16c-0.7,0-1.3,0.6-1.3,1.3v55.9C-1021.3-1647-1020.7-1646.5-1019.9-1646.5z M-1005.3-1649.1h-13.3v-53.3h13.3
							L-1005.3-1649.1z"/>
					</g>
				</g>
				<g id="Grupo_74396" transform="translate(52.119 39.188)">
					<g id="Grupo_74394" transform="translate(0)">
						<rect id="Rectángulo_32518" x="-1019.9" y="-1703.7" class="st5" width="16" height="80.6"/>
						<path id="Trazado_117800" class="st5" d="M-1019.9-1621.8h16c0.7,0,1.3-0.6,1.3-1.3c0,0,0,0,0,0v-80.6c0-0.7-0.6-1.3-1.3-1.3
							c0,0,0,0,0,0h-16c-0.7,0-1.3,0.6-1.3,1.3c0,0,0,0,0,0v80.6C-1021.3-1622.4-1020.7-1621.8-1019.9-1621.8
							C-1019.9-1621.8-1019.9-1621.8-1019.9-1621.8z M-1005.3-1624.4h-13.3v-78h13.3V-1624.4z"/>
					</g>
					<g id="Grupo_74395" transform="translate(0 16.271)">
						<rect id="Rectángulo_32519" x="-1019.9" y="-1703.7" class="st8" width="16" height="64.3"/>
						<path id="Trazado_117801" class="st8" d="M-1019.9-1638.1h16c0.7,0,1.3-0.6,1.3-1.3c0,0,0,0,0,0v-64.3c0-0.7-0.6-1.3-1.3-1.3
							h-16c-0.7,0-1.3,0.6-1.3,1.3c0,0,0,0,0,0v64.3C-1021.3-1638.6-1020.7-1638.1-1019.9-1638.1
							C-1019.9-1638.1-1019.9-1638.1-1019.9-1638.1z M-1005.3-1640.7h-13.3v-61.7h13.3V-1640.7z"/>
					</g>
				</g>
				<g id="Grupo_74399" transform="translate(81.4 39.188)">
					<g id="Grupo_74397" transform="translate(0)">
						<rect id="Rectángulo_32520" x="-1019.9" y="-1703.7" class="st5" width="16" height="80.6"/>
						<path id="Trazado_117802" class="st5" d="M-1019.9-1621.8h16c0.7,0,1.3-0.6,1.3-1.3c0,0,0,0,0,0v-80.6c0-0.7-0.6-1.3-1.3-1.3
							c0,0,0,0,0,0h-16c-0.7,0-1.3,0.6-1.3,1.3c0,0,0,0,0,0v80.6C-1021.3-1622.4-1020.7-1621.8-1019.9-1621.8z M-1005.3-1624.4
							h-13.3v-78h13.3V-1624.4z"/>
					</g>
					<g id="Grupo_74398" transform="translate(0 9.21)">
						<rect id="Rectángulo_32521" x="-1019.9" y="-1703.7" class="st8" width="16" height="71.4"/>
						<path id="Trazado_117803" class="st8" d="M-1019.9-1631h16c0.7,0,1.3-0.6,1.3-1.3c0,0,0,0,0,0v-71.4c0-0.7-0.6-1.3-1.3-1.3
							c0,0,0,0,0,0h-16c-0.7,0-1.3,0.6-1.3,1.3c0,0,0,0,0,0v71.4C-1021.3-1631.6-1020.7-1631-1019.9-1631
							C-1019.9-1631-1019.9-1631-1019.9-1631z M-1005.3-1633.6h-13.3v-68.8h13.3V-1633.6z"/>
					</g>
				</g>
				<g id="Grupo_74400" transform="translate(0 109.702)">
					<path id="Trazado_117804" class="st9" d="M-1012.1-1670.5h4.5c0.7,0,1.3-0.6,1.3-1.3c0-0.7-0.6-1.3-1.3-1.3h-4.5
						c-3.5,0.1-6.4-2.8-6.5-6.3v-24.3c0-0.7-0.7-1.3-1.4-1.3c-0.7,0-1.3,0.6-1.3,1.3v24.3
						C-1021.2-1674.4-1017.1-1670.5-1012.1-1670.5z"/>
				</g>
				<g id="Grupo_74401" transform="translate(0)">
					<path id="Trazado_117805" class="st9" d="M-903.1-1560.8h25.8c5,0.1,9.1-3.9,9.2-8.9v-126.4c-0.1-5-4.2-9-9.2-8.9h-134.8
						c-5-0.1-9.1,3.9-9.2,8.9v90.8c0,0.7,0.7,1.3,1.4,1.3c0.7,0,1.3-0.6,1.3-1.3v-90.8c0.1-3.5,3-6.3,6.5-6.3h134.8
						c3.5-0.1,6.4,2.8,6.5,6.3v126.4c-0.1,3.5-3,6.3-6.5,6.3h-25.8c-0.7,0-1.3,0.6-1.3,1.3S-903.8-1560.8-903.1-1560.8
						L-903.1-1560.8z"/>
				</g>
			</g>
			<g id="doctor" transform="translate(82.746 14.877)">
				<path id="Trazado_117806" class="st10" d="M-1007.9-1644.6c0,0-0.9,18.5,1.2,26c2,7.5,11.2,11.5,11.2,11.5s-5.8,5.6-2.8,19.2
					c3.5,16.1,13.1,26.5,24.7,25.8c4.6-0.3,78.2-8.2,84.8-30c5.1-16.9-3.1-19.9-3.1-19.9s11.4-13.5,5.1-31.4
					c-14.5-41.7-82.5-22-82.5-22l-32.7,6.3L-1007.9-1644.6z"/>
				<path id="Trazado_117807" class="st11" d="M-983.9-1667.5v6.2c0,0,6.4,29.6,8,36.2c1.6,6.6,4.6,12.4,13.6,16.1
					c3.5,1.2,7.1,1.8,10.8,1.7c0.3,2.9,0.6,6.5,0.6,6.5l-18.8,8.9c0,0,15.7,24.9,18.7,24.9s31.6-27.9,31.6-27.9l-15.9-7.9l-0.6-8.2
					c2.2-1.2,4.1-2.7,5.7-4.6c1.7-2,3-4.3,3.9-6.8v0c1.3-3.3,1.8-6.9,1.5-10.4c0-0.3-0.1-0.8-0.2-1.4c2,0.6,4.1,0.3,5.9-0.8
					c4.6-2.4,7.1-9.8,2.5-14.8c-2.5-2.8-8.1-3.1-11.2-0.6c-1.6-10.7-3-22.4-3.5-22.8c-0.9-0.7-40.5-4.4-40.5-4.4L-983.9-1667.5z"/>
				<path id="Trazado_117808" class="st12" d="M-936-1611c-3,1.3-6.2,2.2-9.4,2.7c-2.1,0.2-4.1,0.5-6.2,1l0.6,6.5l-15.1,4.9
					l-2.9,3.6l21.6-5.6l-0.4-7c2.4-0.8,4.7-1.7,6.9-2.7C-939.1-1608.4-937.4-1609.6-936-1611z"/>
				<path id="Trazado_117809" class="st10" d="M-954.2-1649.7c0,0-0.6-2.4,0-3.5c0.5-1.1,4-1.1,7.5,0c2.1,0.6,4,1.9,5.4,3.5
					c-2.6-0.5-5.1-0.8-7.7-1C-950.8-1650.7-952.6-1650.3-954.2-1649.7z"/>
				<path id="Trazado_117810" class="st10" d="M-979.7-1642.4c0.1-1.5,0.5-3,1.3-4.3c1.2-1.7,5.2-3.6,6.7-3.6s4.1,2.2,4.1,2.2
					c-2.1,0.4-4.1,0.9-6.1,1.6C-975.9-1645.4-977.9-1644-979.7-1642.4z"/>
				<path id="Trazado_117811" class="st10" d="M-945.3-1640.5c0.4,1.8-0.2,3.4-1.3,3.6c-1.1,0.2-2.3-1.1-2.7-2.8
					c-0.4-1.8,0.2-3.4,1.3-3.6S-945.7-1642.3-945.3-1640.5z"/>
				<path id="Trazado_117812" class="st10" d="M-968.5-1636.8c0.4,1.8-0.2,3.4-1.3,3.6c-1.1,0.2-2.3-1.1-2.7-2.8
					c-0.4-1.8,0.2-3.4,1.3-3.6C-970.1-1639.9-968.9-1638.6-968.5-1636.8z"/>
				<path id="Trazado_117813" class="st5" d="M-947.7-1621.9l-8.9,2.3c0,0,4.2,4.2,6.5,3.1C-947.7-1617.7-947.7-1621.9-947.7-1621.9
					z"/>
				<path id="Trazado_117814" class="st13" d="M-952.1-1674.4c0,0-5.4,12-13,15.5c-7.6,3.5-9.7,2.6-9.7,2.6s-0.8,4.6-10.4,11.5
					c-6,4.3-13.4,5.7-19.7,5.4c-9-0.3-19.2-6.8-15.6-26.4c3.7-19.6,10.5-21.7,16.5-23.9c4.4-1.4,9-2.3,13.7-2.5
					c0,0,6.6-12.8,19.8-13s18,9.2,18,9.2s3.9-7.6,16.5-3.8c12.7,3.8,11.8,15,11.8,15s9.2-3.9,20.9,6.8
					c11.8,10.8,20.9,34.2,18.4,49.3c-2.8,17.1-12.2,22.6-23.7,23.7c-21.2,2-16.8-26.7-17.9-35.3c-1.2-8.6-1.7-10-1.7-10
					s-5.9,4-15.2-7.9C-947.3-1662.8-950.3-1668.4-952.1-1674.4z"/>
				<path id="Trazado_117815" class="st11" d="M-930.6-1647.6l4.2,25.2c1.3-3.3,1.8-6.9,1.5-10.4c0-0.3-0.1-0.8-0.2-1.4
					c2,0.6,4.1,0.3,5.9-0.8c4.6-2.4,7.1-9.8,2.5-14.8c-2.5-2.8-8.1-3.1-11.2-0.6L-930.6-1647.6z"/>
				<path id="Trazado_117816" class="st12" d="M-959.8-1625.2c0.5,0,1,0,1.5-0.1c0.5-0.1,0.8-0.5,0.8-1c0,0,0,0,0,0
					c-0.1-0.5-0.5-0.8-1-0.7c-0.1,0-5.1,0.6-5.6-1.7c-0.4-2.1-0.3-6.8,0.4-13c0.5-4.7-4.3-6.9-4.5-7c-0.4-0.2-1,0-1.2,0.4
					c-0.2,0.4,0,0.9,0.4,1.1c0,0,0,0,0,0c0.2,0.1,3.8,1.8,3.5,5.2c-0.4,3.7-1,10.4-0.4,13.5
					C-965.3-1625.6-961.9-1625.2-959.8-1625.2z"/>
				<path id="Trazado_117817" class="st12" d="M-926.4-1639.2c0.4,0,0.8-0.3,0.9-0.6l0,0c0.6-1.5,2-2.6,3.6-2.7
					c0.5-0.1,0.8-0.5,0.8-1c-0.1-0.5-0.5-0.8-1-0.8c0,0,0,0-0.1,0c-2.3,0.2-4.3,1.8-5.1,4c-0.1,0.5,0.2,0.9,0.6,1.1c0,0,0,0,0,0
					C-926.5-1639.3-926.4-1639.2-926.4-1639.2z"/>
				<path id="Trazado_117818" class="st12" d="M-956.6-1618.7c0.1,0,0.2,0,0.2,0l8.9-2.3c0.5-0.1,0.7-0.6,0.6-1c0,0,0,0,0,0
					c-0.1-0.5-0.6-0.7-1.1-0.6l-8.9,2.3c-0.5,0.1-0.7,0.6-0.6,1c0,0,0,0,0,0C-957.3-1619-957-1618.7-956.6-1618.7z"/>
				<path id="Trazado_117819" class="st14" d="M-983.2-1460.7h57.2l13.7-131.1l-9-4.3c-0.1-0.1-0.3-0.1-0.4-0.2
					c-0.1-0.1-0.2-0.1-0.3-0.1c0,0-0.1,0-0.1,0l-4.4-2.1c0,0-14.7,14.8-20.9,19.9c-5.7,4.7-8-2.2-9.5-5.9
					c-1.6-3.9-3.1-13.6-3.1-13.6l-2.8,1.2l-11,4.6L-983.2-1460.7z"/>
				<path id="Trazado_117820" class="st5" d="M-955-1460.7h63.8l0.5-0.4l0.9-31.6c0,0,2.5-61.8-0.6-76.4c-1.1-5.5,0.5-10.7-7.1-15.6
					c-4.6-2.9-12.6-6.5-18.2-9c-2.9-1.2-5.1-2.1-6.1-2.5c-0.1-0.1-0.2-0.1-0.3-0.1c0,0-0.1,0-0.1,0l0,0.1c-0.7,1.1-13,18.6-18.1,36
					c-4.1,14-12.2,34.9-14.2,74.4C-954.9-1478.3-955.1-1469.9-955-1460.7z"/>
				<path id="Trazado_117821" class="st3" d="M-920.9-1573.2l-13.6,8.6l6.4,12.9c0,0-10.8,15.8-16.7,25.4c-6,9.6-9.8,43.4-9.8,43.4
					c2.1-39.6,5.9-65.3,10-79.3c5.1-17.3,17.4-34.9,18.1-36l0-0.1c0,0,0.2-0.7,0.8-0.7s5.2,1.7,5.6,2.4c0.1,0.3,0.1,0.7,0.1,1
					C-919.9-1590.9-920.9-1573.2-920.9-1573.2z"/>
				<path id="Trazado_117822" class="st5" d="M-1000.5-1485.7l0.4,25h30.8c0-6.8,0.1-16.8,0.2-27.7v-0.1c0.3-26.4,0.6-58.7,1.1-67.4
					c0.8-14.5,4.7-37.9,5.2-40.9c0-0.1,0-0.2,0-0.3c-2.2,0.5-4.3,1.1-6.4,1.9c-4.2,1.6-8.2,3.6-12.1,5.9
					c-6.2,3.4-12.3,8.3-14.5,17.9c-2.4,10.4-3.4,37.8-3.4,37.8L-1000.5-1485.7z"/>
				<path id="Trazado_117823" class="st3" d="M-960-1597.6c0,0-4.3,25.7-5.2,41.2c-0.5,8.8-3.6,49.1-3.9,75.5
					c-0.5-2.6-1.6-31.8-3.2-40.5c-1.7-9.3-7.5-33.7-7.5-33.7l8.5-11.8l-7.2-10c0,0,9.3-14.6,12-18.7c0.4-0.6,0.7-1,0.8-1.1
					c1.8-0.9,3.7-1.5,5.6-1.7C-959.2-1598.3-960-1597.6-960-1597.6z"/>
				<g id="Grupo_74402" transform="translate(100.529 152.321)">
					<path id="Trazado_117824" class="st15" d="M-1019.5-1688.6c1,0,1.8-0.8,1.8-1.7c0,0,0,0,0,0v-12.9c0-1-0.9-1.8-1.9-1.7
						c-0.9,0-1.7,0.8-1.7,1.7v12.9C-1021.3-1689.4-1020.5-1688.6-1019.5-1688.6C-1019.5-1688.6-1019.5-1688.6-1019.5-1688.6z"/>
				</g>
				<g id="Grupo_74403" transform="translate(108.334 147.229)">
					<path id="Trazado_117825" class="st8" d="M-1019.5-1677.7c1,0,1.8-0.8,1.8-1.7v-23.9c0-1-0.9-1.8-1.9-1.7
						c-0.9,0-1.7,0.8-1.7,1.7v23.9C-1021.3-1678.4-1020.4-1677.7-1019.5-1677.7C-1019.5-1677.7-1019.5-1677.7-1019.5-1677.7z"/>
				</g>
				<g id="Grupo_74404" transform="translate(105.812 142.363)">
					<path id="Trazado_117826" class="st8" d="M-1019.5-1700.8c0,1.4,1,2.6,2.4,2.6s2.6-1,2.6-2.4c0-1.4-1-2.6-2.4-2.6
						c0,0-0.1,0-0.1,0C-1018.3-1703.3-1019.5-1702.2-1019.5-1700.8z"/>
					<path id="Trazado_117827" class="st8" d="M-1017-1696.7c2.3-0.1,4.1-2,4-4.3s-2-4.1-4.3-4c-2.2,0.1-4,1.9-4,4.2
						C-1021.2-1698.5-1019.3-1696.6-1017-1696.7z M-1017-1701.5c0.4,0,0.7,0.3,0.7,0.7c0,0.8-1.5,0.8-1.5,0
						C-1017.7-1701.2-1017.3-1701.5-1017-1701.5L-1017-1701.5z"/>
				</g>
				<path id="Trazado_117828" class="st16" d="M-928-1543.1h23.2c0,0,2.6,33.6-11.6,33.6S-928-1543.1-928-1543.1z"/>
			</g>
			<g id="window_3" transform="translate(54.69 206.845)">
				<path id="Trazado_117829" class="st5" d="M-1013.4-1695.5h40.1c0,0,5.7-0.3,8.8-2.4c2-1.5,3.6-3.5,4.7-5.8l0,8.2h102.3
					c4.3-0.1,7.8,3.3,7.8,7.6v15.8c-0.1,4.3-3.6,7.6-7.8,7.6h-155.9c-4.3,0.1-7.8-3.3-7.8-7.6v-15.8
					C-1021.2-1692.1-1017.7-1695.5-1013.4-1695.5z"/>
				<path id="Trazado_117830" class="st16" d="M-869.7-1679.4c-0.1,1.9,1.4,3.5,3.3,3.6c1.9,0.1,3.5-1.4,3.6-3.3s-1.4-3.5-3.3-3.6
					c0,0-0.1,0-0.1,0C-868.1-1682.8-869.6-1681.3-869.7-1679.4z"/>
				<path id="Trazado_117831" class="st16" d="M-892.6-1679.4c-0.1,1.9,1.4,3.5,3.3,3.6c1.9,0.1,3.5-1.4,3.6-3.3s-1.4-3.5-3.3-3.6
					c0,0-0.1,0-0.1,0C-891-1682.8-892.5-1681.3-892.6-1679.4z"/>
				<path id="Trazado_117832" class="st16" d="M-915.5-1679.4c-0.1,1.9,1.4,3.5,3.3,3.6c1.9,0.1,3.5-1.4,3.6-3.3s-1.4-3.5-3.3-3.6
					c0,0-0.1,0-0.1,0C-913.9-1682.8-915.4-1681.3-915.5-1679.4z"/>
				<path id="Trazado_117833" class="st16" d="M-938.3-1679.4c-0.1,1.9,1.4,3.5,3.3,3.6c1.9,0.1,3.5-1.4,3.6-3.3s-1.4-3.5-3.3-3.6
					c0,0-0.1,0-0.1,0C-936.8-1682.8-938.3-1681.3-938.3-1679.4z"/>
				<path id="Trazado_117834" class="st16" d="M-961.2-1679.4c-0.1,1.9,1.4,3.5,3.3,3.6c1.9,0.1,3.5-1.4,3.6-3.3s-1.4-3.5-3.3-3.6
					c0,0-0.1,0-0.1,0C-959.7-1682.8-961.2-1681.3-961.2-1679.4z"/>
				<path id="Trazado_117835" class="st16" d="M-984.1-1679.4c-0.1,1.9,1.4,3.5,3.3,3.6c1.9,0.1,3.5-1.4,3.6-3.3s-1.4-3.5-3.3-3.6
					c0,0-0.1,0-0.1,0C-982.5-1682.8-984.1-1681.3-984.1-1679.4z"/>
				<path id="Trazado_117836" class="st16" d="M-1007-1679.4c-0.1,1.9,1.4,3.5,3.3,3.6c1.9,0.1,3.5-1.4,3.6-3.3s-1.4-3.5-3.3-3.6
					c0,0-0.1,0-0.1,0C-1005.4-1682.8-1007-1681.3-1007-1679.4z"/>
				<g id="Grupo_74405" transform="translate(44.829 39.23)">
					<path id="Trazado_117837" class="st16" d="M-1019.9-1702.4h8.4c0.7,0,1.3-0.6,1.3-1.3c0-0.7-0.6-1.3-1.3-1.3h-8.4
						c-0.7,0-1.3,0.6-1.3,1.3C-1021.2-1703-1020.6-1702.4-1019.9-1702.4z"/>
				</g>
				<g id="Grupo_74406" transform="translate(62.156 8.244)">
					<path id="Trazado_117838" class="st16" d="M-1019.9-1671.4h100.3c5,0.1,9.1-3.9,9.2-8.9v-15.8c-0.1-5-4.2-9-9.2-8.9h-7.8
						c-0.7,0-1.3,0.6-1.3,1.3c0,0.7,0.6,1.3,1.3,1.3h7.8c3.5-0.1,6.4,2.8,6.5,6.3v15.8c-0.1,3.5-3,6.3-6.5,6.3h-100.3
						c-0.7,0-1.3,0.6-1.3,1.3C-1021.2-1672-1020.6-1671.4-1019.9-1671.4L-1019.9-1671.4z"/>
				</g>
				<g id="Grupo_74407" transform="translate(142.534 8.244)">
					<path id="Trazado_117839" class="st16" d="M-1019.9-1702.4h5.3c0.7,0,1.3-0.6,1.3-1.3s-0.6-1.3-1.3-1.3h-5.3
						c-0.7,0-1.3,0.6-1.3,1.3S-1020.6-1702.4-1019.9-1702.4z"/>
				</g>
				<g id="Grupo_74408" transform="translate(33.252)">
					<path id="Trazado_117840" class="st16" d="M-1019.9-1694.2h13.4c0.3,0,6.2-0.3,9.6-2.7c1-0.7,1.8-1.5,2.6-2.4l0,3.8
						c0,0.7,0.6,1.3,1.3,1.3h49.2c0.7,0,1.3-0.6,1.3-1.3s-0.6-1.3-1.3-1.3h-47.9l0-7c0-0.6-0.5-1.2-1.1-1.3
						c-0.6-0.1-1.2,0.2-1.5,0.8c-1,2.1-2.4,3.9-4.3,5.3c-2.3,1.6-6.6,2.1-8,2.2h-13.3c-0.7,0-1.3,0.6-1.3,1.3
						C-1021.2-1694.7-1020.6-1694.2-1019.9-1694.2L-1019.9-1694.2z"/>
				</g>
			</g>
			<g id="window_2" transform="translate(196.778 0)">
				<path id="Trazado_117841" class="st5" d="M-1012.1-1703.7h70.6c4.3-0.1,7.8,3.3,7.8,7.6v76.4c-0.1,4.3-3.6,7.6-7.8,7.6h-40.3
					c-1.2,0.1-5.8,0.5-8.5,2.4c-2,1.5-3.6,3.5-4.7,5.8l0-8.2h-17.1c-4.3,0.1-7.8-3.3-7.8-7.6v-76.4
					C-1019.9-1700.4-1016.3-1703.8-1012.1-1703.7z"/>
				<path id="Trazado_117842" class="st17" d="M-983.4-1659.5c-8.5-3.2-12.9-12.7-9.6-21.3c0.1-0.2,0.1-0.4,0.2-0.5
					c3.9-8.6,13.8-12.7,22.6-9.1c8.5,3.2,12.9,12.7,9.7,21.3c-0.1,0.2-0.1,0.4-0.2,0.5C-964.6-1660-974.6-1656-983.4-1659.5z"/>
				<path id="Trazado_117843" class="st5" d="M-987.3-1661.7c6.2,4.6,14.7,4.6,21,0.1c-1.7-3.4-4.9-5.8-8.6-6.6v-2.6
					c3.8-1.2,6-5.3,4.8-9.1c-0.9-2.9-3.6-5-6.7-5.1c-3.9,0.1-7.1,3.3-7,7.2c0,0,0,0,0,0c0,3.2,2,6,5,7v2.6
					C-982.5-1667.5-985.6-1665.1-987.3-1661.7z"/>
				<g id="Grupo_74409" transform="translate(25.367 11.57)">
					<path id="Trazado_117844" class="st18" d="M-1002.2-1668.1c4.2,0,8.2-1.3,11.6-3.7c4.7-3.4,7.5-8.9,7.6-14.7
						c0-10.2-8.6-18.4-19.1-18.4s-19.1,8.3-19.1,18.4c0,5.8,2.8,11.2,7.5,14.6C-1010.4-1669.4-1006.3-1668.1-1002.2-1668.1z
						 M-1002.2-1701.5c8.6,0,15.5,6.7,15.5,15c0,4.7-2.3,9.2-6.2,12c-5.7,4-13.2,4-18.8-0.1c-3.8-2.8-6.1-7.2-6.1-11.9
						C-1017.7-1694.8-1010.7-1701.5-1002.2-1701.5z"/>
				</g>
				<g id="Grupo_74410" transform="translate(10.009 68.257)">
					<path id="Trazado_117845" class="st5" d="M-955.6-1703.3L-955.6-1703.3z"/>
					<path id="Trazado_117846" class="st16" d="M-1019.5-1701.5h63.9c1,0,1.8-0.7,1.8-1.7c0-1-0.7-1.8-1.7-1.8c0,0-0.1,0-0.1,0
						h-63.9c-1,0-1.8,0.7-1.8,1.7c0,1,0.7,1.8,1.7,1.8C-1019.6-1701.5-1019.5-1701.5-1019.5-1701.5z"/>
				</g>
				<g id="Grupo_74411" transform="translate(10.009 77.933)">
					<path id="Trazado_117847" class="st5" d="M-955.6-1703.3L-955.6-1703.3z"/>
					<path id="Trazado_117848" class="st16" d="M-1019.5-1701.5h63.9c1,0,1.7-0.7,1.8-1.7c0-1-0.7-1.7-1.7-1.8c0,0-0.1,0-0.1,0
						h-63.9c-1,0-1.7,0.7-1.8,1.7C-1021.3-1702.4-1020.5-1701.6-1019.5-1701.5C-1019.5-1701.5-1019.5-1701.5-1019.5-1701.5z"/>
				</g>
				<rect id="Rectángulo_32522" x="-1009.5" y="-1649.4" class="st16" width="63.9" height="6.8"/>
				<g id="Grupo_74412" transform="translate(0)">
					<path id="Trazado_117849" class="st14" d="M-933.6-1658c0.7,0,1.3-0.6,1.3-1.3c0,0,0,0,0,0v-36.8c-0.1-5-4.2-9-9.2-8.9h-70.6
						c-5-0.1-9.1,3.9-9.2,8.9v4.4c0,0.7,0.7,1.3,1.4,1.3c0.7,0,1.3-0.6,1.3-1.3v-4.4c0.1-3.5,3-6.3,6.5-6.3h70.6
						c3.5-0.1,6.4,2.8,6.5,6.3v36.8C-935-1658.6-934.4-1658-933.6-1658C-933.6-1658-933.6-1658-933.6-1658z"/>
				</g>
				<g id="Grupo_74413" transform="translate(0 21.225)">
					<path id="Trazado_117850" class="st14" d="M-1019.9-1696.5c0.7,0,1.3-0.6,1.3-1.3v-5.9c0-0.7-0.7-1.3-1.4-1.3
						c-0.7,0-1.3,0.6-1.3,1.3v5.9C-1021.3-1697-1020.7-1696.5-1019.9-1696.5z"/>
				</g>
				<g id="Grupo_74414" transform="translate(10.458 74.218)">
					<path id="Trazado_117851" class="st14" d="M-1005.4-1676.9c0.5,0,1-0.3,1.2-0.8c1-2.1,2.4-3.9,4.3-5.3c2.5-1.7,6.9-2.1,7.8-2.2
						h40.2c5,0.1,9.1-3.9,9.2-8.9v-9.7c0-0.7-0.7-1.3-1.4-1.3c-0.7,0-1.3,0.6-1.3,1.3v9.7c-0.1,3.5-3,6.3-6.5,6.3h-40.3
						c-1.5,0.1-6.3,0.6-9.2,2.6c-1,0.7-1.8,1.5-2.6,2.4l0-3.7c0-0.7-0.6-1.3-1.3-1.3h-14.5c-0.7,0-1.3,0.6-1.3,1.3s0.6,1.3,1.3,1.3
						c0,0,0,0,0,0h13.1l0,6.9c0,0.6,0.5,1.2,1.1,1.3C-1005.6-1676.9-1005.5-1676.9-1005.4-1676.9z"/>
				</g>
			</g>
			<g id="window_1" transform="translate(230.902 51.634)">
				<path id="Trazado_117852" class="st5" d="M-998.5-1635.9c-12.6-11.9-13.1-31.8-1.1-44.4c0.4-0.4,0.7-0.8,1.1-1.1
					c13.2-12.6,33.9-12.6,47.1,0c12.6,11.9,13.1,31.8,1.1,44.4c-0.4,0.4-0.7,0.8-1.1,1.1C-964.6-1623.4-985.3-1623.4-998.5-1635.9z"
					/>
				<g id="Grupo_74415" transform="translate(48.225 74.788)">
					<path id="Trazado_117853" class="st16" d="M-1019.9-1700.1c0,0,0.1,0,0.1,0c3.4-0.3,6.7-1.1,9.8-2.3c0.7-0.2,1-1,0.8-1.7
						c0,0,0,0,0,0c-0.3-0.7-1.1-1-1.8-0.7c-2.9,1.2-5.9,1.9-9,2.2c-0.7,0.1-1.3,0.7-1.2,1.4c0,0,0,0,0,0
						C-1021.2-1700.6-1020.6-1700.1-1019.9-1700.1z"/>
				</g>
				<g id="Grupo_74416" transform="translate(11.649 12.855)">
					<path id="Trazado_117854" class="st6" d="M-992.8-1638.6c0.6,0,1.2-0.4,1.3-1.1c0.1-0.7-0.3-1.4-1-1.5c0,0,0,0,0,0
						c-15.1-2.7-26-15.5-26-30.3c0-17,14.3-30.9,32-30.9c9,0,17.5,3.7,23.7,10.2c5.3,5.6,8.3,13,8.3,20.7c0,4.7-1.1,9.4-3.2,13.6
						c-0.3,0.6-0.1,1.4,0.6,1.7c0,0,0,0,0,0c0.7,0.3,1.5,0.1,1.8-0.6c2.3-4.6,3.5-9.6,3.5-14.7c0-8.4-3.2-16.4-9-22.5
						c-6.7-7.1-16-11-25.7-11c-19.1,0-34.7,15-34.7,33.5c0,16.1,11.9,29.9,28.2,32.9C-993-1638.6-992.9-1638.6-992.8-1638.6z"/>
				</g>
				<g id="Grupo_74417" transform="translate(23.39 30.559)">
					<path id="Trazado_117855" class="st19" d="M-1018.8-1686.2c1.1,2.4,2.9,4.4,5.1,5.7l0.9,0.5l14.5,8l0,0v0l14.5-8l0.9-0.5
						c2.2-1.3,4-3.3,5.1-5.7c2.8-6.2-0.1-13.5-6.3-16.3c-0.1-0.1-0.3-0.1-0.4-0.2c-4.6-1.9-10-1.1-13.8,2.1
						c-3.8-3.3-9.1-4.1-13.8-2.1c-6.3,2.5-9.4,9.7-6.9,16C-1019-1686.5-1018.9-1686.4-1018.8-1686.2z"/>
					<path id="Trazado_117856" class="st20" d="M-998.3-1670.6c0.2,0,0.4-0.1,0.6-0.1c0.2-0.1,0.4-0.2,0.5-0.4l14.9-8.2
						c2.5-1.5,4.5-3.6,5.7-6.3c3-6.9-0.1-15-7-18c-0.1-0.1-0.3-0.1-0.4-0.2c-4.7-2-10.2-1.3-14.3,1.6c-4.2-3-9.6-3.6-14.3-1.6
						c-3.5,1.4-6.2,4.1-7.6,7.6c-1.4,3.4-1.3,7.2,0.2,10.6l0,0c1.2,2.6,3.2,4.8,5.6,6.3l15.4,8.5
						C-998.8-1670.7-998.6-1670.6-998.3-1670.6z M-989.7-1702.4c1.6,0,3.2,0.3,4.6,0.9c5.7,2.3,8.4,8.7,6.2,14.4
						c0,0.1-0.1,0.2-0.1,0.3c-1,2.1-2.6,3.9-4.6,5.1l-14.8,8.1l-14.7-8.2c-2-1.2-3.6-2.9-4.5-5.1l0,0c-1.2-2.7-1.3-5.8-0.2-8.6
						c1.2-2.8,3.4-5,6.2-6.2c4.2-1.7,8.9-1,12.4,1.9c0.5,0.4,1.3,0.4,1.8,0C-995.3-1701.4-992.5-1702.4-989.7-1702.4L-989.7-1702.4z
						 M-1018.8-1686.2L-1018.8-1686.2z"/>
				</g>
			</g>
		</g>
	</g>
</g>
</svg>
