<svg xmlns="http://www.w3.org/2000/svg" width="400" height="187" viewBox="0 0 400 187">
  <g id="Grupo_74688" data-name="Grupo 74688" transform="translate(-1019.757 -9998.863)">
    <rect id="Rectángulo_32507" data-name="Rectángulo 32507" width="400" height="187" transform="translate(1019.757 9998.863)" fill="none"/>
    <g id="Grupo_74605" data-name="Grupo 74605" transform="translate(1320.323 10145.415)">
      <path id="Trazado_116262" data-name="Trazado 116262" d="M66.582,148.924l24.274,14.014a7.867,7.867,0,0,0,7.056-.294h0c2.08-1.2,2.307-3.034.507-4.073L74.145,144.557a7.866,7.866,0,0,0-7.056.294h0C65.01,146.051,64.782,147.885,66.582,148.924Z" transform="translate(-30.079 -138.776)" fill="#92b4d1" opacity="0.183"/>
      <path id="Trazado_116263" data-name="Trazado 116263" d="M116.439,155.333,92.165,169.347a7.872,7.872,0,0,1-7.056-.292v0c-2.08-1.2-2.307-3.034-.507-4.073l24.274-14.014a7.866,7.866,0,0,1,7.056.294h0C118.011,152.461,118.24,154.294,116.439,155.333Z" transform="translate(-83.388 -132.633)" fill="#92b4d1" opacity="0.167"/>
      <g id="Grupo_73273" data-name="Grupo 73273" transform="translate(36.913)">
        <g id="Grupo_73272" data-name="Grupo 73272" transform="translate(0)">
          <path id="Trazado_116264" data-name="Trazado 116264" d="M79.968,142.142a4.459,4.459,0,1,0-4.459,7.724l10.544,6.094,3.815-8.1Z" transform="translate(-72.725 -140.989)" fill="#421e47"/>
          <g id="Grupo_73269" data-name="Grupo 73269" transform="translate(0.557 0.558)">
            <path id="Trazado_116265" data-name="Trazado 116265" d="M79.968,142.142a4.459,4.459,0,1,0-4.459,7.724l10.544,6.094,3.815-8.1Z" transform="translate(-73.282 -141.548)" fill="#c0d5ff"/>
          </g>
          <g id="Grupo_73270" data-name="Grupo 73270">
            <path id="Trazado_116266" data-name="Trazado 116266" d="M86.326,156.787a.537.537,0,0,0,.166-.025.545.545,0,0,0,.335-.292l3.815-8.1a.555.555,0,0,0-.223-.717l-9.9-5.716h0a5.015,5.015,0,0,0-5.015,8.685l10.546,6.094A.55.55,0,0,0,86.326,156.787Zm3.1-8.433-3.341,7.1-10.021-5.793a3.9,3.9,0,1,1,3.9-6.764Z" transform="translate(-72.999 -141.263)" fill="none"/>
          </g>
          <path id="Trazado_116267" data-name="Trazado 116267" d="M69.751,145.035a1.735,1.735,0,0,1,1.909-.157l0,0,.076.045h0l10.283,5.938a4.46,4.46,0,1,1-4.459,7.726l-9.717-5.6a2.475,2.475,0,0,1-.993-2.358A7.3,7.3,0,0,1,69.751,145.035Z" transform="translate(-54.52 -138.007)" fill="#748fff"/>
          <g id="Grupo_73271" data-name="Grupo 73271" transform="translate(11.779 6.099)">
            <path id="Trazado_116268" data-name="Trazado 116268" d="M80.048,160a5.109,5.109,0,0,0,1.314-.174,5.009,5.009,0,0,0,1.21-9.181L72.289,144.71l-.059-.029a2.288,2.288,0,0,0-2.5.153h0a7.8,7.8,0,0,0-3.161,6.047,2.98,2.98,0,0,0,1.289,2.857l9.7,5.593A4.952,4.952,0,0,0,80.048,160Zm-8.337-14.345,10.307,5.949a3.9,3.9,0,0,1-.944,7.15,3.861,3.861,0,0,1-2.961-.386l-9.717-5.6a2.026,2.026,0,0,1-.717-1.866,6.809,6.809,0,0,1,2.63-5.123h0a1.294,1.294,0,0,1,1.314-.168A.548.548,0,0,0,71.711,145.658Z" transform="translate(-66.57 -144.377)" fill="none"/>
          </g>
        </g>
      </g>
      <g id="Grupo_73278" data-name="Grupo 73278" transform="translate(0.851 12.555)">
        <g id="Grupo_73277" data-name="Grupo 73277">
          <path id="Trazado_116269" data-name="Trazado 116269" d="M95.168,148.551a4.459,4.459,0,1,1,4.459,7.724l-10.546,6.094-3.813-8.1Z" transform="translate(-72.123 -147.401)" fill="#421e47"/>
          <g id="Grupo_73274" data-name="Grupo 73274" transform="translate(13.146 0.556)">
            <path id="Trazado_116270" data-name="Trazado 116270" d="M95.168,148.551a4.459,4.459,0,1,1,4.459,7.724l-10.546,6.094-3.813-8.1Z" transform="translate(-85.269 -147.957)" fill="#c0d5ff"/>
          </g>
          <g id="Grupo_73275" data-name="Grupo 73275" transform="translate(12.591)">
            <path id="Trazado_116271" data-name="Trazado 116271" d="M89.355,163.2a.534.534,0,0,0,.276-.076l10.546-6.094a5.014,5.014,0,1,0-5.015-8.683h0l-9.9,5.716a.555.555,0,0,0-.223.717l3.813,8.1a.563.563,0,0,0,.337.294A.536.536,0,0,0,89.355,163.2Zm8.309-14.417a3.907,3.907,0,0,1,1.956,7.287L89.6,161.859l-3.341-7.1,9.459-5.46A3.874,3.874,0,0,1,97.664,148.78Z" transform="translate(-84.985 -147.673)" fill="none"/>
          </g>
          <path id="Trazado_116272" data-name="Trazado 116272" d="M105.783,151.446a1.732,1.732,0,0,0-1.909-.159l0,0-.076.045h0L93.51,157.266a4.46,4.46,0,0,0,4.459,7.726l9.715-5.6a2.47,2.47,0,0,0,.995-2.356A7.3,7.3,0,0,0,105.783,151.446Z" transform="translate(-90.725 -144.419)" fill="#748fff"/>
          <g id="Grupo_73276" data-name="Grupo 73276" transform="translate(0 6.098)">
            <path id="Trazado_116273" data-name="Trazado 116273" d="M96.022,166.413a4.982,4.982,0,0,0,2.5-.672l9.717-5.6a2.978,2.978,0,0,0,1.271-2.846,7.808,7.808,0,0,0-3.161-6.049h0a2.308,2.308,0,0,0-2.442-.186l-.027.014-10.371,5.987a5.014,5.014,0,0,0,2.516,9.357Zm9.747-14.225a6.806,6.806,0,0,1,2.63,5.123,2.03,2.03,0,0,1-.7,1.856l-9.735,5.613a3.905,3.905,0,1,1-3.9-6.764l10.285-5.936,0,0a.5.5,0,0,0,.112-.057,1.3,1.3,0,0,1,1.314.169Z" transform="translate(-91 -150.786)" fill="none"/>
          </g>
        </g>
      </g>
    </g>
    <g id="Grupo_73310" data-name="Grupo 73310" transform="translate(1225.41 10005.664)">
      <g id="Grupo_73302" data-name="Grupo 73302">
        <path id="Trazado_116295" data-name="Trazado 116295" d="M50.714,177.041S34.1,179.163,38.561,169.67c4.183-8.9,22.475-12.057,36.324-20.633,3.847-2.381,11.916-12.753,14.281-14.926,13.01-11.956,25.6-21.423,25.6-21.423s-8.808,0-15.45,4.826C89.05,124.974,77.276,130.73,69.791,127.9c-11.437-4.333,3.767-12.552,14.922-23.057,6.548-6.165,16.733-13.277,30.059-20.514,16.093-8.743,35.943-7.6,51.486-13.012a174.514,174.514,0,0,0,28.57-12.748h.061c3.218-1.423,7.228-1.08,11.594,1.44C217.04,66.1,225.6,82.457,225.6,96.535c0,7.824-2.643,13.3-6.805,15.569-1.007.549-22.559,9.089-37.8,17.542-12.727,7.06-32.788,39.82-44.225,55.661-14.361,19.888-35.812,27.179-49.759,32.176-11.091,3.973-13.632-1.026-12.44-4.763,2.435-7.626,14.592-13.964,14.592-13.964s-13.73,5.742-20.923,8.168c-4.207,1.419-13.823,6.214-17.6.051-2.718-4.436,2.515-8.953,7.838-12.2,2.877-1.755,17.689-8.673,23.714-12.739,0,0-11.608,3.433-19.329,6.165-8.205,2.9-15.141,7.57-21.306,5.843C27.879,190.207,50.714,177.041,50.714,177.041Z" transform="translate(-36.484 -57.011)" fill="#71a0ff"/>
        <path id="Trazado_116296" data-name="Trazado 116296" d="M80.412,220.067a21.968,21.968,0,0,0,7.249-1.505l1.066-.383c13.9-4.971,34.9-12.48,49.028-32.047,2.545-3.522,5.548-7.932,8.729-12.6,11.367-16.682,25.511-37.441,35.265-42.854,12.148-6.738,28.06-13.421,34.854-16.277,1.926-.806,2.716-1.14,2.94-1.264,4.557-2.489,7.172-8.39,7.172-16.188,0-14.281-8.736-30.947-19.474-37.147-4.358-2.519-8.535-3.047-12.092-1.533H195.1l-.229.1a175.2,175.2,0,0,1-28.444,12.69c-6.284,2.187-13.2,3.281-20.516,4.438-10.542,1.669-21.444,3.391-31.073,8.621C102,91.085,91.557,98.215,84.632,104.733c-2.631,2.48-5.457,4.8-8.189,7.046-6.462,5.314-11.568,9.509-10.97,13.139.278,1.692,1.741,3.015,4.473,4.05,9.025,3.428,22.793-5.092,30.2-10.472,4.349-3.16,9.731-4.193,12.732-4.527-4,3.1-13.819,10.874-23.781,20.031-.839.769-2.344,2.505-4.087,4.515-3.227,3.72-7.649,8.82-10.089,10.33a117.647,117.647,0,0,1-16.8,8.079c-9.175,3.828-17.1,7.135-19.79,12.856-1.091,2.325-1.105,4.249-.04,5.716,1.891,2.594,6.8,2.942,10.007,2.861-4.2,2.7-11.923,8.317-11.374,12.695.236,1.872,1.87,3.246,4.856,4.083,4.7,1.32,9.834-.9,15.265-3.239,2.078-.9,4.228-1.823,6.469-2.617,4.267-1.51,9.771-3.248,13.809-4.492-3.821,2.122-8.453,4.461-12.169,6.338-3.122,1.575-5.59,2.818-6.63,3.454-5.13,3.132-8.079,6.16-8.764,9a5.345,5.345,0,0,0,.689,4.179c3.587,5.857,11.692,2.781,16.537.946.708-.269,1.348-.509,1.9-.694,3.777-1.276,9.39-3.477,13.858-5.277-3.419,2.6-7.154,6.2-8.427,10.185a5.227,5.227,0,0,0,1.159,5.492A6.794,6.794,0,0,0,80.412,220.067ZM199.353,58.843a14.55,14.55,0,0,1,7.179,2.183C216.878,67,225.3,83.116,225.3,96.946c0,7.266-2.344,12.713-6.434,14.945-.173.093-1.337.584-2.807,1.2-6.817,2.863-22.781,9.568-35,16.345-10.047,5.574-24.3,26.488-35.747,43.293-3.176,4.662-6.174,9.063-8.708,12.571-13.87,19.21-34.625,26.63-48.357,31.543l-1.066.379c-6.918,2.482-9.694,1.168-10.732.166a3.854,3.854,0,0,1-.792-4.043c2.316-7.254,14.125-13.489,14.244-13.552l-.6-1.281c-.138.056-13.791,5.761-20.876,8.149-.561.189-1.218.439-1.944.713-4.721,1.79-11.851,4.489-14.826-.36a3.931,3.931,0,0,1-.519-3.106c.594-2.461,3.328-5.193,8.126-8.121.989-.605,3.555-1.9,6.53-3.4,5.6-2.825,13.27-6.7,17.21-9.357l3.8-2.568-4.4,1.3c-.117.035-11.715,3.468-19.364,6.177-2.288.809-4.459,1.746-6.558,2.653-5.419,2.337-10.1,4.356-14.321,3.176-2.386-.671-3.674-1.643-3.83-2.9-.5-3.994,9.32-10.6,13.148-12.809l3.054-1.76-3.5.444c-2.568.322-9.652.589-11.6-2.092-.739-1.012-.68-2.452.178-4.272,2.456-5.228,10.147-8.437,19.051-12.152a119.145,119.145,0,0,0,17-8.182c2.622-1.624,6.943-6.6,10.414-10.608,1.713-1.977,3.195-3.683,3.973-4.4,12.837-11.795,25.426-21.288,25.553-21.381l1.7-1.276h-2.124c-.367,0-9.117.058-15.866,4.964-12.206,8.867-22.727,12.613-28.864,10.292-2.185-.83-3.389-1.823-3.573-2.956-.465-2.821,4.847-7.186,10.472-11.811,2.748-2.26,5.592-4.6,8.261-7.109,6.833-6.436,17.177-13.492,29.909-20.407,9.416-5.113,20.194-6.819,30.617-8.467,7.383-1.169,14.359-2.272,20.762-4.5a178.564,178.564,0,0,0,28.574-12.737l.115-.033A9.222,9.222,0,0,1,199.353,58.843Z" transform="translate(-36.89 -57.422)" fill="none"/>
      </g>
      <g id="Grupo_73303" data-name="Grupo 73303" transform="translate(51.933 123.007)">
        <path id="Trazado_116297" data-name="Trazado 116297" d="M84.959,129.544a.747.747,0,0,0,.334-.079c1.01-.5,2.1-1.019,3.246-1.556,4.662-2.2,10.467-4.94,14.847-8.918,6.868-6.24,7.9-7.619,7.995-7.757a.75.75,0,0,0-1.227-.862c-.056.075-1.117,1.461-7.775,7.509-4.214,3.828-9.668,6.4-14.48,8.673-1.154.542-2.255,1.061-3.274,1.57a.75.75,0,0,0,.334,1.421Z" transform="translate(-84.21 -110.056)" fill="#05d"/>
      </g>
      <g id="Grupo_73304" data-name="Grupo 73304" transform="translate(34.976 110.876)">
        <path id="Trazado_116298" data-name="Trazado 116298" d="M90.736,125.339a.73.73,0,0,0,.358-.093c.077-.04,7.679-4.221,16.464-9.269a70.6,70.6,0,0,0,12.973-9.832.749.749,0,1,0-1.059-1.061,69.009,69.009,0,0,1-12.66,9.593c-8.773,5.041-16.364,9.215-16.438,9.257a.748.748,0,0,0,.362,1.4Z" transform="translate(-89.984 -104.865)" fill="#05d"/>
      </g>
      <g id="Grupo_73305" data-name="Grupo 73305" transform="translate(13.479 100.317)">
        <path id="Trazado_116299" data-name="Trazado 116299" d="M96,120.81a.751.751,0,0,0,.337-.082c2.164-1.089,5.592-2.468,9.222-3.926,4.38-1.76,9.346-3.753,13.176-5.684,6.927-3.487,16.032-9.332,16.123-9.39a.748.748,0,1,0-.809-1.26c-.091.056-9.133,5.859-15.99,9.313-3.774,1.9-8.708,3.882-13.059,5.63-3.66,1.47-7.118,2.86-9.336,3.98A.749.749,0,0,0,96,120.81Z" transform="translate(-95.252 -100.347)" fill="#05d"/>
      </g>
      <g id="Grupo_73306" data-name="Grupo 73306" transform="translate(112.107 22.029)">
        <path id="Trazado_116300" data-name="Trazado 116300" d="M74,80.55c.03,0,.061,0,.091,0a.75.75,0,0,0,.654-.834c-.03-.257-.827-6.42-6.749-12.632a.75.75,0,1,0-1.084,1.035c5.581,5.852,6.338,11.715,6.345,11.776A.749.749,0,0,0,74,80.55Z" transform="translate(-66.702 -66.848)" fill="#05d"/>
      </g>
      <g id="Grupo_73307" data-name="Grupo 73307" transform="translate(122.028 40.042)">
        <path id="Trazado_116301" data-name="Trazado 116301" d="M77.2,87.525a.751.751,0,0,0,.636-1.145c-.3-.491-7.506-12.057-20.21-11.821a.752.752,0,0,0-.739.76.8.8,0,0,0,.762.741c.091,0,.182,0,.271,0,11.608,0,18.572,11,18.642,11.113A.749.749,0,0,0,77.2,87.525Z" transform="translate(-56.888 -74.555)" fill="#05d"/>
      </g>
      <g id="Grupo_73308" data-name="Grupo 73308" transform="translate(98.163 48.411)">
        <path id="Trazado_116302" data-name="Trazado 116302" d="M70.64,133.735a.752.752,0,0,0,.741-.631c.023-.15,2.4-15.146,3.059-29.367.643-13.9,9.71-24.251,9.8-24.356a.749.749,0,0,0-1.119-1c-.388.437-9.516,10.837-10.182,25.282-.652,14.134-3.019,29.051-3.043,29.2a.748.748,0,0,0,.622.858A1.022,1.022,0,0,0,70.64,133.735Z" transform="translate(-69.889 -78.136)" fill="#05d"/>
      </g>
      <g id="Grupo_73309" data-name="Grupo 73309" transform="translate(84.219 45.778)">
        <path id="Trazado_116303" data-name="Trazado 116303" d="M72.894,87.032l.047,0C83.3,86.4,94.558,78.7,95.032,78.378a.75.75,0,0,0-.851-1.236c-.112.079-11.4,7.787-21.332,8.392a.75.75,0,0,0,.044,1.5Z" transform="translate(-72.147 -77.01)" fill="#05d"/>
      </g>
    </g>
    <g id="Grupo_73327" data-name="Grupo 73327" transform="translate(1230.229 10042.354)">
      <path id="Trazado_116304" data-name="Trazado 116304" d="M150.125,142.648l33.743-19.481L98.583,73.4,64.84,92.886Z" transform="translate(-64.18 -72.742)" fill="#6abff4"/>
      <path id="Trazado_116305" data-name="Trazado 116305" d="M156.309,128.534l2.988-1.764L74.012,77.007l-2.989,1.764Z" transform="translate(-54.062 -67.925)" fill="#748fff"/>
      <g id="Grupo_73311" data-name="Grupo 73311">
        <path id="Trazado_116306" data-name="Trazado 116306" d="M150.5,143.689a.679.679,0,0,0,.332-.089l33.742-19.481a.661.661,0,0,0,0-1.145L99.293,73.212a.66.66,0,0,0-.666,0L64.886,92.691a.663.663,0,0,0,0,1.145L150.167,143.6A.66.66,0,0,0,150.5,143.689Zm32.423-20.145L150.5,142.262l-83.968-49L98.957,74.549Z" transform="translate(-64.556 -73.121)" fill="none"/>
      </g>
      <g id="Grupo_73312" data-name="Grupo 73312" transform="translate(0.66 20.143)">
        <path id="Trazado_116307" data-name="Trazado 116307" d="M134.736,114.1l29.828,17.4v42.621L97.48,134.982l-18.2-10.621V81.74Z" transform="translate(-79.278 -81.74)" fill="#748fff"/>
      </g>
      <g id="Grupo_73313" data-name="Grupo 73313" transform="translate(0 19.48)">
        <path id="Trazado_116308" data-name="Trazado 116308" d="M164.94,175.165a.671.671,0,0,0,.33-.089.662.662,0,0,0,.332-.573V131.881a.658.658,0,0,0-.33-.57l-29.827-17.4-.332.57.332-.57L79.988,81.549a.645.645,0,0,0-.661,0,.657.657,0,0,0-.332.572v42.622a.656.656,0,0,0,.327.57l85.284,49.762A.66.66,0,0,0,164.94,175.165Zm-.661-42.9v41.089L80.318,124.36V83.271Z" transform="translate(-78.995 -81.456)" fill="none"/>
      </g>
      <g id="Grupo_73314" data-name="Grupo 73314" transform="translate(5.153 27.98)">
        <path id="Trazado_116309" data-name="Trazado 116309" d="M135.674,108,97.525,85.093v31.214l38.15,22.909Z" transform="translate(-97.525 -85.093)" fill="#fff"/>
      </g>
      <g id="Grupo_73315" data-name="Grupo 73315" transform="translate(4.492 27.319)">
        <path id="Trazado_116310" data-name="Trazado 116310" d="M136.052,140.257a.638.638,0,0,0,.327-.089.659.659,0,0,0,.334-.575V108.38a.667.667,0,0,0-.32-.568L98.245,84.905a.662.662,0,0,0-1,.568v31.213a.667.667,0,0,0,.32.568l38.149,22.907A.667.667,0,0,0,136.052,140.257Zm-.661-31.5v29.671L98.565,116.312V86.644Z" transform="translate(-97.242 -84.81)" fill="none"/>
      </g>
      <g id="Grupo_73316" data-name="Grupo 73316" transform="translate(48.345 79.745)">
        <path id="Trazado_116311" data-name="Trazado 116311" d="M114,126.243l-32.562-19V111.8L114,130.8Z" transform="translate(-81.434 -107.244)" fill="#c0d5ff"/>
      </g>
      <g id="Grupo_73317" data-name="Grupo 73317" transform="translate(47.684 79.082)">
        <path id="Trazado_116312" data-name="Trazado 116312" d="M114.374,131.84a.664.664,0,0,0,.661-.661v-4.557a.656.656,0,0,0-.327-.57l-32.564-19a.645.645,0,0,0-.661,0,.656.656,0,0,0-.332.573v4.555a.656.656,0,0,0,.327.57l32.561,19A.661.661,0,0,0,114.374,131.84ZM113.712,127v3.022L82.474,111.8v-3.022Z" transform="translate(-81.151 -106.96)" fill="none"/>
      </g>
      <g id="Grupo_73318" data-name="Grupo 73318" transform="translate(58.019 76.049)">
        <path id="Trazado_116313" data-name="Trazado 116313" d="M104.322,118.933,81.434,105.662v4.556l22.888,13.271Z" transform="translate(-81.434 -105.662)" fill="#c0d5ff"/>
      </g>
      <g id="Grupo_73319" data-name="Grupo 73319" transform="translate(57.357 75.388)">
        <path id="Trazado_116314" data-name="Trazado 116314" d="M104.7,124.528a.663.663,0,0,0,.661-.661v-4.555a.657.657,0,0,0-.33-.573L82.144,105.468a.663.663,0,0,0-.993.573V110.6a.661.661,0,0,0,.33.573l22.889,13.272A.673.673,0,0,0,104.7,124.528Zm-.661-4.835v3.026L82.474,110.212V107.19Z" transform="translate(-81.151 -105.379)" fill="none"/>
      </g>
      <g id="Grupo_73320" data-name="Grupo 73320" transform="translate(58.019 59.699)">
        <path id="Trazado_116315" data-name="Trazado 116315" d="M104.322,111.938v11.991L81.434,110.657V98.666Z" transform="translate(-81.434 -98.666)" fill="#c0d5ff"/>
      </g>
      <g id="Grupo_73321" data-name="Grupo 73321" transform="translate(57.357 59.037)">
        <path id="Trazado_116316" data-name="Trazado 116316" d="M104.7,124.969a.664.664,0,0,0,.661-.661V112.317a.657.657,0,0,0-.33-.573L82.144,98.472a.663.663,0,0,0-.993.573v11.991a.661.661,0,0,0,.33.573l22.889,13.272A.673.673,0,0,0,104.7,124.969ZM104.04,112.7v10.458l-21.566-12.5V100.192Z" transform="translate(-81.151 -98.383)" fill="none"/>
      </g>
      <path id="Trazado_116317" data-name="Trazado 116317" d="M98.582,94.7,64.84,114.179V156.8l33.743-19.481Z" transform="translate(21.106 -44.273)" fill="#5fb0e2"/>
      <g id="Grupo_73322" data-name="Grupo 73322" transform="translate(85.284 49.764)">
        <path id="Trazado_116318" data-name="Trazado 116318" d="M65.217,157.839a.68.68,0,0,0,.332-.089l33.742-19.481a.659.659,0,0,0,.332-.573V95.077a.663.663,0,0,0-.993-.573L64.886,113.985a.661.661,0,0,0-.33.573v42.62a.665.665,0,0,0,.33.573A.673.673,0,0,0,65.217,157.839ZM98.3,137.316,65.879,156.031V114.939L98.3,96.222Z" transform="translate(-64.556 -94.415)" fill="none"/>
      </g>
      <g id="Grupo_73324" data-name="Grupo 73324" transform="translate(11.102 51.625)">
        <path id="Trazado_116319" data-name="Trazado 116319" d="M122.493,99.354l-17.759-3.779a3.726,3.726,0,0,0-1.552,7.289l17.759,3.779a3.726,3.726,0,0,0,1.552-7.289Z" transform="translate(-99.57 -94.833)" fill="#748fff"/>
        <g id="Grupo_73323" data-name="Grupo 73323">
          <path id="Trazado_116320" data-name="Trazado 116320" d="M122.1,107.765a4.388,4.388,0,0,0,.911-8.68h0l-17.759-3.779a4.388,4.388,0,0,0-1.828,8.584l17.759,3.779A4.359,4.359,0,0,0,122.1,107.765Zm.636-7.385a3.063,3.063,0,0,1-1.276,5.992L103.7,102.593a3.058,3.058,0,0,1-1.028-5.56,3,3,0,0,1,2.3-.43Z" transform="translate(-99.949 -95.211)" fill="#05d"/>
        </g>
      </g>
      <g id="Grupo_73326" data-name="Grupo 73326" transform="translate(13.928 40.665)">
        <path id="Trazado_116321" data-name="Trazado 116321" d="M118.219,109.26l-7.9-16.352a3.725,3.725,0,1,0-6.707,3.241l7.894,16.35a3.725,3.725,0,0,0,6.71-3.239Z" transform="translate(-102.582 -90.141)" fill="#748fff"/>
        <g id="Grupo_73325" data-name="Grupo 73325">
          <path id="Trazado_116322" data-name="Trazado 116322" d="M115.254,115.646a4.393,4.393,0,0,0,3.94-6.3L111.3,93a4.388,4.388,0,0,0-7.9,3.816l7.894,16.352a4.417,4.417,0,0,0,3.964,2.477Zm-7.915-23.8a3.058,3.058,0,0,1,1.017.173,3.027,3.027,0,0,1,1.75,1.556l7.9,16.35h0a3.064,3.064,0,0,1-5.518,2.664l-7.9-16.352a3.058,3.058,0,0,1,2.751-4.391ZM118.6,109.64h0Z" transform="translate(-102.961 -90.521)" fill="#05d"/>
        </g>
      </g>
    </g>
    <g id="Grupo_73360" data-name="Grupo 73360" transform="translate(1127.038 10079.992)">
      <path id="Trazado_116323" data-name="Trazado 116323" d="M-330.76,262.993c5.666,0,10.258,2.443,10.258,5.456s-4.592,5.457-10.258,5.457-10.258-2.443-10.258-5.457S-336.424,262.993-330.76,262.993Z" transform="translate(341.018 -248.191)" fill="#92b4d1" opacity="0.182"/>
      <path id="Trazado_116324" data-name="Trazado 116324" d="M-339.129,257.312c5.664,0,10.256,2.443,10.256,5.457s-4.592,5.456-10.256,5.456-10.258-2.443-10.258-5.456S-344.795,257.312-339.129,257.312Z" transform="translate(363.697 -252.222)" fill="#92b4d1" opacity="0.164"/>
      <g id="Grupo_73357" data-name="Grupo 73357" transform="translate(3.714 9.47)">
        <path id="Trazado_116325" data-name="Trazado 116325" d="M-332.308,264.158c1.265,0,6.584-2.236,6.584-2.236v5.738c0,1.935-2.947,3.5-6.584,3.5s-6.584-1.568-6.584-3.5v-5.738S-334.407,264.158-332.308,264.158Z" transform="translate(338.892 -258.421)" fill="#4f83fd"/>
        <g id="Grupo_73356" data-name="Grupo 73356">
          <path id="Trazado_116326" data-name="Trazado 116326" d="M-332.308,259.874c3.637,0,6.584,1.568,6.584,3.5s-2.947,3.5-6.584,3.5-6.584-1.568-6.584-3.5S-335.944,259.874-332.308,259.874Z" transform="translate(338.892 -259.874)" fill="#71a0ff"/>
        </g>
      </g>
      <g id="Grupo_73359" data-name="Grupo 73359" transform="translate(17.982)">
        <path id="Trazado_116327" data-name="Trazado 116327" d="M-340.655,258.619c1.265,0,6.586-2.236,6.586-2.236v5.738c0,1.935-2.949,3.5-6.586,3.5s-6.584-1.568-6.584-3.5v-5.738S-342.753,258.619-340.655,258.619Z" transform="translate(347.239 -252.882)" fill="#4f83fd"/>
        <g id="Grupo_73358" data-name="Grupo 73358">
          <path id="Trazado_116328" data-name="Trazado 116328" d="M-340.655,254.335c3.637,0,6.586,1.568,6.586,3.5s-2.949,3.5-6.586,3.5-6.584-1.568-6.584-3.5S-344.292,254.335-340.655,254.335Z" transform="translate(347.239 -254.335)" fill="#71a0ff"/>
        </g>
      </g>
    </g>
    <g id="Grupo_74604" data-name="Grupo 74604" transform="translate(1161.863 10054.11)">
      <path id="Trazado_116329" data-name="Trazado 116329" d="M-364.368,284.991c16.976,0,30.739,7.288,30.739,16.282s-13.763,16.281-30.739,16.281-30.739-7.29-30.739-16.281S-381.344,284.991-364.368,284.991Z" transform="translate(395.107 -216.122)" fill="#92b4d1" opacity="0.173"/>
      <g id="Grupo_73371" data-name="Grupo 73371" transform="translate(3.676)">
        <g id="Grupo_73361" data-name="Grupo 73361" transform="translate(3.637 28.286)">
          <path id="Trazado_116330" data-name="Trazado 116330" d="M-344.705,263.644v53.8c0,6.776-10.327,12.268-23.065,12.268s-23.063-5.492-23.063-12.268V263.413Z" transform="translate(390.834 -263.413)" fill="#748fff"/>
        </g>
        <g id="Grupo_73363" data-name="Grupo 73363" transform="translate(11.915 37.002)">
          <g id="Grupo_73362" data-name="Grupo 73362">
            <path id="Trazado_116331" data-name="Trazado 116331" d="M-352.982,268.047v34.515c0,6.775-10.327,12.268-23.065,12.268a36.963,36.963,0,0,1-14.786-2.859V277.458a37,37,0,0,0,14.786,2.857C-363.31,280.315-352.982,274.823-352.982,268.047Z" transform="translate(390.834 -268.047)" fill="#f6f6f6"/>
          </g>
        </g>
        <g id="Grupo_73365" data-name="Grupo 73365" transform="translate(17.831 42.239)">
          <g id="Grupo_73364" data-name="Grupo 73364">
            <path id="Trazado_116332" data-name="Trazado 116332" d="M-390.834,282.146a40.984,40.984,0,0,0,8.869.956c12.738,0,23.065-5.494,23.065-12.27v5.606c0,6.776-10.327,12.268-23.065,12.268a40.991,40.991,0,0,1-8.869-.953Z" transform="translate(390.834 -270.832)" fill="#4f83fd"/>
          </g>
        </g>
        <g id="Grupo_73370" data-name="Grupo 73370">
          <g id="Grupo_73366" data-name="Grupo 73366" transform="translate(0 12.481)">
            <path id="Trazado_116333" data-name="Trazado 116333" d="M-386.774,260.373c4.833-3.261,12.311-5.364,20.727-5.364a44.724,44.724,0,0,1,13.812,2.093l2.185-.207,10.4,6.174v5.983c0,7.754-11.819,14.041-26.4,14.041s-26.4-6.287-26.4-14.041V263.07Z" transform="translate(392.446 -255.009)" fill="#cedcff"/>
          </g>
          <g id="Grupo_73367" data-name="Grupo 73367" transform="translate(0 6.5)">
            <path id="Trazado_116334" data-name="Trazado 116334" d="M-366.046,251.829c14.579,0,26.4,6.287,26.4,14.042s-11.819,14.041-26.4,14.041-26.4-6.285-26.4-14.041S-380.626,251.829-366.046,251.829Z" transform="translate(392.446 -251.829)" fill="#f6f6f6"/>
          </g>
          <g id="Grupo_73368" data-name="Grupo 73368" transform="translate(4.145 6.833)">
            <path id="Trazado_116335" data-name="Trazado 116335" d="M-385.376,256.507c4.057-2.736,10.333-4.5,17.395-4.5a37.5,37.5,0,0,1,11.591,1.757l1.834-.175,8.729,3.37v6.833c0,6.507-9.919,11.785-22.153,11.785s-22.155-5.277-22.155-11.785v-6.833Z" transform="translate(390.136 -252.006)" fill="#4f83fd"/>
          </g>
          <g id="Grupo_73369" data-name="Grupo 73369" transform="translate(4.145)">
            <path id="Trazado_116336" data-name="Trazado 116336" d="M-367.981,248.373c12.234,0,22.153,5.275,22.153,11.785s-9.919,11.785-22.153,11.785-22.155-5.277-22.155-11.785S-380.217,248.373-367.981,248.373Z" transform="translate(390.136 -248.373)" fill="#71a0ff"/>
          </g>
        </g>
      </g>
    </g>
    <g id="Grupo_73424" data-name="Grupo 73424" transform="translate(1088.207 10006.826)">
      <path id="Trazado_116350" data-name="Trazado 116350" d="M-371.309,253.373l30.052,17.351c3.393,1.959,9.375,1.711,13.293-.552l79.329-45.8c3.918-2.262,4.347-5.716.955-7.675l-30.052-17.349c-3.394-1.959-9.375-1.711-13.293.55l-79.329,45.8C-374.273,247.959-374.7,251.414-371.309,253.373Z" transform="translate(373.598 -194.233)" fill="#92b4d1" opacity="0.251"/>
      <g id="Grupo_73423" data-name="Grupo 73423" transform="translate(2.578)">
        <g id="Grupo_73389" data-name="Grupo 73389" transform="translate(0 3.652)">
          <path id="Trazado_116351" data-name="Trazado 116351" d="M-371.077,243.288l2.633.3c.149-.1.294-.193.454-.287l75.5-43.591c3.729-2.153,9.423-2.389,12.652-.525l28.6,16.514c.169.1.321.2.47.305l1.7-.727v3.411a2.216,2.216,0,0,1,0,.241V219h0c-.06,1.4-1.094,2.862-3.074,4.006l-75.5,43.591c-3.729,2.153-9.423,2.389-12.654.525l-28.6-16.514a3.833,3.833,0,0,1-2.163-2.95l-.016-.007Z" transform="translate(371.077 -197.927)" fill="#c0d5ff"/>
        </g>
        <g id="Grupo_73390" data-name="Grupo 73390" transform="translate(0)">
          <path id="Trazado_116352" data-name="Trazado 116352" d="M-368.9,248.058l28.6,16.514c3.23,1.865,8.925,1.628,12.654-.525l75.5-43.591c3.729-2.153,4.138-5.44.907-7.305l-28.6-16.514c-3.229-1.865-8.923-1.628-12.652.525L-368,240.753C-371.725,242.906-372.133,246.194-368.9,248.058Z" transform="translate(371.083 -195.379)" fill="#f6f6f6"/>
        </g>
        <g id="Grupo_73422" data-name="Grupo 73422" transform="translate(13.96 5.512)">
          <g id="Grupo_73393" data-name="Grupo 73393" transform="translate(68.167 19.747)">
            <g id="Grupo_73392" data-name="Grupo 73392">
              <path id="Trazado_116353" data-name="Trazado 116353" d="M-345.391,217.9c3,0,5.422-1.291,5.422-2.884v3.805c0,1.592-2.426,2.884-5.422,2.884s-5.421-1.291-5.421-2.884v-3.805C-350.811,216.607-348.384,217.9-345.391,217.9Z" transform="translate(350.811 -212.131)" fill="#748fff"/>
              <g id="Grupo_73391" data-name="Grupo 73391">
                <path id="Trazado_116354" data-name="Trazado 116354" d="M-345.391,213c3,0,5.422,1.291,5.422,2.884s-2.426,2.884-5.422,2.884-5.421-1.291-5.421-2.884S-348.384,213-345.391,213Z" transform="translate(350.811 -213.003)" fill="#6abff4"/>
              </g>
            </g>
          </g>
          <g id="Grupo_73421" data-name="Grupo 73421" transform="translate(0)">
            <g id="Grupo_73396" data-name="Grupo 73396" transform="translate(66.549)">
              <g id="Grupo_73395" data-name="Grupo 73395">
                <path id="Trazado_116355" data-name="Trazado 116355" d="M-344.262,204.121c2.994,0,5.422-1.291,5.422-2.884v3.807c0,1.592-2.428,2.884-5.422,2.884s-5.42-1.291-5.42-2.884v-3.807C-349.682,202.829-347.256,204.121-344.262,204.121Z" transform="translate(349.682 -198.353)" fill="#748fff"/>
                <g id="Grupo_73394" data-name="Grupo 73394">
                  <path id="Trazado_116356" data-name="Trazado 116356" d="M-344.262,199.225c2.994,0,5.422,1.291,5.422,2.884s-2.428,2.884-5.422,2.884-5.42-1.291-5.42-2.884S-347.256,199.225-344.262,199.225Z" transform="translate(349.682 -199.225)" fill="#6abff4"/>
                </g>
              </g>
            </g>
            <g id="Grupo_73399" data-name="Grupo 73399" transform="translate(84.804 10.137)">
              <g id="Grupo_73398" data-name="Grupo 73398">
                <path id="Trazado_116357" data-name="Trazado 116357" d="M-357,211.194c2.994,0,5.42-1.291,5.42-2.884v3.805c0,1.592-2.426,2.884-5.42,2.884s-5.422-1.291-5.422-2.884V208.31C-362.419,209.9-359.991,211.194-357,211.194Z" transform="translate(362.419 -205.426)" fill="#748fff"/>
                <g id="Grupo_73397" data-name="Grupo 73397">
                  <path id="Trazado_116358" data-name="Trazado 116358" d="M-357,206.3c2.994,0,5.42,1.29,5.42,2.884s-2.426,2.884-5.42,2.884-5.422-1.291-5.422-2.884S-359.991,206.3-357,206.3Z" transform="translate(362.419 -206.298)" fill="#6abff4"/>
                </g>
              </g>
            </g>
            <g id="Grupo_73402" data-name="Grupo 73402" transform="translate(49.91 9.611)">
              <g id="Grupo_73401" data-name="Grupo 73401">
                <path id="Trazado_116359" data-name="Trazado 116359" d="M-332.652,210.827c2.994,0,5.422-1.291,5.422-2.884v3.805c0,1.592-2.428,2.884-5.422,2.884s-5.422-1.291-5.422-2.884v-3.805C-338.074,209.535-335.646,210.827-332.652,210.827Z" transform="translate(338.074 -205.059)" fill="#748fff"/>
                <g id="Grupo_73400" data-name="Grupo 73400">
                  <path id="Trazado_116360" data-name="Trazado 116360" d="M-332.652,205.931c2.994,0,5.422,1.29,5.422,2.884s-2.428,2.884-5.422,2.884-5.422-1.291-5.422-2.884S-335.646,205.931-332.652,205.931Z" transform="translate(338.074 -205.931)" fill="#6abff4"/>
                </g>
              </g>
            </g>
            <g id="Grupo_73405" data-name="Grupo 73405" transform="translate(33.274 18.764)">
              <g id="Grupo_73404" data-name="Grupo 73404">
                <path id="Trazado_116361" data-name="Trazado 116361" d="M-321.043,217.213c2.994,0,5.42-1.291,5.42-2.884v3.807c0,1.592-2.426,2.884-5.42,2.884s-5.422-1.291-5.422-2.884v-3.807C-326.465,215.921-324.037,217.213-321.043,217.213Z" transform="translate(326.465 -211.445)" fill="#748fff"/>
                <g id="Grupo_73403" data-name="Grupo 73403">
                  <path id="Trazado_116362" data-name="Trazado 116362" d="M-321.043,212.317c2.994,0,5.42,1.291,5.42,2.884s-2.426,2.884-5.42,2.884-5.422-1.291-5.422-2.884S-324.037,212.317-321.043,212.317Z" transform="translate(326.465 -212.317)" fill="#6abff4"/>
                </g>
              </g>
            </g>
            <g id="Grupo_73408" data-name="Grupo 73408" transform="translate(51.53 28.901)">
              <g id="Grupo_73407" data-name="Grupo 73407">
                <path id="Trazado_116363" data-name="Trazado 116363" d="M-333.783,224.286c2.994,0,5.422-1.291,5.422-2.884v3.805c0,1.592-2.428,2.884-5.422,2.884s-5.42-1.291-5.42-2.884V221.4C-339.2,222.994-336.777,224.286-333.783,224.286Z" transform="translate(339.203 -218.518)" fill="#748fff"/>
                <g id="Grupo_73406" data-name="Grupo 73406">
                  <path id="Trazado_116364" data-name="Trazado 116364" d="M-333.783,219.39c2.994,0,5.422,1.291,5.422,2.884s-2.428,2.884-5.422,2.884-5.42-1.291-5.42-2.884S-336.777,219.39-333.783,219.39Z" transform="translate(339.203 -219.39)" fill="#6abff4"/>
                </g>
              </g>
            </g>
            <g id="Grupo_73411" data-name="Grupo 73411" transform="translate(16.637 28.375)">
              <g id="Grupo_73410" data-name="Grupo 73410">
                <path id="Trazado_116365" data-name="Trazado 116365" d="M-309.435,223.919c2.994,0,5.42-1.291,5.42-2.884v3.805c0,1.592-2.426,2.884-5.42,2.884s-5.422-1.291-5.422-2.884v-3.805C-314.857,222.627-312.429,223.919-309.435,223.919Z" transform="translate(314.857 -218.151)" fill="#748fff"/>
                <g id="Grupo_73409" data-name="Grupo 73409">
                  <path id="Trazado_116366" data-name="Trazado 116366" d="M-309.435,219.023c2.994,0,5.42,1.29,5.42,2.884s-2.426,2.884-5.42,2.884-5.422-1.291-5.422-2.884S-312.429,219.023-309.435,219.023Z" transform="translate(314.857 -219.023)" fill="#6abff4"/>
                </g>
              </g>
            </g>
            <g id="Grupo_73414" data-name="Grupo 73414" transform="translate(34.892 38.511)">
              <g id="Grupo_73413" data-name="Grupo 73413">
                <path id="Trazado_116367" data-name="Trazado 116367" d="M-322.173,230.991c2.994,0,5.422-1.291,5.422-2.884v3.807c0,1.592-2.428,2.884-5.422,2.884s-5.422-1.291-5.422-2.884v-3.807C-327.595,229.7-325.167,230.991-322.173,230.991Z" transform="translate(327.595 -225.223)" fill="#748fff"/>
                <g id="Grupo_73412" data-name="Grupo 73412">
                  <path id="Trazado_116368" data-name="Trazado 116368" d="M-322.173,226.1c2.994,0,5.422,1.291,5.422,2.884s-2.428,2.884-5.422,2.884-5.422-1.291-5.422-2.884S-325.167,226.1-322.173,226.1Z" transform="translate(327.595 -226.095)" fill="#6abff4"/>
                </g>
              </g>
            </g>
            <g id="Grupo_73417" data-name="Grupo 73417" transform="translate(0 37.985)">
              <g id="Grupo_73416" data-name="Grupo 73416">
                <path id="Trazado_116369" data-name="Trazado 116369" d="M-297.828,230.624c2.994,0,5.422-1.291,5.422-2.884v3.805c0,1.592-2.428,2.884-5.422,2.884s-5.42-1.291-5.42-2.884V227.74C-303.249,229.332-300.823,230.624-297.828,230.624Z" transform="translate(303.249 -224.856)" fill="#748fff"/>
                <g id="Grupo_73415" data-name="Grupo 73415">
                  <path id="Trazado_116370" data-name="Trazado 116370" d="M-297.828,225.728c2.994,0,5.422,1.291,5.422,2.884s-2.428,2.884-5.422,2.884-5.42-1.291-5.42-2.884S-300.823,225.728-297.828,225.728Z" transform="translate(303.249 -225.728)" fill="#6abff4"/>
                </g>
              </g>
            </g>
            <g id="Grupo_73420" data-name="Grupo 73420" transform="translate(18.255 48.12)">
              <g id="Grupo_73419" data-name="Grupo 73419">
                <path id="Trazado_116371" data-name="Trazado 116371" d="M-310.564,237.7c2.994,0,5.421-1.291,5.421-2.885v3.807c0,1.592-2.427,2.884-5.421,2.884s-5.422-1.291-5.422-2.884v-3.807C-315.986,236.406-313.558,237.7-310.564,237.7Z" transform="translate(315.986 -231.928)" fill="#748fff"/>
                <g id="Grupo_73418" data-name="Grupo 73418">
                  <path id="Trazado_116372" data-name="Trazado 116372" d="M-310.564,232.8c2.994,0,5.421,1.291,5.421,2.884s-2.427,2.885-5.421,2.885-5.422-1.291-5.422-2.885S-313.558,232.8-310.564,232.8Z" transform="translate(315.986 -232.8)" fill="#6abff4"/>
                </g>
              </g>
            </g>
          </g>
        </g>
      </g>
    </g>
    <g id="Grupo_73388" data-name="Grupo 73388" transform="translate(1025.465 10073.676)">
      <path id="Trazado_116337" data-name="Trazado 116337" d="M-248.862,359.44l-100.287-57.817,54.9-31.7,100.287,57.817Z" transform="translate(349.149 -250.285)" fill="#92b4d1" opacity="0.191"/>
      <g id="Grupo_73387" data-name="Grupo 73387" transform="translate(9.152 0)">
        <g id="Grupo_73373" data-name="Grupo 73373" transform="translate(0)">
          <path id="Trazado_116338" data-name="Trazado 116338" d="M-252.267,335.751l-90.866-52.461,46.343-26.756,90.866,52.461Z" transform="translate(343.132 -256.534)" fill="#f6f6f6"/>
        </g>
        <g id="Grupo_73374" data-name="Grupo 73374" transform="translate(48.472 33.384)">
          <path id="Trazado_116339" data-name="Trazado 116339" d="M-289.853,321.249-332.246,296.9l30.378-17.607,42.393,24.345Z" transform="translate(332.246 -279.297)" fill="#6abff4"/>
        </g>
        <g id="Grupo_73375" data-name="Grupo 73375" transform="translate(42.187 4.937)">
          <path id="Trazado_116340" data-name="Trazado 116340" d="M-254.509,310.3l-83.565-48.247,4.04-2.158,83.565,48.247Z" transform="translate(338.075 -259.9)" fill="#71a0ff"/>
        </g>
        <g id="Grupo_73376" data-name="Grupo 73376" transform="translate(33.964 9.842)">
          <path id="Trazado_116341" data-name="Trazado 116341" d="M-264.2,285.7l-35.489-20.3,4.04-2.158,35.489,20.3Z" transform="translate(299.686 -263.245)" fill="#71a0ff"/>
        </g>
        <g id="Grupo_73377" data-name="Grupo 73377" transform="translate(25.669 14.314)">
          <path id="Trazado_116342" data-name="Trazado 116342" d="M-258.541,288.749l-35.489-20.3,4.04-2.158,35.489,20.3Z" transform="translate(294.029 -266.294)" fill="#71a0ff"/>
        </g>
        <g id="Grupo_73378" data-name="Grupo 73378" transform="translate(0 26.756)">
          <path id="Trazado_116343" data-name="Trazado 116343" d="M-311.532,298.687V274.778l90.866,52.461v23.909Z" transform="translate(311.532 -274.778)" fill="#c0d5ff"/>
        </g>
        <g id="Grupo_73379" data-name="Grupo 73379" transform="translate(90.866 52.461)">
          <path id="Trazado_116344" data-name="Trazado 116344" d="M-296.789,316.215V292.305l-46.343,26.756v23.909Z" transform="translate(343.132 -292.305)" fill="#b3c8f2"/>
        </g>
        <g id="Grupo_73380" data-name="Grupo 73380" transform="translate(96.477 61.8)">
          <path id="Trazado_116345" data-name="Trazado 116345" d="M-304.185,309.987V298.674l-35.121,20.277v11.314Z" transform="translate(339.306 -298.674)" fill="#b3c8f2"/>
        </g>
        <g id="Grupo_73383" data-name="Grupo 73383" transform="translate(65.807 42.639)">
          <g id="Grupo_73381" data-name="Grupo 73381" transform="translate(0 0.11)">
            <path id="Trazado_116346" data-name="Trazado 116346" d="M-293.975,294.133c-.845-2.5-2.075-8.45-2.075-8.45l-4.58,1.709c-2.171.732-2.709,4.939-1.2,9.4s4.485,7.476,7.256,6.539l3.977-1.5S-293.132,296.632-293.975,294.133Z" transform="translate(302.687 -285.683)" fill="#c0d5ff"/>
          </g>
          <g id="Grupo_73382" data-name="Grupo 73382" transform="translate(4.58)">
            <path id="Trazado_116347" data-name="Trazado 116347" d="M-303.237,295.114c1.5,4.457,4.485,7.477,6.654,6.743s2.71-4.941,1.205-9.4-4.485-7.475-6.655-6.742S-304.742,290.657-303.237,295.114Z" transform="translate(304.09 -285.608)" fill="#fff"/>
          </g>
        </g>
        <g id="Grupo_73386" data-name="Grupo 73386" transform="translate(84.838 48.676)">
          <g id="Grupo_73384" data-name="Grupo 73384" transform="translate(0.019 3.117)">
            <path id="Trazado_116348" data-name="Trazado 116348" d="M-310.77,293.712c-2.613.356-8.691.44-8.691.44l.812,4.82c.309,2.27,4.34,3.595,9,2.958s8.188-2.99,7.793-5.89l-.728-4.191S-308.156,293.356-310.77,293.712Z" transform="translate(319.461 -291.85)" fill="#c0d5ff"/>
          </g>
          <g id="Grupo_73385" data-name="Grupo 73385" transform="translate(0)">
            <path id="Trazado_116349" data-name="Trazado 116349" d="M-309.938,298.1c4.661-.635,8.188-2.99,7.878-5.26s-4.339-3.593-9-2.958-8.188,2.992-7.878,5.26S-314.6,298.739-309.938,298.1Z" transform="translate(318.957 -289.725)" fill="#fff"/>
          </g>
        </g>
      </g>
    </g>
  </g>
</svg>
