<svg xmlns="http://www.w3.org/2000/svg" width="100" height="100" viewBox="0 0 100 100">
  <g id="Grupo_75301" data-name="Grupo 75301" transform="translate(-3282 6163.121)">
    <g id="Grupo_75296" data-name="Grupo 75296" transform="translate(2104.676 -8800)">
      <g id="Grupo_75020" data-name="Grupo 75020" transform="translate(1177.324 2636.879)">
        <g id="Grupo_75019" data-name="Grupo 75019">
          <g id="Grupo_75019-2" data-name="Grupo 75019" transform="translate(0)">
            <path id="Trazado_145929" data-name="Trazado 145929" d="M1862.292,1589.545h-1.811a20.611,20.611,0,0,0-3.237-.1c-5.075.086-9.849-1.283-14.528-3.062a52.774,52.774,0,0,1-16.334-10.005,1.977,1.977,0,0,1-.713-1.278,5.5,5.5,0,0,1,.012-1.849,6.585,6.585,0,0,1,3.385-4.953,5.783,5.783,0,0,1,2.873-.771c2.175-.019,4.351.1,6.525-.081a6.145,6.145,0,0,1,1.8-.151q24.314,0,48.629.008c.609,0,1.292-.192,1.779.4-.363.556-.945.418-1.455.422-3.082.019-6.165.009-9.247.009q-14.073,0-28.146,0a5.828,5.828,0,0,0-5.973,5.122,6.022,6.022,0,0,0,5.434,6.708c.435.027.871.015,1.307.015q15.229,0,30.457,0a3.336,3.336,0,0,1,1.771.221c.6,1.094.188,2.283.319,3.422-.065.489-.491.6-.841.765a50.186,50.186,0,0,1-16.333,4.888,36.334,36.334,0,0,1-4.6.17A1.845,1.845,0,0,0,1862.292,1589.545Z" transform="translate(-1811.037 -1489.545)" fill="#91d0e9"/>
            <path id="Trazado_145930" data-name="Trazado 145930" d="M2182.72,1269.17a50.164,50.164,0,0,1,9.447,21.922,31.954,31.954,0,0,1,.6,5.254.67.67,0,0,0,.178.552v6.035a10.63,10.63,0,0,0-.353,3.047,51.8,51.8,0,0,1-4.657,16.078,52.639,52.639,0,0,1-10.057,14.278,15.561,15.561,0,0,1-1.223,1.028,1.816,1.816,0,0,1-.322-1.42c0-2.4-.032-4.8.017-7.206a20.761,20.761,0,0,1,.161-4.385c.332-.445.827-.359,1.283-.381a9.914,9.914,0,0,0,1.7-.1,3.487,3.487,0,0,0,2.9-3.562c.029-1.735-.012-3.471.02-5.207-.005-.9.022-1.794,0-2.69a3.459,3.459,0,0,0-1.944-3.233c-.285-.146-.642-.237-.671-.654.1-.371.448-.473.732-.631a3.5,3.5,0,0,0,1.878-3.292c0-1.867-.005-3.734.008-5.6,0-.635-.013-1.272.013-1.906a3.855,3.855,0,0,0-1.962-3.6c-.26-.167-.667-.225-.615-.684a.977.977,0,0,1,.435-.4,3.818,3.818,0,0,0,2.133-3.877c-.039-1.738-.014-3.478,0-5.216,0-.634.009-1.268.011-1.9a3.7,3.7,0,0,0-2.272-3.675,1.431,1.431,0,0,1-.5-.324.3.3,0,0,1,.036-.309c.409-.35.952-.476,1.363-.829a3.686,3.686,0,0,0,1.352-2.795c.031-1.067,0-2.135.016-3.2C2182.425,1269.892,2182.356,1269.469,2182.72,1269.17Z" transform="translate(-2092.95 -1251.415)" fill="#fce47f"/>
            <path id="Trazado_145931" data-name="Trazado 145931" d="M1747,1271.043a10.7,10.7,0,0,0,.354-3.047,51.024,51.024,0,0,1,4.659-16.071,48.692,48.692,0,0,1,11.047-15.121.581.581,0,0,1,.261.411,12.972,12.972,0,0,1-.129,4.453,1.916,1.916,0,0,1-.968.495,5.969,5.969,0,0,0-4.622,5.86c-.038.5-.024,1-.024,1.507q0,26.734-.008,53.468c0,.617.166,1.285-.322,1.825a50.1,50.1,0,0,1-9.034-19.68,38.392,38.392,0,0,1-1.03-7.312c-.007-.261.044-.543-.183-.753Z" transform="translate(-1747 -1222.56)" fill="#fce47f"/>
            <path id="Trazado_145932" data-name="Trazado 145932" d="M1906.2,1166a10.565,10.565,0,0,0,3.041.354,51.137,51.137,0,0,1,19.066,6.207c-.288.439-.754.38-1.178.4-.77.03-1.541.011-2.311.011h-43.311a10.267,10.267,0,0,1-1.2-.03c-.764-.074-1.61.313-2.26-.4a51.761,51.761,0,0,1,15.531-5.632,34.449,34.449,0,0,1,5.738-.719c.291,0,.609.067.852-.184Z" transform="translate(-1853.181 -1166)" fill="#fce47f"/>
            <path id="Trazado_145933" data-name="Trazado 145933" d="M1982,1677.061c0-.069,0-.138,0-.206,1.138.094,2.3-.234,3.417.206Z" transform="translate(-1936.149 -1577.061)" fill="#daecf6"/>
            <path id="Trazado_145934" data-name="Trazado 145934" d="M1887.627,1198.682q12.166-.009,24.332-.019,11.262-.005,22.523,0c.4,0,.8-.031,1.2-.048q3.857.027,7.714.054c1.687.013,2.341.675,2.354,2.38.007.869-.007,1.738,0,2.606.02,1.733-.215,1.483,1.466,1.52a2.117,2.117,0,0,1,1.175.128c-.264.328-.645.307-1.008.335-1.3.1-1.3.1-1.308,1.42-.017,2.3.026,4.6-.02,6.907.041,1.809.028,3.618.008,5.427-.009.808.276,1.163,1.111,1.132.547-.02,1.153-.147,1.613.333l-.017.126c-.384.448-.916.332-1.4.352-1.227.05-1.28.088-1.29,1.342-.019,2.342.024,4.685-.019,7.028q.06,3.406,0,6.81c.04,2.945.045,5.889,0,8.834.038,2.285.042,4.57,0,6.854q.06,4.321,0,8.641c.053,1.968.018,3.936.018,5.9a1.559,1.559,0,0,1-.295,1.134q-.041,2.225-.082,4.451a1.589,1.589,0,0,1-1.43,1.207,14.733,14.733,0,0,1-4.24-.078l-.133-.121c-.286-.358-.686-.2-1.032-.2q-24.986-.012-49.972-.008a3.424,3.424,0,0,0-1.287.153c-.455-.552-.306-1.215-.307-1.835q-.014-15.572-.007-31.144,0-19.892.005-39.785A2.638,2.638,0,0,1,1887.627,1198.682Z" transform="translate(-1862.06 -1192.051)" fill="#799fe9"/>
            <path id="Trazado_145935" data-name="Trazado 145935" d="M1838.118,1198.584q0,36.748,0,73.495c0,.368-.01.737-.016,1.105-2,.011-4.006.144-5.994,0-2.891-.205-6.069,2.357-6.306,5.23-.007.089-.094.171-.143.256-.474-.5-.336-1.136-.337-1.723q-.016-11.062-.007-22.124,0-20.967.005-41.934a2.7,2.7,0,0,1,.317-1.841q-.013-2.427-.026-4.855a17.367,17.367,0,0,1,.244-3.094,6.262,6.262,0,0,1,5.637-4.526c1.474-.026,2.947-.059,4.421-.089Z" transform="translate(-1810.075 -1191.953)" fill="#6d84d1"/>
            <path id="Trazado_145936" data-name="Trazado 145936" d="M1963.6,1582.506c-.9-.012-1.809-.033-2.714-.034q-15.186,0-30.373,0a6.242,6.242,0,0,1-6.331-6.2,6.121,6.121,0,0,1,6.072-6.287q19.561.023,39.123.014l.039-.014a1.875,1.875,0,0,1,.314,1.331c.008,3.234,0,6.469,0,9.7a2.508,2.508,0,0,1-.325,1.44l-.039.027A12.516,12.516,0,0,1,1963.6,1582.506Z" transform="translate(-1890.4 -1491.713)" fill="#daecf6"/>
            <path id="Trazado_145937" data-name="Trazado 145937" d="M1803.777,1260.939q0,33.309.008,66.617c0,.335.009.67.013,1a8.7,8.7,0,0,0,.068,2,10.949,10.949,0,0,1-2.574-2.41,36.218,36.218,0,0,1-3.354-4.054c.012-.4.034-.8.034-1.2q0-27.548,0-55.1c0-3.269,1.567-5.62,4.338-6.52C1802.788,1261.126,1803.289,1261.051,1803.777,1260.939Z" transform="translate(-1787.691 -1244.84)" fill="#5f6ab8"/>
            <path id="Trazado_145938" data-name="Trazado 145938" d="M2120.039,1632.143l5.769-.023a41.714,41.714,0,0,1-5.619,3.4A14.786,14.786,0,0,1,2120.039,1632.143Z" transform="translate(-2047.29 -1541.35)" fill="#606ab8"/>
            <path id="Trazado_145939" data-name="Trazado 145939" d="M2149.009,1578.514q0-6.237.007-12.473c1.033,0,2.069-.057,3.1.018a2.914,2.914,0,0,0,2.667-1.011q.032,4.335.065,8.671A38.723,38.723,0,0,1,2149.009,1578.514Z" transform="translate(-2070.633 -1487.77)" fill="#6d85d1"/>
            <path id="Trazado_145940" data-name="Trazado 145940" d="M2177.948,1240.542c-.006-2.567.013-5.135-.035-7.7-.014-.742.192-1.031.952-.96a14.542,14.542,0,0,0,1.7-.029,3.542,3.542,0,0,1,3.361,3.465c.052,1,.009,2,.009,3.007C2183.062,1240.443,2180.8,1241.369,2177.948,1240.542Z" transform="translate(-2094.225 -1218.605)" fill="#5f6ab8"/>
            <path id="Trazado_145941" data-name="Trazado 145941" d="M2177.97,1266.241c.436,0,.873-.036,1.306,0,1.834.137,3.378-.314,4.341-2.034.052-.094.222-.121.337-.179q.031.517.063,1.035-.017,2.057-.033,4.114a3.716,3.716,0,0,1-3,3.932c-.766,0-1.534-.036-2.3,0-.576.024-.748-.211-.741-.761C2177.969,1270.307,2177.963,1268.274,2177.97,1266.241Z" transform="translate(-2094.247 -1244.934)" fill="#524fa0"/>
            <path id="Trazado_145942" data-name="Trazado 145942" d="M2178.075,1394.4l-.01-8.828a3.687,3.687,0,0,1,3.2,0,4.359,4.359,0,0,1,2.821,4.856c-.04.4-.02.8-.027,1.2A4.431,4.431,0,0,1,2178.075,1394.4Z" transform="translate(-2094.347 -1342.52)" fill="#baee88"/>
            <path id="Trazado_145943" data-name="Trazado 145943" d="M2178.1,1472.219l0-8.651a3.706,3.706,0,0,1,3.167-.014,4.122,4.122,0,0,1,2.842,4.667c-.047.594-.019,1.193-.025,1.79C2183.153,1472.327,2180.951,1473.006,2178.1,1472.219Z" transform="translate(-2094.372 -1405.331)" fill="#fa6467"/>
            <path id="Trazado_145944" data-name="Trazado 145944" d="M2177.962,1318.483c-.008-2.634,0-5.267-.035-7.9-.009-.637.246-.8.828-.779.731.03,1.465-.007,2.2-.015a3.574,3.574,0,0,1,2.984,3.492c.039.8,0,1.6-.007,2.395C2183.708,1317.994,2180.742,1319.447,2177.962,1318.483Z" transform="translate(-2094.237 -1281.785)" fill="#14bfea"/>
            <path id="Trazado_145945" data-name="Trazado 145945" d="M2178.107,1499.24c.7,0,1.4-.034,2.09.005a3.459,3.459,0,0,0,3.448-1.871c.1-.184.215-.331.443-.343.01,1.805.035,3.61.025,5.415a3.75,3.75,0,0,1-3.8,3.816c-.735.017-1.471,0-2.206,0Q2178.107,1502.751,2178.107,1499.24Z" transform="translate(-2094.38 -1432.568)" fill="#ee525a"/>
            <path id="Trazado_145946" data-name="Trazado 145946" d="M2178.071,1341.861a20.228,20.228,0,0,0,2.694-.042,4.276,4.276,0,0,0,3.274-2.766c.012,2.077.094,4.156.016,6.229a3.7,3.7,0,0,1-2.786,3.421h-3.205Q2178.068,1345.282,2178.071,1341.861Z" transform="translate(-2094.346 -1305.359)" fill="#029ccb"/>
            <path id="Trazado_145947" data-name="Trazado 145947" d="M2181.264,1426.755l-3.167.014q0-3.43,0-6.859c.859-.038,1.713-.018,2.577-.105a3.729,3.729,0,0,0,3.18-2.353,1.976,1.976,0,0,1,.23-.312c.007,1.671-.058,3.346.038,5.011A4.167,4.167,0,0,1,2181.264,1426.755Z" transform="translate(-2094.372 -1368.241)" fill="#7dd676"/>
            <path id="Trazado_145948" data-name="Trazado 145948" d="M1971.668,1439.995q6.336,0,12.672,0a1.733,1.733,0,1,1,.024,3.417q-12.671.008-25.343,0a1.872,1.872,0,0,1-2.013-1.784c0-.96.805-1.631,1.989-1.632Q1965.332,1439.992,1971.668,1439.995Z" transform="translate(-1916.482 -1386.535)" fill="#6d85d1"/>
            <path id="Trazado_145949" data-name="Trazado 145949" d="M1971.7,1474q6.334,0,12.669,0a1.733,1.733,0,1,1-.014,3.417q-12.719.006-25.438,0a1.719,1.719,0,1,1,.014-3.417Q1965.314,1473.992,1971.7,1474Z" transform="translate(-1916.489 -1413.902)" fill="#6d84d1"/>
            <path id="Trazado_145950" data-name="Trazado 145950" d="M1997.316,1511.4c-2.111,0-4.221,0-6.333,0a1.847,1.847,0,0,1-1.864-1.695,1.8,1.8,0,0,1,1.768-1.715q6.483-.029,12.966,0a1.775,1.775,0,0,1,1.707,1.765,1.831,1.831,0,0,1-1.811,1.64C2001.6,1511.4,1999.46,1511.4,1997.316,1511.4Z" transform="translate(-1942.1 -1441.25)" fill="#6d85d1"/>
            <path id="Trazado_145951" data-name="Trazado 145951" d="M2028.672,1325.17a7.507,7.507,0,0,1,2.213-3.839,3.57,3.57,0,0,1,3.05-1.445.75.75,0,0,1,.427.211.97.97,0,0,1-.117.85,6.036,6.036,0,0,0,.312,5.438.714.714,0,0,1,.062.3A44.024,44.024,0,0,1,2032.2,1331a.791.791,0,0,1-.475.338c-1.69-.81-2.437-2.35-3.074-3.975A2.043,2.043,0,0,1,2028.672,1325.17Z" transform="translate(-1973.5 -1289.943)" fill="#fcce49"/>
            <path id="Trazado_145952" data-name="Trazado 145952" d="M1972.811,1332.253a6.069,6.069,0,0,1,1.34-11.094,3.758,3.758,0,0,1,1.278-.137.512.512,0,0,1,.008.477,6.529,6.529,0,0,0,.156,5.826,1.081,1.081,0,0,1,.019.3A15.6,15.6,0,0,1,1972.811,1332.253Z" transform="translate(-1926.325 -1290.852)" fill="#fcce49"/>
            <path id="Trazado_145953" data-name="Trazado 145953" d="M1998.126,1330.8c-.01-.064-.019-.127-.026-.191a3.167,3.167,0,0,1,.48-1.193c.754-1.344,1.569-2.652,2.32-4,.125-.224.221-.508.567-.485,1.755.894,2.511,2.5,3.046,4.266q-.009,1.1-.017,2.2c-.41.626-.432,1.446-.994,2a1.649,1.649,0,0,1-1.427.193C2000.393,1333.191,1998.873,1332.539,1998.126,1330.8Z" transform="translate(-1949.155 -1293.982)" fill="#fa6467"/>
            <path id="Trazado_145954" data-name="Trazado 145954" d="M2058.7,1330.52c-.006-.061-.014-.123-.024-.183a.481.481,0,0,1-.012-.3,33.311,33.311,0,0,1,3.209-5.373c.289-.1.477.059.647.258a6.423,6.423,0,0,1,2.445,5.152,5.443,5.443,0,0,1-1,3.089,2.8,2.8,0,0,1-2.738-.236C2060.133,1332.427,2059.019,1331.865,2058.7,1330.52Z" transform="translate(-1997.892 -1293.742)" fill="#fa6467"/>
            <path id="Trazado_145955" data-name="Trazado 145955" d="M2018.158,1270.173c-.952-1.632-2-3.218-2.836-4.907a3.484,3.484,0,0,1,3.416-5.139c.167.508-.283.865-.323,1.33a4.9,4.9,0,0,0,.646,3.081c.747,1.226,1.424,2.494,2.161,3.727a.493.493,0,0,1-.005.3A6.791,6.791,0,0,1,2018.158,1270.173Z" transform="translate(-1962.68 -1241.799)" fill="#7dd676"/>
            <path id="Trazado_145956" data-name="Trazado 145956" d="M2033.911,1268.382c-1.268-2.006-2.945-3.807-3.04-6.385a3.356,3.356,0,0,1,.622-1.855,3.175,3.175,0,0,1,2.732,1.584,33.9,33.9,0,0,1,2.722,4.977A5.059,5.059,0,0,1,2033.911,1268.382Z" transform="translate(-1975.53 -1241.802)" fill="#baee89"/>
            <path id="Trazado_145957" data-name="Trazado 145957" d="M2047.938,1353.874a5.834,5.834,0,0,0,5.263,2.647,5.841,5.841,0,0,1-8.028,1.972Z" transform="translate(-1987.084 -1317.242)" fill="#ee525a"/>
            <path id="Trazado_145958" data-name="Trazado 145958" d="M1987.629,1354.1a6.86,6.86,0,0,0,3.794,2.512,11.168,11.168,0,0,0,1.583.083,5.884,5.884,0,0,1-8.045,1.986Z" transform="translate(-1938.602 -1317.422)" fill="#ee525a"/>
            <path id="Trazado_145959" data-name="Trazado 145959" d="M2045.872,1294.435l3.036-1.679c1.388,2.1,3.025,4.081,3.387,6.7l-.586-.228a25.538,25.538,0,0,1-3.422-.786l-.4-.04a8.872,8.872,0,0,1-2.046-3.812C2045.851,1294.539,2045.861,1294.487,2045.872,1294.435Z" transform="translate(-1987.592 -1268.05)" fill="#14bfea"/>
            <path id="Trazado_145960" data-name="Trazado 145960" d="M1997.809,1321.723l-3.367,5.674a6.2,6.2,0,0,1-.026-6.459A5.314,5.314,0,0,1,1997.809,1321.723Z" transform="translate(-1945.435 -1290.717)" fill="#fce47e"/>
            <path id="Trazado_145961" data-name="Trazado 145961" d="M2034.054,1301.886l2.045,3.812a7.1,7.1,0,0,0-3.024,1.255,25.9,25.9,0,0,1-1.99-3.417Z" transform="translate(-1975.685 -1275.387)" fill="#029dcb"/>
            <path id="Trazado_145962" data-name="Trazado 145962" d="M2054.7,1320.919a5.273,5.273,0,0,1,3.422.786l-3.259,5.638c-1.161-1.112-1.319-4.257-.394-5.889A5.07,5.07,0,0,0,2054.7,1320.919Z" transform="translate(-1994.01 -1290.699)" fill="#fce47e"/>
          </g>
        </g>
      </g>
    </g>
  </g>
</svg>
