<svg xmlns="http://www.w3.org/2000/svg" width="100" height="100" viewBox="0 0 100 100">
  <g id="Grupo_75306" data-name="Grupo 75306" transform="translate(-3282 6932.527)">
    <g id="Grupo_75294" data-name="Grupo 75294" transform="translate(2104.676 -8800)">
      <g id="Grupo_75017" data-name="Grupo 75017" transform="translate(1177.324 1867.473)">
        <g id="Grupo_75016" data-name="Grupo 75016">
          <g id="Grupo_75008" data-name="Grupo 75008">
            <g id="Grupo_75007" data-name="Grupo 75007">
              <path id="Trazado_145854" data-name="Trazado 145854" d="M2042,1131.339v1.17c-.206.375-.048.781-.1,1.169.05.389-.109.8.1,1.171v1.17c-.243,1.561-.129,3.156-.41,4.707a16.976,16.976,0,0,1-1.362,5.225.971.971,0,0,1-1,.173,5.823,5.823,0,0,0-4.414.633c-2.654,1.435-5.352,2.785-8.065,4.1-1.573.765-3.139,1.552-4.774,2.186-1.017.536-2.06,1.015-3.12,1.457-.375.156-.765.379-1.16.029a1.323,1.323,0,0,1-.042-1.044,3.028,3.028,0,0,0-1.512-3.487,15.271,15.271,0,0,0-5.539-2.082c-2.612-.545-5.207-1.158-7.8-1.764a29.412,29.412,0,0,1-7.874-3.582,13.2,13.2,0,0,0-7.073-1.88c-1.2.036-2.407-.053-3.607.1a17.9,17.9,0,0,0-3.091.763,32.29,32.29,0,0,1-9.724.9,1.479,1.479,0,0,1-.995-.32,1.721,1.721,0,0,1-.314-1.2c-.01-.715.021-1.43-.018-2.144-.086-1.568-.68-2.152-2.261-2.172-2.31-.028-4.62,0-6.93-.01a2.413,2.413,0,0,1-1.414-.273,1.044,1.044,0,0,1-.377-.439,2.011,2.011,0,0,0-2.2-1.238q-4.924.013-9.849,0c-1.2,0-2.405.006-3.608,0a1.781,1.781,0,0,1-1.211-.263c-.356-.526.03-1.161-.249-1.7v-1.365c.206-.375.048-.781.1-1.169-.05-.389.108-.8-.1-1.171v-1.17a28.425,28.425,0,0,0,.259-3.075,43.4,43.4,0,0,1,4.143-14.133,48.906,48.906,0,0,1,9.826-14.071,50.537,50.537,0,0,1,24.171-13.584,56.67,56.67,0,0,1,7.5-.966h1.172c.376.206.782.048,1.171.1.39-.05.8.108,1.173-.1h1.172c.376.206.782.048,1.171.1.389-.05.8.108,1.173-.1h.976c1.6.23,3.228.149,4.825.4a45.723,45.723,0,0,1,11.8,3.6c.366.165.917.309.72.952a1.925,1.925,0,0,1-1.509.105,27.467,27.467,0,0,0-8.3.316,16.5,16.5,0,0,0-4.349,1.37c-8.159,3.7-13.19,9.94-14.606,18.781a24.455,24.455,0,0,0,22.09,27.943,23.763,23.763,0,0,0,17.733-5.646,20.735,20.735,0,0,0,2.25-2.007,34.75,34.75,0,0,0,3.969-6,23.987,23.987,0,0,0,.919-19.1c-.182-.5-.539-.992-.254-1.576.68-.2.908.364,1.2.747a50.672,50.672,0,0,1,7.257,13.706,36.055,36.055,0,0,1,2.255,12.072.485.485,0,0,0,.1.362V1129c-.206.375-.048.781-.1,1.169C2041.951,1130.557,2041.794,1130.963,2042,1131.339Z" transform="translate(-1942 -1082)" fill="#fce47f"/>
              <path id="Trazado_145855" data-name="Trazado 145855" d="M2128.664,1380.978a17.407,17.407,0,0,1,8.277.609,17.994,17.994,0,0,1,3.832,1.928c2.988,1.932,6.349,2.8,9.765,3.58,2.977.679,6.049,1.033,8.855,2.351a9.759,9.759,0,0,1,1.764,1.033c1.64,1.249,1.688,2.887,1.031,4.663.139.516-.219.792-.543,1.055a6.089,6.089,0,0,1-4.936,1.381c-5.226-.788-10.465-1.485-15.7-2.2a2,2,0,0,0-.584-.028c-.6.1-1.058.356-1.12,1.03a1.065,1.065,0,0,0,.906,1.21,24.8,24.8,0,0,0,2.8.451q6.745.874,13.473,1.869a7.994,7.994,0,0,0,8.328-4.047,16.723,16.723,0,0,1,1.51-2.515c2.515-1.225,5.037-2.435,7.542-3.679,1.545-.767,3.084-1.552,4.589-2.394,1.924-1.077,3.887-1.64,6.049-.787,1.02.2,1.392,1.014,1.752,1.837.153.349.094.754.264,1.1v1.961a6,6,0,0,1-2.578,3.741c-1.606,1.213-3.117,2.552-4.817,3.644a82.138,82.138,0,0,1-7.02,4.637,107.786,107.786,0,0,1-16.465,8.211,23.443,23.443,0,0,1-11.936,1.083,103.872,103.872,0,0,1-14.22-3.233,4.131,4.131,0,0,1-1.343-.58,16.861,16.861,0,0,1-5.7-7.547,17.646,17.646,0,0,1,4.867-19.617C2127.721,1381.37,2128.254,1381.3,2128.664,1380.978Z" transform="translate(-2086.519 -1322.57)" fill="#f3c2b7"/>
              <path id="Trazado_145856" data-name="Trazado 145856" d="M2057.842,1481.237a90.977,90.977,0,0,0,14.81,3.572c1.746.254,3.5.385,5.246.493a15.593,15.593,0,0,0,6.123-1.086,96.86,96.86,0,0,0,19.625-9.906c1.679-1.065,3.332-2.171,5-3.258.362.535-.023.937-.273,1.33a50.827,50.827,0,0,1-23.116,19.28,39.06,39.06,0,0,1-15.081,3.4.478.478,0,0,0-.363.1h-1.177c-.317-.2-.669-.053-1-.1-.383.05-.785-.108-1.155.1H2065.3c-.377-.207-.785-.048-1.176-.1-.391.05-.8-.109-1.178.1h-1.177c-.989-.2-2-.137-3-.245-8.05-.876-15.22-4.013-21.856-8.514a21.861,21.861,0,0,1-2.73-2.07c-.3-.285-.8-.577-.339-1.124a2.3,2.3,0,0,1,1.33-.216c2.149-.009,4.3.008,6.448-.008,1.613-.012,2.212-.635,2.291-2.24a7.874,7.874,0,0,1,.223-2.989,1.084,1.084,0,0,1,1.048-.387,20.761,20.761,0,0,1,4.507.691c2.153.729,4.266,1.569,6.423,2.285C2056.731,1480.551,2057.248,1480.974,2057.842,1481.237Z" transform="translate(-2016.088 -1395.163)" fill="#fce47f"/>
              <path id="Trazado_145857" data-name="Trazado 145857" d="M1951.587,1376.726a48.963,48.963,0,0,1-8.194-17.7,53.378,53.378,0,0,1-1.186-7.13c-.019-.183.037-.4-.208-.494v-1.765c.051-.1.117-.119.2-.037q7.475.017,14.951.034c1.652,0,2.107.363,2.52,1.97a1.449,1.449,0,0,1,.386,1.169c0,7.216.037,14.431-.02,21.646-.1.306-.009.638-.127.941a2.629,2.629,0,0,1-2.777,1.553C1955.287,1376.8,1953.426,1377.1,1951.587,1376.726Z" transform="translate(-1942 -1297.371)" fill="#14bfea"/>
              <path id="Trazado_145858" data-name="Trazado 145858" d="M2445.735,1371.943a9,9,0,0,0-2.016-2.938,52.192,52.192,0,0,0,1.818-9.584.486.486,0,0,1,.2-.42Z" transform="translate(-2345.735 -1304.931)" fill="#fefefe"/>
              <path id="Trazado_145859" data-name="Trazado 145859" d="M1942.2,1343.532l-.2.037V1342C1942.36,1342.472,1942.128,1343.022,1942.2,1343.532Z" transform="translate(-1942 -1291.222)" fill="#fce997"/>
              <path id="Trazado_145860" data-name="Trazado 145860" d="M2453.168,1347.795c-.33-.347-.147-.779-.192-1.173q.092-.192.192,0Z" transform="translate(-2353.168 -1294.863)" fill="#fdeca5"/>
              <path id="Trazado_145861" data-name="Trazado 145861" d="M2453.172,1342.177l-.192,0c.035-.4-.125-.828.192-1.18Z" transform="translate(-2353.172 -1290.417)" fill="#fce892"/>
              <path id="Trazado_145862" data-name="Trazado 145862" d="M2453.172,1329.791c-.317-.352-.156-.782-.192-1.18q.1-.182.192,0Z" transform="translate(-2353.172 -1280.375)" fill="#fce892"/>
              <path id="Trazado_145863" data-name="Trazado 145863" d="M1942.192,1328.611c-.036.4.125.828-.192,1.18v-1.177Q1942.092,1328.429,1942.192,1328.611Z" transform="translate(-1942 -1280.375)" fill="#fce892"/>
              <path id="Trazado_145864" data-name="Trazado 145864" d="M2453.167,1324.177l-.192,0c.043-.395-.137-.825.192-1.173Z" transform="translate(-2353.167 -1275.932)" fill="#fdeca5"/>
              <path id="Trazado_145865" data-name="Trazado 145865" d="M1942.192,1324.173l-.192,0V1323C1942.329,1323.348,1942.148,1323.778,1942.192,1324.173Z" transform="translate(-1942 -1275.932)" fill="#fdeca5"/>
              <path id="Trazado_145866" data-name="Trazado 145866" d="M2207.795,1082c-.347.33-.779.147-1.173.192q-.192-.092,0-.192Z" transform="translate(-2154.863 -1082)" fill="#fdeca5"/>
              <path id="Trazado_145867" data-name="Trazado 145867" d="M2202.176,1082c0,.064,0,.128,0,.192-.4-.035-.828.125-1.18-.192Z" transform="translate(-2150.416 -1082)" fill="#fce892"/>
              <path id="Trazado_145868" data-name="Trazado 145868" d="M2189.792,1082c-.352.317-.782.156-1.18.192-.122-.066-.12-.13,0-.192Z" transform="translate(-2140.375 -1082)" fill="#fce892"/>
              <path id="Trazado_145869" data-name="Trazado 145869" d="M2184.177,1082c0,.064,0,.128,0,.192-.394-.043-.825.137-1.173-.192Z" transform="translate(-2135.932 -1082)" fill="#fdeca5"/>
              <path id="Trazado_145870" data-name="Trazado 145870" d="M2183,1593.168c.347-.33.779-.147,1.173-.192q.192.092,0,.192Z" transform="translate(-2135.932 -1493.168)" fill="#fdeca5"/>
              <path id="Trazado_145871" data-name="Trazado 145871" d="M2188.985,1593.172c0-.064,0-.128,0-.192.4.035.828-.125,1.18.192Z" transform="translate(-2140.746 -1493.172)" fill="#fce892"/>
              <path id="Trazado_145872" data-name="Trazado 145872" d="M2201,1593.173c.352-.317.782-.156,1.18-.192q.182.1,0,.192Z" transform="translate(-2150.417 -1493.173)" fill="#fce892"/>
              <path id="Trazado_145873" data-name="Trazado 145873" d="M2207,1593.189q0-.1,0-.192c.333.028.7-.1.977.192Z" transform="translate(-2155.244 -1493.189)" fill="#fdeca5"/>
              <path id="Trazado_145874" data-name="Trazado 145874" d="M2199.241,1149.136a24.8,24.8,0,0,1-33.594,2.624,24.23,24.23,0,0,1-9.364-17,24.846,24.846,0,0,1,18.573-26.653c.282-.072.575-.1.862-.146.253.568-.151.928-.442,1.3a26.293,26.293,0,0,0-3.427,5.8,5.974,5.974,0,0,0-.429,1.422,18.281,18.281,0,0,1,15.154-1.79,17.987,17.987,0,0,1,11.268,10.045,18.56,18.56,0,0,1-7.967,23.707,16.756,16.756,0,0,0,3.907.5,19.741,19.741,0,0,0,4.289-.26C2198.505,1148.628,2199.066,1148.438,2199.241,1149.136Z" transform="translate(-2114.438 -1102.867)" fill="#ee525a"/>
              <path id="Trazado_145875" data-name="Trazado 145875" d="M2259.5,1146.658c-.766-.486-1.543-.013-2.278.068a18.509,18.509,0,0,1-4,.074,12.692,12.692,0,0,1-3.95-.669c-.06-.332.28-.347.479-.46,5.3-3.006,8.575-7.453,9.362-13.539.846-6.547-1.365-11.952-6.36-16.27a16.941,16.941,0,0,0-9.272-4.036,17.454,17.454,0,0,0-11.461,2.439c-.245.151-.516.477-.771.3-.353-.241-.022-.6.07-.881a23.214,23.214,0,0,1,4.129-7.388,8.382,8.382,0,0,0,.526-.818,24.212,24.212,0,0,1,9.47-.264c.191.029.386.036.579.053a27.189,27.189,0,0,1,9.225,3.9,24.917,24.917,0,0,1,8.183,9.317c.193.377.4.746.6,1.119a31.447,31.447,0,0,1,1.821,6.372,24.708,24.708,0,0,1-3.884,17.533A21.216,21.216,0,0,1,2259.5,1146.658Z" transform="translate(-2174.809 -1100.39)" fill="#fa6467"/>
              <path id="Trazado_145876" data-name="Trazado 145876" d="M2032.084,1382.964q0-11.469.006-22.938c2.8,0,5.6,0,8.394,0,1.78,0,2.488.7,2.525,2.47.024,1.138.021,2.277.03,3.415a1.287,1.287,0,0,1,.414,1.054c.005,4.76.04,9.519-.019,14.279a1.76,1.76,0,0,1-.049.288,2.9,2.9,0,0,1-3.146,2.053c-2.24-.077-4.485-.013-6.727-.023C2032.956,1383.561,2032.383,1383.584,2032.084,1382.964Z" transform="translate(-2014.499 -1305.79)" fill="#d9ebf6"/>
              <path id="Trazado_145877" data-name="Trazado 145877" d="M2086.176,1399.215q.022-7.854.045-15.708a37.406,37.406,0,0,0,12.768-1.467,6.115,6.115,0,0,1,1.162-.13c-.77.743-1.562,1.465-2.305,2.235a16.594,16.594,0,0,0-4.59,10.112,17.062,17.062,0,0,0,2.492,10.824,19.414,19.414,0,0,0,4.011,4.5,38.314,38.314,0,0,1-5.913-2,21.339,21.339,0,0,0-7.6-1.529,1.094,1.094,0,0,1-.411-1.038C2085.879,1403.076,2085.583,1401.119,2086.176,1399.215Z" transform="translate(-2057.732 -1323.502)" fill="#e9b4ab"/>
              <path id="Trazado_145878" data-name="Trazado 145878" d="M2238.411,1445a9.686,9.686,0,0,1-3.278,5.253c-2.256,1.8-4.815,2.053-7.588,1.573-3.1-.537-6.24-.9-9.363-1.332-1.964-.272-3.932-.52-5.893-.808a1.515,1.515,0,0,1-1.332-1.826,1.575,1.575,0,0,1,1.885-1.276c1.549.187,3.093.416,4.639.631q4.733.656,9.464,1.317c.58.081,1.164.146,1.737.262a5.639,5.639,0,0,0,5.594-2Z" transform="translate(-2158.495 -1374.122)" fill="#e9b4ab"/>
              <path id="Trazado_145879" data-name="Trazado 145879" d="M2041.188,1470.153q.033,3.418.066,6.835c-.01,1.076-.016,2.152-.03,3.228-.021,1.7-.765,2.448-2.445,2.454q-4.061.015-8.121.022l-.606-.37a11.813,11.813,0,0,1-.2-3.281c-.016-1.393.014-2.786-.01-4.179a6.175,6.175,0,0,1,.383-2.569l.051-.8a2.154,2.154,0,0,0,1.237.2c2.414,0,4.828-.039,7.241.017A2.329,2.329,0,0,0,2041.188,1470.153Z" transform="translate(-2012.69 -1394.44)" fill="#b1d8ec"/>
              <path id="Trazado_145880" data-name="Trazado 145880" d="M1998.916,1481.07q.015,4.712.029,9.425c0,.218.049.464-.2.6a51.5,51.5,0,0,1-7.436-7.991c-.153-.207-.28-.433-.418-.651.288-.294.66-.217,1.009-.218,1.552-.006,3.107-.055,4.656.016A2.394,2.394,0,0,0,1998.916,1481.07Z" transform="translate(-1981.301 -1403.216)" fill="#00acdb"/>
              <path id="Trazado_145881" data-name="Trazado 145881" d="M2198.559,1158.016c-1.643,6.876-.947,13.289,2.566,19.243a24.658,24.658,0,0,0,15.361,11.581c-7.5,3.749-18.247,1.137-23.12-7.614C2188.4,1172.306,2192.263,1162,2198.559,1158.016Z" transform="translate(-2142.515 -1143.109)" fill="#dc4050"/>
              <path id="Trazado_145882" data-name="Trazado 145882" d="M2248.94,1205.146c-.814.016-1.629.023-2.442.05-.751.025-1.067-.353-1.064-1.072,0-1.174-.031-2.35.011-3.522.026-.729-.292-1.01-.974-1.008-1.174,0-2.349-.016-3.522,0-.733.011-1.067-.273-1.041-1.046.042-1.238.038-2.479,0-3.718-.023-.782.322-1.034,1.06-1.011,1.141.035,2.283-.008,3.425.014.734.014,1.076-.267,1.051-1.039-.037-1.14.01-2.283-.016-3.424-.019-.831.364-1.213,1.175-1.178a12.182,12.182,0,0,1,2.527.1,7.114,7.114,0,0,0-.37,2.783c.012,3.755.024,7.51-.009,11.264C2248.742,1203.286,2248.907,1204.209,2248.94,1205.146Z" transform="translate(-2181.745 -1167.456)" fill="#91d0e9"/>
              <path id="Trazado_145883" data-name="Trazado 145883" d="M2283.537,1205.568a1.825,1.825,0,0,1-.594-1.476c.021-4.662.016-9.324.008-13.986,0-.626.052-1.188.777-1.391,2.121-.053,2.121-.053,2.121,2.015,0,.849.018,1.7,0,2.545-.019.712.3,1,1,.984,1.142-.025,2.285.017,3.426-.014.771-.021,1.155.247,1.132,1.072-.035,1.239-.023,2.48,0,3.72.01.664-.282.949-.941.939-1.175-.017-2.35.015-3.524-.01-.79-.017-1.126.312-1.1,1.112.038,1.01.011,2.023.008,3.035,0,1.34-.13,1.471-1.431,1.474C2284.124,1205.589,2283.83,1205.576,2283.537,1205.568Z" transform="translate(-2216.377 -1167.879)" fill="#d9ebf6"/>
            </g>
          </g>
        </g>
      </g>
    </g>
  </g>
</svg>
