<svg xmlns="http://www.w3.org/2000/svg" width="100" height="95.753" viewBox="0 0 100 95.753">
  <g id="Grupo_75303" data-name="Grupo 75303" transform="translate(-3282 6474.122)">
    <g id="Grupo_75293" data-name="Grupo 75293" transform="translate(2576.676 -8654.121)">
      <g id="Grupo_75005" data-name="Grupo 75005" transform="translate(705.324 2180)">
        <g id="Grupo_75004" data-name="Grupo 75004" transform="translate(0 0)">
          <path id="Trazado_145813" data-name="Trazado 145813" d="M3054,1016.922a28.009,28.009,0,0,0-.787,4.354,44.045,44.045,0,0,1-8.023,18.2c-.513-.459-.364-1.065-.365-1.619q-.018-10.875-.008-21.749,0-14.022.008-28.045c0-.584-.169-1.223.365-1.714a39.8,39.8,0,0,1,5.377,9.432,44.086,44.086,0,0,1,3.231,12.909c.016.16.027.317.2.4v.954a2.361,2.361,0,0,0,0,1.527v3.054a1.853,1.853,0,0,0,0,1.336Z" transform="translate(-2953.997 -965.033)" fill="#ababab"/>
          <path id="Trazado_145814" data-name="Trazado 145814" d="M2857.646,1067.266c-2.381,0-4.761-.012-7.142.014a1.709,1.709,0,0,1-1.5-.613v-41.24a1.668,1.668,0,0,1,1.5-.613c.97.035,1.945-.03,2.913.025a.9.9,0,0,0,.987-.62,3.787,3.787,0,0,0,1.847.321,1.966,1.966,0,0,1,1.433.278,10.369,10.369,0,0,0-.34,3.525c-.01.487.074,1.006-.323,1.409a3.859,3.859,0,0,1-1.871.219c-.656.016-1,.289-.991.965,0,.3-.01.6-.01.9q0,14.2,0,28.4c0,.134,0,.268,0,.4.021,1.353.086,1.422,1.4,1.477.134.006.267.011.4.027a1.882,1.882,0,0,1,1.1.207,1.223,1.223,0,0,1,.283.917A15.614,15.614,0,0,0,2857.646,1067.266Z" transform="translate(-2849 -986.8)" fill="#d7ebfd"/>
          <path id="Trazado_145815" data-name="Trazado 145815" d="M3063.746,1040.107a1.5,1.5,0,0,1,0-1.61Z" transform="translate(-2963.746 -993.569)" fill="silver"/>
          <path id="Trazado_145816" data-name="Trazado 145816" d="M3063.741,1049.984a1.161,1.161,0,0,1,0-1.408Z" transform="translate(-2963.742 -998.96)" fill="#c7c7c7"/>
          <path id="Trazado_145817" data-name="Trazado 145817" d="M2961.282,1035.252a.345.345,0,0,1-.333.215,4.584,4.584,0,0,1-1.676.259q-25.645,0-51.29,0c-1.756,0-2.116-.346-2.143-2.047-.018-1.2-.01-2.4,0-3.592a2.122,2.122,0,0,1,.231-1.224,2.261,2.261,0,0,1,1.625-.317c3.71-.011,7.422,0,11.132-.008,1.742,0,1.9-.154,1.9-1.818.006-1.452-.005-2.9.005-4.357a2.11,2.11,0,0,1,.253-1.31c.734-.462,1.559-.227,2.345-.278.567-.037,1.135.06,1.7.014,4.354-.03,8.708,0,13.062-.013a8.1,8.1,0,0,0,1.4-.061,1.579,1.579,0,0,0,1.528-1.634c.056-2.166.064-4.334,0-6.5-.035-1.148-.67-1.66-2-1.676-2.713-.032-5.426-.005-8.139-.012-1.943,0-3.885.019-5.829-.01-.937-.035-1.873.049-2.809.012a2.066,2.066,0,0,1-1.25-.264,2.715,2.715,0,0,1-.266-1.7q-.012-9.169,0-18.34c0-.356.009-.712-.008-1.067-.051-1.079-.271-1.312-1.38-1.337-1.541-.035-3.083-.01-4.624-.011-2.378,0-4.757,0-7.136,0a2.413,2.413,0,0,1-1.456-.258,1.624,1.624,0,0,1-.277-1.109q-.015-14.7,0-29.4c0-.686.142-1.3.918-1.558l.643-.06a6.972,6.972,0,0,1,2.174-.294q21.131.009,42.262.007a5.647,5.647,0,0,1,1.693.126,1.625,1.625,0,0,1,1,1.624c.018,1.119.031,2.238,0,3.357,0,.123,0,.245,0,.368.052,4.563.018,9.125.021,13.688q.011,11.456,0,22.913c0,1.866.189,2.121,1.974,2.806.748.287,1.522.5,2.27.791,2.724.9,2.8,1,2.8,3.8-.013,7.634.032,15.268-.021,22.9.056,2.058.014,4.117.023,6.175A2.032,2.032,0,0,1,2961.282,1035.252Z" transform="translate(-2880.334 -948.961)" fill="#f9c500"/>
          <path id="Trazado_145818" data-name="Trazado 145818" d="M2895.391,956.228a2.119,2.119,0,0,0-.612,1.712q.03,15.707.014,31.415a1.412,1.412,0,0,1-1.209.352q-4.071.023-8.142,0a1.815,1.815,0,0,1-1.154-.268,2.232,2.232,0,0,1-.282-1.451q-.01-10.308-.008-20.615a3.761,3.761,0,0,1,.3-1.566q.019-4.063.037-8.125c.006-1.267.211-1.489,1.429-1.487Q2890.576,956.2,2895.391,956.228Z" transform="translate(-2867.781 -949.326)" fill="#e7b700"/>
          <path id="Trazado_145819" data-name="Trazado 145819" d="M3036.854,970.115c-.013.29-.037.58-.037.87q0,26.114,0,52.228c0,.29.024.58.036.87a33.222,33.222,0,0,1-4.523,5.506,26.693,26.693,0,0,1-3.168,2.942,1.624,1.624,0,0,1-.311-1.282q-.018-3.678,0-7.357c.007-1.508.119-1.608,1.73-1.668a2.523,2.523,0,0,0,.787-.118c1.82-.66,2.333-1.359,2.339-3.253.009-2.477-.079-4.957.029-7.43.082-1.879-.25-3.453-2.156-4.365a.319.319,0,0,1-.016-.318,2.176,2.176,0,0,1,.72-.513,2.557,2.557,0,0,0,1.4-2.307q.063-4.785,0-9.57a2.732,2.732,0,0,0-1.24-2.218c-.309-.227-.725-.38-.711-.858a2.163,2.163,0,0,1,.673-.572,2.848,2.848,0,0,0,1.287-2.4c.019-3.1.027-6.2,0-9.3a2.694,2.694,0,0,0-1.416-2.419c-.283-.166-.607-.289-.745-.62.049-.389.412-.479.681-.647a2.843,2.843,0,0,0,1.476-2.489c.03-3.124.047-6.249-.006-9.374a2.787,2.787,0,0,0-2.83-2.71c-.613-.041-1.286.165-1.808-.344a7.3,7.3,0,0,1,.122-4.172q3.206-.016,6.413-.033c.969-.006,1.248.523,1.244,1.368-.016,3.8-.008,7.6-.005,11.4C3036.819,969.344,3036.842,969.729,3036.854,970.115Z" transform="translate(-2945.664 -949.323)" fill="#f9c500"/>
          <path id="Trazado_145820" data-name="Trazado 145820" d="M3019.509,1022.047a2.543,2.543,0,0,1-1.565.144c-.662-.02-.866.2-.861.838.026,3.073.01,6.147.008,9.22a26.377,26.377,0,0,1-3.822,2.959q0-3.69.005-7.381c1.21-.353,1.3-1.242,1.3-2.286q-.029-31.3-.015-62.609c0-.226,0-.453-.007-.679-.053-1.039-.245-1.26-1.321-1.279-1.91-.033-3.82-.073-5.731-.059a1.8,1.8,0,0,1-1.251-.241c-.005-1.067-.049-2.136,0-3.2a1.9,1.9,0,0,0-.62-1.651,4.882,4.882,0,0,1,3.6-.059l7.87.06q0,2.124,0,4.25a1.438,1.438,0,0,1,.316,1.09c0,4.807.042,9.615-.02,14.421q.063,7.655,0,15.309c.049,4.457.008,8.914.022,13.371,0,.355.008.711.011,1.066.007.561.291.811.865.83a1.6,1.6,0,0,1,1.221.319c0,.049,0,.1,0,.147-.226.3-.571.294-.9.33-1.177.129-1.185.13-1.2,1.292s0,2.319,0,3.478c0,2.9-.006,5.8,0,8.695,0,1.162.018,1.163,1.195,1.292C3018.938,1021.751,3019.284,1021.746,3019.509,1022.047Z" transform="translate(-2933.592 -948.935)" fill="#e7b700"/>
          <path id="Trazado_145821" data-name="Trazado 145821" d="M2958.952,948.7l-3.6.061c-.435-.011-.87-.032-1.3-.032l-43.724,0c-.4,0-.8-.018-1.2-.028a47.2,47.2,0,0,1,16.05-6.006,45.984,45.984,0,0,1,10.976-.775A48.127,48.127,0,0,1,2958.952,948.7Z" transform="translate(-2881.944 -941.854)" fill="#ababab"/>
          <path id="Trazado_145822" data-name="Trazado 145822" d="M2871.936,976.261q.018,8.168.037,16.335.007,3.608.01,7.217a1.314,1.314,0,0,1-1.11.344q-3.16.027-6.32,0a1.39,1.39,0,0,1-1.035-.29c-.86-.009-1.719-.039-2.579-.019-.458.011-.687-.142-.662-.612a49.82,49.82,0,0,1,10.474-21.75C2871.111,977.049,2871.539,976.668,2871.936,976.261Z" transform="translate(-2854.873 -960.411)" fill="#ababab"/>
          <path id="Trazado_145823" data-name="Trazado 145823" d="M2866.373,1025.47l8.465-.054,10.451-.006,13.246.034c1.4,0,1.638.241,1.639,1.622q.01,10.94.015,21.879a2.027,2.027,0,0,1,.311,1.343q.008,4.12,0,8.24a1.961,1.961,0,0,1-.315,1.339q0,3.158-.01,6.316c0,1.507-.208,1.7-1.753,1.708l-13.132.033a1.812,1.812,0,0,1-1.236.287q-3.991.012-7.981,0a1.638,1.638,0,0,1-1.224-.31l-8.475-.014a2.227,2.227,0,0,1-.613-1.8c.055-.993.014-1.992.014-2.988,1.017-.656,2.142-.238,3.216-.33q2.131-.053,4.261,0,7.705-.066,15.41,0c1.495-.033,2.99-.037,4.484,0,1.872-.094,1.876-.094,1.876-1.933q0-14.214,0-28.428c0-.3-.006-.6-.011-.9a.784.784,0,0,0-.852-.883c-.4-.015-.8-.02-1.2-.021-8.3-.009-16.608.017-24.912-.01-.756-.1-1.582.243-2.264-.344,0-1.129.017-2.258-.013-3.386A1.525,1.525,0,0,1,2866.373,1025.47Z" transform="translate(-2857.729 -987.441)" fill="#e9f5fe"/>
          <path id="Trazado_145824" data-name="Trazado 145824" d="M2958.64,1128.389a46.4,46.4,0,0,1-15.8,7.42,46.929,46.929,0,0,1-14.5,1.591,48.322,48.322,0,0,1-26.393-9,2.384,2.384,0,0,1,2.109-.279,10.3,10.3,0,0,0,1.888.158q25.756,0,51.512.006A2.245,2.245,0,0,1,2958.64,1128.389Z" transform="translate(-2878.227 -1041.701)" fill="#ababab"/>
          <path id="Trazado_145825" data-name="Trazado 145825" d="M2949.653,1121.145c-.267-.011-.535-.032-.8-.032q-27.594.007-55.187.018c-.234,0-.468.018-.7.028-2.273-.01-4.546-.018-6.82-.033-1.119-.007-1.444-.32-1.445-1.406,0-1.872.012-3.744.019-5.617l10.441.024q0,2.562,0,5.124c0,1.537.145,1.683,1.639,1.683h51.737c.469,0,.938.012,1.406.019Z" transform="translate(-2868.955 -1034.456)" fill="#e7b700"/>
          <path id="Trazado_145826" data-name="Trazado 145826" d="M2862.278,1035.495l2.194.049a1.838,1.838,0,0,1,.14.978q-.01,11.323,0,22.645a4.636,4.636,0,0,1-.1,1.293,1.336,1.336,0,0,1-.863.768,3.38,3.38,0,0,0-2.085,3.334c-.018.865,0,1.729-.009,2.594a1.521,1.521,0,0,1-.275,1.132c-2.664.1-2.208.072-2.21-2.047q-.021-14.573-.006-29.146c0-1.57,0-1.568,1.617-1.572C2861.207,1035.522,2861.742,1035.505,2862.278,1035.495Z" transform="translate(-2854.226 -992.593)" fill="#60b6fe"/>
          <path id="Trazado_145827" data-name="Trazado 145827" d="M2863.7,1095.4q0-1.651,0-3.3c0-2.495.669-3.452,3.018-4.325a.967.967,0,0,1,1.29.02,2,2,0,0,1,.233,1.162q.014,2.608,0,5.216a1.584,1.584,0,0,1-.322,1.224l-3.212.066Z" transform="translate(-2856.656 -1019.953)" fill="#fa2b3a"/>
          <path id="Trazado_145828" data-name="Trazado 145828" d="M3006.92,966.754c2.479.015,4.958.057,7.437.031.93-.01,1.2.356,1.2,1.258q-.028,33.531-.016,67.061c0,1.207-.039,1.229-1.593,1.22q-.017-9.574-.034-19.148c0-1.9-.059-3.812.021-5.714a1.757,1.757,0,0,0-1.488-2.1,7.561,7.561,0,0,1-1.116-.437,2.827,2.827,0,0,1-.322-1.844q-.007-18.9,0-37.8c0-2.2.046-2-2.029-2.035-.685-.012-1.419.187-2.032-.319A.336.336,0,0,1,3006.92,966.754Z" transform="translate(-2933.669 -954.825)" fill="#e9f5fe"/>
          <path id="Trazado_145829" data-name="Trazado 145829" d="M2944.119,1074.634c4.76-.01,9.521-.03,14.281-.021a1.893,1.893,0,0,1,2.045,2q.05,3.419,0,6.839a1.909,1.909,0,0,1-2.046,2.009c-4.76.013-9.521-.011-14.281-.022-1.18-.349-1.631-.829-1.669-2.042q-.106-3.357,0-6.718C2942.487,1075.472,2942.927,1075,2944.119,1074.634Z" transform="translate(-2899.233 -1013.093)" fill="#fefefe"/>
          <path id="Trazado_145830" data-name="Trazado 145830" d="M3006.908,967.106h3.012c1.374,0,1.375,0,1.375,1.33v27.414q0,6.628,0,13.255c-1.009-.35-2.024-.683-3.025-1.054a1.968,1.968,0,0,1-1.419-1.973q0-19.34,0-38.679A1.682,1.682,0,0,1,3006.908,967.106Z" transform="translate(-2933.531 -955.009)" fill="#fefefe"/>
          <path id="Trazado_145831" data-name="Trazado 145831" d="M2930.488,985.555c.837-.008,1.675-.051,2.51-.014.759.034,1.009-.307,1-1.018-.023-1.373.011-2.746-.012-4.119-.013-.8.283-1.153,1.126-1.131,1.673.044,3.349.037,5.022,0,.774-.016,1.093.265,1.07,1.053-.038,1.3.026,2.613-.023,3.917-.034.927.245,1.358,1.256,1.3,1.3-.073,2.612.007,3.917-.027.749-.019,1.112.216,1.1,1.028-.036,1.74-.03,3.483,0,5.224.012.747-.306,1-1.026.988-1.373-.032-2.747.023-4.119-.021-.843-.027-1.143.331-1.116,1.134.026.768-.016,1.538-.028,2.308a6.487,6.487,0,0,1-3.82.159c-.584-.087-.681-.678-.7-1.2-.049-1.137,0-2.275-.027-3.412-.033-1.221-.258-1.441-1.5-1.468-1.1-.024-2.208.03-3.312-.024-1.068-.053-1.554-.476-1.573-1.549C2930.2,987.645,2929.892,986.554,2930.488,985.555Z" transform="translate(-2892.62 -961.98)" fill="#22b17e"/>
          <path id="Trazado_145832" data-name="Trazado 145832" d="M2927.841,992.33c0,1.07-.01,2.14.007,3.21.013.788.342,1.227,1.229,1.193,1.3-.051,2.608,0,3.912-.016a1.111,1.111,0,0,1,1.288,1.276c-.01,1.3.028,2.609-.014,3.912-.025.77.231,1.1,1.034,1.063,1.068-.048,2.139-.011,3.209-.011a.827.827,0,0,1,.072.186c.309,2.484.186,2.627-2.256,2.627-1.339,0-2.677-.026-4.015.01-.751.021-1.022-.32-1.017-1.02.01-1.3,0-2.609,0-3.914,0-1.289-.022-1.31-1.272-1.313-1.3,0-2.61-.03-3.914.01-.8.024-1.071-.334-1.062-1.081.019-1.673.029-3.346,0-5.018-.017-.868.332-1.233,1.2-1.157C2926.77,992.333,2927.307,992.318,2927.841,992.33Z" transform="translate(-2889.836 -968.937)" fill="#09a66d"/>
          <path id="Trazado_145833" data-name="Trazado 145833" d="M2941.634,1074.595a2.551,2.551,0,0,0-1.419,2.7q.086,2.749,0,5.5a2.484,2.484,0,0,0,1.418,2.6l-4.008.057q0-5.461,0-10.922Z" transform="translate(-2896.454 -1013.054)" fill="#f7f5f5"/>
          <path id="Trazado_145834" data-name="Trazado 145834" d="M3031.979,1047.917c-2.419-.031-2.419-.031-2.419-2.505q0-6.786,0-13.571a2.421,2.421,0,0,1,2.618.01,1.111,1.111,0,0,0,.535.432,3.017,3.017,0,0,1,1.68,2.856q0,4.72,0,9.44A3.023,3.023,0,0,1,3031.979,1047.917Z" transform="translate(-2946.057 -990.034)" fill="#fd9801"/>
          <path id="Trazado_145835" data-name="Trazado 145835" d="M3029.6,981.459q-.013-8.028-.026-16.056c3.655-.311,5.038.947,4.846,4.7-.13,2.53-.083,5.074-.006,7.608a3.456,3.456,0,0,1-2.463,3.76A2.082,2.082,0,0,1,3029.6,981.459Z" transform="translate(-2946.067 -954.098)" fill="#22b17e"/>
          <path id="Trazado_145836" data-name="Trazado 145836" d="M3031.933,1082.093c-2.432.056-2.432.056-2.432-2.4,0-4.184.028-8.368-.023-12.552-.01-.864.24-1.116,1.054-1.012a9.827,9.827,0,0,0,1.4-.013,3.118,3.118,0,0,1,2.409,3.468q0,4.518,0,9.035A3.136,3.136,0,0,1,3031.933,1082.093Z" transform="translate(-2946.016 -1008.652)" fill="#0592fb"/>
          <path id="Trazado_145837" data-name="Trazado 145837" d="M3029.59,998.967l2.352.01c1.933.814,2.444,1.58,2.445,3.67,0,3.017-.005,6.033,0,9.05a3.136,3.136,0,0,1-2.215,3.227l-2.619-.01Q3029.573,1006.94,3029.59,998.967Z" transform="translate(-2946.057 -972.557)" fill="#fd646f"/>
          <path id="Trazado_145838" data-name="Trazado 145838" d="M2871.194,1060.728l-1.2-.046q0-11.924,0-23.848a2.388,2.388,0,0,1,.187-1.27q13.17-.01,26.341-.031c.8,0,1.044.3,1.043,1.07q-.025,15.333,0,30.665c0,.76-.227,1.146-1.034,1.072-.4-.036-.8-.022-1.205-.03a1.443,1.443,0,0,1-.263-1.043c-.011-.7,0-1.406,0-2.109-.007-2.956-1.172-4.14-4.12-4.178-1.987.062-3.972.021-5.958.024a1.985,1.985,0,0,1-1.059-.2,2.131,2.131,0,0,1-.24-1.921c.158-.4.547-.436.885-.552a4.677,4.677,0,0,0,3.243-3.451,1.341,1.341,0,0,1,.487-.94,3.791,3.791,0,0,1,.875-.206,2.347,2.347,0,0,0,1.864-2.215,3.7,3.7,0,0,0-.892-3.265,1.036,1.036,0,0,1-.258-.538c-.137-1.434-.048-2.87-.062-4.305-.035-3.455-1.911-5.35-5.336-5.36-1.4,0-2.805,0-4.208,0-1-.043-2-.012-3.007,0a4.649,4.649,0,0,0-4.767,4.656c-.068,1.668.069,3.34-.071,5.007a.975.975,0,0,1-.257.535,3.369,3.369,0,0,0-.916,2.941,2.365,2.365,0,0,0,2.135,2.585,1.626,1.626,0,0,1,.659.217.642.642,0,0,1,.169.246,5.686,5.686,0,0,0,3.724,4.252c.739.271.767,1.447.156,2.343a9.464,9.464,0,0,1-2.731.151c-1.051.049-2.1.019-3.153.015A1.546,1.546,0,0,1,2871.194,1060.728Z" transform="translate(-2859.934 -992.614)" fill="#89c8fd"/>
          <path id="Trazado_145839" data-name="Trazado 145839" d="M2880.977,1088.06l2.828-.031.109.09a2.641,2.641,0,0,1,.319.833,2.471,2.471,0,0,0,3.531,1.822c.074-.051.152-.1.229-.145a2.5,2.5,0,0,0,1.205-2.123.623.623,0,0,1,.261-.492l7.205.044a39.852,39.852,0,0,1,.105,5.359,3.359,3.359,0,0,1-.286,2.219l-15.51.011a1.36,1.36,0,0,1-.307-1.031q-.028-2.763,0-5.527A1.353,1.353,0,0,1,2880.977,1088.06Z" transform="translate(-2865.489 -1020.204)" fill="#fd646f"/>
          <path id="Trazado_145840" data-name="Trazado 145840" d="M2876.732,1088.109q0,3.793,0,7.587l-4.225,0q0-3.788,0-7.576Z" transform="translate(-2861.244 -1020.254)" fill="#fc4755"/>
          <path id="Trazado_145841" data-name="Trazado 145841" d="M2913.689,1095.678q0-3.255-.005-6.511a1.831,1.831,0,0,1,.186-1.067c2.68-.105,4.212,1.341,4.221,3.995,0,1.2,0,2.4-.006,3.6Z" transform="translate(-2883.638 -1020.246)" fill="#fa2b3a"/>
          <path id="Trazado_145842" data-name="Trazado 145842" d="M2896.93,1062.24a5.439,5.439,0,0,1-2.5,4.017,3.962,3.962,0,0,1-1.87.634,1.468,1.468,0,0,1-1.3.313,5.366,5.366,0,0,1-3.526-2.065c-.265-.33-.692-.73-.112-1.179a4.311,4.311,0,0,1,1.45.326,4.089,4.089,0,0,0,3.479-.834c.482-.355.834-.848.454-1.46a1,1,0,0,0-1.5-.262,2.629,2.629,0,0,1-3.085-.033c-.457-.3-1.063-.1-1.534-.4a3.036,3.036,0,0,1-.208-2.3,2.869,2.869,0,0,0,.942-2.194c-.089-.693-.611-1.081-.9-1.629-.27-1.809.673-3.138,2.7-3.807a28.59,28.59,0,0,1,4.491-.047,3.38,3.38,0,0,1,3.231,3.008,8.5,8.5,0,0,1,.074,1.595c.059,1.73.021,3.46.021,5.19A1.544,1.544,0,0,1,2896.93,1062.24Z" transform="translate(-2869.151 -1000.667)" fill="#fdd1a3"/>
          <path id="Trazado_145843" data-name="Trazado 145843" d="M2895.01,1050.009c-.016-.365-.03-.731-.05-1.1a3.068,3.068,0,0,0-3.214-3.1c-1.465-.012-2.929.016-4.394.027a9.755,9.755,0,0,1-4.041.152c-.444-.214-.4-.637-.444-1.029a4.756,4.756,0,0,1,4.079-4.755c1.707-.008,3.416-.072,5.12-.012a4.94,4.94,0,0,1,4.706,4.946c.044,1.706,0,3.415-.008,5.122A1.76,1.76,0,0,1,2895.01,1050.009Z" transform="translate(-2867.182 -994.599)" fill="#873f2e"/>
          <path id="Trazado_145844" data-name="Trazado 145844" d="M2880.455,1051.866l4.225.057a3.377,3.377,0,0,0-2.41,3.589c-.645.388-1.312.655-1.377,1.643a1.892,1.892,0,0,0,1.389,2.012c.094.8-.252,1.639.213,2.406-.649,1.105-.013,1.941.583,2.785-.337.255-.066.5.053.693a4.947,4.947,0,0,0,4.829,2.147q-.013.989-.027,1.977-.021.311-.042.62a21.312,21.312,0,0,1-1.4,2.206l0,.012c-.97-.02-1.431-.532-1.677-1.863-.123-.785.248-1.622-.248-2.365a2.029,2.029,0,0,0-.868-.127c-.576-.034-.943.141-.976.8-.014.3.023.693-.445.752l0-.02a6.93,6.93,0,0,1,.041-.7c.133-.832-.141-1.238-1.011-1.554a4.956,4.956,0,0,1-3.268-4.381,1.742,1.742,0,0,1-.308-1.231c0-1.666-.026-3.332.012-5a5.408,5.408,0,0,1,.622-3.248A2.205,2.205,0,0,1,2880.455,1051.866Z" transform="translate(-2863.963 -1001.085)" fill="#febc85"/>
          <path id="Trazado_145845" data-name="Trazado 145845" d="M2878.833,1045.786c-2.048.69-2.561,2.265-2.43,4.212a1.752,1.752,0,0,1-1.765.289c-.006-1.805-.054-3.611-.009-5.416a4.928,4.928,0,0,1,4.815-4.688c1.07-.009,2.139.018,3.208.029-1.667.7-3.123,1.609-3.684,3.495A9.806,9.806,0,0,0,2878.833,1045.786Z" transform="translate(-2862.341 -994.607)" fill="#6d3326"/>
          <path id="Trazado_145846" data-name="Trazado 145846" d="M2873.194,1060.959a5.182,5.182,0,0,1,1.765-.288q.008,3.242.015,6.483c-1.309.042-2.471-.362-2.834-1.688-.381-1.392-.607-2.889.627-4.093C2872.908,1061.235,2873.052,1061.1,2873.194,1060.959Z" transform="translate(-2860.897 -1005.523)" fill="#f5a86c"/>
          <path id="Trazado_145847" data-name="Trazado 145847" d="M2908.217,1060.7a4.982,4.982,0,0,1,1.755.251c1.48,1.066,1.417,2.619,1.21,4.146-.179,1.324-1.321,2.041-2.976,2.056Q2908.211,1063.924,2908.217,1060.7Z" transform="translate(-2880.694 -1005.531)" fill="#febc86"/>
          <path id="Trazado_145848" data-name="Trazado 145848" d="M2890.042,1087.049a1.952,1.952,0,0,0,1.409,1.814,2.645,2.645,0,0,1-3.967-1.543,11.436,11.436,0,0,1-.246-1.26.628.628,0,0,0,.067-.074c.35-.519-.225-1.406.359-1.644a6.523,6.523,0,0,1,2.175-.111C2890.12,1085.155,2889.755,1086.125,2890.042,1087.049Z" transform="translate(-2869.475 -1018.098)" fill="#f5a86c"/>
          <path id="Trazado_145849" data-name="Trazado 145849" d="M2896.025,1091.515a3.781,3.781,0,0,1,1.4-2.206A2.362,2.362,0,0,1,2896.025,1091.515Z" transform="translate(-2874.162 -1020.772)" fill="#febc85"/>
          <path id="Trazado_145850" data-name="Trazado 145850" d="M2887.59,1074.856c-1.442-1.147-1.53-1.571-.583-2.785a2.148,2.148,0,0,1,1.8.373,1.763,1.763,0,0,0,2.232-.015c1-.641,1.733-.549,2.161.2.415.724.1,1.462-.85,2.062A4.45,4.45,0,0,1,2887.59,1074.856Z" transform="translate(-2869.034 -1011.534)" fill="#d78a55"/>
          <path id="Trazado_145851" data-name="Trazado 145851" d="M2885.465,1063.148c-1.328-.079-1.618-.364-1.63-1.6-.015-1.617.249-1.952,1.618-2.054C2886.889,1060.6,2886.894,1062.33,2885.465,1063.148Z" transform="translate(-2867.146 -1004.841)" fill="#d78a55"/>
          <path id="Trazado_145852" data-name="Trazado 145852" d="M2897.26,1061.356c0-1.224.407-1.827,1.231-1.831.916-.005,1.451.83,1.384,2.162-.052,1.034-.574,1.545-1.489,1.459C2897.561,1063.068,2897.257,1062.587,2897.26,1061.356Z" transform="translate(-2874.831 -1004.857)" fill="#d78a55"/>
          <path id="Trazado_145853" data-name="Trazado 145853" d="M2892.849,1087.087c-.42-.914-.1-1.881-.2-2.818C2893.076,1085.182,2892.747,1086.15,2892.849,1087.087Z" transform="translate(-2872.336 -1018.088)" fill="#febc85"/>
        </g>
      </g>
    </g>
  </g>
</svg>
