<svg xmlns="http://www.w3.org/2000/svg" width="100" height="100" viewBox="0 0 100 100">
  <g id="Grupo_75304" data-name="Grupo 75304" transform="translate(-3282 6631.121)">
    <g id="Grupo_75297" data-name="Grupo 75297" transform="translate(2104.676 -8800)">
      <circle id="Elipse_4665" data-name="Elipse 4665" cx="50" cy="50" r="50" transform="translate(1177.324 2168.879)" fill="#00bcd4"/>
      <g id="qUxtJN" transform="translate(1208.552 2174.647) rotate(16)">
        <g id="Grupo_75030" data-name="Grupo 75030" transform="translate(0 0)">
          <path id="Trazado_146010" data-name="Trazado 146010" d="M2495.2,655.571c.114-.234.364-.177.547-.229a6.732,6.732,0,0,0,4.93-4.763c1.369-4.695,2.623-9.423,3.924-14.137a1.109,1.109,0,0,0-.914-.239q-6.284-.012-12.567,0a1.5,1.5,0,0,0-.932.226c-.993,3.626-2.106,7.226-2.947,10.888a6.774,6.774,0,0,0,5.63,8.142.91.91,0,0,1,.232.115h.279a1.822,1.822,0,0,1,1.118,0Z" transform="translate(-2443.494 -584.058)" fill="#40596b"/>
          <path id="Trazado_146011" data-name="Trazado 146011" d="M2464.266,593.306c3.4-.081,5.321-1.879,5.972-5.586a2.434,2.434,0,0,1,.279-1.116v-.7a1.073,1.073,0,0,1,0-.839v-8.943a1.432,1.432,0,0,1,0-.978v-.559a5.257,5.257,0,0,1-.413-1.719c-.513-1.982-1.365-3.683-3.4-4.518a14.115,14.115,0,0,0-2.438-.453c-.3.241-.256.585-.257.9q-.012,11.8,0,23.6C2464.006,592.723,2463.966,593.067,2464.266,593.306Z" transform="translate(-2398.974 -546.671)" fill="#abb2b9"/>
          <path id="Trazado_146012" data-name="Trazado 146012" d="M2510.5,678.807a1.058,1.058,0,0,0-1.118,0Z" transform="translate(-2459.498 -607.293)" fill="#556b7b"/>
          <path id="Trazado_146013" data-name="Trazado 146013" d="M2464.166,583.914a.806.806,0,0,0,0,.978Z" transform="translate(-2392.623 -555.438)" fill="#c4c9ce"/>
          <path id="Trazado_146014" data-name="Trazado 146014" d="M2464.16,605.833a.631.631,0,0,0,0,.839Z" transform="translate(-2392.616 -567.436)" fill="#c1c6cb"/>
          <path id="Trazado_146015" data-name="Trazado 146015" d="M2517.743,588.771q6.314-2.665,12.628-5.328c4.233-1.779,8.474-3.539,12.706-5.321q6.059-2.553,12.107-5.134c.961-.407,1.921-.817,2.884-1.222a5.555,5.555,0,0,1,2.205-.159c.173,0,.211.153.249.29.3-.144.265-.329.066-.536a2.473,2.473,0,0,0-1.095-.15.521.521,0,0,1-.565-.562c-.012-.3-.013-.605-.013-.908q0-14.7,0-29.4a2.154,2.154,0,0,0-.174-1.291q-3.769-1.621-7.539-3.241-4.86-2.076-9.727-4.137-4.958-2.113-9.914-4.232-4.511-1.922-9.024-3.836l-4.8-2.038a1.6,1.6,0,0,0-.209,1.138q-.011,4.713,0,9.426,0,27.614.006,55.228C2517.523,587.834,2517.394,588.344,2517.743,588.771Z" transform="translate(-2513.415 -521.311)" fill="#f1f1f1"/>
          <path id="Trazado_146016" data-name="Trazado 146016" d="M2477.827,560.158q0,15.869-.016,31.738c0,.56.167.743.71.692a11.993,11.993,0,0,1,1.255.007.976.976,0,0,0,.661.174q6.875.014,13.751,0c.118-.186.3-.172.493-.183a2.943,2.943,0,0,0,3.1-3.254c0-.093.013-.185.02-.278-.009-.255-.027-.511-.027-.766q0-11.938,0-23.877c0-.255.015-.511.024-.766-.082-1.962-.729-2.982-2.175-3.4a2.761,2.761,0,0,0-.753-.112q-8.346-.01-16.691,0C2478.059,560.126,2477.943,560.147,2477.827,560.158Z" transform="translate(-2432.506 -542.417)" fill="#fe7058"/>
          <path id="Trazado_146017" data-name="Trazado 146017" d="M2616.831,588.46q0-33.113,0-66.225c0-.326-.007-.652-.011-.978a3.02,3.02,0,0,0-4.314,3q0,30.7,0,61.4A2.936,2.936,0,0,0,2616.831,588.46Z" transform="translate(-2612.503 -521)" fill="#fe7058"/>
          <path id="Trazado_146018" data-name="Trazado 146018" d="M2500.78,632c-.065-.2-.225-.2-.394-.2l-14.018.03-.163.408q-.208.891-.417,1.783l14.414.016Z" transform="translate(-2439.097 -581.647)" fill="#334a5e"/>
        </g>
      </g>
    </g>
  </g>
</svg>
