<svg xmlns="http://www.w3.org/2000/svg" width="100" height="102.748" viewBox="0 0 100 102.748">
  <g id="Grupo_75309" data-name="Grupo 75309" transform="translate(-3282 7371.715)">
    <g id="Grupo_75298" data-name="Grupo 75298" transform="translate(3282 -7371.715)">
      <g id="Grupo_75013" data-name="Grupo 75013" transform="translate(0 0)">
        <g id="Grupo_75012" data-name="Grupo 75012" transform="translate(0 0)">
          <g id="Grupo_75011" data-name="Grupo 75011">
            <g id="Grupo_75010" data-name="Grupo 75010">
              <g id="Grupo_75009" data-name="Grupo 75009">
                <path id="Trazado_145884" data-name="Trazado 145884" d="M3228.672,1095.606a21.989,21.989,0,0,1,3.783-.593,47.951,47.951,0,0,0,13.1-4.048,1.3,1.3,0,0,0,.306-.925c.021-1.828.031-3.657-.006-5.486a1.347,1.347,0,0,0-.251-.846,2.238,2.238,0,0,0-1.45-.236c-3.8-.018-7.6.014-11.4-.02-5.919-.039-11.837-.011-17.756-.016-6.018-.006-12.038,0-18.056,0-2.924,0-4.3-1.383-4.314-4.3,0-1-.047-2.008.024-3.009.067-.953.364-1.284,1.318-1.272,2.663.032,2.224-.508,2.231-2.442q.021-6.22,0-12.437a4.693,4.693,0,0,0-.95-2.17q-3.654-6.255-7.246-12.547a2.521,2.521,0,0,0-.591-.8c-.346-.267-.456,0-.562.269a5.208,5.208,0,0,0-.092,1.3q0,15.291-.006,30.582a4.412,4.412,0,0,0,.282,1.765,43.533,43.533,0,0,0,7.717,7.279,49.6,49.6,0,0,0,21.6,9.3c1.247.219,2.518.3,3.778.449.188.022.413-.044.512.2h1.206a2.616,2.616,0,0,1,1.607,0h2.411a3.436,3.436,0,0,1,1.808,0Z" transform="translate(-3174.201 -992.859)" fill="#5f6ab8"/>
                <path id="Trazado_145885" data-name="Trazado 145885" d="M3228.328,947.792a2,2,0,0,1-1.734-1.408,4.768,4.768,0,0,0-3.1-2.384h-1.808a5.409,5.409,0,0,0-3.531,3.251c-.209.549-.812.2-1.1.534.178.294.643.293.712.7.043.566.009,1.13.023,1.693a1.57,1.57,0,0,0,.072.687c.611,1.154,1.694.561,2.579.648a.921.921,0,0,0,1.112-.973,13.019,13.019,0,0,1,.071-1.782c.132-.47.353-.845.914-.867.6-.024.876.341,1.02.862a14.61,14.61,0,0,1,.072,1.8c.039.535.273.908.835.939a7.155,7.155,0,0,0,2.771-.125c.584-.6.366-1.362.337-2.049A1.391,1.391,0,0,1,3228.328,947.792Z" transform="translate(-3172.304 -944)" fill="#d9ebf6"/>
                <path id="Trazado_145886" data-name="Trazado 145886" d="M3223.961,1143.773a1.818,1.818,0,0,0-1.808,0Z" transform="translate(-3170.56 -1041.026)" fill="#7382c9"/>
                <path id="Trazado_145887" data-name="Trazado 145887" d="M3231.963,1143.781a1.506,1.506,0,0,0-1.607,0Z" transform="translate(-3182.776 -1041.034)" fill="#7181c8"/>
                <path id="Trazado_145888" data-name="Trazado 145888" d="M3312.978,1063.594c.013-.669.038-1.338.039-2.006q.013-16.023.021-32.044c.217-.311.036-.581-.113-.832-2.414-4.072-4.682-8.229-7.152-12.269-.4-.658-.751-1.342-1.162-1.991-.148-.234-.208-.6-.623-.529a41.916,41.916,0,0,0-2.411,8.755,42.778,42.778,0,0,0-.734,8.276,49.491,49.491,0,0,0,6.308,24.38A45.615,45.615,0,0,0,3312.978,1063.594Z" transform="translate(-3300.148 -978.038)" fill="#7a9fe9"/>
                <path id="Trazado_145889" data-name="Trazado 145889" d="M3263.278,962.777c-3.248,0-6.5,0-9.743.006-2.356.008-3.507,1.16-3.519,3.513-.013,2.444-.01,4.888-.014,7.332a3.975,3.975,0,0,0-.271,1.356c.026,2.489-.048,4.978.049,7.466a1.743,1.743,0,0,0,.222.825c.57.979,1.214,1.917,1.715,2.939,2.118,3.924,4.442,7.731,6.644,11.607.163.287.377,1.095.948.269a6.1,6.1,0,0,0,.1-1.6q.005-9.634,0-19.266c0-2.524.915-3.427,3.462-3.437,1.773-.007,3.545,0,5.318,0a3.748,3.748,0,0,0,1.387-.139c.619-.487.132-.97-.039-1.422a4.291,4.291,0,0,1,2.185-5.55,6.544,6.544,0,0,1,2.645-.368c.646-.025,1.342.191,1.918-.31a1.013,1.013,0,0,0,.132-.348c.063-.634.015-1.268.036-1.9.027-.838-.369-1.225-1.2-1.238-1.3-.02-2.6-.008-3.9-.01-1.934,0-3.87.015-5.8-.009A9.516,9.516,0,0,0,3263.278,962.777Z" transform="translate(-3237.174 -952.979)" fill="#5f6ab8"/>
                <path id="Trazado_145890" data-name="Trazado 145890" d="M3237.031,957.371c3.934.012,7.868.053,11.8.017.885-.008,1.2.23,1.109,1.118a15.628,15.628,0,0,0,.018,1.9c.525-.092.43-.538.45-.867a13.651,13.651,0,0,0-.09-2.5c-.159-1.3.346-1.873,1.663-1.917,1.2-.04,2.405-.011,3.607-.015.783,0,1.147-.278,1.088-1.141a7.905,7.905,0,0,1,.064-2.387c-.266-.374-.673-.111-1-.22A50.009,50.009,0,0,0,3237.031,957.371Z" transform="translate(-3210.968 -947.573)" fill="#7a9fe9"/>
                <path id="Trazado_145891" data-name="Trazado 145891" d="M3311.861,989.713a5.255,5.255,0,0,0-1.415,6.623c.438.892.945,1.75,1.421,2.624a.809.809,0,0,0,.938-.034c1.707-.974,3.4-1.969,5.1-2.962a.641.641,0,0,0,.3-.388C3317.133,992.437,3314.93,989.921,3311.861,989.713Z" transform="translate(-3309.831 -966.232)" fill="#fa6467"/>
                <path id="Trazado_145892" data-name="Trazado 145892" d="M3309.862,1000.248l-.238-.585a3.868,3.868,0,0,0-1.364-2.3,7.676,7.676,0,0,0-3.092,1.868c-.187.758.372,1.243.683,1.809.525.954.527,1.026-.405,1.539-1.374.756-2.708,1.581-4.076,2.347a1.42,1.42,0,0,0-.766.749l.008.208,1.579,2.6c1.214-.436,2.209-1.278,3.371-1.81.685-.411,1.357-.84,2.057-1.222.32-.174.666-.328.741-.747a4.536,4.536,0,0,0-.817-1.676c-.4-.626-.319-1.024.354-1.331.542-.247,1.027-.6,1.545-.891C3309.649,1000.694,3309.971,1000.619,3309.862,1000.248Z" transform="translate(-3296.77 -969.955)" fill="#b1d8ec"/>
                <path id="Trazado_145893" data-name="Trazado 145893" d="M3310.2,994.39l3.028-1.828a4.873,4.873,0,0,0-1.67-2.971c-2.479-2.628-5.3-3.008-7.778-1.047.388.542,1.047.341,1.559.56a7.3,7.3,0,0,1,3.651,3.418c.328.618.676,1.226,1.015,1.838C3310.061,994.458,3310.126,994.467,3310.2,994.39Z" transform="translate(-3301.752 -965.06)" fill="#ee525a"/>
                <path id="Trazado_145894" data-name="Trazado 145894" d="M3313.523,1001.051c-.064-.011-.129-.021-.195-.029-1.883,1.106-3.763,2.216-5.653,3.312a1.86,1.86,0,0,1-.566.118l1.8,3c1.725-1,3.441-2.01,5.179-2.982.672-.376,1.059-.689.457-1.5A4.859,4.859,0,0,1,3313.523,1001.051Z" transform="translate(-3305.072 -971.73)" fill="#d9ebf6"/>
                <path id="Trazado_145895" data-name="Trazado 145895" d="M3301.109,988.056q.834,1.485,1.67,2.971l1.375,2.214q-.013-4.548-.025-9.1A40.631,40.631,0,0,0,3301.109,988.056Z" transform="translate(-3291.301 -963.523)" fill="#799fe9"/>
                <path id="Trazado_145896" data-name="Trazado 145896" d="M3155.743,1043.943q0,3.589,0,7.178a36.65,36.65,0,0,0,6.194-3.39,47.9,47.9,0,0,0,9.934-8.523c.2-.222.355-.478.532-.718a3.787,3.787,0,0,0,.345-1.747q0-30.617,0-61.234a3.385,3.385,0,0,0-.313-1.654c-.187-2.436-.031-4.876-.083-7.314a3.786,3.786,0,0,0-.917-2.776,2.891,2.891,0,0,0-2.032-.951c-3.457-.123-6.914-.02-10.371-.054a17.92,17.92,0,0,0-3.893-.165c-.88.041-1.031.311-.539,1.051a5.371,5.371,0,0,1,.831,3.139q-.019,2.553,0,5.107c.01,1.528.155,1.647,1.652,1.686a11.384,11.384,0,0,1,3.089.156c2.139.552,2.879,1.5,2.881,3.815q.016,14.029,0,28.058v32.568c0,.334,0,.668,0,1-.021,3.042-1.266,4.327-4.3,4.434-.667.047-1.334.007-2,.03C3156.4,1043.654,3156.012,1043.611,3155.743,1043.943Z" transform="translate(-3084.511 -953.015)" fill="#524fa0"/>
                <path id="Trazado_145897" data-name="Trazado 145897" d="M3131.492,984.551c-.016.333-.044.667-.044,1q0,31.663,0,63.326c0,.134.01.267.015.4a48.5,48.5,0,0,0,11.071-22.373,47.845,47.845,0,0,0,.967-12.554,49.065,49.065,0,0,0-8.882-25.9A22.628,22.628,0,0,0,3131.492,984.551Z" transform="translate(-3043.572 -963.762)" fill="#7a9fe9"/>
                <path id="Trazado_145898" data-name="Trazado 145898" d="M3182.945,951.35c-.8-.087-1.28.028-1.059,1.074a11.465,11.465,0,0,1,.025,2.363,1.554,1.554,0,0,0,1.227.3c1.106.016,2.21-.007,3.315.01,1.285.019,1.589.282,1.81,1.521.058.328.061.674.358.907a2.51,2.51,0,0,0,1.269.2,26.267,26.267,0,0,0,5.285-.069c1.972-.4,3.944-.164,5.89-.482a44.609,44.609,0,0,0-12.227-4.781A48.873,48.873,0,0,0,3182.945,951.35Z" transform="translate(-3126.944 -947.558)" fill="#7a9fe9"/>
                <path id="Trazado_145899" data-name="Trazado 145899" d="M3191.628,962.691c-4.165.1-8.327.3-12.495.236a4.582,4.582,0,0,0-.167,3.081c.216.382.6.376.963.4.566.03,1.134.007,1.7.014a4.322,4.322,0,0,1,4.138,6.031c-.146.4-.6.8-.107,1.262a11.472,11.472,0,0,0,3.148.157c1.1.051,2.19.025,3.285.014a1.3,1.3,0,0,0,1.1-.337,11.3,11.3,0,0,0-3.468-.148c-.736-.006-1-.2-.977-.963.052-1.739-.011-3.481.025-5.22a5.139,5.139,0,0,0-1.478-4.3h4.7c.059-.039.076-.074.051-.1a.094.094,0,0,0-.068-.039Z" transform="translate(-3117.51 -953.077)" fill="#5f6ab8"/>
                <path id="Trazado_145900" data-name="Trazado 145900" d="M3160.821,962.814a.777.777,0,0,0,.017.143l10.436-.03a2.422,2.422,0,0,0-.565-.137Q3165.764,962.792,3160.821,962.814Z" transform="translate(-3086.362 -953.125)" fill="#7a9fe9"/>
                <path id="Trazado_145901" data-name="Trazado 145901" d="M3192.625,1074.153c-.007,4.549-.034,9.1,0,13.646.006.884-.179,1.217-1.147,1.192-2.49-.065-2.52.012-2.52,2.5,0,.97-.017,1.94.006,2.91a3.836,3.836,0,0,0,3.647,3.812c.2.014.4.015.6.015q17.71,0,35.421,0c.234,0,.468-.02.7-.031.235-.141.512-.17.754-.3,3.137-2.1,3.117-6.128-.044-8.814-.125-.047.131-.078.021,0-.046.033-.02.046.055.08a2.055,2.055,0,0,0,.889.1c3.044,0,6.089.015,9.134-.012.438,0,1.019.2,1.243-.457-.469-.454-1.067-.338-1.621-.335-4.182.025-8.365.1-12.546.149-10.746.135-21.494.045-32.241.045-.167,0-.335,0-.5,0-1.292-.022-1.38-.1-1.384-1.364q-.015-5.222,0-10.446c0-.7-.01-1.406-.063-2.107C3192.976,1074.488,3192.972,1074.2,3192.625,1074.153Z" transform="translate(-3170.891 -1007.333)" fill="#b1d8ec"/>
                <path id="Trazado_145902" data-name="Trazado 145902" d="M3293.088,1045.477l.178.369c.057.148.127.275.322.222a.741.741,0,0,0,.264-.407c.433-1.2.723-1.4,1.966-1.346.309.012.673.2.883-.213a47.285,47.285,0,0,0-3.012-5.428c-4.393-7.661-8.849-15.284-13.238-22.947a1.689,1.689,0,0,0-.492-.622,16.284,16.284,0,0,0-3.232,2q3.642,6.281,7.281,12.564a3.72,3.72,0,0,1,.189.457q3.409,5.844,6.817,11.69C3291.72,1043.026,3292.4,1044.255,3293.088,1045.477Z" transform="translate(-3271.308 -978.595)" fill="#fce47f"/>
                <path id="Trazado_145903" data-name="Trazado 145903" d="M3181.941,1120.031l-.4.366,12.864.057,3-.06c-.138-.571-.569-.545-1.011-.5-3.924.035-7.847,0-11.771.013A16.759,16.759,0,0,0,3181.941,1120.031Z" transform="translate(-3123.133 -1029.537)" fill="#98d1ea"/>
                <path id="Trazado_145904" data-name="Trazado 145904" d="M3217.786,961.157q0-1.57-.008-3.141c0-.368.014-.738-.013-1.1a1.515,1.515,0,0,0-1.626-1.511c-1.673-.01-3.347,0-5.02-.006-.8,0-1.6-.041-2.392.016-.762.054-1.081-.166-1.031-.988a2.99,2.99,0,0,0-.156-1.845,1.34,1.34,0,0,0-.295,1.2c.063.865-.149,1.431-1.163,1.363a.791.791,0,0,0-.548.2c1.038,1.991.619,4.145.692,6.244a3.909,3.909,0,0,1-.631,2.676c-.121.157-.2.359.043.51a1.819,1.819,0,0,0,.871.176q4.784.024,9.567,0a2.433,2.433,0,0,0,.785-.118A2.772,2.772,0,0,0,3217.786,961.157Z" transform="translate(-3156.137 -948.165)" fill="#91d0e9"/>
                <path id="Trazado_145905" data-name="Trazado 145905" d="M3238.8,964.227a1.719,1.719,0,0,0,.965-1.614c.053-1.988.049-3.979,0-5.967a1.79,1.79,0,0,0-.965-1.62,4.211,4.211,0,0,0-.216-2.834,4.143,4.143,0,0,0-.166,2.058c-.014.546-.171.751-.746.777-2.488.112-2.486.13-2.484-2.34,0-.3-.011-.6-.016-.9a4.207,4.207,0,0,0-.159,2.251c.033.824-.27,1.026-1.034.992-1.23-.055-2.465-.021-3.7-.013a1.71,1.71,0,0,0-1.871,2.264,7.725,7.725,0,0,1-.021,3.332.477.477,0,0,0-.025.155,2.636,2.636,0,0,0,1.111,3.7c2.87.225,5.744.089,8.617.074A.838.838,0,0,0,3238.8,964.227Z" transform="translate(-3189.411 -947.781)" fill="#b1d8ec"/>
                <path id="Trazado_145906" data-name="Trazado 145906" d="M3226.029,951.8c.139.939-.2,1.916.217,2.834,2.01-.041,2.01-.041,2.015-2.042,0-.263.01-.527.016-.791a.956.956,0,0,0-1.068-.824A1.012,1.012,0,0,0,3226.029,951.8Z" transform="translate(-3176.865 -947.386)" fill="#7aa0e9"/>
                <path id="Trazado_145907" data-name="Trazado 145907" d="M3187.106,1030.7l-.191-.17c-.009,4.543,0,9.087-.042,13.629-.01.938.548.8,1.11.8H3214.3c2.377,0,4.76.111,7.129-.024,4.312-.246,8.623-.128,12.933-.162.384,0,.81-.144,1.148.183.237.284.5.421.849.17a2.074,2.074,0,0,0,.273-1.348q.009-29.257,0-58.515a1.8,1.8,0,0,0-.334-1.419l-3.244-.072a.908.908,0,0,0-.713.3,5.308,5.308,0,0,1-3.793,1.267c-2.137-.053-4.276,0-6.414-.021a1.949,1.949,0,0,0-1.808,1c-2.555,3.882-7.476,3.891-10.018.015a2.016,2.016,0,0,0-1.9-1.014c-2.1.028-4.211-.031-6.314.023a5.291,5.291,0,0,1-3.8-1.255.96.96,0,0,0-.711-.318q-3.5.014-7.01.028c-2.673.007-3.74,1.076-3.742,3.772q0,9.9,0,19.794c0,.433-.019.866-.028,1.3-.187.488.156.822.364,1.186,2.989,5.239,6.042,10.442,9.032,15.682a6.081,6.081,0,0,1,.625,2.576c.212,1.269.394,2.544.6,3.814.3,1.743.506,3.5.775,5.247a2.9,2.9,0,0,1,.037.3c.024.446.02.894-.443,1.135s-.74-.142-1.063-.356c-1.56-.921-2.839-2.21-4.295-3.268C3190.673,1033.534,3188.832,1032.19,3187.106,1030.7Z" transform="translate(-3165.011 -963.313)" fill="#d9ebf6"/>
                <path id="Trazado_145908" data-name="Trazado 145908" d="M3192.927,976.72a5.492,5.492,0,0,0,4.558,1.857c2.2-.072,4.414,0,6.621-.027a1.117,1.117,0,0,1,1.172.675,6.094,6.094,0,0,0,10.758-.005,1.117,1.117,0,0,1,1.175-.67c2.173.025,4.35-.051,6.521.029a5.594,5.594,0,0,0,4.66-1.858c1.405-2.726,1.071-4.971-.975-6.534a4.469,4.469,0,0,0-2.8-.92c-.867,0-1.736-.009-2.6-.015-.008.534-.056,1.072-.016,1.6a2.206,2.206,0,0,1-.821,1.846c.325.391.782.308,1.2.325.7.028,1.4-.03,2.1.036.464.045.871.224.914.75s-.335.763-.771.911a3.984,3.984,0,0,1-1.286.126c-2.6,0-5.2.019-7.794-.006a2.265,2.265,0,0,0-2.507,1.676c-.508,1.6-1.246,2.252-2.527,2.18-1.359-.077-1.916-1.007-2.241-2.167a2.272,2.272,0,0,0-2.512-1.689c-2.607.026-5.214.011-7.822.005a3.51,3.51,0,0,1-1.384-.171c-.358-.15-.656-.38-.628-.81a.809.809,0,0,1,.776-.784c.764-.106,1.536-.021,2.3-.057.453-.022.951.095,1.3-.335a1.954,1.954,0,0,1-.966-1.979c.011-.489-.02-.978-.033-1.467-.835.006-1.67,0-2.5.021a4.609,4.609,0,0,0-4.095,7.008C3192.782,976.421,3192.853,976.572,3192.927,976.72Z" transform="translate(-3160.361 -956.26)" fill="#fcce49"/>
                <path id="Trazado_145909" data-name="Trazado 145909" d="M3284.944,1037.267q-3.7-6.466-7.4-12.932c-.71-1.244-1.405-2.5-2.107-3.747q-3.493-6.015-6.985-12.029c-.05-.086-.11-.167-.165-.25a.783.783,0,0,0-.913.15,8.268,8.268,0,0,0-2.175,1.485c-.155.356.026.626.194.928,2.953,5.274,6.019,10.484,9.06,15.706,2.238,3.842,4.458,7.693,6.712,11.523.192.325.268.79.782.818a1.134,1.134,0,0,0,.4-.554,1.632,1.632,0,0,1,1.847-1.007C3284.444,1037.388,3284.714,1037.479,3284.944,1037.267Z" transform="translate(-3253.587 -975.241)" fill="#fcb813"/>
                <path id="Trazado_145910" data-name="Trazado 145910" d="M3299.049,1007.454a24.471,24.471,0,0,1,3.013-1.692,15.113,15.113,0,0,0-1.6-2.794c-.791.465-1.569.953-2.376,1.387-.6.321-.722.67-.325,1.253s.737,1.241,1.1,1.866A.174.174,0,0,0,3299.049,1007.454Z" transform="translate(-3287.367 -972.676)" fill="#92d0e9"/>
                <path id="Trazado_145911" data-name="Trazado 145911" d="M3273.989,1011.688a.638.638,0,0,0-.192.02l-2.838,1.737a41.255,41.255,0,0,0,3.026,5.5c2.321,4.1,4.707,8.168,7.062,12.251q3.144,5.453,6.284,10.909c.063.107.2.171.3.256a.448.448,0,0,0,.2-.206c.469-1.268,1.452-1.475,2.631-1.283.146-.062.266-.14.169-.327q-2.387-4.092-4.773-8.185-2.308-3.975-4.6-7.959c-1.74-3.013-3.455-6.042-5.235-9.032C3275.3,1014.164,3274.59,1012.959,3273.989,1011.688Z" transform="translate(-3262.306 -976.932)" fill="#fcce49"/>
                <path id="Trazado_145912" data-name="Trazado 145912" d="M3172.737,983.856q0,30.251,0,60.5c0,.32.112.678-.192.943.188,1.95.033,3.909.149,5.859a2.913,2.913,0,0,0,2.26,2.782,1.238,1.238,0,0,1,.8.366c2.356.394,4.63-1.236,4.625-4.332q-.047-31.228-.018-62.456c0-2.248-1.108-3.531-3.189-3.729Z" transform="translate(-3101.495 -963.45)" fill="#b1d8ec"/>
                <path id="Trazado_145913" data-name="Trazado 145913" d="M3198.137,1111.82a3.719,3.719,0,0,1-2.021-3.811c.063-1.033-.011-2.073.021-3.109a2.92,2.92,0,0,0-.409-1.721l-.6-.206h-12.038a5.229,5.229,0,0,1,2.78,4.437,4.756,4.756,0,0,1-2.4,4.413c.23.279.549.194.838.194q6.5.006,12.99,0C3197.59,1112.017,3197.91,1112.1,3198.137,1111.82Z" transform="translate(-3124.664 -1021.329)" fill="#91d0e9"/>
                <path id="Trazado_145914" data-name="Trazado 145914" d="M3273.091,1068.041c-1.561-.6-2.537-.058-2.838,1.574a.281.281,0,0,1-.326.144c-1.954-.323-2.213-.153-2.848,1.85.69,1.3,2.057,1.856,3.076,2.795.658.606,1.416,1.1,2.129,1.651a5.48,5.48,0,0,0,2.993-1.672,8.116,8.116,0,0,0-.588-2.69c-.229-.93-.5-1.852-.79-2.765C3273.767,1068.516,3273.625,1068.1,3273.091,1068.041Z" transform="translate(-3244.959 -1004.208)" fill="#f3c2b7"/>
                <path id="Trazado_145915" data-name="Trazado 145915" d="M3203.551,975.945c-1.1.008-2.208.036-3.31.019-.822-.013-1.385.292-1.48,1.146-.079.712.547,1.243,1.5,1.25,2.844.02,5.689.062,8.53-.016a2.234,2.234,0,0,1,2.576,1.673,1.628,1.628,0,0,0,1.234.307c1.281-.1,2.6.315,3.842-.3a2.224,2.224,0,0,1,2.563-1.674c2.7.08,5.4.025,8.1.022a4.158,4.158,0,0,0,.895-.053,1.139,1.139,0,0,0,1.038-1.256,1.114,1.114,0,0,0-1.213-1.077c-1.133-.019-2.267-.017-3.4-.024l-11.439,0Z" transform="translate(-3163.609 -959.535)" fill="#5f6ab8"/>
                <path id="Trazado_145916" data-name="Trazado 145916" d="M3218.369,1047.418c4.753,0,9.507-.043,14.26.031a1.738,1.738,0,1,0-.033-3.442c-4.385-.015-8.771-.006-13.156-.006h-14.962a3.091,3.091,0,0,0-1.37.213,1.587,1.587,0,0,0-1,1.849,1.561,1.561,0,0,0,1.7,1.364C3208.662,1047.408,3213.515,1047.418,3218.369,1047.418Z" transform="translate(-3170.852 -992.628)" fill="#fefefe"/>
                <path id="Trazado_145917" data-name="Trazado 145917" d="M3216.45,1057.635c-4.152,0-8.3.05-12.454-.034a1.9,1.9,0,0,0-1.918,1.639,1.843,1.843,0,0,0,1.786,1.807c.165.017.334.006.5.006q12.2,0,24.407,0c1.515,0,2.3-.645,2.243-1.813-.047-1-.741-1.6-1.912-1.6Q3222.777,1057.627,3216.45,1057.635Z" transform="translate(-3167.287 -999.242)" fill="#fefefe"/>
                <path id="Trazado_145918" data-name="Trazado 145918" d="M3215.736,1074.561c3.582,0,7.164-.009,10.746.01a4.349,4.349,0,0,0,1.571-.246,1.51,1.51,0,0,0,1.083-1.512c-.007-.781-.208-1.382-1.015-1.641a4.422,4.422,0,0,0-1.375-.228q-11.1.015-22.194,0a3.131,3.131,0,0,0-1.273.213,1.657,1.657,0,0,0-1.078,1.549,1.521,1.521,0,0,0,1.028,1.563,3.993,3.993,0,0,0,1.561.3C3208.438,1074.554,3212.087,1074.561,3215.736,1074.561Z" transform="translate(-3165.468 -1005.731)" fill="#fefefe"/>
                <path id="Trazado_145919" data-name="Trazado 145919" d="M3211.634,1015.117a8.214,8.214,0,0,0,9.524,2.606,8.551,8.551,0,0,0,5.538-8.245c-.126-4.062-3.57-7.792-7.408-8.024a1.155,1.155,0,0,0,.261.931,7.994,7.994,0,0,1,1.068,4.5,1.966,1.966,0,0,0,.177,1.168c.3.317.749.234,1.11.387a1.4,1.4,0,0,1,1.047,1.511,1.378,1.378,0,0,1-1.354,1.241c-.133.014-.266.015-.4.021-1.517.066-1.517.066-1.585,1.6-.072,1.619-1.076,2.161-2.489,1.342a1.733,1.733,0,0,0-.54-.253,2.258,2.258,0,0,0-1.145.245,8.03,8.03,0,0,1-2.805.476C3212.259,1014.632,3211.734,1014.484,3211.634,1015.117Z" transform="translate(-3167.888 -971.945)" fill="#ee525a"/>
                <path id="Trazado_145920" data-name="Trazado 145920" d="M3215.4,1084.62q-5.672,0-11.342,0c-1.233,0-2.027.69-2.01,1.729a1.759,1.759,0,0,0,1.977,1.683q11.543.012,23.085,0a1.747,1.747,0,0,0,1.953-1.7,1.7,1.7,0,0,0-1.919-1.708Q3221.268,1084.611,3215.4,1084.62Z" transform="translate(-3165.313 -1012.381)" fill="#fefefe"/>
                <path id="Trazado_145921" data-name="Trazado 145921" d="M3224.745,1015.078c.078-.059.16-.174.233-.169a12.562,12.562,0,0,0,4.82-.859,5.5,5.5,0,0,0,0-2.167c-.021-.429-.341-.619-.747-.675s-.8-.006-1.2-.072a1.415,1.415,0,0,1-1.3-1.316,1.314,1.314,0,0,1,1.25-1.431c1.595.08,2.206-.553,2.14-2.135a1.224,1.224,0,0,1,1.334-1.228,1.368,1.368,0,0,1,1.378,1.216c.093.392.032.8.1,1.2.127.788.409.91,1.251.56a9.364,9.364,0,0,0-1.6-6.582c-5.461-.47-9.493,3.116-9.549,8.609A7.667,7.667,0,0,0,3224.745,1015.078Z" transform="translate(-3180.994 -971.905)" fill="#fa6467"/>
                <path id="Trazado_145922" data-name="Trazado 145922" d="M3262.48,1066.337c.114.118.289.217.332.356a51.92,51.92,0,0,1,1.681,6.087.419.419,0,0,0,.276.03,5.845,5.845,0,0,0,2.272-1.608c-.256-1.828-.506-3.656-.77-5.483a1.905,1.905,0,0,0-.6-1.216c-1.792-.492-2.417-.164-3.03,1.593Z" transform="translate(-3234.355 -1002.503)" fill="#e9b4ab"/>
                <path id="Trazado_145923" data-name="Trazado 145923" d="M3263.324,1077.723a16.212,16.212,0,0,0-2.354,1.563.684.684,0,0,0-.15.654,19.63,19.63,0,0,0,1.346,4.153c.332.475.672.892,1.363.61.673-.274.716-.821.634-1.4C3263.9,1081.443,3263.605,1079.584,3263.324,1077.723Z" transform="translate(-3230.639 -1009.031)" fill="#585877"/>
                <path id="Trazado_145924" data-name="Trazado 145924" d="M3189.8,1045.794a1.555,1.555,0,0,0,1.58,1.66,1.83,1.83,0,0,0,1.8-1.671,1.907,1.907,0,0,0-1.736-1.757A1.652,1.652,0,0,0,3189.8,1045.794Z" transform="translate(-3123.164 -992.641)" fill="#fefefe"/>
                <path id="Trazado_145925" data-name="Trazado 145925" d="M3189.85,1072.813a1.479,1.479,0,0,0,1.588,1.616,1.566,1.566,0,0,0,1.769-1.6,1.892,1.892,0,0,0-1.71-1.762A1.657,1.657,0,0,0,3189.85,1072.813Z" transform="translate(-3123.211 -1005.792)" fill="#fefefe"/>
                <path id="Trazado_145926" data-name="Trazado 145926" d="M3268.943,1085.567c-.14-1.466-.824-2.791-1.1-4.221-.038-.194-.062-.39-.093-.585a1.164,1.164,0,0,0-.2.016l-2.82,1.571A32.1,32.1,0,0,0,3268.943,1085.567Z" transform="translate(-3237.413 -1010.506)" fill="#656582"/>
                <path id="Trazado_145927" data-name="Trazado 145927" d="M3228.335,983.861l-5.075,0a2.561,2.561,0,0,0,5.075,0Z" transform="translate(-3175.5 -963.383)" fill="#d9ebf5"/>
                <path id="Trazado_145928" data-name="Trazado 145928" d="M3226.087,1011.1c-.794.188-1.115-.116-1-.926a3.276,3.276,0,0,0-.013-.8,1.743,1.743,0,0,0-1.639-1.611,1.774,1.774,0,0,0-1.754,1.493c-.106.588.231,1.337-.172,1.737s-1.15.062-1.738.171a1.707,1.707,0,0,0,.014,3.389c.588.094,1.335-.239,1.733.184s.048,1.157.167,1.744c.046.228.128.449.194.673a1.773,1.773,0,0,0,2.126.666,1.684,1.684,0,0,0,1.073-1.947c-.178-1.189.365-1.428,1.4-1.306a1.678,1.678,0,0,0,1.819-.972,1.593,1.593,0,0,0-.207-1.786A2.346,2.346,0,0,0,3226.087,1011.1Z" transform="translate(-3173.082 -975.008)" fill="#fefefe"/>
              </g>
            </g>
          </g>
        </g>
      </g>
    </g>
  </g>
</svg>
