<svg xmlns="http://www.w3.org/2000/svg" width="100" height="100.02" viewBox="0 0 100 100.02">
  <g id="Grupo_75289" data-name="Grupo 75289" transform="translate(-1174.26 -1129.814)">
    <g id="Grupo_74983" data-name="Grupo 74983" transform="translate(-1510.746 597.814)">
      <path id="Trazado_145573" data-name="Trazado 145573" d="M2695.8,617.1a54.41,54.41,0,0,1-7.507-13.737,52.06,52.06,0,0,1-2.883-12.129,2.834,2.834,0,0,0-.4-1.643v-1.243a1.586,1.586,0,0,0,0-1.243v-3.315a1.586,1.586,0,0,0,0-1.243v-1.865c.25-1.627.242-3.277.534-4.905a52.834,52.834,0,0,1,11.513-24.792,53.079,53.079,0,0,1,33.782-18.739c1.018-.123,2.052-.061,3.065-.25h1.657a2.118,2.118,0,0,0,1.45,0h1.45c.341.217.72.057,1.078.107.469-.051.953.109,1.409-.107h1.243a28.685,28.685,0,0,0,4.528.729,52.7,52.7,0,0,1,23.469,10.17c.326.251.674.476,1.011.713-.094.523-.54.458-.891.5a11.055,11.055,0,0,1-1.447.029h-50.885c-1.967,0-1.961,0-1.97,2.008-.005,1.138.038,2.276-.027,3.412-.069,1.408.279,2.84-.243,4.221a2.239,2.239,0,0,1-1.486.292c-2.2.011-4.4,0-6.6.007a2.691,2.691,0,0,0-1.312.169c-.388.3-.308.737-.313,1.142-.028,2.3.041,4.6.028,6.9a2.125,2.125,0,0,1-.3,1.479,2.592,2.592,0,0,1-1.507.255c-2.106.009-4.212,0-6.318,0-1.538,0-1.586.046-1.59,1.551-.007,3.383,0,6.767,0,10.15q0,19.833-.016,39.666C2696.307,615.988,2696.6,616.731,2695.8,617.1Z" fill="#32a9cd"/>
      <path id="Trazado_145574" data-name="Trazado 145574" d="M2767.587,532c-.433.414-.965.117-1.445.2-.071-.043-.1-.087-.074-.133s.045-.069.068-.069Z" transform="translate(-29.789)" fill="#60bdd8"/>
      <path id="Trazado_145575" data-name="Trazado 145575" d="M2761.76,532a1.194,1.194,0,0,1-1.45,0Z" transform="translate(-27.674)" fill="#5fbcd8"/>
      <path id="Trazado_145576" data-name="Trazado 145576" d="M2685.006,614.094a.917.917,0,0,1,0,1.243Z" transform="translate(0 -30.163)" fill="#9cd5e7"/>
      <path id="Trazado_145577" data-name="Trazado 145577" d="M2685.006,607.3a.933.933,0,0,1,0,1.243Z" transform="translate(0 -27.668)" fill="#5fbcd8"/>
      <path id="Trazado_145578" data-name="Trazado 145578" d="M2765.667,532c0,.068,0,.135.006.2-.353-.041-.749.142-1.042-.2Z" transform="translate(-29.249)" fill="#43b1d2"/>
      <path id="Trazado_145579" data-name="Trazado 145579" d="M2701.084,632.453c.3-.366.144-.8.145-1.194q.014-25.41.011-50.822c0-1.613-.2-1.4,1.451-1.406,2.76-.013,5.52-.006,8.281-.008a3.172,3.172,0,0,1,2.008-.311q22.68-.01,45.361,0c3.141,0,6.282-.011,9.424,0,1.561.007,1.795.233,1.793,1.815-.01,7.491.059,14.982-.039,22.47a4.894,4.894,0,0,1-.257,1.625q-2.6,9.214-5.225,18.419a12.423,12.423,0,0,0,.281,8.889,1.936,1.936,0,0,1,.146.6,7.676,7.676,0,0,1-.392,1.778c-.066.379-.148.791.341.928.471.133.673-.213.787-.6a12.461,12.461,0,0,1,.508-1.547,2,2,0,0,1,.509-.57c.772-.632,1.528-1.279,2.247-1.974.29-.281.7-.746,1,.043a20.782,20.782,0,0,1,.084,3.2c.012,3.789,0,7.578.007,11.367a6.162,6.162,0,0,1-.121,1.437,50.926,50.926,0,0,1-11.169,4.766,72.526,72.526,0,0,1-8.739,1.833,1.23,1.23,0,0,0-1.016.013,2.36,2.36,0,0,0-1.063.189,12.51,12.51,0,0,0-3.281.017h-1.682a12.517,12.517,0,0,0-3.282-.017c-1.827-.266-3.663-.479-5.479-.806a53.348,53.348,0,0,1-28.826-15.56A32.727,32.727,0,0,1,2701.084,632.453Z" transform="translate(-5.285 -21.393)" fill="#e8e3d7"/>
      <path id="Trazado_145580" data-name="Trazado 145580" d="M2730.721,555.29c-.01-1.656,0-3.313-.041-4.968-.013-.569.146-.849.753-.783a7.743,7.743,0,0,0,.828,0q26.354,0,52.708-.011c.412,0,.9.225,1.24-.234a2.444,2.444,0,0,0,1.311.2c3.348,0,6.7.029,10.044-.021.881-.013,1.1.273,1.088,1.116-.041,3.969-.016,7.939-.02,11.909a3.1,3.1,0,0,0,.183,1.319q.391,26.9,0,53.8a45.966,45.966,0,0,1-5.772,7.907c-.473-.056-.459-.45-.508-.773a9.011,9.011,0,0,1-.037-1.342q0-18.141,0-36.283c0-.827.062-1.653.048-2.477a4.968,4.968,0,0,1,.488-1.991c1.309-3.3,2.683-6.579,3.932-9.9a4.431,4.431,0,0,0-1.349-5.4,2.445,2.445,0,0,1-.585-.579.574.574,0,0,1-.091-.391,2.112,2.112,0,0,0-.928-2.386,10.493,10.493,0,0,1,.7-3.211c.469-1.821.392-2.009-1.382-2.652-.281-.123-.573-.232-.7-.552-.371-1.955-.371-1.956-2.466-1.956q-28.731,0-57.462-.008C2732.036,555.624,2731.315,555.8,2730.721,555.29Z" transform="translate(-21.056 -5.686)" fill="#e8e3d7"/>
      <path id="Trazado_145581" data-name="Trazado 145581" d="M2832.073,618.691c-.325-.241-.182-.571-.182-.859q-.011-23.017,0-46.034c0-.288-.145-.619.182-.859a48.869,48.869,0,0,1,5.088,10.5,42.461,42.461,0,0,1,1.854,18.414,43.292,43.292,0,0,1-6.734,18.427A4.081,4.081,0,0,0,2832.073,618.691Z" transform="translate(-54.315 -12.799)" fill="#32a9cd"/>
      <path id="Trazado_145582" data-name="Trazado 145582" d="M2814.289,649.682a44.631,44.631,0,0,1-6.007,4.761c-.47-.524-.328-1.172-.327-1.775.015-7.605-.064-15.21.04-22.813a5.943,5.943,0,0,1,.272-1.595c.156-.458.244-.936.4-1.4a11.047,11.047,0,0,0,.476-1.6c.114-.389.2-.786.323-1.173.112-.349.221-.7.317-1.053,1.133-4.211,2.36-8.394,3.573-12.582.11-.38.064-1.02.8-.894a1.723,1.723,0,0,1,.231,1.093c.062,12.565.027,25.129.039,37.694A5.225,5.225,0,0,1,2814.289,649.682Z" transform="translate(-45.417 -31.534)" fill="#e8e3d7"/>
      <path id="Trazado_145583" data-name="Trazado 145583" d="M2817.131,642.434c-.352-.343-.2-.783-.2-1.177q-.014-18.91-.014-37.821c0-.4.148-.832-.176-1.187-.292-.314-.129-.653-.031-.971,1.277-4.181,2.3-8.432,3.57-12.616.132-.438.134-.981.706-1.165.445.3.359.778.382,1.21.044.819-.052,1.64.034,2.458a9.624,9.624,0,0,1-.845,2.314,40.317,40.317,0,0,0-3.02,11.848,3.946,3.946,0,0,0-.112,1.458c.007.068.007.137.015.2.052.4.043.94.578.936.564,0,.663-.554.664-1a30.406,30.406,0,0,1,.655-5.3,26.713,26.713,0,0,1,1.1-4.064c.108-.306.165-.691.606-.74q.01,19.989.028,39.978c0,.427-.177.9.2,1.28A30.875,30.875,0,0,1,2817.131,642.434Z" transform="translate(-49.293 -24.287)" fill="#d2cdc1"/>
      <path id="Trazado_145584" data-name="Trazado 145584" d="M2806.468,639.363q0,12.436.007,24.872a36.707,36.707,0,0,1-3.722,2.293c-.366-.335-.208-.775-.208-1.168q-.022-7.631-.018-15.26c-.191-.287-.032-.54.114-.762a17.044,17.044,0,0,0,1.923-4.648,11.34,11.34,0,0,0,.452-1.588c.113-.432.3-.843.377-1.285.081-.339.189-.671.295-1a13.106,13.106,0,0,1,.5-1.414A.234.234,0,0,1,2806.468,639.363Z" transform="translate(-43.271 -41.326)" fill="#d2cdc1"/>
      <path id="Trazado_145585" data-name="Trazado 145585" d="M2765.266,689.885a6.058,6.058,0,0,1,3.281-.017Z" transform="translate(-29.551 -57.865)" fill="#c8dcdb"/>
      <path id="Trazado_145586" data-name="Trazado 145586" d="M2757.871,689.868a6.066,6.066,0,0,1,3.283.017Z" transform="translate(-26.828 -57.865)" fill="#c8dcdb"/>
      <path id="Trazado_145587" data-name="Trazado 145587" d="M2771.738,689.586a.706.706,0,0,1,1.015-.012Z" transform="translate(-31.86 -57.771)" fill="#dcddd4"/>
      <path id="Trazado_145588" data-name="Trazado 145588" d="M2716.123,564.306l9.715-.079a2.618,2.618,0,0,1,1.793-.326q20.5-.009,41,0,6.678,0,13.356,0c2.087,0,2.24.16,2.212,2.228a5.594,5.594,0,0,1-.058.927c-2.359,3.785-2.687,8.254-4.127,12.352-.49,1.4-.8,2.855-1.25,4.265-.113.348-.043.994-.772.8a2.707,2.707,0,0,1-.262-1.608c-.009-3.588,0-7.176-.005-10.764,0-1.694-.026-1.721-1.742-1.721q-28.719,0-57.438,0c-2.528,0-2.547,0-2.52-2.47A19.823,19.823,0,0,1,2716.123,564.306Z" transform="translate(-13.507 -11.997)" fill="#e8e3d7"/>
      <path id="Trazado_145589" data-name="Trazado 145589" d="M2716.064,564.51c0,1.553.047,3.109-.023,4.659-.04.884.273,1.089,1.115,1.087q15.223-.04,30.447-.017c9.735,0,19.47.013,29.206-.02.934,0,1.234.224,1.221,1.2-.055,4.073-.027,8.147-.018,12.22,0,.367-.12.764.156,1.1.28.442.064.871-.062,1.284-1.153,3.814-2.194,7.661-3.316,11.484-.128.438-.112.986-.689,1.171q-.019-9.528-.038-19.056c0-1.485-.019-2.97.008-4.454.01-.574-.186-.838-.775-.784-.274.025-.552,0-.828,0q-27.6,0-55.207,0c-.483,0-.966-.014-1.449-.021.021-2.93.034-5.86.072-8.789C2715.89,565.219,2715.7,564.811,2716.064,564.51Z" transform="translate(-12.996 -12.521)" fill="#d2cdc1"/>
      <path id="Trazado_145590" data-name="Trazado 145590" d="M2788.69,565.493c0-.793-.021-1.587,0-2.379.015-.515-.152-.787-.708-.742-.274.022-.551,0-.827,0l-56.5-.01q.027-2.07.055-4.141l60.317.007c1.79,0,1.79,0,1.8,1.816,0,.207.007.413.01.62-1.452.03-1.95.987-2.194,2.223-.125.638-.361,1.252-.533,1.881-.1.364-.211.736-.625.887A.77.77,0,0,1,2788.69,565.493Z" transform="translate(-21.05 -9.699)" fill="#d2cdc1"/>
      <path id="Trazado_145591" data-name="Trazado 145591" d="M2809.293,569.053l.82.051c.409-.032.8-.02.961.46a46.784,46.784,0,0,1-1.64,6.177c-2.915,10.167-5.774,20.351-8.685,30.52-.395,1.378-.383,1.387.968,1.785.926.273,1.858.52,2.78.806.479.15.951.342.652,1.012l-.254,1.02c-.573.426-1.131.078-1.677-.057-1.123-.278-2.213-.688-3.5-.93.23.7.736.674,1.115.811a21.4,21.4,0,0,1,3.707,1.222,4.018,4.018,0,0,1-.445,1.652c-.374.344-.777.169-1.171.06-.964-.268-1.921-.556-2.887-.815-.315-.084-.628-.313-1.016-.078.111.473.534.475.866.584.984.321,2.006.512,2.984.848.344.117.863.1.857.686q-.124.7-.248,1.395c-.054.01-.108.021-.162.034-.589.361-1.134.006-1.685-.122-1.117-.259-2.192-.71-3.4-.874.049.557.415.552.677.624,1.06.3,2.1.651,3.167.93.436.115,1.016.2.821.919l-.261.993c-.262.516-.7.346-1.084.242-1-.271-1.994-.524-2.985-.814a1.647,1.647,0,0,0-1.039-.138c.055.478.447.489.736.58.95.3,1.913.56,2.871.834a1.977,1.977,0,0,1,1.091.54,4.207,4.207,0,0,1-.431,1.646c-.423.336-.863.127-1.281.013-.962-.262-1.929-.522-2.87-.854-.721-.254-1.053-.018-1.247.722a11.269,11.269,0,0,0,.111,6.708c.137.4.442.812.134,1.271l-.436.436c-.887.807-1.226.714-1.594-.436a14.1,14.1,0,0,1-1.26-5.781,25.261,25.261,0,0,1,1.166-5.409q2.492-8.773,4.987-17.546a4.286,4.286,0,0,0,.082-.613q1.43-4.852,2.858-9.706c.413-1.408.806-2.822,1.208-4.233q2.2-7.7,4.4-15.406A2.387,2.387,0,0,1,2809.293,569.053Z" transform="translate(-41.653 -15.548)" fill="#8d4d84"/>
      <path id="Trazado_145592" data-name="Trazado 145592" d="M2739.41,651.154c7.9,0,15.806.012,23.709-.018.846,0,1.295.106,1.159,1.1-.126.914.371,2.127-.182,2.7-.6.623-1.829.2-2.779.2-15.219.014-30.439,0-45.658.038-1.081,0-1.317-.3-1.29-1.324.072-2.687.023-2.688,2.677-2.688Z" transform="translate(-11.777 -43.903)" fill="#434751"/>
      <path id="Trazado_145593" data-name="Trazado 145593" d="M2739.257,616.093c-7.938,0-15.876-.013-23.813.018-.829,0-1.216-.164-1.1-1.061.126-.945-.423-2.216.234-2.764.559-.468,1.779-.168,2.707-.168q22.882-.008,45.763-.023c.923,0,1.32.2,1.184,1.175-.127.909.394,2.134-.223,2.662-.526.45-1.707.157-2.6.158Q2750.335,616.1,2739.257,616.093Z" transform="translate(-11.733 -29.49)" fill="#434751"/>
      <path id="Trazado_145594" data-name="Trazado 145594" d="M2739.275,629.07c-7.939,0-15.877-.012-23.815.018-.827,0-1.194-.156-1.1-1.058.094-.918-.279-2.139.187-2.7.547-.659,1.811-.213,2.758-.214q22.884-.025,45.766-.031c.916,0,1.321.188,1.183,1.168-.127.908.392,2.135-.22,2.662-.523.45-1.708.152-2.6.152Q2750.354,629.075,2739.275,629.07Z" transform="translate(-11.753 -34.263)" fill="#434751"/>
      <path id="Trazado_145595" data-name="Trazado 145595" d="M2739.373,638.107c7.939,0,15.877.016,23.816-.021.885,0,1.144.244,1.051,1.091-.1.918.374,2.133-.174,2.7-.6.617-1.829.193-2.78.193q-22.884.021-45.768.033c-.97,0-1.28-.271-1.17-1.206.1-.882-.361-2.031.179-2.6s1.7-.179,2.583-.181Q2728.242,638.093,2739.373,638.107Z" transform="translate(-11.737 -39.061)" fill="#434751"/>
      <path id="Trazado_145596" data-name="Trazado 145596" d="M2729.009,596.147c-4.555,0-9.11-.016-13.665.015-.748.005-1.084-.162-1-.969.1-.953-.383-2.172.184-2.807.587-.656,1.824-.209,2.771-.211,8.455-.021,16.909,0,25.363-.032.885,0,1.273.179,1.157,1.127a9.568,9.568,0,0,0,0,1.964c.064.737-.219.932-.936.927C2738.257,596.133,2733.633,596.146,2729.009,596.147Z" transform="translate(-11.163 -22.121)" fill="#434751"/>
      <path id="Trazado_145597" data-name="Trazado 145597" d="M2762.77,670.978a7.412,7.412,0,0,0,3.272-1.465c.313-.213.631-.422.946-.632.458-.305.945-.534,1.39-.033a1.11,1.11,0,0,1-.03,1.587c-.148.177-.406.275-.422.628a3.44,3.44,0,0,0,2.154-.319c1.081-.452,2.152-.928,3.223-1.4.6-.263,1.233-.71,1.768-.007a1.349,1.349,0,0,1-.289,1.933,2.5,2.5,0,0,0-.227.325,4.134,4.134,0,0,0,2.791-.223c1.155-.343,2.282-.775,3.418-1.181a1.01,1.01,0,0,1,.828,1.838c-1.989.762-3.928,1.722-6.114,1.8a2.839,2.839,0,0,1-2.914-1.361c-.231-.431-.487-.259-.761-.127a10.353,10.353,0,0,1-2.835.928,2.911,2.911,0,0,1-2.679-.732.669.669,0,0,0-.963-.12,5.34,5.34,0,0,1-2.864.74c-1.848-.1-2.556-1.454-1.545-2.991.436-.663.911-1.3,1.38-1.939a1,1,0,0,1,1.526-.285c.61.438.52.987.109,1.527C2763.58,669.93,2763.225,670.386,2762.77,670.978Z" transform="translate(-28.429 -50.651)" fill="#42577f"/>
      <path id="Trazado_145598" data-name="Trazado 145598" d="M2797.753,654.625a14.059,14.059,0,0,1-1.025-5,23.766,23.766,0,0,1,.673-3.733c.095-.487.4-.508.847-.393a47.149,47.149,0,0,0,4.657,1.266,10.682,10.682,0,0,1-5.152,7.86Z" transform="translate(-41.261 -42.04)" fill="#a25894"/>
      <path id="Trazado_145599" data-name="Trazado 145599" d="M2794.939,659.122a.943.943,0,0,0,1.594.436c-.156.593-.3,1.188-.472,1.777s-.54.9-1.148.706c-.551-.178-.682-.6-.5-1.153C2794.605,660.3,2794.764,659.711,2794.939,659.122Z" transform="translate(-40.208 -47.83)" fill="#df9235"/>
      <path id="Trazado_145600" data-name="Trazado 145600" d="M2808.475,610c.079-.656-.457-.686-.861-.8-1.185-.349-2.373-.7-3.574-.989-.581-.142-.674-.393-.517-.943q3.252-11.342,6.473-22.694,2.132-7.482,4.27-14.963c.355-.293.722-.067,1.085-.027.876.371,1.915.321,2.666,1.019,1.29.647,1.328.751,1,2.728.154.658-.2,1.224-.321,1.835-.506,1.842-1.035,3.677-1.567,5.511-.1.354-.156.747-.546.939q-2.076,7.356-4.15,14.711-1.891,6.714-3.786,13.429A.974.974,0,0,1,2808.475,610Z" transform="translate(-44.979 -14.632)" fill="#a25894"/>
      <path id="Trazado_145601" data-name="Trazado 145601" d="M2823.064,576.891q.272-.837.545-1.673c2.425,1.564,3.125,3.615,2.078,6.307-1.262,3.242-2.58,6.462-3.861,9.7-.2.509-.333,1.045-.5,1.569a30.525,30.525,0,0,0-2.044,9.215c-.045.48-.016.969-.1,1.441-.085.5-.325.96-.926.923-.539-.034-.711-.483-.8-.943a4.586,4.586,0,0,1-.036-.618c.225-.476-.031-1,.162-1.484a38.262,38.262,0,0,1,3.324-12.721c.193-.468.412-.924.62-1.386a3.242,3.242,0,0,1,.333-1.486c.635-1.556,1.22-3.133,1.883-4.676a3.016,3.016,0,0,0-.408-3.618A1.792,1.792,0,0,1,2823.064,576.891Z" transform="translate(-49.572 -16.486)" fill="#df9132"/>
      <path id="Trazado_145602" data-name="Trazado 145602" d="M2823.776,568.175a16.055,16.055,0,0,1-2.707-.8,1.748,1.748,0,0,1,.1-1.3c.316-1.084.587-2.183.954-3.252.163-.473.366-.932,1.022-.641,1.809.408,2.1.893,1.589,2.648C2824.411,565.945,2824.095,567.06,2823.776,568.175Z" transform="translate(-50.737 -11.113)" fill="#ef9f37"/>
      <path id="Trazado_145603" data-name="Trazado 145603" d="M2822.275,562.042c-.577-.077-.666.366-.781.754-.438,1.476-.864,2.956-1.294,4.435l-1.044-.19-.827-.367a33.534,33.534,0,0,0,1.178-3.7c.466-1.277.846-1.508,2.151-1.179C2821.872,561.856,2822.118,561.837,2822.275,562.042Z" transform="translate(-49.867 -10.948)" fill="#dfb66e"/>
      <path id="Trazado_145604" data-name="Trazado 145604" d="M2807.48,631.782a45.212,45.212,0,0,1-4.845-1.262c-.438-.1-.36-.426-.274-.736.119-.429.414-.354.73-.265,1.312.375,2.625.749,3.942,1.108a5.929,5.929,0,0,0,.806.109C2807.708,631.081,2807.743,631.483,2807.48,631.782Z" transform="translate(-43.288 -35.844)" fill="#a25894"/>
      <path id="Trazado_145605" data-name="Trazado 145605" d="M2806.3,636.025c-1.215-.763-2.666-.787-3.968-1.28a5.465,5.465,0,0,0-.589-.173c-.4-.1-.68-.217-.521-.77s.527-.349.8-.277c1.189.314,2.367.666,3.546,1.02a2.721,2.721,0,0,0,1.1.2Z" transform="translate(-42.874 -37.317)" fill="#a25894"/>
      <path id="Trazado_145606" data-name="Trazado 145606" d="M2824.9,577.71c1.358,1.108,1.73,2.2,1.142,3.72-.858,2.215-1.778,4.406-2.672,6.608-.389-.712-.085-1.482-.185-2.217-.067-.5.167-1.033-.175-1.5Q2823.954,581.015,2824.9,577.71Z" transform="translate(-51.406 -16.963)" fill="#e8e3d7"/>
      <path id="Trazado_145607" data-name="Trazado 145607" d="M2817.574,614.11a2.76,2.76,0,0,1-.162,1.483C2817.458,615.1,2817.23,614.573,2817.574,614.11Z" transform="translate(-49.556 -30.176)" fill="#d2cdc1"/>
      <path id="Trazado_145608" data-name="Trazado 145608" d="M2804.052,643.786c-1.55-.422-3.1-.847-4.651-1.261a.583.583,0,0,1-.472-.773c.113-.5.445-.381.805-.276,1.313.382,2.639.726,3.951,1.112a.831.831,0,0,0,.776-.046Q2804.257,643.164,2804.052,643.786Z" transform="translate(-42.037 -40.237)" fill="#a25894"/>
      <path id="Trazado_145609" data-name="Trazado 145609" d="M2805.1,640.209c-.082-.517-.494-.57-.9-.68-1.184-.32-2.356-.683-3.539-1.007-.453-.124-.729-.285-.567-.841.206-.7.624-.215.888-.151,1.521.371,3.028.795,4.54,1.2A3.515,3.515,0,0,1,2805.1,640.209Z" transform="translate(-42.454 -38.757)" fill="#a25894"/>
    </g>
  </g>
</svg>
