<svg xmlns="http://www.w3.org/2000/svg" width="104.757" height="104.757" viewBox="0 0 104.757 104.757">
  <g id="Grupo_75200" data-name="Grupo 75200" transform="translate(-1393 4631.256)">
    <circle id="Elipse_4753" data-name="Elipse 4753" cx="52.378" cy="52.378" r="52.378" transform="translate(1393 -4631.256)" fill="#7e5ee3"/>
    <g id="s2vGth" transform="translate(-152.096 -5680.736)">
      <g id="Grupo_74962" data-name="Grupo 74962" transform="translate(1561.168 1064.723)">
        <path id="Trazado_145445" data-name="Trazado 145445" d="M1602.849,1092.344c.33.017.532.033.733.037,3.271.064,5.217,2.051,5.217,5.349q0,18.19,0,36.377v1.1h2.364q0-5.811,0-11.63,0-9.727.01-19.453c0-3.1,1.5-4.6,4.6-4.6q5.016,0,10.032,0c2.848,0,4.443,1.59,4.443,4.422q0,14.743-.01,29.486a18.1,18.1,0,0,1-.192,1.833c.716,0,1.457-.006,2.2,0,1,.011,1.512.4,1.534,1.157.022.786-.522,1.242-1.545,1.242q-10.294.011-20.587.009-23.816,0-47.631,0c-.495,0-.99.01-1.483-.01-.887-.038-1.389-.506-1.365-1.246.023-.7.511-1.141,1.362-1.149,1.8-.017,3.606-.008,5.409-.01h.89c-.234-.357-.409-.608-.569-.868a6.883,6.883,0,0,1-.309-7.212,6.752,6.752,0,0,1,6.05-3.785c2.027-.068,4.058-.013,6.2-.013v-1.106c0-8.084.086-16.169-.034-24.251-.053-3.57,2.387-5.857,5.479-5.649a3.5,3.5,0,0,0,.506-.049c0-1.8,0-3.562,0-5.328,0-1.4.359-1.771,1.74-1.772q6.587-.006,13.173-.005c1.436,0,1.786.363,1.788,1.823C1602.851,1088.785,1602.849,1090.525,1602.849,1092.344Zm3.512,42.9c.014-.282.032-.481.032-.68q0-18.443-.006-36.885c0-2-.926-2.893-2.958-2.894q-8.938,0-17.875,0c-2.029,0-2.95.9-2.952,2.9q-.009,12.469-.013,24.939a.9.9,0,0,0,.79,1.064,6.959,6.959,0,0,1,4.992,8.156,20.209,20.209,0,0,1-1.345,3.4Zm7.193-23.864h14.284c0-2.692.017-5.3-.009-7.917a1.476,1.476,0,0,0-1.644-1.525q-5.491-.016-10.982.006a1.468,1.468,0,0,0-1.638,1.535C1613.531,1106.088,1613.553,1108.7,1613.553,1111.376Zm0,14.414c0,2.718-.024,5.36.013,8a1.452,1.452,0,0,0,1.536,1.461q5.621.029,11.243,0a1.4,1.4,0,0,0,1.468-1.328c.039-2.695.015-5.39.015-8.135Zm.031-2.492h14.185v-9.417h-14.185Zm-37.03,12.021v-9.532c-.981,0-1.885-.068-2.775.013a4.727,4.727,0,0,0-.569,9.32A23.739,23.739,0,0,0,1576.552,1135.318Zm2.471-.1a23.889,23.889,0,0,0,3.092-.022,4.653,4.653,0,0,0,4.016-4.467c.08-3.423-2.738-5.739-7.108-4.821Zm14.2-47.53h-1.09c-.115.94.256,2.233-1.15,2.282-1.561.054-1.13-1.355-1.307-2.3h-1.052v4.666H1600.4v-4.63h-1.1c-.144,1.791-.414,2.353-1.2,2.3-1.541-.107-1.121-1.406-1.25-2.323h-1.076c-.215,1.87-.472,2.33-1.278,2.329S1593.433,1089.543,1593.228,1087.685Z" transform="translate(-1561.168 -1072.135)" fill="#fff"/>
        <path id="Trazado_145446" data-name="Trazado 145446" d="M1593.713,1068.932a4.15,4.15,0,1,1-4.094-4.208A4.137,4.137,0,0,1,1593.713,1068.932Zm-4.19,1.73a1.778,1.778,0,0,0,1.828-1.716,1.784,1.784,0,0,0-3.568-.088A1.779,1.779,0,0,0,1589.523,1070.662Z" transform="translate(-1569.934 -1064.723)" fill="#fff"/>
        <path id="Trazado_145447" data-name="Trazado 145447" d="M1570.846,1077.14c-1.323-1.5-1.5-2.052-.857-2.648.6-.561,1.127-.381,2.579.9.81-.482,1.383-1.945,2.653-.823.628.555.426,1.064-.88,2.563.476.813,2.026,1.456.8,2.632-1.126,1.078-1.744-.306-2.547-.865-.81.487-1.47,2.018-2.629.8C1568.9,1078.58,1570.27,1077.951,1570.846,1077.14Z" transform="translate(-1564.206 -1068.133)" fill="#fff"/>
        <path id="Trazado_145448" data-name="Trazado 145448" d="M1623.729,1069.767a1.271,1.271,0,1,1,1.262-1.285A1.3,1.3,0,0,1,1623.729,1069.767Z" transform="translate(-1583.323 -1065.628)" fill="#fff"/>
        <path id="Trazado_145457" data-name="Trazado 145457" d="M1605.053,1129.2c0-1,0-1.922,0-2.844,0-1.645.262-1.9,1.939-1.9q1.789,0,3.577.006c1.316.006,1.624.32,1.632,1.665.006.984,0,1.968,0,3.077,1.132,0,2.194-.006,3.256,0,1.106.008,1.527.421,1.535,1.53q.017,2.05-.006,4.1c-.013,1.107-.432,1.51-1.548,1.519-1.042.009-2.084,0-3.238,0,0,1.106.008,2.144,0,3.183-.011,1.22-.346,1.551-1.561,1.558-1.367.008-2.734.013-4.1,0-1.077-.007-1.459-.388-1.475-1.479-.015-1.045,0-2.091,0-3.267-1.083,0-2.117,0-3.152,0-1.213-.007-1.608-.4-1.615-1.626-.008-1.308-.011-2.617,0-3.926.006-1.208.407-1.6,1.637-1.6C1602.938,1129.2,1603.949,1129.2,1605.053,1129.2Zm9.469,4.753v-2.35c-1.108,0-2.152.013-3.2,0-1.071-.017-1.465-.418-1.477-1.485s0-2.129,0-3.238h-2.4v2.826c0,1.62-.287,1.9-1.944,1.9h-2.746v2.356c1.092,0,2.131-.012,3.17,0,1.119.016,1.51.417,1.518,1.538.008,1.062,0,2.123,0,3.177h2.4c0-1.087-.007-2.1,0-3.117.009-1.217.392-1.6,1.63-1.607C1612.482,1133.948,1613.491,1133.956,1614.522,1133.956Z" transform="translate(-1575.312 -1086.322)" fill="#fff"/>
        <path id="Trazado_145458" data-name="Trazado 145458" d="M1647.384,1133.771a1.318,1.318,0,0,1-1.253,1.3,1.276,1.276,0,0,1-.049-2.552A1.313,1.313,0,0,1,1647.384,1133.771Z" transform="translate(-1591.421 -1089.237)" fill="#fff"/>
        <path id="Trazado_145459" data-name="Trazado 145459" d="M1654.838,1133.82a1.271,1.271,0,1,1-1.243-1.3A1.3,1.3,0,0,1,1654.838,1133.82Z" transform="translate(-1594.118 -1089.237)" fill="#fff"/>
        <path id="Trazado_145460" data-name="Trazado 145460" d="M1662.295,1133.775a1.248,1.248,0,1,1-1.289-1.255A1.274,1.274,0,0,1,1662.295,1133.775Z" transform="translate(-1596.83 -1089.237)" fill="#fff"/>
        <path id="Trazado_145461" data-name="Trazado 145461" d="M1647.37,1139.4a1.251,1.251,0,0,1-1.291,1.249,1.25,1.25,0,1,1,1.291-1.249Z" transform="translate(-1591.418 -1091.271)" fill="#fff"/>
        <path id="Trazado_145462" data-name="Trazado 145462" d="M1654.838,1139.414a1.27,1.27,0,1,1-1.278-1.261A1.263,1.263,0,0,1,1654.838,1139.414Z" transform="translate(-1594.119 -1091.273)" fill="#fff"/>
        <path id="Trazado_145463" data-name="Trazado 145463" d="M1661.07,1138.156a1.247,1.247,0,1,1-.091,2.493,1.247,1.247,0,0,1,.091-2.493Z" transform="translate(-1596.831 -1091.274)" fill="#fff"/>
      </g>
    </g>
  </g>
</svg>
