<svg xmlns="http://www.w3.org/2000/svg" width="104.757" height="104.757" viewBox="0 0 104.757 104.757">
  <g id="Grupo_75196" data-name="Grupo 75196" transform="translate(-452 4189.732)">
    <circle id="Elipse_4747" data-name="Elipse 4747" cx="52.378" cy="52.378" r="52.378" transform="translate(452 -4189.732)" fill="#7e5ee3"/>
    <g id="Grupo_75187" data-name="Grupo 75187" transform="translate(-234.667 -4217.638)">
      <path id="Trazado_145466" data-name="Trazado 145466" d="M807.03,100.213c0-4.145.021-8.29-.007-12.435a4.842,4.842,0,1,0-9.676.083q-.012,8.169,0,16.338v.812c-.156-.119-.226-.168-.291-.222a4.979,4.979,0,0,0-6.213-.357c-2.15,1.414-4.344,2.774-6.362,4.376a20.412,20.412,0,0,0-7.239,10.857c-1.092,4.039-1.773,8.173-2.668,12.259-.267,1.219-.095,1.644.93,2.269h.867a2.37,2.37,0,0,0,1.024-1.446.776.776,0,0,1,.183-.125c.733-3.413,1.458-6.828,2.148-10.25a18.26,18.26,0,0,1,5.908-10.512,64.365,64.365,0,0,1,7.174-4.99,1.61,1.61,0,0,1,1.186-.2,1.927,1.927,0,0,1,1.6,1.3,2.172,2.172,0,0,1-.432,2.294c-1.4,1.592-2.885,3.1-4.336,4.646-.824.877-1.656,1.749-2.455,2.648a1.611,1.611,0,0,0,.037,2.386,1.689,1.689,0,0,0,2.439-.249c2.083-2.172,4.1-4.4,6.2-6.559a11.192,11.192,0,0,0,3.391-8.247c-.061-5.517-.017-11.035-.017-16.552a3.809,3.809,0,0,1,.119-1.217,1.631,1.631,0,0,1,1.847-1.169,1.7,1.7,0,0,1,1.515,1.422,5.634,5.634,0,0,1,.032.938c0,6.963-.023,13.927.012,20.89a12.486,12.486,0,0,1-2.282,7.534c-3.426,4.835-6.873,9.656-10.285,14.5a2.731,2.731,0,0,0-.6,1.489.731.731,0,0,1,.155.429c.121.5.569.719.9,1.04h.867a3.085,3.085,0,0,0,.961-.835q5.359-7.573,10.733-15.135a14.173,14.173,0,0,0,2.628-8.467C807.018,106.575,807.03,103.394,807.03,100.213Z" transform="translate(-30.964 -16.889)" fill="#fff"/>
      <path id="Trazado_145467" data-name="Trazado 145467" d="M732.384,121.9a21.392,21.392,0,0,0-7.04-12.437,59.216,59.216,0,0,0-7.766-5.37,4.371,4.371,0,0,0-3.141-.472,5.466,5.466,0,0,0-2.735,1.406v-.819q0-7.156,0-14.312c0-.867.046-1.739-.03-2.6a4.561,4.561,0,0,0-3.071-4.163,4.672,4.672,0,0,0-5.181,1.105,8.682,8.682,0,0,0-1.4,2.374v25.165a15.273,15.273,0,0,1,.558,2.187,15.141,15.141,0,0,0,2.186,4.431c.739,1.037,1.47,2.08,2.21,3.115a1.541,1.541,0,0,0,2.268.67c.032.025.061.052.092.077l.026-.013a1.553,1.553,0,0,0,.281-2.258c-.8-1.292-1.735-2.491-2.587-3.748a11.387,11.387,0,0,1-1.941-6.55q-.007-10.629,0-21.258a7.921,7.921,0,0,1,.02-.94,1.681,1.681,0,0,1,1.627-1.544,1.639,1.639,0,0,1,1.808,1.41,5.006,5.006,0,0,1,.052,1.009q0,8.532,0,17.064a9.989,9.989,0,0,0,2.455,6.638c1.781,2.09,3.761,4,5.6,6.035.533.589,1.11,1.138,1.654,1.718a1.626,1.626,0,0,0,2.5-2.075,2.571,2.571,0,0,0-.365-.447c-1.071-1.01-2.022-2.135-3.022-3.209-1.2-1.287-2.475-2.5-3.588-3.865a2.238,2.238,0,0,1-.009-2.917,2.027,2.027,0,0,1,2.75-.226c1.371.9,2.732,1.812,4.093,2.725a24.957,24.957,0,0,1,2.772,2.083,18.618,18.618,0,0,1,5.871,10.543c.681,3.4,1.407,6.793,2.137,10.184a.726.726,0,0,1,.184.128,2.37,2.37,0,0,0,1.024,1.446h.868c1.024-.624,1.189-1.048.932-2.269C733.774,128.586,733.058,125.248,732.384,121.9Z" transform="translate(0 -16.89)" fill="#fff"/>
      <path id="Trazado_145468" data-name="Trazado 145468" d="M762.669,94.764c1.339,0,1.883-.55,1.888-1.881.006-1.566.028-3.134-.014-4.7-.014-.528.146-.626.637-.619,1.927.029,3.856.021,5.784.008a1.508,1.508,0,0,0,1.685-1.639c.027-.818.036-1.64,0-2.457a6.745,6.745,0,0,0-3.983-6.208,19.441,19.441,0,0,0-3.248-.941c-.2-.058-.514.044-.559-.322-.038-.307.2-.416.374-.565a6.135,6.135,0,0,0,2.278-3.972,22.619,22.619,0,0,0,.05-4.9,6.421,6.421,0,0,0-10.234-4.649c-.586.437-.56-.145-.687-.378a8.161,8.161,0,0,0-7.547-4.6,8.058,8.058,0,0,0-7.459,4.6c-.3.57-.454.576-.949.223A6.425,6.425,0,0,0,731,65a16.7,16.7,0,0,0-.274,6.447,5.713,5.713,0,0,0,1.879,3.642c.172.168.372.306.542.476.334.335.4.61-.182.737-.61.132-1.216.289-1.824.432a6.843,6.843,0,0,0-5.119,4.327,12.533,12.533,0,0,0-.443,4.715c.006,1.263.555,1.792,1.817,1.8,1.9,0,3.808.014,5.712-.009.432-.006.568.08.558.547-.036,1.638-.026,3.277-.011,4.916a1.521,1.521,0,0,0,1.667,1.731q4.121.037,8.242,0c1.031-.007,1.455-.4,1.687-1.417a1.309,1.309,0,0,0-1-1.559,2.871,2.871,0,0,0-.717-.072c-1.019-.026-1.019-.026-1.022-1.067,0-.506.017-1.012-.009-1.518a1.651,1.651,0,1,0-3.277.022c-.016.289,0,.578-.008.867-.031,1.878.314,1.687-1.85,1.7-.464,0-.647-.206-.642-.658.011-.988-.045-1.978.018-2.963a5.918,5.918,0,0,1,4.9-5.741c.823-.184,1.642-.386,2.461-.585.873-.212.9-.191,1.26.6.735,1.624,1.431,3.266,2.163,4.891a1.632,1.632,0,0,0,1.486,1.083,1.657,1.657,0,0,0,1.634-.976c.1-.191.184-.393.268-.593.633-1.512,1.343-2.989,1.968-4.5.179-.435.413-.689.924-.564a37,37,0,0,1,3.911,1.035,5.41,5.41,0,0,1,3.248,3.1,10.165,10.165,0,0,1,.52,4.2c-.021,1.856.267,1.655-1.717,1.681-.549.007-.8-.188-.778-.757s.019-1.157,0-1.734a1.662,1.662,0,1,0-3.281-.029c-.017.457,0,.916-.006,1.373,0,1.123,0,1.124-1.094,1.142a3.073,3.073,0,0,0-.79.072,1.31,1.31,0,0,0-1,1.559c.233,1.054.685,1.417,1.831,1.421Q758.657,94.775,762.669,94.764Zm-4.546-29.6a3.657,3.657,0,0,1,3.825-1.557,3.5,3.5,0,0,1,2.716,3.241,13.378,13.378,0,0,1-6.269-.925C757.975,65.731,757.848,65.6,758.123,65.167Zm.583,3.967a15.314,15.314,0,0,0,5.28.616c.586-.023.785.1.748.732A3.608,3.608,0,0,1,761.225,74a3.521,3.521,0,0,1-3.628-3.356c-.021-.239-.024-.48-.035-.721C757.579,68.77,757.576,68.776,758.706,69.134ZM743.6,65.085a5.527,5.527,0,0,1,10.442-2.26,7.325,7.325,0,0,1,.369.859,6.5,6.5,0,0,1,.161.765c-.793-.465-1.511-.9-2.244-1.31a1.4,1.4,0,0,0-2.006.269c-1.721,1.936-3.935,2.338-6.364,2.194C743.53,65.576,743.591,65.358,743.6,65.085Zm-9.842.744a3.379,3.379,0,0,1,2.774-2.25A3.45,3.45,0,0,1,740,65.039c.321.427.368.668-.229.923a12.217,12.217,0,0,1-4.858.909h-.434C733.367,66.87,733.357,66.865,733.757,65.829Zm-.276,4.323c.027-.488.313-.389.579-.386a16.808,16.808,0,0,0,5.141-.547c.455-.139.905-.291,1.451-.468a13.239,13.239,0,0,1-.047,2.163,3.547,3.547,0,0,1-4.014,3.062A3.688,3.688,0,0,1,733.481,70.152Zm6.674,9.4a8.669,8.669,0,0,0-5.576,4.671.716.716,0,0,1-.769.468c-1.565-.024-3.132-.027-4.7,0-.477.009-.661-.085-.662-.619-.006-2.587,1.062-3.981,3.581-4.579.958-.228,1.921-.441,2.875-.686s1.24-.555,1.337-1.527c.03-.3.091-.44.417-.407a3.945,3.945,0,0,0,.793,0c.305-.031.428.057.433.384a1.54,1.54,0,0,0,1.412,1.561c.556.123,1.107.269,1.681.41A1.6,1.6,0,0,1,740.155,79.553Zm.952-3.268c-.413-.1-.416-.327-.208-.626a.747.747,0,0,1,.108-.1c.948-.916.944-.913,1.824.054.258.283.533.553.818.809.258.232.54.439.811.656C743.337,76.787,742.221,76.542,741.107,76.285Zm9.714,2.457a2.412,2.412,0,0,1-.125.847c-.512,1.137-1.011,2.281-1.589,3.593-.6-1.37-1.162-2.561-1.636-3.786-.321-.831-.082-1.052.8-.973a6.413,6.413,0,0,0,2.086-.069C750.7,78.271,750.85,78.369,750.821,78.742Zm1.534-4.243a5.521,5.521,0,0,1-8.73-3.943c-.069-.644-.264-1.469.04-1.9.329-.472,1.2-.149,1.834-.16a9.007,9.007,0,0,0,5.737-2.021.7.7,0,0,1,1-.045,10.5,10.5,0,0,0,1.62.941,1.2,1.2,0,0,1,.821,1.459,4.375,4.375,0,0,0,0,.6A5.535,5.535,0,0,1,752.355,74.5Zm1.456,2.621a11.021,11.021,0,0,0,2.179-2.208c.074-.106.189-.322.313-.163.348.445,1,.622,1.14,1.224.067.286-.246.279-.451.333C755.935,76.586,754.851,76.76,753.811,77.121Zm3.565,2.231c-.041-.011-.073-.057-.149-.118.669-.166,1.274-.319,1.88-.466a1.436,1.436,0,0,0,1.224-1.406c.018-.423.154-.547.551-.48a2.156,2.156,0,0,0,.576,0c.334-.036.525.006.522.435a1.41,1.41,0,0,0,1.23,1.464c1.167.281,2.341.538,3.5.851,2.389.648,3.2,2.538,3.056,4.752-.018.277-.171.3-.38.3-1.733,0-3.465,0-5.2,0a.431.431,0,0,1-.456-.263A8.99,8.99,0,0,0,757.376,79.351Z" transform="translate(-10.062 -5.846)" fill="#fff"/>
      <path id="Trazado_145469" data-name="Trazado 145469" d="M765.563,48.3a1.461,1.461,0,0,0,1.452-1.326,9.986,9.986,0,0,0,.008-1.15h0a11.905,11.905,0,0,0-.007-1.222,1.453,1.453,0,0,0-1.434-1.344,1.408,1.408,0,0,0-1.4,1.288,16.405,16.405,0,0,0,0,2.442A1.423,1.423,0,0,0,765.563,48.3Z" transform="translate(-26.55)" fill="#fff"/>
      <path id="Trazado_145470" data-name="Trazado 145470" d="M752.608,52.234a1.413,1.413,0,0,0,2.208-1.118c.038-.91-2.058-3.035-2.931-3.015a1.491,1.491,0,0,0-1.264.775,1.289,1.289,0,0,0,.058,1.428A8.855,8.855,0,0,0,752.608,52.234Z" transform="translate(-20.695 -2.068)" fill="#fff"/>
      <path id="Trazado_145471" data-name="Trazado 145471" d="M775.735,52.23a1.277,1.277,0,0,0,1.658.094,9.094,9.094,0,0,0,1.968-1.981,1.24,1.24,0,0,0,.009-1.426,1.387,1.387,0,0,0-1.282-.707,1.157,1.157,0,0,0-.457.088,6.768,6.768,0,0,0-2.33,2.387A1.227,1.227,0,0,0,775.735,52.23Z" transform="translate(-31.27 -2.115)" fill="#fff"/>
      <path id="Trazado_145472" data-name="Trazado 145472" d="M765.551,117.98c-.769.017-1.2.451-1.428,1.449.264.952.734,1.4,1.464,1.4s1.192-.444,1.465-1.4C766.805,118.4,766.348,117.962,765.551,117.98Z" transform="translate(-26.546 -31.935)" fill="#fff"/>
    </g>
  </g>
</svg>
