<svg xmlns="http://www.w3.org/2000/svg" width="104.757" height="104.757" viewBox="0 0 104.757 104.757">
  <g id="Grupo_75202" data-name="Grupo 75202" transform="translate(-766 4631.256)">
    <circle id="Elipse_4751" data-name="Elipse 4751" cx="52.378" cy="52.378" r="52.378" transform="translate(766 -4631.256)" fill="#7e5ee3"/>
    <g id="Grupo_75193" data-name="Grupo 75193" transform="translate(-649.867 -5447.632)">
      <g id="Trazado_145432" data-name="Trazado 145432" transform="translate(-28.535 -28.557)" fill="none" stroke-miterlimit="10">
        <path d="M1521.863,903.422c.014-.163.028-.327.042-.49l-.353-2.245-.044-.3q-.03-.207-.061-.414a23.666,23.666,0,0,0-.728-2.774,29.836,29.836,0,0,0-2.607-5.707h0a.709.709,0,0,0-.159-.016h0c-.019-.041-.04-.081-.06-.121q-.063-.128-.134-.251a8.466,8.466,0,0,0-1.02-1.376l-.152-.338a25.109,25.109,0,0,0-2.924-3.094q-.789-.71-1.629-1.363t-1.721-1.263l-.18.012-1.91-1.189h0l-.34-.052a.542.542,0,0,1,0,.1.513.513,0,0,1-.058.18.513.513,0,0,0,.058-.18.542.542,0,0,0,0-.1c-.182-.109-.357-.231-.541-.336-.062-.035-.124-.068-.187-.1a27.429,27.429,0,0,0-8.465-2.157l-3.3-.036c-.771.1-1.55.157-2.318.269-.256.037-.511.081-.764.134q-14.19,2.972-19.287,16.56a17.478,17.478,0,0,0-.63,2.1,47.122,47.122,0,0,0-.774,4.742q.021,1.557.042,3.115h0c.139.932.269,1.865.42,2.8a29.192,29.192,0,0,0,2.306,6.932l1.233,2.082a28.124,28.124,0,0,0,5.723,6.256l1.746,1.346h0c1.045.59,2.1,1.144,3.187,1.638a25.954,25.954,0,0,0,5.649,1.882l.517-.019a6.02,6.02,0,0,0,.905.2c.2.031.408.054.613.074.307.031.615.055.922.088l.513-.034a5.5,5.5,0,0,0,2.434.079c.187-.019.375-.034.563-.042a23.77,23.77,0,0,0,8.973-2.253q.671-.308,1.314-.661a42.865,42.865,0,0,0,3.715-2.351h0q.274-.243.544-.489a42.282,42.282,0,0,0,3.591-3.641,30.517,30.517,0,0,0,3.437-5.886A24.43,24.43,0,0,0,1521.863,903.422Z" stroke="none"/>
        <path d="M 1507.738647460938 882.6812133789062 L 1505.822631835938 885.8699340820312 C 1505.69775390625 885.7947998046875 1505.587524414062 885.724365234375 1505.4990234375 885.667724609375 C 1505.466430664062 885.6468505859375 1505.425659179688 885.6207275390625 1505.396240234375 885.602294921875 C 1503.074951171875 884.5350341796875 1500.479858398438 884.1007080078125 1498.426391601562 883.8485717773438 L 1495.605834960938 883.8175659179688 C 1495.339721679688 883.8488159179688 1495.080810546875 883.8760375976562 1494.828247070312 883.9026489257812 C 1494.408447265625 883.94677734375 1494.011962890625 883.988525390625 1493.645874023438 884.042236328125 C 1493.450561523438 884.07080078125 1493.2802734375 884.1005249023438 1493.123291015625 884.1334838867188 C 1489.082885742188 884.9798583984375 1485.673461914062 886.5773315429688 1482.989624023438 888.8815307617188 C 1480.3056640625 891.1859130859375 1478.210327148438 894.31494140625 1476.76220703125 898.18017578125 C 1476.577514648438 898.6736450195312 1476.419189453125 899.2028198242188 1476.277954101562 899.7979736328125 C 1475.983764648438 901.0381469726562 1475.8095703125 902.3692016601562 1475.625122070312 903.7784423828125 L 1475.615600585938 903.8513793945312 L 1475.625610351562 904.59619140625 C 1475.6337890625 905.200927734375 1475.641845703125 905.8056030273438 1475.64990234375 906.410400390625 C 1475.68017578125 906.614990234375 1475.710083007812 906.819580078125 1475.739990234375 907.024169921875 C 1475.834228515625 907.6683349609375 1475.923217773438 908.2767944335938 1476.022216796875 908.8858642578125 C 1476.328735351562 910.77197265625 1477.071655273438 912.6129760742188 1477.948974609375 914.635498046875 L 1478.993530273438 916.3990478515625 C 1480.365356445312 918.4154052734375 1481.98583984375 920.183349609375 1483.811645507812 921.6553344726562 C 1484.306274414062 922.03662109375 1484.800659179688 922.4178466796875 1485.295043945312 922.7993774414062 C 1486.234375 923.3232421875 1487.098388671875 923.7639770507812 1487.92919921875 924.14306640625 C 1489.449340820312 924.836669921875 1490.874267578125 925.3311157226562 1492.270263671875 925.6486206054688 L 1492.977783203125 925.6238403320312 L 1493.629760742188 925.827880859375 C 1493.678466796875 925.8430786132812 1493.77099609375 925.866455078125 1493.936401367188 925.891357421875 C 1494.046630859375 925.907958984375 1494.178344726562 925.9237060546875 1494.349731445312 925.9408569335938 C 1494.46728515625 925.9525756835938 1494.5849609375 925.9632568359375 1494.70263671875 925.9740600585938 C 1494.781494140625 925.9812622070312 1494.861450195312 925.988525390625 1494.94287109375 925.9962158203125 L 1495.941040039062 925.9302368164062 L 1496.571411132812 926.1514892578125 C 1496.718139648438 926.1474609375 1496.946166992188 926.1238403320312 1497.167358398438 926.1008911132812 C 1497.255493164062 926.0917358398438 1497.34375 926.0826416015625 1497.42822265625 926.0743408203125 C 1497.72412109375 926.0450439453125 1497.973876953125 926.0265502929688 1498.213989257812 926.0162353515625 C 1500.70556640625 925.9091796875 1503.150634765625 925.2903442382812 1505.68896484375 924.1243286132812 C 1506.037963867188 923.9640502929688 1506.387084960938 923.7882080078125 1506.755981445312 923.5869140625 C 1507.832885742188 922.9990234375 1508.902954101562 922.2852172851562 1509.914306640625 921.5922241210938 C 1510.026123046875 921.4921875 1510.1357421875 921.3933715820312 1510.242065429688 921.296630859375 C 1511.454711914062 920.1953735351562 1512.478393554688 919.1647338867188 1513.365966796875 918.1511840820312 C 1514.44970703125 916.5993041992188 1515.550537109375 914.9443359375 1516.257446289062 913.2166137695312 C 1517.592407226562 909.952880859375 1518.121704101562 906.85205078125 1517.87548828125 903.7369384765625 L 1517.849365234375 903.40673828125 L 1517.878173828125 903.073486328125 L 1517.533569335938 900.8511962890625 C 1517.524169921875 900.78662109375 1517.5146484375 900.7221069335938 1517.505249023438 900.6575927734375 C 1517.356567382812 899.9242553710938 1517.159057617188 899.1792602539062 1516.917846679688 898.4420776367188 C 1516.600830078125 897.47314453125 1516.206176757812 896.5017700195312 1515.724731445312 895.5076904296875 L 1515.400146484375 895.5122680664062 L 1514.307250976562 893.128173828125 C 1514.299926757812 893.1131591796875 1514.290893554688 893.0963745117188 1514.282470703125 893.08154296875 C 1514.153442382812 892.854736328125 1513.906127929688 892.5633544921875 1513.731323242188 892.3638916015625 L 1513.337768554688 891.914794921875 L 1513.152954101562 891.5045166015625 C 1512.51025390625 890.731689453125 1511.799072265625 889.997314453125 1510.98779296875 889.2684936523438 C 1510.55078125 888.8751831054688 1510.07470703125 888.4771118164062 1509.572143554688 888.0848388671875 C 1509.432739257812 887.9760131835938 1509.290283203125 887.8668212890625 1509.145141601562 887.757568359375 L 1509.114868164062 887.7596435546875 L 1506.109252929688 885.88916015625 L 1507.7607421875 883.2357177734375 L 1507.837768554688 882.7342529296875 L 1507.738647460938 882.6812133789062 M 1495.385009765625 879.8148803710938 C 1496.48681640625 879.8270263671875 1497.587646484375 879.839111328125 1498.689208984375 879.8511962890625 C 1501.60546875 880.19873046875 1504.46923828125 880.756591796875 1507.154296875 882.0083618164062 C 1507.218017578125 882.0381469726562 1507.2802734375 882.0707397460938 1507.341796875 882.105712890625 C 1507.525634765625 882.2100830078125 1507.701171875 882.3320922851562 1507.8828125 882.4412231445312 C 1507.883544921875 882.4526977539062 1507.8837890625 882.4639892578125 1507.8837890625 882.4750366210938 C 1507.8837890625 882.4993896484375 1507.882202148438 882.5228271484375 1507.879150390625 882.5455932617188 C 1507.870849609375 882.6116333007812 1507.849853515625 882.6708374023438 1507.82080078125 882.7251586914062 C 1507.849853515625 882.6708374023438 1507.870849609375 882.6116333007812 1507.879150390625 882.5455932617188 C 1507.882202148438 882.5228271484375 1507.8837890625 882.4993896484375 1507.8837890625 882.4750366210938 C 1507.8837890625 882.4639892578125 1507.883544921875 882.4526977539062 1507.8828125 882.4412231445312 C 1507.99609375 882.4586181640625 1508.109619140625 882.4758911132812 1508.222900390625 882.4932250976562 C 1508.859619140625 882.8895263671875 1509.496337890625 883.285400390625 1510.133056640625 883.6817626953125 L 1510.312744140625 883.6696166992188 C 1510.900390625 884.0756225585938 1511.474609375 884.4953002929688 1512.0341796875 884.9323120117188 C 1512.593505859375 885.368896484375 1513.1376953125 885.8219604492188 1513.66357421875 886.2952270507812 C 1514.716064453125 887.2407836914062 1515.697509765625 888.2650146484375 1516.587158203125 889.3890991210938 C 1516.637939453125 889.5018920898438 1516.688720703125 889.6146850585938 1516.739501953125 889.7274169921875 C 1517.117919921875 890.1591796875 1517.47607421875 890.6058349609375 1517.75927734375 891.1036376953125 C 1517.805908203125 891.185791015625 1517.8505859375 891.2695922851562 1517.892822265625 891.35498046875 C 1517.9130859375 891.3952026367188 1517.93408203125 891.4346923828125 1517.952880859375 891.4757690429688 C 1518.006225585938 891.4751586914062 1518.0595703125 891.480224609375 1518.112060546875 891.491455078125 C 1519.173583984375 893.3179321289062 1520.06884765625 895.209716796875 1520.719482421875 897.1980590820312 C 1521.01513671875 898.101806640625 1521.26025390625 899.0253295898438 1521.447265625 899.9718017578125 C 1521.4677734375 900.1095581054688 1521.48779296875 900.2472534179688 1521.508056640625 900.3854370117188 C 1521.52294921875 900.4861450195312 1521.537353515625 900.5863647460938 1521.55224609375 900.6870727539062 C 1521.669921875 901.4354248046875 1521.787353515625 902.1837158203125 1521.905029296875 902.9315795898438 C 1521.890869140625 903.0950927734375 1521.877197265625 903.25830078125 1521.863037109375 903.4217529296875 C 1522.173583984375 907.3506469726562 1521.4443359375 911.1014404296875 1519.959716796875 914.73095703125 C 1519.08984375 916.8571166992188 1517.830810546875 918.7496337890625 1516.522705078125 920.6168212890625 C 1515.405029296875 921.9104614257812 1514.1943359375 923.1106567382812 1512.931396484375 924.2576904296875 C 1512.7509765625 924.421630859375 1512.5693359375 924.5846557617188 1512.386962890625 924.7466430664062 C 1511.177001953125 925.5783081054688 1509.9599609375 926.3950805664062 1508.67236328125 927.097900390625 C 1508.242919921875 927.332275390625 1507.805908203125 927.5537719726562 1507.358642578125 927.7592163085938 C 1504.5048828125 929.0701293945312 1501.533447265625 929.8773193359375 1498.3857421875 930.0125732421875 C 1498.197998046875 930.0206298828125 1498.009765625 930.0363159179688 1497.822509765625 930.0548706054688 C 1497.009521484375 930.1347045898438 1496.197265625 930.259521484375 1495.388427734375 929.9755249023438 C 1495.217529296875 929.98681640625 1495.04638671875 929.9981079101562 1494.875244140625 930.0093383789062 C 1494.568359375 929.976318359375 1494.26025390625 929.9517822265625 1493.952880859375 929.921142578125 C 1493.748046875 929.900634765625 1493.543701171875 929.8773193359375 1493.34033203125 929.8466796875 C 1493.035400390625 929.80078125 1492.732421875 929.7383422851562 1492.43505859375 929.645263671875 C 1492.2626953125 929.6513061523438 1492.090576171875 929.6577758789062 1491.918212890625 929.663818359375 C 1489.944091796875 929.2655029296875 1488.073974609375 928.6057739257812 1486.268798828125 927.7821655273438 C 1485.185791015625 927.2879638671875 1484.126708984375 926.734619140625 1483.08203125 926.1441650390625 C 1482.500244140625 925.695068359375 1481.91845703125 925.2464599609375 1481.33642578125 924.7977905273438 C 1479.107177734375 923.0067138671875 1477.210693359375 920.9112548828125 1475.613525390625 918.5414428710938 C 1475.202392578125 917.8475341796875 1474.791259765625 917.1531372070312 1474.380126953125 916.4591674804688 C 1473.40380859375 914.217529296875 1472.469482421875 911.9613037109375 1472.073974609375 909.5274658203125 C 1471.9228515625 908.5975341796875 1471.793212890625 907.6643676757812 1471.65380859375 906.7323608398438 C 1471.64013671875 905.6937255859375 1471.6259765625 904.6553955078125 1471.612060546875 903.6170654296875 C 1471.8212890625 902.0266723632812 1472.0166015625 900.4317626953125 1472.385986328125 898.8746948242188 C 1472.553955078125 898.1666870117188 1472.75830078125 897.4667358398438 1473.015869140625 896.7783813476562 C 1476.407470703125 887.7254028320312 1482.843505859375 882.2000122070312 1492.30322265625 880.2184448242188 C 1492.55615234375 880.1653442382812 1492.810791015625 880.121826171875 1493.06689453125 880.0843505859375 C 1493.8349609375 879.9716186523438 1494.6142578125 879.9127807617188 1495.385009765625 879.8148803710938 Z" stroke="none" fill="#fff"/>
      </g>
      <g id="Trazado_145433" data-name="Trazado 145433" transform="translate(-42.703 -71.839)" fill="none" stroke-miterlimit="10">
        <path d="M1526.425,954.726a.171.171,0,0,1,.027-.134c-.137-.391-.1-.821-.371-1.161a2.7,2.7,0,0,0-4.222-.176,15.4,15.4,0,0,1-15.927,3.614,14.5,14.5,0,0,1-5.922-3.629,2.565,2.565,0,0,0-3.9-.1c-1.1,1.131-1.024,2.474.232,3.721a16.392,16.392,0,0,0,1.667,1.509c6.879,5.177,14.259,5.841,22.072,2.439a22.029,22.029,0,0,0,6.383-4.725A5.247,5.247,0,0,0,1526.425,954.726Z" stroke="none"/>
        <path d="M 1497.951782226562 952.2838134765625 C 1498.644897460938 952.2838134765625 1499.357666015625 952.6022338867188 1500.011474609375 953.2392578125 C 1501.712646484375 954.896484375 1503.657470703125 956.1793212890625 1505.932983398438 956.868408203125 C 1511.9140625 958.67919921875 1517.2568359375 957.541259765625 1521.860229492188 953.2548828125 C 1523.2529296875 951.9584350585938 1524.964477539062 952.0263061523438 1526.081909179688 953.430908203125 C 1526.3525390625 953.7708740234375 1526.315063476562 954.2005615234375 1526.452514648438 954.591552734375 C 1526.427856445312 954.6270751953125 1526.414916992188 954.672607421875 1526.425415039062 954.7257080078125 C 1526.512329101562 955.1756591796875 1526.491821289062 955.6263427734375 1526.462036132812 956.0777587890625 C 1524.549072265625 957.9324951171875 1522.566650390625 959.7198486328125 1520.078979492188 960.8028564453125 C 1512.26513671875 964.205322265625 1504.885864257812 963.541015625 1498.006591796875 958.3641357421875 C 1497.401245117188 957.90869140625 1496.8720703125 957.383056640625 1496.339965820312 956.8551025390625 C 1495.083740234375 955.608154296875 1495.004516601562 954.2650146484375 1496.107666015625 953.1343994140625 C 1496.661010742188 952.5673828125 1497.297607421875 952.2838134765625 1497.951782226562 952.2838134765625 Z" stroke="none" fill="#fff"/>
      </g>
      <g id="Trazado_145434" data-name="Trazado 145434" transform="translate(-71.014 -48.695)" fill="none" stroke-miterlimit="10">
        <path d="M1545.315,923.23a2.619,2.619,0,0,0,2.623-2.556,1.888,1.888,0,0,1,1.8-1.944,1.977,1.977,0,0,1,2.011,1.953,2.71,2.71,0,0,0,2.729,2.544,2.789,2.789,0,0,0,2.454-3.109,7.607,7.607,0,0,0-2.305-4.711,7.065,7.065,0,0,0-7.319-1.39,7.148,7.148,0,0,0-4.567,6.3A2.807,2.807,0,0,0,1545.315,923.23Z" stroke="none"/>
        <path d="M 1554.31787109375 923.2318725585938 C 1553.029663085938 923.2318725585938 1551.867309570312 922.0977783203125 1551.745727539062 920.6824951171875 C 1551.64501953125 919.5115966796875 1550.8486328125 918.7297973632812 1549.760131835938 918.7297973632812 C 1549.751586914062 918.7297973632812 1549.742919921875 918.7297973632812 1549.734252929688 918.7299194335938 C 1548.744750976562 918.7412109375 1548.018310546875 919.5281982421875 1547.938842773438 920.6740112304688 C 1547.837524414062 922.14453125 1546.740234375 923.2304077148438 1545.3671875 923.2304077148438 C 1545.349975585938 923.2304077148438 1545.332763671875 923.2302856445312 1545.3154296875 923.2299194335938 C 1543.93505859375 923.202880859375 1542.746215820312 921.938232421875 1542.737060546875 920.3143310546875 C 1542.997192382812 917.4403076171875 1544.451904296875 915.2376708984375 1547.303833007812 914.0165405273438 C 1549.659912109375 913.0076293945312 1552.721923828125 913.6205444335938 1554.62255859375 915.4067993164062 C 1555.998291015625 916.7000122070312 1556.681884765625 918.3038330078125 1556.927978515625 920.1173706054688 C 1557.136108398438 921.6514892578125 1555.940307617188 923.1211547851562 1554.474365234375 923.2262573242188 C 1554.421997070312 923.2300415039062 1554.369873046875 923.2318725585938 1554.31787109375 923.2318725585938 Z" stroke="none" fill="#fff"/>
      </g>
      <g id="Trazado_145435" data-name="Trazado 145435" transform="translate(-39.648 -48.72)" fill="none" stroke-miterlimit="10">
        <path d="M1493.07,923.241a2.572,2.572,0,0,0,2.338-2.571,1.963,1.963,0,0,1,1.865-1.916,1.923,1.923,0,0,1,1.945,1.909,2.7,2.7,0,0,0,2.6,2.592,2.8,2.8,0,0,0,2.609-2.958,8.132,8.132,0,0,0-.843-2.9,7.056,7.056,0,0,0-12.8.551,5.631,5.631,0,0,0-.476,3.363A2.715,2.715,0,0,0,1493.07,923.241Z" stroke="none"/>
        <path d="M 1501.698974609375 923.2589111328125 C 1500.462524414062 923.2589111328125 1499.337158203125 922.0961303710938 1499.217651367188 920.6634521484375 C 1499.123413085938 919.5306396484375 1498.34814453125 918.7533569335938 1497.322998046875 918.7533569335938 C 1497.306396484375 918.7533569335938 1497.28955078125 918.7535400390625 1497.272827148438 918.7539672851562 C 1496.271850585938 918.7789306640625 1495.498657226562 919.5731811523438 1495.408081054688 920.6698608398438 C 1495.286376953125 922.142333984375 1494.4501953125 923.0621948242188 1493.070068359375 923.2410278320312 C 1491.991821289062 923.3811645507812 1490.548217773438 922.4911499023438 1490.307983398438 921.31103515625 C 1490.078491210938 920.18212890625 1490.317260742188 919.0113525390625 1490.784423828125 917.948486328125 C 1491.970581054688 915.2500610351562 1494.078857421875 913.716796875 1497.0048828125 913.5826416015625 C 1497.1357421875 913.57666015625 1497.2646484375 913.5736694335938 1497.392456054688 913.5736694335938 C 1500.134643554688 913.5736694335938 1502.196899414062 914.9463500976562 1503.580688476562 917.3971557617188 C 1504.118408203125 918.3492431640625 1504.290649414062 919.3899536132812 1504.423217773438 920.29736328125 C 1504.430419921875 921.9602661132812 1503.308471679688 923.167724609375 1501.814575195312 923.2554931640625 C 1501.776000976562 923.2577514648438 1501.737426757812 923.2589111328125 1501.698974609375 923.2589111328125 Z" stroke="none" fill="#fff"/>
      </g>
      <g id="Trazado_145436" data-name="Trazado 145436" transform="translate(0 -8.815)" fill="none" stroke-miterlimit="10">
        <path d="M1425.128,885.224a4.053,4.053,0,0,1,.445.029l3.295.013,6.734-.047c1.112-.008,1.195-.1,1.269-1.226.047-.7.1-1.406.173-2.106q.054-.524.122-1.046c.068-.522.149-1.042.245-1.559a50.6,50.6,0,0,1,2-6.508q.154-.357.321-.708.5-1.055,1.1-2.065a23.449,23.449,0,0,1,1.891-3.09,32.9,32.9,0,0,1,2.995-3.555,30.448,30.448,0,0,1,6.274-5,6.572,6.572,0,0,0,.549-.412l-6.5-11.18a39.266,39.266,0,0,0-7.751,5.646q-.816.752-1.6,1.544a44.038,44.038,0,0,0-9.455,14.134c-.077.183-.181.354-.273.531l-1.724,5.2c-.256,1.189-.5,2.38-.713,3.577-.106.6-.2,1.2-.29,1.8s-.162,1.205-.223,1.812c-.021.213.077.471-.179.621v3.3a1.731,1.731,0,0,0,1.068.3Z" stroke="none"/>
        <path d="M 1428.860473632812 881.2656860351562 L 1431.538818359375 881.2467041015625 C 1432.05615234375 881.2430419921875 1432.5732421875 881.2393188476562 1433.090454101562 881.2356567382812 C 1433.124877929688 880.9185791015625 1433.161010742188 880.6171264648438 1433.199829101562 880.3208618164062 C 1433.281616210938 879.6958618164062 1433.372802734375 879.1160888671875 1433.47802734375 878.5509643554688 C 1433.749633789062 877.0875854492188 1434.107666015625 875.7596435546875 1434.570922851562 874.4990234375 C 1434.874267578125 873.3865356445312 1435.266235351562 872.2725219726562 1435.737426757812 871.184326171875 C 1435.855712890625 870.9099731445312 1435.983032226562 870.629150390625 1436.115478515625 870.350341796875 C 1436.475219726562 869.5919189453125 1436.883056640625 868.8251953125 1437.328369140625 868.069580078125 C 1437.933837890625 866.8914794921875 1438.65673828125 865.7161865234375 1439.477905273438 864.5746459960938 C 1440.430297851562 863.2505493164062 1441.528198242188 861.945556640625 1442.834106445312 860.5850830078125 C 1444.177368164062 859.185546875 1445.644409179688 857.8983764648438 1447.2177734375 856.7374877929688 L 1444.666748046875 852.3486328125 C 1443.4345703125 853.2324829101562 1442.220703125 854.2272338867188 1441.00537109375 855.3472900390625 C 1440.5166015625 855.7977905273438 1440.019775390625 856.276611328125 1439.528686523438 856.7703857421875 C 1435.849975585938 860.4697875976562 1432.955200195312 864.797119140625 1430.925048828125 869.6322021484375 L 1430.923095703125 869.6369018554688 C 1430.828857421875 869.8604125976562 1430.731567382812 870.052978515625 1430.650390625 870.20556640625 L 1429.104858398438 874.8667602539062 C 1428.90966796875 875.7781982421875 1428.670532226562 876.9288940429688 1428.465209960938 878.0885620117188 C 1428.359375 878.6862182617188 1428.271362304688 879.2323608398438 1428.195556640625 879.7612915039062 C 1428.124755859375 880.2527465820312 1428.063720703125 880.7391357421875 1428.013793945312 881.2080078125 C 1428.013916015625 881.2261962890625 1428.013916015625 881.2445068359375 1428.013793945312 881.2625122070312 C 1428.296020507812 881.2636108398438 1428.578247070312 881.2646484375 1428.860473632812 881.2656860351562 M 1428.8671875 885.2657470703125 C 1427.76904296875 885.26171875 1426.670654296875 885.25732421875 1425.572387695312 885.2528686523438 C 1425.426147460938 885.2330932617188 1425.277099609375 885.2274780273438 1425.127685546875 885.223876953125 C 1425.052734375 885.2222290039062 1424.978271484375 885.2210693359375 1424.9033203125 885.2186279296875 C 1424.530517578125 885.2073974609375 1424.162231445312 885.1710815429688 1423.834838867188 884.9197998046875 L 1423.834838867188 881.6236572265625 C 1424.090209960938 881.473876953125 1423.992309570312 881.2161254882812 1424.013671875 881.002685546875 C 1424.074829101562 880.396484375 1424.149780273438 879.7927856445312 1424.236450195312 879.1910400390625 C 1424.322631835938 878.58935546875 1424.420532226562 877.9896240234375 1424.526489257812 877.3911743164062 C 1424.73828125 876.194580078125 1424.983642578125 875.003662109375 1425.239624023438 873.8143920898438 C 1425.814331054688 872.081298828125 1426.389038085938 870.3478393554688 1426.963745117188 868.6148071289062 C 1427.0556640625 868.43798828125 1427.159912109375 868.2664184570312 1427.236938476562 868.0836181640625 C 1429.47265625 862.7592163085938 1432.621704101562 858.0433959960938 1436.6923828125 853.9498901367188 C 1437.216674804688 853.4226684570312 1437.750366210938 852.9075317382812 1438.29443359375 852.4060668945312 C 1440.652954101562 850.2324829101562 1443.208374023438 848.3125 1446.045043945312 846.7599487304688 C 1448.2109375 850.486572265625 1450.376953125 854.2128295898438 1452.54296875 857.939453125 C 1452.360107421875 858.0776977539062 1452.188842773438 858.2343139648438 1451.99365234375 858.3518676757812 C 1449.68310546875 859.7450561523438 1447.586303710938 861.410400390625 1445.719970703125 863.3549194335938 C 1444.640991210938 864.4789428710938 1443.62841796875 865.6546020507812 1442.72509765625 866.910400390625 C 1442.022216796875 867.887451171875 1441.385131835938 868.912841796875 1440.833740234375 870.0003051757812 C 1440.4326171875 870.674072265625 1440.06298828125 871.361572265625 1439.729370117188 872.0648193359375 C 1439.618286132812 872.298828125 1439.511108398438 872.5347900390625 1439.408447265625 872.7728271484375 C 1438.996459960938 873.72412109375 1438.652099609375 874.7040405273438 1438.385498046875 875.7177734375 C 1437.9443359375 876.8840942382812 1437.634765625 878.0746459960938 1437.410888671875 879.2808837890625 C 1437.314575195312 879.7979736328125 1437.234375 880.3175659179688 1437.166015625 880.8399047851562 C 1437.120361328125 881.1878662109375 1437.080078125 881.5366821289062 1437.043823242188 881.8862915039062 C 1436.97216796875 882.5858764648438 1436.9169921875 883.2882690429688 1436.870361328125 883.9922485351562 C 1436.795776367188 885.1151123046875 1436.712890625 885.2105712890625 1435.601196289062 885.21826171875 C 1433.356689453125 885.2335205078125 1431.112182617188 885.2500610351562 1428.8671875 885.2657470703125 Z" stroke="none" fill="#fff"/>
      </g>
      <g id="Trazado_145437" data-name="Trazado 145437" transform="translate(-89.202 -8.822)" fill="none" stroke-miterlimit="10">
        <path d="M1598.382,867.895a4.548,4.548,0,0,1-.146-.493,1.347,1.347,0,0,0-1.382-.733c-1.81,0-3.62-.079-5.429-.15-.99-.039-1.235-.459-.778-1.336.864-1.658,1.75-3.3,2.635-4.952a3.271,3.271,0,0,0,.168-.351,1.2,1.2,0,0,0,.087-.63l-.19-.259-.691-.94-1.73-2.094h0a54.617,54.617,0,0,0-6.065-5.741c-.48-.378-1-.7-1.474-1.092a5.19,5.19,0,0,1-.45-.416,9.1,9.1,0,0,1-.834-.466,19.392,19.392,0,0,0-2.457-1.472l-2.828,4.9-3.628,6.282.051.153.023.068a9.673,9.673,0,0,1,1.985,1.2c.086.07.172.142.255.217q.448.307.886.628t.861.654a23.122,23.122,0,0,1,4.51,4.617,7.645,7.645,0,0,1,1.158,1.425c.116.168.234.335.356.5a28.635,28.635,0,0,1,3.136,5.694q.415,1,.76,2.041a1.424,1.424,0,0,1,.039.143c.032.145.047.3.075.443a6.572,6.572,0,0,1,.474,1.261,10.28,10.28,0,0,1,.256,1.323h0a21.21,21.21,0,0,1,.739,4.679c.026.364.05.729.075,1.093.068,1,.174,1.156,1.16,1.164.95.008,1.9.009,2.851.013l3.3.018c1.126-.008,2.253-.023,3.379-.025q.564,0,1.127,0a1.969,1.969,0,0,0,1.217-.333v-2.949a4.079,4.079,0,0,1-.288-1.842A45.477,45.477,0,0,0,1598.382,867.895Z" stroke="none"/>
        <path d="M 1596.133056640625 881.2815551757812 C 1596.53515625 881.27880859375 1596.937255859375 881.2750244140625 1597.33935546875 881.2713012695312 C 1597.429809570312 881.2704467773438 1597.520751953125 881.2695922851562 1597.612060546875 881.268798828125 C 1597.600952148438 881.0670166015625 1597.598754882812 880.891357421875 1597.597045898438 880.7492065429688 C 1597.596313476562 880.6930541992188 1597.595458984375 880.6192626953125 1597.593994140625 880.5792846679688 C 1597.1591796875 877.0188598632812 1596.366577148438 873.7571411132812 1595.179077148438 870.6511840820312 C 1594.061401367188 870.6273803710938 1592.9560546875 870.5830688476562 1591.875732421875 870.5397338867188 L 1591.267456054688 870.5155029296875 C 1590.584594726562 870.4885864257812 1589.9990234375 870.3683471679688 1589.498291015625 870.1907958984375 C 1589.711303710938 870.6471557617188 1589.914428710938 871.109375 1590.107299804688 871.57666015625 C 1590.417602539062 872.3277587890625 1590.7060546875 873.1021728515625 1590.964477539062 873.87841796875 C 1591.021728515625 874.0494995117188 1591.070068359375 874.2240600585938 1591.1123046875 874.41162109375 L 1591.114624023438 874.422119140625 C 1591.123779296875 874.4633178710938 1591.132080078125 874.5033569335938 1591.139892578125 874.5419921875 C 1591.328857421875 874.9888305664062 1591.48779296875 875.4544067382812 1591.62109375 875.9498291015625 C 1591.748168945312 876.421142578125 1591.851196289062 876.9185791015625 1591.933837890625 877.4623413085938 C 1592.30810546875 878.7841186523438 1592.500854492188 880.07177734375 1592.62158203125 881.26220703125 C 1592.700317382812 881.2625122070312 1592.779174804688 881.2628173828125 1592.85791015625 881.26318359375 L 1592.863891601562 881.26318359375 C 1593.953491210938 881.26953125 1595.043212890625 881.2755126953125 1596.133056640625 881.2815551757812 M 1586.500366210938 865.0452880859375 C 1586.593872070312 864.5184326171875 1586.781005859375 863.9454345703125 1587.10009765625 863.3338623046875 C 1587.708618164062 862.1668090820312 1588.331909179688 860.9970092773438 1588.948608398438 859.84619140625 L 1587.90283203125 858.5805053710938 C 1586.155883789062 856.6663208007812 1584.294921875 854.9063110351562 1582.369384765625 853.3472900390625 C 1582.234741210938 853.2426147460938 1582.063720703125 853.1214599609375 1581.883178710938 852.9935913085938 C 1581.623779296875 852.8099365234375 1581.336059570312 852.606201171875 1581.032836914062 852.3665771484375 L 1578.477905273438 856.7908935546875 C 1578.570190429688 856.8572998046875 1578.662231445312 856.9239501953125 1578.753540039062 856.9908447265625 C 1579.076904296875 857.227783203125 1579.40283203125 857.4752807617188 1579.724487304688 857.7282104492188 C 1581.74462890625 859.3189697265625 1583.40087890625 860.993408203125 1584.776977539062 862.8377685546875 C 1585.386474609375 863.4507446289062 1585.824096679688 864.0825805664062 1586.157958984375 864.5645751953125 L 1586.206420898438 864.6344604492188 C 1586.294677734375 864.7620239257812 1586.388427734375 864.8959350585938 1586.474609375 865.0108642578125 L 1586.500366210938 865.0452880859375 M 1596.135986328125 885.2816162109375 C 1595.037353515625 885.2755737304688 1593.939086914062 885.2694702148438 1592.840698242188 885.2631225585938 C 1591.890258789062 885.259033203125 1590.939819335938 885.2582397460938 1589.98974609375 885.250244140625 C 1589.0029296875 885.2421264648438 1588.897827148438 885.0906982421875 1588.829345703125 884.0858154296875 C 1588.804443359375 883.7218017578125 1588.780517578125 883.3572998046875 1588.754028320312 882.9931640625 C 1588.6396484375 881.4155883789062 1588.480102539062 879.8428344726562 1588.015380859375 878.3143920898438 L 1588.015014648438 878.3143920898438 C 1587.955322265625 877.8661499023438 1587.875732421875 877.4238891601562 1587.759155273438 876.9917602539062 C 1587.642944335938 876.5596313476562 1587.490234375 876.137939453125 1587.284790039062 875.7307739257812 C 1587.256958007812 875.5841674804688 1587.24169921875 875.4334716796875 1587.20947265625 875.2881469726562 C 1587.198608398438 875.2398071289062 1587.186157226562 875.19189453125 1587.17041015625 875.1452026367188 C 1586.940063476562 874.4532470703125 1586.686767578125 873.77294921875 1586.410400390625 873.10400390625 C 1585.58203125 871.09716796875 1584.543701171875 869.1953125 1583.274169921875 867.4103393554688 C 1583.15185546875 867.2471923828125 1583.034545898438 867.0801391601562 1582.918212890625 866.9121704101562 C 1582.569091796875 866.4087524414062 1582.225463867188 865.9000244140625 1581.76025390625 865.4876098632812 C 1580.479125976562 863.7130737304688 1578.945434570312 862.2059936523438 1577.249877929688 860.870849609375 C 1576.967163085938 860.6485595703125 1576.680419921875 860.4306640625 1576.38916015625 860.2172241210938 C 1576.098022460938 860.004150390625 1575.802368164062 859.794677734375 1575.503540039062 859.5897216796875 C 1575.420166015625 859.5152587890625 1575.334838867188 859.443115234375 1575.24853515625 859.373046875 C 1574.642822265625 858.8837280273438 1573.968627929688 858.5031127929688 1573.263427734375 858.1712646484375 L 1573.239990234375 858.1035766601562 C 1573.22314453125 858.0528564453125 1573.205810546875 858.0020751953125 1573.18896484375 857.9509887695312 L 1576.816528320312 851.669189453125 C 1577.759399414062 850.0364990234375 1578.702270507812 848.4036865234375 1579.64501953125 846.77099609375 C 1580.52783203125 847.1531982421875 1581.290771484375 847.7391967773438 1582.101806640625 848.2429809570312 C 1582.372436523438 848.4110107421875 1582.648315429688 848.5700073242188 1582.935546875 848.708984375 C 1583.07763671875 848.8580322265625 1583.228637695312 848.9954223632812 1583.3857421875 849.1254272460938 C 1583.857055664062 849.5153198242188 1584.379760742188 849.8395385742188 1584.860229492188 850.21728515625 C 1587.031372070312 851.9728393554688 1589.046508789062 853.892822265625 1590.9248046875 855.9580688476562 C 1591.501586914062 856.6560668945312 1592.078369140625 857.35400390625 1592.654663085938 858.0516357421875 C 1592.885131835938 858.364990234375 1593.115356445312 858.6782836914062 1593.345825195312 858.9912109375 C 1593.409423828125 859.077392578125 1593.473022460938 859.1640014648438 1593.536254882812 859.2501831054688 C 1593.570190429688 859.4773559570312 1593.527465820312 859.6823120117188 1593.44970703125 859.880126953125 C 1593.403442382812 859.9989013671875 1593.344116210938 860.1149291992188 1593.281860351562 860.2313232421875 C 1592.39697265625 861.8785400390625 1591.51123046875 863.5254516601562 1590.64697265625 865.18310546875 C 1590.189819335938 866.0591430664062 1590.43505859375 866.4795532226562 1591.425170898438 866.5186157226562 C 1593.200073242188 866.5885620117188 1594.975952148438 866.6689453125 1596.751708984375 866.6689453125 C 1596.7880859375 866.6688842773438 1596.821899414062 866.668212890625 1596.861083984375 866.6688842773438 C 1597.5068359375 866.6688842773438 1597.945556640625 866.8392944335938 1598.236328125 867.40185546875 C 1598.284423828125 867.5665893554688 1598.316162109375 867.73779296875 1598.382202148438 867.8948364257812 C 1600.03466796875 871.8216552734375 1601.056518554688 875.907958984375 1601.569580078125 880.1356811523438 C 1601.643676757812 880.7442016601562 1601.498657226562 881.407958984375 1601.85791015625 881.9774169921875 L 1601.85791015625 884.9263305664062 C 1601.49267578125 885.1862182617188 1601.090209960938 885.264404296875 1600.641235351562 885.2594604492188 C 1600.265869140625 885.256591796875 1599.890625 885.2557983398438 1599.5146484375 885.256591796875 C 1598.388671875 885.2586059570312 1597.26220703125 885.2739868164062 1596.135986328125 885.2816162109375 Z" stroke="none" fill="#fff"/>
      </g>
      <g id="Trazado_145438" data-name="Trazado 145438" transform="translate(-32.936)" fill="none" stroke-miterlimit="10">
        <path d="M1507.045,845.536a5.762,5.762,0,0,1,1.1.317h0a22.646,22.646,0,0,1,6.046,1.979c.446.207.889.422,1.329.641.464.23.938.438,1.408.657l3.628-6.282,2.828-4.9h0a12.794,12.794,0,0,0-1.087-.681c-1.115-.629-2.3-1.125-3.433-1.72l-2.621-1.058h0c-.795-.236-1.592-.464-2.384-.709a55.57,55.57,0,0,0-7.468-1.568L1503.43,832c-.259.008-.519.027-.778.021a43.344,43.344,0,0,0-8.785.546q-.54.1-1.078.207c-1.078.213-2.152.442-3.229.659h0l-4.69,1.547c-.259.121-.516.245-.776.362-.873.392-1.753.772-2.613,1.189a19.824,19.824,0,0,0-2.5,1.412h0l6.5,11.18h0l.441-.1a23.6,23.6,0,0,1,5.9-2.567c.16-.062.316-.137.479-.186q1.186-.355,2.38-.607a32.284,32.284,0,0,1,10.49-.414h0C1505.792,845.36,1506.425,845.414,1507.045,845.536Z" stroke="none"/>
        <path d="M 1515.29931640625 843.9425048828125 C 1515.895263671875 842.9107055664062 1516.491088867188 841.8787231445312 1517.0869140625 840.8468627929688 L 1517.8525390625 839.5208740234375 C 1517.632690429688 839.413330078125 1517.409912109375 839.3023681640625 1517.184814453125 839.1864624023438 L 1517.11279296875 839.1574096679688 C 1516.381225585938 838.8623046875 1515.649658203125 838.567138671875 1514.918212890625 838.2717895507812 C 1514.729125976562 838.2159423828125 1514.539916992188 838.160400390625 1514.350708007812 838.1048583984375 C 1513.804077148438 837.9444580078125 1513.23876953125 837.778564453125 1512.670532226562 837.6026611328125 C 1510.59326171875 836.959228515625 1508.385131835938 836.59619140625 1506.04736328125 836.2118530273438 L 1505.916259765625 836.1902465820312 L 1503.361694335938 836.0055541992188 C 1503.359375 836.005615234375 1503.357055664062 836.0057373046875 1503.354736328125 836.005859375 C 1503.186157226562 836.0131225585938 1502.976318359375 836.022216796875 1502.744018554688 836.022216796875 C 1502.685913085938 836.022216796875 1502.627807617188 836.0216674804688 1502.574340820312 836.0205688476562 C 1502.0107421875 836.0097045898438 1501.50146484375 836.00439453125 1501.017211914062 836.00439453125 C 1498.459106445312 836.00439453125 1496.419067382812 836.1619873046875 1494.597045898438 836.500244140625 C 1494.296142578125 836.55615234375 1493.967529296875 836.6193237304688 1493.565307617188 836.69873046875 C 1492.9580078125 836.8189697265625 1492.333618164062 836.9478759765625 1491.729614257812 837.072509765625 C 1491.3486328125 837.151123046875 1490.967651367188 837.229736328125 1490.58642578125 837.3072509765625 L 1489.467407226562 837.6763916015625 C 1488.429443359375 838.0186767578125 1487.391357421875 838.361083984375 1486.353393554688 838.70361328125 C 1486.345336914062 838.7074584960938 1486.337280273438 838.7112426757812 1486.329223632812 838.715087890625 C 1486.139404296875 838.8047485351562 1485.943237304688 838.8974609375 1485.732543945312 838.9920043945312 C 1485.509399414062 839.0922241210938 1485.285766601562 839.1917114257812 1485.062255859375 839.2911376953125 C 1484.881591796875 839.3714599609375 1484.703857421875 839.4505615234375 1484.528564453125 839.529052734375 L 1487.082153320312 843.9225463867188 C 1488.197143554688 843.4313354492188 1489.340454101562 843.015380859375 1490.504760742188 842.6778564453125 C 1490.6640625 842.6117553710938 1490.88232421875 842.52490234375 1491.1513671875 842.4440307617188 C 1492.039916992188 842.1779174804688 1492.948364257812 841.9461059570312 1493.851928710938 841.7549438476562 C 1496.187133789062 841.26123046875 1498.6201171875 841.0109252929688 1501.08349609375 841.0109252929688 C 1501.112060546875 841.0109252929688 1501.140747070312 841.010986328125 1501.16943359375 841.0110473632812 L 1501.16943359375 840.5125732421875 L 1505.8427734375 841.3107299804688 C 1506.042846679688 841.3449096679688 1506.274047851562 841.375732421875 1506.518798828125 841.4083251953125 C 1506.906127929688 841.4599609375 1507.345092773438 841.5184936523438 1507.814575195312 841.6104125976562 C 1508.302124023438 841.7059326171875 1508.751220703125 841.8245239257812 1509.174560546875 841.9697875976562 C 1511.596313476562 842.4013061523438 1513.74169921875 843.244873046875 1515.29931640625 843.9425048828125 M 1516.923217773438 849.1290283203125 C 1516.4541015625 848.9102783203125 1515.979248046875 848.702880859375 1515.515625 848.4724731445312 C 1515.07470703125 848.2533569335938 1514.631713867188 848.038330078125 1514.186157226562 847.831298828125 C 1512.255004882812 846.934326171875 1510.271850585938 846.184814453125 1508.140502929688 845.8521728515625 L 1508.14013671875 845.8526000976562 C 1507.783325195312 845.70556640625 1507.416748046875 845.6085205078125 1507.045043945312 845.53564453125 C 1506.425170898438 845.4143676757812 1505.7919921875 845.3599853515625 1505.16943359375 845.253662109375 L 1505.16943359375 845.2540893554688 C 1501.628540039062 844.8403930664062 1498.12890625 844.9391479492188 1494.679321289062 845.66845703125 C 1493.883056640625 845.8369140625 1493.089721679688 846.0390625 1492.299072265625 846.27587890625 C 1492.135498046875 846.3250122070312 1491.979370117188 846.39990234375 1491.819702148438 846.4623413085938 C 1489.734741210938 847.0463256835938 1487.770141601562 847.9066162109375 1485.919921875 849.029052734375 C 1485.77294921875 849.0609130859375 1485.6259765625 849.0927124023438 1485.478881835938 849.1241455078125 C 1483.312866210938 845.3975219726562 1481.14697265625 841.6712036132812 1478.98095703125 837.9445190429688 C 1479.7783203125 837.4036254882812 1480.619750976562 836.9494018554688 1481.48046875 836.5321044921875 C 1482.340698242188 836.1152954101562 1483.22021484375 835.7354736328125 1484.093505859375 835.3432006835938 C 1484.35400390625 835.2263793945312 1484.610961914062 835.1019287109375 1484.869506835938 834.9811401367188 C 1486.432739257812 834.4652099609375 1487.99609375 833.94970703125 1489.55908203125 833.4341430664062 C 1490.636108398438 833.2166748046875 1491.710693359375 832.98828125 1492.788452148438 832.77490234375 C 1493.147705078125 832.7039794921875 1493.506958007812 832.63427734375 1493.866943359375 832.5674438476562 C 1496.771606445312 832.0281372070312 1499.708618164062 831.9645385742188 1502.651489257812 832.0213012695312 C 1502.910888671875 832.0266723632812 1503.170166015625 832.0076293945312 1503.429565429688 832 L 1506.386108398438 832.2138061523438 C 1508.898071289062 832.62744140625 1511.413330078125 833.0257568359375 1513.85400390625 833.78173828125 C 1514.646240234375 834.0269775390625 1515.443603515625 834.2550048828125 1516.238159179688 834.490966796875 C 1517.111694335938 834.84375 1517.9853515625 835.1961669921875 1518.85888671875 835.548583984375 C 1519.992309570312 836.1430053710938 1521.177124023438 836.6396484375 1522.292358398438 837.268310546875 C 1522.6640625 837.477783203125 1523.02783203125 837.70166015625 1523.379272460938 837.9490356445312 C 1522.4365234375 839.5817260742188 1521.49365234375 841.2145385742188 1520.55078125 842.8472290039062 C 1519.341796875 844.941162109375 1518.13232421875 847.0354614257812 1516.923217773438 849.1290283203125 Z" stroke="none" fill="#fff"/>
      </g>
    </g>
  </g>
</svg>
