<svg xmlns="http://www.w3.org/2000/svg" xmlns:xlink="http://www.w3.org/1999/xlink" width="109" height="109" viewBox="0 0 109 109">
  <defs>
    <clipPath id="clip-path">
      <circle id="Elipse_4743" data-name="Elipse 4743" cx="54.5" cy="54.5" r="54.5" transform="translate(1186.243 3462.136)" fill="#7e5ee3" stroke="#707070" stroke-width="1"/>
    </clipPath>
  </defs>
  <g id="Grupo_75185" data-name="Grupo 75185" transform="translate(847 8237.864)">
    <circle id="Elipse_4742" data-name="Elipse 4742" cx="54.5" cy="54.5" r="54.5" transform="translate(-847 -8237.864)" fill="#f6f6f6"/>
    <g id="Enmascarar_grupo_152" data-name="Enmascarar grupo 152" transform="translate(-2033.243 -11700)" clip-path="url(#clip-path)">
      <g id="Grupo_75180" data-name="Grupo 75180" transform="translate(-16.888 -7.333)">
        <g id="Grupo_75179" data-name="Grupo 75179" transform="translate(1203.249 3477.157)">
          <path id="Trazado_146407" data-name="Trazado 146407" d="M2276.462,1203.74l-1.593,1.817H2228c.237-.6.722-1.111.683-1.818.7-.558,1.52-.29,2.295-.334,1.291-.036,2.582-.036,3.873-.008,2.982-.022,5.964-.056,8.946.014.145,0,.29,0,.436-.007q3.592-.064,7.182,0,1.966-.055,3.932-.008c5.415-.046,10.83-.027,16.246-.018,1.361.046,2.725-.036,4.088.03A1.147,1.147,0,0,1,2276.462,1203.74Z" transform="translate(-2191.5 -1090.87)" fill="#fefefe"/>
          <path id="Trazado_146408" data-name="Trazado 146408" d="M2249.939,855.217c-.612.028-.66.531-.8.953a26.957,26.957,0,0,1-7.415,11.474c-.576.538-1.219,1.007-1.842,1.494-.3.233-.639.421-.658.862a28.33,28.33,0,0,1-3.1,1.793c-.353.164-.7.34-1.043.526a29.779,29.779,0,0,1-4.656,1.609,31.593,31.593,0,0,1-5.709.763,26.865,26.865,0,0,1-11.286-2.315c-.507-.27-1.012-.544-1.535-.783a12.4,12.4,0,0,1-2.461-1.589,29.064,29.064,0,0,0-2.963-2.576,35.388,35.388,0,0,1-4.775-5.815,5.269,5.269,0,0,1-1.58-2.97,27.124,27.124,0,0,0-1.381-3.843,1.865,1.865,0,0,1-.5-1.109,26.373,26.373,0,0,1-.747-6.69,5.562,5.562,0,0,1,.1-.919,4.431,4.431,0,0,1,1.744-3.126c4.771-4.7,9.49-9.458,14.227-14.2a2.766,2.766,0,0,1,1.9-1.126c2.649.182,5.258.664,7.885,1a118.777,118.777,0,0,0,18.365.745,32.519,32.519,0,0,0,4.51-.536c1.807-.3,1.832-.286,2.324,1.524.889,4.762,1.816,9.518,2.291,14.348.067.679.03,1.363.156,2.035,0,.632-.086,1.26-.084,1.892a34.351,34.351,0,0,1-.94,5.677A3.126,3.126,0,0,0,2249.939,855.217Z" transform="translate(-2167.927 -800.629)" fill="#f5cebd"/>
          <path id="Trazado_146409" data-name="Trazado 146409" d="M2231.854,788.758c-.509-1.6-.5-1.561-2.209-1.286a72.187,72.187,0,0,1-15.729.415c-5.093-.3-10.134-1.1-15.193-1.721a18.323,18.323,0,0,1-4.579-.572c-2.54-.4-5.057-.917-7.567-1.476-1.337-.3-1.531-.2-2.048,1.085-.355.877-.611,1.789-.92,2.682-.118.34-.135.772-.614.865a3.566,3.566,0,0,0-2.171-.436c-.564.016-1.131.031-1.693,0-.69-.043-1.581.283-1.985-.443-.438-.79.4-1.352.742-1.982.252-.461.589-.873.886-1.308.168-.246.4-.528.209-.821s-.54-.182-.838-.191c-.656-.019-1.272.581-1.954.125a17.167,17.167,0,0,1,.891-4.33,1.545,1.545,0,0,1,1.453-.729,4.542,4.542,0,0,0,2.69-1.081c1.34-.993,2.589-2.1,3.95-3.068a4.362,4.362,0,0,1,3.1-.877c.973.107,1.182.472.737,1.367a23.322,23.322,0,0,1-1.489,2.144c-.24.371-.719.742-.522,1.191.217.492.808.274,1.235.276,3.486.016,6.973-.014,10.458.022a4.519,4.519,0,0,0,2.849-.931c1.371-1.015,2.649-2.148,4.041-3.135a4.443,4.443,0,0,1,2.849-.953c1.359.066,1.613.516.882,1.7-.437.71-1,1.333-1.454,2.033-.2.311-.572.633-.393,1.01.188.4.671.255,1.033.256,3.638.009,7.276-.008,10.913.015a4.264,4.264,0,0,0,2.617-.94c1.407-1.029,2.715-2.186,4.136-3.2a4.307,4.307,0,0,1,3.1-.854c.921.108,1.135.457.736,1.292a24.252,24.252,0,0,1-1.674,2.43c-.2.31-.566.635-.363,1.01s.681.242,1.048.245c2.008.012,4.016,0,6.024.009a1.9,1.9,0,0,1,1.4.313c.694,1.358.7,2.9,1.15,4.322a.979.979,0,0,1,.161,1.016c-1.472,1.342-3.132,2.449-4.7,3.668A8.488,8.488,0,0,1,2231.854,788.758Z" transform="translate(-2151.479 -758.872)" fill="#615658"/>
          <path id="Trazado_146410" data-name="Trazado 146410" d="M2239.461,746.531c-2.689,0-5.38,0-8.07-.007-.32,0-.721.149-.935-.218-.24-.411.081-.708.294-1.015.688-.99,1.389-1.972,2.058-2.974.357-.535.219-.747-.467-.814a4.6,4.6,0,0,0-3.445,1.159c-.853.683-1.705,1.368-2.542,2.07a7.053,7.053,0,0,1-5.154,1.847c-3.439-.18-6.893-.045-10.341-.055-.316,0-.719.147-.907-.265-.168-.371.091-.64.287-.92.693-.987,1.393-1.969,2.065-2.97.391-.582.248-.78-.5-.871-1.9-.231-3.1.981-4.415,1.962-.574.427-1.117.9-1.649,1.377a6.859,6.859,0,0,1-5.191,1.733c-3.366-.147-6.743-.036-10.114-.046-.321,0-.721.148-.937-.215-.242-.41.078-.708.291-1.015.688-.99,1.388-1.972,2.057-2.974.353-.529.231-.749-.462-.816a4.608,4.608,0,0,0-3.446,1.157,30.868,30.868,0,0,0-2.709,2.22c-1.433,1.442-3.353,1.566-5.128,2.1a12.665,12.665,0,0,1,4.872-7.558c.483-.338.415-.928.7-1.349a4.519,4.519,0,0,1,2.674-.253,6.809,6.809,0,0,0,5.214-1.786c1.115-.967,2.271-1.891,3.416-2.824a5.094,5.094,0,0,1,3.56-1.54c1.078.068,1.375.544.841,1.485-.656,1.157-1.613,2.1-2.354,3.2-.229.339-.633.694-.464,1.1.215.521.794.322,1.221.325,3.372.016,6.745,0,10.117.015a5.009,5.009,0,0,0,3.075-.989c1.533-1.117,2.96-2.363,4.428-3.56a5.261,5.261,0,0,1,3.545-1.586c1.139.046,1.457.545.889,1.53-.664,1.151-1.622,2.1-2.355,3.2-.223.336-.636.678-.431,1.1.214.445.74.284,1.135.285,3.41.014,6.821.007,10.231.008a4.533,4.533,0,0,0,2.5-.625c.283-.179.572-.393.947-.245.058.008.116.019.174.032a5.475,5.475,0,0,1,2.209,2.806A25.334,25.334,0,0,1,2239.461,746.531Z" transform="translate(-2154.503 -726.495)" fill="#6a5d5f"/>
          <path id="Trazado_146411" data-name="Trazado 146411" d="M2090.3,1114.406c-.455-.854-.875-1.721-1.274-2.6a2.487,2.487,0,0,1-.145-.32c-2.168-4.851-3.608-10-5.365-15.009a.189.189,0,0,1,.079-.236c-.05-.132-.1-.284-.161-.456-.531-1.577-1.037-3.163-1.6-4.73-.163-.453-.206-1.1-.961-1.045-.464.544-.935,1.083-1.392,1.635a56.88,56.88,0,0,0-5.585,8.367,74.373,74.373,0,0,0-6.225,15.167c-.241.8-.036,1.017.813,1.013,7.313-.035,14.627-.023,21.94-.026.178-.132.349-.271.521-.408C2090.751,1115.3,2090.532,1114.848,2090.3,1114.406Z" transform="translate(-2067.577 -1003.306)" fill="#e3e4e5"/>
          <path id="Trazado_146412" data-name="Trazado 146412" d="M2252.789,719.372a5.872,5.872,0,0,1-4.009,1.2c-3.37-.066-6.742-.015-10.114-.023-1.457,0-1.61-.213-.833-1.394.8-1.225,1.746-2.36,2.61-3.547.214-.294.541-.629.3-1.015-.207-.335-.625-.161-.951-.18-1.419-.082-2.395.807-3.381,1.617-1.572,1.292-3.1,2.64-4.781,3.79a4.212,4.212,0,0,1-2.444.733c-3.675,0-7.349,0-11.023,0-1.446,0-1.589-.209-.8-1.415s1.7-2.3,2.547-3.453c.222-.3.553-.637.389-1.008-.215-.488-.738-.243-1.123-.254-1.365-.039-2.29.861-3.262,1.624q-2.131,1.675-4.224,3.4a5.008,5.008,0,0,1-3.575,1.118c-1.172-.056-2.347-.034-3.521-.046a14.07,14.07,0,0,1,6.039-7.138,27.968,27.968,0,0,1,11.159-3.867c6.8-1.036,13.5-.841,19.93,1.954A29.617,29.617,0,0,1,2252.789,719.372Z" transform="translate(-2173.423 -708.938)" fill="#776768"/>
          <path id="Trazado_146413" data-name="Trazado 146413" d="M2174.033,1035.744a11.451,11.451,0,0,1,2.709-4.62,9.678,9.678,0,0,1,5.337-2.726c.629-.1.882-.321.847-1.01-.073-1.466-.042-2.937-.054-4.405.665-4.8,3.3-7.871,8-9.13a7.723,7.723,0,0,1,2.54,1.4.429.429,0,0,1-.3.413,9.035,9.035,0,0,0-5.868,2.588,7.935,7.935,0,0,0-2.167,4.632,39.9,39.9,0,0,0-.049,4.187c-.011.972.725,1.009,1.386,1.151a10.545,10.545,0,0,1,6.052,4.421,17.335,17.335,0,0,1,1.37,3.031c.123.873.562,1.743.022,2.621a2.015,2.015,0,0,1-1.69.124c-.6-.384-.5-1.057-.634-1.621a7.854,7.854,0,0,0-15.452.045c-.113.535-.06,1.151-.577,1.546a1.932,1.932,0,0,1-1.758-.106A2.056,2.056,0,0,1,2174.033,1035.744Z" transform="translate(-2149.358 -944.477)" fill="#403f41"/>
          <path id="Trazado_146414" data-name="Trazado 146414" d="M2168.054,897.224a14.128,14.128,0,0,1-1.112-3.422c-.045-2.093.2-4.082,1.862-5.617a6.024,6.024,0,0,1,2.028-1.21c.465-.037.451.394.628.639a43.051,43.051,0,0,0,2.77,5.051c-.167,2.712.517,5.326.917,7.972-2.12,1.158-4.657,0-6.3-2.166C2168.549,898.08,2168.316,897.641,2168.054,897.224Z" transform="translate(-2144.33 -846.466)" fill="#ecb6a3"/>
          <path id="Trazado_146415" data-name="Trazado 146415" d="M2177.383,832.739l-.45-.671a36.152,36.152,0,0,1-2.1-11.142q.11-2.165.219-4.33l.089-.22c.83-.037,1.559-.6,2.425-.459.314.053.721-.139.89.292a1.022,1.022,0,0,1-.241.953c-.592.872-1.208,1.727-1.815,2.59-.469.666-.254.95.52.946,1.323-.007,2.646.008,3.97-.006.542-.006.992.074,1.058.733a1.328,1.328,0,0,1,.051,1.089c-.5,2.348-.789,4.728-1.1,7.105a4.973,4.973,0,0,1-.206,1.709,2.409,2.409,0,0,1-1.683.539A2.192,2.192,0,0,0,2177.383,832.739Z" transform="translate(-2150.433 -791.559)" fill="#544c4e"/>
          <path id="Trazado_146416" data-name="Trazado 146416" d="M2426.567,821a8.43,8.43,0,0,0,.26,2.961,59.852,59.852,0,0,1-1.429,11.393,18.3,18.3,0,0,1-1.547,5.7.941.941,0,0,1-.486.593,17.543,17.543,0,0,1-.518-3.859q-.742-5.73-1.911-11.388a9.188,9.188,0,0,1-.1-1.014c.091-.2.126-.5.283-.593,1.8-1.047,3.269-2.554,5.018-3.67A1.625,1.625,0,0,1,2426.567,821Z" transform="translate(-2340.462 -795.501)" fill="#534b4d"/>
          <path id="Trazado_146417" data-name="Trazado 146417" d="M2377.766,1017.307l2.064,2.26a18.069,18.069,0,0,1,2.376,5.225,5.143,5.143,0,0,1,.734,3.016c.028,1.654.032,3.31-.008,4.965-.056,1.511.284,3.046-.276,4.526a1.661,1.661,0,0,1-1.869.1c-.541-.679-.285-1.477-.33-2.229-.066-2.877.194-5.763-.14-8.633a12.3,12.3,0,0,0-3.984-7.593,12.541,12.541,0,0,0-8.136-3.19c-.369-.014-.766.024-1.031-.332,1.031-.56,1.895-1.451,3.137-1.6A15.72,15.72,0,0,1,2377.766,1017.307Z" transform="translate(-2299.004 -944.46)" fill="#414042"/>
          <path id="Trazado_146418" data-name="Trazado 146418" d="M2433.22,898.593a7.343,7.343,0,0,1,.738,2.958,9.937,9.937,0,0,1-2.787,6.748,5.141,5.141,0,0,1-4.29,1.632c-.523-.318-.311-.834-.2-1.2a47.257,47.257,0,0,0,.881-5.367c1.432-1.693,3.236-3,4.782-4.571C2432.567,898.569,2432.846,898.3,2433.22,898.593Z" transform="translate(-2344.87 -855.343)" fill="#e5b19f"/>
          <path id="Trazado_146419" data-name="Trazado 146419" d="M2437.993,1178.123l8.169-7.912c.228.326-.02.619-.115.91q-.947,2.9-1.921,5.789a2.8,2.8,0,0,0-.213,1.212l-5.236.008Z" transform="translate(-2353.715 -1065.26)" fill="#eeefef"/>
          <path id="Trazado_146420" data-name="Trazado 146420" d="M2436.642,887.484a36.476,36.476,0,0,0-4.35,3.79c-.4.372-.67.928-1.309.984a4.075,4.075,0,0,1,.21-1.878q1.016-3.148,2.033-6.3a.723.723,0,0,0,.543.739,5.969,5.969,0,0,1,2.654,2.208Z" transform="translate(-2348.292 -844.234)" fill="#f0bcaa"/>
          <path id="Trazado_146421" data-name="Trazado 146421" d="M2452.336,1115.433a66.689,66.689,0,0,0-8.448-19.045h0q0-.114,0-.227l-1.809-2.28c-.513-.146-.749.27-1.023.544-1.526,1.522-3.066,3.031-4.574,4.57.124-.178.215-.393.333-.571a13.246,13.246,0,0,1,5.034-4.993,30.694,30.694,0,0,0-2.737-3.407c-.153.157-.388.289-.448.477-.957,2.959-2.213,5.818-2.961,8.846a.741.741,0,0,0,.535-.1c-.254.261-.51.521-.763.784-.362.3-.452.76-.683,1.137h0a2.659,2.659,0,0,0-.367.262q-6.869,6.861-13.736,13.724a3.457,3.457,0,0,0-.685,1.032l4.093,0a4.879,4.879,0,0,0,1.253-.962q2.158-2.183,4.34-4.343a22.218,22.218,0,0,1,2.2-2.056c-.555,1.994-1.224,3.922-1.853,5.862-.158.487-.46.993-.023,1.5q10.733,0,21.464-.006C2451.919,1116.173,2452.623,1116.471,2452.336,1115.433Z" transform="translate(-2339.818 -1003.318)" fill="#e3e4e5"/>
          <path id="Trazado_146422" data-name="Trazado 146422" d="M2488.222,1110.833c.215-.2.511-.365.631-.613a18.206,18.206,0,0,1,3.745-4.58,1.918,1.918,0,0,1,1.77-.724l.232.223c0,.076,0,.152,0,.228q-2.756,2.7-5.516,5.4c-.316.308-.557.743-1.087.75C2488,1111.265,2487.956,1111,2488.222,1110.833Z" transform="translate(-2392.34 -1014.804)" fill="#e3e4e5"/>
          <path id="Trazado_146423" data-name="Trazado 146423" d="M2345.119,1063.547c-.162-1.718-.456-3.437-.578-5.151-.041-.108-.08-.238-.123-.393-.276-1.022-.5-2.059-.782-3.078-.2-.738.072-1.076.787-1.153,1.2-.13,2.4-.334,3.593-.5,1.379-.193,1.6-.679.955-1.9-1.187-2.237-2.4-4.463-3.558-6.713a1.283,1.283,0,0,1,.294-1.792,15.108,15.108,0,0,0,1.279-1.287c.73-.827.641-1.2-.394-1.516a16.3,16.3,0,0,0-2.427-.569,2.994,2.994,0,0,1-2.4-1.24,3.153,3.153,0,0,0-.973-.927c-1.012-.583-1.949-1.466-3.284-.989a2.445,2.445,0,0,0-.41.977c-.146.752-.289,1.505-.458,2.253-.068.477-.2.943-.274,1.418-.3,1.837-.69,3.656-1.114,5.467-.065.486-.11.975-.2,1.459q-2.371,12.47-4.761,24.937c-.109.575-.4,1.168-.01,1.754h3.878q5.129-5.183,10.262-10.363C2344.649,1064.006,2344.884,1063.776,2345.119,1063.547Z" transform="translate(-2270.354 -961.74)" fill="#e3e4e5"/>
          <path id="Trazado_146424" data-name="Trazado 146424" d="M2292.594,1079.91a69.565,69.565,0,0,1-1.436,8.232c-1.149,6.26-2.38,12.5-3.578,18.754-.078.406-.16.812-.24,1.218l-7.253-.013a2.681,2.681,0,0,1-.662-1.649c-1.36-6.9-2.619-13.812-3.959-20.712a18.433,18.433,0,0,1-.5-2.557c-.037-1.188-.713-2.308-.385-3.536a1.906,1.906,0,0,1,1.4.258,20.585,20.585,0,0,0,15.231.1C2291.668,1079.833,2292.108,1079.522,2292.594,1079.91Z" transform="translate(-2227.417 -995.253)" fill="#fece96"/>
          <path id="Trazado_146425" data-name="Trazado 146425" d="M2249.36,1094.939q.947,4.923,1.9,9.846,1.339,6.97,2.677,13.94c.078.406.163.809.244,1.214l-.24.012a18.987,18.987,0,0,1-3.073-2.8c-1.52-1.442-1.5-1.439-2.962-.007a19.665,19.665,0,0,1-3.073,2.808l-3.867,0c-.075-.522.258-.832.584-1.156q2.169-2.156,4.326-4.323c1.231-1.233,1.139-1.645-.543-2.475.516-3.4.187-6.825.3-10.237a1.6,1.6,0,0,1,.313-.95,12.5,12.5,0,0,0-.277-2.685c.928-.943,1.883-1.859,2.823-2.79C2248.721,1095.11,2248.95,1094.81,2249.36,1094.939Z" transform="translate(-2201.504 -1007.09)" fill="#e2e3e4"/>
          <path id="Trazado_146426" data-name="Trazado 146426" d="M2257.991,1190.02q2.09-2.141,4.181-4.28a.323.323,0,0,1,.494-.023,35.117,35.117,0,0,1,4.432,4.3Z" transform="translate(-2214.667 -1077.158)" fill="#eeefef"/>
          <path id="Trazado_146427" data-name="Trazado 146427" d="M2197.955,838.586q.062-.9.126-1.8c.4.358.687.571,1.219.028,3.431-3.5,6.912-6.945,10.377-10.407a6.079,6.079,0,0,0,.832-1.2l4.6.84a1.444,1.444,0,0,0-.942.573q-7.921,7.895-15.861,15.77c-.53.522-.034,1.2-.5,1.657a1.081,1.081,0,0,1-.367-.906q-.069-1.744,0-3.488A1.223,1.223,0,0,1,2197.955,838.586Z" transform="translate(-2167.863 -798.751)" fill="#f5cebd"/>
          <path id="Trazado_146428" data-name="Trazado 146428" d="M2368.224,1027.927a3.162,3.162,0,0,1-2.554-1.254,5.345,5.345,0,0,0-4.013-2.166,3.264,3.264,0,0,1-.045-3.165,1.631,1.631,0,0,1,.966-.5,13.272,13.272,0,0,1,8.692,2.744c.206.164.387.358.579.538a.669.669,0,0,1-.272.691A21.607,21.607,0,0,1,2368.224,1027.927Z" transform="translate(-2294.413 -949.875)" fill="#fefefe"/>
          <path id="Trazado_146429" data-name="Trazado 146429" d="M2345.447,868.964a10.411,10.411,0,0,1,5.682,1.833c.487.314.819.737.476,1.326a.905.905,0,0,1-1.457.246c-3.143-2.185-6.3-1.953-9.468-.069-.577.343-1.165.526-1.559-.188-.4-.731.135-1.085.693-1.413A11.473,11.473,0,0,1,2345.447,868.964Z" transform="translate(-2277.231 -832.554)" fill="#414042"/>
          <path id="Trazado_146430" data-name="Trazado 146430" d="M2241.4,868.978a11.776,11.776,0,0,1,5.711,1.856c.505.306.8.739.461,1.321s-.835.568-1.369.254q-.438-.258-.892-.491a7.915,7.915,0,0,0-8.482.269c-.559.363-1.168.771-1.665.012-.547-.836.163-1.211.746-1.579A9.871,9.871,0,0,1,2241.4,868.978Z" transform="translate(-2196.885 -832.565)" fill="#424042"/>
          <path id="Trazado_146431" data-name="Trazado 146431" d="M2293.279,992.72a10.769,10.769,0,0,1-5.739-1.888c-.481-.33-.831-.74-.441-1.322s.867-.53,1.456-.15a8.194,8.194,0,0,0,9.486.027c.567-.36,1.049-.506,1.465.1.439.637.03,1.034-.486,1.388A10.654,10.654,0,0,1,2293.279,992.72Z" transform="translate(-2237.023 -925.334)" fill="#ecad99"/>
          <path id="Trazado_146432" data-name="Trazado 146432" d="M2354.966,907.694a2.732,2.732,0,1,1,2.76,2.735A2.772,2.772,0,0,1,2354.966,907.694Z" transform="translate(-2289.578 -860.364)" fill="#403f41"/>
          <path id="Trazado_146433" data-name="Trazado 146433" d="M2256.48,907.716a2.785,2.785,0,0,1-2.732,2.762,2.727,2.727,0,1,1,2.732-2.762Z" transform="translate(-2209.287 -860.409)" fill="#3e3c3e"/>
          <path id="Trazado_146434" data-name="Trazado 146434" d="M2238.822,1020.708q-.026,1.582-.052,3.165a1.26,1.26,0,0,1-.688.365,6.458,6.458,0,0,0-3.35,2.2,2.433,2.433,0,0,1-.938.8c-.772.175-1.54.372-2.32.51-.335.059-.719.071-.911-.282s.058-.661.295-.9c2.1-2.112,4.151-4.28,6.351-6.294l.271-.246A2.867,2.867,0,0,1,2238.822,1020.708Z" transform="translate(-2193.424 -949.242)" fill="#fdfdfd"/>
          <path id="Trazado_146435" data-name="Trazado 146435" d="M2339.69,1023.042q.023,1.583.044,3.165-.133.46-.268.921c-1.978.462-3.985.137-5.977.212a.661.661,0,0,1-.609-.439c-.14-.422.167-.641.436-.814a22.264,22.264,0,0,0,1.838-1.472Z" transform="translate(-2272.491 -951.576)" fill="#edb19e"/>
          <path id="Trazado_146436" data-name="Trazado 146436" d="M2286.23,1027a29.636,29.636,0,0,1-5.219-.142.92.92,0,0,0-.224-.041,2.175,2.175,0,0,1,.831-.715,2.731,2.731,0,0,0,1.4-1.485c-1.977.188-3.916.69-5.914.7h0a27.663,27.663,0,0,1-4.577-.35,35.855,35.855,0,0,1-6.776-1.924c-.674.963-.276,2.045-.34,3.076.252,1.166.12,2.443,1,3.424a20.19,20.19,0,0,0,4.511.182c1.472.05,1.491.05.839,1.327s-.332,1.819,1.1,1.861a5.646,5.646,0,0,0,3.94-1.751,5.217,5.217,0,0,1,3.913-1.448c1.583.084,3.174.025,4.762.015a1.9,1.9,0,0,0,1.4-.328,7.09,7.09,0,0,0,.448-2.272C2286.988,1026.853,2286.6,1027,2286.23,1027Z" transform="translate(-2220.351 -951.574)" fill="#edb19e"/>
          <path id="Trazado_146437" data-name="Trazado 146437" d="M2189.114,884.017c-.379,1.811-.068,3.641-.153,5.46q-.02.453-.04.9a13.255,13.255,0,0,1-2.949-5.019c-.073-.557.093-.994.7-1.083C2187.478,884.161,2188.3,884.1,2189.114,884.017Z" transform="translate(-2159.022 -844.182)" fill="#474143"/>
          <path id="Trazado_146438" data-name="Trazado 146438" d="M2305.636,959.658a3.2,3.2,0,0,1-2.438-1.268.776.776,0,0,1,.006-1.12c.345-.392.8-.537,1.188-.154a1.638,1.638,0,0,0,2.638-.015.732.732,0,0,1,1.105.107.807.807,0,0,1,.04,1.2A3.472,3.472,0,0,1,2305.636,959.658Z" transform="translate(-2249.406 -900.476)" fill="#e1a592"/>
          <path id="Trazado_146439" data-name="Trazado 146439" d="M2212.822,819.256c.275.538-.114.851-.424,1.162q-5.435,5.452-10.884,10.89a1.214,1.214,0,0,1-.865.48l-.254-.951a57.292,57.292,0,0,1,1.3-8.17c.572-1.466.895-3.018,1.579-4.448.277-.579.515-.835,1.266-.663C2207.285,818.185,2210.058,818.7,2212.822,819.256Z" transform="translate(-2170.175 -792.803)" fill="#f5cebd"/>
          <path id="Trazado_146440" data-name="Trazado 146440" d="M2175.88,1132.487a4.458,4.458,0,0,1-.932-2.932c.044-2.892.028-5.786.036-8.679l1.771,0c.45.416.362.973.366,1.491.018,2.234.005,4.468.008,6.7a2.986,2.986,0,0,0,.461,1.948,2.547,2.547,0,0,0,1.675.482,1.786,1.786,0,0,1,1.259.336,1.656,1.656,0,0,1-.079,1.786l-1.156.062A4.294,4.294,0,0,1,2175.88,1132.487Z" transform="translate(-2150.518 -1027.15)" fill="#a8acaf"/>
          <path id="Trazado_146441" data-name="Trazado 146441" d="M2406.893,1123.595a5.846,5.846,0,0,1,2.023-5.382,7.431,7.431,0,0,1,2.522-1.215h1.815q.107.019.212.045a5.843,5.843,0,0,1,4.036,3.656,5.448,5.448,0,0,1-10.151,3.935Q2407.123,1124.113,2406.893,1123.595Z" transform="translate(-2329.663 -1024.154)" fill="#a8acaf"/>
          <path id="Trazado_146442" data-name="Trazado 146442" d="M2238.226,1130.69c.362-.34.216-.783.219-1.182.018-2.878.019-5.757.026-8.636l1.776,0c.007,3.059.006,6.117.028,9.176a4.026,4.026,0,0,1-.645,2.012,3.845,3.845,0,0,1-3.623,1.59c-.709-.045-1.423-.022-2.134-.03a1.468,1.468,0,0,1,0-1.774c.908-.008,1.818.005,2.726-.031A1.513,1.513,0,0,0,2238.226,1130.69Z" transform="translate(-2195.807 -1027.146)" fill="#a9adb0"/>
          <path id="Trazado_146443" data-name="Trazado 146443" d="M2199.1,1168.891l1.346-.055c.668.039,1.385.108,1.337,1s-.767.884-1.435.863c-.416-.013-.83-.016-1.246-.024Q2199.1,1169.781,2199.1,1168.891Z" transform="translate(-2169.173 -1064.198)" fill="#424143"/>
          <path id="Trazado_146444" data-name="Trazado 146444" d="M2225.752,1169.02v1.774c-.6.007-1.2.036-1.806.014a.836.836,0,0,1-.883-.843.847.847,0,0,1,.883-.956C2224.546,1168.977,2225.15,1169.013,2225.752,1169.02Z" transform="translate(-2187.685 -1064.321)" fill="#424143"/>
          <path id="Trazado_146445" data-name="Trazado 146445" d="M2158.017,1081.3c-.392-.568-.783-1.28-1.706-.957a4.5,4.5,0,0,1-3.786,1.327,16.783,16.783,0,0,0-1.687-.009,10.231,10.231,0,0,1-1.686-.05c-.307-.058-.606-.184-.6-.557s.311-.493.616-.547a11.021,11.021,0,0,1,1.8-.04c.864.018,1.729.044,2.593-.019a1.811,1.811,0,0,0,1.766-1.168,1.5,1.5,0,0,0-.787-1.514,33.524,33.524,0,0,1-2.7-2.569,1.454,1.454,0,0,1-.568-1.176c.022-.351.082-.77-.3-.959-.037-1.474-.117-2.947-.144-4.421l.549-.544c.488-.485.339-.806-.305-.9-1.113-.171-.728-1.465-1.845-1.6s-2.833.622-2.328-.29c.729-1.316,1.4-2.664,2.1-4a6.408,6.408,0,0,0-2.9-.172c-4.2.722-6.762,3.626-7.129,8.074q.011,4.41.021,8.82c0,.658.045,1.288.708,1.659h0c.886.769,1.969.334,2.957.486a.934.934,0,0,0,1.3-.016c.014.027.03.055.048.083.333.291,1.089.276.866.969-.188.588-.792.449-1.266.474-.375.019-.75-.015-1.124-.011-.352.025-.719.005-.967.331a.866.866,0,0,0-.123-.115,12.355,12.355,0,0,1-3.3-.88c0-.063.006-.127.007-.191a16.251,16.251,0,0,1-.584-5.227c.056-1.62.017-3.244.009-4.866a2.306,2.306,0,0,0-.321-1.518,8.648,8.648,0,0,1,.133-2.128h.011a3.2,3.2,0,0,0,.6-1.241,9.2,9.2,0,0,1,5.942-5.538c2.984-.881,2.689-.636,2.678-3.855,0-.821.29-1.709-.33-2.458a26.3,26.3,0,0,1-3.373,1.827v0a3.616,3.616,0,0,0-.678.042,81.069,81.069,0,0,0-9.084,2.828c-2.457.939-5.013,1.735-7.069,3.506.462.226.56.68.7,1.11q.864,2.579,1.736,5.154a3.267,3.267,0,0,0,.448.993.505.505,0,0,1-.162.054c.493,1.424.966,2.855,1.436,4.288a1.459,1.459,0,0,1,.075-.189,2.094,2.094,0,0,0,.1.409c1.188,3.367,2.392,6.73,3.527,10.115a1.724,1.724,0,0,1-.365.244c.154.289.309.578.471.864.421.748,1.575,3.114,1.575,3.114l14.335.006,2.275,0a20.879,20.879,0,0,1,1.59-1.775c1.292-1.28,2.594-2.55,3.847-3.867C2157.981,1082.314,2158.4,1081.849,2158.017,1081.3Z" transform="translate(-2112.721 -975.474)" fill="#eeefef"/>
          <path id="Trazado_146446" data-name="Trazado 146446" d="M2233.959,1040.136c1-1.073,1.875-2.285,3.343-2.8a4.259,4.259,0,0,1,1.638-.392q.359,1.6.716,3.193c.347.395.3.915.445,1.375a36.331,36.331,0,0,1,.87,4.781,27.111,27.111,0,0,1-3.855,4.117.568.568,0,0,1-.615.187,11.418,11.418,0,0,0-5.79-4.269A35.958,35.958,0,0,1,2233.959,1040.136Z" transform="translate(-2193.594 -962.312)" fill="#e3e4e5"/>
          <path id="Trazado_146447" data-name="Trazado 146447" d="M2226.036,1051.218c-.4.082-.912.392-1.131-.013a.388.388,0,0,1-.05-.186c-.61.073-1.222.126-1.835.174-.229,1.6-.005,3.221-.118,4.826-.05.723.26.936.871.987.3.025.6.072.9.108a35.657,35.657,0,0,0,3.248-6.19A5.593,5.593,0,0,0,2226.036,1051.218Z" transform="translate(-2187.559 -973.1)" fill="#f0f1f1"/>
          <path id="Trazado_146448" data-name="Trazado 146448" d="M2256.156,1083.066l4.251-4.091a.166.166,0,0,1,.073.229q.312,1.713.625,3.427l-2.67,2.567c-.295.284-.548.634-1.021.623Q2256.785,1084.444,2256.156,1083.066Z" transform="translate(-2213.25 -994.783)" fill="#d8d8d9"/>
          <path id="Trazado_146449" data-name="Trazado 146449" d="M2378.14,1062.047c-.124-.051-.228-.1-.314-.145a.208.208,0,0,1-.153.062h-.855c.238-.354-.031-.459-.93-.773-.6-.211-1.205-.434-1.808-.652l-.224,0c-2.112-.9-4.381-1.292-6.539-2.045.632,2.626.286,5.3.433,7.957q-.023,2.277-.045,4.553a.169.169,0,0,0,.142.063c0,.026.005.052.01.08.184.331.536.394.843.532a5.3,5.3,0,0,1,3.247,5.351,5.437,5.437,0,0,1-4.331,4.545,5.288,5.288,0,0,1-5.5-2.982,2.242,2.242,0,0,0-.682-1.022l-.024,0c0-.047,0-.1,0-.142.007-3.387,1.786-5.506,4.807-6.739.326-.133.641-.266.757-.641q-.025-1.484-.049-2.968a1.226,1.226,0,0,0-1.063.416c.029-2.15.1-4.3-.028-6.443a13.144,13.144,0,0,0-.44-2.707c-1.495-.343-3-.656-4.512-.883a1.7,1.7,0,0,1-.118.129c-.672.665-1.336,1.339-2.006,2.007a.725.725,0,0,0-.212.99c1.359,2.483,2.677,4.988,4.036,7.471.517.943.37,1.238-.736,1.36-1.306.144-2.609.312-3.911.489-.806.11-1.165.476-.889,1.37.376,1.221.661,2.471.947,3.718a2.169,2.169,0,0,0,.075.255,1.679,1.679,0,0,1-.368.248c.062.7.141,1.4.225,2.1.1.871.217,1.744.316,2.618q-4.857,4.842-9.7,9.7c-.3.3-.757.549-.629,1.108l16.384,0c.115-.1.261-.158.366-.267,4.792-4.939,9.727-9.736,14.559-14.634a5.883,5.883,0,0,0,.717-1.263c.1-.257.189-.516.285-.773,1.025-3.086,2.156-6.136,3.179-9.223A17.2,17.2,0,0,0,2378.14,1062.047Z" transform="translate(-2284.116 -978.166)" fill="#eeefef"/>
          <path id="Trazado_146450" data-name="Trazado 146450" d="M2272.012,1062.172c-.025-.076-.048-.152-.073-.229q-.427-2.5-.854-4.992c.478-.118.782.221,1.1.457a15.224,15.224,0,0,0,17.874-.061c.283-.222.571-.52,1.007-.381a34.575,34.575,0,0,1-1.109,5.442c-1.571.368-3.024,1.092-4.628,1.4A21.081,21.081,0,0,1,2272.012,1062.172Z" transform="translate(-2224.782 -977.751)" fill="#fdab69"/>
          <path id="Trazado_146451" data-name="Trazado 146451" d="M2290.192,1052.279a15.548,15.548,0,0,1-19.984-.015c-.42-.4-.188-.912-.241-1.375,1.814,0,3.628-.009,5.44.007,1.024.009,1.142.245.611,1.126a.707.707,0,0,0-.061.1c-.253.591-1.166,1.194-.588,1.761.523.514,1.532.327,2.271.073a7.124,7.124,0,0,0,2.581-1.592,4.741,4.741,0,0,1,3.638-1.495c2.186.1,4.381.025,6.573.024A3.324,3.324,0,0,1,2290.192,1052.279Z" transform="translate(-2223.905 -973.064)" fill="#f2c2af"/>
          <path id="Trazado_146452" data-name="Trazado 146452" d="M2415,1128.632a3.609,3.609,0,0,1,3.577-3.63,3.64,3.64,0,1,1-3.577,3.63Z" transform="translate(-2335.956 -1030.337)" fill="#56585b"/>
          <path id="Trazado_146453" data-name="Trazado 146453" d="M2221.373,1092.447a1.936,1.936,0,0,0-.379-1.4,8.415,8.415,0,0,0-7.1-7.9c-1.311,1.046-1.656,2.612-2.561,3.88-.672.942-.325,1.564.928,1.758.909.141,1.83.245,2.745.362.388.05.942-.021,1.145.326a.231.231,0,0,1,.266.218c0,2.445.25,4.888.181,7.332a32.024,32.024,0,0,0,3.263,2.781c.4.258.827.536.856,1.055.794-.256.632-.894.64-1.415C2221.4,1097.115,2221.382,1094.781,2221.373,1092.447Z" transform="translate(-2178.368 -998.009)" fill="#e2e3e3"/>
        </g>
        <rect id="Rectángulo_32815" data-name="Rectángulo 32815" width="116.403" height="31.582" transform="translate(1199.428 3587.686)" fill="#eeefef"/>
      </g>
    </g>
  </g>
</svg>
