<svg xmlns="http://www.w3.org/2000/svg" width="109" height="109" viewBox="0 0 109 109">
  <g id="Grupo_75178" data-name="Grupo 75178" transform="translate(-1186.243 -3018)">
    <circle id="Elipse_4657" data-name="Elipse 4657" cx="54.5" cy="54.5" r="54.5" transform="translate(1186.243 3018)" fill="#f6f6f6"/>
    <g id="Grupo_74953" data-name="Grupo 74953" transform="translate(-440.592 2714.372)">
      <path id="Trazado_145311" data-name="Trazado 145311" d="M1798.86,456.4q.025-.288.049-.576-.207-1.32-.415-2.64c-.017-.118-.035-.237-.052-.355l-.072-.486a27.873,27.873,0,0,0-.856-3.263,35.066,35.066,0,0,0-3.067-6.712h0a.834.834,0,0,0-.187-.018h0c-.022-.048-.047-.095-.071-.142q-.075-.15-.157-.3a9.959,9.959,0,0,0-1.2-1.619l-.179-.4a29.517,29.517,0,0,0-3.438-3.639q-.928-.835-1.917-1.6t-2.025-1.485l-.211.014-2.247-1.4h0l-.4-.061a.62.62,0,0,1-.073.334.62.62,0,0,0,.073-.334c-.214-.128-.42-.272-.637-.395-.072-.041-.145-.079-.22-.114a32.279,32.279,0,0,0-9.957-2.538l-3.886-.043c-.907.115-1.824.185-2.727.317-.3.044-.6.1-.9.158q-16.691,3.5-22.687,19.478a20.56,20.56,0,0,0-.741,2.466,55.616,55.616,0,0,0-.911,5.578q.025,1.832.05,3.664h0c.164,1.1.316,2.194.494,3.287a34.353,34.353,0,0,0,2.712,8.154l1.452,2.449a33.063,33.063,0,0,0,6.731,7.359l2.053,1.583h0c1.229.7,2.475,1.346,3.749,1.927a30.5,30.5,0,0,0,6.645,2.214l.607-.022a7.091,7.091,0,0,0,1.065.237c.239.036.479.063.72.088.361.036.724.065,1.085.1l.6-.04a6.472,6.472,0,0,0,2.863.093c.221-.022.442-.04.662-.05a27.959,27.959,0,0,0,10.555-2.65c.526-.242,1.04-.5,1.545-.778a50.3,50.3,0,0,0,4.369-2.765h0q.322-.286.641-.575a49.75,49.75,0,0,0,4.224-4.283,35.877,35.877,0,0,0,4.043-6.923A28.73,28.73,0,0,0,1798.86,456.4Z" transform="translate(-88.285 -88.356)" fill="#6ec086"/>
      <path id="Trazado_145312" data-name="Trazado 145312" d="M1831.4,599.754a.2.2,0,0,1,.032-.159c-.162-.459-.118-.965-.436-1.365-1.315-1.652-3.328-1.732-4.965-.207-5.415,5.042-11.7,6.38-18.734,4.25A17.045,17.045,0,0,1,1800.33,598c-1.495-1.456-3.251-1.5-4.592-.123-1.3,1.33-1.2,2.91.273,4.376a19.251,19.251,0,0,0,1.96,1.775c8.092,6.089,16.771,6.871,25.962,2.869a25.919,25.919,0,0,0,7.508-5.558A6.187,6.187,0,0,0,1831.4,599.754Z" transform="translate(-132.123 -222.271)" fill="#b2e49e"/>
      <path id="Trazado_145313" data-name="Trazado 145313" d="M1907.912,518.32a3.081,3.081,0,0,0,3.086-3.006,2.22,2.22,0,0,1,2.112-2.287,2.326,2.326,0,0,1,2.366,2.3,3.188,3.188,0,0,0,3.209,2.992,3.28,3.28,0,0,0,2.886-3.656,8.946,8.946,0,0,0-2.711-5.541,8.31,8.31,0,0,0-8.609-1.635,8.408,8.408,0,0,0-5.371,7.408A3.3,3.3,0,0,0,1907.912,518.32Z" transform="translate(-219.717 -150.661)" fill="#b2e49e"/>
      <path id="Trazado_145314" data-name="Trazado 145314" d="M1786.306,518.382a3.025,3.025,0,0,0,2.75-3.025,2.308,2.308,0,0,1,2.193-2.253,2.262,2.262,0,0,1,2.287,2.246,3.171,3.171,0,0,0,3.055,3.049,3.289,3.289,0,0,0,3.068-3.48,9.56,9.56,0,0,0-.991-3.411,8.3,8.3,0,0,0-15.051.649,6.619,6.619,0,0,0-.56,3.955A3.193,3.193,0,0,0,1786.306,518.382Z" transform="translate(-122.67 -150.739)" fill="#b2e49e"/>
      <path id="Trazado_145315" data-name="Trazado 145315" d="M1630.355,397.138a4.815,4.815,0,0,1,.523.034l3.876.016,7.92-.056c1.308-.009,1.405-.121,1.493-1.442.055-.828.12-1.654.2-2.477q.064-.617.144-1.231c.08-.614.175-1.226.288-1.834a59.587,59.587,0,0,1,2.35-7.655q.182-.42.378-.833.588-1.24,1.3-2.428a27.554,27.554,0,0,1,2.224-3.634,38.7,38.7,0,0,1,3.523-4.182,35.8,35.8,0,0,1,7.379-5.884,7.8,7.8,0,0,0,.646-.485l-7.643-13.15a46.2,46.2,0,0,0-9.116,6.641q-.96.885-1.884,1.816a51.8,51.8,0,0,0-11.122,16.625c-.091.215-.213.417-.321.625l-2.029,6.116c-.3,1.4-.589,2.8-.839,4.207q-.187,1.056-.341,2.117t-.262,2.131c-.025.251.09.554-.21.731v3.877a2.037,2.037,0,0,0,1.257.351Z" transform="translate(0 -27.276)" fill="#d9387d"/>
      <path id="Trazado_145316" data-name="Trazado 145316" d="M2005.21,376.767a5.319,5.319,0,0,1-.172-.58,1.584,1.584,0,0,0-1.626-.862c-2.129,0-4.258-.093-6.386-.177-1.164-.046-1.453-.54-.915-1.571,1.017-1.95,2.059-3.887,3.1-5.824a3.9,3.9,0,0,0,.2-.413,1.419,1.419,0,0,0,.1-.741l-.224-.3-.813-1.1-2.035-2.463h0a64.313,64.313,0,0,0-7.133-6.752c-.565-.444-1.18-.826-1.734-1.284a6.123,6.123,0,0,1-.53-.49,10.79,10.79,0,0,1-.981-.548,22.8,22.8,0,0,0-2.89-1.732l-3.327,5.762-4.267,7.389c.02.06.04.12.06.179l.027.08a11.384,11.384,0,0,1,2.335,1.414q.153.123.3.255.528.362,1.042.738t1.013.769a27.2,27.2,0,0,1,5.305,5.43,8.991,8.991,0,0,1,1.362,1.675c.137.2.275.394.419.586a33.692,33.692,0,0,1,3.689,6.7q.488,1.18.894,2.4c.019.055.033.111.046.168.038.171.056.348.089.521a7.754,7.754,0,0,1,.558,1.483,12.1,12.1,0,0,1,.3,1.556h0a24.932,24.932,0,0,1,.869,5.5c.031.428.059.857.088,1.285.081,1.182.2,1.36,1.365,1.37,1.118.009,2.236.011,3.354.015l3.876.022c1.325-.009,2.65-.027,3.974-.03q.662,0,1.325,0a2.319,2.319,0,0,0,1.431-.392v-3.469a4.8,4.8,0,0,1-.339-2.166A53.505,53.505,0,0,0,2005.21,376.767Z" transform="translate(-275.989 -27.295)" fill="#b2e49e"/>
      <path id="Trazado_145317" data-name="Trazado 145317" d="M1789.871,333.549a6.8,6.8,0,0,1,1.288.372h0a26.639,26.639,0,0,1,7.111,2.328q.786.365,1.564.754c.545.271,1.1.515,1.656.772l4.267-7.389,3.327-5.762h0c-.414-.291-.842-.554-1.279-.8-1.312-.739-2.705-1.323-4.038-2.022l-3.083-1.244h0c-.935-.277-1.873-.546-2.8-.834a65.356,65.356,0,0,0-8.784-1.844l-3.477-.252c-.305.009-.61.031-.915.025a50.963,50.963,0,0,0-10.333.642q-.635.118-1.269.244c-1.267.251-2.532.519-3.8.775h0l-5.516,1.819c-.3.142-.607.289-.913.426-1.027.461-2.062.908-3.074,1.4a23.257,23.257,0,0,0-2.94,1.661h0l7.643,13.149h0l.519-.112a27.76,27.76,0,0,1,6.94-3.019c.188-.074.371-.162.564-.219q1.395-.418,2.8-.714a37.966,37.966,0,0,1,12.339-.488h0C1788.4,333.342,1789.142,333.406,1789.871,333.549Z" transform="translate(-101.902)" fill="#fedf7d"/>
    </g>
  </g>
</svg>
