<svg xmlns="http://www.w3.org/2000/svg" width="104.757" height="104.757" viewBox="0 0 104.757 104.757">
  <g id="Grupo_75195" data-name="Grupo 75195" transform="translate(-452 3771.014)">
    <circle id="Elipse_4746" data-name="Elipse 4746" cx="52.378" cy="52.378" r="52.378" transform="translate(452 -3771.014)" fill="#7e5ee3"/>
    <g id="Grupo_75190" data-name="Grupo 75190" transform="translate(-406 -3790.608)">
      <path id="Trazado_145494" data-name="Trazado 145494" d="M951.345,102.682a7.626,7.626,0,0,0-2.782-5.8,1.425,1.425,0,0,1-.577-1.225q.025-11.983.011-23.967A14.593,14.593,0,0,0,933.271,57a2.554,2.554,0,0,1-1.2-.17c-.757-.438-1.444-1-2.2-1.535.245-.913.507-1.876.76-2.842.286-1.09.02-1.545-1.073-1.843-.936-.255-1.873-.506-2.854-.77.248-.916.44-1.779.726-2.609a1.7,1.7,0,0,1,.672-.854,5.791,5.791,0,0,0,2.629-3.059c.394-1.08.119-1.629-.987-1.926q-5.052-1.357-10.109-2.7c-1.118-.3-1.655.075-1.826,1.237a5.6,5.6,0,0,0,.86,4,.859.859,0,0,1,.189.552c-.243,1.011-.531,2.011-.811,3.043-1.031-.275-1.995-.536-2.961-.788s-1.453.017-1.714.99q-2.827,10.544-5.642,21.091c-.252.943.011,1.387.953,1.661.619.179,1.243.347,1.915.534-.279,1.068-.547,2.075-.8,3.085a1.108,1.108,0,0,0,.862,1.538c.3.1.609.189.944.292-.272,1.021-.535,1.985-.784,2.952s.022,1.437.994,1.7c1.166.32,2.337.622,3.5.937,1.319.355,1.712.129,2.06-1.184.236-.89.476-1.778.717-2.68.226.051.361.077.495.112,1.4.369,1.732.182,2.107-1.194.241-.885.477-1.772.707-2.628a1.479,1.479,0,0,1,.179,0q.81.207,1.621.417c1.122.292,1.548.053,1.846-1.052.259-.96.511-1.921.757-2.849a.882.882,0,0,1,.2-.055,7.98,7.98,0,0,0,5.98-2.031.721.721,0,0,1,.361-.183c3.094-.377,4.51,1.557,4.491,3.665-.047,5.217-.016,10.435-.016,15.651v.762H925.635c0-.238,0-.442,0-.646-.009-1.228-.34-1.553-1.592-1.553H904.829c-1.225,0-1.554.339-1.555,1.588q0,1.782,0,3.564c0,1.224.34,1.556,1.588,1.556H921.91c.769,0,1.537,0,2.306,0,1.036-.007,1.41-.391,1.419-1.447,0-.247,0-.494,0-.753h11.151v4.437h-.915q-18.97,0-37.941,0a7.88,7.88,0,0,0-7.466,4.795,11.136,11.136,0,0,0-.612,4.6c.015,1.525.263,1.787,1.781,1.787h57.924c.163,0,.326,0,.489,0,.874-.021,1.287-.419,1.3-1.282C951.361,104.172,951.372,103.426,951.345,102.682ZM928.168,43.3a3.116,3.116,0,0,1-3.35,1.4,22.026,22.026,0,0,1-2.615-.713,3.262,3.262,0,0,1-2.209-2.869Zm-3.058,3.79-.573,2.173-4.317-1.143c.209-.776.395-1.465.586-2.175Zm-9.76,32.131-2.153-.587.585-2.148,2.136.573Zm3.314-3.745L912.2,73.739l.574-2.153,6.473,1.728Zm4.4-3.459-12.963-3.458,5.211-19.446,12.947,3.473-.573,2.216a8.023,8.023,0,0,0-6.255,2.075,7.656,7.656,0,0,0-2.323,4.055q-1.192,5.315,4.537,8.909Zm3.675-3.831a5.589,5.589,0,1,1,5.6-5.6A5.6,5.6,0,0,1,926.744,68.182ZM923.364,90.5H905.557V88.35h17.807Zm10.767-24.483a2.267,2.267,0,0,1-.285-.112,7.909,7.909,0,0,0,0-6.634,11.981,11.981,0,0,1,7.108,2.549,11.8,11.8,0,0,1,4.781,9.518c.064,7.823.021,15.647.02,23.47a2.6,2.6,0,0,1-.027.331h-6.68V72.178C939.053,68.694,937.531,66.789,934.131,66.012Zm14.942,37.9H892.133c-.28-3.516,1.572-6.073,4.756-6.6a7.76,7.76,0,0,1,1.253-.063q22.463,0,44.926,0C947.005,97.256,949.409,99.9,949.073,103.916Z" transform="translate(-7.133)" fill="#fff"/>
      <path id="Trazado_145495" data-name="Trazado 145495" d="M888.314,67.264q0,6.813,0,13.626a3.337,3.337,0,0,0,3.463,3.492c2.841.012,5.683,0,8.525,0,.893,0,1.4-.4,1.421-1.09.019-.717-.509-1.143-1.435-1.144q-4.087,0-8.175,0c-1.23,0-1.564-.338-1.564-1.581q0-6.708,0-13.416c0-.225.022-.449.033-.665A13.442,13.442,0,1,0,876.2,50.873a12.906,12.906,0,0,0,1.8,9.183,13.388,13.388,0,0,0,10.322,6.41ZM878.252,53.018a11.18,11.18,0,1,1,11.086,11.24A11.192,11.192,0,0,1,878.252,53.018Z" transform="translate(0 -0.547)" fill="#fff"/>
      <path id="Trazado_145496" data-name="Trazado 145496" d="M962.357,81.174a3.351,3.351,0,1,0,3.383,3.354A3.364,3.364,0,0,0,962.357,81.174Zm-.006,4.463a1.114,1.114,0,1,1,1.15-1.059A1.126,1.126,0,0,1,962.351,85.637Z" transform="translate(-42.768 -21.93)" fill="#fff"/>
      <path id="Trazado_145497" data-name="Trazado 145497" d="M896.478,66.81c.74-.032,1.316-.673,1.08-1.3a4.545,4.545,0,0,0-.889-1.108c-.237-1.045-.226-1.02.565-1.377.772-.348.816.46,1.251.662-.078.176-.139.3-.188.426a1.037,1.037,0,0,0,.376,1.3,1.008,1.008,0,0,0,1.351-.042,23.268,23.268,0,0,0,1.728-1.726A1.009,1.009,0,0,0,901.8,62.3a.962.962,0,0,0-1.291-.365c-.527.29-.679-.137-.968-.355-.316-.239-.187-.474-.116-.787.21-.935.887-.656,1.483-.663.054.143.095.274.152.4a1.046,1.046,0,0,0,1.239.67,1.058,1.058,0,0,0,.9-1.094c.017-.744.02-1.49,0-2.234a1.108,1.108,0,0,0-2.141-.391c-.054.123-.1.249-.16.4a2.221,2.221,0,0,1-.629-.012c-.246-.077-.579-.186-.669-.378-.143-.3-.575-.655-.09-1.036.3-.234.454-.708,1.02-.394a.957.957,0,0,0,1.284-.382.983.983,0,0,0-.025-1.293,21.7,21.7,0,0,0-1.831-1.816.876.876,0,0,0-1.269.032,2.857,2.857,0,0,0-.386,1.226c-.027.129.108.293.165.432-.777.946-.777.946-1.949.362V53.449c.106-.036.194-.063.28-.095a1.067,1.067,0,0,0,.79-1.236,1.085,1.085,0,0,0-1.19-.951,13.517,13.517,0,0,0-2.16.035,1.46,1.46,0,0,0-.974.717,1.54,1.54,0,0,0,.229,1.127c.119.22.484.307.736.451.1.669.136,1.232-.743,1.491-.76.224-.779-.495-1.224-.671.079-.19.144-.335.2-.484a1.025,1.025,0,0,0-.359-1.245,1,1,0,0,0-1.349,0,20.925,20.925,0,0,0-1.776,1.775,1,1,0,0,0,0,1.35,1.025,1.025,0,0,0,1.245.36c.149-.055.294-.121.427-.177,1.118,1.021.924.614.35,1.948H889.82c-.177-.677-.534-1.139-1.27-1.072a1.011,1.011,0,0,0-.985,1,22.7,22.7,0,0,0,0,2.443,1.021,1.021,0,0,0,.931.985,1.04,1.04,0,0,0,1.152-.6c.083-.157.144-.325.208-.474h1.139c.585,1.173.585,1.173-.354,1.946a1.95,1.95,0,0,1-.188-.057c-.69-.284-1.226-.185-1.535.318a1.124,1.124,0,0,0,.24,1.511c.478.476.947.962,1.435,1.428a1.068,1.068,0,0,0,1.459.151.98.98,0,0,0,.364-1.349c-.283-.513.129-.683.376-.887a1,1,0,0,1,.694-.151c.941.118.807.812.734,1.479-.051.024-.109.056-.169.08-.684.278-1,.741-.9,1.3a1.168,1.168,0,0,0,1.3.917C895.128,66.825,895.8,66.84,896.478,66.81Zm-3.34-7.86a2.233,2.233,0,1,1,2.173,2.275A2.243,2.243,0,0,1,893.138,58.95Z" transform="translate(-5.939 -6.461)" fill="#fff"/>
    </g>
  </g>
</svg>
