<svg xmlns="http://www.w3.org/2000/svg" width="400" height="168" viewBox="0 0 400 168">
  <g id="Grupo_75068" data-name="Grupo 75068" transform="translate(-180.243 -5476)">
    <rect id="Rectángulo_32538" data-name="Rectángulo 32538" width="400" height="168" transform="translate(180.243 5476)" fill="none"/>
    <g id="Grupo_75067" data-name="Grupo 75067" transform="translate(-2.757 5254.134)">
      <path id="Trazado_146023" data-name="Trazado 146023" d="M1999.525,874.025a2.01,2.01,0,0,0-.09-.187c-.118-.459-1.148-2.894-1.262-3.161-.324-.758-.854-.355-.854.211,0,.175.075,1.425.031,1.606a8.514,8.514,0,0,0-3.67-1.952s-1.722-.566-.894,1.169c.553,1.16,1.213,1.3,2.019,2.927s2.3,2.737,3.629,2.635l1.431.484,1.447-2.139-.93-.574A2.195,2.195,0,0,1,1999.525,874.025Z" transform="translate(-1559.161 -603.18)" fill="#ffb27d"/>
      <g id="Grupo_75046" data-name="Grupo 75046" transform="translate(353.417 221.866)">
        <g id="Grupo_75042" data-name="Grupo 75042" transform="translate(0 0)">
          <rect id="Rectángulo_32765" data-name="Rectángulo 32765" width="84.742" height="121.945" fill="#fff"/>
          <g id="Grupo_75032" data-name="Grupo 75032" transform="translate(16.739 10.981)">
            <rect id="Rectángulo_32766" data-name="Rectángulo 32766" width="38.626" height="2.005" transform="translate(4.992)" fill="#f99746"/>
            <rect id="Rectángulo_32767" data-name="Rectángulo 32767" width="19.313" height="2.005" transform="translate(0 4.654)" fill="#f99746"/>
            <rect id="Rectángulo_32768" data-name="Rectángulo 32768" width="28.346" height="2.005" transform="translate(21.642 4.654)" fill="#f99746"/>
          </g>
          <g id="Grupo_75035" data-name="Grupo 75035" transform="translate(9.006 52.662)">
            <rect id="Rectángulo_32769" data-name="Rectángulo 32769" width="41.673" height="1.527" transform="translate(9.811 8.148)" fill="#aec3ff"/>
            <g id="Grupo_75033" data-name="Grupo 75033" transform="translate(0 4.074)">
              <rect id="Rectángulo_32770" data-name="Rectángulo 32770" width="29.509" height="1.527" transform="translate(31.786)" fill="#aec3ff"/>
              <rect id="Rectángulo_32771" data-name="Rectángulo 32771" width="28.746" height="1.527" fill="#aec3ff"/>
            </g>
            <g id="Grupo_75034" data-name="Grupo 75034" transform="translate(2.89)">
              <rect id="Rectángulo_32772" data-name="Rectángulo 32772" width="25.386" height="1.527" transform="translate(30.13)" fill="#aec3ff"/>
              <rect id="Rectángulo_32773" data-name="Rectángulo 32773" width="25.386" height="1.527" fill="#aec3ff"/>
            </g>
          </g>
          <g id="Grupo_75041" data-name="Grupo 75041" transform="translate(33.189 73.848)">
            <g id="Grupo_75036" data-name="Grupo 75036">
              <path id="Trazado_146024" data-name="Trazado 146024" d="M1655.544,1086.622H1643.29a1.014,1.014,0,0,1-1.011-1.011h0a1.014,1.014,0,0,1,1.011-1.011h12.254a1.014,1.014,0,0,1,1.011,1.011h0A1.014,1.014,0,0,1,1655.544,1086.622Z" transform="translate(-1642.279 -1084.6)" fill="#a8c3f7"/>
              <path id="Trazado_146025" data-name="Trazado 146025" d="M1783.507,1086.622h-12.254a1.014,1.014,0,0,1-1.011-1.011h0a1.014,1.014,0,0,1,1.011-1.011h12.254a1.014,1.014,0,0,1,1.011,1.011h0A1.014,1.014,0,0,1,1783.507,1086.622Z" transform="translate(-1753.147 -1084.6)" fill="#a8c3f7"/>
            </g>
            <g id="Grupo_75040" data-name="Grupo 75040" transform="translate(4.352 6.79)">
              <g id="Grupo_75037" data-name="Grupo 75037">
                <path id="Trazado_146026" data-name="Trazado 146026" d="M1685.9,1157.509a11.039,11.039,0,1,1,11.039-11.039A11.052,11.052,0,0,1,1685.9,1157.509Zm0-21.522a10.483,10.483,0,1,0,10.482,10.483A10.494,10.494,0,0,0,1685.9,1135.987Z" transform="translate(-1674.859 -1135.43)" fill="#a8c3f7"/>
              </g>
              <g id="Grupo_75038" data-name="Grupo 75038" transform="translate(2.144 2.144)">
                <path id="Trazado_146027" data-name="Trazado 146027" d="M1699.807,1169.271a8.9,8.9,0,1,1,8.9-8.9A8.905,8.905,0,0,1,1699.807,1169.271Zm0-17.234a8.339,8.339,0,1,0,8.339,8.338A8.348,8.348,0,0,0,1699.807,1152.038Z" transform="translate(-1690.912 -1151.481)" fill="#a8c3f7"/>
              </g>
              <g id="Grupo_75039" data-name="Grupo 75039" transform="translate(5.845 7.037)">
                <path id="Trazado_146028" data-name="Trazado 146028" d="M1723.923,1195.6a8.571,8.571,0,0,1-3.169.5c-1.351-.113-2.112-.82-2.142-1.994a3.009,3.009,0,0,1,1.12-2.406c-.007-.064-.013-.127-.018-.191-.05-.656.09-1.092.416-1.3.528-.329,1.311.121,1.345.14l-.175.3c-.176-.1-.7-.327-.986-.146-.249.156-.279.585-.257.934a7.366,7.366,0,0,1,2.4-1.075,12.879,12.879,0,0,1,2.263-.387c0-.082.011-.155.02-.215.024-.161.08-.35.238-.387a.261.261,0,0,1,.28.146.838.838,0,0,1,.106.422c.251-.006.485,0,.692.014l.006-.013a3.966,3.966,0,0,1,.053-1.208c.088-.4.232-.6.434-.625a.266.266,0,0,1,.275.17,3.249,3.249,0,0,1-.406,1.714s0,0,0,0c.288.049.483.128.545.24a.259.259,0,0,1-.07.325.41.41,0,0,1-.508.109.5.5,0,0,1-.186-.213,3.639,3.639,0,0,1-.684,1.018.342.342,0,0,1-.4.059.377.377,0,0,1-.088-.07,4.72,4.72,0,0,1-.264.547c-.363.637-.772.965-1.182.945a.668.668,0,0,1-.443-.2,6.432,6.432,0,0,1-.8,1.309.932.932,0,0,1-1.037.368,3.024,3.024,0,0,1-1.51-2.338,2.6,2.6,0,0,0-.836,1.993c.026,1,.64,1.558,1.824,1.657,2.99.249,8.231-2.531,8.628-4.576h0C1729.088,1192.838,1726.6,1194.733,1723.923,1195.6Zm-3.824-3.765a2.845,2.845,0,0,0,1.308,2.273.591.591,0,0,0,.663-.255,5.968,5.968,0,0,0,.836-1.428,2.1,2.1,0,0,1-.144-.453,3.256,3.256,0,0,1,0-1.33,8.778,8.778,0,0,0-1.636.57A5.36,5.36,0,0,0,1720.1,1191.835Zm3.191.569a.4.4,0,0,0,.305.208c.263.011.579-.269.865-.771a4.57,4.57,0,0,0,.358-.809,3.4,3.4,0,0,1-.1-.706c-.385.031-.8.083-1.236.161A2.614,2.614,0,0,1,1723.291,1192.4Zm1.89-1.365c.054.163.1.195.1.195a3.251,3.251,0,0,0,.617-.939c-.165-.006-.35-.007-.553,0A4.249,4.249,0,0,1,1725.181,1191.039Zm-2.037-.446a2.658,2.658,0,0,0-.044,1.3A1.707,1.707,0,0,0,1723.144,1190.593Zm3.417-.221h0Zm-.051-1.781a2.147,2.147,0,0,0-.083.363A2.657,2.657,0,0,0,1726.51,1188.591Z" transform="translate(-1718.611 -1188.109)" fill="#a8c3f7"/>
              </g>
            </g>
          </g>
        </g>
        <g id="Grupo_75045" data-name="Grupo 75045" transform="translate(5.432 34.113)">
          <rect id="Rectángulo_32774" data-name="Rectángulo 32774" width="46.532" height="1.527" transform="translate(10.955 8.148)" fill="#aec3ff"/>
          <g id="Grupo_75043" data-name="Grupo 75043" transform="translate(0 4.074)">
            <rect id="Rectángulo_32775" data-name="Rectángulo 32775" width="32.949" height="1.527" transform="translate(35.492)" fill="#aec3ff"/>
            <rect id="Rectángulo_32776" data-name="Rectángulo 32776" width="32.098" height="1.527" fill="#aec3ff"/>
          </g>
          <g id="Grupo_75044" data-name="Grupo 75044" transform="translate(3.227)">
            <rect id="Rectángulo_32777" data-name="Rectángulo 32777" width="28.346" height="1.527" transform="translate(33.643)" fill="#aec3ff"/>
            <rect id="Rectángulo_32778" data-name="Rectángulo 32778" width="28.346" height="1.527" fill="#aec3ff"/>
          </g>
        </g>
      </g>
      <g id="Grupo_75047" data-name="Grupo 75047" transform="translate(434.527 232.859)">
        <path id="Trazado_146029" data-name="Trazado 146029" d="M2070.538,845.871s7.125,27.292-14.536,22.755c-5.848-1.225-21.428-16.75-21.428-16.75s1.5-2.366,3.344-2.115c0,0,15.052,4.894,17.459,6.666,1.333.981,2.856-14.481,7.467-14.261A12.052,12.052,0,0,1,2070.538,845.871Z" transform="translate(-2030.088 -811.696)" fill="#91cecf"/>
        <path id="Trazado_146030" data-name="Trazado 146030" d="M2274.592,1720.4s-.4,6.419-1.64,6.511c-.165.013-6.3.013-6.3.013l-7.83-.045a2.541,2.541,0,0,1,2.34-2.286c2.289-.4,6.12-2.007,7.506-5.032C2270.128,1716.374,2274.592,1720.4,2274.592,1720.4Z" transform="translate(-2224.38 -1570.817)" fill="#163560"/>
        <path id="Trazado_146031" data-name="Trazado 146031" d="M2207.958,1223.15a16.319,16.319,0,0,1-4.238.8,15.547,15.547,0,0,1-3.957-.565,108.435,108.435,0,0,0-2.915-13.882c-1.293-5-3.139-11.44-5.766-19.435-7.262-22.1-9.471-35.027-9.672-36.251-.011-.064-.015-.1-.015-.1l.023-.011,22.328-9.8s-2.76,30.457.761,42.147a49.273,49.273,0,0,1,1.278,5.6C2208.01,1204.349,2207.958,1223.15,2207.958,1223.15Z" transform="translate(-2157.297 -1073.125)" fill="#2b478b"/>
        <path id="Trazado_146032" data-name="Trazado 146032" d="M2205.884,1191.651l-8.937,17.849c-1.293-5-3.139-11.44-5.766-19.435-7.263-22.1-9.472-35.027-9.673-36.251,0-.036,0-.071.009-.107l22.328-9.8s-2.759,30.457.761,42.147A49.215,49.215,0,0,1,2205.884,1191.651Z" transform="translate(-2157.394 -1073.125)" fill="#233862"/>
        <path id="Trazado_146033" data-name="Trazado 146033" d="M2144.045,1720.4s-.4,6.419-1.64,6.511c-.165.013-6.3.013-6.3.013l-7.83-.045a2.541,2.541,0,0,1,2.34-2.286c2.289-.4,6.119-2.007,7.506-5.032C2139.581,1716.374,2144.045,1720.4,2144.045,1720.4Z" transform="translate(-2111.274 -1570.817)" fill="#163560"/>
        <path id="Trazado_146034" data-name="Trazado 146034" d="M2151.511,1149.275a317.841,317.841,0,0,0,3.125,43.969c3.415,24.233,2.258,34.519,2.258,34.519a23.262,23.262,0,0,0,3.293.838,14.941,14.941,0,0,0,4.886-.565s4.888-24.242,3.486-36.371,6.694-41.621,6.694-41.621Z" transform="translate(-2131.399 -1077.78)" fill="#2b478b"/>
        <path id="Trazado_146035" data-name="Trazado 146035" d="M2206.384,735.984l-3.916,3.438-6.4-.282c.016-.516.133-2.66.241-4.6.007-.115.014-.229.02-.341.094-1.653.176-3.074.176-3.074l5.461-3.392,2.037-1.265c0,.035.083,1.808.1,2.067A14.99,14.99,0,0,0,2206.384,735.984Z" transform="translate(-2170.009 -711.453)" fill="#ffb27d"/>
        <path id="Trazado_146036" data-name="Trazado 146036" d="M2141.752,839.839c.09,10.417.784,34.787,1.3,35.283,5.426,5.238,29.292-1.436,30.557-7.206s-4.809-73.985-14.076-76.709c-1.923-.564-12.2,2.759-12.2,2.759a65.168,65.168,0,0,0-2.67,9.593c-.392,1.991-1.671,16.2-2.418,25.694-.2,2.531-.359,4.726-.454,6.266C2141.743,836.155,2141.734,837.706,2141.752,839.839Z" transform="translate(-2122.941 -767.49)" fill="#abddda"/>
        <path id="Trazado_146037" data-name="Trazado 146037" d="M2205.235,736.4c-.973,2.347-5.474,4.893-7.365,5.862.007-.115.014-.229.02-.341.094-1.653.176-3.074.176-3.074l5.462-3.392C2204.812,735.261,2205.636,735.438,2205.235,736.4Z" transform="translate(-2171.57 -719.183)" fill="#fca56b"/>
        <path id="Trazado_146038" data-name="Trazado 146038" d="M2167.935,656.237s9.883.919,10.36-5.244,2.074-10.2-4.215-11.042-7.7,1.409-8.359,3.428S2165.377,655.839,2167.935,656.237Z" transform="translate(-2143.458 -636.337)" fill="#ffb27d"/>
        <path id="Trazado_146039" data-name="Trazado 146039" d="M2160.285,620.491s2.027,6.622,3.36,6.032,2.553-1.076,2.781,1-1.207,4.838,3.171,4.283,8.2-12.962,6.571-14.811C2171.47,611.662,2153.785,614.147,2160.285,620.491Z" transform="translate(-2137.776 -614.085)" fill="#163560"/>
        <path id="Trazado_146040" data-name="Trazado 146040" d="M2186.04,773.882c.122-.051,7.053-3.16,7.863-2.893s1.821,2.743,1.821,2.743l-12.2,2.759A6.06,6.06,0,0,1,2186.04,773.882Z" transform="translate(-2159.137 -750.015)" fill="#91cecf"/>
        <path id="Trazado_146041" data-name="Trazado 146041" d="M2141.739,986.393c18.57-13.428,20.014-34.713,20.014-34.713-8.835,4.984-17.226,13.223-19.948,22.28-.2,2.531.059,6.573-.037,8.113C2141.73,982.709,2141.722,984.259,2141.739,986.393Z" transform="translate(-2122.928 -906.581)" fill="#91cecf"/>
        <path id="Trazado_146042" data-name="Trazado 146042" d="M2008.147,1151.212a1.465,1.465,0,0,0-.753-.228,10.613,10.613,0,0,1-1.915-.9c-.68-.616-.917.04-.443.694.1.142.47.383.6.519a14.14,14.14,0,0,0-4.136,2.723s-1.411,1.138.5,1.386c1.274.166,1.755-.309,3.554-.1s3.545-.439,4.184-1.613l1.184-.938-1.009-2.377Z" transform="translate(-2000.995 -1078.271)" fill="#ffb27d"/>
        <path id="Trazado_146043" data-name="Trazado 146043" d="M2086.564,815.955s19.558-.939,1.871,31.968c-2.829,5.263-23.042,16.7-23.042,16.7s-1.9-2.058-1.182-3.777c0,0,13.163-14.979,14.926-15.589,1.564-.541,1.241-18.779,2.641-23.177A10.774,10.774,0,0,1,2086.564,815.955Z" transform="translate(-2055.626 -788.985)" fill="#abddda"/>
      </g>
      <g id="Grupo_75049" data-name="Grupo 75049" transform="translate(414.691 321.103)">
        <g id="Grupo_75048" data-name="Grupo 75048" transform="translate(0 0)">
          <path id="Trazado_146044" data-name="Trazado 146044" d="M1884.447,1371.52l-14.179,0-7.5,0a5.309,5.309,0,0,1-5.29-5.3l.016-52.392a5.306,5.306,0,0,1,5.293-5.291l6.651,0,15.027,0a5.307,5.307,0,0,1,5.29,5.294l-.015,52.392A5.309,5.309,0,0,1,1884.447,1371.52Z" transform="translate(-1856.814 -1304.01)" fill="#c0d8fb" opacity="0.5"/>
          <path id="Trazado_146045" data-name="Trazado 146045" d="M1895.446,1530.6l-.376-2.757h0l-.376-2.759a2.593,2.593,0,0,0-2.909-2.211c-.078.011-.154.026-.229.043a2.558,2.558,0,0,0,.444-1.221,2.582,2.582,0,0,0,4.9-1.594l-.648-2.706h0l-.647-2.708a2.584,2.584,0,0,0-5.026,1.2l.976,4.079a2.559,2.559,0,0,0-2.038-1.1,7.078,7.078,0,0,0-.537-5.449l-4.291-3.547a2.583,2.583,0,0,0-3.521,3.766,2.559,2.559,0,0,0-.688.088l-2.685.735h0l-2.684.735a2.588,2.588,0,0,0-1.826,1.882l-.282-.675h0l-1.073-2.568a2.584,2.584,0,0,0-4.768,1.992l1.073,2.568h0l.688,1.646a2.589,2.589,0,0,0-1.632,2.269l-.141,2.78h0l-.141,2.781a2.574,2.574,0,0,0,3.322,2.6,2.607,2.607,0,0,0-.205,1.746,2.564,2.564,0,0,0-1.1,1.244l-1.063,2.572h0l-1.063,2.573a9.356,9.356,0,0,1,5.09,3.773,2.59,2.59,0,0,0,3.622-.481l1.692-2.21h0l1.692-2.211a1.686,1.686,0,0,1,2.182-1.424l.443-.306-.614.8h0l-1.692,2.21a2.584,2.584,0,1,0,4.1,3.141l1.692-2.21h0l1.692-2.211c.022-.028.04-.058.06-.087a2.573,2.573,0,0,0,.5.582l-.6.787a2.584,2.584,0,0,0,4.1,3.141l3.384-4.421a2.575,2.575,0,0,0-1.1-3.969c.031,0,.063,0,.094-.008A2.591,2.591,0,0,0,1895.446,1530.6Zm-23.283-2.466.048-.948a2.483,2.483,0,0,0,.962.934l-1.183.816A2.565,2.565,0,0,0,1872.163,1528.132Zm17.41-2.352.506,3.708a2.591,2.591,0,0,0-2.682-1.421,2.559,2.559,0,0,0,.7-.63l1.452-1.9C1889.556,1525.619,1889.562,1525.7,1889.573,1525.78Zm-5.876-10.018.651.538-.67.462A2.561,2.561,0,0,0,1883.7,1515.762Zm.562,8.193a2.58,2.58,0,0,0-.458-1.1,2.55,2.55,0,0,0,.556-.287l2.036-1.4Zm1.689,4.835a2.6,2.6,0,0,0-1.947-.588l.055-.7a2.554,2.554,0,0,0,2.36.914A2.6,2.6,0,0,0,1885.948,1528.79Zm-5.2-9.779a2.59,2.59,0,0,0,.019,2.9c.011.016.024.031.036.047a.567.567,0,1,1-.429-.855,2.574,2.574,0,0,0-.987-1.712l-.008-.005Zm-2.572,6.213,1-1.3c-.014.08-.026.162-.032.245l-.189,2.39a2.584,2.584,0,0,0-1.312-.632l.536-.7Zm-4.665,10.92.292-.708a2.564,2.564,0,0,0,.124-1.572c.059-.034.118-.069.175-.108l4.583-3.16c.03-.021.056-.044.084-.065a2.581,2.581,0,0,0,.291.707l-.816.563a3.9,3.9,0,0,1-3.352,2.537Zm12.157-3.185.143.6a2.564,2.564,0,0,0-.715-.2Zm5.458.6-.2-.832h0l-.038-.159a.655.655,0,1,1,.237.991Zm-15.65-13.311-1.4,1.832h0l-1.692,2.21c-.008.01-.014.021-.021.031l.089-1.752c0-.045,0-.089,0-.134.079-.025.158-.052.237-.085a1.771,1.771,0,0,1,2.79-2.1Z" transform="translate(-1864.807 -1477.94)" fill="#afcdfb"/>
          <path id="Trazado_146046" data-name="Trazado 146046" d="M1870.268,1371.516l-7.5,0a5.309,5.309,0,0,1-5.29-5.3l.016-52.392a5.306,5.306,0,0,1,5.293-5.291l6.651,0a6.487,6.487,0,0,1,.868,3.273l-.017,59.177Q1870.29,1371.255,1870.268,1371.516Z" transform="translate(-1856.814 -1304.01)" fill="#afcdfb" opacity="0.5"/>
          <path id="Trazado_146047" data-name="Trazado 146047" d="M1885.107,1281.659l-20.137-.006-11.429,0a1.03,1.03,0,0,1-1.028-1.03v-4.934a1.032,1.032,0,0,1,1.03-1.028l11.412,0h0l20.151.006a1.032,1.032,0,0,1,1.029,1.03l0,4.934A1.032,1.032,0,0,1,1885.107,1281.659Z" transform="translate(-1852.513 -1274.657)" fill="#f99746"/>
          <path id="Trazado_146048" data-name="Trazado 146048" d="M1864.97,1281.653l-11.429,0a1.03,1.03,0,0,1-1.028-1.03v-4.934a1.032,1.032,0,0,1,1.03-1.028l11.412,0h0a1.032,1.032,0,0,1,1.026,1.029v4.934A1.033,1.033,0,0,1,1864.97,1281.653Z" transform="translate(-1852.513 -1274.657)" fill="#ef7e29"/>
        </g>
      </g>
      <g id="Grupo_75050" data-name="Grupo 75050" transform="translate(498.125 382.007)">
        <path id="Trazado_146049" data-name="Trazado 146049" d="M2500.4,1734.033a3.483,3.483,0,0,1-3.47,3.471h-16.389a3.47,3.47,0,0,1,0-6.94h16.389A3.48,3.48,0,0,1,2500.4,1734.033Z" transform="translate(-2477.074 -1730.564)" fill="#ef7e29"/>
        <path id="Trazado_146050" data-name="Trazado 146050" d="M2491.948,1734.033a3.481,3.481,0,0,1-3.469,3.471h-7.936a3.47,3.47,0,0,1,0-6.94h7.936A3.48,3.48,0,0,1,2491.948,1734.033Z" transform="translate(-2477.074 -1730.564)" fill="#f99746"/>
        <rect id="Rectángulo_32779" data-name="Rectángulo 32779" width="16.616" height="1.095" rx="0.547" transform="translate(4.012 0.77)" fill="#ffe2cc" opacity="0.5"/>
      </g>
      <g id="Grupo_75059" data-name="Grupo 75059" transform="translate(325.222 289.017)">
        <g id="Grupo_75054" data-name="Grupo 75054" transform="translate(6.731 0)">
          <g id="Grupo_75053" data-name="Grupo 75053">
            <g id="Grupo_75052" data-name="Grupo 75052">
              <path id="Trazado_146051" data-name="Trazado 146051" d="M1273.107,1039.918v48.867a5.469,5.469,0,0,1-5.453,5.453h-29.045a5.39,5.39,0,0,1-2.189-.462,5.471,5.471,0,0,1-3.264-4.991v-48.867a5.469,5.469,0,0,1,5.453-5.453h29.045A5.468,5.468,0,0,1,1273.107,1039.918Z" transform="translate(-1233.156 -1034.466)" fill="#fcecdb"/>
              <path id="Trazado_146052" data-name="Trazado 146052" d="M1410.929,1097.479a5.935,5.935,0,1,1,7.643-3.47A5.935,5.935,0,0,1,1410.929,1097.479Z" transform="translate(-1383.845 -1079.103)" fill="#f7e0cb"/>
              <path id="Trazado_146053" data-name="Trazado 146053" d="M1421.04,1094.009l-11.114-4.173a5.936,5.936,0,0,1,11.114,4.173Z" transform="translate(-1386.312 -1079.103)" fill="#efcbab"/>
              <path id="Trazado_146054" data-name="Trazado 146054" d="M1271.6,1096.529a5.935,5.935,0,1,1,8.351-.844A5.935,5.935,0,0,1,1271.6,1096.529Z" transform="translate(-1264.574 -1079.112)" fill="#f7e0cb"/>
              <path id="Trazado_146055" data-name="Trazado 146055" d="M1288.63,1095.685l-9.2-7.507a5.935,5.935,0,0,1,9.2,7.507Z" transform="translate(-1273.252 -1079.112)" fill="#efcbab"/>
              <path id="Trazado_146056" data-name="Trazado 146056" d="M1410.929,1368.518a5.936,5.936,0,1,1,7.643-3.47A5.936,5.936,0,0,1,1410.929,1368.518Z" transform="translate(-1383.845 -1313.934)" fill="#f7e0cb"/>
              <path id="Trazado_146057" data-name="Trazado 146057" d="M1421.04,1368.067l-11.114-4.173a5.936,5.936,0,1,1,11.114,4.173Z" transform="translate(-1386.312 -1316.55)" fill="#efcbab"/>
              <path id="Trazado_146058" data-name="Trazado 146058" d="M1271.6,1367.568a5.935,5.935,0,1,1,8.351-.844A5.935,5.935,0,0,1,1271.6,1367.568Z" transform="translate(-1264.574 -1313.942)" fill="#f7e0cb"/>
              <path id="Trazado_146059" data-name="Trazado 146059" d="M1288.63,1369.742l-9.2-7.507a5.935,5.935,0,1,1,9.2,7.507Z" transform="translate(-1273.252 -1316.559)" fill="#efcbab"/>
              <g id="Grupo_75051" data-name="Grupo 75051" transform="translate(23.234 25.661)">
                <path id="Trazado_146060" data-name="Trazado 146060" d="M1415.559,1237.854a5.935,5.935,0,1,1,2.822-7.906A5.935,5.935,0,0,1,1415.559,1237.854Z" transform="translate(-1407.081 -1226.554)" fill="#f7e0cb"/>
                <path id="Trazado_146061" data-name="Trazado 146061" d="M1418.381,1229.949l-10.727,5.084a5.935,5.935,0,1,1,10.727-5.084Z" transform="translate(-1407.081 -1226.554)" fill="#efcbab"/>
              </g>
              <path id="Trazado_146062" data-name="Trazado 146062" d="M1269.837,1230.282a5.935,5.935,0,1,1,3.305,7.716A5.935,5.935,0,0,1,1269.837,1230.282Z" transform="translate(-1264.567 -1200.89)" fill="#f7e0cb"/>
              <path id="Trazado_146063" data-name="Trazado 146063" d="M1297.343,1240.765l4.411-11.021a5.936,5.936,0,0,1-4.411,11.021Z" transform="translate(-1288.768 -1203.657)" fill="#efcbab"/>
            </g>
          </g>
          <path id="Trazado_146064" data-name="Trazado 146064" d="M1314.492,1125.346v42.524a5.064,5.064,0,0,1-4.989,5.109h-26.578a4.838,4.838,0,0,1-2-.433v-41.313a5.936,5.936,0,0,1,1.828-4.295,5.78,5.78,0,0,1,1.4-.994,5.587,5.587,0,0,1,2.517-.6Z" transform="translate(-1274.541 -1113.205)" fill="#efcbab" opacity="0.5"/>
        </g>
        <g id="Grupo_75057" data-name="Grupo 75057" transform="translate(14.06 12.415)">
          <g id="Grupo_75056" data-name="Grupo 75056" transform="translate(0 0)">
            <rect id="Rectángulo_32780" data-name="Rectángulo 32780" width="59.773" height="39.951" rx="19.976" transform="translate(39.951 0) rotate(90)" fill="#fcecdb"/>
            <path id="Trazado_146065" data-name="Trazado 146065" d="M1465.8,1190.418a5.935,5.935,0,1,1,7.643-3.47A5.935,5.935,0,0,1,1465.8,1190.418Z" transform="translate(-1438.713 -1172.041)" fill="#f7e0cb"/>
            <path id="Trazado_146066" data-name="Trazado 146066" d="M1475.908,1186.947l-11.113-4.173a5.935,5.935,0,1,1,11.113,4.173Z" transform="translate(-1441.18 -1172.041)" fill="#efcbab"/>
            <path id="Trazado_146067" data-name="Trazado 146067" d="M1326.469,1189.468a5.936,5.936,0,1,1,8.352-.844A5.935,5.935,0,0,1,1326.469,1189.468Z" transform="translate(-1319.443 -1172.05)" fill="#f7e0cb"/>
            <path id="Trazado_146068" data-name="Trazado 146068" d="M1343.5,1188.624l-9.2-7.507a5.935,5.935,0,1,1,9.2,7.507Z" transform="translate(-1328.12 -1172.05)" fill="#efcbab"/>
            <path id="Trazado_146069" data-name="Trazado 146069" d="M1465.8,1461.457a5.935,5.935,0,1,1,7.643-3.47A5.935,5.935,0,0,1,1465.8,1461.457Z" transform="translate(-1438.713 -1406.873)" fill="#f7e0cb"/>
            <path id="Trazado_146070" data-name="Trazado 146070" d="M1475.908,1461.005l-11.113-4.173a5.935,5.935,0,1,1,11.113,4.173Z" transform="translate(-1441.18 -1409.488)" fill="#efcbab"/>
            <circle id="Elipse_4710" data-name="Elipse 4710" cx="5.935" cy="5.935" r="5.935" transform="translate(2.936 52.016) rotate(-65.857)" fill="#f7e0cb"/>
            <path id="Trazado_146071" data-name="Trazado 146071" d="M1343.5,1462.681l-9.2-7.507a5.935,5.935,0,1,1,9.2,7.507Z" transform="translate(-1328.12 -1409.497)" fill="#efcbab"/>
            <g id="Grupo_75055" data-name="Grupo 75055" transform="translate(23.234 25.661)">
              <path id="Trazado_146072" data-name="Trazado 146072" d="M1470.427,1330.792a5.936,5.936,0,1,1,2.822-7.906A5.935,5.935,0,0,1,1470.427,1330.792Z" transform="translate(-1461.948 -1319.492)" fill="#f7e0cb"/>
              <path id="Trazado_146073" data-name="Trazado 146073" d="M1473.249,1322.887l-10.727,5.084a5.935,5.935,0,1,1,10.727-5.084Z" transform="translate(-1461.948 -1319.492)" fill="#efcbab"/>
            </g>
            <path id="Trazado_146074" data-name="Trazado 146074" d="M1324.705,1323.221a5.936,5.936,0,1,1,3.305,7.716A5.935,5.935,0,0,1,1324.705,1323.221Z" transform="translate(-1319.435 -1293.829)" fill="#f7e0cb"/>
            <path id="Trazado_146075" data-name="Trazado 146075" d="M1352.211,1333.7l4.411-11.021a5.935,5.935,0,1,1-4.411,11.021Z" transform="translate(-1343.636 -1296.597)" fill="#efcbab"/>
          </g>
        </g>
        <g id="Grupo_75058" data-name="Grupo 75058" transform="translate(0 31.907)">
          <rect id="Rectángulo_32781" data-name="Rectángulo 32781" width="45.619" height="68.081" transform="translate(3.897 0)" fill="#ef7e29"/>
          <rect id="Rectángulo_32782" data-name="Rectángulo 32782" width="45.619" height="68.081" transform="translate(10.251)" fill="#f99746"/>
          <path id="Trazado_146076" data-name="Trazado 146076" d="M1218.3,1277.266l-2.186,3.4h-4.168v-7.35h6.354Z" transform="translate(-1208.045 -1273.315)" fill="#d8661a"/>
          <path id="Trazado_146077" data-name="Trazado 146077" d="M1189.126,1278.679h-6.354l3.9-5.363h6.354Z" transform="translate(-1182.772 -1273.315)" fill="#f99746"/>
          <path id="Trazado_146078" data-name="Trazado 146078" d="M1283.038,1361.734H1259.51v-65.2l23.528,2.261Z" transform="translate(-1249.259 -1293.435)" fill="#efcbab" opacity="0.5"/>
          <path id="Trazado_146079" data-name="Trazado 146079" d="M1305.129,1278.676l-3.7,1.987h-39.719l-2.2-3.4v-3.951Z" transform="translate(-1249.259 -1273.312)" fill="#ef7e29"/>
          <path id="Trazado_146080" data-name="Trazado 146080" d="M1308.348,1278.679h-45.619l-3.223-5.363h45.619Z" transform="translate(-1249.255 -1273.315)" fill="#f99746"/>
        </g>
      </g>
      <g id="Grupo_75063" data-name="Grupo 75063" transform="translate(225.885 277.063)">
        <path id="Trazado_146081" data-name="Trazado 146081" d="M815.449,1120.464a4.754,4.754,0,0,0-8.571-1.136,4.307,4.307,0,0,0-.641,2.161c-.116,4.546,8.849,22.142,10.039,23.7,2.166,2.834,15.244,9.648,15.244,9.648l2.779-.4a20.6,20.6,0,0,1-3.2-2.612c-3.36-3.354-8.258-8.808-9.155-9.563C820.405,1140.96,817.741,1127.826,815.449,1120.464Z" transform="translate(-757.2 -1094.105)" fill="#ed985f"/>
        <g id="Grupo_75062" data-name="Grupo 75062" transform="translate(69.641 62.231)">
          <g id="Grupo_75061" data-name="Grupo 75061">
            <path id="Rectángulo_32783" data-name="Rectángulo 32783" d="M24.776,0H48.315A24.776,24.776,0,0,1,73.09,24.776v0A24.775,24.775,0,0,1,48.315,49.551H24.776A24.776,24.776,0,0,1,0,24.776v0A24.776,24.776,0,0,1,24.776,0Z" fill="#fcecdb"/>
            <path id="Trazado_146082" data-name="Trazado 146082" d="M1037.537,1465.744a7.227,7.227,0,0,1-9.346,4.3,7.393,7.393,0,0,1-4.244-9.48,7.229,7.229,0,0,1,9.346-4.3A7.394,7.394,0,0,1,1037.537,1465.744Z" transform="translate(-1015.066 -1449.785)" fill="#f7e0cb"/>
            <path id="Trazado_146083" data-name="Trazado 146083" d="M1033.293,1456.264l-5.1,13.784a7.393,7.393,0,0,1-4.244-9.48A7.229,7.229,0,0,1,1033.293,1456.264Z" transform="translate(-1015.066 -1449.785)" fill="#efcbab"/>
            <path id="Trazado_146084" data-name="Trazado 146084" d="M1036.375,1638.575a7.187,7.187,0,0,1-10.212,1.047,7.433,7.433,0,0,1-1.033-10.358,7.188,7.188,0,0,1,10.212-1.047A7.434,7.434,0,0,1,1036.375,1638.575Z" transform="translate(-1015.077 -1597.739)" fill="#f7e0cb"/>
            <path id="Trazado_146085" data-name="Trazado 146085" d="M1035.343,1628.217l-9.179,11.405a7.433,7.433,0,0,1-1.033-10.358A7.188,7.188,0,0,1,1035.343,1628.217Z" transform="translate(-1015.077 -1597.739)" fill="#efcbab"/>
            <path id="Trazado_146086" data-name="Trazado 146086" d="M1368.961,1465.744a7.227,7.227,0,0,1-9.346,4.3,7.393,7.393,0,0,1-4.244-9.48,7.23,7.23,0,0,1,9.346-4.3A7.4,7.4,0,0,1,1368.961,1465.744Z" transform="translate(-1302.216 -1449.785)" fill="#f7e0cb"/>
            <path id="Trazado_146087" data-name="Trazado 146087" d="M1364.731,1456.264l-5.1,13.784a7.393,7.393,0,0,1-4.243-9.48A7.229,7.229,0,0,1,1364.731,1456.264Z" transform="translate(-1302.228 -1449.785)" fill="#efcbab"/>
            <path id="Trazado_146088" data-name="Trazado 146088" d="M1367.8,1638.572a7.184,7.184,0,0,1-9.887,1.3c-.111-.078-.218-.163-.325-.252a7.432,7.432,0,0,1-1.032-10.358,7.187,7.187,0,0,1,10.212-1.047c.106.088.208.177.309.27A7.436,7.436,0,0,1,1367.8,1638.572Z" transform="translate(-1302.227 -1597.736)" fill="#f7e0cb"/>
            <path id="Trazado_146089" data-name="Trazado 146089" d="M1367.076,1628.485l-9.163,11.386c-.111-.078-.218-.163-.325-.252a7.432,7.432,0,0,1-1.032-10.358,7.187,7.187,0,0,1,10.212-1.047C1366.873,1628.3,1366.975,1628.391,1367.076,1628.485Z" transform="translate(-1302.227 -1597.736)" fill="#efcbab"/>
            <g id="Grupo_75060" data-name="Grupo 75060" transform="translate(31.378 6.007)">
              <path id="Trazado_146090" data-name="Trazado 146090" d="M1209.186,1460.006a7.407,7.407,0,0,1-3.451,9.805,7.213,7.213,0,0,1-9.667-3.5,7.41,7.41,0,0,1,3.45-9.806A7.215,7.215,0,0,1,1209.186,1460.006Z" transform="translate(-1195.368 -1455.795)" fill="#f7e0cb"/>
              <path id="Trazado_146091" data-name="Trazado 146091" d="M1199.519,1461.116l6.216,13.305a7.213,7.213,0,0,1-9.667-3.5A7.409,7.409,0,0,1,1199.519,1461.116Z" transform="translate(-1195.368 -1460.405)" fill="#efcbab"/>
            </g>
            <path id="Trazado_146092" data-name="Trazado 146092" d="M1199.928,1640.74a7.4,7.4,0,0,1-4.041-9.57,7.223,7.223,0,0,1,9.435-4.1,7.4,7.4,0,0,1,4.041,9.57A7.225,7.225,0,0,1,1199.928,1640.74Z" transform="translate(-1163.987 -1597.725)" fill="#f7e0cb"/>
            <path id="Trazado_146093" data-name="Trazado 146093" d="M1212.746,1636.641l-13.476-5.471a7.223,7.223,0,0,1,9.435-4.1A7.4,7.4,0,0,1,1212.746,1636.641Z" transform="translate(-1167.371 -1597.725)" fill="#efcbab"/>
          </g>
        </g>
        <path id="Trazado_146094" data-name="Trazado 146094" d="M847.442,975.3c.073-.292-6.343,2.9-6.669,3.261-3.009,3.338-2.151,7.694-.429,7.735,1.1.027.89,1.863.89,1.863l12.3-5.2S852.055,974.322,847.442,975.3Z" transform="translate(-785.397 -971.186)" fill="#b5453c"/>
        <path id="Trazado_146095" data-name="Trazado 146095" d="M803.653,949.772s.44-4.792-4.915-4.792a6.287,6.287,0,0,1,2.462,1.32,6.332,6.332,0,0,0-7.132,1.076c-3.716,3.081-1.407,10.807-2.537,12.274s-5.531,1.76-4.994,6.5,13.968,10.685,13.106,14.609c0,0,5.263-7.737,1.5-11.268a6.975,6.975,0,0,1,2.021,3.782s.5-4.01-2.054-5.293c-2.258-1.135-4.108-5.286-3.912-6.028S803.653,949.772,803.653,949.772Z" transform="translate(-740.094 -944.98)" fill="#b5453c"/>
        <path id="Trazado_146096" data-name="Trazado 146096" d="M605.718,1320.812l-2.662-.391a31.472,31.472,0,0,1-10.284-20.386,23.715,23.715,0,0,1-.064-4.1.718.718,0,0,0-.093-.453l0,0c-.286-.439-1-1.539-1.965-3.1-.952-1.542-2.58-4.456-4.372-7.727-3.227-5.89-6.985-12.933-8.274-15.177-4.107-7.151-2.127-11.959-2.127-11.959s11.457-1.132,14.6-3.879l1.131,1.743s2.482,10.989,2.365,11.04q.183.56.373,1.141a191.075,191.075,0,0,1,5.441,19.758,32.666,32.666,0,0,1,.86,8.536,14.967,14.967,0,0,0,.2,3.126C601.951,1306.861,605.718,1320.812,605.718,1320.812Z" transform="translate(-557.199 -1212.397)" fill="#2b478b"/>
        <path id="Trazado_146097" data-name="Trazado 146097" d="M771.741,1741.672H760.634a6.1,6.1,0,0,1,.314-2.977c.556-1.232,1.348-1.272.1-3.2.706.727,2.974,1.027,4.58.812a13.606,13.606,0,0,0,1.925,2.931C768.281,1739.755,771.517,1739.57,771.741,1741.672Z" transform="translate(-717.638 -1629.889)" fill="#233862"/>
        <path id="Trazado_146098" data-name="Trazado 146098" d="M594.339,1267.553c-.97,5.351-3.262,14.256-8.063,17.09-3.227-5.89-6.985-12.933-8.274-15.177-4.107-7.151-2.127-11.959-2.127-11.959s11.457-1.132,14.6-3.879l1.131,1.743s2.482,10.989,2.365,11.04Q594.149,1266.972,594.339,1267.553Z" transform="translate(-557.199 -1212.397)" fill="#233862"/>
        <path id="Trazado_146099" data-name="Trazado 146099" d="M478.069,1243.3l.038-2.077c-4.139.522-14.27-4.946-14.27-4.946s-4.33,2.88-4.922,11.1c-.289,4.014-2.12,20.991-2.322,26.06-.074,1.837-.1,3.149-.107,3.672a.011.011,0,0,1,0,.005.722.722,0,0,1-.176.428,23.7,23.7,0,0,0-2.243,3.438c-6.315,11.75-3.013,27.716-3.013,27.716l1.467-.373s5.34-16.551,8.83-23.71a14.983,14.983,0,0,1,1.58-2.706,32.656,32.656,0,0,0,4.06-7.558,197.6,197.6,0,0,0,6.866-20.577C473.983,1253.8,478.069,1243.3,478.069,1243.3Z" transform="translate(-448.719 -1197.365)" fill="#2b478b"/>
        <path id="Trazado_146100" data-name="Trazado 146100" d="M815.716,1081.658c-6.766-1.553-2.443-11.06-2.051-10.893.938-.191,3-1.837,4.838-5.052l.249.216,4.155,3.643s-.961,1.417-1.769,2.8a6.342,6.342,0,0,0-1.083,2.525C820.39,1075.165,817.521,1082.072,815.716,1081.658Z" transform="translate(-762.147 -1049.584)" fill="#ffb27d"/>
        <path id="Trazado_146101" data-name="Trazado 146101" d="M836.128,1132.2a34.092,34.092,0,0,1,1.824,4.381c.635,2.034,2.223,8.5,2.223,8.5s-3.275,3.737-7.831,3.519c0,0-2.45-3.835-1.586-7.3S836.128,1132.2,836.128,1132.2Z" transform="translate(-778.286 -1107.192)" fill="#91cecf"/>
        <path id="Trazado_146102" data-name="Trazado 146102" d="M866.553,1070.979s-.961,1.415-1.769,2.805c-2.584-1.593-2.586-4.792-2.388-6.448Z" transform="translate(-805.793 -1050.99)" fill="#ed985f"/>
        <path id="Trazado_146103" data-name="Trazado 146103" d="M865.552,1024.629s-6.273-3.491-4.039-7.364,2.929-6.932,7.028-4.867,4.019,3.988,3.588,5.462S867.241,1025.437,865.552,1024.629Z" transform="translate(-804.676 -1002.816)" fill="#ffb27d"/>
        <path id="Trazado_146104" data-name="Trazado 146104" d="M868.911,1012.2c-.287-1.72-1.161-1.884-1.77-1.769a5.017,5.017,0,0,0-6.1-2.336,8.541,8.541,0,0,1-4.944,2.97s.728,1.354,3.727,2.193a5.127,5.127,0,0,0,2.959-.236,16.744,16.744,0,0,1-4.257,1.6c3.953.362,7.713-3.252,8.1-3.638a5.625,5.625,0,0,1,.311,2.59c-.26,1.165-1.294,3.275-.663,3.547C866.275,1017.122,869.342,1014.776,868.911,1012.2Z" transform="translate(-800.399 -999.413)" fill="#b5453c"/>
        <path id="Trazado_146105" data-name="Trazado 146105" d="M450.337,1741.152H439.231a6.1,6.1,0,0,1,.314-2.977c.556-1.232,1.426-1.792,1.218-3.283a4,4,0,0,0,3.462,1.324,12.182,12.182,0,0,0,1.927,2.5C446.878,1739.235,450.114,1739.05,450.337,1741.152Z" transform="translate(-439.17 -1629.369)" fill="#233862"/>
        <path id="Trazado_146106" data-name="Trazado 146106" d="M532.6,1113a27.022,27.022,0,0,1-5.486.995c-2.921.319-5.936.536-7.516,1.167a10.015,10.015,0,0,0-2.107,1.15v0a.612.612,0,0,0-.062.047,6.748,6.748,0,0,0-.871.751,4.761,4.761,0,0,0-1.019,1.512c-.579,1.431.188,5.4.679,7.567a1.97,1.97,0,0,1-1.009,2.186q-1.666.861-3.274,1.589l-.169.076c.01-.221.014-.44.014-.653a20.2,20.2,0,0,0-.188-2.741,11.488,11.488,0,0,1-2.186,4.4c-14.905,5.981-25.319,3.381-25.148.4.588-10.344,7.564-19.143,7.564-19.143,13.01-15.129,39.327-19.112,39.327-19.112s1.26-.152,2.781,1.676c2.188,2.633,2.3,3.319,2.3,3.319S536.806,1111.533,532.6,1113Z" transform="translate(-478.235 -1073.39)" fill="#abddda"/>
        <path id="Trazado_146107" data-name="Trazado 146107" d="M755.914,1146.893c-2.92.319-5.936.537-7.515,1.167a30.8,30.8,0,0,1,3.906-16.9S755.275,1143.243,755.914,1146.893Z" transform="translate(-707.036 -1106.288)" fill="#91cecf"/>
        <path id="Trazado_146108" data-name="Trazado 146108" d="M776.536,1117.19s-7.319.723-7.906,5.479,7.017,24.127,8.106,25.881c1.983,3.193,13.657,14.139,13.657,14.139l2.152-1.3s-8.281-14.018-9.563-15.33C780.969,1144,779.014,1118.837,776.536,1117.19Z" transform="translate(-724.59 -1094.185)" fill="#ffb27d"/>
        <path id="Trazado_146109" data-name="Trazado 146109" d="M775.292,1121.9s.752-12.262-8.634-9.3,1.457,24.057,1.457,24.057,5.509-.272,7.462-5.078Z" transform="translate(-719.596 -1089.812)" fill="#abddda"/>
        <path id="Trazado_146110" data-name="Trazado 146110" d="M693.389,1281.351a1.971,1.971,0,0,1-1.009,2.186q-1.666.861-3.274,1.589c-.057-.183-.109-.374-.155-.577a10.069,10.069,0,0,1-.188-2.741c.248-4.579,3.367-8.047,4.966-9.536a4.76,4.76,0,0,0-1.019,1.512C692.13,1275.215,692.9,1279.182,693.389,1281.351Z" transform="translate(-655.404 -1228.55)" fill="#91cecf"/>
        <path id="Trazado_146111" data-name="Trazado 146111" d="M835.284,1084.113s1.146-1.448,1.92-1.4c0,0,3.132,4.384,3.157,6.4C840.361,1089.108,836.455,1083.91,835.284,1084.113Z" transform="translate(-782.368 -1064.311)" fill="#91cecf"/>
        <path id="Trazado_146112" data-name="Trazado 146112" d="M1001.709,1397.5s-1.665.03-2.025-.022a10.611,10.611,0,0,0-1.3-.221,5.548,5.548,0,0,0-1.333.224.982.982,0,0,1-.2.019h-2.762a1.651,1.651,0,0,1-.58-.62c-.131-.211-.149-.714-.447-.88-1.672-.933,2.779-.4,2.779-.4a17.2,17.2,0,0,1,3.053.142A30.544,30.544,0,0,1,1001.709,1397.5Z" transform="translate(-918.746 -1335.27)" fill="#ed985f"/>
        <path id="Trazado_146113" data-name="Trazado 146113" d="M1002.909,1403.327a12.838,12.838,0,0,1,2.156.8l.487.307s.281-.314-.162-.663a2.131,2.131,0,0,1-.9-1.34C1004.469,1401.816,1002.554,1402.355,1002.909,1403.327Z" transform="translate(-927.562 -1341.095)" fill="#ed985f"/>
        <path id="Trazado_146114" data-name="Trazado 146114" d="M931.757,1447.51a6.794,6.794,0,0,0,2.133,1.3c.922.227,1.969,2.867,2.137,3.244s-.88-.168-1.3-.81-.7-.894-.827-.754a4.919,4.919,0,0,0,.771,2.877c.7.978,1.117,1.843.614,1.787s-3.491-.782-4.105-2.6-.164-1.879-1.576-3.746S931.757,1447.51,931.757,1447.51Z" transform="translate(-863.802 -1380.309)" fill="#ffb27d"/>
      </g>
      <g id="Grupo_75066" data-name="Grupo 75066" transform="translate(387.337 371.888)">
        <g id="Grupo_75064" data-name="Grupo 75064" transform="translate(14.489 9.238)">
          <path id="Trazado_146115" data-name="Trazado 146115" d="M1781.9,1727.787a3.836,3.836,0,0,1-3.822,3.822h-18.05a3.822,3.822,0,0,1,0-7.644h18.05A3.833,3.833,0,0,1,1781.9,1727.787Z" transform="translate(-1756.207 -1723.966)" fill="#2b478b"/>
          <path id="Trazado_146116" data-name="Trazado 146116" d="M1772.589,1727.787a3.834,3.834,0,0,1-3.821,3.822h-8.74a3.822,3.822,0,0,1,0-7.644h8.74A3.832,3.832,0,0,1,1772.589,1727.787Z" transform="translate(-1756.207 -1723.966)" fill="#699ff0"/>
          <rect id="Rectángulo_32784" data-name="Rectángulo 32784" width="18.3" height="1.205" rx="0.603" transform="translate(4.418 0.847)" fill="#e9f3fe" opacity="0.4"/>
        </g>
        <g id="Grupo_75065" data-name="Grupo 75065" transform="translate(0)">
          <path id="Trazado_146117" data-name="Trazado 146117" d="M1672.53,1657.045a4.066,4.066,0,0,1-1.807,5.438l-17.108,8.573a4.052,4.052,0,0,1-3.63-7.245l17.108-8.573A4.064,4.064,0,0,1,1672.53,1657.045Z" transform="translate(-1647.75 -1654.812)" fill="#ef7e29"/>
          <path id="Trazado_146118" data-name="Trazado 146118" d="M1663.7,1690.149a4.063,4.063,0,0,1-1.806,5.438l-8.284,4.151a4.052,4.052,0,0,1-3.63-7.245l8.284-4.151A4.063,4.063,0,0,1,1663.7,1690.149Z" transform="translate(-1647.75 -1683.493)" fill="#f99746"/>
          <path id="Trazado_146119" data-name="Trazado 146119" d="M1690.4,1663.685l-16.318,8.178a.576.576,0,0,1-.771-.256l-.058-.116a.576.576,0,0,1,.256-.771l16.318-8.177a.576.576,0,0,1,.771.256l.058.116A.576.576,0,0,1,1690.4,1663.685Z" transform="translate(-1669.794 -1661.457)" fill="#ffe2cc" opacity="0.5"/>
        </g>
      </g>
      <rect id="Rectángulo_32785" data-name="Rectángulo 32785" width="380.067" height="0.953" rx="0.476" transform="translate(193 388.695)" fill="#2e3552"/>
    </g>
  </g>
</svg>
