<svg xmlns="http://www.w3.org/2000/svg" width="820" height="385.93" viewBox="0 0 820 385.93">
  <g id="Grupo_75124" data-name="Grupo 75124" transform="translate(2210.243 12718.741)">
    <path id="Trazado_146269" data-name="Trazado 146269" d="M0,0H165.481V47.576H0Z" transform="translate(-2210.243 -12601.279)" fill="#cdedfc"/>
    <path id="Trazado_146270" data-name="Trazado 146270" d="M6.424-6.972A9.7,9.7,0,0,1,2.562-8.846a3.582,3.582,0,0,1-1.208-2.745,3.783,3.783,0,0,1,1.477-3.056,5.87,5.87,0,0,1,3.84-1.208,6.408,6.408,0,0,1,2.874.623A4.725,4.725,0,0,1,11.5-13.514a4.395,4.395,0,0,1,.693,2.4H10.119a2.86,2.86,0,0,0-.9-2.237,3.669,3.669,0,0,0-2.546-.814,3.757,3.757,0,0,0-2.379.673,2.244,2.244,0,0,0-.854,1.867,2.019,2.019,0,0,0,.811,1.62A7.955,7.955,0,0,0,7.009-8.8a12.81,12.81,0,0,1,3.051,1.21,4.63,4.63,0,0,1,1.633,1.542,3.934,3.934,0,0,1,.532,2.073A3.654,3.654,0,0,1,10.742-.929,6.321,6.321,0,0,1,6.778.215,7.352,7.352,0,0,1,3.771-.4,5.062,5.062,0,0,1,1.617-2.095,4.129,4.129,0,0,1,.859-4.533H2.933A2.694,2.694,0,0,0,3.98-2.293a4.41,4.41,0,0,0,2.8.822,4.054,4.054,0,0,0,2.5-.666,2.163,2.163,0,0,0,.87-1.815,2.124,2.124,0,0,0-.806-1.778A9.289,9.289,0,0,0,6.424-6.972ZM19.379.215a5.078,5.078,0,0,1-3.846-1.552,5.761,5.761,0,0,1-1.482-4.152v-.365a6.975,6.975,0,0,1,.661-3.088,5.154,5.154,0,0,1,1.848-2.127,4.645,4.645,0,0,1,2.573-.768,4.353,4.353,0,0,1,3.523,1.493,6.465,6.465,0,0,1,1.257,4.275v.827H16.038a4.132,4.132,0,0,0,1,2.777,3.157,3.157,0,0,0,2.444,1.058,3.461,3.461,0,0,0,1.783-.43,4.48,4.48,0,0,0,1.278-1.139l1.214.945A4.881,4.881,0,0,1,19.379.215Zm-.247-10.42a2.651,2.651,0,0,0-2.02.875A4.255,4.255,0,0,0,16.1-6.875h5.822v-.15a3.785,3.785,0,0,0-.816-2.347A2.5,2.5,0,0,0,19.132-10.205ZM28.37,0H26.383V-16.5H28.37Zm8,.215a5.078,5.078,0,0,1-3.846-1.552,5.761,5.761,0,0,1-1.482-4.152v-.365a6.975,6.975,0,0,1,.661-3.088,5.154,5.154,0,0,1,1.848-2.127,4.645,4.645,0,0,1,2.573-.768,4.353,4.353,0,0,1,3.523,1.493,6.465,6.465,0,0,1,1.257,4.275v.827H33.032a4.132,4.132,0,0,0,1,2.777A3.157,3.157,0,0,0,36.48-1.407a3.461,3.461,0,0,0,1.783-.43,4.48,4.48,0,0,0,1.278-1.139l1.214.945A4.881,4.881,0,0,1,36.373.215Zm-.247-10.42a2.651,2.651,0,0,0-2.02.875A4.255,4.255,0,0,0,33.1-6.875h5.822v-.15A3.785,3.785,0,0,0,38.1-9.373,2.5,2.5,0,0,0,36.126-10.205Zm11.741,8.8a2.863,2.863,0,0,0,1.858-.645,2.268,2.268,0,0,0,.881-1.611h1.88a3.6,3.6,0,0,1-.687,1.9A4.528,4.528,0,0,1,50.107-.322a4.882,4.882,0,0,1-2.24.537A4.788,4.788,0,0,1,44.091-1.37a6.311,6.311,0,0,1-1.4-4.334v-.333a7,7,0,0,1,.623-3.019A4.745,4.745,0,0,1,45.1-11.107a5.081,5.081,0,0,1,2.755-.73,4.662,4.662,0,0,1,3.25,1.171,4.185,4.185,0,0,1,1.38,3.04h-1.88a2.739,2.739,0,0,0-.854-1.853,2.657,2.657,0,0,0-1.9-.725,2.781,2.781,0,0,0-2.347,1.09,5.121,5.121,0,0,0-.833,3.153v.376A5.019,5.019,0,0,0,45.5-2.492,2.8,2.8,0,0,0,47.867-1.407Zm11.516,0a2.863,2.863,0,0,0,1.858-.645,2.268,2.268,0,0,0,.881-1.611H64a3.6,3.6,0,0,1-.687,1.9A4.528,4.528,0,0,1,61.623-.322a4.882,4.882,0,0,1-2.24.537A4.788,4.788,0,0,1,55.607-1.37a6.311,6.311,0,0,1-1.4-4.334v-.333a7,7,0,0,1,.623-3.019,4.745,4.745,0,0,1,1.789-2.052,5.081,5.081,0,0,1,2.755-.73,4.662,4.662,0,0,1,3.25,1.171A4.185,4.185,0,0,1,64-7.627h-1.88a2.739,2.739,0,0,0-.854-1.853,2.657,2.657,0,0,0-1.9-.725,2.781,2.781,0,0,0-2.347,1.09,5.121,5.121,0,0,0-.833,3.153v.376a5.019,5.019,0,0,0,.827,3.094A2.8,2.8,0,0,0,59.383-1.407ZM68.4,0H66.408V-11.623H68.4ZM66.247-14.706a1.186,1.186,0,0,1,.3-.816,1.109,1.109,0,0,1,.875-.333,1.126,1.126,0,0,1,.881.333,1.174,1.174,0,0,1,.3.816,1.135,1.135,0,0,1-.3.806,1.147,1.147,0,0,1-.881.322,1.129,1.129,0,0,1-.875-.322A1.147,1.147,0,0,1,66.247-14.706Zm4.8,8.787a6.865,6.865,0,0,1,.671-3.072A5.009,5.009,0,0,1,73.589-11.1a5.088,5.088,0,0,1,2.734-.741,4.9,4.9,0,0,1,3.84,1.644A6.323,6.323,0,0,1,81.63-5.822v.14a6.925,6.925,0,0,1-.65,3.045,4.935,4.935,0,0,1-1.858,2.1,5.147,5.147,0,0,1-2.777.752,4.889,4.889,0,0,1-3.83-1.644,6.291,6.291,0,0,1-1.466-4.351Zm2,.236a4.972,4.972,0,0,0,.9,3.1,2.871,2.871,0,0,0,2.4,1.171,2.853,2.853,0,0,0,2.406-1.187,5.437,5.437,0,0,0,.892-3.325,4.964,4.964,0,0,0-.908-3.1,2.886,2.886,0,0,0-2.412-1.187,2.854,2.854,0,0,0-2.374,1.171A5.4,5.4,0,0,0,73.047-5.683Zm4.179-10.8h2.406L76.753-13.32l-1.6-.005ZM86-11.623l.064,1.461a4.236,4.236,0,0,1,3.48-1.676q3.685,0,3.717,4.157V0H91.276V-7.691A2.676,2.676,0,0,0,90.7-9.55a2.3,2.3,0,0,0-1.756-.6,2.868,2.868,0,0,0-1.7.516,3.5,3.5,0,0,0-1.139,1.354V0H84.122V-11.623Z" transform="translate(-2176.871 -12572.396)" fill="#13273e"/>
    <path id="Trazado_146271" data-name="Trazado 146271" d="M0,0H165.481V47.576H0Z" transform="translate(-2061.395 -12546.057)" fill="#cdedfc"/>
    <path id="Trazado_146272" data-name="Trazado 146272" d="M10.452-4.093H3.9L2.428,0H.3L6.273-15.641h1.8L14.062,0H11.945ZM4.522-5.779H9.84L7.176-13.095Zm10.85-.129a6.809,6.809,0,0,1,1.268-4.3,4.008,4.008,0,0,1,3.319-1.627,4.031,4.031,0,0,1,3.233,1.4V-16.5H25.18V0H23.354l-.1-1.246A4.047,4.047,0,0,1,19.938.215a3.97,3.97,0,0,1-3.292-1.654,6.886,6.886,0,0,1-1.273-4.318Zm1.987.226a5.155,5.155,0,0,0,.816,3.094,2.639,2.639,0,0,0,2.256,1.117,2.9,2.9,0,0,0,2.761-1.7V-8.508a2.921,2.921,0,0,0-2.739-1.644,2.652,2.652,0,0,0-2.277,1.128A5.676,5.676,0,0,0,17.359-5.683Zm10.42-.226a6.822,6.822,0,0,1,1.257-4.334,4.073,4.073,0,0,1,3.373-1.6,4.07,4.07,0,0,1,3.255,1.386l.086-1.171h1.826V4.469H35.589V-1.074a4.171,4.171,0,0,1-3.2,1.289,4.008,4.008,0,0,1-3.357-1.638,6.974,6.974,0,0,1-1.251-4.345Zm1.987.226a5.172,5.172,0,0,0,.843,3.137,2.682,2.682,0,0,0,2.272,1.139,2.976,2.976,0,0,0,2.707-1.568V-8.669A2.985,2.985,0,0,0,32.9-10.205a2.7,2.7,0,0,0-2.288,1.144A5.63,5.63,0,0,0,29.767-5.683ZM47.942-1.149A4.221,4.221,0,0,1,44.537.215a3.613,3.613,0,0,1-2.831-1.08,4.673,4.673,0,0,1-.983-3.2v-7.562h1.987v7.509q0,2.643,2.148,2.643a2.975,2.975,0,0,0,3.029-1.7v-8.454h1.987V0H47.985ZM55.054,0H53.066V-11.623h1.987ZM52.905-14.706a1.186,1.186,0,0,1,.3-.816,1.109,1.109,0,0,1,.875-.333,1.126,1.126,0,0,1,.881.333,1.174,1.174,0,0,1,.3.816,1.135,1.135,0,0,1-.3.806,1.147,1.147,0,0,1-.881.322A1.129,1.129,0,0,1,53.2-13.9,1.147,1.147,0,0,1,52.905-14.706ZM65-3.083a1.463,1.463,0,0,0-.607-1.251A5.842,5.842,0,0,0,62.278-5.1a10.005,10.005,0,0,1-2.4-.773A3.408,3.408,0,0,1,58.572-6.95a2.57,2.57,0,0,1-.424-1.482,3.015,3.015,0,0,1,1.208-2.417,4.72,4.72,0,0,1,3.088-.988,4.857,4.857,0,0,1,3.207,1.021,3.241,3.241,0,0,1,1.23,2.61h-2a1.794,1.794,0,0,0-.693-1.407,2.6,2.6,0,0,0-1.746-.591,2.717,2.717,0,0,0-1.7.473A1.488,1.488,0,0,0,60.135-8.5,1.205,1.205,0,0,0,60.7-7.412a7,7,0,0,0,2.057.7,10.719,10.719,0,0,1,2.412.795,3.518,3.518,0,0,1,1.37,1.112,2.734,2.734,0,0,1,.446,1.584,2.975,2.975,0,0,1-1.246,2.5,5.227,5.227,0,0,1-3.233.94,5.853,5.853,0,0,1-2.471-.494,4.018,4.018,0,0,1-1.681-1.38,3.327,3.327,0,0,1-.607-1.917h1.987a2.058,2.058,0,0,0,.8,1.584,3.1,3.1,0,0,0,1.971.585,3.2,3.2,0,0,0,1.81-.457A1.4,1.4,0,0,0,65-3.083ZM71.736,0H69.749V-11.623h1.987ZM69.588-14.706a1.186,1.186,0,0,1,.3-.816,1.109,1.109,0,0,1,.875-.333,1.126,1.126,0,0,1,.881.333,1.174,1.174,0,0,1,.3.816,1.135,1.135,0,0,1-.3.806,1.147,1.147,0,0,1-.881.322,1.129,1.129,0,0,1-.875-.322A1.147,1.147,0,0,1,69.588-14.706Zm9.99,13.3a2.863,2.863,0,0,0,1.858-.645,2.268,2.268,0,0,0,.881-1.611H84.2a3.6,3.6,0,0,1-.687,1.9A4.528,4.528,0,0,1,81.818-.322a4.882,4.882,0,0,1-2.24.537A4.788,4.788,0,0,1,75.8-1.37,6.311,6.311,0,0,1,74.4-5.7v-.333a7,7,0,0,1,.623-3.019,4.745,4.745,0,0,1,1.789-2.052,5.081,5.081,0,0,1,2.755-.73,4.662,4.662,0,0,1,3.25,1.171,4.185,4.185,0,0,1,1.38,3.04h-1.88a2.739,2.739,0,0,0-.854-1.853,2.657,2.657,0,0,0-1.9-.725,2.781,2.781,0,0,0-2.347,1.09,5.121,5.121,0,0,0-.833,3.153v.376a5.019,5.019,0,0,0,.827,3.094A2.8,2.8,0,0,0,79.578-1.407ZM88.591,0H86.6V-11.623h1.987ZM86.442-14.706a1.186,1.186,0,0,1,.3-.816,1.109,1.109,0,0,1,.875-.333,1.126,1.126,0,0,1,.881.333,1.174,1.174,0,0,1,.3.816,1.135,1.135,0,0,1-.3.806,1.147,1.147,0,0,1-.881.322,1.129,1.129,0,0,1-.875-.322A1.147,1.147,0,0,1,86.442-14.706Zm4.8,8.787a6.865,6.865,0,0,1,.671-3.072A5.009,5.009,0,0,1,93.785-11.1a5.088,5.088,0,0,1,2.734-.741,4.9,4.9,0,0,1,3.84,1.644,6.323,6.323,0,0,1,1.466,4.372v.14a6.925,6.925,0,0,1-.65,3.045,4.935,4.935,0,0,1-1.858,2.1A5.147,5.147,0,0,1,96.54.215a4.889,4.889,0,0,1-3.83-1.644,6.291,6.291,0,0,1-1.466-4.351Zm2,.236a4.972,4.972,0,0,0,.9,3.1,2.871,2.871,0,0,0,2.4,1.171,2.853,2.853,0,0,0,2.406-1.187,5.437,5.437,0,0,0,.892-3.325,4.964,4.964,0,0,0-.908-3.1,2.886,2.886,0,0,0-2.412-1.187,2.854,2.854,0,0,0-2.374,1.171A5.4,5.4,0,0,0,93.242-5.683Zm4.179-10.8h2.406L96.948-13.32l-1.6-.005Zm8.776,4.855.064,1.461a4.236,4.236,0,0,1,3.48-1.676q3.685,0,3.717,4.157V0h-1.987V-7.691A2.676,2.676,0,0,0,110.9-9.55a2.3,2.3,0,0,0-1.756-.6,2.868,2.868,0,0,0-1.7.516A3.5,3.5,0,0,0,106.3-8.282V0h-1.987V-11.623Z" transform="translate(-2038.595 -12517.174)" fill="#13273e"/>
    <path id="Trazado_146273" data-name="Trazado 146273" d="M0,0H165.481V47.576H0Z" transform="translate(-1904.589 -12490.834)" fill="#cdedfc"/>
    <path id="Trazado_146274" data-name="Trazado 146274" d="M7.552-6.327H3.878V0H1.8V-15.641H6.982a6.128,6.128,0,0,1,4.066,1.2,4.329,4.329,0,0,1,1.423,3.5,4.211,4.211,0,0,1-.79,2.546,4.713,4.713,0,0,1-2.2,1.622L13.159-.129V0H10.946ZM3.878-8.014H7.047a3.574,3.574,0,0,0,2.444-.8,2.693,2.693,0,0,0,.908-2.131,2.836,2.836,0,0,0-.865-2.228,3.662,3.662,0,0,0-2.5-.786H3.878Zm16,8.229a5.078,5.078,0,0,1-3.846-1.552,5.761,5.761,0,0,1-1.482-4.152v-.365a6.975,6.975,0,0,1,.661-3.088,5.154,5.154,0,0,1,1.848-2.127,4.645,4.645,0,0,1,2.573-.768,4.353,4.353,0,0,1,3.523,1.493,6.465,6.465,0,0,1,1.257,4.275v.827H16.532a4.132,4.132,0,0,0,1,2.777A3.157,3.157,0,0,0,19.98-1.407a3.461,3.461,0,0,0,1.783-.43,4.48,4.48,0,0,0,1.278-1.139l1.214.945A4.881,4.881,0,0,1,19.873.215Zm-.247-10.42a2.651,2.651,0,0,0-2.02.875A4.255,4.255,0,0,0,16.6-6.875h5.822v-.15A3.785,3.785,0,0,0,21.6-9.373,2.5,2.5,0,0,0,19.626-10.205Zm11.741,8.8a2.863,2.863,0,0,0,1.858-.645,2.268,2.268,0,0,0,.881-1.611h1.88a3.6,3.6,0,0,1-.687,1.9A4.528,4.528,0,0,1,33.607-.322a4.882,4.882,0,0,1-2.24.537A4.788,4.788,0,0,1,27.591-1.37a6.311,6.311,0,0,1-1.4-4.334v-.333a7,7,0,0,1,.623-3.019A4.745,4.745,0,0,1,28.6-11.107a5.081,5.081,0,0,1,2.755-.73,4.662,4.662,0,0,1,3.25,1.171,4.185,4.185,0,0,1,1.38,3.04h-1.88a2.739,2.739,0,0,0-.854-1.853,2.657,2.657,0,0,0-1.9-.725,2.781,2.781,0,0,0-2.347,1.09,5.121,5.121,0,0,0-.833,3.153v.376A5.019,5.019,0,0,0,29-2.492,2.8,2.8,0,0,0,31.367-1.407ZM43.044.215A5.078,5.078,0,0,1,39.2-1.337a5.761,5.761,0,0,1-1.482-4.152v-.365a6.975,6.975,0,0,1,.661-3.088,5.154,5.154,0,0,1,1.848-2.127,4.645,4.645,0,0,1,2.573-.768,4.353,4.353,0,0,1,3.523,1.493,6.465,6.465,0,0,1,1.257,4.275v.827H39.7a4.132,4.132,0,0,0,1,2.777,3.157,3.157,0,0,0,2.444,1.058,3.461,3.461,0,0,0,1.783-.43,4.48,4.48,0,0,0,1.278-1.139l1.214.945A4.881,4.881,0,0,1,43.044.215ZM42.8-10.205a2.651,2.651,0,0,0-2.02.875,4.255,4.255,0,0,0-1.01,2.455H45.59v-.15a3.785,3.785,0,0,0-.816-2.347A2.5,2.5,0,0,0,42.8-10.205Zm16.9,4.522A6.96,6.96,0,0,1,58.48-1.407,3.89,3.89,0,0,1,55.193.215a4.263,4.263,0,0,1-3.33-1.343v5.6H49.876V-11.623h1.815l.1,1.289a4.094,4.094,0,0,1,3.373-1.5,3.963,3.963,0,0,1,3.314,1.579,7.036,7.036,0,0,1,1.219,4.394Zm-1.987-.226a5.135,5.135,0,0,0-.838-3.1,2.7,2.7,0,0,0-2.3-1.139,2.921,2.921,0,0,0-2.707,1.6V-3a2.927,2.927,0,0,0,2.729,1.59,2.686,2.686,0,0,0,2.272-1.133A5.606,5.606,0,0,0,57.707-5.908Zm9.174,4.5a2.863,2.863,0,0,0,1.858-.645,2.268,2.268,0,0,0,.881-1.611H71.5a3.6,3.6,0,0,1-.687,1.9A4.528,4.528,0,0,1,69.121-.322a4.882,4.882,0,0,1-2.24.537A4.788,4.788,0,0,1,63.1-1.37,6.311,6.311,0,0,1,61.7-5.7v-.333a7,7,0,0,1,.623-3.019,4.745,4.745,0,0,1,1.789-2.052,5.081,5.081,0,0,1,2.755-.73,4.662,4.662,0,0,1,3.25,1.171,4.185,4.185,0,0,1,1.38,3.04H69.62a2.739,2.739,0,0,0-.854-1.853,2.657,2.657,0,0,0-1.9-.725,2.781,2.781,0,0,0-2.347,1.09,5.121,5.121,0,0,0-.833,3.153v.376a5.019,5.019,0,0,0,.827,3.094A2.8,2.8,0,0,0,66.881-1.407ZM75.894,0H73.906V-11.623h1.987ZM73.745-14.706a1.186,1.186,0,0,1,.3-.816,1.109,1.109,0,0,1,.875-.333,1.126,1.126,0,0,1,.881.333,1.174,1.174,0,0,1,.3.816,1.135,1.135,0,0,1-.3.806,1.147,1.147,0,0,1-.881.322,1.129,1.129,0,0,1-.875-.322A1.147,1.147,0,0,1,73.745-14.706Zm4.8,8.787a6.865,6.865,0,0,1,.671-3.072A5.009,5.009,0,0,1,81.087-11.1a5.088,5.088,0,0,1,2.734-.741,4.9,4.9,0,0,1,3.84,1.644,6.323,6.323,0,0,1,1.466,4.372v.14a6.925,6.925,0,0,1-.65,3.045,4.935,4.935,0,0,1-1.858,2.1,5.147,5.147,0,0,1-2.777.752,4.889,4.889,0,0,1-3.83-1.644,6.291,6.291,0,0,1-1.466-4.351Zm2,.236a4.972,4.972,0,0,0,.9,3.1,2.871,2.871,0,0,0,2.4,1.171,2.853,2.853,0,0,0,2.406-1.187,5.437,5.437,0,0,0,.892-3.325,4.964,4.964,0,0,0-.908-3.1,2.886,2.886,0,0,0-2.412-1.187,2.854,2.854,0,0,0-2.374,1.171A5.4,5.4,0,0,0,80.545-5.683Zm4.179-10.8H87.13L84.251-13.32l-1.6-.005ZM93.5-11.623l.064,1.461a4.236,4.236,0,0,1,3.48-1.676q3.685,0,3.717,4.157V0H98.774V-7.691A2.676,2.676,0,0,0,98.2-9.55a2.3,2.3,0,0,0-1.756-.6,2.868,2.868,0,0,0-1.7.516,3.5,3.5,0,0,0-1.139,1.354V0H91.62V-11.623Z" transform="translate(-1875.094 -12461.951)" fill="#13273e"/>
    <path id="Trazado_146275" data-name="Trazado 146275" d="M0,0H252.382V47.576H0Z" transform="translate(-1855.957 -12716.81) rotate(20.59)" fill="none" stroke="#7e5ee3" stroke-width="3"/>
    <path id="Trazado_146276" data-name="Trazado 146276" d="M3.878-6.123V0H1.815V-15.641H7.584a5.8,5.8,0,0,1,4.023,1.311,4.443,4.443,0,0,1,1.456,3.47,4.384,4.384,0,0,1-1.423,3.507,6.054,6.054,0,0,1-4.077,1.23Zm0-1.687H7.584a3.705,3.705,0,0,0,2.535-.78A2.853,2.853,0,0,0,11-10.844a2.947,2.947,0,0,0-.881-2.238A3.471,3.471,0,0,0,7.7-13.954H3.878ZM21-9.84a5.955,5.955,0,0,0-.978-.075A2.619,2.619,0,0,0,17.37-8.25V0H15.383V-11.623h1.934l.032,1.343a3.094,3.094,0,0,1,2.771-1.558,2.03,2.03,0,0,1,.881.15Zm1.085,3.921a6.865,6.865,0,0,1,.671-3.072A5.008,5.008,0,0,1,24.626-11.1a5.088,5.088,0,0,1,2.734-.741,4.9,4.9,0,0,1,3.84,1.644,6.323,6.323,0,0,1,1.466,4.372v.14a6.925,6.925,0,0,1-.65,3.045,4.935,4.935,0,0,1-1.858,2.1,5.146,5.146,0,0,1-2.777.752,4.889,4.889,0,0,1-3.83-1.644,6.291,6.291,0,0,1-1.466-4.351Zm2,.236a4.972,4.972,0,0,0,.9,3.1,2.871,2.871,0,0,0,2.4,1.171,2.853,2.853,0,0,0,2.406-1.187,5.437,5.437,0,0,0,.892-3.325,4.964,4.964,0,0,0-.908-3.1,2.886,2.886,0,0,0-2.412-1.187,2.854,2.854,0,0,0-2.374,1.171A5.4,5.4,0,0,0,24.084-5.683ZM39.821-1.407a2.863,2.863,0,0,0,1.858-.645,2.268,2.268,0,0,0,.881-1.611h1.88a3.6,3.6,0,0,1-.687,1.9A4.528,4.528,0,0,1,42.061-.322a4.882,4.882,0,0,1-2.24.537A4.788,4.788,0,0,1,36.045-1.37a6.311,6.311,0,0,1-1.4-4.334v-.333a7,7,0,0,1,.623-3.019,4.745,4.745,0,0,1,1.789-2.052,5.081,5.081,0,0,1,2.755-.73,4.662,4.662,0,0,1,3.25,1.171,4.185,4.185,0,0,1,1.38,3.04h-1.88a2.739,2.739,0,0,0-.854-1.853,2.657,2.657,0,0,0-1.9-.725,2.781,2.781,0,0,0-2.347,1.09,5.121,5.121,0,0,0-.833,3.153v.376a5.019,5.019,0,0,0,.827,3.094A2.8,2.8,0,0,0,39.821-1.407ZM51.5.215a5.078,5.078,0,0,1-3.846-1.552A5.761,5.761,0,0,1,46.17-5.489v-.365a6.975,6.975,0,0,1,.661-3.088,5.154,5.154,0,0,1,1.848-2.127,4.645,4.645,0,0,1,2.573-.768,4.353,4.353,0,0,1,3.523,1.493,6.465,6.465,0,0,1,1.257,4.275v.827H48.157a4.132,4.132,0,0,0,1,2.777,3.157,3.157,0,0,0,2.444,1.058,3.461,3.461,0,0,0,1.783-.43,4.48,4.48,0,0,0,1.278-1.139l1.214.945A4.881,4.881,0,0,1,51.5.215Zm-.247-10.42a2.651,2.651,0,0,0-2.02.875,4.255,4.255,0,0,0-1.01,2.455h5.822v-.15a3.785,3.785,0,0,0-.816-2.347A2.5,2.5,0,0,0,51.251-10.205ZM65.1-3.083a1.463,1.463,0,0,0-.607-1.251A5.842,5.842,0,0,0,62.375-5.1a10.005,10.005,0,0,1-2.4-.773A3.408,3.408,0,0,1,58.668-6.95a2.57,2.57,0,0,1-.424-1.482,3.015,3.015,0,0,1,1.208-2.417,4.72,4.72,0,0,1,3.088-.988,4.857,4.857,0,0,1,3.207,1.021,3.241,3.241,0,0,1,1.23,2.61h-2a1.794,1.794,0,0,0-.693-1.407,2.6,2.6,0,0,0-1.746-.591,2.717,2.717,0,0,0-1.7.473A1.488,1.488,0,0,0,60.231-8.5,1.205,1.205,0,0,0,60.8-7.412a7,7,0,0,0,2.057.7,10.719,10.719,0,0,1,2.412.795,3.518,3.518,0,0,1,1.37,1.112,2.734,2.734,0,0,1,.446,1.584,2.975,2.975,0,0,1-1.246,2.5,5.227,5.227,0,0,1-3.233.94,5.853,5.853,0,0,1-2.471-.494,4.018,4.018,0,0,1-1.681-1.38,3.327,3.327,0,0,1-.607-1.917h1.987a2.058,2.058,0,0,0,.8,1.584,3.1,3.1,0,0,0,1.971.585,3.2,3.2,0,0,0,1.81-.457A1.4,1.4,0,0,0,65.1-3.083Zm4.05-2.836a6.865,6.865,0,0,1,.671-3.072A5.009,5.009,0,0,1,71.688-11.1a5.088,5.088,0,0,1,2.734-.741,4.9,4.9,0,0,1,3.84,1.644,6.323,6.323,0,0,1,1.466,4.372v.14a6.925,6.925,0,0,1-.65,3.045,4.935,4.935,0,0,1-1.858,2.1,5.147,5.147,0,0,1-2.777.752,4.889,4.889,0,0,1-3.83-1.644,6.291,6.291,0,0,1-1.466-4.351Zm2,.236a4.972,4.972,0,0,0,.9,3.1,2.871,2.871,0,0,0,2.4,1.171A2.853,2.853,0,0,0,76.85-2.594a5.437,5.437,0,0,0,.892-3.325,4.964,4.964,0,0,0-.908-3.1,2.886,2.886,0,0,0-2.412-1.187,2.854,2.854,0,0,0-2.374,1.171A5.4,5.4,0,0,0,71.146-5.683Zm17.843,2.6a1.463,1.463,0,0,0-.607-1.251A5.842,5.842,0,0,0,86.265-5.1a10.005,10.005,0,0,1-2.4-.773A3.408,3.408,0,0,1,82.559-6.95a2.57,2.57,0,0,1-.424-1.482,3.015,3.015,0,0,1,1.208-2.417,4.72,4.72,0,0,1,3.088-.988,4.857,4.857,0,0,1,3.207,1.021,3.241,3.241,0,0,1,1.23,2.61h-2a1.794,1.794,0,0,0-.693-1.407,2.6,2.6,0,0,0-1.746-.591,2.717,2.717,0,0,0-1.7.473A1.488,1.488,0,0,0,84.122-8.5a1.205,1.205,0,0,0,.569,1.085,7,7,0,0,0,2.057.7,10.719,10.719,0,0,1,2.412.795,3.518,3.518,0,0,1,1.37,1.112,2.734,2.734,0,0,1,.446,1.584,2.975,2.975,0,0,1-1.246,2.5A5.227,5.227,0,0,1,86.5.215a5.853,5.853,0,0,1-2.471-.494,4.018,4.018,0,0,1-1.681-1.38,3.327,3.327,0,0,1-.607-1.917h1.987a2.058,2.058,0,0,0,.8,1.584,3.1,3.1,0,0,0,1.971.585,3.2,3.2,0,0,0,1.81-.457A1.4,1.4,0,0,0,88.988-3.083ZM110.87-2.052a4.764,4.764,0,0,1-2.218,1.7,8.96,8.96,0,0,1-3.314.564,6.427,6.427,0,0,1-3.395-.9A5.976,5.976,0,0,1,99.65-3.233a8.812,8.812,0,0,1-.833-3.835V-8.433a8.226,8.226,0,0,1,1.649-5.479,5.746,5.746,0,0,1,4.635-1.944,5.935,5.935,0,0,1,3.942,1.251,5.452,5.452,0,0,1,1.826,3.55h-2.062a3.41,3.41,0,0,0-3.7-3.115,3.651,3.651,0,0,0-3.142,1.457,7.113,7.113,0,0,0-1.08,4.22v1.279a6.666,6.666,0,0,0,1.2,4.188,3.9,3.9,0,0,0,3.255,1.554,7.189,7.189,0,0,0,2.03-.257,3.14,3.14,0,0,0,1.439-.868V-6.1H105.2V-7.788h5.672ZM118.819.215a5.078,5.078,0,0,1-3.846-1.552,5.761,5.761,0,0,1-1.482-4.152v-.365a6.975,6.975,0,0,1,.661-3.088A5.154,5.154,0,0,1,116-11.07a4.645,4.645,0,0,1,2.573-.768,4.353,4.353,0,0,1,3.523,1.493,6.465,6.465,0,0,1,1.257,4.275v.827h-7.874a4.132,4.132,0,0,0,1,2.777,3.157,3.157,0,0,0,2.444,1.058,3.461,3.461,0,0,0,1.783-.43,4.48,4.48,0,0,0,1.278-1.139l1.214.945A4.881,4.881,0,0,1,118.819.215Zm-.247-10.42a2.651,2.651,0,0,0-2.02.875,4.255,4.255,0,0,0-1.01,2.455h5.822v-.15a3.785,3.785,0,0,0-.816-2.347A2.5,2.5,0,0,0,118.572-10.205Zm8.959-1.418.064,1.461a4.236,4.236,0,0,1,3.48-1.676q3.685,0,3.717,4.157V0h-1.987V-7.691a2.676,2.676,0,0,0-.575-1.858,2.3,2.3,0,0,0-1.756-.6,2.868,2.868,0,0,0-1.7.516,3.5,3.5,0,0,0-1.139,1.354V0h-1.987V-11.623ZM142.613.215a5.078,5.078,0,0,1-3.846-1.552,5.761,5.761,0,0,1-1.482-4.152v-.365a6.975,6.975,0,0,1,.661-3.088,5.154,5.154,0,0,1,1.848-2.127,4.645,4.645,0,0,1,2.573-.768,4.353,4.353,0,0,1,3.523,1.493,6.465,6.465,0,0,1,1.257,4.275v.827h-7.874a4.132,4.132,0,0,0,1,2.777,3.157,3.157,0,0,0,2.444,1.058,3.461,3.461,0,0,0,1.783-.43,4.48,4.48,0,0,0,1.278-1.139L147-2.03A4.881,4.881,0,0,1,142.613.215Zm-.247-10.42a2.651,2.651,0,0,0-2.02.875,4.255,4.255,0,0,0-1.01,2.455h5.822v-.15a3.785,3.785,0,0,0-.816-2.347A2.5,2.5,0,0,0,142.366-10.205Zm12.7.365a5.955,5.955,0,0,0-.978-.075,2.619,2.619,0,0,0-2.653,1.665V0h-1.987V-11.623h1.934l.032,1.343a3.094,3.094,0,0,1,2.771-1.558,2.03,2.03,0,0,1,.881.15ZM163.636,0a4.175,4.175,0,0,1-.279-1.225A4.434,4.434,0,0,1,160.048.215a4.1,4.1,0,0,1-2.82-.972,3.145,3.145,0,0,1-1.1-2.465,3.286,3.286,0,0,1,1.38-2.82,6.508,6.508,0,0,1,3.883-1h1.934V-7.96a2.232,2.232,0,0,0-.623-1.66,2.5,2.5,0,0,0-1.837-.618,2.9,2.9,0,0,0-1.783.537,1.583,1.583,0,0,0-.72,1.3h-2a2.743,2.743,0,0,1,.618-1.681,4.216,4.216,0,0,1,1.676-1.284,5.638,5.638,0,0,1,2.326-.473,4.6,4.6,0,0,1,3.147,1,3.623,3.623,0,0,1,1.182,2.766v5.35a6.54,6.54,0,0,0,.408,2.546V0Zm-3.3-1.515A3.493,3.493,0,0,0,162.11-2a2.924,2.924,0,0,0,1.214-1.257V-5.64h-1.558q-3.652,0-3.652,2.138a1.809,1.809,0,0,0,.623,1.461A2.4,2.4,0,0,0,160.338-1.515ZM170.586,0H168.6V-16.5h1.987Zm8,.215a5.078,5.078,0,0,1-3.846-1.552,5.761,5.761,0,0,1-1.482-4.152v-.365a6.975,6.975,0,0,1,.661-3.088,5.154,5.154,0,0,1,1.848-2.127,4.645,4.645,0,0,1,2.573-.768,4.353,4.353,0,0,1,3.523,1.493,6.465,6.465,0,0,1,1.257,4.275v.827h-7.874a4.132,4.132,0,0,0,1,2.777A3.157,3.157,0,0,0,178.7-1.407a3.461,3.461,0,0,0,1.783-.43,4.48,4.48,0,0,0,1.278-1.139l1.214.945A4.881,4.881,0,0,1,178.589.215Zm-.247-10.42a2.651,2.651,0,0,0-2.02.875,4.255,4.255,0,0,0-1.01,2.455h5.822v-.15a3.785,3.785,0,0,0-.816-2.347A2.5,2.5,0,0,0,178.342-10.205Zm13.847,7.122a1.463,1.463,0,0,0-.607-1.251,5.842,5.842,0,0,0-2.116-.768,10.005,10.005,0,0,1-2.4-.773,3.408,3.408,0,0,1-1.311-1.074,2.57,2.57,0,0,1-.424-1.482,3.015,3.015,0,0,1,1.208-2.417,4.72,4.72,0,0,1,3.088-.988,4.857,4.857,0,0,1,3.207,1.021,3.241,3.241,0,0,1,1.23,2.61h-2a1.794,1.794,0,0,0-.693-1.407,2.6,2.6,0,0,0-1.746-.591,2.717,2.717,0,0,0-1.7.473,1.488,1.488,0,0,0-.612,1.235,1.205,1.205,0,0,0,.569,1.085,7,7,0,0,0,2.057.7,10.719,10.719,0,0,1,2.412.795,3.518,3.518,0,0,1,1.37,1.112,2.734,2.734,0,0,1,.446,1.584,2.975,2.975,0,0,1-1.246,2.5,5.227,5.227,0,0,1-3.233.94,5.853,5.853,0,0,1-2.471-.494,4.018,4.018,0,0,1-1.681-1.38,3.327,3.327,0,0,1-.607-1.917h1.987a2.058,2.058,0,0,0,.8,1.584,3.1,3.1,0,0,0,1.971.585,3.2,3.2,0,0,0,1.81-.457A1.4,1.4,0,0,0,192.188-3.083Z" transform="matrix(0.936, 0.352, -0.352, 0.936, -1838.512, -12679.398)" fill="#13273e"/>
    <path id="Trazado_146277" data-name="Trazado 146277" d="M0,0H228.035V47.576H0Z" transform="translate(-1785.443 -12435.611)" fill="#cdedfc"/>
    <path id="Trazado_146278" data-name="Trazado 146278" d="M10.452-4.093H3.9L2.428,0H.3L6.273-15.641h1.8L14.062,0H11.945ZM4.522-5.779H9.84L7.176-13.095ZM18.015,0H16.027V-16.5h1.987Zm5.049-11.623.054,1.289a4.292,4.292,0,0,1,3.448-1.5,3.323,3.323,0,0,1,3.319,1.869,4.4,4.4,0,0,1,1.509-1.354,4.458,4.458,0,0,1,2.2-.516q3.824,0,3.889,4.05V0H35.492V-7.67a2.669,2.669,0,0,0-.569-1.864,2.507,2.507,0,0,0-1.912-.618,2.635,2.635,0,0,0-1.837.661,2.68,2.68,0,0,0-.849,1.778V0h-2V-7.616a2.217,2.217,0,0,0-2.481-2.535,2.659,2.659,0,0,0-2.675,1.665V0H21.184V-11.623ZM47.652,0a4.175,4.175,0,0,1-.279-1.225A4.434,4.434,0,0,1,44.064.215a4.1,4.1,0,0,1-2.82-.972,3.145,3.145,0,0,1-1.1-2.465,3.286,3.286,0,0,1,1.38-2.82,6.508,6.508,0,0,1,3.883-1h1.934V-7.96a2.232,2.232,0,0,0-.623-1.66,2.5,2.5,0,0,0-1.837-.618A2.9,2.9,0,0,0,43.1-9.7a1.583,1.583,0,0,0-.72,1.3h-2A2.743,2.743,0,0,1,41-10.082a4.216,4.216,0,0,1,1.676-1.284A5.638,5.638,0,0,1,45-11.838a4.6,4.6,0,0,1,3.147,1,3.623,3.623,0,0,1,1.182,2.766v5.35a6.54,6.54,0,0,0,.408,2.546V0Zm-3.3-1.515A3.493,3.493,0,0,0,46.127-2a2.924,2.924,0,0,0,1.214-1.257V-5.64H45.783q-3.652,0-3.652,2.138a1.809,1.809,0,0,0,.623,1.461A2.4,2.4,0,0,0,44.354-1.515Zm12.751.107a2.863,2.863,0,0,0,1.858-.645,2.268,2.268,0,0,0,.881-1.611h1.88a3.6,3.6,0,0,1-.687,1.9A4.528,4.528,0,0,1,59.345-.322a4.882,4.882,0,0,1-2.24.537A4.788,4.788,0,0,1,53.33-1.37a6.311,6.311,0,0,1-1.4-4.334v-.333a7,7,0,0,1,.623-3.019,4.745,4.745,0,0,1,1.789-2.052,5.081,5.081,0,0,1,2.755-.73,4.662,4.662,0,0,1,3.25,1.171,4.185,4.185,0,0,1,1.38,3.04h-1.88a2.739,2.739,0,0,0-.854-1.853,2.657,2.657,0,0,0-1.9-.725,2.781,2.781,0,0,0-2.347,1.09,5.121,5.121,0,0,0-.833,3.153v.376a5.019,5.019,0,0,0,.827,3.094A2.8,2.8,0,0,0,57.105-1.407ZM68.782.215a5.078,5.078,0,0,1-3.846-1.552,5.761,5.761,0,0,1-1.482-4.152v-.365a6.975,6.975,0,0,1,.661-3.088,5.154,5.154,0,0,1,1.848-2.127,4.645,4.645,0,0,1,2.573-.768,4.353,4.353,0,0,1,3.523,1.493,6.465,6.465,0,0,1,1.257,4.275v.827H65.441a4.132,4.132,0,0,0,1,2.777A3.157,3.157,0,0,0,68.89-1.407a3.461,3.461,0,0,0,1.783-.43,4.48,4.48,0,0,0,1.278-1.139l1.214.945A4.881,4.881,0,0,1,68.782.215Zm-.247-10.42a2.651,2.651,0,0,0-2.02.875,4.255,4.255,0,0,0-1.01,2.455h5.822v-.15a3.785,3.785,0,0,0-.816-2.347A2.5,2.5,0,0,0,68.535-10.205Zm8.959-1.418.064,1.461a4.236,4.236,0,0,1,3.48-1.676q3.685,0,3.717,4.157V0H82.769V-7.691a2.676,2.676,0,0,0-.575-1.858,2.3,2.3,0,0,0-1.756-.6,2.868,2.868,0,0,0-1.7.516A3.5,3.5,0,0,0,77.6-8.282V0H75.614V-11.623ZM94.929,0a4.175,4.175,0,0,1-.279-1.225A4.434,4.434,0,0,1,91.341.215a4.1,4.1,0,0,1-2.82-.972,3.145,3.145,0,0,1-1.1-2.465,3.286,3.286,0,0,1,1.38-2.82,6.508,6.508,0,0,1,3.883-1h1.934V-7.96a2.232,2.232,0,0,0-.623-1.66,2.5,2.5,0,0,0-1.837-.618,2.9,2.9,0,0,0-1.783.537,1.583,1.583,0,0,0-.72,1.3h-2a2.743,2.743,0,0,1,.618-1.681,4.216,4.216,0,0,1,1.676-1.284,5.638,5.638,0,0,1,2.326-.473,4.6,4.6,0,0,1,3.147,1A3.623,3.623,0,0,1,96.6-8.067v5.35a6.54,6.54,0,0,0,.408,2.546V0Zm-3.3-1.515A3.493,3.493,0,0,0,93.4-2a2.924,2.924,0,0,0,1.214-1.257V-5.64H93.06q-3.652,0-3.652,2.138a1.809,1.809,0,0,0,.623,1.461A2.4,2.4,0,0,0,91.631-1.515Zm9.958-10.108.054,1.289a4.292,4.292,0,0,1,3.448-1.5,3.323,3.323,0,0,1,3.319,1.869,4.4,4.4,0,0,1,1.509-1.354,4.458,4.458,0,0,1,2.2-.516q3.824,0,3.889,4.05V0h-1.987V-7.67a2.669,2.669,0,0,0-.569-1.864,2.507,2.507,0,0,0-1.912-.618,2.635,2.635,0,0,0-1.837.661,2.68,2.68,0,0,0-.849,1.778V0h-2V-7.616a2.217,2.217,0,0,0-2.481-2.535A2.659,2.659,0,0,0,101.7-8.486V0H99.709V-11.623ZM121.161,0h-1.987V-11.623h1.987Zm-2.148-14.706a1.186,1.186,0,0,1,.3-.816,1.109,1.109,0,0,1,.875-.333,1.126,1.126,0,0,1,.881.333,1.174,1.174,0,0,1,.3.816,1.135,1.135,0,0,1-.3.806,1.147,1.147,0,0,1-.881.322,1.129,1.129,0,0,1-.875-.322A1.147,1.147,0,0,1,119.013-14.706ZM129.164.215a5.078,5.078,0,0,1-3.846-1.552,5.761,5.761,0,0,1-1.482-4.152v-.365a6.975,6.975,0,0,1,.661-3.088,5.154,5.154,0,0,1,1.848-2.127,4.645,4.645,0,0,1,2.573-.768,4.353,4.353,0,0,1,3.523,1.493A6.465,6.465,0,0,1,133.7-6.069v.827h-7.874a4.132,4.132,0,0,0,1,2.777,3.157,3.157,0,0,0,2.444,1.058,3.461,3.461,0,0,0,1.783-.43,4.48,4.48,0,0,0,1.278-1.139l1.214.945A4.881,4.881,0,0,1,129.164.215Zm-.247-10.42a2.651,2.651,0,0,0-2.02.875,4.255,4.255,0,0,0-1.01,2.455h5.822v-.15a3.785,3.785,0,0,0-.816-2.347A2.5,2.5,0,0,0,128.917-10.205Zm8.959-1.418.064,1.461a4.236,4.236,0,0,1,3.48-1.676q3.685,0,3.717,4.157V0H143.15V-7.691a2.676,2.676,0,0,0-.575-1.858,2.3,2.3,0,0,0-1.756-.6,2.868,2.868,0,0,0-1.7.516,3.5,3.5,0,0,0-1.139,1.354V0H136V-11.623Zm12.955-2.814v2.814H153v1.536h-2.17V-2.87a1.613,1.613,0,0,0,.29,1.049,1.221,1.221,0,0,0,.988.35,4.811,4.811,0,0,0,.945-.129V0a5.8,5.8,0,0,1-1.525.214,2.475,2.475,0,0,1-2.009-.806,3.461,3.461,0,0,1-.677-2.288v-7.208h-2.116v-1.536h2.116v-2.814Zm3.749,8.519a6.865,6.865,0,0,1,.671-3.072,5.008,5.008,0,0,1,1.869-2.105,5.088,5.088,0,0,1,2.734-.741,4.9,4.9,0,0,1,3.84,1.644,6.323,6.323,0,0,1,1.466,4.372v.14a6.925,6.925,0,0,1-.65,3.045,4.935,4.935,0,0,1-1.858,2.1,5.146,5.146,0,0,1-2.777.752,4.889,4.889,0,0,1-3.83-1.644,6.291,6.291,0,0,1-1.466-4.351Zm2,.236a4.972,4.972,0,0,0,.9,3.1,2.871,2.871,0,0,0,2.4,1.171,2.853,2.853,0,0,0,2.406-1.187,5.437,5.437,0,0,0,.892-3.325,4.964,4.964,0,0,0-.908-3.1,2.886,2.886,0,0,0-2.412-1.187,2.854,2.854,0,0,0-2.374,1.171A5.4,5.4,0,0,0,156.578-5.683Z" transform="translate(-1757.721 -12406.729)" fill="#13273e"/>
    <path id="Trazado_146279" data-name="Trazado 146279" d="M0,0H206.26V47.576H0Z" transform="translate(-1596.504 -12380.388)" fill="#ff9d00"/>
    <path id="Trazado_146280" data-name="Trazado 146280" d="M1.815,0V-15.641H6.23a7.107,7.107,0,0,1,3.609.9,6.1,6.1,0,0,1,2.422,2.567,8.357,8.357,0,0,1,.865,3.824v1a8.386,8.386,0,0,1-.854,3.878A6.007,6.007,0,0,1,9.834-.913,7.56,7.56,0,0,1,6.145,0ZM3.878-13.954V-1.687h2.17A4.721,4.721,0,0,0,9.759-3.17,6.13,6.13,0,0,0,11.086-7.4V-8.31a6.227,6.227,0,0,0-1.251-4.145,4.453,4.453,0,0,0-3.55-1.5ZM18.09,0H16.1V-11.623H18.09ZM15.941-14.706a1.186,1.186,0,0,1,.3-.816,1.109,1.109,0,0,1,.875-.333,1.126,1.126,0,0,1,.881.333,1.174,1.174,0,0,1,.3.816,1.135,1.135,0,0,1-.3.806,1.147,1.147,0,0,1-.881.322,1.129,1.129,0,0,1-.875-.322A1.147,1.147,0,0,1,15.941-14.706Zm12.1,11.623a1.463,1.463,0,0,0-.607-1.251A5.842,5.842,0,0,0,25.314-5.1a10.005,10.005,0,0,1-2.4-.773A3.408,3.408,0,0,1,21.608-6.95a2.57,2.57,0,0,1-.424-1.482,3.015,3.015,0,0,1,1.208-2.417,4.72,4.72,0,0,1,3.088-.988,4.857,4.857,0,0,1,3.207,1.021,3.241,3.241,0,0,1,1.23,2.61h-2a1.794,1.794,0,0,0-.693-1.407,2.6,2.6,0,0,0-1.746-.591,2.717,2.717,0,0,0-1.7.473A1.488,1.488,0,0,0,23.171-8.5a1.205,1.205,0,0,0,.569,1.085,7,7,0,0,0,2.057.7,10.719,10.719,0,0,1,2.412.795,3.518,3.518,0,0,1,1.37,1.112,2.734,2.734,0,0,1,.446,1.584,2.975,2.975,0,0,1-1.246,2.5,5.227,5.227,0,0,1-3.233.94,5.853,5.853,0,0,1-2.471-.494,4.018,4.018,0,0,1-1.681-1.38,3.327,3.327,0,0,1-.607-1.917h1.987a2.058,2.058,0,0,0,.8,1.584,3.1,3.1,0,0,0,1.971.585,3.2,3.2,0,0,0,1.81-.457A1.4,1.4,0,0,0,28.037-3.083Zm14.395-2.6a6.96,6.96,0,0,1-1.214,4.275A3.89,3.89,0,0,1,37.931.215,4.263,4.263,0,0,1,34.6-1.128v5.6H32.613V-11.623h1.815l.1,1.289a4.094,4.094,0,0,1,3.373-1.5,3.963,3.963,0,0,1,3.314,1.579,7.036,7.036,0,0,1,1.219,4.394Zm-1.987-.226a5.135,5.135,0,0,0-.838-3.1,2.7,2.7,0,0,0-2.3-1.139,2.921,2.921,0,0,0-2.707,1.6V-3a2.927,2.927,0,0,0,2.729,1.59A2.686,2.686,0,0,0,39.6-2.541,5.606,5.606,0,0,0,40.444-5.908ZM49.779.215a5.078,5.078,0,0,1-3.846-1.552,5.761,5.761,0,0,1-1.482-4.152v-.365a6.975,6.975,0,0,1,.661-3.088,5.154,5.154,0,0,1,1.848-2.127,4.645,4.645,0,0,1,2.573-.768,4.353,4.353,0,0,1,3.523,1.493,6.465,6.465,0,0,1,1.257,4.275v.827H46.438a4.132,4.132,0,0,0,1,2.777,3.157,3.157,0,0,0,2.444,1.058,3.461,3.461,0,0,0,1.783-.43,4.48,4.48,0,0,0,1.278-1.139l1.214.945A4.881,4.881,0,0,1,49.779.215Zm-.247-10.42a2.651,2.651,0,0,0-2.02.875A4.255,4.255,0,0,0,46.5-6.875h5.822v-.15a3.785,3.785,0,0,0-.816-2.347A2.5,2.5,0,0,0,49.532-10.205Zm8.959-1.418.064,1.461a4.236,4.236,0,0,1,3.48-1.676q3.685,0,3.717,4.157V0H63.766V-7.691a2.676,2.676,0,0,0-.575-1.858,2.3,2.3,0,0,0-1.756-.6,2.868,2.868,0,0,0-1.7.516A3.5,3.5,0,0,0,58.6-8.282V0H56.611V-11.623Zm17.026,8.54a1.463,1.463,0,0,0-.607-1.251A5.842,5.842,0,0,0,72.794-5.1a10.005,10.005,0,0,1-2.4-.773A3.408,3.408,0,0,1,69.088-6.95a2.57,2.57,0,0,1-.424-1.482,3.015,3.015,0,0,1,1.208-2.417,4.72,4.72,0,0,1,3.088-.988,4.857,4.857,0,0,1,3.207,1.021,3.241,3.241,0,0,1,1.23,2.61h-2a1.794,1.794,0,0,0-.693-1.407,2.6,2.6,0,0,0-1.746-.591,2.717,2.717,0,0,0-1.7.473A1.488,1.488,0,0,0,70.651-8.5a1.205,1.205,0,0,0,.569,1.085,7,7,0,0,0,2.057.7,10.719,10.719,0,0,1,2.412.795,3.518,3.518,0,0,1,1.37,1.112A2.734,2.734,0,0,1,77.5-3.223a2.975,2.975,0,0,1-1.246,2.5,5.227,5.227,0,0,1-3.233.94,5.853,5.853,0,0,1-2.471-.494,4.018,4.018,0,0,1-1.681-1.38,3.327,3.327,0,0,1-.607-1.917h1.987a2.058,2.058,0,0,0,.8,1.584,3.1,3.1,0,0,0,1.971.585,3.2,3.2,0,0,0,1.81-.457A1.4,1.4,0,0,0,75.518-3.083ZM87.27,0a4.175,4.175,0,0,1-.279-1.225A4.434,4.434,0,0,1,83.682.215a4.1,4.1,0,0,1-2.82-.972,3.145,3.145,0,0,1-1.1-2.465,3.286,3.286,0,0,1,1.38-2.82,6.508,6.508,0,0,1,3.883-1h1.934V-7.96a2.232,2.232,0,0,0-.623-1.66,2.5,2.5,0,0,0-1.837-.618,2.9,2.9,0,0,0-1.783.537A1.583,1.583,0,0,0,82-8.4H80a2.743,2.743,0,0,1,.618-1.681,4.216,4.216,0,0,1,1.676-1.284,5.638,5.638,0,0,1,2.326-.473,4.6,4.6,0,0,1,3.147,1,3.623,3.623,0,0,1,1.182,2.766v5.35a6.54,6.54,0,0,0,.408,2.546V0Zm-3.3-1.515A3.493,3.493,0,0,0,85.744-2a2.924,2.924,0,0,0,1.214-1.257V-5.64H85.4q-3.652,0-3.652,2.138a1.809,1.809,0,0,0,.623,1.461A2.4,2.4,0,0,0,83.972-1.515Zm12.751.107a2.863,2.863,0,0,0,1.858-.645,2.268,2.268,0,0,0,.881-1.611h1.88a3.6,3.6,0,0,1-.687,1.9A4.528,4.528,0,0,1,98.962-.322a4.882,4.882,0,0,1-2.24.537A4.788,4.788,0,0,1,92.947-1.37a6.311,6.311,0,0,1-1.4-4.334v-.333a7,7,0,0,1,.623-3.019,4.745,4.745,0,0,1,1.789-2.052,5.081,5.081,0,0,1,2.755-.73,4.662,4.662,0,0,1,3.25,1.171,4.185,4.185,0,0,1,1.38,3.04h-1.88a2.739,2.739,0,0,0-.854-1.853,2.657,2.657,0,0,0-1.9-.725,2.781,2.781,0,0,0-2.347,1.09,5.121,5.121,0,0,0-.833,3.153v.376a5.019,5.019,0,0,0,.827,3.094A2.8,2.8,0,0,0,96.723-1.407ZM105.735,0h-1.987V-11.623h1.987Zm-2.148-14.706a1.186,1.186,0,0,1,.3-.816,1.109,1.109,0,0,1,.875-.333,1.126,1.126,0,0,1,.881.333,1.174,1.174,0,0,1,.3.816,1.135,1.135,0,0,1-.3.806,1.147,1.147,0,0,1-.881.322,1.129,1.129,0,0,1-.875-.322A1.147,1.147,0,0,1,103.587-14.706Zm4.8,8.787a6.865,6.865,0,0,1,.671-3.072,5.009,5.009,0,0,1,1.869-2.105,5.088,5.088,0,0,1,2.734-.741,4.9,4.9,0,0,1,3.84,1.644,6.323,6.323,0,0,1,1.466,4.372v.14a6.925,6.925,0,0,1-.65,3.045,4.935,4.935,0,0,1-1.858,2.1,5.147,5.147,0,0,1-2.777.752,4.889,4.889,0,0,1-3.83-1.644,6.291,6.291,0,0,1-1.466-4.351Zm2,.236a4.972,4.972,0,0,0,.9,3.1,2.871,2.871,0,0,0,2.4,1.171,2.853,2.853,0,0,0,2.406-1.187,5.437,5.437,0,0,0,.892-3.325,4.964,4.964,0,0,0-.908-3.1,2.886,2.886,0,0,0-2.412-1.187,2.854,2.854,0,0,0-2.374,1.171A5.4,5.4,0,0,0,110.387-5.683Zm4.179-10.8h2.406l-2.879,3.158-1.6-.005Zm8.776,4.855.064,1.461a4.236,4.236,0,0,1,3.48-1.676q3.685,0,3.717,4.157V0h-1.987V-7.691a2.676,2.676,0,0,0-.575-1.858,2.3,2.3,0,0,0-1.756-.6,2.868,2.868,0,0,0-1.7.516,3.5,3.5,0,0,0-1.139,1.354V0h-1.987V-11.623Z" transform="translate(-1562.639 -12351.505)" fill="#13273e"/>
    <path id="Trazado_118111" data-name="Trazado 118111" d="M146.349,178.336v-94.1L819.065,348.994v55.223" transform="translate(-2256.537 -12792.252)" fill="none" stroke="#7e5ee3" stroke-miterlimit="10" stroke-width="3"/>
    <path id="Trazado_146281" data-name="Trazado 146281" d="M20.676,0,0,51.593" transform="translate(-1781.359 -12630.194)" fill="none" stroke="#7e5ee3" stroke-width="3"/>
    <g id="Grupo_74843" data-name="Grupo 74843" transform="translate(-2038.595 -12586.695)">
      <line id="Línea_189" data-name="Línea 189" x2="66.644" y2="24.887" fill="none" stroke="#7e5ee3" stroke-miterlimit="10" stroke-width="3"/>
      <g id="Grupo_74842" data-name="Grupo 74842" transform="translate(57.426 12.969)">
        <path id="Trazado_118112" data-name="Trazado 118112" d="M277.536,216.45c-7.149-1.183-16.6-1.631-23.4-.268l9.218-7.837,2.072-11.918C267.7,202.974,272.887,210.891,277.536,216.45Z" transform="translate(-254.137 -196.427)" fill="#7e5ee3"/>
      </g>
    </g>
    <g id="Grupo_74845" data-name="Grupo 74845" transform="translate(-1888.417 -12532.124)">
      <line id="Línea_190" data-name="Línea 190" x2="66.644" y2="24.887" fill="none" stroke="#7e5ee3" stroke-miterlimit="10" stroke-width="3"/>
      <g id="Grupo_74844" data-name="Grupo 74844" transform="translate(57.425 12.969)">
        <path id="Trazado_118113" data-name="Trazado 118113" d="M403,262.041c-7.149-1.183-16.6-1.63-23.4-.268l9.219-7.837,2.071-11.918C393.168,248.567,398.352,256.483,403,262.041Z" transform="translate(-379.602 -242.018)" fill="#7e5ee3"/>
      </g>
    </g>
    <g id="Grupo_74847" data-name="Grupo 74847" transform="translate(-1728.851 -12476.25)">
      <line id="Línea_191" data-name="Línea 191" x2="66.644" y2="24.887" fill="none" stroke="#7e5ee3" stroke-miterlimit="10" stroke-width="3"/>
      <g id="Grupo_74846" data-name="Grupo 74846" transform="translate(57.426 12.968)">
        <path id="Trazado_118114" data-name="Trazado 118114" d="M536.311,308.721c-7.149-1.181-16.6-1.63-23.4-.267l9.218-7.837L524.2,288.7C526.477,295.247,531.662,303.163,536.311,308.721Z" transform="translate(-512.912 -288.698)" fill="#7e5ee3"/>
      </g>
    </g>
    <g id="Grupo_74849" data-name="Grupo 74849" transform="translate(-1552.072 -12421.679)">
      <line id="Línea_192" data-name="Línea 192" x2="66.644" y2="24.887" fill="none" stroke="#7e5ee3" stroke-miterlimit="10" stroke-width="3"/>
      <g id="Grupo_74848" data-name="Grupo 74848" transform="translate(57.426 12.969)">
        <path id="Trazado_118115" data-name="Trazado 118115" d="M684,354.313c-7.149-1.183-16.6-1.631-23.4-.268l9.218-7.837,2.072-11.918C674.166,340.837,679.351,348.754,684,354.313Z" transform="translate(-660.601 -334.29)" fill="#7e5ee3"/>
      </g>
    </g>
  </g>
</svg>
