<svg xmlns="http://www.w3.org/2000/svg" width="146" height="146" viewBox="0 0 146 146">
  <g id="Grupo_75206" data-name="Grupo 75206" transform="translate(-985.243 -11226)">
    <circle id="Elipse_4609" data-name="Elipse 4609" cx="73" cy="73" r="73" transform="translate(985.243 11226)" fill="#fff"/>
    <g id="Grupo_74968" data-name="Grupo 74968" transform="translate(993.243 11233)">
      <path id="Trazado_145499" data-name="Trazado 145499" d="M1849.64,1359.429l-2.1-1.814c-1.334,1.092-2.021.03-3-.725a7.916,7.916,0,0,1-3.308-7.948,32.534,32.534,0,0,0,.035-4.589,5.328,5.328,0,0,0-1.618-3.9q-8.385-8.4-16.786-16.782c-1.161-1.158-1.677-1.027-2.18.541a8.49,8.49,0,0,0,2.214,9.034c1.862,1.927,3.787,3.793,5.676,5.693,1.056,1.062,1.051,1.083.048,2.135a6.444,6.444,0,0,0-.039,9.366c.354.375,1.069.732.672,1.346a4.572,4.572,0,0,1-2.012,1.882c-.35.143-.619-.215-.852-.456-3.213-3.322-4.214-7.446-2.283-11.715.665-1.47.625-1.6-.483-2.789-1.822-1.953-4.005-3.577-5.394-5.928-.33-.559-.806-.58-1.281-.154-.823.74-1.6,1.528-2.348,2.342a.982.982,0,0,0,.027,1.476c.17.19.364.361.521.56.41.515,1.3.848,1.127,1.579-.21.877-1.091,1.368-1.753,1.957a.607.607,0,0,1-.82-.044c-.136-.1-.255-.225-.381-.339-2.06-1.878-2.951-1.742-4.564.66a.935.935,0,0,0,.035,1.268c.3.359.641.681.969,1.014,1.131,1.147,1.132,1.146-.021,2.305-1.319,1.327-1.319,1.327-2.658,0-1.445-1.431-1.517-1.432-2.935-.025-1.778,1.765-1.778,1.765-.006,3.585.955.982.956,1.054-.012,2.046-.267.274-.544.539-.816.808a.815.815,0,0,1-1.323-.026c-.177-.184-.362-.359-.544-.539-1.555-1.538-1.627-1.539-3.137-.037-.241.24-.487.476-.719.725-.9.967-.918,1.276.033,2.233q6.929,6.968,13.889,13.9a4.249,4.249,0,0,0,1.73,1.036c2.142.7,4.272,1.444,6.422,2.123a5.484,5.484,0,0,1,2.351,1.459c1.213,1.253,2.406,2.534,3.712,3.685.974.859,1.472,1.679.641,2.872.418.87,1.345,1.3,1.823,2.123,6.872,0,13.743-.014,20.614.02.708,0,.85-.144.846-.849C1849.627,1373.511,1849.64,1366.47,1849.64,1359.429Z" transform="translate(-1718.937 -1250.678)" fill="#feddce"/>
      <path id="Trazado_145500" data-name="Trazado 145500" d="M2079.361,1042.055l-1.816-2.1c-7.062,0-14.123.01-21.185-.017-.638,0-.785.144-.782.782.027,6.892.017,13.783.017,20.675.821.477,1.252,1.407,2.125,1.824,1.2-.825,1.992-.285,2.88.65,2.312,2.435,4.714,4.786,7.113,7.136a5.243,5.243,0,0,1,1.516,2.6c.1.413.268.815.334,1.229.843,5.305,4.514,8.685,8.182,12.072a1.232,1.232,0,0,0,1.907-.005c.308-.293.61-.592.91-.893q10.012-10.011,20.024-20.022c1.2-1.2,1.21-1.2,2.408-.008q3.432,3.422,6.856,6.853a8.846,8.846,0,0,0,9.037,2.337c1.651-.431,1.8-1.052.621-2.237q-7.968-8-15.953-15.976a3.1,3.1,0,0,0-2.377-.989c-2.891.032-5.783-.021-8.673.029a3.145,3.145,0,0,1-2.472-1.039q-4.922-5-9.92-9.922C2079.221,1044.153,2078.251,1043.394,2079.361,1042.055Z" transform="translate(-2055.577 -1039.935)" fill="#feddce"/>
      <path id="Trazado_145501" data-name="Trazado 145501" d="M1823.721,1044.838c-1.2,1.447-1.2,1.447.194,2.842,3.426,3.427,6.878,6.828,10.257,10.3a3.147,3.147,0,0,0,2.561,1.027c3.016-.06,6.035,0,9.053-.035a2.128,2.128,0,0,1,1.672.687q8.229,8.271,16.5,16.5c.695.689.688.982-.258,1.317a8.1,8.1,0,0,1-8.94-1.846q-3.807-3.674-7.474-7.492c-.837-.875-1.283-1.012-2.232-.05-6.983,7.083-14.056,14.076-21.049,21.149-.82.829-1.2.761-1.943-.033-1.885-2.018-4.278-3.688-5.7-5.975s-1.909-5.129-2.766-7.742a3.836,3.836,0,0,0-.99-1.59q-3.9-3.854-7.771-7.738c-1.352-1.349-1.352-1.349-2.76-.155-1.434,1.747-1.436,1.748.216,3.394,2.229,2.221,4.451,4.449,6.7,6.653a4.12,4.12,0,0,1,1.073,1.688c.867,2.612,1.371,5.46,2.782,7.743,1.394,2.255,3.72,3.932,5.636,5.864,1.681,1.695,1.681,1.695.034,3.341-5.441,5.442-10.867,10.9-16.345,16.307-.71.7-.6,1.008.034,1.646q26.636,26.581,53.212,53.223c.76.762,1.106.584,1.75-.064,5.661-5.7,11.368-11.362,17.017-17.078.723-.732,1.069-.649,1.742.033,4.838,4.9,9.726,9.756,14.581,14.643a3.77,3.77,0,0,0,1.694,1.059c.367.1.723.252,1.094.332a18.658,18.658,0,0,1,11.392,7.025c.783,1.034,1.405.94,2.105-.03a2.958,2.958,0,0,1,.583-.48c1.183-1.42,1.057-1.317-.129-2.778a20.1,20.1,0,0,0-11.947-7.35,6.174,6.174,0,0,1-3.2-1.924q-6.661-6.78-13.425-13.457c-.642-.635-.618-.958.012-1.572,2.129-2.076,2.133-2.13,4.16-.031.643.665,1.058.822,1.667.019.579-.764,1.86-1.3,1.81-2.127-.043-.711-1.11-1.422-1.824-2.012-.771-.637-.718-1.094.026-1.671s1.29-1.872,2.124-1.8c.717.06,1.407,1.135,2,1.853.616.752,1.02.708,1.648,0a24.287,24.287,0,0,1,2.248-2c-.944-.911-1.638-1.668-2.423-2.313-.652-.535-.545-.895.038-1.358.789-.628,1.345-1.958,2.23-1.908.741.042,1.467,1.161,2.109,1.884.547.616.923.667,1.472.01.624-.747,1.8-1.353,1.9-2.129.108-.833-1.117-1.483-1.838-2.109-.771-.67-.646-1.075.042-1.677.86-.753,1.628-1.612,2.534-2.525,1.525,2.965,4.086,4.911,6.271,7.191a1,1,0,0,1,.219,1.4,10.4,10.4,0,0,0,2.68,13.107c.466.394.671.281,1.008-.083.693-.748,1.784-1.36,2.033-2.224.269-.937-1.105-1.4-1.661-2.158a6.206,6.206,0,0,1,.677-8.238c1.265-1.311,1.265-1.311-.045-2.623-1.983-1.986-4-3.937-5.94-5.967a7.9,7.9,0,0,1-1.12-9.8q6.191,6.206,12.351,12.381c1.592,1.595,3.159,3.218,4.795,4.767a6.817,6.817,0,0,1,2.215,5.35c-.045,2.466.017,4.933-.027,7.4a2.187,2.187,0,0,0,.746,1.779c1.174,1.109,2.348,2.228,3.419,3.434.688.774,1.2.927,1.828.018a2.2,2.2,0,0,1,.485-.389c1.424-1.714,1.523-1.831-.279-3.353a5.4,5.4,0,0,1-2.129-5.192,33.132,33.132,0,0,0,.03-4.08,10.533,10.533,0,0,0-3.295-7.747c-4.621-4.583-9.2-9.211-13.841-13.771-.715-.7-.625-1.033.027-1.677,4.27-4.212,8.485-8.479,12.75-12.7.646-.639.834-.976.065-1.743q-26.658-26.582-53.235-53.244c-.722-.725-1.043-.582-1.67.052-4.482,4.54-9,9.041-13.641,13.684-1.361-1.4-2.716-2.75-4.009-4.155a2.408,2.408,0,0,0-1.987-.854c-3.1.051-6.21-.007-9.315.038a2.381,2.381,0,0,1-1.891-.794c-3.2-3.241-6.464-6.411-9.617-9.692-.913-.949-1.525-1.084-2.3.014A2.225,2.225,0,0,1,1823.721,1044.838Z" transform="translate(-1799.938 -1042.718)"/>
      <path id="Trazado_145502" data-name="Trazado 145502" d="M1968.313,1493.859c.176.211.322.417.5.593q5.534,5.541,11.066,11.084c.444.447.731.565,1.2.025.69-.8,1.938-1.465,2.055-2.311.109-.781-1.229-1.476-1.942-2.194-3.108-3.135-6.25-6.236-9.347-9.381-.521-.529-.85-.69-1.383-.036-.507.622-1.128,1.15-1.7,1.723C1968.615,1493.51,1968.481,1493.672,1968.313,1493.859Z" transform="translate(-1896.161 -1376.024)"/>
      <path id="Trazado_145503" data-name="Trazado 145503" d="M2025.105,1517.785a6.387,6.387,0,0,0,.409.5c1.707,1.714,3.427,3.416,5.123,5.142.367.374.585.415,1.017.032,2.557-2.261,2.57-2.246.206-4.61-1.11-1.111-2.237-2.206-3.321-3.341-.432-.452-.735-.578-1.2-.034-.55.643-1.191,1.209-1.788,1.813C2025.4,1517.437,2025.269,1517.6,2025.105,1517.785Z" transform="translate(-1961.124 -1393.828)" fill="#010101"/>
      <path id="Trazado_145504" data-name="Trazado 145504" d="M1810.788,1319.985c.414-.455.883-1,1.388-1.516,1.259-1.279,1.266-1.272.012-2.525-2.759-2.758-5.534-5.5-8.262-8.287-.546-.558-.87-.617-1.384,0-.647.775-1.88,1.442-1.937,2.223-.06.825,1.233,1.48,1.943,2.2,2.413,2.444,4.85,4.864,7.283,7.288A1.455,1.455,0,0,0,1810.788,1319.985Z" transform="translate(-1683.342 -1238.993)"/>
      <path id="Trazado_145505" data-name="Trazado 145505" d="M1805.206,1282.448c.3-.356.593-.774.95-1.134,1.724-1.744,1.73-1.739-.051-3.515l-.09-.09c-2.473-2.468-2.471-2.466-4.683.241-.193.236-.444.424-.133.735q1.751,1.751,3.507,3.5A2.669,2.669,0,0,0,1805.206,1282.448Z" transform="translate(-1677.777 -1215.662)" fill="#010101"/>
      <path id="Trazado_145506" data-name="Trazado 145506" d="M1900.9,1104.753a12.005,12.005,0,0,1-8.565-3.648c-1.662-1.646-3.34-3.277-4.952-4.971-.578-.607-.894-.59-1.483,0q-16.752,16.808-33.564,33.555c-.746.742-.562,1.042.118,1.619q16.431,13.953,32.827,27.947,9.224,7.858,18.435,15.731c.645.554.976.611,1.616-.032q15.933-16,31.928-31.942a2.169,2.169,0,0,0,.7-1.658,12.639,12.639,0,0,1,4.5-9.366c.345-.32.607-.432.931-.022a1.805,1.805,0,0,0,.271.269c.776.639,1.351,2,2.221,1.89.811-.1,1.5-1.262,2.218-1.979,2.862-2.852,5.7-5.731,8.587-8.553.6-.589.569-.886-.009-1.463q-23.84-23.793-47.629-47.637c-.669-.671-.981-.543-1.57.056q-4.917,5.006-9.925,9.921c-.669.655-.715.987-.016,1.674,4.337,4.263,8.608,8.593,12.932,12.868.575.569.62.86.027,1.474A12.638,12.638,0,0,1,1900.9,1104.753Z" transform="translate(-1840.425 -1065.337)" fill="#fe8965"/>
      <path id="Trazado_145507" data-name="Trazado 145507" d="M2118.805,1357.285c.376-.328.6-.505.808-.708,1.206-1.2,2.377-2.434,3.623-3.59.592-.549.549-.809-.062-1.327q-10.122-8.565-20.193-17.189-15.285-13.022-30.6-26.011c-.505-.427-.978-1.8-1.948-.82-1.041,1.051.436,1.411.884,1.861q23.346,23.453,46.761,46.838A9.218,9.218,0,0,1,2118.805,1357.285Z" transform="translate(-2062.654 -1239.052)" fill="#fe7043"/>
      <path id="Trazado_145508" data-name="Trazado 145508" d="M2021.4,1311.5c.194.212.358.4.537.584q10.952,10.961,21.9,21.928c.448.45.71.517,1.2.023q5.152-5.217,10.369-10.371c.463-.458.506-.72.016-1.207q-10.98-10.933-21.914-21.912c-.47-.472-.744-.486-1.219-.006-3.438,3.475-6.9,6.922-10.359,10.381C2021.747,1311.1,2021.586,1311.292,2021.4,1311.5Z" transform="translate(-1982.341 -1233.757)"/>
      <path id="Trazado_145509" data-name="Trazado 145509" d="M1909.323,1223.688c.187.214.338.409.512.583q6.614,6.619,13.221,13.245c.52.525.791.478,1.3-.016,2.28-2.232,2.3-2.215.034-4.479-3.811-3.811-7.636-7.608-11.418-11.447-.607-.615-1-.751-1.584-.025-.478.591-1.069,1.089-1.606,1.633C1909.628,1223.33,1909.5,1223.493,1909.323,1223.688Z" transform="translate(-1824.038 -1174.826)" fill="#fefefe"/>
      <path id="Trazado_145510" data-name="Trazado 145510" d="M1943.386,1257.6c.234.259.421.487.627.694,2.429,2.434,4.875,4.852,7.283,7.307.481.49.751.568,1.294.038,2.276-2.216,2.3-2.194.021-4.471-1.891-1.891-3.807-3.759-5.659-5.688-.593-.618-.987-.768-1.571-.028a21.376,21.376,0,0,1-1.515,1.544C1943.7,1257.169,1943.559,1257.378,1943.386,1257.6Z" transform="translate(-1860.971 -1200.069)" fill="#fefefe"/>
      <path id="Trazado_145511" data-name="Trazado 145511" d="M2060.945,1345.41c.368.014.484-.254.654-.421,1.573-1.555,3.124-3.132,4.71-4.672.433-.42.441-.662,0-1.1q-8.145-8.1-16.242-16.24c-.43-.432-.676-.452-1.109,0q-2.306,2.384-4.69,4.693c-.44.427-.43.69,0,1.12q8.138,8.1,16.249,16.233C2060.663,1345.162,2060.823,1345.3,2060.945,1345.41Z" transform="translate(-1998.964 -1250.482)" fill="#e1fb84"/>
    </g>
    <g id="Grupo_74969" data-name="Grupo 74969">
      <g id="Grupo_74970" data-name="Grupo 74970" transform="translate(-7)">
        <g id="Elipse_4704" data-name="Elipse 4704" transform="translate(1000.243 11233)" fill="none" stroke="red" stroke-width="6">
          <circle cx="65.5" cy="65.5" r="65.5" stroke="none"/>
          <circle cx="65.5" cy="65.5" r="62.5" fill="none"/>
        </g>
        <line id="Línea_203" data-name="Línea 203" x1="89" y2="89" transform="translate(1018.743 11250.5)" fill="none" stroke="red" stroke-width="6"/>
      </g>
    </g>
  </g>
</svg>
