<svg xmlns="http://www.w3.org/2000/svg" width="109" height="109" viewBox="0 0 109 109">
  <g id="Grupo_75183" data-name="Grupo 75183" transform="translate(847 8532.864)">
    <circle id="Elipse_4744" data-name="Elipse 4744" cx="54.5" cy="54.5" r="54.5" transform="translate(-847 -8532.864)" fill="#f6f6f6"/>
    <g id="Grupo_75181" data-name="Grupo 75181" transform="translate(-844.465 -8530.33)">
      <path id="Trazado_145320" data-name="Trazado 145320" d="M1769.815,1251.449a49.121,49.121,0,0,0,9.463,2.1,10.439,10.439,0,0,1,2.568.4h7.917a40.351,40.351,0,0,1,4.87-.774,53.5,53.5,0,0,0,10.594-3.041,1.163,1.163,0,0,1-.245-.847,17.273,17.273,0,0,0-3.712-10.242,3.163,3.163,0,0,0-1.575-1.349,8.577,8.577,0,0,1-2.609,2.512,6.992,6.992,0,0,1-5.685,1.042,7.5,7.5,0,0,1-5.915-8.214l-.19-.24a16.827,16.827,0,0,0-14.486,10.872A21.968,21.968,0,0,0,1769.815,1251.449Z" transform="translate(-1733.738 -1150.017)" fill="#9dc5fa"/>
      <path id="Trazado_145321" data-name="Trazado 145321" d="M1722.08,829.088a31.918,31.918,0,0,0-10.4-3.8c-.43-.068-.95.129-1.309-.292h-5.887l-3.237.643a.921.921,0,0,0,.577.373,28.229,28.229,0,0,1,19.495,19.033,34.645,34.645,0,0,1,1.232,11.011c1.4.017,2.81.058,4.214.04.6-.008.842.194.863.8.036,1.069.134,2.135.205,3.2.806-.358,1.6-.445,2.179.358s.254,1.511-.3,2.2a3.189,3.189,0,0,0-.827,1.251c2.335-.147,4.618-.092,6.458,1.673.058-5.034.35-10.091-.091-15.1a27.361,27.361,0,0,0-11.437-20.146c-.367-.275-.85-.427-1.057-.9l.005.006a.317.317,0,0,1-.409-.217l.012.008Z" transform="translate(-1650.079 -825)" fill="#22386b"/>
      <path id="Trazado_145322" data-name="Trazado 145322" d="M1950.178,855.215a23.555,23.555,0,0,0,4.5,3.429c6.536,3.319,12.871,2.99,19-1.057l.761-.5c.1-.094.19-.192.292-.28a17.811,17.811,0,0,0,6.417-16.045,28.316,28.316,0,0,0-1.067-4.523,23.262,23.262,0,0,0-4.465-6.488,20.379,20.379,0,0,0-7.292-4.065,11.592,11.592,0,0,1-2.61-.687h-4.263c-.149.174-.36.158-.557.184a17.878,17.878,0,0,0-14.863,13.118c-.235.9-.412,1.822-.616,2.733V845.3a4.714,4.714,0,0,1,.485,1.809A19.584,19.584,0,0,0,1950.178,855.215Zm10.256-27.12a14.667,14.667,0,0,1,10.263,1.6,15.017,15.017,0,0,1,7.56,15.911,14.242,14.242,0,0,1-4.861,8.645,14.774,14.774,0,0,1-12.775,3.573c-7.591-1.717-12.371-7.531-12.368-15.047C1948.256,835.647,1953.172,829.722,1960.434,828.095Z" transform="translate(-1945.411 -824.998)" fill="#78c1a4"/>
      <path id="Trazado_145326" data-name="Trazado 145326" d="M1740.437,1124.606l.19.24c3.635.059,7.277.172,10.743-1.236.775-.315.844.14.843.733,0,2.558.008,5.116.014,7.675a8.577,8.577,0,0,0,2.609-2.512,11.594,11.594,0,0,0,1.041-4.931c-.008-1.979-.013-3.958-.029-5.936a.873.873,0,0,1,.425-.838,28.037,28.037,0,0,0,4.034-3.308,23.559,23.559,0,0,0,6.288-17.441c-3.436,1.418-6.869,2.843-10.31,4.247-.6.245-.636.7-.635,1.231a36.4,36.4,0,0,1-.247,6.474,14.618,14.618,0,0,1-14.956,11.961l-1.427.029a1.315,1.315,0,0,0,.458.176c.8-.024,1.06.367,1.006,1.124S1740.45,1123.835,1740.437,1124.606Z" transform="translate(-1688.878 -1041.828)" fill="#fdcabd"/>
      <path id="Trazado_145327" data-name="Trazado 145327" d="M1679.278,1072.672a23.56,23.56,0,0,1-6.288,17.441c4.46.005,8.921.054,13.38,0a6.418,6.418,0,0,0,6.3-5.863,6.519,6.519,0,0,0-4.834-6.857c-.824-.2-.991-.55-.986-1.3.021-3.21-.009-6.42-.02-9.63a6.739,6.739,0,0,1-3.3,1.626,16.073,16.073,0,0,1-3.224.068c-.869-.048-1.167.235-1,1.063.314-.1.63-.2.943-.311a1.523,1.523,0,1,1,1.126,2.818C1680.678,1072.051,1679.976,1072.357,1679.278,1072.672Z" transform="translate(-1601.561 -1017.448)" fill="#22386b"/>
      <path id="Trazado_145328" data-name="Trazado 145328" d="M1720.926,1232.645a11.6,11.6,0,0,1-1.041,4.931,3.163,3.163,0,0,1,1.575,1.349,17.273,17.273,0,0,1,3.712,10.242,1.162,1.162,0,0,0,.245.847,43.24,43.24,0,0,0,10.135-5.526,16.477,16.477,0,0,0-10.965-11.147A12.994,12.994,0,0,0,1720.926,1232.645Z" transform="translate(-1653.927 -1149.897)" fill="#80b3fa"/>
      <path id="Trazado_145329" data-name="Trazado 145329" d="M1704.763,1029.363c-.171-.828.127-1.11,1-1.062a16.072,16.072,0,0,0,3.224-.068,6.737,6.737,0,0,0,3.3-1.626c2.306-2.941,2.305-5.484,0-8.425-1.84-1.765-4.123-1.82-6.458-1.673a4.106,4.106,0,0,0-.517.479q-4.744,6.178-9.475,12.365-1.107,1.446-2.2,2.9c-.4.528-.083,1.055.087,1.53.115.322.495.085.716-.011C1697.869,1032.282,1701.381,1030.974,1704.763,1029.363Zm0-7.024c0-2.526,0-2.524,2.581-2.521a4.076,4.076,0,0,1,1.592.206,2.471,2.471,0,0,1,1.665,2.218,2.413,2.413,0,0,1-1.322,2.33,3.773,3.773,0,0,1-1.966.317C1704.767,1024.891,1704.767,1024.891,1704.767,1022.339Z" transform="translate(-1627.022 -977.592)" fill="#fdcabd"/>
      <path id="Trazado_145330" data-name="Trazado 145330" d="M1964.235,1108.63a38.089,38.089,0,0,0,5.808,5,47.126,47.126,0,0,0,10.191,5.758c.019-3.447.07-6.894.043-10.34a7.682,7.682,0,0,1,1.206-4.318,13.312,13.312,0,0,0,2.093-7.591c-.07-4.156-.054-8.315,0-12.472.022-1.688.03-3.308-1.431-4.495l-1.058.551a4.053,4.053,0,0,0-.937,1.5c-.018,1.892-.03,3.784-.061,5.676-.005.311.152.761-.292.866-.384.091-.7-.193-.947-.484a2.05,2.05,0,0,1-.382-1.433q.008-5.273,0-10.545a3.433,3.433,0,0,0-2.5-3.522c-1.317.159-1.95,1.148-2.589,2.13,0,.778.007,1.555.007,2.333q0,4.667,0,9.333c0,.293.075.655-.289.792-.331.125-.571-.114-.8-.318a2.479,2.479,0,0,1-.71-2.033c0-3.922-.077-7.848.035-11.767a3.952,3.952,0,0,0-2.257-4.038,3.452,3.452,0,0,0-2.872,3.51c-.022.589.188,1.21-.171,1.768a2.375,2.375,0,0,1,.181,1.088q0,3.193,0,6.386c0,1.858.005,3.717-.006,5.575,0,.314.122.732-.328.855-.38.1-.624-.183-.856-.432a2.052,2.052,0,0,1-.438-1.514c.007-3.21-.088-6.423.036-9.628.079-2.051-.429-3.649-2.3-4.658a3.368,3.368,0,0,0-2.922,3.663c-.047,2.327-.012,4.656-.017,6.984q-.009,4.2-.024,8.4a3.949,3.949,0,0,1,.139,1.6c.005.194.052.442-.165.544-.282.133-.422-.141-.578-.294-1.034-1.02-2.119-2-3.07-3.09a4.631,4.631,0,0,0-5.118-1.73l.016-.006-.206.012a3.811,3.811,0,0,0,.437,5.212c1.8,1.871,3.76,3.579,5.427,5.577l.236.188-.016-.018c.169.091.327.187.22.421l-.012-.017c.246-.106.374.083.509.218,1.914,1.909,3.84,3.807,5.729,5.74A3.729,3.729,0,0,1,1964.235,1108.63Z" transform="translate(-1948.631 -1019.636)" fill="#fedf7d"/>
      <path id="Trazado_145331" data-name="Trazado 145331" d="M1787.037,828.17a28.33,28.33,0,0,0-16.5,10.6,28.351,28.351,0,0,1,1.067,4.524,17.811,17.811,0,0,1-6.417,16.045c-.1.089-.195.187-.292.28l.02,6.925,1.211-.068a1.39,1.39,0,0,0-.238-.85,1.716,1.716,0,0,1,.041-1.966,1.675,1.675,0,0,1,1.992-.437c.031-1.112.085-2.224.084-3.337,0-.933.381-1.182,1.334-1.192a13.119,13.119,0,0,0,12.452-7.8,4.343,4.343,0,0,1,.3-.44,14.875,14.875,0,0,0,2.723,4.225,16.329,16.329,0,0,0,5.863,3.534c.758.133,1.512.32,2.276.389,2.951.264,5.912.058,8.868.126.364-.029.727-.078,1.091-.083,1.809-.025,3.618-.037,5.426-.054a34.652,34.652,0,0,0-1.231-11.011,28.23,28.23,0,0,0-19.5-19.033A.921.921,0,0,1,1787.037,828.17Z" transform="translate(-1735.873 -827.526)" fill="#26457d"/>
      <path id="Trazado_145332" data-name="Trazado 145332" d="M1969.678,1016.855l-1.211.068a9.554,9.554,0,0,0-2.286,1.279,5.916,5.916,0,0,0,1.736,10.041c.188.075.374.155.561.233l3,.222q0-1.757,0-3.515c-.54.007-1.081.046-1.618.014a2.5,2.5,0,0,1-.645-4.884,7.5,7.5,0,0,1,1.9-.2A12.219,12.219,0,0,0,1969.678,1016.855Z" transform="translate(-1939.423 -977.91)" fill="#fdcabd"/>
      <path id="Trazado_145333" data-name="Trazado 145333" d="M2000.047,1069.089a3.952,3.952,0,0,1,2.257,4.038c-.112,3.919-.032,7.844-.035,11.767a2.479,2.479,0,0,0,.71,2.033c.231.2.471.442.8.318.365-.137.289-.5.289-.792q.008-4.667,0-9.333c0-.778,0-1.555-.007-2.333s.016-1.554-.025-2.329A3.387,3.387,0,0,0,2000.047,1069.089Z" transform="translate(-1979.321 -1019.517)" fill="#fdc152"/>
      <path id="Trazado_145334" data-name="Trazado 145334" d="M2033.958,1083.521c1.871,1.009,2.379,2.607,2.3,4.658-.124,3.205-.029,6.418-.036,9.628a2.052,2.052,0,0,0,.438,1.514c.231.249.475.536.856.432.45-.123.326-.541.328-.855.012-1.858.006-3.717.006-5.575q0-3.193,0-6.386a2.377,2.377,0,0,0-.181-1.088A3.227,3.227,0,0,0,2033.958,1083.521Z" transform="translate(-2019.987 -1030.999)" fill="#fdc152"/>
      <path id="Trazado_145335" data-name="Trazado 145335" d="M1966.728,1086.108a3.433,3.433,0,0,1,2.5,3.522q.011,5.272,0,10.545a2.049,2.049,0,0,0,.382,1.433c.249.29.564.574.947.484.443-.1.286-.554.292-.866.031-1.892.043-3.784.061-5.676q-.013-3.135-.026-6.269a3.529,3.529,0,0,0-2.288-3.165.274.274,0,0,1-.161-.063A2.65,2.65,0,0,0,1966.728,1086.108Z" transform="translate(-1939.394 -1032.969)" fill="#fdc152"/>
      <path id="Trazado_145336" data-name="Trazado 145336" d="M2067.039,1157.278a4.631,4.631,0,0,1,5.118,1.73c.95,1.093,2.036,2.07,3.07,3.09.156.153.3.427.578.294.217-.1.17-.351.165-.544a3.951,3.951,0,0,0-.139-1.6c-.962-.946-1.929-1.888-2.886-2.84-1.856-1.846-3.323-2.041-5.613-.735C2067.246,1156.881,2066.958,1156.99,2067.039,1157.278Z" transform="translate(-2064.823 -1088.678)" fill="#fdc152"/>
      <path id="Trazado_145337" data-name="Trazado 145337" d="M1964.109,1076.623a.272.272,0,0,0,.161.063c.866-.969,1.017-.98,2.845-.2q0-1.078,0-2.157l-3-.222Q1964.115,1075.365,1964.109,1076.623Z" transform="translate(-1935.066 -1023.54)" fill="#26457d"/>
      <path id="Trazado_145338" data-name="Trazado 145338" d="M1763.948,845.862a.317.317,0,0,0,.409.217C1764.3,845.854,1764.134,845.84,1763.948,845.862Z" transform="translate(-1691.676 -841.621)" fill="#9c66d4"/>
      <path id="Trazado_145339" data-name="Trazado 145339" d="M1765.905,845.129l.282.16A.231.231,0,0,0,1765.905,845.129Z" transform="translate(-1693.904 -841.04)" fill="#9c66d4"/>
      <path id="Trazado_145341" data-name="Trazado 145341" d="M1941.186,1162.961c.016-3.549.07-7.1.031-10.648a9.18,9.18,0,0,1,1.427-5.183,13.075,13.075,0,0,0,1.957-7.228,35.821,35.821,0,0,1,.085-4.855c-.036-.4-.1-.8-.1-1.206-.01-2.571,0-5.142-.008-7.713-.008-1.882-.516-2.592-2.279-3.258l-1.207.068c1.461,1.187,1.453,2.807,1.431,4.495-.054,4.157-.069,8.316,0,12.472a13.312,13.312,0,0,1-2.093,7.592,7.682,7.682,0,0,0-1.206,4.318c.026,3.446-.024,6.893-.043,10.34A7,7,0,0,0,1941.186,1162.961Z" transform="translate(-1907.575 -1062.406)" fill="#fdc152"/>
      <path id="Trazado_145343" data-name="Trazado 145343" d="M2081.023,1217.385c.107-.234-.051-.331-.22-.421A.33.33,0,0,0,2081.023,1217.385Z" transform="translate(-2072.694 -1137.4)" fill="#9d66d4"/>
      <path id="Trazado_145344" data-name="Trazado 145344" d="M2082.2,1216.315l-.236-.188Z" transform="translate(-2074.077 -1136.733)" fill="#9d66d4"/>
      <path id="Trazado_145345" data-name="Trazado 145345" d="M2111,1162.93l.206-.012Z" transform="translate(-2108.978 -1094.324)" fill="#fdc152"/>
      <path id="Trazado_145346" data-name="Trazado 145346" d="M1821.56,1235.893c-.006-2.558-.016-5.116-.014-7.675,0-.594-.068-1.048-.843-.733-3.466,1.408-7.108,1.295-10.743,1.236a7.5,7.5,0,0,0,5.915,8.214A6.992,6.992,0,0,0,1821.56,1235.893Z" transform="translate(-1758.211 -1145.703)" fill="#fddbcd"/>
      <path id="Trazado_145347" data-name="Trazado 145347" d="M1749.681,1013.568c-3.383,1.611-6.894,2.92-10.33,4.407-.222.1-.6.333-.716.011-.17-.475-.486-1-.087-1.53q1.1-1.452,2.2-2.9,4.734-6.186,9.475-12.365a4.108,4.108,0,0,1,.517-.479,3.185,3.185,0,0,1,.827-1.251c.554-.693.87-1.413.3-2.2s-1.373-.716-2.179-.358l-11.383,14.822c-.526.693-1.047,1.388-1.58,2.076-.233.3-.451.544-.914.268a6.305,6.305,0,0,0-3.795-.7c.272.131.541.268.816.392a5.3,5.3,0,0,1,3.474,5.39c-.072,2.529,0,5.062-.018,7.594a13.787,13.787,0,0,1-6.161,11.565,18.337,18.337,0,0,1-6.621,2.625,14.618,14.618,0,0,0,14.956-11.961,36.423,36.423,0,0,0,.247-6.474c0-.536.035-.986.635-1.231,3.441-1.4,6.874-2.829,10.31-4.247.7-.314,1.4-.62,2.094-.946a1.523,1.523,0,1,0-1.126-2.818C1750.311,1013.363,1750,1013.464,1749.681,1013.568Z" transform="translate(-1671.94 -961.797)" fill="#ddd9ea"/>
      <path id="Trazado_145348" data-name="Trazado 145348" d="M1739.388,996.88l11.384-14.822c-.072-1.067-.169-2.134-.205-3.2-.021-.605-.266-.807-.863-.8-1.4.017-2.81-.023-4.214-.04-1.809.017-3.617.03-5.426.054-.364,0-.728.054-1.091.083a13.067,13.067,0,0,0,.22,2.874c1.131-.654,2.006-.58,2.569.217.579.82.307,1.737-.751,2.566a7.479,7.479,0,0,1-1.85.982q.018,5.459.039,10.918A1.7,1.7,0,0,0,1739.388,996.88Z" transform="translate(-1673.021 -946.955)" fill="#fdcabd"/>
      <path id="Trazado_145349" data-name="Trazado 145349" d="M2002.831,840.247c7.263,1.627,12.178,7.552,12.181,14.683,0,7.516-4.776,13.33-12.368,15.047-.108-.313-.4-.318-.653-.4a14.951,14.951,0,0,1-9.688-8.68c-.574-1.333-1.222-2.707-.876-4.255q2.63,3.288,5.261,6.576c1.575,1.965,3.329,1.818,4.541-.385q2.274-4.132,4.538-8.271c.8-1.453,1.6-2.9,2.387-4.36.837-1.546.579-2.927-.66-3.612-1.275-.7-2.559-.206-3.42,1.327-.1.177-.19.358-.288.536-1.594,2.906-3.2,5.8-4.77,8.722-.357.666-.585.786-1.088.123-1.1-1.455-2.288-2.848-3.394-4.3a2.689,2.689,0,0,0-2.815-1.178c-.212-.194-.152-.417-.086-.654a14.934,14.934,0,0,1,6.5-8.839A27.282,27.282,0,0,1,2002.831,840.247Z" transform="translate(-1982.009 -837.15)" fill="#f8f5f5"/>
      <path id="Trazado_145350" data-name="Trazado 145350" d="M1977.122,839.074a27.282,27.282,0,0,0-4.7,2.082,14.934,14.934,0,0,0-6.5,8.839c-.065.237-.126.46.086.654-1.912,1.054-2.173,2.469-.775,4.184.168.206.321.425.482.638-.346,1.548.3,2.922.876,4.255a14.951,14.951,0,0,0,9.688,8.68c.254.08.545.085.653.4a14.774,14.774,0,0,1-12.775-3.573,14.242,14.242,0,0,1-4.861-8.645,15.017,15.017,0,0,1,7.56-15.911A14.668,14.668,0,0,1,1977.122,839.074Z" transform="translate(-1956.299 -835.979)" fill="#ddd9ea"/>
      <path id="Trazado_145351" data-name="Trazado 145351" d="M1827.241,1043.736a18.34,18.34,0,0,0,6.621-2.625,13.787,13.787,0,0,0,6.161-11.565c.015-2.531-.054-5.065.019-7.594a5.3,5.3,0,0,0-3.474-5.39c-.275-.123-.544-.261-.816-.392l-.61-.018c-1.716.348-2.724-.309-3.362-1.979a5.9,5.9,0,0,0-3.526-3.17,6.076,6.076,0,0,1-1.422-.5l-2.237-.029a10.335,10.335,0,0,0-4.268.606,7.817,7.817,0,0,0-4.113,4.38c-.17.385-.382.71-.884.7-.454-.012-.641-.305-.795-.663-1.317-3.066-2.585-6.154-3.973-9.187-.922-2.014-1.527-4.182-2.84-6.012a1.675,1.675,0,0,0-1.992.437,1.716,1.716,0,0,0-.041,1.966,1.389,1.389,0,0,1,.238.85,12.193,12.193,0,0,1,1.437,3.257,2.1,2.1,0,0,1,.424,1.416c.6.27.685.889.906,1.394.918,2.093,1.7,4.253,2.732,6.287a2.455,2.455,0,0,1-.253,3c-.343.435-.591.457-.988.205l-2.463-1.562c-1.828-.778-1.979-.767-2.845.2a3.529,3.529,0,0,1,2.288,3.166l.558.334a5.275,5.275,0,0,0,.715.377,2.751,2.751,0,0,1,1.954,3.442c1.763.666,2.271,1.375,2.279,3.258.011,2.571,0,5.142.008,7.713,0,.4.067.8.1,1.206,3.141,4.577,7.605,6.51,13.031,6.524Zm-1.874-12.15h-9.325c-.237,0-.473.008-.709,0a1.586,1.586,0,0,1-1.694-1.62c.016-.85.69-1.419,1.74-1.42q9.933-.009,19.867,0a3.566,3.566,0,0,1,.506.018,1.447,1.447,0,0,1,.951,2.382,1.713,1.713,0,0,1-1.5.656C1831.922,1031.575,1828.645,1031.586,1825.367,1031.586Zm.8-12.387c-1.057,0-1.9.035-2.748-.007a3.278,3.278,0,0,1-3.089-3.177,3.241,3.241,0,0,1,2.833-3.288c1.791-.061,3.587-.062,5.378.005a3.186,3.186,0,0,1,2.916,2.674,3.269,3.269,0,0,1-1.722,3.376C1828.519,1019.478,1827.216,1019.069,1826.169,1019.2Zm-.788,6.9c-2.7,0-5.407.015-8.11-.006-1.356-.011-2.111-.892-1.776-2.08.285-1.011,1.159-1.141,2.031-1.143,5.17-.012,10.34,0,15.51-.009a2.87,2.87,0,0,1,1.285.238,1.574,1.574,0,0,1,1,1.612,1.385,1.385,0,0,1-1.23,1.293,6.085,6.085,0,0,1-1.105.093C1830.45,1026.105,1827.916,1026.1,1825.381,1026.1Zm-.019,11.363c-2.332,0-4.664.017-7-.008a1.836,1.836,0,0,1-1.859-1.644,1.9,1.9,0,0,1,1.83-1.578c.1-.007.2,0,.3,0q6.692,0,13.384,0a3.194,3.194,0,0,1,1.19.2,1.4,1.4,0,0,1,.906,1.341,1.354,1.354,0,0,1-.711,1.354,2.833,2.833,0,0,1-1.458.345C1829.756,1037.46,1827.559,1037.467,1825.362,1037.464Z" transform="translate(-1775.673 -964.6)" fill="#f8f5f5"/>
      <path id="Trazado_145352" data-name="Trazado 145352" d="M1710.228,1035.54c0,2.552,0,2.552,2.549,2.55a3.773,3.773,0,0,0,1.966-.317,2.413,2.413,0,0,0,1.322-2.33,2.47,2.47,0,0,0-1.665-2.218,4.072,4.072,0,0,0-1.592-.206C1710.228,1033.015,1710.228,1033.014,1710.228,1035.54Z" transform="translate(-1632.484 -990.792)" fill="#e9ac9d"/>
      <path id="Trazado_145353" data-name="Trazado 145353" d="M1953.277,1107.874a2.751,2.751,0,0,0-1.954-3.443,5.256,5.256,0,0,1-.715-.377,17.686,17.686,0,0,0,.4,4.438l1.058-.551Z" transform="translate(-1918.557 -1047.41)" fill="#fddbcd"/>
      <path id="Trazado_145354" data-name="Trazado 145354" d="M1963.076,1107.184a17.686,17.686,0,0,1-.4-4.438l-.558-.333q.013,3.134.026,6.269A4.053,4.053,0,0,1,1963.076,1107.184Z" transform="translate(-1930.621 -1046.101)" fill="#26457d"/>
      <path id="Trazado_145355" data-name="Trazado 145355" d="M1880.884,950.7c1.312,1.83,1.918,4,2.84,6.012,1.388,3.033,2.656,6.121,3.973,9.187.153.357.341.651.795.663.5.013.714-.311.884-.7a7.817,7.817,0,0,1,4.113-4.38,10.332,10.332,0,0,1,4.268-.606l.021-18.723a14.879,14.879,0,0,1-2.723-4.225,4.343,4.343,0,0,0-.3.44,13.119,13.119,0,0,1-12.452,7.8c-.952.01-1.334.259-1.334,1.192C1880.969,948.475,1880.915,949.588,1880.884,950.7Zm8.139-.991.264-.306a2.92,2.92,0,0,1,5.333,1.871c.025,1.922.054,3.848-.022,5.767a2.8,2.8,0,0,1-3.008,2.856,2.869,2.869,0,0,1-2.762-3.015c-.021-1.248,0-2.5,0-3.744-.466-.043-.932-.084-1.4-.13a5.4,5.4,0,0,1-3.329-1.563,1.582,1.582,0,0,1-.18-2.269,1.536,1.536,0,0,1,2.262-.167A3.175,3.175,0,0,0,1889.023,949.709Z" transform="translate(-1848.834 -915.007)" fill="#fddbcd"/>
      <path id="Trazado_145356" data-name="Trazado 145356" d="M1799.719,997.026l.61.018a6.305,6.305,0,0,1,3.795.7c.462.276.681.033.914-.268.532-.687,1.054-1.383,1.58-2.076a1.7,1.7,0,0,1-.19-1.169q-.026-5.459-.039-10.918a7.476,7.476,0,0,1-2.422.169c-.034,1.448.008,2.9-.123,4.343a2.749,2.749,0,0,1-2.98,2.541,2.8,2.8,0,0,1-2.731-2.722q-.095-3.184.005-6.372a2.672,2.672,0,0,1,1.883-2.512,2.789,2.789,0,0,1,3.067.7c.245.229.465.484.7.727a2.7,2.7,0,0,0,2.637-.637,13.067,13.067,0,0,1-.22-2.874c-2.956-.068-5.916.137-8.868-.126-.764-.068-1.518-.256-2.276-.389q0,7.8-.006,15.6A9.275,9.275,0,0,1,1799.719,997.026Z" transform="translate(-1740.25 -945.473)" fill="#fddbcd"/>
      <path id="Trazado_145357" data-name="Trazado 145357" d="M1857.879,977.877q0-7.8.006-15.6a16.33,16.33,0,0,1-5.863-3.534L1852,977.467l2.237.028A10.936,10.936,0,0,1,1857.879,977.877Z" transform="translate(-1803.078 -931.595)" fill="#fdcabd"/>
      <path id="Trazado_145358" data-name="Trazado 145358" d="M1943.929,1049.205l2.463,1.562c.4.252.644.23.988-.205a2.455,2.455,0,0,0,.253-3c-1.032-2.034-1.814-4.193-2.732-6.287-.221-.5-.307-1.124-.906-1.394q-.032,1.827-.062,3.654,0,1.757,0,3.515Q1943.93,1048.127,1943.929,1049.205Z" transform="translate(-1911.88 -996.261)" fill="#fddbcd"/>
      <path id="Trazado_145359" data-name="Trazado 145359" d="M1967.822,1037.973q.031-1.827.063-3.654a2.1,2.1,0,0,0-.424-1.416,7.483,7.483,0,0,0-1.9.2,2.5,2.5,0,0,0,.645,4.884C1966.742,1038.019,1967.283,1037.98,1967.822,1037.973Z" transform="translate(-1935.77 -990.701)" fill="#e9ac9d"/>
      <path id="Trazado_145360" data-name="Trazado 145360" d="M1782.076,995.055a5.446,5.446,0,0,0,4.272-1.151c1.059-.829,1.33-1.746.751-2.566-.563-.8-1.438-.871-2.569-.217a2.7,2.7,0,0,1-2.637.637A17.218,17.218,0,0,1,1782.076,995.055Z" transform="translate(-1718.36 -957.048)" fill="#26457d"/>
      <path id="Trazado_145361" data-name="Trazado 145361" d="M1986.446,880.33c-.16-.213-.313-.431-.482-.638-1.4-1.715-1.137-3.13.775-4.184a2.689,2.689,0,0,1,2.815,1.178c1.106,1.453,2.291,2.846,3.394,4.3.5.663.73.543,1.088-.123,1.567-2.92,3.176-5.817,4.77-8.722.1-.178.188-.359.288-.536.861-1.533,2.146-2.031,3.42-1.327,1.239.684,1.5,2.065.66,3.612-.789,1.457-1.591,2.907-2.387,4.36q-2.268,4.136-4.538,8.271c-1.212,2.2-2.967,2.35-4.542.385Q1989.074,883.62,1986.446,880.33Z" transform="translate(-1977.028 -860.837)" fill="#78c1a4"/>
      <path id="Trazado_145362" data-name="Trazado 145362" d="M1831.381,1143.031c3.278,0,6.555-.011,9.832.01a1.713,1.713,0,0,0,1.5-.656,1.447,1.447,0,0,0-.951-2.382,3.566,3.566,0,0,0-.506-.018q-9.933,0-19.867,0c-1.05,0-1.724.57-1.74,1.42a1.586,1.586,0,0,0,1.694,1.62c.236.012.473,0,.709,0Z" transform="translate(-1781.686 -1076.045)" fill="#ddd9ea"/>
      <path id="Trazado_145363" data-name="Trazado 145363" d="M1852.786,1068.386c1.047-.13,2.35.278,3.568-.417a3.269,3.269,0,0,0,1.722-3.376,3.186,3.186,0,0,0-2.916-2.674c-1.79-.068-3.587-.066-5.378-.005a3.24,3.24,0,0,0-2.833,3.288,3.278,3.278,0,0,0,3.089,3.177C1850.882,1068.421,1851.729,1068.386,1852.786,1068.386Z" transform="translate(-1802.29 -1013.786)" fill="#ddd9ea"/>
      <path id="Trazado_145364" data-name="Trazado 145364" d="M1838.08,1115.26c2.534,0,5.069,0,7.6,0a6.084,6.084,0,0,0,1.105-.093,1.385,1.385,0,0,0,1.23-1.293,1.574,1.574,0,0,0-1-1.613,2.87,2.87,0,0,0-1.285-.238c-5.17.005-10.34,0-15.51.009-.871,0-1.746.132-2.03,1.143-.334,1.188.42,2.07,1.776,2.08C1832.673,1115.274,1835.377,1115.259,1838.08,1115.26Z" transform="translate(-1788.371 -1053.758)" fill="#ddd9ea"/>
      <path id="Trazado_145365" data-name="Trazado 145365" d="M1842.9,1171.251c2.2,0,4.394-.005,6.59.006a2.833,2.833,0,0,0,1.458-.345,1.354,1.354,0,0,0,.711-1.354,1.4,1.4,0,0,0-.906-1.341,3.194,3.194,0,0,0-1.19-.2q-6.692.005-13.384,0c-.1,0-.2,0-.3,0a1.9,1.9,0,0,0-1.83,1.578,1.836,1.836,0,0,0,1.859,1.644C1838.237,1171.267,1840.569,1171.25,1842.9,1171.251Z" transform="translate(-1793.211 -1098.386)" fill="#ddd9ea"/>
      <path id="Trazado_145366" data-name="Trazado 145366" d="M1832.674,1051.325a10.935,10.935,0,0,0-3.641-.382,6.068,6.068,0,0,0,1.422.5,5.9,5.9,0,0,1,3.526,3.17c.638,1.67,1.647,2.328,3.362,1.979A9.276,9.276,0,0,0,1832.674,1051.325Z" transform="translate(-1777.874 -1005.044)" fill="#ddd9ea"/>
      <path id="Trazado_145367" data-name="Trazado 145367" d="M1896.326,993.046c0,1.248-.025,2.5,0,3.744a2.869,2.869,0,0,0,2.762,3.015,2.8,2.8,0,0,0,3.008-2.856c.076-1.92.047-3.845.022-5.767a2.92,2.92,0,0,0-5.333-1.871l-.264.306A14.123,14.123,0,0,0,1896.326,993.046Z" transform="translate(-1856.329 -954.915)" fill="#243a6c"/>
      <path id="Trazado_145368" data-name="Trazado 145368" d="M1929.32,994.99a14.123,14.123,0,0,1,.191-3.429,3.175,3.175,0,0,1-2.835-.7,1.536,1.536,0,0,0-2.262.167,1.582,1.582,0,0,0,.18,2.269,5.4,5.4,0,0,0,3.329,1.563C1928.389,994.906,1928.855,994.947,1929.32,994.99Z" transform="translate(-1889.323 -956.859)" fill="#26457d"/>
      <path id="Trazado_145369" data-name="Trazado 145369" d="M1813.791,992.913a17.218,17.218,0,0,0-.183-3.3c-.232-.243-.452-.5-.7-.727a2.789,2.789,0,0,0-3.067-.7,2.672,2.672,0,0,0-1.883,2.512q-.1,3.183-.005,6.372a2.8,2.8,0,0,0,2.731,2.722,2.749,2.749,0,0,0,2.98-2.541C1813.8,995.816,1813.757,994.361,1813.791,992.913Z" transform="translate(-1750.075 -954.906)" fill="#243a6c"/>
    </g>
  </g>
</svg>
