<svg xmlns="http://www.w3.org/2000/svg" width="104.757" height="104.757" viewBox="0 0 104.757 104.757">
  <g id="Grupo_75203" data-name="Grupo 75203" transform="translate(-452 4631.256)">
    <g id="Grupo_75191" data-name="Grupo 75191" transform="translate(174.757 -8755.014)">
      <circle id="Elipse_4656" data-name="Elipse 4656" cx="52.378" cy="52.378" r="52.378" transform="translate(277.243 4123.757)" fill="#7e5ee3"/>
      <g id="Grupo_74958" data-name="Grupo 74958" transform="translate(51.227 2789.887)">
        <path id="Trazado_145417" data-name="Trazado 145417" d="M256.044,1370.9a.946.946,0,0,0,1.861.141,2.73,2.73,0,0,0,.048-.7c0-4.808.009-9.617-.01-14.425,0-.471.1-.6.586-.6q16.189.025,32.378,0c.461,0,.607.084.6.582-.03,2.564-.018,5.129-.012,7.694a2.023,2.023,0,0,0,2.261,2.25c2.586,0,5.172.015,7.757-.013.493-.005.6.134.587.6-.033,1.345-.005,2.692-.015,4.039a.994.994,0,0,0,.537,1.007c.692.343,1.377-.157,1.384-1.034.014-1.561-.027-3.121.016-4.68a2.738,2.738,0,0,0-.9-2.155q-4.695-4.644-9.343-9.335a3.151,3.151,0,0,0-1.3-.871H257.332a2.137,2.137,0,0,0-1.315,2.234c.038,4.893.017,9.788.017,14.682A5.119,5.119,0,0,0,256.044,1370.9Zm37.37-14.034,7.062,7.062h-4.952c-.577,0-1.155-.009-1.731,0-.26.006-.384-.057-.383-.352C293.419,1361.325,293.415,1359.069,293.415,1356.865Z" fill="#fff"/>
        <path id="Trazado_145418" data-name="Trazado 145418" d="M339.366,1383.018q-.512-.262-1.032-.509a2.571,2.571,0,0,0-3.7,1.257q-9.425,19.124-18.841,38.252a2.09,2.09,0,0,0-.22,1.113c.045.575.055,1.153.081,1.73h-.014c.035.619.091,1.237.1,1.857a1.38,1.38,0,0,0,.748,1.375,1.436,1.436,0,0,0,1.558-.211q1.434-1.023,2.887-2.018a2.607,2.607,0,0,0,.89-1.06c1.135-2.339,2.292-4.667,3.442-7,.537-1.09,1.084-2.175,1.608-3.271a.981.981,0,0,0-.478-1.435c-.513-.188-.963.036-1.275.666-.909,1.833-1.816,3.667-2.707,5.508-.162.336-.3.44-.657.225a10.355,10.355,0,0,0-1.547-.762c-.445-.173-.5-.339-.282-.781,1.837-3.68,3.643-7.374,5.459-11.064q3.542-7.2,7.076-14.4c.2-.415.365-.526.789-.263a10.523,10.523,0,0,0,1.492.729c.394.165.476.332.266.746-.986,1.937-1.933,3.893-2.894,5.842q-2.5,5.076-5,10.152c-.336.684-.206,1.205.343,1.48s1.034.041,1.383-.638c.039-.076.077-.152.114-.229q2.937-5.964,5.874-11.93,2.881-5.85,5.757-11.7A2.572,2.572,0,0,0,339.366,1383.018Zm-21.758,42.819v-2.4l2.016.99Zm3.436-4.556a2,2,0,0,1,.28.211c-.23.44-.417.843-.648,1.218-.08.13-.232-.017-.335-.067-.611-.292-1.206-.62-1.827-.886-.342-.147-.3-.3-.171-.574.478-1,.469-1.007,1.45-.522C320.211,1420.867,320.631,1421.068,321.044,1421.281Zm15.081-29.9c-.068.124-.2.033-.285-.009-.67-.326-1.332-.669-2.006-.986-.211-.1-.207-.183-.131-.385.438-1.165.447-1.176,1.568-.623.382.189.76.386,1.143.57.133.064.26.119.306.256C336.512,1390.623,336.33,1391.008,336.125,1391.381Zm2.862-5.873a3.151,3.151,0,0,1-.139.373c-.341.707-.7,1.4-1.03,2.118-.15.329-.3.38-.62.2-.554-.31-1.131-.583-1.712-.84-.292-.129-.385-.241-.213-.559.393-.728.75-1.475,1.109-2.22a.706.706,0,0,1,1.1-.361c.359.183.723.357,1.082.54A.693.693,0,0,1,338.987,1385.507Z" transform="translate(-28.157 -13.598)" fill="#fff"/>
        <path id="Trazado_145419" data-name="Trazado 145419" d="M303.961,1416.856a.877.877,0,0,0-.9-.682.864.864,0,0,0-.89.6,2.468,2.468,0,0,0-.066.759c0,5.772-.013,11.544.013,17.315,0,.611-.128.764-.753.763q-21.325-.031-42.649,0c-.6,0-.768-.108-.767-.744q.033-20.49.015-40.981a3.161,3.161,0,0,0-.052-.762.943.943,0,0,0-1.859.142c-.016.17-.009.342-.009.512q0,20.78,0,41.558c0,1.583.613,2.184,2.22,2.184h43.546c1.579,0,2.212-.631,2.212-2.208q0-8.883,0-17.765A2.66,2.66,0,0,0,303.961,1416.856Z" transform="translate(-0.014 -18.435)" fill="#fff"/>
        <path id="Trazado_145420" data-name="Trazado 145420" d="M264.784,1422.78a1.838,1.838,0,0,0,1.891,1.915q2.531.043,5.063,0a1.876,1.876,0,0,0,1.913-1.974q.019-2.467,0-4.935a1.8,1.8,0,0,0-1.779-1.951q-2.657-.084-5.317,0a1.768,1.768,0,0,0-1.772,1.881c-.021.832,0,1.666,0,2.5C264.78,1421.071,264.763,1421.926,264.784,1422.78Zm1.908-4.654c0-.3.094-.407.4-.4q2.143.019,4.286,0c.285,0,.359.105.357.375-.01,1.428-.017,2.858,0,4.286.006.375-.162.407-.46.4-.7-.015-1.408,0-2.111,0-.683,0-1.365-.017-2.047.007-.343.013-.434-.11-.431-.438Q266.713,1420.237,266.692,1418.126Z" transform="translate(-4.14 -29.498)" fill="#fff"/>
        <path id="Trazado_145421" data-name="Trazado 145421" d="M264.783,1400.8a1.8,1.8,0,0,0,1.818,1.912c1.75.046,3.5.047,5.254-.006a1.816,1.816,0,0,0,1.8-1.938q.02-2.468,0-4.936a1.864,1.864,0,0,0-1.895-1.987c-1.708-.032-3.418-.034-5.127,0a1.815,1.815,0,0,0-1.846,1.889c-.022.854,0,1.709-.005,2.563C264.779,1399.133,264.764,1399.966,264.783,1400.8Zm1.909-4.656c0-.309.1-.4.4-.4,1.409.014,2.818.018,4.227,0,.355-.005.421.125.418.443q-.021,2.113,0,4.227c0,.3-.083.412-.4.4-.7-.02-1.409-.006-2.113-.006-.683,0-1.366-.013-2.049.005-.333.009-.5-.048-.492-.446C266.712,1398.961,266.705,1397.552,266.691,1396.143Z" transform="translate(-4.14 -19.107)" fill="#fff"/>
        <path id="Trazado_145422" data-name="Trazado 145422" d="M264.788,1444.816a1.824,1.824,0,0,0,1.885,1.847q2.531.024,5.064,0a1.856,1.856,0,0,0,1.913-1.9q.03-2.531,0-5.063a1.83,1.83,0,0,0-1.9-1.9q-2.531-.027-5.064,0a1.806,1.806,0,0,0-1.9,1.887c-.021.833,0,1.667,0,2.5h0C264.782,1443.065,264.761,1443.941,264.788,1444.816Zm1.9-4.676c0-.327.075-.449.423-.436.7.026,1.409.008,2.113.008s1.41.013,2.113-.006c.3-.008.4.077.4.391-.016,1.43-.014,2.861,0,4.292,0,.274-.067.368-.355.365q-2.145-.021-4.291,0c-.3,0-.405-.066-.4-.385Q266.715,1442.255,266.69,1440.141Z" transform="translate(-4.14 -39.897)" fill="#fff"/>
        <path id="Trazado_145423" data-name="Trazado 145423" d="M273.643,1373.745a1.822,1.822,0,0,0-1.835-1.84q-2.594-.043-5.191,0a1.792,1.792,0,0,0-1.829,1.831q-.041,2.6,0,5.191a1.8,1.8,0,0,0,1.885,1.839c.833.016,1.666,0,2.5,0h2.5c.043,0,.085,0,.128,0a1.838,1.838,0,0,0,1.843-1.83Q273.684,1376.341,273.643,1373.745Zm-2.3,5.106c-.7-.021-1.408-.006-2.112-.006-.725,0-1.451-.01-2.176.005-.275.006-.369-.073-.367-.359q.02-2.144,0-4.288c0-.31.09-.395.395-.392q2.144.022,4.288,0c.271,0,.368.066.365.354q-.021,2.145,0,4.288C271.739,1378.76,271.653,1378.86,271.343,1378.851Z" transform="translate(-4.137 -8.736)" fill="#fff"/>
        <path id="Trazado_145424" data-name="Trazado 145424" d="M306.774,1405.6a.864.864,0,0,0-.638-.983,2.311,2.311,0,0,0-.692-.071q-9.9-.005-19.794,0a2.678,2.678,0,0,0-.573.03.943.943,0,0,0-.738,1.159,1.016,1.016,0,0,0,1.128.733c3.374-.011,6.748-.005,10.121-.005h9.8a3.561,3.561,0,0,0,.576-.013A.882.882,0,0,0,306.774,1405.6Z" transform="translate(-13.374 -24.177)" fill="#fff"/>
        <path id="Trazado_145425" data-name="Trazado 145425" d="M285.8,1396.4a4.775,4.775,0,0,0-.64.021.876.876,0,0,0-.823.9.863.863,0,0,0,.711.934,2.962,2.962,0,0,0,.7.063q9.813,0,19.626,0a2.736,2.736,0,0,0,.821-.092.939.939,0,0,0-.129-1.793,3.629,3.629,0,0,0-.7-.035q-4.874,0-9.749,0Z" transform="translate(-13.388 -20.327)" fill="#fff"/>
        <path id="Trazado_145426" data-name="Trazado 145426" d="M304.879,1428.408a.92.92,0,0,0,1.006-1.049c-.055-.6-.46-.867-1.336-.867q-9.427,0-18.853,0a2.386,2.386,0,0,0-.757.088.862.862,0,0,0-.61.945.874.874,0,0,0,.739.849,3.615,3.615,0,0,0,.7.038q4.649,0,9.3,0h6.541C302.7,1428.416,303.789,1428.43,304.879,1428.408Z" transform="translate(-13.385 -34.556)" fill="#fff"/>
        <path id="Trazado_145427" data-name="Trazado 145427" d="M285.4,1420.27c.107,0,.214,0,.321,0q8.722,0,17.444,0a2.065,2.065,0,0,0,.761-.067.94.94,0,0,0,.561-1.3,1.068,1.068,0,0,0-1.121-.563c-2.971.008-5.943,0-8.915,0H290.6c-1.732,0-3.463-.005-5.195,0a.972.972,0,0,0-1.094.916C284.295,1419.847,284.719,1420.24,285.4,1420.27Z" transform="translate(-13.38 -30.703)" fill="#fff"/>
        <path id="Trazado_145428" data-name="Trazado 145428" d="M301.492,1442.2a.931.931,0,0,0,.9-.918.946.946,0,0,0-.89-.99,5.091,5.091,0,0,0-.576-.008H285.858a6.02,6.02,0,0,0-.641.008.942.942,0,0,0-.895.983.926.926,0,0,0,.888.923,3.96,3.96,0,0,0,.512.01H300.98A4.241,4.241,0,0,0,301.492,1442.2Z" transform="translate(-13.383 -41.076)" fill="#fff"/>
        <path id="Trazado_145429" data-name="Trazado 145429" d="M285.532,1384.523q7.406,0,14.812,0c.792,0,1.257-.365,1.256-.967s-.457-.955-1.257-.955q-3.687,0-7.374,0-3.719,0-7.438,0c-.762,0-1.2.337-1.216.925C284.3,1384.138,284.752,1384.523,285.532,1384.523Z" transform="translate(-13.38 -13.802)" fill="#fff"/>
        <path id="Trazado_145430" data-name="Trazado 145430" d="M285.089,1376.3a3.625,3.625,0,0,0,.639.026q3.589,0,7.179,0h3.781c1.3,0,2.607.01,3.91-.007a.95.95,0,0,0,1-.94.992.992,0,0,0-.935-.961,2.211,2.211,0,0,0-.256-.006q-7.466,0-14.934,0a1.532,1.532,0,0,0-.563.09.939.939,0,0,0,.176,1.793Z" transform="translate(-13.383 -9.933)" fill="#fff"/>
        <path id="Trazado_145431" data-name="Trazado 145431" d="M298.694,1448.511a3.756,3.756,0,0,0-.7-.036q-3.044,0-6.087,0-2.563,0-5.126,0c-.534,0-1.07-.014-1.6.024a.859.859,0,0,0-.845.88.878.878,0,0,0,.746.97,2.58,2.58,0,0,0,.571.047q6.247,0,12.5,0a2.056,2.056,0,0,0,.692-.09.936.936,0,0,0-.143-1.793Z" transform="translate(-13.388 -44.948)" fill="#fff"/>
      </g>
    </g>
  </g>
</svg>
