<svg xmlns="http://www.w3.org/2000/svg" width="91" height="91" viewBox="0 0 91 91">
  <g id="Grupo_75209" data-name="Grupo 75209" transform="translate(-334.065 -554.727)">
    <circle id="Elipse_4610" data-name="Elipse 4610" cx="45.5" cy="45.5" r="45.5" transform="translate(334.065 554.727)" fill="#7e5ee3"/>
    <g id="Grupo_74971" data-name="Grupo 74971" transform="translate(-1818.017 641.046) rotate(-17)">
      <path id="Trazado_145512" data-name="Trazado 145512" d="M2138.07,625.654a8.753,8.753,0,0,1-1.991-.083c-.281-.357-.116-.774-.14-1.164-.033-.552-.194-.991-.783-1.152h-.039c.03.012.033.048,0,.11-.806-.014-1.007.154-1.19,1,.018,1.806.342,1.437-1.455,1.441h-17.555c-.141-.025-.123-.137-.123-.233q.008-6.4.02-12.792c-.006-.711,0-1.422-.025-2.132-.011-.319.093-.418.414-.415,1.523.013,3.047.019,4.57-.007.433-.008.492.17.49.539-.013,2.5-.008,5-.009,7.495l.026.127a1.209,1.209,0,0,0,1.131.565c1.985-.006,3.97.006,5.954-.007.859-.006,1.165-.328,1.167-1.2.007-2.248,0-4.5,0-6.744,0-.221.027-.442.042-.662h0c.068-.146.2-.105.315-.105,1.534,0,3.068.01,4.6,0,.324,0,.475.071.464.433-.029.907-.024,1.815-.034,2.723v2.317c.008,1.554.012,3.109.028,4.663.008.758.286,1.042,1.045,1.107-.009.038-.016.076-.024.114a.979.979,0,0,0,.941-.889,4.138,4.138,0,0,0,.016-.426c-.007-8.857.019-17.715,0-26.573a3.148,3.148,0,0,0-.409-1.267,3.013,3.013,0,0,0-1.653-1.366,2.167,2.167,0,0,0-.83-.161q-8.675-.016-17.351,0a2.585,2.585,0,0,0-1.118.288,3.318,3.318,0,0,0-1.55,1.618,2.948,2.948,0,0,0-.241,1.239c0,2.464-.011,4.929,0,7.393,0,.781-.026,1.562,0,2.343-.03,2.868-.014,5.737-.007,8.605.01.787-.024,1.574.007,2.361-.03,2.845-.01,5.69-.008,8.536.028.6,0,1.205.011,1.806.006.377-.166.554-.545.544-.26-.007-.521.005-.782,0-.233-.009-.445-.052-.5-.331q.022-4.245,0-8.493c-.008-.786.025-1.573-.006-2.359.03-2.87.014-5.739.007-8.609-.01-.788.024-1.575-.007-2.363.03-2.869.014-5.739.007-8.609-.01-.786.024-1.572-.006-2.358.028-2.836.01-5.671.007-8.507a4.884,4.884,0,0,0-.371-2.052,3.883,3.883,0,0,0-2.055-1.978c-.22-.1-.465-.163-.582-.409a2.813,2.813,0,0,1-.058-.9c-.035-1.725.063-3.451-.054-5.175-.314-.7-.958-.753-1.587-.758-2.078-.016-4.156-.028-6.236.007-.363-.01-.724,0-1.086,0s-.566-.152-.545-.537c0-.6-.053-1.179-.784-1.364h-7.924a2.3,2.3,0,0,0-1.064.427,3.459,3.459,0,0,0-1.172,1.979c-.01.327-.006.655-.007.982a2.985,2.985,0,0,0,2.534,3c2.536-.01,5.073.076,7.609-.032.753-.287.839-.925.814-1.6-.018-.5.184-.678.68-.673q2.976.025,5.952,0c.494,0,.716.187.683.676a20.081,20.081,0,0,0,.106,2.414,3.3,3.3,0,0,1-.077,1.674,1.255,1.255,0,0,1-.531.392,3.745,3.745,0,0,0-2.127,3.187,27.95,27.95,0,0,0-.017,3.945,1.073,1.073,0,0,0,.943,1.1l.048,0v0c-.045-.021-.062-.05-.049-.088.82-.086,1.044-.331,1.047-1.159,0-1.073,0-2.145,0-3.217a1.153,1.153,0,0,1,.1-.707,1.882,1.882,0,0,1,3.687-.023.858.858,0,0,1,.094.586q.005,21.4,0,42.795c0,.1-.011.2-.018.3.008.078.017.155.026.233a1.177,1.177,0,0,0,1.291.627,5.471,5.471,0,0,1,.653.016h21.943c1.42-.007,2.84-.006,4.26-.026.325,0,.429.051.322.406a3.611,3.611,0,0,1-3.126,2.518c-1.418.051-2.839.006-4.259,0l-2.317,0-8.655,0-2.317,0-8.655,0c-.751,0-1.537.21-2.194-.362a1.507,1.507,0,0,1-.75-1.17h0a.923.923,0,0,1-.09-.589q0-18.746,0-37.493a1.187,1.187,0,0,1,.012-.121,1.227,1.227,0,0,0-.389-.641,1.627,1.627,0,0,0-.657-.137c.016-.035.026-.07.041-.105-.056,0-.111.005-.167.013-.864.29-.872,1-.858,1.729-.045,2.838-.016,5.677-.012,8.516.007.786-.025,1.572,0,2.357-.031,2.862-.008,5.725-.009,8.588.017.747-.008,1.493.008,2.241.033,1.651.01,3.3.019,5.039a10.081,10.081,0,0,0-2.688-2.092,12.41,12.41,0,0,0-1.948-.762,9.024,9.024,0,0,0-9.868,3.858,8.842,8.842,0,0,0-1.176,7.178,10.306,10.306,0,0,0,.74,1.892,9.132,9.132,0,0,0,4.482,4.18,7.662,7.662,0,0,0,2.333.57h.366a.541.541,0,0,1,.731,0h1.1c.546-.132,1.115-.066,1.66-.246a9.075,9.075,0,0,0,4.215-2.744c.192-.228.343-.287.47.04a4.124,4.124,0,0,0,2.778,2.228,1.93,1.93,0,0,0,.536.042h27.49a5.7,5.7,0,0,0,5.309-5.3A1.4,1.4,0,0,0,2138.07,625.654Zm-41.709-50.5c.005.177-.219.132-.35.131-.24,0-.479-.023-.719-.036-1.639.01-3.278.034-4.917.023a.888.888,0,0,1-.924-.927,4.741,4.741,0,0,1,0-.728.921.921,0,0,1,.984-.936c1.943-.007,3.887.009,5.83.016A8.4,8.4,0,0,1,2096.361,575.151Zm30.357,41.684c0,.069-.064.138-.1.208h0l0,0a1.477,1.477,0,0,1-.939.091,22.979,22.979,0,0,1-3.543-.09h0l-.023-.608v-2.316q.006-1.889.011-3.778c.265-.228.58-.1.869-.1,1.073-.017,2.145,0,3.218-.007.293,0,.516.028.515.41C2126.719,612.707,2126.723,614.771,2126.718,616.835Zm-3.022-23.917,2.925.015h0c.2.182.1.419.1.628.008,1.8,0,3.593,0,5.389,0,.794,0,.795-.772.784-.1,0-.2-.012-.3-.019-1.034.007-2.068,0-3.1.025-.333.007-.467-.088-.462-.443.021-1.6.02-3.2.026-4.805h0C2122.121,592.551,2121.74,592.923,2123.7,592.919Zm-8.9,1.328c0-.216-.058-.449.108-.64a.872.872,0,0,1,.879-.7c1.458-.01,2.916.015,4.374.027.2.18.094.417.1.622.013,2.465.013,4.931.017,7.4a1.128,1.128,0,0,0,1.136.619c.76-.022,1.522.007,2.284.013h2.32c.486-.007.971-.011,1.457-.021a.95.95,0,0,0,1.067-1.042c.023-.505.023-1.011.034-1.517a18.143,18.143,0,0,1,0-2.316c-.01-1.15-.014-2.3-.034-3.451,0-.265.1-.354.354-.347.7.019,1.4.021,2.1.03h.992c1.06-.068,1.695.077,1.935.847.013,1.936.031,3.872.037,5.808,0,.948-.016,1.9-.025,2.843v2.317c.008,1.109.012,2.218.029,3.326,0,.258-.085.36-.349.354-.751-.018-1.869-.021-2.619-.029h-.711l-2.317,0h-10.972l-2.073,0c-.236-.136-.117-.363-.117-.542Q2114.791,601.046,2114.8,594.247Zm-11.6,30.24a6.986,6.986,0,0,1-6.156,6.845,5.32,5.32,0,0,1-2.826-.207.277.277,0,0,1-.157-.052,6.64,6.64,0,0,1-4.392-3.994h0a5.922,5.922,0,0,1-.534-3.319,1.334,1.334,0,0,1,.05-.292,7.008,7.008,0,0,1,5.7-6.06,5.9,5.9,0,0,1,1.631-.095,5.71,5.71,0,0,1,2.433.588,6.635,6.635,0,0,1,3.917,4.354h0A5.051,5.051,0,0,1,2103.2,624.487Z" transform="translate(0 0)" fill="#fff"/>
      <path id="Trazado_145513" data-name="Trazado 145513" d="M2107.986,722.158a3.559,3.559,0,0,1-.343-.124l-.12-.051a1.171,1.171,0,0,1-.632.086,3.518,3.518,0,0,0-3.49,3.431.967.967,0,0,1-.107.6c.019.033.038.069.059.107a4.292,4.292,0,0,0,1.181,2.161,3.492,3.492,0,0,0,2.44.943,3.075,3.075,0,0,1,.849.044.342.342,0,0,1,.041.02c.05-.14.2-.16.324-.2a3.686,3.686,0,0,0,2.313-2.314c.044-.122.06-.282.209-.319-.006-.009-.013-.017-.019-.027a2.437,2.437,0,0,1-.053-.725A3.52,3.52,0,0,0,2107.986,722.158Zm-.989,5.507a1.981,1.981,0,1,1,2.011-1.983A1.956,1.956,0,0,1,2107,727.664Z" transform="translate(-10.872 -101.325)" fill="#fff"/>
    </g>
  </g>
</svg>
