<svg xmlns="http://www.w3.org/2000/svg" width="104.757" height="104.757" viewBox="0 0 104.757 104.757">
  <g id="Grupo_75198" data-name="Grupo 75198" transform="translate(-1080 4189.732)">
    <circle id="Elipse_4749" data-name="Elipse 4749" cx="52.378" cy="52.378" r="52.378" transform="translate(1080 -4189.732)" fill="#7e5ee3"/>
    <g id="Grupo_75189" data-name="Grupo 75189" transform="translate(709.038 -4214.939)">
      <path id="Trazado_145483" data-name="Trazado 145483" d="M472.829,72.145a3.769,3.769,0,0,0-3.621-3.784c-.6-.029-.6-.258-.6-.7q.014-9.7.006-19.4a5.567,5.567,0,0,0-5.9-5.93q-7.2,0-14.394,0a5.566,5.566,0,0,0-5.9,5.861c-.015,2.869-.006,5.739,0,8.609,0,.966.162,1.178,1.066,1.478.914-.313,1.046-.489,1.049-1.477,0-1.637,0-3.273.007-4.91,0-.219-.1-.466.1-.662h0c.205-.177.45-.084.674-.085,6.819,0,13.639.005,20.459-.014.567,0,.749.107.746.716-.026,5.621-.019,11.241-.009,16.861a1.333,1.333,0,0,1-.354,1.008,3.807,3.807,0,0,0-.917,2.312c-.2,1.964-.472,3.921-.621,5.887A.958.958,0,0,1,463.6,78.94c-.255.025-.511.045-.767.068-.7,0-1.408,0-2.111.014a.789.789,0,0,1-.6-.278,3.265,3.265,0,0,0-4.725-.016.952.952,0,0,1-.743.282c-.822-.011-1.644-.018-2.466,0a2.689,2.689,0,0,1-2.261-.614,2.853,2.853,0,0,0-1.443-.5c-.453-.108-.6-.314-.32-.739.167-.254.3-.531.455-.792a2.351,2.351,0,0,0,.31-1.072c.1-1.65-2.153-3.738-3.791-3.471-.5.081-.611-.013-.607-.518.024-2.912.016-5.825.01-8.738,0-1.109-.355-1.418-1.467-1.33h0a1.381,1.381,0,0,0-.654,1.376c.013,2.47.007,4.938,0,7.408,0,.217-.026.435-.048.784a2.5,2.5,0,0,0-1.74-1.187,12.711,12.711,0,0,0-1.621-.034,2.431,2.431,0,0,0-2.568,1.957c-.36,1.264-.36,1.264-1.524.631a2.426,2.426,0,0,0-3.2.438c-.2.2-.4.4-.6.6a2.469,2.469,0,0,0-.488,3.471c.585,1.038.585,1.038-.6,1.362a2.451,2.451,0,0,0-2.077,2.683c0,.235,0,.47,0,.706a2.5,2.5,0,0,0,2.194,2.873c1.062.3,1.062.3.52,1.253-.023.041-.042.084-.065.125a2.438,2.438,0,0,0,.445,3.364c.3.3.59.608.909.885a2.352,2.352,0,0,0,2.688.36c.462-.2.9-.782,1.355-.591s.355.912.536,1.388a2.46,2.46,0,0,0,2.515,1.648c1.431.037,2.83.047,3.448-1.616a8.655,8.655,0,0,0,.29-1.013c.106-.443.307-.62.735-.325.135.093.282.169.424.25a2.493,2.493,0,0,0,3.536-.459c.233-.232.472-.459.7-.7a2.393,2.393,0,0,0,.4-2.975c-.143-.269-.284-.542-.451-.8-.247-.373-.095-.556.276-.659l.611-.166A2.411,2.411,0,0,0,451.1,81.6c.006-.423.148-.5.525-.487.728.026,1.459.035,2.186,0,.471-.024.618.1.515.582a14,14,0,0,0-.353,2.153,5.593,5.593,0,0,1-2.011,3.9c-.589.542-1.185,1.074-1.775,1.613a10.838,10.838,0,0,0-2.869,12.219,9.233,9.233,0,0,1,.6,3.5c0,.359-.044.536-.484.548-.969.024-1.267.376-1.269,1.364,0,2.07.02,4.139-.013,6.208a1.454,1.454,0,0,0,.724,1.4h4.8c.177-.254.485-.4.591-.711.048-1.041-.291-1.4-1.333-1.405-.75,0-1.5-.011-2.25,0-.29.006-.415-.057-.408-.383.032-1.427.04-2.854.056-4.281.17-.194.4-.092.592-.092,5.632-.006,11.263,0,16.9-.015.546,0,.72.126.7.69-.046,1.171-.039,2.347,0,3.519.015.479-.143.6-.588.566-.56-.041-1.125-.024-1.687-.032-2.6.007-5.209.028-7.814.015a1.209,1.209,0,0,0-1.384,1,1.4,1.4,0,0,0,.729,1.125h12.141a1.333,1.333,0,0,0,.713-1.121c-.011-2.258,0-4.516-.009-6.774,0-.6-.344-1.076-.918-1.045-.857.045-.9-.38-.829-1.01.028-.256,0-.517.005-.776.076-4.363-.632-4.136,2.837-8.726a14.854,14.854,0,0,0,3.1-8.827C472.894,81.6,472.857,76.872,472.829,72.145Zm-23.841,9.712a.361.361,0,0,1-.261.294,3.165,3.165,0,0,1-.4.122,2.559,2.559,0,0,0-1.778,4.3c.509.655-.027.938-.373,1.324s-.665.71-1.227.278a3.172,3.172,0,0,0-1.395-.644,2.456,2.456,0,0,0-2.593,1.413c-.1.236-.151.493-.238.735-.107.3-.049.794-.361.866a4.924,4.924,0,0,1-1.606.03c-.294-.031-.278-.4-.337-.64a2.948,2.948,0,0,0-1.169-2.011,2.552,2.552,0,0,0-2.416-.185c-.555.212-1.053,1.2-1.787.289-.264-.326-.846-.5-.714-1.023a7.184,7.184,0,0,1,.613-1.181,2.414,2.414,0,0,0-.959-3.123,3.356,3.356,0,0,0-1.193-.406c-.584-.087-.754-.37-.727-.951.065-1.376-.169-1.016,1.111-1.43.067-.022.139-.024.207-.045a2.416,2.416,0,0,0,1.487-3.546c-.033-.063-.073-.121-.107-.182-.57-1.024-.443-1.475.556-2.14.259-.173.431-.043.638.065,2.575,1.341,3.621.911,4.495-1.868.118-.374.29-.559.7-.5a2.169,2.169,0,0,0,.633,0c.57-.092.811.181.885.709a2.589,2.589,0,0,0,4.289,1.762c.217-.163.5-.455.806-.139a4.864,4.864,0,0,1,1.068,1.19c-.177.313-.338.6-.5.882a2.422,2.422,0,0,0,1.585,3.82C448.961,80.213,449.274,80.784,448.988,81.857ZM466.5,48.716c-.05.254-.176.3-.381.293l-1.617-.036c-.21.014-.42.041-.63.041-6.2,0-12.406-.006-18.608.014-.573,0-.764-.133-.754-.734.041-2.448,1.417-3.851,3.856-3.849q7.294.008,14.588.024h0A3.554,3.554,0,0,1,466.5,48.716Zm-5.037,32.408a11.258,11.258,0,0,0,2.458-.094c.272-.056.33.059.293.3-.212,1.367-.223,2.763-.544,4.113a4.79,4.79,0,0,1-2.646,3.285c0-2.4.006-4.785-.007-7.169C461.019,81.211,461.138,81.119,461.467,81.124Zm9.214,5.31a12.988,12.988,0,0,1-2.736,7.56,34.467,34.467,0,0,0-2,2.892,7.893,7.893,0,0,0-1.192,4.279c.028,1.292-.016,2.585.017,3.877.012.48-.152.618-.605.582-.536-.042-1.077-.033-1.617-.045-1.95.013-3.9.031-5.852.037-2.023.007-4.046-.009-6.069.01-.438,0-.638-.078-.6-.577a10.451,10.451,0,0,0-.777-4.387,8.516,8.516,0,0,1,1.975-9.368,23.746,23.746,0,0,1,1.739-1.651,8.623,8.623,0,0,0,3.24-6.257,20.333,20.333,0,0,1,.406-2.574,1.044,1.044,0,0,1,1.189-.944,1.1,1.1,0,0,1,1.1,1.138q.023,3.81-.01,7.62a2.47,2.47,0,0,1-.856,1.724c-.749.749-1.5,1.491-2.242,2.248a1.067,1.067,0,1,0,1.483,1.5q.459-.439.895-.9a8.645,8.645,0,0,1,3.271-2.287,6.936,6.936,0,0,0,4.5-6.07c.493-4.178.944-8.36,1.422-12.54a1.683,1.683,0,0,1,.694-1.322h0a1.55,1.55,0,0,1,1.816-.285,1.5,1.5,0,0,1,.852,1.5C470.719,76.942,470.774,81.689,470.682,86.434Z" transform="translate(-16.158 0)" fill="#fff"/>
      <path id="Trazado_145484" data-name="Trazado 145484" d="M416.745,126.476c0-1.083-.258-1.365-1.338-1.447-.222-.017-.411.006-.421-.314a6.778,6.778,0,0,1,.391-3.179,10.843,10.843,0,0,0,.716-7.15c-.221-.963-.474-1.14-1.466-1.131h0a1.285,1.285,0,0,0-.606,1.607,8.5,8.5,0,0,1-.533,5.691,7.952,7.952,0,0,0-.6,3.84c.022.477-.094.687-.608.64-.533-.049-1.073-.035-1.61-.049-2.184.014-4.368.032-6.552.04-1.739.006-3.479-.033-5.217.018-.652.02-.785-.194-.758-.792.048-1.055-.036-2.117.024-3.171a8.645,8.645,0,0,0-1.719-5.607q-.75-1.065-1.518-2.118a13.881,13.881,0,0,1-2.744-8.415q0-6.521,0-13.043a1.658,1.658,0,0,1,.69-1.653h0a1.743,1.743,0,0,1,2.67,1.4c.27,2.141.484,4.288.728,6.432.258,2.26.489,4.523.8,6.776a7.42,7.42,0,0,0,2.37,4.289,8.07,8.07,0,0,0,3.306,1.638,1.128,1.128,0,0,1,.571.387c.76.769,1.515,1.541,2.283,2.3.59.585,1.2.627,1.665.139.441-.46.393-1.05-.151-1.616q-1.2-1.243-2.412-2.471a2.121,2.121,0,0,1-.679-1.5c-.009-2.488,0-4.977.01-7.465.017-.779.348-1.2,1.005-1.274.708-.082,1.147.26,1.288,1.07q.357,2.045.663,4.1a5.281,5.281,0,0,0,1.5,3.036c1.011,1.015,2.035,2.019,3.034,3.047a1.171,1.171,0,0,0,1.688.212c.461-.773.427-1.092-.21-1.734q-1.441-1.452-2.894-2.894a3.405,3.405,0,0,1-1.018-1.963c-.2-1.347-.429-2.69-.653-4.034a3.257,3.257,0,0,0-3.6-2.981,3.3,3.3,0,0,0-2.951,3.506c-.01,2.329,0,4.658-.008,6.986,0,.166.112.364-.1.538a5.213,5.213,0,0,1-2.686-4.063c-.493-4.3-.963-8.595-1.436-12.894a3.435,3.435,0,0,0-2.182-3.036,3.8,3.8,0,0,0-5.4,3.582q-.019,6.669,0,13.338a15.8,15.8,0,0,0,3.206,9.58c.574.773,1.157,1.543,1.684,2.348a5.667,5.667,0,0,1,1.065,3.086c.008,1.482,0,2.964.019,4.446.006.375-.116.464-.478.479-.971.041-1.273.384-1.275,1.364,0,2.07.018,4.14-.013,6.21a1.461,1.461,0,0,0,.721,1.4h21.034a1.479,1.479,0,0,0,.723-1.472C416.724,130.52,416.747,128.5,416.745,126.476Zm-2.1,4.864c.016.484-.151.594-.591.562-.56-.04-1.125-.024-1.688-.032q-7.774.012-15.548.029c-.285,0-.42-.048-.412-.378.032-1.428.038-2.857.054-4.285h0c.17-.194.4-.092.592-.093,5.633-.005,11.266.005,16.9-.015.549,0,.718.131.7.692C414.6,128.993,414.6,130.168,414.641,131.34Z" transform="translate(0 -19.407)" fill="#fff"/>
      <path id="Trazado_145485" data-name="Trazado 145485" d="M408.636,64.179q7.3.016,14.605,0a3.383,3.383,0,0,0,3.624-3.548q.038-7.373,0-14.747a3.365,3.365,0,0,0-3.6-3.556q-7.3-.008-14.606,0a3.372,3.372,0,0,0-3.617,3.607c-.007,2.422,0,4.845,0,7.267,0,2.446,0,4.892,0,7.338A3.389,3.389,0,0,0,408.636,64.179Zm16.1-3.349a1.242,1.242,0,0,1-1.279,1.227c-.528.032-1.06.006-1.755.006l3.043-3.228C424.745,59.632,424.78,60.234,424.736,60.829Zm-17.578-14.87c0-.96.437-1.505,1.284-1.507,4.422-.007,8.845.008,13.267.016.469-.008.937-.024,1.406-.023,1.21,0,1.637.427,1.641,1.659.006,1.759,0,3.519,0,5.279,0,1.267-.016,2.534.009,3.8a1.251,1.251,0,0,1-.4.991c-.8.791-1.569,1.607-2.352,2.414-1.01,1.081-2.026,2.157-3.024,3.248a.824.824,0,0,1-.7.229c-3.2,0-6.4,0-9.6,0-1.084,0-1.529-.465-1.53-1.563Q407.152,53.23,407.158,45.959Z" transform="translate(-6.386)" fill="#fff"/>
      <path id="Trazado_145486" data-name="Trazado 145486" d="M465.75,77.265c-1.316-.015-2.634-.013-3.951,0a1.04,1.04,0,0,0-1.182,1.163q-.026,1.975,0,3.951c.009.766.356,1.162,1.1,1.18q2.045.048,4.092,0a1.012,1.012,0,0,0,1.076-1.132c.018-.682,0-1.364,0-2.046,0-.659.014-1.318,0-1.976A1.03,1.03,0,0,0,465.75,77.265Zm-2.09,4.194c-1.081,0-.909.118-.926-1.088,0-.995,0-.995,1.078-.994.959,0,.965,0,.956,1.182C464.762,81.614,464.9,81.456,463.66,81.459Z" transform="translate(-30.077 -14.892)" fill="#fff"/>
      <path id="Trazado_145487" data-name="Trazado 145487" d="M460.616,67.1c.018.774.348,1.164,1.1,1.182q2.044.05,4.091,0a1,1,0,0,0,1.081-1.121q.027-2.01,0-4.021A1.019,1.019,0,0,0,465.759,62q-2.011-.022-4.021,0a1.021,1.021,0,0,0-1.12,1.149c-.017.658,0,1.317,0,1.976S460.6,66.439,460.616,67.1Zm2.122-2.077c-.009-.91,0-.919,1.159-.908,1.018.01.859-.155.876,1.05-.019,1.173.162,1.024-1.054,1.024C462.557,66.186,462.751,66.331,462.738,65.02Z" transform="translate(-30.079 -8.383)" fill="#fff"/>
      <path id="Trazado_145488" data-name="Trazado 145488" d="M476.333,79.379c1.082.007,2.164,0,3.246,0,1.105,0,2.211,0,3.317,0,.829,0,1.3-.389,1.3-1.051s-.457-1.061-1.285-1.063q-3.281-.007-6.562,0c-.824,0-1.314.4-1.32,1.043S475.522,79.373,476.333,79.379Z" transform="translate(-36.229 -14.896)" fill="#fff"/>
      <path id="Trazado_145489" data-name="Trazado 145489" d="M476.253,67.755q3.386.02,6.772,0a1.046,1.046,0,0,0,1.174-1.039c.012-.668-.408-1.059-1.2-1.069-1.128-.014-2.257,0-3.386,0-1.1,0-2.21-.008-3.315,0-.777.007-1.248.4-1.263,1.025A1.1,1.1,0,0,0,476.253,67.755Z" transform="translate(-36.23 -9.941)" fill="#fff"/>
      <path id="Trazado_145490" data-name="Trazado 145490" d="M480,84.579c-.634-.022-1.269,0-1.9-.005s-1.269-.014-1.9,0a1.054,1.054,0,1,0-.041,2.1c1.292.029,2.585.031,3.877,0a1.01,1.01,0,0,0,1.065-1.069A1,1,0,0,0,480,84.579Z" transform="translate(-36.229 -18.011)" fill="#fff"/>
      <path id="Trazado_145491" data-name="Trazado 145491" d="M444.419,101.311a4.994,4.994,0,1,0,5,5.022A4.976,4.976,0,0,0,444.419,101.311Zm-.277,7.81a2.833,2.833,0,0,1,0-5.641h0a2.839,2.839,0,1,1,0,5.641Z" transform="translate(-21.049 -25.149)" fill="#fff"/>
      <path id="Trazado_145492" data-name="Trazado 145492" d="M415.585,54.346c1.431.007,2.862,0,4.294,0,1.455,0,2.91.006,4.364,0,.774-.005,1.242-.4,1.259-1.021.017-.652-.469-1.088-1.275-1.09q-4.329-.013-8.658,0c-.805,0-1.3.43-1.3,1.073S414.755,54.342,415.585,54.346Z" transform="translate(-10.324 -4.222)" fill="#fff"/>
      <path id="Trazado_145493" data-name="Trazado 145493" d="M415.438,63.132q2.885.022,5.771,0a1.059,1.059,0,1,0-.012-2.108c-.938-.012-1.877,0-2.815,0-.961,0-1.923-.007-2.885,0-.757.006-1.231.423-1.228,1.054A1.079,1.079,0,0,0,415.438,63.132Z" transform="translate(-10.321 -7.97)" fill="#fff"/>
    </g>
  </g>
</svg>
