<svg xmlns="http://www.w3.org/2000/svg" width="104.757" height="104.757" viewBox="0 0 104.757 104.757">
  <g id="Grupo_75201" data-name="Grupo 75201" transform="translate(-1080 4631.256)">
    <circle id="Elipse_4752" data-name="Elipse 4752" cx="52.378" cy="52.378" r="52.378" transform="translate(1080 -4631.256)" fill="#7e5ee3"/>
    <g id="Grupo_75192" data-name="Grupo 75192" transform="translate(-459.488 -5652.149)">
      <g id="Grupo_74961" data-name="Grupo 74961">
        <path id="Trazado_145439" data-name="Trazado 145439" d="M1565.352,1111.871a14.387,14.387,0,0,1-1.816-.606,6.544,6.544,0,0,1-4.006-6.244c-.021-5.172-.007-10.343-.007-15.515q0-24.318,0-48.636c0-3.409,1.726-5.947,4.733-6.864a8.5,8.5,0,0,1,2.372-.313c3.323-.033,6.645-.015,9.968-.015h1a5.416,5.416,0,0,0,.113-.556,3.825,3.825,0,0,1,3.836-3.588q8.441-.031,16.882,0c2.219.007,3.615,1.461,3.974,4.139h.831c3.376,0,6.753,0,10.129.008a6.753,6.753,0,0,1,7.15,7.156q.007,6.873,0,13.747v.765l.141.032,2.095-4.557c1.039-2.262,2.795-2.922,5.056-1.9.488.22.975.442,1.459.67a3.339,3.339,0,0,1,1.707,4.635c-2.26,5-4.55,9.981-6.827,14.97-1.111,2.434-2.235,4.862-3.32,7.307a3.512,3.512,0,0,0-.3,1.38q-.024,13.264-.009,26.529c0,4.016-1.794,6.342-5.665,7.366-.047.013-.085.06-.128.092Zm33.674-5.226c-.337,0-.521,0-.7,0q-14.552.1-29.1.2a3.79,3.79,0,0,1-4.162-4.133c-.011-1.715,0-3.431,0-5.146,0-1.082.427-1.632,1.233-1.623.776.009,1.178.533,1.182,1.577.005,1.715-.006,3.43,0,5.146,0,1.332.452,1.777,1.8,1.768,9.808-.067,19.617-.147,29.425-.191.7,0,.928-.227,1.1-.888a36.832,36.832,0,0,1,1.708-5.913c3.477-7.854,7.1-15.642,10.651-23.465a4.053,4.053,0,0,0,.355-1.611c.023-7.076.014-14.151.019-21.227a3.734,3.734,0,0,1,.1-1.032.968.968,0,0,1,1.219-.772,2.4,2.4,0,0,1,1.041.925c.144.2.057.572.057.866q0,7.8,0,15.6c0,.25.023.5.036.749.626-1.034,1.04-2.136,1.615-3.145a13.038,13.038,0,0,0,1.548-6.994c-.124-5.6-.032-11.2-.043-16.8a4.106,4.106,0,0,0-3.116-4.161c-.015.21-.04.417-.041.624q-.008,3.257-.009,6.513c0,.724.019,1.448-.017,2.17a1.155,1.155,0,0,1-1.172,1.177,1.174,1.174,0,0,1-1.194-1.085,4.641,4.641,0,0,1-.028-.721q0-4.021,0-8.041v-.857H1602.4c-.343,2.784-1.583,4.212-3.959,4.24-5.628.068-11.256.052-16.884.009a3.793,3.793,0,0,1-3.748-2.955,11.676,11.676,0,0,1-.169-1.292H1567.47v1.082q0,27.136,0,54.273a8.061,8.061,0,0,1-.023.963,1.1,1.1,0,0,1-1.063,1.028,1.076,1.076,0,0,1-1.223-.821,4.15,4.15,0,0,1-.1-1.111q-.007-27.1,0-54.193v-1.036c-2,.5-3.12,2.153-3.12,4.543,0,21.254.029,42.508-.024,63.761a4.657,4.657,0,0,0,4.859,4.853c10.238-.073,20.476-.03,30.714-.03h.906Zm7.918-5.6L1625.1,1061.3l-3.712-1.688-18.152,39.745Zm-16.825-69.107q-4.1,0-8.2,0c-1.286,0-1.787.511-1.8,1.808-.006.75,0,1.5,0,2.252,0,1.544.457,1.994,2.028,2q5.267.005,10.534,0c1.823,0,3.646.011,5.468-.013,1.24-.016,1.758-.554,1.774-1.776.01-.8.009-1.608,0-2.412-.007-1.335-.518-1.853-1.846-1.855Q1594.1,1031.931,1590.119,1031.937Zm13.73,77.519c3.3,0,6.4.008,9.507,0a4.378,4.378,0,0,0,4.744-4.758q.016-10.685.006-21.369v-.521a1.369,1.369,0,0,0-.442.576c-.813,1.774-1.64,3.543-2.419,5.331a3.608,3.608,0,0,0-.294,1.385c-.022,4.123-.007,8.247-.016,12.371a3.743,3.743,0,0,1-4.085,4.1c-1.446.005-2.892,0-4.337.03a1.017,1.017,0,0,0-.7.234C1605.161,1107.633,1604.566,1108.482,1603.849,1109.456Zm8.669-14.348-.133-.016-4.333,9.059c.919,0,1.935.011,2.951,0,1.043-.014,1.509-.475,1.516-1.535.013-1.927,0-3.855,0-5.782Q1612.517,1095.969,1612.517,1095.108Zm11.561-41.386,3.711,1.689c.368-.816.748-1.575,1.051-2.363a.9.9,0,0,0-.49-1.208c-.624-.3-1.245-.615-1.888-.873a.955.955,0,0,0-1.344.5C1624.773,1052.181,1624.451,1052.911,1624.079,1053.722Zm-21.47,48-1.59,7.158.179.077,4.35-5.887Zm19.8-44.32,3.694,1.694.67-1.494-3.695-1.675Z" fill="#fff" stroke="rgba(0,0,0,0)" stroke-width="1"/>
        <path id="Trazado_145443" data-name="Trazado 145443" d="M1609.59,1118.98a17.083,17.083,0,1,1,17.113-16.953A17.079,17.079,0,0,1,1609.59,1118.98Zm0-31.753a14.67,14.67,0,1,0,14.7,14.644A14.67,14.67,0,0,0,1609.593,1087.227Z" transform="translate(-18.61 -31.204)" fill="#fff"/>
        <path id="Trazado_145444" data-name="Trazado 145444" d="M1620.99,1113.212c0,1.516,0,2.907,0,4.3a2.808,2.808,0,0,1-3.1,3.158c-.723.008-1.449.03-2.168-.026a2.687,2.687,0,0,1-2.578-2.758c-.022-1.521,0-3.042,0-4.661-1.427,0-2.785,0-4.144,0-2.3,0-3.274-.983-3.275-3.27,0-.616-.008-1.233.009-1.848a2.642,2.642,0,0,1,2.644-2.67c1.549-.034,3.1-.007,4.769-.007,0-1.392,0-2.719,0-4.046,0-2.447.951-3.4,3.4-3.407.536,0,1.072-.019,1.607,0a2.743,2.743,0,0,1,2.835,2.849c.027,1.5.006,2.994.006,4.6,1.58,0,3.1-.013,4.615,0a2.51,2.51,0,0,1,2.68,2.066,13.7,13.7,0,0,1,0,3.667,2.454,2.454,0,0,1-2.524,2.052C1624.211,1113.237,1622.662,1113.212,1620.99,1113.212Zm-5.429-9.432h-.005c0,.831,0,1.661,0,2.491-.008,1.133-.411,1.546-1.551,1.559-1.232.014-2.464,0-3.7.006-2.195.01-2.166.012-2.185,2.188-.006.678.261.8.851.795,1.688-.027,3.375-.017,5.062-.006,1.1.007,1.51.425,1.518,1.5.009,1.259.006,2.518.006,3.776,0,2.22,0,2.2,2.2,2.177.634-.006.837-.223.825-.848-.035-1.714-.023-3.428-.013-5.142.006-1.042.421-1.461,1.464-1.473,1.285-.014,2.572,0,3.857,0,2.137,0,2.111,0,2.119-2.178,0-.661-.235-.82-.843-.808-1.607.031-3.214.013-4.821.01-1.43,0-1.77-.338-1.773-1.735,0-1.179.021-2.358,0-3.536-.058-2.627.535-2.111-2.355-2.171-.47-.01-.679.161-.664.658C1615.581,1101.958,1615.561,1102.869,1615.561,1103.78Z" transform="translate(-26.071 -38.623)" fill="#fff"/>
      </g>
    </g>
  </g>
</svg>
