<svg xmlns="http://www.w3.org/2000/svg" width="91" height="91" viewBox="0 0 91 91">
  <g id="Grupo_75207" data-name="Grupo 75207" transform="translate(-1175.065 -554.727)">
    <circle id="Elipse_4612" data-name="Elipse 4612" cx="45.5" cy="45.5" r="45.5" transform="translate(1175.065 554.727)" fill="#7e5ee3"/>
    <g id="Grupo_74973" data-name="Grupo 74973" transform="translate(932.546 -608.726)">
      <path id="Trazado_145520" data-name="Trazado 145520" d="M315.185,1191.384a2.876,2.876,0,0,0-2.966-2.884c-1.475-.071-2.95-.16-4.419-.331a49.656,49.656,0,0,1-14.253-3.777c-1.571-.687-3-1.645-4.6-2.272h-.986a7.154,7.154,0,0,0-.883.371,44.015,44.015,0,0,1-10.484,4.279c-.661.184-.951.614-.819,1.155s.639.789,1.327.6a43.434,43.434,0,0,0,10.5-4.234,1.5,1.5,0,0,1,1.7,0,40.794,40.794,0,0,0,8.027,3.508,54.439,54.439,0,0,0,14.8,2.546c.8.031,1.133.311,1.192,1.024.1,1.206.2,2.413.255,3.622a76.249,76.249,0,0,1-.716,14.734,54.2,54.2,0,0,1-4.085,14.431c-4.029,8.917-10.43,15.39-19.613,18.989a1.654,1.654,0,0,1-1.3.053,34.573,34.573,0,0,1-18.625-16.772c-3.932-7.547-5.485-15.689-5.913-24.1a75.947,75.947,0,0,1,.239-10.765c.083-.908.338-1.178,1.261-1.221a55.508,55.508,0,0,0,7.7-.814.913.913,0,0,0,.843-1.071.935.935,0,0,0-1.159-.732,63.835,63.835,0,0,1-7.831.792,2.7,2.7,0,0,0-2.546,2.2,19.041,19.041,0,0,0-.231,2.139,80.818,80.818,0,0,0,.1,12.793,61.357,61.357,0,0,0,3.6,16.52c4.058,10.661,11.062,18.5,21.833,22.728a3.4,3.4,0,0,0,2.619,0c9.817-3.848,16.629-10.776,20.856-20.345a57.683,57.683,0,0,0,4.337-16.579A80.81,80.81,0,0,0,315.185,1191.384Z" fill="#fff"/>
      <path id="Trazado_145521" data-name="Trazado 145521" d="M274.028,1202.792c-.161,1.985-.293,3.971-.263,5.66a66.847,66.847,0,0,0,.362,7.31,49.062,49.062,0,0,0,3.46,14.15c3.333,7.869,8.731,13.678,16.8,16.827a2.752,2.752,0,0,0,2.091.023,29.24,29.24,0,0,0,7.072-3.912A30.893,30.893,0,0,0,313.8,1228.7c3.175-8.421,3.794-17.16,3.059-26.046a2.365,2.365,0,0,0-2.309-2.22c-1.349-.106-2.7-.151-4.048-.322a35.914,35.914,0,0,1-13.547-4.292,2.754,2.754,0,0,0-3.012.013,29.7,29.7,0,0,1-5.77,2.554,42.762,42.762,0,0,1-11.769,2.051A2.382,2.382,0,0,0,274.028,1202.792Zm7.423-.952a37.73,37.73,0,0,0,13.344-4.368,1.16,1.16,0,0,1,1.3-.011,38.072,38.072,0,0,0,14.195,4.488c1.325.168,2.656.244,3.987.309a.706.706,0,0,1,.766.759c.147,1.924.275,3.849.251,5.781a54.28,54.28,0,0,1-3.211,19.24,28.658,28.658,0,0,1-11.338,14.522,27.376,27.376,0,0,1-4.816,2.43,1.2,1.2,0,0,1-.941,0,26.954,26.954,0,0,1-14.572-13.351,43.628,43.628,0,0,1-4.194-13.93,65,65,0,0,1-.472-13.327c.027-.43.1-.858.1-1.288a.736.736,0,0,1,.816-.841A45.455,45.455,0,0,0,281.451,1201.84Z" transform="translate(-6.995 -7.507)" fill="#fff"/>
      <path id="Trazado_145522" data-name="Trazado 145522" d="M307.573,1247.978a12.575,12.575,0,0,0,9.522-5.057c.588-.739.624-1.277.148-1.665-.51-.416-.988-.246-1.611.545a10.857,10.857,0,0,1-7.555,4.266,11.13,11.13,0,1,1,9.573-13.638,11.509,11.509,0,0,1-.049,5.364.9.9,0,0,0,.36,1.026.881.881,0,0,0,.985.038c.378-.2.435-.577.519-.932a12.99,12.99,0,1,0-25.577-1.578C294.492,1242.867,300.205,1248.008,307.573,1247.978Z" transform="translate(-18.356 -22.58)" fill="#fff"/>
      <path id="Trazado_145523" data-name="Trazado 145523" d="M316.383,1232.862c-1.191,1.285-2.375,2.576-3.566,3.862-.343.371-.667.986-1.055,1.033-.452.054-.778-.607-1.158-.956a2.968,2.968,0,1,0-4.148,4.244c1.093,1.086,2.212,2.146,3.32,3.217a2.965,2.965,0,0,0,4.341-.192c2.216-2.407,4.448-4.8,6.656-7.215a2.97,2.97,0,1,0-4.39-3.992Zm3.009,2.689c-1.033,1.143-2.088,2.268-3.132,3.4-1.146,1.241-2.286,2.486-3.436,3.723a1.132,1.132,0,0,1-1.892.062q-1.577-1.512-3.143-3.036a1.035,1.035,0,0,1-.282-1.211,1.055,1.055,0,0,1,.908-.67,1.332,1.332,0,0,1,.965.437c.53.515,1.053,1.037,1.59,1.545a.986.986,0,0,0,1.632-.053c1.726-1.854,3.439-3.721,5.162-5.577a1.032,1.032,0,0,1,1.554-.217A1.008,1.008,0,0,1,319.392,1235.55Z" transform="translate(-24.466 -26.035)" fill="#fff"/>
    </g>
  </g>
</svg>
