<svg xmlns="http://www.w3.org/2000/svg" width="104.757" height="104.757" viewBox="0 0 104.757 104.757">
  <g id="Grupo_75194" data-name="Grupo 75194" transform="translate(-766 3770.732)">
    <circle id="Elipse_4745" data-name="Elipse 4745" cx="52.378" cy="52.378" r="52.378" transform="translate(766 -3770.732)" fill="#7e5ee3"/>
    <path id="Trazado_146454" data-name="Trazado 146454" d="M790.374,123c2.338-.005,3.289-.96,3.3-3.285.01-2.735.049-5.473-.025-8.207-.025-.923.255-1.094,1.112-1.081,3.366.051,6.734.036,10.1.014a2.634,2.634,0,0,0,2.943-2.862c.048-1.429.062-2.864,0-4.292-.221-4.949-2.434-8.656-6.956-10.843a33.953,33.953,0,0,0-5.672-1.644c-.357-.1-.9.077-.977-.563-.067-.536.342-.727.653-.986a10.715,10.715,0,0,0,3.978-6.937,39.5,39.5,0,0,0,.087-8.565,11.215,11.215,0,0,0-17.874-8.119c-1.023.764-.978-.253-1.2-.66-2.852-5.22-7.277-8.032-13.181-8.026-5.863.006-10.262,2.847-13.028,8.03-.532,1-.793,1.006-1.657.389a11.221,11.221,0,0,0-16.914,5.653c-1.153,3.7-.79,7.5-.479,11.259a9.978,9.978,0,0,0,3.282,6.361c.3.293.65.535.946.832.583.585.707,1.066-.317,1.288-1.066.231-2.124.5-3.186.755a11.952,11.952,0,0,0-8.94,7.558c-1.032,2.651-.786,5.467-.773,8.235.01,2.206.97,3.129,3.173,3.135,3.325.008,6.651.025,9.976-.015.754-.01.992.14.974.955-.063,2.861-.046,5.724-.019,8.586.019,1.975.97,3.006,2.911,3.024q7.2.064,14.4,0c1.8-.012,2.541-.694,2.947-2.474a2.286,2.286,0,0,0-1.753-2.723,5.014,5.014,0,0,0-1.252-.125c-1.78-.045-1.78-.045-1.785-1.864,0-.884.029-1.768-.015-2.651-.093-1.888-1.308-3.236-2.877-3.223s-2.746,1.358-2.846,3.261c-.027.5-.006,1.01-.014,1.515-.054,3.28.549,2.946-3.231,2.961-.81,0-1.13-.36-1.122-1.149.02-1.725-.078-3.454.032-5.175a10.336,10.336,0,0,1,8.566-10.027c1.437-.322,2.867-.675,4.3-1.022,1.525-.371,1.574-.333,2.2,1.05,1.284,2.837,2.5,5.7,3.777,8.543a2.85,2.85,0,0,0,2.595,1.892,2.894,2.894,0,0,0,2.853-1.7c.18-.334.322-.686.468-1.035,1.1-2.64,2.346-5.22,3.437-7.865.313-.76.722-1.2,1.614-.985a64.626,64.626,0,0,1,6.83,1.808,9.448,9.448,0,0,1,5.672,5.411c1,2.365.935,4.848.908,7.33-.036,3.241.467,2.89-3,2.936-.958.013-1.4-.328-1.359-1.322s.033-2.02,0-3.029c-.068-1.994-1.234-3.375-2.842-3.393s-2.814,1.369-2.889,3.343c-.03.8-.008,1.6-.01,2.4,0,1.962,0,1.963-1.911,2a5.367,5.367,0,0,0-1.379.126,2.288,2.288,0,0,0-1.753,2.723c.407,1.84,1.2,2.475,3.2,2.481Q783.366,123.018,790.374,123Zm-7.94-51.691a6.386,6.386,0,0,1,6.68-2.72,6.118,6.118,0,0,1,4.744,5.66c-3.752.137-7.447,0-10.949-1.615C782.175,72.292,781.953,72.057,782.434,71.307Zm1.018,6.929a26.746,26.746,0,0,0,9.222,1.076c1.024-.041,1.371.183,1.307,1.279a6.3,6.3,0,0,1-6.13,6.14,6.15,6.15,0,0,1-6.336-5.861c-.036-.418-.042-.839-.062-1.259C781.483,77.6,781.479,77.61,783.452,78.236Zm-26.385-7.072A9.653,9.653,0,0,1,775.3,67.217a12.8,12.8,0,0,1,.645,1.5,11.36,11.36,0,0,1,.281,1.336c-1.385-.812-2.639-1.574-3.919-2.288-1.426-.795-2.438-.732-3.5.469-3.005,3.382-6.873,4.084-11.115,3.832C756.947,72.022,757.054,71.64,757.067,71.164Zm-17.189,1.3a5.9,5.9,0,0,1,4.845-3.929,6.025,6.025,0,0,1,6.062,2.549c.56.745.642,1.167-.4,1.612a21.338,21.338,0,0,1-8.485,1.587h-.758C739.2,74.282,739.179,74.273,739.878,72.463Zm-.482,7.55c.048-.853.546-.679,1.011-.674a29.355,29.355,0,0,0,8.979-.955c.794-.242,1.581-.509,2.535-.817a23.112,23.112,0,0,1-.083,3.777,6.194,6.194,0,0,1-7.01,5.347A6.442,6.442,0,0,1,739.4,80.013Zm11.656,16.419a15.14,15.14,0,0,0-9.738,8.158,1.251,1.251,0,0,1-1.343.818c-2.734-.042-5.47-.047-8.2,0-.833.015-1.155-.148-1.157-1.081-.011-4.518,1.855-6.952,6.254-8,1.674-.4,3.355-.77,5.021-1.2,1.689-.435,2.165-.97,2.335-2.667.053-.525.159-.769.728-.711a6.892,6.892,0,0,0,1.385,0c.533-.054.748.1.756.671a2.69,2.69,0,0,0,2.466,2.727c.971.215,1.933.47,2.936.716A2.8,2.8,0,0,1,751.052,96.432Zm1.663-5.707c-.721-.167-.727-.571-.363-1.094a1.314,1.314,0,0,1,.188-.166c1.656-1.6,1.649-1.594,3.185.094.45.5.931.965,1.428,1.413.451.406.943.766,1.417,1.146C756.609,91.6,754.66,91.174,752.715,90.725Zm16.965,4.291a4.214,4.214,0,0,1-.219,1.48c-.894,1.986-1.765,3.983-2.776,6.275-1.044-2.393-2.029-4.473-2.857-6.613-.561-1.452-.144-1.838,1.4-1.7a11.2,11.2,0,0,0,3.643-.12C769.468,94.194,769.732,94.365,769.68,95.016Zm2.68-7.41a9.643,9.643,0,0,1-15.247-6.886c-.12-1.124-.461-2.565.069-3.324.574-.824,2.1-.261,3.2-.279a15.73,15.73,0,0,0,10.02-3.529,1.221,1.221,0,0,1,1.74-.078,18.33,18.33,0,0,0,2.829,1.644,2.1,2.1,0,0,1,1.433,2.548,7.646,7.646,0,0,0-.006,1.048A9.668,9.668,0,0,1,772.36,87.606Zm2.542,4.578a19.249,19.249,0,0,0,3.806-3.856c.13-.185.33-.563.547-.285.607.778,1.747,1.087,1.991,2.138.116.5-.43.487-.787.582C778.613,91.251,776.719,91.555,774.9,92.184Zm6.227,3.9c-.072-.019-.128-.1-.26-.206,1.169-.29,2.225-.557,3.284-.814A2.508,2.508,0,0,0,786.29,92.6c.032-.738.269-.955.963-.839a3.765,3.765,0,0,0,1.006,0c.584-.063.917.01.911.76a2.462,2.462,0,0,0,2.148,2.557c2.038.491,4.088.939,6.11,1.487,4.173,1.132,5.587,4.432,5.338,8.3-.031.483-.3.522-.664.522-3.026,0-6.052-.006-9.078.005a.752.752,0,0,1-.8-.459A15.7,15.7,0,0,0,781.129,96.08Z" transform="translate(49.199 -3808.615)" fill="#fff"/>
  </g>
</svg>
