<svg xmlns="http://www.w3.org/2000/svg" width="91" height="91" viewBox="0 0 91 91">
  <g id="Grupo_75208" data-name="Grupo 75208" transform="translate(-755.065 -554.727)">
    <circle id="Elipse_4611" data-name="Elipse 4611" cx="45.5" cy="45.5" r="45.5" transform="translate(755.065 554.727)" fill="#7e5ee3"/>
    <g id="Grupo_74972" data-name="Grupo 74972" transform="translate(-288.155 46.884)">
      <path id="Trazado_145514" data-name="Trazado 145514" d="M1067.115,585.044a11.342,11.342,0,0,1-1.431-.477,5.155,5.155,0,0,1-3.156-4.919c-.017-4.074,0-8.149,0-12.222q0-19.157,0-38.314a5.266,5.266,0,0,1,3.728-5.408,6.7,6.7,0,0,1,1.869-.246c2.617-.027,5.235-.012,7.853-.012h.791a4.329,4.329,0,0,0,.089-.438,3.012,3.012,0,0,1,3.022-2.827q6.65-.025,13.3,0c1.749.006,2.848,1.151,3.13,3.26h.655c2.66,0,5.32,0,7.979.006a5.319,5.319,0,0,1,5.633,5.637q.006,5.415,0,10.829v.6l.11.025,1.65-3.59a2.7,2.7,0,0,1,3.983-1.5c.384.173.768.348,1.149.527a2.63,2.63,0,0,1,1.345,3.651c-1.781,3.937-3.584,7.863-5.378,11.793-.875,1.917-1.76,3.83-2.616,5.757a2.765,2.765,0,0,0-.234,1.087q-.018,10.449-.007,20.9c0,3.163-1.413,5-4.463,5.8-.037.01-.067.047-.1.072Zm26.527-4.117c-.265,0-.41,0-.555,0q-11.463.079-22.927.155a2.986,2.986,0,0,1-3.279-3.256c-.009-1.351,0-2.7,0-4.054,0-.852.336-1.286.972-1.278.612.007.928.42.931,1.242,0,1.352,0,2.7,0,4.054,0,1.049.355,1.4,1.421,1.393,7.726-.052,15.453-.116,23.18-.15.554,0,.732-.179.863-.7a29,29,0,0,1,1.345-4.658c2.739-6.187,5.595-12.323,8.39-18.485a3.2,3.2,0,0,0,.279-1.27c.019-5.574.011-11.147.015-16.721a2.931,2.931,0,0,1,.077-.813.762.762,0,0,1,.959-.608,1.883,1.883,0,0,1,.82.729c.113.157.045.45.045.682q0,6.144,0,12.288c0,.2.019.394.028.59.494-.815.819-1.682,1.272-2.478a10.272,10.272,0,0,0,1.22-5.509c-.1-4.411-.025-8.825-.033-13.238a3.236,3.236,0,0,0-2.455-3.278c-.011.166-.032.329-.032.492q-.006,2.565-.007,5.13c0,.57.015,1.141-.013,1.71a.91.91,0,0,1-.923.927.924.924,0,0,1-.94-.855,3.623,3.623,0,0,1-.022-.568q0-3.167,0-6.334v-.676H1096.3c-.27,2.193-1.247,3.318-3.119,3.341-4.433.053-8.867.041-13.3.007a2.989,2.989,0,0,1-2.953-2.328,9.254,9.254,0,0,1-.133-1.018h-8.016v.852q0,21.378,0,42.754a6.372,6.372,0,0,1-.017.759.871.871,0,0,1-.838.81.849.849,0,0,1-.964-.646,3.267,3.267,0,0,1-.078-.875q0-21.345,0-42.691v-.817a3.325,3.325,0,0,0-2.458,3.579c0,16.743.023,33.486-.019,50.228a3.67,3.67,0,0,0,3.829,3.823c8.064-.057,16.13-.024,24.2-.024h.714Zm6.238-4.412,14.3-31.308-2.924-1.33-14.3,31.309Zm-13.254-54.44q-3.232,0-6.462,0c-1.013,0-1.408.4-1.417,1.424-.005.591,0,1.183,0,1.774,0,1.217.36,1.571,1.6,1.572q4.149,0,8.3,0c1.436,0,2.872.008,4.307-.01.977-.013,1.385-.436,1.4-1.4.008-.633.007-1.267,0-1.9,0-1.052-.408-1.46-1.454-1.461Q1089.76,522.071,1086.625,522.075Zm10.815,61.066c2.6,0,5.043.006,7.489,0a3.448,3.448,0,0,0,3.737-3.748q.013-8.416.005-16.833v-.411a1.079,1.079,0,0,0-.349.453c-.64,1.4-1.292,2.791-1.905,4.2a2.832,2.832,0,0,0-.232,1.09c-.018,3.249-.006,6.5-.012,9.745a2.948,2.948,0,0,1-3.218,3.226c-1.139,0-2.279,0-3.417.023a.805.805,0,0,0-.554.185C1098.474,581.706,1098.005,582.375,1097.44,583.142Zm6.829-11.3-.1-.013-3.413,7.136c.724,0,1.524.008,2.324,0,.821-.011,1.189-.375,1.195-1.209.011-1.518,0-3.036,0-4.555Q1104.269,572.518,1104.269,571.839Zm9.107-32.6,2.923,1.33c.29-.642.589-1.24.828-1.862a.7.7,0,0,0-.386-.952c-.491-.24-.981-.484-1.487-.688a.753.753,0,0,0-1.059.391C1113.923,538.022,1113.67,538.6,1113.377,539.237Zm-16.913,37.816-1.253,5.638.141.06,3.427-4.637Zm15.595-34.914,2.911,1.335.527-1.177-2.911-1.319Z" fill="#fff"/>
      <path id="Trazado_145518" data-name="Trazado 145518" d="M1096.287,581.126a13.457,13.457,0,1,1,13.48-13.355A13.454,13.454,0,0,1,1096.287,581.126Zm0-25.013a11.557,11.557,0,1,0,11.579,11.536A11.557,11.557,0,0,0,1096.288,556.112Z" transform="translate(-8.983 -15.063)" fill="#fff"/>
      <path id="Trazado_145519" data-name="Trazado 145519" d="M1083.2,549.7l4.541,6.79L1102,541.3" transform="translate(-1.072 -1.095)" fill="none" stroke="#fff" stroke-width="2"/>
    </g>
  </g>
</svg>
