<svg xmlns="http://www.w3.org/2000/svg" width="104.757" height="104.757" viewBox="0 0 104.757 104.757">
  <g id="Grupo_75199" data-name="Grupo 75199" transform="translate(-1393 4189.732)">
    <circle id="Elipse_4750" data-name="Elipse 4750" cx="52.378" cy="52.378" r="52.378" transform="translate(1393 -4189.732)" fill="#7e5ee3"/>
    <g id="Grupo_60668" data-name="Grupo 60668" transform="translate(169.71 -5403.823)">
      <path id="Trazado_131929" data-name="Trazado 131929" d="M1259.328,1240.812a1.242,1.242,0,0,1,.69.184,1.245,1.245,0,0,0-.69-.185,1.1,1.1,0,0,0-1.088.752A1.1,1.1,0,0,1,1259.328,1240.812Z" transform="translate(-2.869 -1.747)" fill="#fff"/>
      <path id="Trazado_131930" data-name="Trazado 131930" d="M1305.448,1276.427c.9-.005,1.808,0,2.712,0h0C1307.256,1276.43,1306.352,1276.422,1305.448,1276.427Z" transform="translate(-10.129 -7.225)" fill="#fff"/>
      <path id="Trazado_131931" data-name="Trazado 131931" d="M1284.916,1309.207h0Z" transform="translate(-6.583 -12.266)" fill="#fff"/>
      <path id="Trazado_131932" data-name="Trazado 131932" d="M1286.617,1242.2c0,.226-.017.454,0,.677-.02-.224,0-.452,0-.677v-.452C1286.614,1241.9,1286.617,1242.05,1286.617,1242.2Z" transform="translate(-7.231 -1.892)" fill="#fff"/>
      <path id="Trazado_131933" data-name="Trazado 131933" d="M1311.942,1266.643v-17.781a3.618,3.618,0,0,0-3.463-3.767c-.091,0-.182,0-.273,0-.527-.005-1.056-.019-1.583.005-.446.02-.734.009-.733-.6s.267-.652.725-.61a3.758,3.758,0,0,0,.677,0,3.5,3.5,0,0,0,3.174-2.285,3.624,3.624,0,0,0-3.687-4.932c-.752.072-.917-.193-.889-.906.058-1.53.019-3.063.018-4.6,0-1.554-.6-2-2.069-1.546q-6.929,2.14-13.861,4.289a7.28,7.28,0,0,1-2.285.338c-2.285-.029-4.57-.015-6.854-.008-1,0-1.427.432-1.448,1.409a3.106,3.106,0,0,0,0,.452c.053.416-.1.581-.536.557-.6-.034-1.206-.024-1.808,0a1.184,1.184,0,0,0-1.269,1.278q-.029,2.336,0,4.672a1.185,1.185,0,0,0,1.087,1.276,1.086,1.086,0,0,0,.183,0,15.962,15.962,0,0,0,1.657,0c.491-.034.7.067.7.635,0,.552-.239.592-.677.586-1.934-.016-3.869-.032-5.8.008-.609.013-.8-.119-.8-.769.036-3.239.019-6.48.016-9.72,0-1.185-.4-1.583-1.577-1.583h-23.355c-1.192,0-1.589.392-1.59,1.57,0,2.813.009,5.626-.008,8.439,0,.666.3,1.555-.146,1.937-.384.327-1.244.107-1.893.109a3.651,3.651,0,0,0-3.977,3.977v37.9a3.647,3.647,0,0,0,3.944,3.941h13.793c4.32,0,8.64.01,12.961-.012.524,0,.7.129.667.664a15.737,15.737,0,0,0,0,2.183c.046.611-.116.813-.767.8-2.084-.046-4.169-.023-6.253-.014-.989,0-1.425.439-1.431,1.424q-.014,2.186,0,4.37c.006.991.438,1.438,1.421,1.438q11.83.008,23.66,0c1.015,0,1.438-.445,1.438-1.491.007-1.354,0-2.713,0-4.069,0-1.3-.368-1.671-1.64-1.672-2.06,0-4.119-.015-6.177.01-.486.006-.662-.119-.632-.623a14.063,14.063,0,0,0,0-2.108c-.063-.7.123-.92.878-.917,8.766.031,17.532-.029,26.3.051a3.977,3.977,0,0,0,4.224-3.714,3.88,3.88,0,0,0,0-.543C1311.878,1280.005,1311.942,1273.323,1311.942,1266.643Zm-5.218-27.6c1.036.085,1.575.407,1.6,1.185.024.811-.542,1.174-1.6,1.261-1.146.095-.734-.694-.811-1.218.069-.543-.326-1.32.814-1.228Zm-27.338,1.269c0,.226-.018.453,0,.677.045.508-.288.484-.631.487s-.608-.008-.58-.462c.023-.376,0-.753,0-1.13,0-.41-.128-.846.592-.846.69,0,.625.388.615.821,0,.152,0,.3,0,.454Zm10.842-3.252a.773.773,0,0,1,.623-.9l.021,0q6.041-1.83,12.062-3.723c.508-.158.584-.013.581.458q-.014,1.847-.011,3.693t0,3.693v1.827c0,1.828-.008,3.655.014,5.483.007.569-.126.677-.666.508q-5.951-1.866-11.917-3.683a.817.817,0,0,1-.709-.913l0-.024c.03-2.145.024-4.28,0-6.415Zm-8.435.118c0-.38.112-.538.514-.534q2.487.024,4.972,0c.436-.005.563.158.553.573-.021,1.029-.007,2.06-.007,3.089,0,1-.014,2.01.007,3.013.009.415-.117.578-.553.574q-2.487-.028-4.972,0c-.4,0-.516-.154-.514-.534q.016-3.092,0-6.182Zm1.209,12.135c0-.6.01-1.2,0-1.8,0-.2,0-.4-.011-.6-.013-.423.084-.618.573-.63,1.66-.041,1.651-.062,1.414,1.6-.176,1.232-.323,2.468-.489,3.7a.878.878,0,0,1-.931.821.865.865,0,0,1-.362-.1c-.254-.114-.191-.326-.194-.508Zm-34.159-13.878c3.366.025,6.731.012,10.1.012,3.341,0,6.685.017,10.022-.014.639-.006.791.19.788.8q-.036,7.649,0,15.3c0,.612-.142.81-.784.808q-10.1-.034-20.2,0c-.61,0-.751-.186-.749-.767q.03-7.686,0-15.372c-.007-.672.232-.777.823-.772ZM1242,1249.22c0-1.375.347-1.713,1.748-1.714,1.869,0,1.869,0,1.869,1.85,0,1.306-.006,2.612,0,3.918.006,1.036.431,1.465,1.467,1.465q11.791.005,23.581,0c1.04,0,1.47-.428,1.475-1.459.009-1.733.02-3.47-.009-5.2-.008-.47.133-.592.592-.586,2.411.022,4.823.029,7.233,0,.569-.008.645.207.637.7-.026,1.682-.014,3.365-.009,5.048,0,1.083.423,1.5,1.5,1.5,1.054.006,2.11.011,3.164,0a1.219,1.219,0,0,0,1.354-1.07c.005-.042.008-.084.009-.128.31-2.134.642-4.266.9-6.407.085-.718.365-.931,1.043-.84a19.255,19.255,0,0,1,2.962.832c4.125,1.253,8.24,2.539,12.359,3.808,1.411.436,2.012-.028,2.038-1.523.011-.617-.286-1.438.138-1.793.357-.3,1.147-.1,1.746-.107,1.382-.006,1.725.344,1.725,1.736q0,16.8.018,33.6c0,.7-.2.846-.867.846q-16.462-.031-32.923-.015-16.424,0-32.848.015c-.687,0-.924-.107-.922-.873q.045-16.807.021-33.608Zm43.9,47.712c.549,0,.737.129.733.708-.014,1.714.012,1.715-1.673,1.715-6.405,0-12.81-.009-19.215.014-.646,0-.869-.137-.846-.824.048-1.6.01-1.6,1.638-1.6h11.8c2.521,0,5.045,0,7.568-.016Zm-12.546-5.5c-.008-.383.118-.536.517-.531,1.256.018,2.511.014,3.766,0,.363,0,.56.079.55.5q-.033,1.317,0,2.637c.01.423-.2.5-.555.492-.314-.008-.628-.009-.942-.008s-.628,0-.942,0c-.452,0-.9-.009-1.354,0-.151,0-.3,0-.452.01-.4.014-.6-.084-.592-.536C1273.377,1293.144,1273.37,1292.289,1273.355,1291.436Zm35.377-3.046a1.736,1.736,0,0,1-.736.111h-64.474a1.572,1.572,0,0,1-1.5-2.182.321.321,0,0,1,.339-.223c.226,0,.452-.005.677-.005h32.768q16.307,0,32.614.019c.36,0,.965-.372,1.1.359a1.608,1.608,0,0,1-.8,1.918Z" transform="translate(0)" fill="#fff"/>
      <path id="Trazado_131940" data-name="Trazado 131940" d="M1280.715,1306.35c.452-.005.9,0,1.354,0h0C1281.619,1306.354,1281.167,1306.341,1280.715,1306.35Z" transform="translate(-6.325 -11.826)" fill="#fff"/>
      <path id="Trazado_131942" data-name="Trazado 131942" d="M1290.891,1252.6c0-.6.009-1.2,0-1.8.005.6,0,1.2,0,1.8,0,.825-.005,1.651,0,2.476Z" transform="translate(-7.89 -3.283)" fill="#fff"/>
      <path id="Trazado_131945" data-name="Trazado 131945" d="M1246.967,1286.741h30.5c1.185,0,1.587-.4,1.587-1.573V1266.64c0-1.221-.39-1.6-1.633-1.6h-30.5c-1.24,0-1.624.38-1.624,1.608V1285.1C1245.3,1286.369,1245.671,1286.741,1246.967,1286.741Zm26.565-19.261c-1.141.707-2.128,1.32-3.118,1.93-2.539,1.565-5.092,3.118-7.621,4.7a.976.976,0,0,1-1.212,0c-3.364-2.1-6.748-4.162-10.122-6.243-.158-.1-.367-.148-.46-.391Zm-25.823,1.777c0-.812.013-.827.728-.39,4.275,2.618,8.554,5.23,12.81,7.88a1.592,1.592,0,0,0,1.879.017q6.17-3.818,12.35-7.616c.349-.214.738-.687,1.081-.5.269.15.085.745.085,1.141q.01,6.778,0,13.556c0,.986,0,.987-.954.987h-13.556c-4.544,0-9.088-.011-13.631.012-.6,0-.817-.129-.813-.779.034-4.782.021-9.549.022-14.318Z" transform="translate(-0.878 -5.473)" fill="#fff"/>
      <path id="Trazado_131946" data-name="Trazado 131946" d="M1289.33,1279.06c.254.012.5,0,.753,0,1.576,0,1.576,0,1.576,1.538v1.658c0,1.24.383,1.625,1.608,1.626h19.812c1.016,0,1.483-.423,1.484-1.372q.012-7.08,0-14.162A1.216,1.216,0,0,0,1313.5,1267a1.235,1.235,0,0,0-.291,0,.648.648,0,0,0-.151,0c-.8.169-.962-.222-.911-.939.06-.846.027-1.707.01-2.56a1.194,1.194,0,0,0-1.306-1.319q-10.735-.013-21.469,0a1.186,1.186,0,0,0-1.33,1.292q-.017,7.156,0,14.313a1.184,1.184,0,0,0,1.092,1.271A1.125,1.125,0,0,0,1289.33,1279.06Zm22.171-9.654c.54,0,.677.174.67.69q-.029,5.35,0,10.7c.005.6-.225.693-.75.69-2.072-.016-4.146-.014-6.216-.012h-6.219q-2.074,0-4.146.013c-.547,0-.8-.085-.79-.726.033-3.541.027-7.084,0-10.625,0-.551.132-.731.709-.729q8.374.03,16.738,0Zm-20.287-4.823c2.962.026,5.924.012,8.885.012s5.924.012,8.885-.011c.561,0,.791.1.78.736-.03,1.686,0,1.686-1.7,1.686h-14.836c-1.19,0-1.565.379-1.566,1.579,0,2.46-.006,4.92,0,7.38,0,.423-.013.7-.58.706s-.641-.254-.639-.726c.014-3.54.024-7.079-.007-10.618-.006-.617.2-.749.77-.744Z" transform="translate(-7.451 -5.033)" fill="#fff"/>
      <path id="Trazado_131947" data-name="Trazado 131947" d="M1260.083,1250.221c2.271-1.124,4.533-2.268,6.8-3.393a1.257,1.257,0,0,0,.006-2.393q-3.406-1.688-6.8-3.4l-.092-.046a1.238,1.238,0,0,0-.691-.184,1.1,1.1,0,0,0-1.087.75c-.014.037-.025.075-.036.115a1.837,1.837,0,0,0-.041.187,2.1,2.1,0,0,0-.022.3q-.013,3.427,0,6.854C1258.129,1250.271,1258.952,1250.781,1260.083,1250.221Zm.5-6.22,3.274,1.625-3.274,1.645Z" transform="translate(-2.849 -1.747)" fill="#fff"/>
      <path id="Trazado_131951" data-name="Trazado 131951" d="M1303.7,1275.438c.016.423.15.566.57.558q.452-.008.9-.01c.9-.005,1.808,0,2.712,0h2.561c1.736,0,1.715,0,1.714-1.747,0-.532-.164-.683-.686-.677-2.009.026-4.019.011-6.028.011C1303.619,1273.578,1303.633,1273.578,1303.7,1275.438Z" transform="translate(-9.857 -6.785)" fill="#fff"/>
      <path id="Trazado_131952" data-name="Trazado 131952" d="M1312.118,1279.32c-1.692-.154-3.412-.036-5.12-.047-.6,0-.508.456-.427.736.156.555-.508,1.318.4,1.67a1.074,1.074,0,0,0,.375.008h2.185c.641,0,1.281-.009,1.922-.005q.32,0,.64.01c.649.017.541-.467.466-.778C1312.432,1280.366,1313.071,1279.406,1312.118,1279.32Z" transform="translate(-10.288 -7.657)" fill="#fff"/>
      <path id="Trazado_131953" data-name="Trazado 131953" d="M1310.091,1282.129h0c.641,0,1.281-.01,1.922-.005C1311.372,1282.121,1310.732,1282.129,1310.091,1282.129Z" transform="translate(-10.843 -8.101)" fill="#fff"/>
      <path id="Trazado_131954" data-name="Trazado 131954" d="M1302.372,1279.32a30.325,30.325,0,0,0-3.911-.05c-.38,0-.442.181-.462.508-.115,1.907-.123,1.906,1.777,1.906h.6c.49,0,.98-.013,1.47-.007.163,0,.326.006.489.014.574.026.572-.379.475-.695C1302.641,1280.428,1303.352,1279.458,1302.372,1279.32Z" transform="translate(-8.977 -7.656)" fill="#fff"/>
      <path id="Trazado_131955" data-name="Trazado 131955" d="M1300.82,1282.13h0c.49,0,.98-.014,1.469-.008C1301.8,1282.116,1301.31,1282.13,1300.82,1282.13Z" transform="translate(-9.417 -8.101)" fill="#fff"/>
      <path id="Trazado_131956" data-name="Trazado 131956" d="M1299.07,1275.993c1.36,0,1.36,0,1.36-1.185-.019-1.337.169-1.23-.939-1.224-1.663.009-1.457-.2-1.47.992C1298.01,1275.993,1298.017,1275.993,1299.07,1275.993Z" transform="translate(-8.986 -6.786)" fill="#fff"/>
    </g>
  </g>
</svg>
