<svg xmlns="http://www.w3.org/2000/svg" width="104.757" height="104.757" viewBox="0 0 104.757 104.757">
  <g id="Grupo_75197" data-name="Grupo 75197" transform="translate(-766 4189.732)">
    <circle id="Elipse_4748" data-name="Elipse 4748" cx="52.378" cy="52.378" r="52.378" transform="translate(766 -4189.732)" fill="#7e5ee3"/>
    <g id="Grupo_75188" data-name="Grupo 75188" transform="translate(236.632 -4224)">
      <path id="Trazado_145473" data-name="Trazado 145473" d="M618.2,87.224a7.067,7.067,0,0,1-2.664,3.416.679.679,0,0,0-.24.892,4.144,4.144,0,0,1-4.049,5.664c-3.489.012-6.979,0-10.468,0h-.833c.107.539.237,1.015.29,1.5a7.379,7.379,0,0,1-.4,3.361,1.023,1.023,0,0,0,.11.809,6.878,6.878,0,0,1-3.14,10.546,1.185,1.185,0,0,0-.576.667,4.255,4.255,0,0,1-2.548,2.789,1.07,1.07,0,1,1-.845-1.954,2.063,2.063,0,0,0,1.108-2.99,12.148,12.148,0,0,0-4.372-5.311.9.9,0,0,0-.964-.112,18.392,18.392,0,0,1-13.811,0,1.032,1.032,0,0,0-.817.1,11.71,11.71,0,0,0-4.4,5.193c-.818,1.877.057,3.225,2.094,3.226q7.9.007,15.808,0a3.279,3.279,0,0,1,.778.043,1.052,1.052,0,0,1-.113,2.076,4.433,4.433,0,0,1-.569.016q-7.94,0-15.88,0a4.207,4.207,0,0,1-4.5-3.254.931.931,0,0,0-.509-.477,6.86,6.86,0,0,1-3.144-10.576c.109-.158.245-.418.188-.554a7.344,7.344,0,0,1-.173-5.091h-.83q-3.56,0-7.121,0c-.872,0-1.379-.417-1.357-1.094.021-.651.51-1.038,1.35-1.039q4.166-.007,8.332,0h.885a15.066,15.066,0,0,1,.275-7.235c-1.341,0-2.617.04-3.889-.009a17.555,17.555,0,0,1-5.6-1.245,1.113,1.113,0,0,0-.879.084,11.7,11.7,0,0,0-4.388,5.2,2.1,2.1,0,0,0,.561,2.866,1.074,1.074,0,0,1,.185,1.523,1.089,1.089,0,0,1-1.586.087,4.185,4.185,0,0,1-1.307-4.863,13.929,13.929,0,0,1,4.131-5.7c.181-.151.364-.3.625-.516-.234-.166-.433-.31-.634-.45a15.283,15.283,0,0,1-6.736-9.92c-1.083-5.8.818-10.626,5.213-14.463a18.091,18.091,0,0,1,25.823,2.526,14.527,14.527,0,0,1,2.662,12.709c-.042.178-.078.357-.115.526h5.121c-.134-.722-.322-1.469-.407-2.227-.655-5.869,1.528-10.556,6.113-14.127a18.107,18.107,0,0,1,25.1,3.13,14.652,14.652,0,0,1,2.978,7.21,2.223,2.223,0,0,0,.125.4v2.848c-.162.786-.294,1.579-.493,2.355a15.459,15.459,0,0,1-3.141,6,18.811,18.811,0,0,0,1.677,1.567,4.972,4.972,0,0,1,1.957,2.611Zm-42.2-21.365c-.538.187-1,.371-1.477.51-5.136,1.5-10.114,1.34-14.828-1.453a1.883,1.883,0,0,0-1.889-.023,16.336,16.336,0,0,1-8.8,1.807c-.433-.051-.514.21-.633.5a12.333,12.333,0,0,0-.468,8.29c2.126,7.347,10.262,11.5,17.786,9.926a.974.974,0,0,0,.571-.438,16.967,16.967,0,0,1,9.927-8.038,1.023,1.023,0,0,0,.587-.515A12.5,12.5,0,0,0,576.005,65.859Zm20.7,24.3a.772.772,0,0,0-.192-.076,8.567,8.567,0,0,1-6.776-3.2.841.841,0,0,0-.668-.2,9.739,9.739,0,0,1-6.791-1.521.87.87,0,0,0-1.076.007,9.809,9.809,0,0,1-6.794,1.519.976.976,0,0,0-.751.315,7.431,7.431,0,0,1-3.179,2.333c-1.165.418-2.4.644-3.714.983a12.04,12.04,0,0,0,1.924,8.506,14.72,14.72,0,0,0,11.89,6.811,15.1,15.1,0,0,0,13.49-5.776A12.291,12.291,0,0,0,596.7,90.156Zm-3.771-23.934c-2.024.623-3.959,1.236-5.908,1.8a.9.9,0,0,0-.716.733,12.766,12.766,0,0,0,.273,7.422,1.172,1.172,0,0,0,.847.826,15.747,15.747,0,0,1,8.919,6.676,3.84,3.84,0,0,0,3.551,2.045c5.305.2,9.818-1.481,13.229-5.61a12.244,12.244,0,0,0,2.492-11.348,1.008,1.008,0,0,0-.5-.649c-2.014-.656-4.045-1.263-6.085-1.889-.726,1.751-1.477,2.37-3.118,2.378-3.3.017-6.594,0-9.891.007a2.969,2.969,0,0,1-2.863-1.74A4.556,4.556,0,0,1,592.931,66.221Zm21.194-.407.113-.239c-2.217-4.1-7.716-7.8-14.623-7.228-5.118.425-10.993,4.082-11.928,7.542,1.678-.744,3.236-1.358,4.722-2.116,1.391-.709,2.565-.11,2.608,1.449.029,1.042.233,1.252,1.265,1.254q4.7.006,9.4,0c.991,0,1.224-.234,1.248-1.2.04-1.654,1.195-2.222,2.68-1.456C611.069,64.573,612.616,65.156,614.125,65.814ZM596.109,87.945c-1.37-4.7-6.981-10.158-15.46-9.678-6.033.341-12.695,5.188-13.218,9.675a6.09,6.09,0,0,0,4.589-2.373,2.281,2.281,0,0,1,2.5-1.052,7.369,7.369,0,0,0,5.677-1.261,2.46,2.46,0,0,1,3.067-.011,7.423,7.423,0,0,0,5.744,1.267,2.289,2.289,0,0,1,2.483,1.1A6.1,6.1,0,0,0,596.109,87.945Zm2.552,7.079c.231.017.394.038.557.038q6.017,0,12.034,0a2.023,2.023,0,0,0,1.973-2.969,12.093,12.093,0,0,0-4.43-5.438.889.889,0,0,0-.968-.092,16.16,16.16,0,0,1-5.52,1.254c-1.291.049-2.584.009-3.941.009A14.846,14.846,0,0,1,598.662,95.023Zm-23.837-30.98a15.732,15.732,0,0,0-13.778-5.684c-5.278.389-9.671,3.621-11.107,6.285.324,0,.628.015.929,0a14.868,14.868,0,0,0,5.73-1.549,4.59,4.59,0,0,1,4.641.223C565.56,65.722,570.07,65.606,574.825,64.043Zm-2.731,41.075a16.63,16.63,0,0,1-6.416-7.373,4.669,4.669,0,0,0,.015,3.606,2.357,2.357,0,0,1-.344,2.7,4.516,4.516,0,0,0-.984,3.526,4.427,4.427,0,0,0,2.974,3.709,36.849,36.849,0,0,1,2.035-3.257C570.162,107.008,571.138,106.128,572.093,105.118Zm23.938,6.224a4.613,4.613,0,0,0,2.231-7.093,2.755,2.755,0,0,1-.414-3.081,4.185,4.185,0,0,0-.066-3.39,16.755,16.755,0,0,1-6.511,7.426A14.383,14.383,0,0,1,596.031,111.343Zm14.632-26.165,3.673,3.945c.421-.491.887-1.026,1.345-1.569a1.312,1.312,0,0,0,.02-1.863c-.847-.809-1.754-1.554-2.63-2.321Z" transform="translate(0)" fill="#fff"/>
      <path id="Trazado_145474" data-name="Trazado 145474" d="M573.522,89.443a4.073,4.073,0,0,1-2.848-1.311,1.058,1.058,0,0,1-.065-1.579,1.076,1.076,0,0,1,1.532.035c1.17.98,1.929.976,3.131-.017a1.073,1.073,0,0,1,1.531,0,1.058,1.058,0,0,1-.049,1.529A4.349,4.349,0,0,1,573.522,89.443Z" transform="translate(-11.188 -13.476)" fill="#fff"/>
      <path id="Trazado_145475" data-name="Trazado 145475" d="M560.541,85.205c0,.284.02.57,0,.852a1.053,1.053,0,0,1-1.06,1.028,1.008,1.008,0,0,1-1.045-.963,10.968,10.968,0,0,1,0-1.914.968.968,0,0,1,1.048-.942.988.988,0,0,1,1.047.947,7.425,7.425,0,0,1,.008.993Z" transform="translate(-5.864 -12.14)" fill="#fff"/>
      <path id="Trazado_145476" data-name="Trazado 145476" d="M590.641,85.109a8.112,8.112,0,0,1,0-.851.992.992,0,0,1,1-.992.959.959,0,0,1,1.087.9,9.628,9.628,0,0,1,.005,1.983.975.975,0,0,1-1.066.931,1,1,0,0,1-1.029-.973C590.614,85.775,590.641,85.441,590.641,85.109Z" transform="translate(-20.293 -12.14)" fill="#fff"/>
      <path id="Trazado_145477" data-name="Trazado 145477" d="M608.486,125.564a4.138,4.138,0,0,1-3.029-1.337,1.04,1.04,0,0,1-.062-1.524,1.075,1.075,0,0,1,1.529-.014c1.244,1.015,1.9,1.011,3.185-.02a1.085,1.085,0,0,1,1.48,0,1.034,1.034,0,0,1-.007,1.525A4.134,4.134,0,0,1,608.486,125.564Z" transform="translate(-26.765 -29.645)" fill="#fff"/>
      <path id="Trazado_145478" data-name="Trazado 145478" d="M595.343,121.262a7.721,7.721,0,0,1-.008.993.989.989,0,0,1-.994.933.968.968,0,0,1-1.089-.9,9.8,9.8,0,0,1-.005-1.984.964.964,0,0,1,1.061-.929.992.992,0,0,1,1.033.965,7.526,7.526,0,0,1,.007.922Z" transform="translate(-21.442 -28.301)" fill="#fff"/>
      <path id="Trazado_145479" data-name="Trazado 145479" d="M627.568,121.315c0,.284.021.57-.005.852A1.08,1.08,0,0,1,626.5,123.2a1.057,1.057,0,0,1-1.048-1.04,17.277,17.277,0,0,1,0-1.774,1.038,1.038,0,0,1,1.06-1.019,1.058,1.058,0,0,1,1.056,1.03C627.589,120.7,627.568,121.007,627.568,121.315Z" transform="translate(-35.865 -28.295)" fill="#fff"/>
      <path id="Trazado_145480" data-name="Trazado 145480" d="M643.116,89.44a4.084,4.084,0,0,1-2.8-1.283,1.062,1.062,0,0,1-.116-1.578,1.08,1.08,0,0,1,1.582.03,2.021,2.021,0,0,0,3.08-.014,1.068,1.068,0,1,1,1.488,1.528A4.349,4.349,0,0,1,643.116,89.44Z" transform="translate(-42.345 -13.475)" fill="#fff"/>
      <path id="Trazado_145481" data-name="Trazado 145481" d="M630.156,85.165c0,.308.024.618-.005.923a1,1,0,0,1-1.016.987.969.969,0,0,1-1.077-.915,9.716,9.716,0,0,1,0-1.984.961.961,0,0,1,1.075-.91.989.989,0,0,1,1.018.977A8.4,8.4,0,0,1,630.156,85.165Z" transform="translate(-37.02 -12.14)" fill="#fff"/>
      <path id="Trazado_145482" data-name="Trazado 145482" d="M662.37,85.16a9.152,9.152,0,0,1,0,.923,1.053,1.053,0,0,1-1.089,1,1.01,1.01,0,0,1-1.02-.988,13.443,13.443,0,0,1,0-1.845.983.983,0,0,1,1.01-.986,1.028,1.028,0,0,1,1.1.976A9.177,9.177,0,0,1,662.37,85.16Z" transform="translate(-51.439 -12.138)" fill="#fff"/>
    </g>
  </g>
</svg>
