<svg xmlns="http://www.w3.org/2000/svg" width="142" height="142" viewBox="0 0 142 142">
  <g id="Grupo_75120" data-name="Grupo 75120" transform="translate(4008 12455)">
    <rect id="Rectángulo_32796" data-name="Rectángulo 32796" width="142" height="142" transform="translate(-4008 -12455)" fill="none"/>
    <g id="Grupo_75117" data-name="Grupo 75117" transform="translate(-17.893 -190)">
      <path id="Trazado_146198" data-name="Trazado 146198" d="M26.094,4.781v9.307a5.349,5.349,0,0,1-.674,2.739,4.365,4.365,0,0,1-1.934,1.763,6.812,6.812,0,0,1-2.979.605,5.885,5.885,0,0,1-4.092-1.348,4.806,4.806,0,0,1-1.523-3.691V4.781H18.34v9.443q.059,2.334,2.168,2.334a2.1,2.1,0,0,0,1.611-.586,2.739,2.739,0,0,0,.547-1.9V4.781Zm7.52,11.25a.76.76,0,0,0-.439-.674,6.685,6.685,0,0,0-1.67-.527,7.615,7.615,0,0,1-2.031-.718,3.4,3.4,0,0,1-1.221-1.079,2.577,2.577,0,0,1-.42-1.455,2.92,2.92,0,0,1,1.2-2.4,4.948,4.948,0,0,1,3.145-.942,5.482,5.482,0,0,1,3.359.947,2.962,2.962,0,0,1,1.27,2.49h-3.3q0-1.27-1.338-1.27a1.326,1.326,0,0,0-.869.288.892.892,0,0,0-.352.718.819.819,0,0,0,.43.713,4.06,4.06,0,0,0,1.372.449,11.857,11.857,0,0,1,1.655.42,3.007,3.007,0,0,1,2.383,2.939A2.767,2.767,0,0,1,35.5,18.287a5.632,5.632,0,0,1-3.325.908,5.747,5.747,0,0,1-2.422-.488,4.05,4.05,0,0,1-1.66-1.328,3.007,3.007,0,0,1-.6-1.768h3.076a1.272,1.272,0,0,0,.488,1.069,2.009,2.009,0,0,0,1.2.337,1.58,1.58,0,0,0,1.011-.273A.875.875,0,0,0,33.613,16.031Zm4.3-2.412a6.236,6.236,0,0,1,.615-2.817,4.4,4.4,0,0,1,1.768-1.9A5.323,5.323,0,0,1,43,8.238a4.858,4.858,0,0,1,3.74,1.47,5.64,5.64,0,0,1,1.367,4v.117a5.472,5.472,0,0,1-1.372,3.921,4.871,4.871,0,0,1-3.716,1.45,4.927,4.927,0,0,1-3.623-1.353,5.29,5.29,0,0,1-1.475-3.667Zm3.291.205a3.932,3.932,0,0,0,.459,2.148,1.529,1.529,0,0,0,1.357.684q1.758,0,1.8-2.705v-.332q0-2.842-1.816-2.842-1.65,0-1.787,2.451ZM60.488,19a3.716,3.716,0,0,1-.312-.947A3.06,3.06,0,0,1,57.637,19.2a3.749,3.749,0,0,1-2.539-.9,2.875,2.875,0,0,1-1.045-2.271,2.955,2.955,0,0,1,1.27-2.6,6.468,6.468,0,0,1,3.691-.879h1.016v-.559q0-1.462-1.26-1.462A1.03,1.03,0,0,0,57.6,11.681H54.307a2.95,2.95,0,0,1,1.3-2.487,5.479,5.479,0,0,1,3.325-.956,4.8,4.8,0,0,1,3.193.986,3.429,3.429,0,0,1,1.2,2.705v4.678a4.79,4.79,0,0,0,.449,2.227V19Zm-2.061-2.148a1.836,1.836,0,0,0,1.021-.264,1.653,1.653,0,0,0,.581-.6V14.3h-.957q-1.719,0-1.719,1.543a.942.942,0,0,0,.3.728A1.1,1.1,0,0,0,58.428,16.852Zm6.309-3.213A6.455,6.455,0,0,1,65.82,9.684a3.568,3.568,0,0,1,3.027-1.445A3.035,3.035,0,0,1,71.23,9.352V4h3.3V19H71.572l-.166-1.133A3.116,3.116,0,0,1,68.828,19.2,3.562,3.562,0,0,1,65.84,17.75,6.659,6.659,0,0,1,64.736,13.639Zm3.291.205q0,2.813,1.641,2.813a1.62,1.62,0,0,0,1.563-.918V11.715a1.576,1.576,0,0,0-1.543-.937q-1.523,0-1.65,2.461ZM81.514,19.2a5.432,5.432,0,0,1-3.936-1.45,5.008,5.008,0,0,1-1.5-3.774V13.7a6.489,6.489,0,0,1,.6-2.861,4.395,4.395,0,0,1,1.753-1.919,5.292,5.292,0,0,1,2.734-.679A4.574,4.574,0,0,1,84.678,9.62a5.43,5.43,0,0,1,1.289,3.853v1.279H79.424a2.372,2.372,0,0,0,.771,1.4,2.3,2.3,0,0,0,1.543.508,2.958,2.958,0,0,0,2.441-1.094l1.5,1.777a4.2,4.2,0,0,1-1.743,1.353A5.891,5.891,0,0,1,81.514,19.2Zm-.371-8.418q-1.445,0-1.719,1.914h3.32v-.254a1.63,1.63,0,0,0-.4-1.226A1.593,1.593,0,0,0,81.143,10.777Zm10.615,5.879a1.464,1.464,0,0,0,1.074-.376,1.379,1.379,0,0,0,.371-1.05h3.086a3.653,3.653,0,0,1-1.245,2.852A4.631,4.631,0,0,1,91.836,19.2,4.689,4.689,0,0,1,88.2,17.75a5.7,5.7,0,0,1-1.328-4v-.137a6.436,6.436,0,0,1,.591-2.827A4.3,4.3,0,0,1,89.17,8.9a5.081,5.081,0,0,1,2.637-.659,4.573,4.573,0,0,1,3.271,1.143,4.053,4.053,0,0,1,1.211,3.1H93.2a1.806,1.806,0,0,0-.4-1.26,1.382,1.382,0,0,0-1.074-.439q-1.279,0-1.494,1.631a11.508,11.508,0,0,0-.068,1.426,4.52,4.52,0,0,0,.381,2.207A1.319,1.319,0,0,0,91.758,16.656Zm12.217,1.2a3.393,3.393,0,0,1-2.822,1.338,3.328,3.328,0,0,1-2.632-1.011,4.251,4.251,0,0,1-.894-2.905V8.434h3.291V15.3a1.183,1.183,0,0,0,1.318,1.357,1.72,1.72,0,0,0,1.611-.811V8.434h3.311V19h-3.086ZM114.912,19a3.716,3.716,0,0,1-.312-.947,3.06,3.06,0,0,1-2.539,1.143,3.749,3.749,0,0,1-2.539-.9,2.875,2.875,0,0,1-1.045-2.271,2.955,2.955,0,0,1,1.27-2.6,6.468,6.468,0,0,1,3.691-.879h1.016v-.559q0-1.462-1.26-1.462a1.03,1.03,0,0,0-1.172,1.158H108.73a2.95,2.95,0,0,1,1.3-2.487,5.479,5.479,0,0,1,3.325-.956,4.8,4.8,0,0,1,3.193.986,3.429,3.429,0,0,1,1.2,2.705v4.678a4.79,4.79,0,0,0,.449,2.227V19Zm-2.061-2.148a1.836,1.836,0,0,0,1.021-.264,1.653,1.653,0,0,0,.581-.6V14.3H113.5q-1.719,0-1.719,1.543a.942.942,0,0,0,.3.728A1.1,1.1,0,0,0,112.852,16.852Zm6.309-3.213a6.455,6.455,0,0,1,1.084-3.955,3.568,3.568,0,0,1,3.027-1.445,3.035,3.035,0,0,1,2.383,1.113V4h3.3V19H126l-.166-1.133a3.116,3.116,0,0,1-2.578,1.328,3.562,3.562,0,0,1-2.988-1.445A6.659,6.659,0,0,1,119.16,13.639Zm3.291.205q0,2.813,1.641,2.813a1.62,1.62,0,0,0,1.563-.918V11.715a1.576,1.576,0,0,0-1.543-.937q-1.523,0-1.65,2.461Zm7.959-.225a6.236,6.236,0,0,1,.615-2.817,4.4,4.4,0,0,1,1.768-1.9,5.323,5.323,0,0,1,2.705-.664,4.858,4.858,0,0,1,3.74,1.47,5.64,5.64,0,0,1,1.367,4v.117a5.472,5.472,0,0,1-1.372,3.921,4.871,4.871,0,0,1-3.716,1.45,4.927,4.927,0,0,1-3.623-1.353,5.29,5.29,0,0,1-1.475-3.667Zm3.291.205a3.932,3.932,0,0,0,.459,2.148,1.529,1.529,0,0,0,1.357.684q1.758,0,1.8-2.705v-.332q0-2.842-1.816-2.842-1.65,0-1.787,2.451Z" transform="translate(-3997 -12153.273)" fill="#12263f"/>
      <circle id="Elipse_4738" data-name="Elipse 4738" cx="42.5" cy="42.5" r="42.5" transform="translate(-3962 -12254)" fill="#00bcd4"/>
      <g id="Grupo_75114" data-name="Grupo 75114" transform="translate(-5382.27 -12451.389)">
        <path id="Trazado_145305" data-name="Trazado 145305" d="M1513.824,398.132a.571.571,0,0,1,.762,0Z" transform="translate(-55.115 -125.723)" fill="#fff"/>
        <path id="Trazado_145306" data-name="Trazado 145306" d="M1510.84,398.15c.127-.207.254-.154.381,0Z" transform="translate(-53.147 -125.742)" fill="#fff"/>
        <path id="Trazado_145307" data-name="Trazado 145307" d="M1519.793,398.192a.221.221,0,0,1,.262-.109c.036.027.046.052.032.076s-.027.034-.04.034Z" transform="translate(-59.052 -125.784)" fill="#fff"/>
        <path id="Trazado_145308" data-name="Trazado 145308" d="M1520.539,398.2q0-.055.008-.109h.253c.036.027.047.051.033.075s-.027.034-.04.034Z" transform="translate(-59.544 -125.794)" fill="#fff"/>
        <path id="Trazado_145309" data-name="Trazado 145309" d="M1521.285,398.185a.891.891,0,0,1,.007-.108c.1-.014.212-.036.247.108Z" transform="translate(-60.036 -125.776)" fill="#fff"/>
        <path id="Trazado_145310" data-name="Trazado 145310" d="M1494.133,236.763a4.652,4.652,0,0,0-3.473-3.507,1.663,1.663,0,0,1,.047-.2,4.628,4.628,0,0,0-2.866-6.434c-.427-.158-.249-.319-.167-.539a4.658,4.658,0,0,0-2.876-6.2c-.354-.124-.41-.211-.262-.546a4.307,4.307,0,0,0,.265-2.671,4.672,4.672,0,0,0-7.228-2.963c-1.423.911-2.823,1.859-4.228,2.8a.644.644,0,0,1-.743.091,28.641,28.641,0,0,0-7.169-2.432.774.774,0,0,1-.559-.347,29.308,29.308,0,0,0-4.815-5.288,4.209,4.209,0,0,0-6.521,5.173c.245.43.2.573-.278.6a1.538,1.538,0,0,0-.245.065,29.379,29.379,0,0,0-22.319,33.616,29.466,29.466,0,0,0,23.734,23.953,12.7,12.7,0,0,1,2.629.473h.635a.29.29,0,0,1,.381,0h.635a.971.971,0,0,1,.762,0h1.27c.076-.083.177-.061.271-.065h.219c.095,0,.2-.018.272.065h.381c.886-.255,1.814-.222,2.711-.4q16.417-3.28,22.665-18.811c.284-.708.164-1.011-.5-1.5-.86-.116-1.112.071-1.5,1.06a27.431,27.431,0,0,1-27.161,17.6,4.908,4.908,0,0,1-.558-.089h0a22.463,22.463,0,0,1-6.374-1.279c.069-.2.259-.256.4-.352q6.968-4.619,13.94-9.231c1.841-1.217,2.136-2.06,1.388-4.132-.085-.237.022-.291.157-.4a5.761,5.761,0,0,1,4.648-1.367,5.8,5.8,0,0,0,3.945-.849c.8-.473,1.568-.99,2.351-1.488l7.727-5.16a2.445,2.445,0,0,1,.37-.241c.26-.111.49-.521.745-.332.2.148.053.559.018.848-.062.523-.165,1.042-.225,1.565-.109.952.154,1.263,1.107,1.352.608-.1.809-.544.895-1.08a27.051,27.051,0,0,0,.4-3.78.911.911,0,0,1,.49-.856c.911-.575,1.811-1.167,2.694-1.784A4.58,4.58,0,0,0,1494.133,236.763Zm-23.156-18.7-3.064,2.035c-.478-1.2-.869-2.372-1.476-3.616A25.144,25.144,0,0,1,1470.977,218.061Zm-38.657,23.577a27.449,27.449,0,0,1,20.7-25.205c1.933-.477,1.93-.476,2.382,1.51a14.271,14.271,0,0,1-.214,6.712c-.782,3.155-1.474,6.333-2.214,9.545-1.609-1.079-2.437-1.076-4.018-.029l-15.968,10.57c-.172.114-.35.217-.608.377A23.831,23.831,0,0,1,1432.32,241.638Zm32.273,15.946c-1.707,1.132-3.427,2.245-5.116,3.4-.426.293-.6.21-.862-.186q-5.29-7.934-10.61-15.848c-.489-.73-.773-.826-1.593-.567-.565.66-.577.96-.055,1.739q5.274,7.868,10.562,15.727c.311.461.283.648-.189.954-2.552,1.654-5.082,3.341-7.608,5.034a.752.752,0,0,1-.854.063,27.34,27.34,0,0,1-15.563-20.091.6.6,0,0,1,.317-.721q4.641-3.031,9.254-6.1c.33-.22.518-.275.73.127.195.371.484.693.695,1.058a1.206,1.206,0,0,0,1.432.65h0c.715-.593.776-.964.278-1.728-.265-.407-.522-.82-.81-1.211-.17-.232-.12-.352.1-.5,1.925-1.262,3.84-2.539,5.77-3.795.509-.331.846-.2,1.247.4q3.432,5.174,6.86,10.352,3.183,4.807,6.362,9.617C1465.5,256.8,1465.451,257.016,1464.593,257.584Zm26.428-17.508q-3.082,2.061-6.179,4.1c-3.205,2.124-6.418,4.237-9.613,6.376a5.062,5.062,0,0,1-3.708.928,6.844,6.844,0,0,0-5.326,1.549c-.417.32-.6.277-.9-.171q-5.223-7.944-10.494-15.857a1.141,1.141,0,0,1-.19-.99c.965-4.11,1.956-8.215,2.829-12.345a13.994,13.994,0,0,0-1.868-10.47,2.948,2.948,0,0,1-.571-1.388,2.1,2.1,0,0,1,1.181-2.136,2.043,2.043,0,0,1,2.424.278,22.535,22.535,0,0,1,6.952,9.661c.242.719.517,1.428.786,2.138.361.952.977,1.158,1.827.6q5.183-3.424,10.358-6.859a2.728,2.728,0,0,1,2.274-.5,2.535,2.535,0,0,1,1.989,2,2.486,2.486,0,0,1-.981,2.7c-.938.684-1.912,1.322-2.9,1.935a1.218,1.218,0,0,0-.636,1.489c.633.674.967.717,1.739.214.632-.412,1.25-.847,1.892-1.241a2.358,2.358,0,0,1,2.328-.216,2.415,2.415,0,0,1,1.728,2.118,2.493,2.493,0,0,1-1.11,2.52c-.928.654-1.89,1.258-2.835,1.889-.72.481-.816.771-.546,1.589.646.536.953.561,1.632.119.635-.414,1.257-.847,1.9-1.249a2.408,2.408,0,0,1,2.279-.256,2.362,2.362,0,0,1,1.761,1.942,2.511,2.511,0,0,1-1.061,2.716c-.925.66-1.891,1.261-2.836,1.894s-.957,1.319-.031,1.977a1.543,1.543,0,0,0,1.186-.311q.9-.64,1.849-1.224a2.349,2.349,0,0,1,2.17-.267,2.372,2.372,0,0,1,1.862,2.012A2.532,2.532,0,0,1,1491.021,240.076Z" fill="#fff"/>
      </g>
    </g>
  </g>
</svg>
