<svg xmlns="http://www.w3.org/2000/svg" width="155" height="155" viewBox="0 0 155 155">
  <g id="Grupo_75142" data-name="Grupo 75142" transform="translate(-4776 12736)">
    <path id="Trazado_146295" data-name="Trazado 146295" d="M23.872,19H20.464V13.063H15.415V19H11.987V4.781h3.428v5.645h5.049V4.781h3.408Zm1.6-5.381a6.236,6.236,0,0,1,.615-2.817,4.4,4.4,0,0,1,1.768-1.9,5.323,5.323,0,0,1,2.705-.664,4.858,4.858,0,0,1,3.74,1.47,5.64,5.64,0,0,1,1.367,4v.117A5.472,5.472,0,0,1,34.3,17.745a4.871,4.871,0,0,1-3.716,1.45,4.927,4.927,0,0,1-3.623-1.353,5.29,5.29,0,0,1-1.475-3.667Zm3.291.205a3.932,3.932,0,0,0,.459,2.148,1.529,1.529,0,0,0,1.357.684q1.758,0,1.8-2.705v-.332q0-2.842-1.816-2.842-1.65,0-1.787,2.451ZM40.142,8.434l.107,1.24a3.583,3.583,0,0,1,3.018-1.436,3.015,3.015,0,0,1,2.466.986,4.7,4.7,0,0,1,.845,2.969V19h-3.3V12.33a1.783,1.783,0,0,0-.322-1.177,1.491,1.491,0,0,0-1.172-.376,1.569,1.569,0,0,0-1.436.762V19H37.056V8.434ZM53.511,19.2a5.432,5.432,0,0,1-3.936-1.45,5.008,5.008,0,0,1-1.5-3.774V13.7a6.489,6.489,0,0,1,.6-2.861,4.395,4.395,0,0,1,1.753-1.919,5.292,5.292,0,0,1,2.734-.679A4.574,4.574,0,0,1,56.675,9.62a5.43,5.43,0,0,1,1.289,3.853v1.279H51.421a2.372,2.372,0,0,0,.771,1.4,2.3,2.3,0,0,0,1.543.508,2.958,2.958,0,0,0,2.441-1.094l1.5,1.777a4.2,4.2,0,0,1-1.743,1.353A5.891,5.891,0,0,1,53.511,19.2Zm-.371-8.418q-1.445,0-1.719,1.914h3.32v-.254a1.63,1.63,0,0,0-.4-1.226A1.593,1.593,0,0,0,53.14,10.777Zm11.68,5.254a.76.76,0,0,0-.439-.674,6.685,6.685,0,0,0-1.67-.527,7.615,7.615,0,0,1-2.031-.718,3.4,3.4,0,0,1-1.221-1.079,2.577,2.577,0,0,1-.42-1.455,2.92,2.92,0,0,1,1.2-2.4,4.948,4.948,0,0,1,3.145-.942,5.482,5.482,0,0,1,3.359.947,2.962,2.962,0,0,1,1.27,2.49h-3.3q0-1.27-1.338-1.27a1.326,1.326,0,0,0-.869.288.892.892,0,0,0-.352.718.819.819,0,0,0,.43.713,4.06,4.06,0,0,0,1.372.449,11.857,11.857,0,0,1,1.655.42,3.007,3.007,0,0,1,2.383,2.939,2.767,2.767,0,0,1-1.284,2.354,5.631,5.631,0,0,1-3.325.908,5.747,5.747,0,0,1-2.422-.488,4.05,4.05,0,0,1-1.66-1.328,3.007,3.007,0,0,1-.6-1.768h3.076a1.272,1.272,0,0,0,.488,1.069,2.009,2.009,0,0,0,1.2.337,1.58,1.58,0,0,0,1.011-.273A.875.875,0,0,0,64.819,16.031ZM73.364,5.807V8.434H75.1v2.285H73.364v4.834a1.234,1.234,0,0,0,.215.83,1.152,1.152,0,0,0,.85.234,4.828,4.828,0,0,0,.82-.059v2.354a6.074,6.074,0,0,1-1.855.283,3.448,3.448,0,0,1-2.51-.8,3.282,3.282,0,0,1-.811-2.432V10.719H68.726V8.434h1.348V5.807ZM79.868,19h-3.3V8.434h3.3Zm-3.5-13.3A1.482,1.482,0,0,1,76.88,4.54a2.149,2.149,0,0,1,2.637,0A1.482,1.482,0,0,1,80.024,5.7a1.482,1.482,0,0,1-.508,1.159,2.149,2.149,0,0,1-2.637,0A1.482,1.482,0,0,1,76.372,5.7Zm5.107,7.939a6.455,6.455,0,0,1,1.084-3.955,3.568,3.568,0,0,1,3.027-1.445,3.035,3.035,0,0,1,2.383,1.113V4h3.3V19H88.315l-.166-1.133A3.116,3.116,0,0,1,85.571,19.2a3.562,3.562,0,0,1-2.988-1.445A6.659,6.659,0,0,1,81.479,13.639Zm3.291.205q0,2.813,1.641,2.813a1.62,1.62,0,0,0,1.563-.918V11.715a1.576,1.576,0,0,0-1.543-.937q-1.523,0-1.65,2.461ZM99.1,19a3.716,3.716,0,0,1-.312-.947A3.06,3.06,0,0,1,96.245,19.2a3.749,3.749,0,0,1-2.539-.9,2.875,2.875,0,0,1-1.045-2.271,2.955,2.955,0,0,1,1.27-2.6,6.468,6.468,0,0,1,3.691-.879h1.016v-.559q0-1.462-1.26-1.462a1.03,1.03,0,0,0-1.172,1.158H92.915a2.95,2.95,0,0,1,1.3-2.487,5.479,5.479,0,0,1,3.325-.956,4.8,4.8,0,0,1,3.193.986,3.429,3.429,0,0,1,1.2,2.705v4.678a4.79,4.79,0,0,0,.449,2.227V19Zm-2.061-2.148a1.836,1.836,0,0,0,1.021-.264,1.653,1.653,0,0,0,.581-.6V14.3h-.957q-1.719,0-1.719,1.543a.942.942,0,0,0,.3.728A1.1,1.1,0,0,0,97.036,16.852Zm6.309-3.213a6.455,6.455,0,0,1,1.084-3.955,3.568,3.568,0,0,1,3.027-1.445,3.035,3.035,0,0,1,2.383,1.113V4h3.3V19h-2.959l-.166-1.133a3.116,3.116,0,0,1-2.578,1.328,3.562,3.562,0,0,1-2.988-1.445A6.659,6.659,0,0,1,103.345,13.639Zm3.291.205q0,2.813,1.641,2.813a1.62,1.62,0,0,0,1.563-.918V11.715a1.576,1.576,0,0,0-1.543-.937q-1.523,0-1.65,2.461Z" transform="translate(4791 -12620)" fill="#12263f"/>
    <g id="Grupo_75138" data-name="Grupo 75138">
      <rect id="Rectángulo_32807" data-name="Rectángulo 32807" width="155" height="155" transform="translate(4776 -12736)" fill="none"/>
      <path id="Trazado_146294" data-name="Trazado 146294" d="M42.5,0A42.5,42.5,0,1,1,0,42.5,42.5,42.5,0,0,1,42.5,0Z" transform="translate(4811 -12721)" fill="#7e5ee3"/>
      <g id="Grupo_74989" data-name="Grupo 74989" transform="translate(4404.5 -13221.735)">
        <path id="Trazado_145650" data-name="Trazado 145650" d="M473.876,640.269a.566.566,0,0,1,.755,0Z" transform="translate(-28.407 -64.798)" fill="#fff"/>
        <path id="Trazado_145651" data-name="Trazado 145651" d="M471.854,640.278c.126-.206.252-.152.378,0Z" transform="translate(-27.392 -64.808)" fill="#fff"/>
        <path id="Trazado_145652" data-name="Trazado 145652" d="M477.919,640.3a.22.22,0,0,1,.26-.109c.035.027.046.052.032.075s-.026.033-.039.033Z" transform="translate(-30.435 -64.829)" fill="#fff"/>
        <path id="Trazado_145653" data-name="Trazado 145653" d="M478.425,640.3c0-.036,0-.072.007-.109l.251,0c.036.026.047.051.033.074s-.027.033-.04.033Z" transform="translate(-30.689 -64.834)" fill="#fff"/>
        <path id="Trazado_145654" data-name="Trazado 145654" d="M478.93,640.3a.852.852,0,0,1,.007-.107c.1-.014.21-.035.245.107Z" transform="translate(-30.943 -64.826)" fill="#fff"/>
        <path id="Trazado_145655" data-name="Trazado 145655" d="M480.594,540.126a4.613,4.613,0,0,0-3.443-3.478,1.726,1.726,0,0,1,.046-.2,4.589,4.589,0,0,0-2.842-6.38c-.423-.156-.247-.316-.165-.535a4.619,4.619,0,0,0-2.852-6.144c-.352-.123-.407-.21-.261-.541a4.268,4.268,0,0,0,.263-2.648,4.633,4.633,0,0,0-7.167-2.938c-1.411.9-2.8,1.843-4.193,2.773a.637.637,0,0,1-.736.09,28.4,28.4,0,0,0-7.108-2.412.767.767,0,0,1-.554-.344,29.059,29.059,0,0,0-4.774-5.244,4.173,4.173,0,0,0-6.467,5.13c.243.426.2.568-.276.6a1.543,1.543,0,0,0-.242.064,29.132,29.132,0,0,0-22.131,33.332A29.217,29.217,0,0,0,441.226,575a12.611,12.611,0,0,1,2.607.469h.63a.288.288,0,0,1,.378,0h.63a.96.96,0,0,1,.755,0h1.259c.075-.082.175-.06.269-.065h.217c.094,0,.195-.018.27.065h.378c.878-.253,1.8-.22,2.688-.4q16.279-3.252,22.474-18.653c.281-.7.162-1-.493-1.49-.853-.115-1.1.071-1.491,1.051a27.2,27.2,0,0,1-26.932,17.452,4.793,4.793,0,0,1-.553-.088h0a22.289,22.289,0,0,1-6.32-1.268c.069-.194.257-.254.4-.35q6.909-4.58,13.822-9.153c1.825-1.207,2.118-2.043,1.377-4.1-.085-.235.022-.288.156-.393a5.712,5.712,0,0,1,4.609-1.355,5.746,5.746,0,0,0,3.912-.842c.79-.469,1.555-.982,2.331-1.475l7.662-5.117a2.432,2.432,0,0,1,.368-.239c.258-.11.486-.517.739-.329.2.146.052.553.018.841-.062.519-.164,1.033-.224,1.552-.108.944.153,1.252,1.1,1.34.6-.1.8-.54.888-1.071a26.858,26.858,0,0,0,.394-3.749.9.9,0,0,1,.486-.848c.9-.57,1.8-1.157,2.672-1.769A4.542,4.542,0,0,0,480.594,540.126Zm-22.96-18.544L454.6,523.6c-.474-1.187-.862-2.352-1.464-3.586A24.924,24.924,0,0,1,457.634,521.582ZM419.3,544.96a27.217,27.217,0,0,1,20.52-24.992c1.917-.472,1.913-.472,2.362,1.5a14.143,14.143,0,0,1-.212,6.655c-.775,3.129-1.461,6.279-2.2,9.465-1.6-1.07-2.416-1.067-3.984-.029L419.96,548.036c-.17.113-.347.215-.6.373A23.615,23.615,0,0,1,419.3,544.96Zm32,15.812c-1.693,1.122-3.4,2.226-5.073,3.376-.423.29-.592.209-.854-.184q-5.246-7.866-10.521-15.714c-.485-.724-.766-.819-1.579-.562-.561.654-.573.952-.055,1.724q5.23,7.8,10.473,15.594c.309.457.28.643-.187.946-2.531,1.639-5.039,3.313-7.544,4.991a.746.746,0,0,1-.847.063,27.111,27.111,0,0,1-15.432-19.921.594.594,0,0,1,.314-.715q4.6-3.006,9.176-6.053c.327-.218.514-.273.724.126.193.369.48.687.689,1.049a1.2,1.2,0,0,0,1.42.645h0c.709-.588.77-.956.276-1.714-.263-.4-.519-.813-.8-1.2-.169-.23-.119-.349.1-.494,1.909-1.251,3.808-2.518,5.721-3.763.5-.328.839-.2,1.237.4q3.4,5.131,6.8,10.264,3.156,4.767,6.308,9.536C452.2,559.994,452.154,560.207,451.3,560.772Zm26.2-17.36q-3.056,2.043-6.126,4.065c-3.178,2.106-6.364,4.2-9.532,6.323a5.02,5.02,0,0,1-3.676.92,6.783,6.783,0,0,0-5.281,1.536c-.413.317-.6.274-.888-.169q-5.179-7.878-10.405-15.724a1.133,1.133,0,0,1-.189-.981c.957-4.076,1.94-8.146,2.806-12.241a13.876,13.876,0,0,0-1.851-10.382,2.917,2.917,0,0,1-.566-1.376,2.082,2.082,0,0,1,1.172-2.118,2.025,2.025,0,0,1,2.4.276,22.349,22.349,0,0,1,6.893,9.579c.24.713.513,1.416.779,2.12.357.944.968,1.148,1.811.591q5.139-3.395,10.27-6.8a2.708,2.708,0,0,1,2.255-.493,2.513,2.513,0,0,1,1.972,1.98,2.466,2.466,0,0,1-.972,2.677c-.93.679-1.9,1.311-2.874,1.919a1.208,1.208,0,0,0-.631,1.477c.628.669.959.711,1.725.212.627-.408,1.239-.84,1.877-1.231a2.338,2.338,0,0,1,2.309-.214,2.4,2.4,0,0,1,1.714,2.1,2.472,2.472,0,0,1-1.1,2.5c-.92.648-1.874,1.248-2.811,1.874-.714.477-.809.764-.541,1.576.641.531.945.557,1.619.118.63-.41,1.246-.84,1.883-1.239a2.388,2.388,0,0,1,2.26-.254,2.343,2.343,0,0,1,1.746,1.926,2.49,2.49,0,0,1-1.052,2.693c-.917.654-1.876,1.25-2.812,1.878s-.949,1.308-.03,1.961a1.527,1.527,0,0,0,1.176-.309q.9-.635,1.834-1.214a2.328,2.328,0,0,1,2.152-.265,2.352,2.352,0,0,1,1.846,1.995A2.512,2.512,0,0,1,477.508,543.411Z" transform="translate(0 0)" fill="#fff"/>
      </g>
    </g>
  </g>
</svg>
