<svg xmlns="http://www.w3.org/2000/svg" width="295" height="167" viewBox="0 0 295 167">
  <g id="Grupo_74838" data-name="Grupo 74838" transform="translate(-1124.676 -1158.869)">
    <g id="Grupo_74483" data-name="Grupo 74483" transform="translate(93.656 53.824)">
      <rect id="Rectángulo_32243" data-name="Rectángulo 32243" width="295" height="167" transform="translate(1031.02 1105.045)" fill="none"/>
    </g>
    <g id="Grupo_74754" data-name="Grupo 74754" transform="translate(1816.584 929.198)">
      <path id="Trazado_118036" data-name="Trazado 118036" d="M-603.09,362.789c-9.584,0-17.352,4.115-17.352,9.191s7.768,9.191,17.352,9.191,17.351-4.115,17.351-9.191S-593.508,362.789-603.09,362.789Z" fill="#92b4d1" opacity="0.164" style="isolation: isolate"/>
      <g id="Grupo_74731" data-name="Grupo 74731">
        <g id="Grupo_74729" data-name="Grupo 74729">
          <path id="Trazado_118037" data-name="Trazado 118037" d="M-627.822,322.765c-2.108-4.938-.821-11.766,2.868-15.22a8.112,8.112,0,0,1,1.869-1.318c-.168.017-.33.034-.477.053a6.405,6.405,0,0,0-3.527,1.783c-3.489,3.266-4.7,9.737-2.7,14.424,1.015,2.379,2.732,3.935,4.709,4.269.2.033.462.064.744.091A8.15,8.15,0,0,1-627.822,322.765Z" fill="#c0d5ff"/>
        </g>
        <path id="Trazado_118038" data-name="Trazado 118038" d="M-627.824,320.391-615.653,309a5.945,5.945,0,0,0-3.665-2.653,4.913,4.913,0,0,0-1-.1,6.119,6.119,0,0,0-4.149,1.823C-627.462,310.865-628.772,316.022-627.824,320.391Z" fill="#cedcff"/>
        <g id="Grupo_74730" data-name="Grupo 74730">
          <path id="Trazado_118039" data-name="Trazado 118039" d="M-627.17,322.487c.11.256.229.5.353.734l12.393-11.6a10.982,10.982,0,0,0-.379-1.043,9.722,9.722,0,0,0-.476-.958l-12.345,11.558A11.4,11.4,0,0,0-627.17,322.487Z" fill="#c0d5ff"/>
        </g>
        <path id="Trazado_118040" data-name="Trazado 118040" d="M-626.45,323.849a6.032,6.032,0,0,0,3.795,2.869A5.774,5.774,0,0,0-617.5,325c3.058-2.862,4.366-8.185,3.3-12.612Z" fill="#cedcff"/>
      </g>
      <g id="Grupo_74753" data-name="Grupo 74753">
        <g id="Grupo_74733" data-name="Grupo 74733">
          <g id="Grupo_74732" data-name="Grupo 74732">
            <path id="Trazado_118041" data-name="Trazado 118041" d="M-600.3,311.2s-4.925.056-7.638.1a8.547,8.547,0,0,1-4.693-.851,4.6,4.6,0,0,0-3.621-.645c-1.508.5-.61,1.789.589,1.661,1.441-.154,1.83.722,1.83.722l.591,1.881a14.855,14.855,0,0,1,3.34.105c2.282.257,8.458,2.2,10.336,1.008S-600.3,311.2-600.3,311.2Z" fill="#ffd291"/>
          </g>
        </g>
        <g id="Grupo_74735" data-name="Grupo 74735">
          <g id="Grupo_74734" data-name="Grupo 74734">
            <path id="Trazado_118042" data-name="Trazado 118042" d="M-607,373.13s-3.825-1.036-6.524-1.46c-3.8-.6,0,4.6,2.08,5.286a17.648,17.648,0,0,0,3.505.659s2.3,1.982,4.115.654c1.18-.863.436-4.826.436-4.826Z" fill="#ffd291"/>
          </g>
        </g>
        <g id="Grupo_74737" data-name="Grupo 74737">
          <g id="Grupo_74736" data-name="Grupo 74736">
            <path id="Trazado_118043" data-name="Trazado 118043" d="M-595.194,366.026s-3.824-1.036-6.523-1.46c-3.8-.6,0,4.6,2.079,5.286a17.624,17.624,0,0,0,3.505.658s2.3,1.983,4.115.654c1.18-.862.437-4.825.437-4.825Z" fill="#ffd291"/>
          </g>
        </g>
        <g id="Grupo_74738" data-name="Grupo 74738">
          <path id="Trazado_118044" data-name="Trazado 118044" d="M-593.623,331.6a12.848,12.848,0,0,1,1.075,6.9c-.626,3.365-2.318,11.676-2.318,11.676s1.656,6.329,2.456,9.357a45.927,45.927,0,0,1,1.06,7.33,12.4,12.4,0,0,1-4.014.579,4.868,4.868,0,0,1-2.66-1.01s-2.76-11.447-3.2-15.317-1.108-14.129-.751-16.822S-594.52,328.9-593.623,331.6Z" fill="#3d7dfb"/>
        </g>
        <g id="Grupo_74740" data-name="Grupo 74740">
          <g id="Grupo_74739" data-name="Grupo 74739">
            <path id="Trazado_118045" data-name="Trazado 118045" d="M-605.433,330.381s-1.5,4.2-3.616,12.215a91.3,91.3,0,0,0-1.666,13.569c-.256,6,.623,9.132.623,16.536,2.213,3.7,6.936,1.366,6.936,1.366s-.1-13.29-.926-17.565c.838-2.624,4.084-11.069,3.939-13.973,0,0,4.153.006,3.277-7.614C-597.772,327.026-605.433,330.381-605.433,330.381Z" fill="#3d7dfb"/>
          </g>
        </g>
        <g id="Grupo_74742" data-name="Grupo 74742">
          <g id="Grupo_74741" data-name="Grupo 74741">
            <path id="Trazado_118046" data-name="Trazado 118046" d="M-605.324,312.533c-5.184,4.5-5.133,4.993-4.433,9.856.14.969,1.409,3.368,1.906,5.794a50.789,50.789,0,0,1,.776,7.362s8.3,4.407,13.974-2.6c-.827-4.408-.515-9.326-.931-13.3-.514-4.906-.782-8.423-3.807-9.988C-600.207,308.429-601.243,308.993-605.324,312.533Z" fill="#c9eaff"/>
          </g>
        </g>
        <g id="Grupo_74744" data-name="Grupo 74744">
          <g id="Grupo_74743" data-name="Grupo 74743">
            <path id="Trazado_118047" data-name="Trazado 118047" d="M-606.287,308.073a9.773,9.773,0,0,1,.963,4.46c-.209,2.086,6.255.534,4.689-2.107a31.508,31.508,0,0,0-2.754-4.1Z" fill="#ffd291"/>
          </g>
        </g>
        <g id="Grupo_74746" data-name="Grupo 74746">
          <g id="Grupo_74745" data-name="Grupo 74745">
            <path id="Trazado_118048" data-name="Trazado 118048" d="M-607.278,298.637c-4.512,1.272-3.575,7.981-2.211,10.551s4.653.775,6.579-2.067S-601.861,297.109-607.278,298.637Z" fill="#ffd291"/>
          </g>
        </g>
        <g id="Grupo_74748" data-name="Grupo 74748">
          <g id="Grupo_74747" data-name="Grupo 74747">
            <path id="Trazado_118049" data-name="Trazado 118049" d="M-612.328,300.435s3.509,2.712,5.048,2.92a5.939,5.939,0,0,0,2.758,4.768c.025,1.782,2.268,2.3,2.268,2.3s3.5-5.611,1.258-9.991S-607.86,296.055-612.328,300.435Z" fill="#3d7dfb"/>
          </g>
        </g>
        <g id="Grupo_74750" data-name="Grupo 74750">
          <g id="Grupo_74749" data-name="Grupo 74749">
            <path id="Trazado_118050" data-name="Trazado 118050" d="M-611.079,321.3l-5.94,4.218a72.137,72.137,0,0,1-7.43-1.254c-2.4-.654-1.5-1.8-1.358-3.54s-1.17-1.73-1.731-.213-2.62,1.545-3.257,1.952-.183,2.858,1.846,3.559,5.693,2.956,7.925,3.65c2.6.809,4.751-.034,7.185-1.183s6.845-3.6,6.845-3.6Z" fill="#ffd291"/>
          </g>
        </g>
        <g id="Grupo_74752" data-name="Grupo 74752">
          <g id="Grupo_74751" data-name="Grupo 74751">
            <path id="Trazado_118051" data-name="Trazado 118051" d="M-610.092,317.539c-1.443,1.673-4.123,5.319-4.123,5.319a6.846,6.846,0,0,0,2.383,5.325c3.625-.831,5.889-2.08,7.337-4.942C-602.678,319.651-607.28,314.279-610.092,317.539Z" fill="#c9eaff"/>
          </g>
        </g>
      </g>
    </g>
    <g id="Grupo_74784" data-name="Grupo 74784" transform="translate(1144.381 1172.379)">
      <g id="Grupo_74755" data-name="Grupo 74755" transform="translate(15.293 14.004)">
        <path id="Trazado_118052" data-name="Trazado 118052" d="M-687.408,305.928l6.514,5.877s3.937-1.765,5.171-3.521c2.237-3.183,6.027-4.052,6.869-2.507.559,1.026-.9,2.8-2.524,4.62-1.092,1.224-3.138.73-3.138.73s-4.306,4.749-6.219,4.6c-1.8-.14-3.065-.841-5.329-2.684a21.13,21.13,0,0,1-4.1-4.051Z" transform="translate(690.165 -305.032)" fill="#ffd291"/>
      </g>
      <g id="Grupo_74756" data-name="Grupo 74756" transform="translate(22.703 21.084)">
        <path id="Trazado_118053" data-name="Trazado 118053" d="M-694.764,312.752l6.215,6.418a26.468,26.468,0,0,0,4.963-3.864,29.739,29.739,0,0,1,2.456-2.517c.631-.623,1.646-.973,1.646-.348a8.055,8.055,0,0,1-.41,1.941s3.25-2.241,3.7-.895c.372,1.108-1.385,2.341-2.7,3.323a6.649,6.649,0,0,1-2.98,1.142s-4.7,5.325-6.617,5.176c-1.8-.14-2.877-.869-5.142-2.712a12.634,12.634,0,0,1-3.891-4.6Z" transform="translate(697.522 -312.112)" fill="#ffd291"/>
      </g>
      <g id="Grupo_74781" data-name="Grupo 74781" transform="translate(0 0)">
        <path id="Trazado_118054" data-name="Trazado 118054" d="M-670.722,364.228c9.545,0,17.282,4.1,17.282,9.154s-7.737,9.154-17.282,9.154S-688,378.437-688,373.382-680.266,364.228-670.722,364.228Z" transform="translate(688.003 -291.027)" fill="#92b4d1" opacity="0.164" style="isolation: isolate"/>
        <g id="Grupo_74780" data-name="Grupo 74780" transform="translate(0.184)">
          <g id="Grupo_74761" data-name="Grupo 74761" transform="translate(8.842 64.645)">
            <g id="Grupo_74758" data-name="Grupo 74758" transform="translate(0 12.983)">
              <g id="Grupo_74757" data-name="Grupo 74757">
                <path id="Trazado_118055" data-name="Trazado 118055" d="M-669.893,369.055h5.232c2.74,0,3.089,1.892.05,3.436-2.868,1.458-4.406.246-5.929.5-2.7.448-3.886-1-3.338-2.99C-673.243,367.691-669.893,369.055-669.893,369.055Z" transform="translate(674.009 -368.655)" fill="#4f83fd"/>
              </g>
            </g>
            <g id="Grupo_74760" data-name="Grupo 74760" transform="translate(0.767)">
              <g id="Grupo_74759" data-name="Grupo 74759">
                <path id="Trazado_118056" data-name="Trazado 118056" d="M-664.109,355.672s-1.627,7.453-1.77,10.143,1.232,3.24,1.783,3.24c.941,0,1.129,1.344.484,1.59a13.262,13.262,0,0,1-2.59.294c-2.441.142-3.229.1-3.188-2.34s-.261-12.927-.261-12.927Z" transform="translate(669.651 -355.672)" fill="#ffd291"/>
              </g>
            </g>
          </g>
          <g id="Grupo_74766" data-name="Grupo 74766" transform="translate(14.407 63.175)">
            <g id="Grupo_74763" data-name="Grupo 74763" transform="translate(0 17.903)">
              <g id="Grupo_74762" data-name="Grupo 74762">
                <path id="Trazado_118057" data-name="Trazado 118057" d="M-675.458,372.505h5.232c2.74,0,3.089,1.892.05,3.436-2.868,1.458-4.406.245-5.929.5-2.7.449-3.886-1-3.338-2.989C-678.808,371.14-675.458,372.505-675.458,372.505Z" transform="translate(679.574 -372.105)" fill="#4f83fd"/>
              </g>
            </g>
            <g id="Grupo_74765" data-name="Grupo 74765" transform="translate(0.767)">
              <g id="Grupo_74764" data-name="Grupo 74764">
                <path id="Trazado_118058" data-name="Trazado 118058" d="M-669.9,355.232s-1.4,11.342-1.54,14.033,1.233,3.24,1.784,3.24c.94,0,1.129,1.343.483,1.59a13.4,13.4,0,0,1-2.589.294c-2.441.142-3.229.1-3.188-2.34s-.261-17.847-.261-17.847Z" transform="translate(675.216 -354.202)" fill="#ffd291"/>
              </g>
            </g>
          </g>
          <g id="Grupo_74767" data-name="Grupo 74767" transform="translate(8.593 12.388)">
            <path id="Trazado_118059" data-name="Trazado 118059" d="M-670.294,307.455a4.038,4.038,0,0,0,4.038,4.038,4.038,4.038,0,0,0,4.039-4.038,4.039,4.039,0,0,0-4.039-4.039A4.038,4.038,0,0,0-670.294,307.455Z" transform="translate(670.294 -303.416)" fill="#ffd110"/>
          </g>
          <g id="Grupo_74769" data-name="Grupo 74769" transform="translate(0 32.406)">
            <g id="Grupo_74768" data-name="Grupo 74768">
              <path id="Trazado_118060" data-name="Trazado 118060" d="M-661.272,325.377a48.146,48.146,0,0,1,4.812,11.37c2.238,7.413,2.836,20.965,2.836,20.965a4.676,4.676,0,0,1-4.884,1.676c-2.689-.829-4.184,0-5.647,2.011-2.454,3.371-7.045,2.347-7.045-1.786,0-2.5-2.5-2.779-5.542-.987-.953.562-4.447,0-4.378-2.174.061-1.939-1.75-3.852-1.75-3.852s1.377-14.541,4.366-21,6.445-8.171,6.445-8.171Z" transform="translate(682.87 -323.434)" fill="#a5ecf7"/>
            </g>
          </g>
          <g id="Grupo_74771" data-name="Grupo 74771" transform="translate(10.096 14.167)">
            <g id="Grupo_74770" data-name="Grupo 74770">
              <path id="Trazado_118061" data-name="Trazado 118061" d="M-667.586,307.728a19.946,19.946,0,0,1,2.717,2.762,7.452,7.452,0,0,1,.417,7.235c-1.213,2.594-1.309,3.317-2.021,7.652-1.42,3-10.938,1.8-11.494-1.487.737-6.542-.14-9.524.01-13.41s2.89-5.869,4.542-5.134C-673.128,306.992-670.538,308.861-667.586,307.728Z" transform="translate(677.975 -305.195)" fill="#4f83fd"/>
            </g>
          </g>
          <g id="Grupo_74773" data-name="Grupo 74773" transform="translate(14.626 9.911)">
            <g id="Grupo_74772" data-name="Grupo 74772">
              <path id="Trazado_118062" data-name="Trazado 118062" d="M-668.258,302.515a12.422,12.422,0,0,0,.008,5.213,6.012,6.012,0,0,1-2.8.539c-1.217-.109-3.332-.976-3.025-2.921a26.613,26.613,0,0,1,2.014-4.407Z" transform="translate(674.109 -300.939)" fill="#ffd291"/>
            </g>
          </g>
          <g id="Grupo_74775" data-name="Grupo 74775" transform="translate(15.994 3.157)">
            <g id="Grupo_74774" data-name="Grupo 74774">
              <path id="Trazado_118063" data-name="Trazado 118063" d="M-673.409,294.266c4.415.751,4.205,7.219,3.17,9.8s-4.342,1.208-6.46-1.3S-678.711,293.364-673.409,294.266Z" transform="translate(677.987 -294.185)" fill="#ffd291"/>
            </g>
          </g>
          <g id="Grupo_74777" data-name="Grupo 74777" transform="translate(18.715 18.229)">
            <g id="Grupo_74776" data-name="Grupo 74776">
              <path id="Trazado_118064" data-name="Trazado 118064" d="M-680.416,313.3a4.039,4.039,0,0,0,4.039,4.039,4.038,4.038,0,0,0,4.038-4.039,4.038,4.038,0,0,0-4.038-4.038A4.038,4.038,0,0,0-680.416,313.3Z" transform="translate(680.416 -309.257)" fill="#4f83fd"/>
            </g>
          </g>
          <g id="Grupo_74779" data-name="Grupo 74779" transform="translate(6.93)">
            <g id="Grupo_74778" data-name="Grupo 74778">
              <path id="Trazado_118065" data-name="Trazado 118065" d="M-660.554,297.32s-3.18.707-5.089-.892a12.5,12.5,0,0,1-1.2,5.129c-1.313,2.348-1.5,4.972.2,6.165a1.5,1.5,0,0,0,2.1-.082s.909,3.776-3.363,3.446c-4.453,3.083-11.178-.4-12-5.323-.935-5.631,3.689-9.094,5.907-11.98,2.363-3.074,8.1-3.853,10.558-.909a17.823,17.823,0,0,1,1.671,2.52C-661.075,296.6-660.554,297.32-660.554,297.32Z" transform="translate(680.034 -291.028)" fill="#4a575e"/>
            </g>
          </g>
        </g>
      </g>
      <g id="Grupo_74783" data-name="Grupo 74783" transform="translate(30.659 15.758)">
        <g id="Grupo_74782" data-name="Grupo 74782">
          <path id="Trazado_118066" data-name="Trazado 118066" d="M-687.417,307.918s1.623-1.609,2.824-.991c1.081.557.18.7-.721,1.963a3.39,3.39,0,0,1-2.764,1.116Z" transform="translate(688.078 -306.786)" fill="#ffd291"/>
        </g>
      </g>
    </g>
    <g id="Grupo_74824" data-name="Grupo 74824" transform="translate(1573.604 954.973)">
      <path id="Trazado_118084" data-name="Trazado 118084" d="M-421.32,348.484c-5.637,0-10.207,2.43-10.207,5.429s4.57,5.429,10.207,5.429,10.207-2.431,10.207-5.429S-415.683,348.484-421.32,348.484Z" fill="#92b4d1" opacity="0.164" style="isolation: isolate"/>
      <path id="Trazado_118085" data-name="Trazado 118085" d="M-398.29,341.574c5.638,0,10.207,2.431,10.207,5.43s-4.569,5.429-10.207,5.429S-408.5,350-408.5,347-403.927,341.574-398.29,341.574Z" fill="#92b4d1" opacity="0.164" style="isolation: isolate"/>
      <g id="Grupo_74810" data-name="Grupo 74810">
        <g id="Grupo_74803" data-name="Grupo 74803">
          <path id="Trazado_118086" data-name="Trazado 118086" d="M-426.091,349.813a12.358,12.358,0,0,1,5.193-1.055,12.36,12.36,0,0,1,5.194,1.055l2.633-1.694v4.8c0,2.3-3.5,4.163-7.827,4.163s-7.826-1.864-7.826-4.163v-4.8Z" fill="#c0d5ff"/>
        </g>
        <g id="Grupo_74804" data-name="Grupo 74804">
          <path id="Trazado_118087" data-name="Trazado 118087" d="M-420.9,343.955c4.323,0,7.827,1.864,7.827,4.164s-3.5,4.163-7.827,4.163-7.826-1.864-7.826-4.163S-425.22,343.955-420.9,343.955Z" fill="#fff"/>
        </g>
        <g id="Grupo_74805" data-name="Grupo 74805">
          <path id="Trazado_118088" data-name="Trazado 118088" d="M-417.918,344.334l2.844,1.007-9.892,6.333-1.239-.5s-1.066-.674-.956-.745S-417.918,344.334-417.918,344.334Z" fill="#c0d5ff"/>
        </g>
        <g id="Grupo_74807" data-name="Grupo 74807">
          <g id="Grupo_74806" data-name="Grupo 74806">
            <path id="Trazado_118089" data-name="Trazado 118089" d="M-415.074,345.341l-9.892,6.333Z" fill="#c0d5ff"/>
          </g>
        </g>
        <g id="Grupo_74809" data-name="Grupo 74809">
          <g id="Grupo_74808" data-name="Grupo 74808">
            <path id="Trazado_118090" data-name="Trazado 118090" d="M-417.637,344.334l-9.656,6.182Z" fill="#c0d5ff"/>
          </g>
        </g>
      </g>
      <g id="Grupo_74818" data-name="Grupo 74818">
        <g id="Grupo_74811" data-name="Grupo 74811">
          <path id="Trazado_118091" data-name="Trazado 118091" d="M-403.483,343.249a12.358,12.358,0,0,1,5.193-1.055,12.36,12.36,0,0,1,5.194,1.055l2.633-1.7v4.8c0,2.3-3.5,4.163-7.827,4.163s-7.826-1.864-7.826-4.163v-4.8Z" fill="#c0d5ff"/>
        </g>
        <g id="Grupo_74812" data-name="Grupo 74812">
          <path id="Trazado_118092" data-name="Trazado 118092" d="M-398.29,337.391c4.323,0,7.827,1.864,7.827,4.163s-3.5,4.163-7.827,4.163-7.826-1.864-7.826-4.163S-402.612,337.391-398.29,337.391Z" fill="#fff"/>
        </g>
        <g id="Grupo_74813" data-name="Grupo 74813">
          <path id="Trazado_118093" data-name="Trazado 118093" d="M-395.31,337.769l2.844,1.007-9.892,6.334-1.239-.5s-1.066-.674-.956-.744S-395.31,337.769-395.31,337.769Z" fill="#c0d5ff"/>
        </g>
        <g id="Grupo_74815" data-name="Grupo 74815">
          <g id="Grupo_74814" data-name="Grupo 74814">
            <path id="Trazado_118094" data-name="Trazado 118094" d="M-392.466,338.776l-9.892,6.334Z" fill="#c0d5ff"/>
          </g>
        </g>
        <g id="Grupo_74817" data-name="Grupo 74817">
          <g id="Grupo_74816" data-name="Grupo 74816">
            <path id="Trazado_118095" data-name="Trazado 118095" d="M-395.029,337.769l-9.656,6.182Z" fill="#c0d5ff"/>
          </g>
        </g>
      </g>
      <ellipse id="Elipse_4699" data-name="Elipse 4699" cx="11.957" cy="6.392" rx="11.957" ry="6.392" transform="translate(-432.2 328.246) rotate(-14.78)" fill="#92b4d1" opacity="0.164" style="isolation: isolate"/>
      <g id="Grupo_74823" data-name="Grupo 74823">
        <g id="Grupo_74819" data-name="Grupo 74819">
          <path id="Trazado_118096" data-name="Trazado 118096" d="M-428.724,329.4l1.359-.274a11.96,11.96,0,0,1,3.8-2.746,16.719,16.719,0,0,1,10.339-1.48,7.684,7.684,0,0,1,1.751.625l2.179.069s.009,2.872-.005,3.122c-.1,1.909-1.954,4.059-5.146,5.6-4.738,2.287-10.62,2.365-13.138.174a3.012,3.012,0,0,1-1.118-2.584Z" fill="#4f83fd"/>
        </g>
        <g id="Grupo_74820" data-name="Grupo 74820">
          <path id="Trazado_118097" data-name="Trazado 118097" d="M-423.566,323.3c-4.738,2.287-6.538,5.917-4.02,8.109s8.4,2.113,13.138-.174,6.538-5.918,4.02-8.109S-418.828,321.017-423.566,323.3Z" fill="#71a0ff"/>
        </g>
        <g id="Grupo_74822" data-name="Grupo 74822">
          <g id="Grupo_74821" data-name="Grupo 74821">
            <path id="Trazado_118098" data-name="Trazado 118098" d="M-421.188,322.411a15.671,15.671,0,0,1,7.083,5.928l-1.744,1.064s-3.9-4.808-7.717-6.1Z" fill="#4f83fd"/>
          </g>
        </g>
      </g>
    </g>
    <g id="Grupo_74837" data-name="Grupo 74837" transform="translate(1818.423 887.81)">
      <path id="Trazado_118099" data-name="Trazado 118099" d="M-407.742,376.943c-6.551-10.227-27.83-20.347-28.732-20.772a2.743,2.743,0,0,0-3.653,1.311,2.743,2.743,0,0,0,1.311,3.651c5.752,2.713,21.715,11.374,26.452,18.769,2.014,3.143,3.918,7.79,1.557,12.082-2.8,5.085-9.3,9.084-23.832,8.213-26.448-1.585-79.834-28.413-103.475-44.334a5.047,5.047,0,0,0,.427-1.986c0-4.966-7.568-8.992-16.905-8.992s-16.9,4.026-16.9,8.992,7.568,8.992,16.9,8.992a25.155,25.155,0,0,0,12.668-3.051c22.71,15.162,78.728,44.436,107.287,45.8,16.857.8,26.586-2.449,30.407-9.392C-401.372,391.033-403.761,383.157-407.742,376.943Z" transform="translate(0 9.888)" fill="#92b4d1" opacity="0.164" style="isolation: isolate"/>
      <path id="Trazado_118100" data-name="Trazado 118100" d="M-438.4,353.041c-.563-8.377-6.887-13.993-6.887-13.993a2.927,2.927,0,0,0-2.3-.946,61.86,61.86,0,0,0-9.4-7.678c-18.207-12.33-45.131-20.222-54.353-19.692-5.806.334-8.687,3.253-10.1,5.769A4.2,4.2,0,0,0-525,320.643a4.206,4.206,0,0,0,4.207,4.206,4.206,4.206,0,0,0,4.206-4.206,4.186,4.186,0,0,0-1.34-3.064c1.19-2.085,3.692-4.323,8.922-3.679,6.24.769,35,7.022,53.748,21.992a40.821,40.821,0,0,1,4.84,4.531c-.034.084-.067.167-.094.244a1.229,1.229,0,0,0,.375,1.329,16.644,16.644,0,0,1,5.716,11.046c.5,6.563-.633,11.158-8.381,14.293-7.08,2.864-13.808,3.075-21.531,2.864a106.074,106.074,0,0,1-23.246-3.359,1.182,1.182,0,0,0-.859.075,2.421,2.421,0,0,0-.534.4,76.457,76.457,0,0,1-7.777-2.744c-25.93-10.822-38.467-26.171-38.408-29.8.038-2.435,5.828-3.915,9.636-4.624a4.18,4.18,0,0,0,3.26,1.579,4.208,4.208,0,0,0,4.207-4.207,4.207,4.207,0,0,0-4.207-4.206,4.191,4.191,0,0,0-4.155,3.7c-4.409.528-10.36,2.089-11.9,6.645-1.879,5.561,6.469,17.109,33.562,31.218a93.624,93.624,0,0,0,14.525,6.082c.023.133.046.271.076.383a1.226,1.226,0,0,0,.891.852,132.4,132.4,0,0,0,26.591,3.809c9.819.29,21.748-1.743,28.87-7.58C-439.687,365.055-438.026,358.618-438.4,353.041Z" transform="translate(6.222 0.613)" fill="#92b4d1" opacity="0.164" style="isolation: isolate"/>
      <g id="Grupo_74836" data-name="Grupo 74836" transform="translate(-569.331 308.447)">
        <g id="Grupo_74828" data-name="Grupo 74828" transform="translate(0 38.879)">
          <g id="Grupo_74825" data-name="Grupo 74825" transform="translate(0 7.268)">
            <path id="Trazado_118101" data-name="Trazado 118101" d="M-540.777,350.663c-1.615-3.4-7.384-5.918-14.276-5.918s-12.66,2.519-14.275,5.918h-.465v1.924c0,4.33,6.6,7.841,14.74,7.841s14.741-3.51,14.741-7.841v-1.924Z" transform="translate(569.793 -344.745)" fill="#4f83fd"/>
          </g>
          <g id="Grupo_74826" data-name="Grupo 74826" transform="translate(0 5.345)">
            <path id="Trazado_118102" data-name="Trazado 118102" d="M-555.053,343.232c-8.141,0-14.74,3.512-14.74,7.842s6.6,7.84,14.74,7.84,14.741-3.51,14.741-7.84S-546.911,343.232-555.053,343.232Z" transform="translate(569.793 -343.232)" fill="#71a0ff"/>
          </g>
          <path id="Trazado_118103" data-name="Trazado 118103" d="M-549.472,343.477a15.713,15.713,0,0,0-6.6-1.341,15.712,15.712,0,0,0-6.6,1.341h-3.348v3.951c0,2.923,4.455,5.293,9.95,5.293s9.951-2.37,9.951-5.293v-3.951Z" transform="translate(570.816 -338.185)" fill="#c0d5ff"/>
          <g id="Grupo_74827" data-name="Grupo 74827" transform="translate(4.791)">
            <path id="Trazado_118104" data-name="Trazado 118104" d="M-556.075,339.028c-5.495,0-9.95,2.37-9.95,5.293s4.455,5.293,9.95,5.293,9.951-2.37,9.951-5.293S-550.579,339.028-556.075,339.028Z" transform="translate(566.025 -339.028)" fill="#fff"/>
          </g>
        </g>
        <g id="Grupo_74829" data-name="Grupo 74829" transform="translate(28.105 16.047)">
          <path id="Trazado_118105" data-name="Trazado 118105" d="M-530.527,321.079s-14.383-.572-16.907,6.9c-1.878,5.561,6.469,17.109,33.561,31.218s50.355,9.8,50.355,9.8l-.332-3.349s-22.262,1.489-42.016-6.756c-25.93-10.822-38.468-26.171-38.409-29.8s12.9-5.136,12.9-5.136Z" transform="translate(547.687 -321.069)" fill="#c0d5ff"/>
        </g>
        <g id="Grupo_74830" data-name="Grupo 74830" transform="translate(53.9)">
          <path id="Trazado_118106" data-name="Trazado 118106" d="M-527.4,317.978s1.02-8.907,11.428-9.506c9.222-.531,36.148,7.362,54.355,19.692,24.025,16.27,17.1,30.1,17.1,30.1l-3.041-.934s1.952-12.294-12.328-23.7c-18.744-14.97-47.508-21.223-53.748-21.991-9.313-1.147-9.979,6.842-9.979,6.842Z" transform="translate(527.398 -308.447)" fill="#c0d5ff"/>
        </g>
        <g id="Grupo_74831" data-name="Grupo 74831" transform="translate(76.379 27.369)">
          <path id="Trazado_118107" data-name="Trazado 118107" d="M-447.823,344.939c-.562-8.377-6.886-13.994-6.886-13.994a2.709,2.709,0,0,0-3-.758,3.988,3.988,0,0,0-2.225,2.376,1.228,1.228,0,0,0,.375,1.329,16.659,16.659,0,0,1,5.716,11.047c.5,6.562-.633,11.156-8.381,14.291-7.081,2.864-13.81,3.075-21.531,2.864A106.087,106.087,0,0,1-507,358.736a1.179,1.179,0,0,0-.858.075,3.591,3.591,0,0,0-1.447,1.685,3.781,3.781,0,0,0-.268,2.747,1.227,1.227,0,0,0,.89.852,132.523,132.523,0,0,0,26.591,3.809c9.819.29,21.748-1.744,28.872-7.581C-449.11,356.953-447.448,350.517-447.823,344.939Z" transform="translate(509.716 -329.975)" fill="#71a0ff"/>
        </g>
        <g id="Grupo_74832" data-name="Grupo 74832" transform="translate(40.207 12.605)">
          <path id="Trazado_118108" data-name="Trazado 118108" d="M-529.755,322.569a4.206,4.206,0,0,1-4.206,4.206,4.206,4.206,0,0,1-4.207-4.206,4.206,4.206,0,0,1,4.207-4.207A4.206,4.206,0,0,1-529.755,322.569Z" transform="translate(538.168 -318.362)" fill="#fff"/>
        </g>
        <g id="Grupo_74833" data-name="Grupo 74833" transform="translate(51.673 5.728)">
          <circle id="Elipse_4700" data-name="Elipse 4700" cx="4.206" cy="4.206" r="4.206" fill="#fff"/>
        </g>
        <g id="Grupo_74835" data-name="Grupo 74835" transform="translate(21.091 47.92)">
          <g id="Grupo_74834" data-name="Grupo 74834">
            <path id="Trazado_118109" data-name="Trazado 118109" d="M-438.088,401.733c-32.115-1.532-98.954-38.358-114.106-50.725a2.743,2.743,0,0,1-.39-3.86,2.743,2.743,0,0,1,3.86-.392c17.525,14.3,81,47.782,110.634,49.558,14.533.871,21.033-3.128,23.832-8.214,2.362-4.291.458-8.938-1.556-12.081-4.737-7.4-20.7-16.056-26.453-18.769a2.744,2.744,0,0,1-1.31-3.653,2.742,2.742,0,0,1,3.651-1.311c.9.426,22.182,10.546,28.732,20.772,3.981,6.214,4.6,12.495,1.744,17.687C-413.272,397.688-421.232,402.537-438.088,401.733Z" transform="translate(553.203 -346.139)" fill="#71a0ff"/>
          </g>
        </g>
      </g>
    </g>
    <g id="Grupo_74802" data-name="Grupo 74802" transform="translate(1302.676 1162.059)">
      <path id="Trazado_118067" data-name="Trazado 118067" d="M-738.024,365.7c9.027,0,16.344,3.875,16.344,8.657s-7.317,8.657-16.344,8.657-16.343-3.876-16.343-8.657S-747.05,365.7-738.024,365.7Z" transform="translate(762.145 -292.086)" fill="#92b4d1" opacity="0.164" style="isolation: isolate"/>
      <g id="Grupo_74801" data-name="Grupo 74801" transform="translate(0 0)">
        <g id="Grupo_74785" data-name="Grupo 74785" transform="translate(23.783 13.074)">
          <path id="Trazado_118068" data-name="Trazado 118068" d="M-746.5,306.207s5.164-3.028,7.8,1.214c2.51,4.035-.116,9.814-2.639,13.843-2.134,3.409-7.368-5.848-7.368-5.848Z" transform="translate(748.708 -305.16)" fill="#c0d5ff"/>
        </g>
        <g id="Grupo_74786" data-name="Grupo 74786" transform="translate(0 11.785)">
          <path id="Trazado_118069" data-name="Trazado 118069" d="M-723.237,305.57a2.5,2.5,0,0,0-1.235,3.281c.98,2.455,4.6,7.3,4.6,7.3l5.967-4.376-3.162-7.9S-721.268,304.263-723.237,305.57Z" transform="translate(724.697 -303.871)" fill="#ffd291"/>
        </g>
        <g id="Grupo_74787" data-name="Grupo 74787" transform="translate(4.288 10.156)">
          <path id="Trazado_118070" data-name="Trazado 118070" d="M-726.727,322.5l7.7-4.446a1.784,1.784,0,0,0,.74-2.075l-4.7-12.916a1.167,1.167,0,0,0-1.731-.648l-7.7,4.446a1.784,1.784,0,0,0-.74,2.075l4.7,12.916A1.167,1.167,0,0,0-726.727,322.5Z" transform="translate(733.254 -302.242)" fill="#c9eaff"/>
        </g>
        <g id="Grupo_74788" data-name="Grupo 74788" transform="translate(5.411 12.259)">
          <path id="Trazado_118071" data-name="Trazado 118071" d="M-723.514,304.345l4.2,12.2-7.261,4.539-5.094-12.094Z" transform="translate(731.669 -304.345)" fill="#fff"/>
        </g>
        <g id="Grupo_74789" data-name="Grupo 74789" transform="translate(11.292 81.097)">
          <path id="Trazado_118072" data-name="Trazado 118072" d="M-729.178,374.747s-3.964-1.074-6.762-1.514c-3.941-.619,0,4.768,2.155,5.479a18.265,18.265,0,0,0,3.634.683s2.38,2.055,4.265.678c1.223-.894.452-5,.452-5Z" transform="translate(737.621 -373.184)" fill="#3d7dfb"/>
        </g>
        <g id="Grupo_74790" data-name="Grupo 74790" transform="translate(1.46 7.479)">
          <path id="Trazado_118073" data-name="Trazado 118073" d="M-716.1,304.345a2.983,2.983,0,0,0-.516-4.35c-3.734-2.33-11.59,5.575-11.59,5.575a3.49,3.49,0,0,1,3.788,1,3.057,3.057,0,0,1,.764,2.044Z" transform="translate(728.205 -299.565)" fill="#fff"/>
        </g>
        <g id="Grupo_74791" data-name="Grupo 74791" transform="translate(1.967 12.967)">
          <path id="Trazado_118074" data-name="Trazado 118074" d="M-716.2,312.415a12.351,12.351,0,0,1-.866-4.268c.215-1.747,1.83-2.242.931-2.963s-2.361,1.763-2.361,1.763-2.091-2.564-3.54,1.373c-.862,2.34,3.106,5.375,3.106,5.375Z" transform="translate(722.162 -305.053)" fill="#ffd291"/>
        </g>
        <g id="Grupo_74792" data-name="Grupo 74792" transform="translate(22.769 75.398)">
          <path id="Trazado_118075" data-name="Trazado 118075" d="M-740.655,369.047s-3.964-1.074-6.761-1.513c-3.941-.62,0,4.767,2.155,5.479a18.29,18.29,0,0,0,3.633.682s2.381,2.055,4.265.678c1.223-.894.453-5,.453-5Z" transform="translate(749.097 -367.484)" fill="#3d7dfb"/>
        </g>
        <g id="Grupo_74793" data-name="Grupo 74793" transform="translate(24.122 40.118)">
          <path id="Trazado_118076" data-name="Trazado 118076" d="M-740.378,333.362a13.327,13.327,0,0,1,1.114,7.151c-.649,3.488-1,10.845-1,10.845s.923,5.537,1.584,9.754c.5,3.208.653,8.8.653,8.8a12.847,12.847,0,0,1-4.16.6,5.042,5.042,0,0,1-2.757-1.047s-2.03-12.368-2.49-16.379-1.979-14.143-1.609-16.934S-741.31,330.566-740.378,333.362Z" transform="translate(749.097 -332.204)" fill="#3d7dfb"/>
        </g>
        <g id="Grupo_74794" data-name="Grupo 74794" transform="translate(15.836 37.614)">
          <path id="Trazado_118077" data-name="Trazado 118077" d="M-738.743,330.435s-1.555,4.352-3.748,12.662a94.335,94.335,0,0,0-1.727,14.065c-.266,6.218.645,9.465.645,17.139,2.293,3.837,7.19,1.417,7.19,1.417s-.106-13.776-.96-18.208c.868-2.718,4.232-11.472,4.083-14.482,0,0,4.3.006,3.4-7.893C-730.8,326.958-738.743,330.435-738.743,330.435Z" transform="translate(744.267 -329.701)" fill="#3d7dfb"/>
        </g>
        <g id="Grupo_74795" data-name="Grupo 74795" transform="translate(13.264 13.603)">
          <path id="Trazado_118078" data-name="Trazado 118078" d="M-741.864,309.283c-1.269,1.1-2.8,2.585-3.522,3.337-2.35,2.435-1.627,3.028-1.073,6.879a49.992,49.992,0,0,1,.436,9.862c-.2,3.416-3.466,17.3-4.3,24.045,0,0,6.326,3.552,10.95,3.552a15.12,15.12,0,0,0,12.209-5.78c-.307-2.7-.617-18.022-1.655-22.068a47.767,47.767,0,0,1-1.333-12.229c.107-6.382-.817-8.96-3.952-10.582C-736.561,305.029-737.634,305.614-741.864,309.283Z" transform="translate(750.325 -305.689)" fill="#c0d5ff"/>
        </g>
        <g id="Grupo_74796" data-name="Grupo 74796" transform="translate(20.727 10.764)">
          <path id="Trazado_118079" data-name="Trazado 118079" d="M-740.741,304.66a10.126,10.126,0,0,1,1,4.623c-.216,2.162,6.484.554,4.86-2.184a32.673,32.673,0,0,0-2.855-4.249Z" transform="translate(740.741 -302.85)" fill="#ffd291"/>
        </g>
        <g id="Grupo_74797" data-name="Grupo 74797" transform="translate(17.412 1.652)">
          <path id="Trazado_118080" data-name="Trazado 118080" d="M-735.589,293.739c-4.859.083-5.692,7.054-5.005,9.991s4.459,2.006,7.141-.334S-729.756,293.64-735.589,293.739Z" transform="translate(740.804 -293.738)" fill="#ffd291"/>
        </g>
        <g id="Grupo_74798" data-name="Grupo 74798" transform="translate(3.984 19.396)">
          <path id="Trazado_118081" data-name="Trazado 118081" d="M-723.219,314.472c-1.5,1.734-3.839,4.447-3.839,4.447s-2.668-5.756-5.049-7.384c-1.193-.345-4.263,1.026-3.878,3.137,1.654,3.258,5.654,12.133,6.606,12.929.736.615,3.571.271,5.212-.6a12.045,12.045,0,0,0,5.777-5.579C-716.506,317.7-720.3,311.093-723.219,314.472Z" transform="translate(736.018 -311.482)" fill="#c0d5ff"/>
        </g>
        <g id="Grupo_74799" data-name="Grupo 74799" transform="translate(19.34 13.586)">
          <path id="Trazado_118082" data-name="Trazado 118082" d="M-742.762,311.508a9.014,9.014,0,0,0,8.386-2.836c3.337-3.412-1.751-2.983-1.751-2.983s0,2.478-2.974,2.192A3.508,3.508,0,0,0-742.762,311.508Z" transform="translate(742.774 -305.672)" fill="#c0d5ff"/>
        </g>
        <g id="Grupo_74800" data-name="Grupo 74800" transform="translate(17.765)">
          <path id="Trazado_118083" data-name="Trazado 118083" d="M-742.067,293.738c-1.908,3.973,1.568,4.114,3.055,4.73a6.157,6.157,0,0,0,1.5,5.508c-.446,1.792,2.942,2.5,2.942,2.5a12.73,12.73,0,0,0,2.9-8.174C-731.648,292.834-737.717,290.107-742.067,293.738Z" transform="translate(742.625 -292.086)" fill="#3d7dfb"/>
        </g>
      </g>
    </g>
    <g id="Grupo_74610" data-name="Grupo 74610" transform="translate(1274.179 1240.493)">
      <path id="Trazado_110211" data-name="Trazado 110211" d="M345.319,333.109c.277-4.978,7.932-8.97,17.358-8.97s17.077,3.992,17.356,8.97c0,.092.026.182.026.277,0,5.107-7.783,9.245-17.382,9.245s-17.385-4.139-17.385-9.245C345.293,333.291,345.315,333.2,345.319,333.109Z" transform="translate(-345.293 -268.81)" fill="#92b4d1" opacity="0.142"/>
      <g id="Grupo_70704" data-name="Grupo 70704" transform="translate(3.685)">
        <path id="Trazado_110383" data-name="Trazado 110383" d="M374.852,304.342v36.712c0,3.856-5.874,6.98-13.122,6.98s-13.125-3.125-13.125-6.98V304.342Z" transform="translate(-348.606 -277.906)" fill="#e8d6d6"/>
        <g id="Grupo_70699" data-name="Grupo 70699" transform="translate(0 34.323)">
          <path id="Trazado_110384" data-name="Trazado 110384" d="M361.731,316.725c7.247,0,13.122-3.123,13.122-6.979v23.509c0,3.856-5.874,6.98-13.122,6.98s-13.125-3.125-13.125-6.98V309.746C348.606,313.6,354.482,316.725,361.731,316.725Z" transform="translate(-348.606 -309.746)" fill="#9165d1"/>
        </g>
        <g id="Grupo_70700" data-name="Grupo 70700" transform="translate(0 37.576)">
          <path id="Trazado_110385" data-name="Trazado 110385" d="M361.731,318.954c7.247,0,13.122-3.123,13.122-6.979v17.164c0,3.857-5.874,6.98-13.122,6.98s-13.125-3.123-13.125-6.98V311.975C348.606,315.831,354.482,318.954,361.731,318.954Z" transform="translate(-348.606 -311.975)" fill="#b292ef"/>
        </g>
        <g id="Grupo_70701" data-name="Grupo 70701" transform="translate(3.599 37.576)">
          <path id="Trazado_110386" data-name="Trazado 110386" d="M348.606,316.768a19.9,19.9,0,0,0,9.526,2.186c7.247,0,13.122-3.123,13.122-6.979v3.19c0,3.856-5.874,6.98-13.122,6.98a19.9,19.9,0,0,1-9.526-2.188Z" transform="translate(-348.606 -311.975)" fill="#33211f"/>
        </g>
        <path id="Trazado_110387" data-name="Trazado 110387" d="M348.606,306.539c0,3.856,5.876,6.98,13.125,6.98s13.122-3.125,13.122-6.98-5.874-6.979-13.122-6.979S348.606,302.683,348.606,306.539Z" transform="translate(-348.606 -280.103)" fill="#f4efef"/>
        <g id="Grupo_70702" data-name="Grupo 70702" transform="translate(3.86 15.896)">
          <path id="Trazado_110388" data-name="Trazado 110388" d="M365.977,297.12v12.061a11.311,11.311,0,0,1-1.938.756V297.326h-1.614V310.3a16.518,16.518,0,0,1-2.048.213V297.326h-1.613v13.186a16.3,16.3,0,0,1-1.938-.2V297.326h-1.614v12.62a11.38,11.38,0,0,1-1.978-.768V297.12Z" transform="translate(-350.347 -297.12)" fill="#a179e0"/>
          <path id="Trazado_110389" data-name="Trazado 110389" d="M352.534,297.12v8.488a3.4,3.4,0,0,1-1.284,2.493V297.12Z" transform="translate(-334.007 -297.12)" fill="#a179e0"/>
          <path id="Trazado_110390" data-name="Trazado 110390" d="M363.071,305.608a2.669,2.669,0,0,1,.041-.432V297.12h1.235V308.1A3.406,3.406,0,0,1,363.071,305.608Z" transform="translate(-363.071 -297.12)" fill="#a179e0"/>
          <path id="Trazado_110391" data-name="Trazado 110391" d="M353.743,297.12V308.1a7.313,7.313,0,0,1-1.613,1.08V297.12Z" transform="translate(-336.499 -297.12)" fill="#448ce2"/>
          <path id="Trazado_110392" data-name="Trazado 110392" d="M353.743,297.12V308.1a7.313,7.313,0,0,1-1.613,1.08V297.12Z" transform="translate(-336.499 -297.12)" fill="#9165d1"/>
          <path id="Trazado_110393" data-name="Trazado 110393" d="M356.177,297.261v12.611a14.554,14.554,0,0,1-1.614.365V297.261Z" transform="translate(-342.485 -297.055)" fill="#448ce2"/>
          <path id="Trazado_110394" data-name="Trazado 110394" d="M356.177,297.261v12.611a14.554,14.554,0,0,1-1.614.365V297.261Z" transform="translate(-342.485 -297.055)" fill="#9165d1"/>
          <path id="Trazado_110395" data-name="Trazado 110395" d="M358.685,297.261V310.45c-.253.012-.508.02-.766.02-.286,0-.568-.009-.847-.023V297.261Z" transform="translate(-348.654 -297.055)" fill="#448ce2"/>
          <path id="Trazado_110396" data-name="Trazado 110396" d="M358.685,297.261V310.45c-.253.012-.508.02-.766.02-.286,0-.568-.009-.847-.023V297.261Z" transform="translate(-348.654 -297.055)" fill="#9165d1"/>
          <path id="Trazado_110397" data-name="Trazado 110397" d="M361.119,297.261v12.982a14.546,14.546,0,0,1-1.614-.362v-12.62Z" transform="translate(-354.639 -297.055)" fill="#448ce2"/>
          <path id="Trazado_110398" data-name="Trazado 110398" d="M361.119,297.261v12.982a14.546,14.546,0,0,1-1.614-.362v-12.62Z" transform="translate(-354.639 -297.055)" fill="#9165d1"/>
          <path id="Trazado_110399" data-name="Trazado 110399" d="M363.579,297.12v12.058a7.334,7.334,0,0,1-1.613-1.083V297.12Z" transform="translate(-360.69 -297.12)" fill="#448ce2"/>
          <path id="Trazado_110400" data-name="Trazado 110400" d="M363.579,297.12v12.058a7.334,7.334,0,0,1-1.613-1.083V297.12Z" transform="translate(-360.69 -297.12)" fill="#9165d1"/>
        </g>
        <g id="Grupo_70703" data-name="Grupo 70703" transform="translate(3.86)">
          <path id="Trazado_110401" data-name="Trazado 110401" d="M351.25,298.671c0,2.722,4.146,4.927,9.265,4.927s9.263-2.205,9.263-4.927-4.148-4.927-9.263-4.927S351.25,295.949,351.25,298.671Z" transform="translate(-351.25 -282.775)" fill="#b292ef"/>
          <path id="Trazado_110402" data-name="Trazado 110402" d="M352.91,300.375h-.02l2.675-12.6h8.481l2.669,12.577H366.7a2.065,2.065,0,0,1,.117.622c0,2.059-3.138,3.727-7.008,3.727s-7.008-1.668-7.008-3.727A2.059,2.059,0,0,1,352.91,300.375Z" transform="translate(-350.541 -285.518)" fill="#9165d1"/>
          <path id="Trazado_110403" data-name="Trazado 110403" d="M354.692,288.484c0,1.245,1.9,2.255,4.24,2.255s4.241-1.01,4.241-2.255-1.9-2.256-4.241-2.256S354.692,287.238,354.692,288.484Z" transform="translate(-349.669 -286.228)" fill="#b292ef"/>
          <path id="Trazado_110404" data-name="Trazado 110404" d="M355.923,287.89c0,.718,1.095,1.3,2.445,1.3s2.445-.582,2.445-1.3-1.095-1.3-2.445-1.3S355.923,287.172,355.923,287.89Z" transform="translate(-349.104 -286.062)" fill="#a179e0"/>
        </g>
      </g>
    </g>
    <g id="Grupo_74607" data-name="Grupo 74607" transform="translate(1188.462 1162.059)">
      <path id="Trazado_110210" data-name="Trazado 110210" d="M324.562,201.795c.245-4.394,7-7.916,15.319-7.916s15.072,3.522,15.317,7.916c0,.081.023.162.023.244,0,4.507-6.868,8.16-15.34,8.16s-15.342-3.653-15.342-8.16C324.539,201.957,324.558,201.876,324.562,201.795Z" transform="translate(-324.539 -148.424)" fill="#92b4d1" opacity="0.156"/>
      <g id="Grupo_70720" data-name="Grupo 70720" transform="translate(2.753)">
        <g id="Grupo_70715" data-name="Grupo 70715" transform="translate(1.376 19.638)">
          <path id="Trazado_110418" data-name="Trazado 110418" d="M339.2,183.2c6.207,0,11.24-2.677,11.24-5.98v26c0,3.3-5.033,5.978-11.24,5.978s-11.242-2.675-11.242-5.978v-26C327.957,180.521,332.99,183.2,339.2,183.2Z" transform="translate(-327.957 -171.24)" fill="#d1bdbd"/>
          <path id="Trazado_110419" data-name="Trazado 110419" d="M339.2,172.2c6.207,0,11.24,2.677,11.24,5.978s-5.033,5.98-11.24,5.98-11.242-2.677-11.242-5.98S332.99,172.2,339.2,172.2Z" transform="translate(-327.957 -172.197)" fill="#f4e6e6"/>
        </g>
        <path id="Trazado_110420" data-name="Trazado 110420" d="M339.44,179.3c6.951,0,12.587-3,12.587-6.7v32.139c0,3.7-5.636,6.7-12.587,6.7s-12.589-3-12.589-6.7V172.609C326.851,176.307,332.487,179.3,339.44,179.3Z" transform="translate(-326.851 -152.48)" fill="#e8d6d6" opacity="0.7"/>
        <path id="Trazado_110421" data-name="Trazado 110421" d="M326.87,173.481c.2-3.605,5.744-6.5,12.57-6.5s12.366,2.89,12.568,6.5c0,.067.019.132.019.2,0,3.7-5.636,6.7-12.587,6.7s-12.589-3-12.589-6.7C326.851,173.613,326.866,173.548,326.87,173.481Z" transform="translate(-326.851 -153.553)" fill="#e8d6d6" opacity="0.5"/>
        <path id="Trazado_110422" data-name="Trazado 110422" d="M330.661,168.409c.129-2.31,3.68-4.161,8.053-4.161s7.924,1.852,8.053,4.161c0,.043.013.085.013.129,0,2.369-3.611,4.289-8.066,4.289s-8.065-1.919-8.065-4.289C330.649,168.494,330.659,168.452,330.661,168.409Z" transform="translate(-326.126 -154.075)" fill="#e8d6d6" opacity="0.7"/>
        <g id="Grupo_70716" data-name="Grupo 70716" transform="translate(0 30.107)">
          <path id="Trazado_110423" data-name="Trazado 110423" d="M339.44,187.684c6.951,0,12.587-3,12.587-6.7v11.734c0,3.7-5.636,6.7-12.587,6.7s-12.589-3-12.589-6.7V180.989C326.851,184.687,332.487,187.684,339.44,187.684Z" transform="translate(-326.851 -180.989)" fill="#7e5ee3"/>
        </g>
        <g id="Grupo_70717" data-name="Grupo 70717" transform="translate(1.425 6.236)">
          <path id="Trazado_110424" data-name="Trazado 110424" d="M344.395,166.572c0-.06.013-.117.017-.176v-5.41h2.845v9.546C345.483,169.479,344.395,168.095,344.395,166.572Z" transform="translate(-344.395 -160.933)" fill="#bca4a4"/>
          <path id="Trazado_110425" data-name="Trazado 110425" d="M344.817,160.993c.118-.023.246-.032.367-.052v11.3a14.455,14.455,0,0,1-4.922-1.7v-9.546Z" transform="translate(-337.4 -160.941)" fill="#af9797"/>
        </g>
        <g id="Grupo_70718" data-name="Grupo 70718" transform="translate(9.209 5.937)">
          <path id="Trazado_110426" data-name="Trazado 110426" d="M332.383,160.985V170.8a12.5,12.5,0,0,1-1.543.676V160.985Z" transform="translate(-321.166 -160.634)" fill="#bca4a4"/>
          <path id="Trazado_110427" data-name="Trazado 110427" d="M329.505,160.985v5.41c0,.06.017.117.017.176a4.066,4.066,0,0,1-1.474,2.941v-8.528Z" transform="translate(-314.98 -160.634)" fill="#bca4a4"/>
          <path id="Trazado_110428" data-name="Trazado 110428" d="M339.148,160.69c.673,0,1.33.036,1.969.1v11.679c-.641.061-1.3.1-1.969.1a20.384,20.384,0,0,1-3.38-.279v-11.3A19.937,19.937,0,0,1,339.148,160.69Z" transform="translate(-335.768 -160.69)" fill="#bca4a4"/>
          <path id="Trazado_110429" data-name="Trazado 110429" d="M331.136,160.985v8.528a8.553,8.553,0,0,1-1.85,1.284v-9.811Z" transform="translate(-318.069 -160.634)" fill="#bca4a4"/>
          <path id="Trazado_110430" data-name="Trazado 110430" d="M331.136,160.985v8.528a8.553,8.553,0,0,1-1.85,1.284v-9.811Z" transform="translate(-318.069 -160.634)" fill="#fff" opacity="0.3"/>
          <path id="Trazado_110431" data-name="Trazado 110431" d="M333.912,161.026h2.548v10.488a17.586,17.586,0,0,1-4.325.938V160.772C332.746,160.832,333.34,160.916,333.912,161.026Z" transform="translate(-326.786 -160.674)" fill="#bca4a4"/>
          <path id="Trazado_110432" data-name="Trazado 110432" d="M333.912,161.026h2.548v10.488a17.586,17.586,0,0,1-4.325.938V160.772C332.746,160.832,333.34,160.916,333.912,161.026Z" transform="translate(-326.786 -160.674)" fill="#fff" opacity="0.3"/>
        </g>
        <path id="Trazado_110433" data-name="Trazado 110433" d="M328.066,161.463c.177-3.2,5.093-5.759,11.146-5.759s10.966,2.562,11.145,5.759c0,.06.017.118.017.177,0,3.28-5,5.938-11.162,5.938s-11.164-2.658-11.164-5.938C328.048,161.581,328.062,161.523,328.066,161.463Z" transform="translate(-326.623 -155.704)" fill="#f4e6e6"/>
        <g id="Grupo_70719" data-name="Grupo 70719" transform="translate(7.007 2.581)">
          <path id="Trazado_110434" data-name="Trazado 110434" d="M338.345,158.61c-2.916,0-5.282,1.193-5.532,2.709a1.636,1.636,0,0,1-.079-.479c0-.03.006-.06.008-.089.089-1.6,2.547-2.879,5.572-2.879s5.484,1.281,5.572,2.879c0,.03.01.06.01.089a1.655,1.655,0,0,1-.048.367C343.5,159.745,341.188,158.61,338.345,158.61Z" transform="translate(-332.735 -157.872)" fill="#af9797"/>
          <path id="Trazado_110435" data-name="Trazado 110435" d="M338.277,163.691c-2.774,0-5.07-1.078-5.5-2.49.25-1.516,2.616-2.709,5.532-2.709,2.842,0,5.158,1.135,5.5,2.6C343.471,162.555,341.125,163.691,338.277,163.691Z" transform="translate(-332.696 -157.754)" fill="#d1bdbd"/>
        </g>
      </g>
    </g>
    <g id="Grupo_74609" data-name="Grupo 74609" transform="translate(1370.822 1173.554)">
      <path id="Trazado_110215" data-name="Trazado 110215" d="M304.063,234.7,324.322,223a9.344,9.344,0,0,1,3.754-1.112l-16.883-9.748c-2.454-1.417-2.723-3.579-.6-4.807h0c2.125-1.227,5.871-1.071,8.325.345l20.259,11.7c2.454,1.417,2.723,3.581.6,4.807a8.587,8.587,0,0,1-5.721.6,3.41,3.41,0,0,1-2.007,2.684l-20.259,11.7c-2.453,1.416-6.2,1.572-8.325.345S301.61,236.114,304.063,234.7Z" transform="translate(-302.032 -201.547)" fill="#92b4d1" opacity="0.174"/>
      <g id="Grupo_70714" data-name="Grupo 70714" transform="translate(0.832)">
        <g id="Grupo_70712" data-name="Grupo 70712" transform="translate(7.778)">
          <path id="Trazado_110414" data-name="Trazado 110414" d="M313.249,205.231a4.785,4.785,0,0,1,6.517-1.746l9.064,5.231-.047.031s-2.591,5.42-4.084,8.6l-9.7-5.6A4.786,4.786,0,0,1,313.249,205.231Z" transform="translate(-312.614 -202.849)" fill="#00bcd4"/>
          <path id="Trazado_110415" data-name="Trazado 110415" d="M302.8,213.357a7.843,7.843,0,0,1,3.075-5.942c.8-.494,1.457-.6,1.977-.225l11.039,6.373a4.77,4.77,0,1,1-4.77,8.262s-10.107-5.831-10.369-5.985C303.091,215.5,302.771,214.644,302.8,213.357Z" transform="translate(-291.74 -201.382)" fill="#9165d1"/>
        </g>
        <g id="Grupo_70713" data-name="Grupo 70713" transform="translate(0 15.849)">
          <path id="Trazado_110416" data-name="Trazado 110416" d="M324.111,216.917a4.785,4.785,0,0,0-6.517-1.747l-9.063,5.233.046.031s2.592,5.42,4.084,8.6l9.7-5.6A4.785,4.785,0,0,0,324.111,216.917Z" transform="translate(-295.216 -214.535)" fill="#00bcd4"/>
          <path id="Trazado_110417" data-name="Trazado 110417" d="M335.156,225.043a7.841,7.841,0,0,0-3.075-5.942c-.8-.494-1.457-.6-1.977-.227l-11.039,6.373a4.771,4.771,0,0,0,4.771,8.264s10.106-5.831,10.367-5.987C334.863,227.19,335.185,226.329,335.156,225.043Z" transform="translate(-316.684 -213.068)" fill="#9165d1"/>
        </g>
      </g>
    </g>
    <g id="Grupo_74608" data-name="Grupo 74608" transform="translate(1232.212 1179.643)">
      <path id="Trazado_110212" data-name="Trazado 110212" d="M347.672,325.593c-.188-3.385-5.392-6.1-11.8-6.1s-11.611,2.713-11.8,6.1c0,.064-.018.124-.018.188,0,3.473,5.29,6.286,11.817,6.286s11.818-2.813,11.818-6.286C347.691,325.717,347.677,325.657,347.672,325.593Z" transform="translate(-295.058 -302.196)" fill="#92b4d1" opacity="0.229"/>
      <path id="Trazado_110213" data-name="Trazado 110213" d="M328.544,322.845c-.189-3.385-5.393-6.1-11.8-6.1s-11.611,2.713-11.8,6.1c0,.062-.018.124-.018.188,0,3.473,5.292,6.286,11.819,6.286s11.819-2.813,11.819-6.286C328.562,322.969,328.547,322.907,328.544,322.845Z" transform="translate(-304.925 -303.613)" fill="#92b4d1" opacity="0.229"/>
      <path id="Trazado_110214" data-name="Trazado 110214" d="M352.115,317.6c-.189-3.389-5.4-6.106-11.815-6.106s-11.625,2.716-11.814,6.106c0,.064-.018.124-.018.188,0,3.477,5.3,6.293,11.832,6.293s11.834-2.816,11.834-6.293C352.133,317.722,352.118,317.661,352.115,317.6Z" transform="translate(-292.782 -306.323)" fill="#92b4d1" opacity="0.229"/>
      <g id="Grupo_70711" data-name="Grupo 70711" transform="translate(2.052)">
        <g id="Grupo_70706" data-name="Grupo 70706" transform="translate(0 7.568)">
          <path id="Trazado_110405" data-name="Trazado 110405" d="M325.808,321.728v-5.154H306.279v5.195a2.82,2.82,0,0,0,.029.3c.291,2.73,4.532,4.9,9.737,4.9,5.393,0,9.766-2.325,9.766-5.195C325.811,321.755,325.808,321.741,325.808,321.728Z" transform="translate(-306.279 -311.27)" fill="#9165d1"/>
          <g id="Grupo_70705" data-name="Grupo 70705">
            <path id="Trazado_110406" data-name="Trazado 110406" d="M316.045,313.075c-5.393,0-9.766,2.324-9.766,5.193a2.745,2.745,0,0,0,.029.3c.291,2.73,4.532,4.9,9.737,4.9,5.393,0,9.766-2.325,9.766-5.195S321.438,313.075,316.045,313.075Z" transform="translate(-306.279 -313.075)" fill="#b292ef"/>
          </g>
          <path id="Trazado_110407" data-name="Trazado 110407" d="M321.092,322.068l-13.171-7.6s.453-.258.738-.4c.309-.15.77-.333.77-.333l13.149,7.592s-.415.246-.67.373C321.574,321.867,321.092,322.068,321.092,322.068Z" transform="translate(-305.431 -312.734)" fill="#9165d1"/>
        </g>
        <g id="Grupo_70708" data-name="Grupo 70708" transform="translate(35.646)">
          <path id="Trazado_110408" data-name="Trazado 110408" d="M349.324,316.735v-5.154H329.8v5.195a2.781,2.781,0,0,0,.027.3c.293,2.73,4.534,4.9,9.737,4.9,5.395,0,9.768-2.325,9.768-5.195C349.328,316.762,349.324,316.748,349.324,316.735Z" transform="translate(-329.796 -306.277)" fill="#9165d1"/>
          <g id="Grupo_70707" data-name="Grupo 70707">
            <path id="Trazado_110409" data-name="Trazado 110409" d="M339.561,308.082c-5.393,0-9.765,2.325-9.765,5.195a2.777,2.777,0,0,0,.027.3c.293,2.73,4.534,4.9,9.737,4.9,5.395,0,9.768-2.325,9.768-5.195S344.955,308.082,339.561,308.082Z" transform="translate(-329.796 -308.082)" fill="#b292ef"/>
          </g>
          <path id="Trazado_110410" data-name="Trazado 110410" d="M344.61,317.076l-13.171-7.6s.452-.258.737-.4c.309-.15.772-.332.772-.332l13.148,7.591s-.414.247-.67.373C345.092,316.875,344.61,317.076,344.61,317.076Z" transform="translate(-328.948 -307.741)" fill="#9165d1"/>
        </g>
        <g id="Grupo_70710" data-name="Grupo 70710" transform="translate(28.997 12.131)">
          <path id="Trazado_110411" data-name="Trazado 110411" d="M344.937,324.737v-5.152H325.409v5.193a2.736,2.736,0,0,0,.027.3c.291,2.73,4.534,4.9,9.737,4.9,5.395,0,9.768-2.325,9.768-5.195C344.941,324.764,344.937,324.751,344.937,324.737Z" transform="translate(-325.409 -314.28)" fill="#9165d1"/>
          <g id="Grupo_70709" data-name="Grupo 70709">
            <path id="Trazado_110412" data-name="Trazado 110412" d="M335.174,316.085c-5.393,0-9.765,2.325-9.765,5.195a2.77,2.77,0,0,0,.027.3c.291,2.73,4.534,4.9,9.737,4.9,5.395,0,9.768-2.325,9.768-5.195S340.568,316.085,335.174,316.085Z" transform="translate(-325.409 -316.085)" fill="#b292ef"/>
          </g>
          <path id="Trazado_110413" data-name="Trazado 110413" d="M340.221,325.079l-13.169-7.6s.452-.258.737-.4c.309-.15.772-.332.772-.332l13.148,7.591s-.414.247-.67.374C340.7,324.878,340.221,325.079,340.221,325.079Z" transform="translate(-324.562 -315.744)" fill="#9165d1"/>
        </g>
      </g>
    </g>
  </g>
</svg>
