<svg xmlns="http://www.w3.org/2000/svg" xmlns:xlink="http://www.w3.org/1999/xlink" width="100" height="100" viewBox="0 0 100 100">
  <defs>
    <clipPath id="clip-path">
      <circle id="Elipse_4707" data-name="Elipse 4707" cx="50" cy="50" r="50" fill="none"/>
    </clipPath>
  </defs>
  <g id="Grupo_75300" data-name="Grupo 75300" transform="translate(-3282 6018.656)">
    <g id="Grupo_75292" data-name="Grupo 75292" transform="translate(-128.378 -6768.408)">
      <g id="Grupo_74998" data-name="Grupo 74998" transform="translate(3410.378 749.752)">
        <g id="Grupo_74997" data-name="Grupo 74997" clip-path="url(#clip-path)">
          <path id="Trazado_145710" data-name="Trazado 145710" d="M3453.4,760.6c14.33-13.491,32.1-16.021,48.769-13.886l-61.478-40.671-63.137,95.436C3407.8,803.123,3418.13,793.805,3453.4,760.6Z" transform="translate(-3399.905 -735.805)" fill="#54c7fe"/>
          <path id="Trazado_145711" data-name="Trazado 145711" d="M3462.563,882.291l65.485-98.986-26.978-17.848c-16.666-2.135-34.439.395-48.769,13.886-35.271,33.206-45.6,42.523-75.846,40.88l-2.348,3.55Z" transform="translate(-3398.804 -754.549)" fill="#5477cd"/>
        </g>
      </g>
      <g id="Grupo_74999" data-name="Grupo 74999" transform="translate(3420.412 761.049)">
        <path id="Trazado_145712" data-name="Trazado 145712" d="M3424.711,818.412c-.008-.335-.025-.67-.025-1q0-19.566,0-39.133c0-2.73,1.431-4.16,4.162-4.16h50.287c.4,0,.792-.009,1.188-.013a1.6,1.6,0,0,1,1.126-.26c2.946,0,5.891-.025,8.836,0a3.892,3.892,0,0,1,4.191,3.59c.072,1.217.043,2.434.023,3.652.034,2.06.038,4.121,0,6.181q.046,1.855,0,3.709c.044,4,.036,8.008,0,12.012.028,1.243.026,2.487,0,3.73.04,3.409.016,6.816.017,10.225a2.4,2.4,0,0,1-.25,1.5,2.065,2.065,0,0,1-1.321.252q-33.469.007-66.937,0A1.736,1.736,0,0,1,3424.711,818.412Z" transform="translate(-3424.685 -768.239)" fill="#7fd5fa"/>
        <path id="Trazado_145713" data-name="Trazado 145713" d="M3517.927,775.019c-.682-2.471-1.752-3.283-4.322-3.286q-4.8-.005-9.6-.013c0-1.708.017-3.416-.014-5.123-.009-.532.094-.734.69-.734q16.514.029,33.028,0c.784,0,.7.4.7.9q-.008,12.9,0,25.8,0,22.734.023,45.47c0,.9-.242,1.076-1.1,1.074q-16.194-.049-32.387,0c-.741,0-.968-.149-.961-.932.038-4.452.012-8.9.006-13.357.376-.363.855-.276,1.3-.277,2.867-.01,5.734,0,8.6-.007a3.371,3.371,0,0,0,3.74-3.728c.005-1.219,0-2.44,0-3.66a1.711,1.711,0,0,1,.258-1.136q.022-5.869.043-11.739c.4-.006.545.344.774.571a3.431,3.431,0,1,0,0-4.711c-.229.227-.372.576-.774.569q0-6.054,0-12.109a1.96,1.96,0,0,1,1.481-.3c4.3-.009,8.595,0,12.892-.006,1.392,0,1.412-.027,1.415-1.445,0-1.625,0-1.627-1.6-1.628q-6.354,0-12.709-.006a1.96,1.96,0,0,1-1.481-.3v-6.2a1.961,1.961,0,0,1,1.481-.3c4.3-.009,8.6,0,12.894-.006,1.39,0,1.409-.027,1.413-1.447,0-1.623,0-1.625-1.6-1.626q-6.356,0-12.711,0A2.013,2.013,0,0,1,3517.927,775.019Z" transform="translate(-3451.367 -765.859)" fill="#466088"/>
        <path id="Trazado_145714" data-name="Trazado 145714" d="M3494.212,837.356c.007,1.854.033,3.707.015,5.561a3.584,3.584,0,0,1-3.343,3.243c-3.525.009-7.05,0-10.576,0h-11.686a1.731,1.731,0,0,1-1.215.292q-7.949.008-15.9,0a1.731,1.731,0,0,1-1.215-.292q-10.8,0-21.592,0a3.663,3.663,0,0,1-4.016-4.019c0-1.586.017-3.171.026-4.756l68.22-.01C3493.359,837.375,3493.786,837.363,3494.212,837.356Z" transform="translate(-3424.686 -787.212)" fill="#6e82b6"/>
        <path id="Trazado_145715" data-name="Trazado 145715" d="M3476.4,862.826c2.2,0,4.392.017,6.587-.008.542-.006.758.12.734.706-.046,1.126-.062,2.258,0,3.383.047.805-.155,1.073-1.027,1.068-6.647-.041-13.3-.022-19.943-.022-3.69,0-7.38-.025-11.069.02-.789.01-.977-.233-.937-.974.062-1.155.048-2.318,0-3.474-.023-.586.192-.713.734-.706,2.2.025,4.391.008,6.587.008a1.731,1.731,0,0,1,1.215-.293q7.949-.008,15.9,0A1.73,1.73,0,0,1,3476.4,862.826Z" transform="translate(-3433.429 -794.73)" fill="#6e82b6"/>
        <ellipse id="Elipse_4708" data-name="Elipse 4708" cx="12.96" cy="6.466" rx="12.96" ry="6.466" transform="translate(20.793 57.058)" fill="#466088"/>
        <path id="Trazado_145716" data-name="Trazado 145716" d="M3523.865,778.915c5.032,0,10.063.025,15.092-.011.813-.006,1.1.214,1.01,1.023a7.4,7.4,0,0,0,0,1.643c.088.793-.172,1.041-1,1.033-4.664-.041-9.33-.02-13.995-.02-.365,0-.732.008-1.1.013Q3523.87,780.757,3523.865,778.915Z" transform="translate(-3457.305 -769.755)" fill="#6e82b6"/>
        <path id="Trazado_145717" data-name="Trazado 145717" d="M3523.879,793c5.029,0,10.059.029,15.088-.006.822-.006,1.091.229,1,1.028a8.774,8.774,0,0,0,0,1.736c.066.713-.174.938-.912.933-4.663-.033-9.327-.017-13.991-.016-.4,0-.792.008-1.188.013Z" transform="translate(-3457.309 -773.963)" fill="#6e82b6"/>
        <path id="Trazado_145718" data-name="Trazado 145718" d="M3523.88,814.719c1.643-1.987,3.561-2.44,5.321-1.231a3.64,3.64,0,0,1-1.072,6.521,3.541,3.541,0,0,1-3.789-1.159c-.163-.177-.307-.372-.46-.56Q3523.88,816.5,3523.88,814.719Z" transform="translate(-3456.82 -779.885)" fill="#feafa9"/>
        <path id="Trazado_145719" data-name="Trazado 145719" d="M3526.445,845.642c0-2.129.032-4.26-.017-6.389-.016-.7.208-.857.874-.849,2.072.025,2.072,0,2.072,2.1,0,3.894-.021,7.788.019,11.682.007.742-.223.906-.92.894-2.026-.033-2.027,0-2.027-2.051Z" transform="translate(-3457.528 -787.525)" fill="#d2d2d2"/>
        <path id="Trazado_145720" data-name="Trazado 145720" d="M3526.435,828.623c0-.668.027-1.336-.009-2-.029-.525.1-.737.69-.746,2.247-.035,2.247-.059,2.246,2.184,0,.91-.028,1.821.008,2.73.034.882-.645.654-1,.562-.646-.168-1.662.673-1.91-.548A11.14,11.14,0,0,1,3526.435,828.623Z" transform="translate(-3457.517 -783.781)" fill="#d2d2d2"/>
      </g>
    </g>
  </g>
</svg>
