<svg xmlns="http://www.w3.org/2000/svg" width="295" height="203.886" viewBox="0 0 295 203.886">
  <g id="Grupo_74950" data-name="Grupo 74950" transform="translate(-284.838 -8954)">
    <rect id="Rectángulo_32448" data-name="Rectángulo 32448" width="295" height="196" transform="translate(284.838 8958)" fill="none"/>
    <g id="Grupo_74444" data-name="Grupo 74444" transform="translate(71.838 3538)">
      <rect id="Rectángulo_5221" data-name="Rectángulo 5221" width="192" height="203.886" transform="translate(265 5416)" fill="none"/>
      <g id="Grupo_70841" data-name="Grupo 70841" transform="translate(274.143 5425.143)">
        <g id="Grupo_70837" data-name="Grupo 70837" transform="translate(41.696 0)">
          <g id="Grupo_70832" data-name="Grupo 70832" transform="translate(24.735 0)">
            <g id="Grupo_70827" data-name="Grupo 70827" transform="translate(12.285)">
              <g id="Grupo_70826" data-name="Grupo 70826">
                <g id="Grupo_70825" data-name="Grupo 70825">
                  <path id="Trazado_110642" data-name="Trazado 110642" d="M666.81,934.392v89.191a9.981,9.981,0,0,1-9.952,9.952H603.844a9.842,9.842,0,0,1-3.995-.843,9.987,9.987,0,0,1-5.958-9.11V934.392a9.981,9.981,0,0,1,9.952-9.952h53.013A9.98,9.98,0,0,1,666.81,934.392Z" transform="translate(-593.892 -924.44)" fill="#fcecdb"/>
                  <path id="Trazado_110643" data-name="Trazado 110643" d="M804.84,1005.823a10.833,10.833,0,1,1,13.95-6.334A10.832,10.832,0,0,1,804.84,1005.823Z" transform="translate(-755.406 -972.283)" fill="#f7e0cb"/>
                  <path id="Trazado_110644" data-name="Trazado 110644" d="M821.435,999.49l-20.284-7.616a10.833,10.833,0,0,1,20.284,7.616Z" transform="translate(-758.05 -972.283)" fill="#efcbab"/>
                  <path id="Trazado_110645" data-name="Trazado 110645" d="M640.392,1004.083a10.833,10.833,0,1,1,15.243-1.541A10.833,10.833,0,0,1,640.392,1004.083Z" transform="translate(-627.567 -972.293)" fill="#f7e0cb"/>
                  <path id="Trazado_110646" data-name="Trazado 110646" d="M664.935,1002.542l-16.784-13.7a10.833,10.833,0,1,1,16.784,13.7Z" transform="translate(-636.868 -972.293)" fill="#efcbab"/>
                  <path id="Trazado_110647" data-name="Trazado 110647" d="M804.84,1323.609a10.833,10.833,0,1,1,13.95-6.334A10.832,10.832,0,0,1,804.84,1323.609Z" transform="translate(-755.406 -1223.984)" fill="#f7e0cb"/>
                  <path id="Trazado_110648" data-name="Trazado 110648" d="M821.435,1320.815l-20.284-7.616a10.833,10.833,0,1,1,20.284,7.616Z" transform="translate(-758.05 -1226.788)" fill="#efcbab"/>
                  <circle id="Elipse_4158" data-name="Elipse 4158" cx="10.833" cy="10.833" r="10.833" transform="matrix(0.919, -0.394, 0.394, 0.919, 5.453, 83.788)" fill="#f7e0cb"/>
                  <path id="Trazado_110649" data-name="Trazado 110649" d="M664.935,1323.867l-16.784-13.7a10.833,10.833,0,1,1,16.784,13.7Z" transform="translate(-636.868 -1226.797)" fill="#efcbab"/>
                  <g id="Grupo_70824" data-name="Grupo 70824" transform="translate(42.406 46.835)">
                    <path id="Trazado_110650" data-name="Trazado 110650" d="M813.289,1170.282a10.833,10.833,0,1,1,5.15-14.429A10.832,10.832,0,0,1,813.289,1170.282Z" transform="translate(-797.814 -1149.657)" fill="#f7e0cb"/>
                    <path id="Trazado_110651" data-name="Trazado 110651" d="M818.439,1155.853l-19.579,9.279a10.833,10.833,0,0,1,19.579-9.279Z" transform="translate(-797.814 -1149.657)" fill="#efcbab"/>
                  </g>
                  <path id="Trazado_110652" data-name="Trazado 110652" d="M637.178,1156.464a10.833,10.833,0,1,1,6.032,14.083A10.832,10.832,0,0,1,637.178,1156.464Z" transform="translate(-627.56 -1102.819)" fill="#f7e0cb"/>
                  <path id="Trazado_110653" data-name="Trazado 110653" d="M669.149,1173.513,677.2,1153.4a10.833,10.833,0,1,1-8.051,20.115Z" transform="translate(-653.499 -1105.785)" fill="#efcbab"/>
                </g>
              </g>
              <path id="Trazado_110654" data-name="Trazado 110654" d="M711.168,1030.994v77.613a9.244,9.244,0,0,1-9.107,9.324h-48.51a8.823,8.823,0,0,1-3.655-.79v-75.4a10.834,10.834,0,0,1,3.337-7.838,10.541,10.541,0,0,1,2.563-1.814,10.2,10.2,0,0,1,4.594-1.092Z" transform="translate(-638.25 -1008.836)" fill="#efcbab" opacity="0.5"/>
            </g>
            <g id="Grupo_70830" data-name="Grupo 70830" transform="translate(25.663 22.659)">
              <g id="Grupo_70829" data-name="Grupo 70829" transform="translate(0 0)">
                <rect id="Rectángulo_32306" data-name="Rectángulo 32306" width="109.096" height="72.918" rx="36.459" transform="translate(72.918 0) rotate(90)" fill="#fcecdb"/>
                <path id="Trazado_110655" data-name="Trazado 110655" d="M869.171,1114.791a10.833,10.833,0,1,1,13.95-6.334A10.833,10.833,0,0,1,869.171,1114.791Z" transform="translate(-819.737 -1081.25)" fill="#f7e0cb"/>
                <path id="Trazado_110656" data-name="Trazado 110656" d="M885.766,1108.457l-20.284-7.616a10.833,10.833,0,0,1,20.284,7.616Z" transform="translate(-822.382 -1081.25)" fill="#efcbab"/>
                <path id="Trazado_110657" data-name="Trazado 110657" d="M704.724,1113.05a10.833,10.833,0,1,1,15.243-1.541A10.833,10.833,0,0,1,704.724,1113.05Z" transform="translate(-691.899 -1081.26)" fill="#f7e0cb"/>
                <path id="Trazado_110658" data-name="Trazado 110658" d="M729.267,1111.509l-16.784-13.7a10.833,10.833,0,0,1,16.784,13.7Z" transform="translate(-701.199 -1081.26)" fill="#efcbab"/>
                <path id="Trazado_110659" data-name="Trazado 110659" d="M869.171,1432.576a10.833,10.833,0,1,1,13.95-6.334A10.833,10.833,0,0,1,869.171,1432.576Z" transform="translate(-819.737 -1332.951)" fill="#f7e0cb"/>
                <path id="Trazado_110660" data-name="Trazado 110660" d="M885.766,1429.783l-20.284-7.616a10.833,10.833,0,0,1,20.284,7.616Z" transform="translate(-822.382 -1335.754)" fill="#efcbab"/>
                <path id="Trazado_110661" data-name="Trazado 110661" d="M704.724,1430.836a10.833,10.833,0,1,1,15.243-1.541A10.832,10.832,0,0,1,704.724,1430.836Z" transform="translate(-691.899 -1332.96)" fill="#f7e0cb"/>
                <path id="Trazado_110662" data-name="Trazado 110662" d="M729.267,1432.835l-16.784-13.7a10.833,10.833,0,0,1,16.784,13.7Z" transform="translate(-701.199 -1335.764)" fill="#efcbab"/>
                <g id="Grupo_70828" data-name="Grupo 70828" transform="translate(42.407 46.836)">
                  <path id="Trazado_110663" data-name="Trazado 110663" d="M877.62,1279.25a10.833,10.833,0,1,1,5.15-14.429A10.833,10.833,0,0,1,877.62,1279.25Z" transform="translate(-862.145 -1258.625)" fill="#f7e0cb"/>
                  <path id="Trazado_110664" data-name="Trazado 110664" d="M882.77,1264.821l-19.579,9.279a10.833,10.833,0,1,1,19.579-9.279Z" transform="translate(-862.145 -1258.625)" fill="#efcbab"/>
                </g>
                <circle id="Elipse_4159" data-name="Elipse 4159" cx="10.833" cy="10.833" r="10.833" transform="translate(5.044 53.13) rotate(-27.755)" fill="#f7e0cb"/>
                <path id="Trazado_110665" data-name="Trazado 110665" d="M733.48,1282.481l8.051-20.115a10.833,10.833,0,1,1-8.051,20.115Z" transform="translate(-717.83 -1214.752)" fill="#efcbab"/>
              </g>
            </g>
            <g id="Grupo_70831" data-name="Grupo 70831" transform="translate(0 58.236)">
              <rect id="Rectángulo_32307" data-name="Rectángulo 32307" width="83.263" height="124.26" transform="translate(7.112 0.001)" fill="#ef7e29"/>
              <rect id="Rectángulo_32308" data-name="Rectángulo 32308" width="83.263" height="124.26" transform="translate(18.71)" fill="#f99746"/>
              <path id="Trazado_110666" data-name="Trazado 110666" d="M580.617,1211.694l-3.99,6.206h-7.608v-13.416h11.6Z" transform="translate(-561.907 -1204.483)" fill="#d8661a"/>
              <path id="Trazado_110667" data-name="Trazado 110667" d="M546.415,1214.273h-11.6l7.112-9.789h11.6Z" transform="translate(-534.818 -1204.483)" fill="#f99746"/>
              <path id="Trazado_110668" data-name="Trazado 110668" d="M667.735,1350.7H624.791V1231.711l42.944,4.127Z" transform="translate(-606.081 -1226.048)" fill="#efcbab" opacity="0.5"/>
              <path id="Trazado_110669" data-name="Trazado 110669" d="M708.054,1214.27,701.3,1217.9H628.8l-4.014-6.206v-7.211Z" transform="translate(-606.081 -1204.48)" fill="#ef7e29"/>
              <path id="Trazado_110670" data-name="Trazado 110670" d="M713.932,1214.273H630.669l-5.882-9.789H708.05Z" transform="translate(-606.078 -1204.483)" fill="#f99746"/>
            </g>
          </g>
          <g id="Grupo_70836" data-name="Grupo 70836" transform="translate(0 107.936)">
            <g id="Grupo_70835" data-name="Grupo 70835">
              <g id="Grupo_70834" data-name="Grupo 70834">
                <rect id="Rectángulo_32309" data-name="Rectángulo 32309" width="109.728" height="74.391" rx="37.195" fill="#fcecdb"/>
                <path id="Trazado_110671" data-name="Trazado 110671" d="M497.733,1501.783a10.851,10.851,0,0,1-14.031,6.462,11.1,11.1,0,0,1-6.37-14.232,10.853,10.853,0,0,1,14.031-6.462A11.1,11.1,0,0,1,497.733,1501.783Z" transform="translate(-463.998 -1477.825)" fill="#f7e0cb"/>
                <path id="Trazado_110672" data-name="Trazado 110672" d="M491.362,1487.552l-7.66,20.693a11.1,11.1,0,0,1-6.37-14.232A10.853,10.853,0,0,1,491.362,1487.552Z" transform="translate(-463.998 -1477.825)" fill="#efcbab"/>
                <path id="Trazado_110673" data-name="Trazado 110673" d="M495.982,1669.571a10.791,10.791,0,0,1-15.331,1.573,11.16,11.16,0,0,1-1.55-15.551,10.793,10.793,0,0,1,15.331-1.572A11.161,11.161,0,0,1,495.982,1669.571Z" transform="translate(-464.007 -1608.265)" fill="#f7e0cb"/>
                <path id="Trazado_110674" data-name="Trazado 110674" d="M494.432,1654.021l-13.781,17.123a11.16,11.16,0,0,1-1.55-15.551A10.793,10.793,0,0,1,494.432,1654.021Z" transform="translate(-464.007 -1608.265)" fill="#efcbab"/>
                <path id="Trazado_110675" data-name="Trazado 110675" d="M817.359,1501.783a10.851,10.851,0,0,1-14.031,6.462,11.1,11.1,0,0,1-6.37-14.232,10.853,10.853,0,0,1,14.031-6.462A11.1,11.1,0,0,1,817.359,1501.783Z" transform="translate(-717.156 -1477.825)" fill="#f7e0cb"/>
                <path id="Trazado_110676" data-name="Trazado 110676" d="M811,1487.552l-7.66,20.693a11.1,11.1,0,0,1-6.371-14.232A10.853,10.853,0,0,1,811,1487.552Z" transform="translate(-717.166 -1477.825)" fill="#efcbab"/>
                <path id="Trazado_110677" data-name="Trazado 110677" d="M815.608,1669.568a10.784,10.784,0,0,1-14.843,1.95c-.166-.117-.327-.245-.488-.378a11.158,11.158,0,0,1-1.55-15.55,10.79,10.79,0,0,1,15.331-1.572c.158.133.312.265.463.406A11.164,11.164,0,0,1,815.608,1669.568Z" transform="translate(-717.166 -1608.261)" fill="#f7e0cb"/>
                <path id="Trazado_110678" data-name="Trazado 110678" d="M814.521,1654.424l-13.756,17.094c-.166-.117-.327-.245-.488-.378a11.158,11.158,0,0,1-1.55-15.55,10.79,10.79,0,0,1,15.331-1.572C814.217,1654.151,814.37,1654.283,814.521,1654.424Z" transform="translate(-717.166 -1608.261)" fill="#efcbab"/>
                <g id="Grupo_70833" data-name="Grupo 70833" transform="translate(47.107 9.019)">
                  <path id="Trazado_110679" data-name="Trazado 110679" d="M663.145,1493.167a11.12,11.12,0,0,1-5.18,14.72,10.829,10.829,0,0,1-14.513-5.254,11.123,11.123,0,0,1,5.18-14.72A10.831,10.831,0,0,1,663.145,1493.167Z" transform="translate(-642.4 -1486.845)" fill="#f7e0cb"/>
                  <path id="Trazado_110680" data-name="Trazado 110680" d="M648.632,1491.977l9.333,19.974a10.829,10.829,0,0,1-14.513-5.254A11.123,11.123,0,0,1,648.632,1491.977Z" transform="translate(-642.4 -1490.91)" fill="#efcbab"/>
                </g>
                <path id="Trazado_110681" data-name="Trazado 110681" d="M649.247,1672.83a11.1,11.1,0,0,1-6.067-14.368,10.844,10.844,0,0,1,14.165-6.154,11.107,11.107,0,0,1,6.067,14.367A10.847,10.847,0,0,1,649.247,1672.83Z" transform="translate(-595.29 -1608.252)" fill="#f7e0cb"/>
                <path id="Trazado_110682" data-name="Trazado 110682" d="M666.395,1666.676l-20.232-8.214a10.844,10.844,0,0,1,14.165-6.154A11.106,11.106,0,0,1,666.395,1666.676Z" transform="translate(-598.273 -1608.252)" fill="#efcbab"/>
              </g>
            </g>
          </g>
        </g>
        <g id="Grupo_70838" data-name="Grupo 70838" transform="translate(0 15.464)">
          <g id="Grupo_70772" data-name="Grupo 70772" transform="translate(0 0)">
            <path id="Trazado_110555" data-name="Trazado 110555" d="M2458.042,1487.448l-35.164-.011-18.6,0a13.168,13.168,0,0,1-13.121-13.134l.041-129.934a13.159,13.159,0,0,1,13.128-13.121l16.5.006,37.269.01a13.163,13.163,0,0,1,13.121,13.131l-.038,129.934A13.169,13.169,0,0,1,2458.042,1487.448Z" transform="translate(-2389.511 -1320.019)" fill="#c0d8fb" opacity="0.5"/>
            <path id="Trazado_110556" data-name="Trazado 110556" d="M2471.588,1583.1l-.933-6.838h0l-.934-6.841a6.427,6.427,0,0,0-7.214-5.482c-.194.026-.383.064-.569.107a6.347,6.347,0,0,0,1.1-3.029,6.4,6.4,0,0,0,12.14-3.952l-1.606-6.713h0l-1.607-6.715a6.408,6.408,0,0,0-12.464,2.982l2.42,10.116a6.343,6.343,0,0,0-5.054-2.722,17.555,17.555,0,0,0-1.332-13.514l-10.642-8.8a6.4,6.4,0,0,0-8.732,9.34,6.345,6.345,0,0,0-1.708.219l-6.659,1.822h0l-6.657,1.821a6.419,6.419,0,0,0-4.529,4.669l-.7-1.674h0l-2.66-6.369a6.408,6.408,0,0,0-11.825,4.94l2.66,6.369h0l1.705,4.082a6.423,6.423,0,0,0-4.048,5.627l-.348,6.893h0l-.349,6.9a6.429,6.429,0,0,0,6.076,6.723,6.326,6.326,0,0,0,2.163-.271,6.468,6.468,0,0,0-.509,4.331,6.361,6.361,0,0,0-2.717,3.085l-2.635,6.379h0l-2.638,6.381a23.2,23.2,0,0,1,12.622,9.357,6.425,6.425,0,0,0,8.983-1.193l4.195-5.481h0l4.2-5.482a4.181,4.181,0,0,1,5.411-3.532l1.1-.758-1.522,1.989h0l-4.2,5.48a6.408,6.408,0,0,0,10.177,7.79l4.2-5.48h0l4.2-5.483c.054-.071.1-.145.149-.217a6.4,6.4,0,0,0,1.228,1.444l-1.494,1.952a6.408,6.408,0,0,0,10.177,7.79l8.392-10.963a6.387,6.387,0,0,0-2.724-9.843c.078-.008.155-.009.233-.02A6.424,6.424,0,0,0,2471.588,1583.1Zm-57.743-6.115.119-2.352a6.136,6.136,0,0,0,2.386,2.317l-2.936,2.025A6.334,6.334,0,0,0,2413.844,1576.988Zm43.18-5.833,1.254,9.2a6.423,6.423,0,0,0-6.652-3.525,6.347,6.347,0,0,0,1.745-1.562l3.6-4.706C2456.982,1570.757,2457,1570.955,2457.024,1571.155Zm-14.574-24.845,1.615,1.335-1.662,1.146A6.337,6.337,0,0,0,2442.45,1546.31Zm1.392,20.32a1.726,1.726,0,0,1,.244-3.432l5.05-3.483Zm4.191,11.99a6.453,6.453,0,0,0-4.83-1.457l.136-1.725a3.291,3.291,0,1,1,4.694,3.182Zm-12.909-24.251a6.424,6.424,0,0,0,.049,7.192c.028.04.06.076.089.116a1.408,1.408,0,1,1-1.063-2.12,6.39,6.39,0,0,0-2.449-4.246c-.006,0-.014-.008-.019-.013Zm-6.378,15.407,2.472-3.229c-.035.2-.063.4-.08.607l-.468,5.928a6.417,6.417,0,0,0-3.255-1.567l1.331-1.739Zm-11.57,27.083.726-1.755a6.355,6.355,0,0,0,.307-3.9c.146-.085.293-.171.435-.268l11.365-7.839c.073-.051.138-.107.209-.161a6.414,6.414,0,0,0,.723,1.753l-2.023,1.4a9.683,9.683,0,0,1-8.312,6.292Zm30.15-7.9.355,1.482a6.378,6.378,0,0,0-1.775-.5Zm13.535,1.5-.495-2.064h0l-.094-.393a1.625,1.625,0,1,1,.589,2.457Zm-38.814-33.012-3.477,4.542h0l-4.2,5.48c-.019.025-.034.052-.052.078l.219-4.345c.006-.111,0-.221,0-.331.2-.061.394-.13.588-.211a4.393,4.393,0,0,1,6.918-5.213Z" transform="translate(-2395.601 -1452.511)" fill="#afcdfb"/>
            <path id="Trazado_110557" data-name="Trazado 110557" d="M2422.877,1487.437l-18.6,0a13.168,13.168,0,0,1-13.121-13.134l.041-129.934a13.159,13.159,0,0,1,13.128-13.121l16.5.006a16.086,16.086,0,0,1,2.153,8.116l-.043,146.761Q2422.93,1486.79,2422.877,1487.437Z" transform="translate(-2389.511 -1320.019)" fill="#afcdfb" opacity="0.5"/>
            <path id="Trazado_110558" data-name="Trazado 110558" d="M2467.071,1315.026l-49.94-.016-28.344-.011a2.556,2.556,0,0,1-2.551-2.553l0-12.236a2.559,2.559,0,0,1,2.553-2.551l28.3.008h.006l49.975.014a2.559,2.559,0,0,1,2.551,2.553l0,12.236A2.561,2.561,0,0,1,2467.071,1315.026Z" transform="translate(-2386.235 -1297.659)" fill="#f99746"/>
            <path id="Trazado_110559" data-name="Trazado 110559" d="M2417.131,1315.01l-28.344-.011a2.556,2.556,0,0,1-2.551-2.553l0-12.236a2.559,2.559,0,0,1,2.553-2.551l28.3.008h.006a2.561,2.561,0,0,1,2.545,2.552l0,12.236A2.561,2.561,0,0,1,2417.131,1315.01Z" transform="translate(-2386.235 -1297.659)" fill="#ef7e29"/>
          </g>
        </g>
        <g id="Grupo_70839" data-name="Grupo 70839" transform="translate(6.892 120.06)">
          <g id="Grupo_70813" data-name="Grupo 70813" transform="translate(54.268 34.601)">
            <path id="Trazado_110618" data-name="Trazado 110618" d="M1331.3,1730.624a14.367,14.367,0,0,1-14.318,14.317h-67.607a14.315,14.315,0,0,1,0-28.63h67.607A14.359,14.359,0,0,1,1331.3,1730.624Z" transform="translate(-1235.064 -1716.312)" fill="#7e5ee3"/>
            <path id="Trazado_110619" data-name="Trazado 110619" d="M1296.424,1730.624a14.359,14.359,0,0,1-14.312,14.317h-32.736a14.315,14.315,0,0,1,0-28.63h32.736A14.354,14.354,0,0,1,1296.424,1730.624Z" transform="translate(-1235.064 -1716.312)" fill="#699ff0"/>
            <rect id="Rectángulo_32303" data-name="Rectángulo 32303" width="68.545" height="4.515" rx="2.257" transform="translate(16.548 3.175)" fill="#e9f3fe" opacity="0.4"/>
          </g>
          <g id="Grupo_70814" data-name="Grupo 70814">
            <path id="Trazado_110620" data-name="Trazado 110620" d="M1165.5,1621.146a15.231,15.231,0,0,1-6.77,20.37l-64.079,32.112a15.176,15.176,0,0,1-13.6-27.136l64.079-32.112A15.223,15.223,0,0,1,1165.5,1621.146Z" transform="translate(-1072.689 -1612.781)" fill="#ef7e29"/>
            <path id="Trazado_110621" data-name="Trazado 110621" d="M1132.447,1670.706a15.222,15.222,0,0,1-6.765,20.368l-31.027,15.549a15.176,15.176,0,0,1-13.6-27.136l31.027-15.549A15.218,15.218,0,0,1,1132.447,1670.706Z" transform="translate(-1072.689 -1645.776)" fill="#f99746"/>
            <path id="Trazado_110622" data-name="Trazado 110622" d="M1175.233,1628.77l-61.122,30.63a2.157,2.157,0,0,1-2.886-.959l-.217-.433a2.157,2.157,0,0,1,.959-2.887l61.121-30.63a2.158,2.158,0,0,1,2.887.959l.217.433A2.157,2.157,0,0,1,1175.233,1628.77Z" transform="translate(-1098.049 -1620.426)" fill="#ffe2cc" opacity="0.5"/>
          </g>
        </g>
        <g id="Grupo_70840" data-name="Grupo 70840" transform="translate(51.53 164.569)">
          <path id="Trazado_110640" data-name="Trazado 110640" d="M2616.727,1747.369A10.762,10.762,0,0,1,2606,1758.1H2555.35a10.725,10.725,0,0,1,0-21.449H2606A10.757,10.757,0,0,1,2616.727,1747.369Z" transform="translate(-2544.627 -1736.646)" fill="#ef7e29"/>
          <path id="Trazado_110641" data-name="Trazado 110641" d="M2590.6,1747.369a10.757,10.757,0,0,1-10.724,10.726H2555.35a10.725,10.725,0,0,1,0-21.449h24.525A10.755,10.755,0,0,1,2590.6,1747.369Z" transform="translate(-2544.627 -1736.646)" fill="#f99746"/>
          <path id="Rectángulo_32305" data-name="Rectángulo 32305" d="M1.692,0H49.662a1.692,1.692,0,0,1,1.692,1.692v0a1.691,1.691,0,0,1-1.691,1.691H1.691A1.691,1.691,0,0,1,0,1.692v0A1.692,1.692,0,0,1,1.692,0Z" transform="translate(12.398 2.378)" fill="#ffe2cc" opacity="0.5"/>
        </g>
      </g>
    </g>
  </g>
</svg>
