<svg xmlns="http://www.w3.org/2000/svg" width="400" height="182" viewBox="0 0 400 182">
  <g id="Grupo_74697" data-name="Grupo 74697" transform="translate(-179.757 -405)">
    <rect id="Rectángulo_32449" data-name="Rectángulo 32449" width="400" height="182" transform="translate(179.757 405)" fill="none"/>
    <g id="Grupo_70683" data-name="Grupo 70683" transform="translate(185.119 421.048)">
      <g id="Grupo_70722" data-name="Grupo 70722">
        <path id="Trazado_110222" data-name="Trazado 110222" d="M404.75,347.66l77.857-44.951c8.343-4.816,7.288-13.307-2.346-18.869l-42.023-24.263c-9.634-5.562-24.34-6.17-32.683-1.354L327.7,303.174c-8.344,4.816-7.288,13.309,2.346,18.871l42.023,24.262C381.7,351.868,396.406,352.476,404.75,347.66Z" transform="translate(-322.068 -205.866)" fill="#81d4fa"/>
        <path id="Trazado_110223" data-name="Trazado 110223" d="M404.75,345.539l77.857-44.951c8.343-4.816,7.288-13.307-2.346-18.869l-42.023-24.263c-9.634-5.562-24.34-6.17-32.683-1.354L327.7,301.053c-8.344,4.816-7.288,13.307,2.346,18.871l42.023,24.262C381.7,349.747,396.406,350.355,404.75,345.539Z" transform="translate(-322.068 -207.52)" fill="#00bcd4"/>
        <path id="Trazado_110224" data-name="Trazado 110224" d="M488.139,253.6V295.56L322.069,312.132V271.423Z" transform="translate(-321.973 -204.801)" fill="#00bcd4"/>
        <path id="Trazado_110225" data-name="Trazado 110225" d="M488.139,246.783v12.125L322.069,276.736v-13.31Z" transform="translate(-321.973 -208.959)" fill="#d1bdbd"/>
        <path id="Trazado_110226" data-name="Trazado 110226" d="M404.75,324.49l77.857-44.951c8.343-4.816,7.288-13.307-2.346-18.869l-42.023-24.262c-9.634-5.564-24.34-6.172-32.683-1.356L327.7,280c-8.344,4.818-7.288,13.309,2.346,18.871l42.023,24.261C381.7,328.7,396.406,329.308,404.75,324.49Z" transform="translate(-322.068 -219.026)" fill="#493231"/>
        <path id="Trazado_110227" data-name="Trazado 110227" d="M404.75,322.492l77.857-44.951c8.343-4.816,7.288-13.307-2.346-18.869l-42.023-24.263c-9.634-5.56-24.34-6.17-32.683-1.354L327.7,278.005c-8.344,4.818-7.288,13.309,2.346,18.871l42.023,24.262C381.7,326.7,396.406,327.31,404.75,322.492Z" transform="translate(-322.068 -220.584)" fill="#d1bdbd"/>
        <path id="Trazado_110228" data-name="Trazado 110228" d="M404.75,317.311l77.857-44.951c8.343-4.818,7.288-13.309-2.346-18.871l-42.023-24.262c-9.634-5.562-24.34-6.17-32.683-1.354L327.7,272.825c-8.344,4.816-7.288,13.307,2.346,18.869l42.023,24.263C381.7,321.519,396.406,322.127,404.75,317.311Z" transform="translate(-322.068 -224.624)" fill="#e8d6d6"/>
        <path id="Trazado_110229" data-name="Trazado 110229" d="M348.606,257.414c0,10.536,16.051,19.07,35.855,19.07s35.851-8.534,35.851-19.07-16.052-19.068-35.851-19.068S348.606,246.882,348.606,257.414Z" transform="translate(-301.375 -214.996)" fill="#81d4fa"/>
        <g id="Grupo_70681" data-name="Grupo 70681" transform="translate(13.706 86.079)">
          <path id="Trazado_110230" data-name="Trazado 110230" d="M394.45,309.432l-3.8,2.193V286.565l3.8-2.192Z" transform="translate(-364.053 -269.022)" fill="#e8d6d6"/>
          <path id="Trazado_110231" data-name="Trazado 110231" d="M407.407,301.949l-3.8,2.193V279.082l3.8-2.192Z" transform="translate(-400.069 -274.857)" fill="#e8d6d6"/>
          <path id="Trazado_110232" data-name="Trazado 110232" d="M396.327,279.022v20.242l19.512,11.265V290.287l3.54,2.044V317.39l-26.593-15.353V276.978Z" transform="translate(-392.78 -274.788)" fill="#d1bdbd"/>
          <path id="Trazado_110233" data-name="Trazado 110233" d="M414.295,301.768l-19.519-11.284,3.8-2.271,15.722,9.089Z" transform="translate(-391.235 -266.028)" fill="#fff"/>
          <path id="Trazado_110234" data-name="Trazado 110234" d="M390.653,285.414l3.54,2.044,3.8-2.186-3.54-2.044Z" transform="translate(-367.593 -269.915)" fill="#fff"/>
          <path id="Trazado_110235" data-name="Trazado 110235" d="M403.61,277.933l3.54,2.044,3.8-2.186-3.54-2.044Z" transform="translate(-403.61 -275.747)" fill="#fff"/>
        </g>
        <g id="Grupo_70682" data-name="Grupo 70682" transform="translate(61.242 27.821)">
          <path id="Trazado_110236" data-name="Trazado 110236" d="M390.809,265.473l6.754-3.9-34.337-19.825-6.753,3.9Z" transform="translate(-353.868 -240.246)" fill="#fff"/>
          <path id="Trazado_110237" data-name="Trazado 110237" d="M401.308,251.227l-3.377-5.849-42.922,4.956,3.377,5.849Z" transform="translate(-355.009 -237.416)" fill="#fff"/>
          <path id="Trazado_110238" data-name="Trazado 110238" d="M362.759,265.685l10.13,1.949,8.584-24.781-10.13-1.95Z" transform="translate(-348.967 -240.905)" fill="#fff"/>
        </g>
      </g>
    </g>
    <g id="Grupo_74610" data-name="Grupo 74610" transform="translate(358.134 412.021)">
      <path id="Trazado_110211" data-name="Trazado 110211" d="M345.334,338.159c.433-7.781,12.4-14.02,27.131-14.02s26.691,6.239,27.127,14.02c.007.144.041.285.041.433,0,7.981-12.165,14.451-27.168,14.451s-27.172-6.469-27.172-14.451C345.293,338.444,345.327,338.3,345.334,338.159Z" transform="translate(-345.293 -237.661)" fill="#92b4d1" opacity="0.142"/>
      <g id="Grupo_70704" data-name="Grupo 70704" transform="translate(5.76)">
        <path id="Trazado_110383" data-name="Trazado 110383" d="M389.629,304.342v57.381c0,6.027-9.181,10.91-20.509,10.91s-20.514-4.884-20.514-10.91V304.342Z" transform="translate(-348.606 -263.022)" fill="#e8d6d6"/>
        <g id="Grupo_70699" data-name="Grupo 70699" transform="translate(0 53.647)">
          <path id="Trazado_110384" data-name="Trazado 110384" d="M369.12,320.654c11.328,0,20.509-4.882,20.509-10.908V346.49c0,6.027-9.181,10.91-20.509,10.91s-20.514-4.884-20.514-10.91V309.746C348.606,315.773,357.79,320.654,369.12,320.654Z" transform="translate(-348.606 -309.746)" fill="#9165d1"/>
        </g>
        <g id="Grupo_70700" data-name="Grupo 70700" transform="translate(0 58.731)">
          <path id="Trazado_110385" data-name="Trazado 110385" d="M369.12,322.883c11.328,0,20.509-4.881,20.509-10.908V338.8c0,6.029-9.181,10.91-20.509,10.91s-20.514-4.882-20.514-10.91V311.975C348.606,318,357.79,322.883,369.12,322.883Z" transform="translate(-348.606 -311.975)" fill="#b292ef"/>
        </g>
        <g id="Grupo_70701" data-name="Grupo 70701" transform="translate(5.625 58.731)">
          <path id="Trazado_110386" data-name="Trazado 110386" d="M348.606,319.466a31.1,31.1,0,0,0,14.889,3.417C374.822,322.883,384,318,384,311.975v4.986c0,6.027-9.181,10.91-20.509,10.91a31.1,31.1,0,0,1-14.889-3.419Z" transform="translate(-348.606 -311.975)" fill="#33211f"/>
        </g>
        <path id="Trazado_110387" data-name="Trazado 110387" d="M348.606,310.468c0,6.027,9.184,10.91,20.514,10.91s20.509-4.884,20.509-10.91-9.181-10.908-20.509-10.908S348.606,304.442,348.606,310.468Z" transform="translate(-348.606 -269.149)" fill="#f4efef"/>
        <g id="Grupo_70702" data-name="Grupo 70702" transform="translate(6.033 24.846)">
          <path id="Trazado_110388" data-name="Trazado 110388" d="M373.151,297.12v18.851a17.676,17.676,0,0,1-3.029,1.182V297.442H367.6v20.281a25.816,25.816,0,0,1-3.2.333V297.442h-2.521v20.61a25.475,25.475,0,0,1-3.029-.319v-20.29h-2.523v19.724a17.785,17.785,0,0,1-3.091-1.2V297.12Z" transform="translate(-348.721 -297.12)" fill="#a179e0"/>
          <path id="Trazado_110389" data-name="Trazado 110389" d="M353.257,297.12v13.267a5.319,5.319,0,0,1-2.007,3.9V297.12Z" transform="translate(-324.299 -297.12)" fill="#a179e0"/>
          <path id="Trazado_110390" data-name="Trazado 110390" d="M363.071,310.387a4.172,4.172,0,0,1,.064-.675V297.12h1.93v17.154A5.323,5.323,0,0,1,363.071,310.387Z" transform="translate(-363.071 -297.12)" fill="#a179e0"/>
          <path id="Trazado_110391" data-name="Trazado 110391" d="M354.651,297.12v17.163a11.428,11.428,0,0,1-2.521,1.688V297.12Z" transform="translate(-327.7 -297.12)" fill="#448ce2"/>
          <path id="Trazado_110392" data-name="Trazado 110392" d="M354.651,297.12v17.163a11.428,11.428,0,0,1-2.521,1.688V297.12Z" transform="translate(-327.7 -297.12)" fill="#9165d1"/>
          <path id="Trazado_110393" data-name="Trazado 110393" d="M357.086,297.261v19.711a22.739,22.739,0,0,1-2.523.57V297.261Z" transform="translate(-335.685 -296.939)" fill="#448ce2"/>
          <path id="Trazado_110394" data-name="Trazado 110394" d="M357.086,297.261v19.711a22.739,22.739,0,0,1-2.523.57V297.261Z" transform="translate(-335.685 -296.939)" fill="#9165d1"/>
          <path id="Trazado_110395" data-name="Trazado 110395" d="M359.593,297.261v20.614c-.395.018-.794.032-1.2.032-.447,0-.887-.014-1.323-.037v-20.61Z" transform="translate(-343.915 -296.939)" fill="#448ce2"/>
          <path id="Trazado_110396" data-name="Trazado 110396" d="M359.593,297.261v20.614c-.395.018-.794.032-1.2.032-.447,0-.887-.014-1.323-.037v-20.61Z" transform="translate(-343.915 -296.939)" fill="#9165d1"/>
          <path id="Trazado_110397" data-name="Trazado 110397" d="M362.028,297.261v20.29a22.721,22.721,0,0,1-2.523-.566V297.261Z" transform="translate(-351.9 -296.939)" fill="#448ce2"/>
          <path id="Trazado_110398" data-name="Trazado 110398" d="M362.028,297.261v20.29a22.721,22.721,0,0,1-2.523-.566V297.261Z" transform="translate(-351.9 -296.939)" fill="#9165d1"/>
          <path id="Trazado_110399" data-name="Trazado 110399" d="M364.487,297.12v18.846a11.462,11.462,0,0,1-2.521-1.692V297.12Z" transform="translate(-359.972 -297.12)" fill="#448ce2"/>
          <path id="Trazado_110400" data-name="Trazado 110400" d="M364.487,297.12v18.846a11.462,11.462,0,0,1-2.521-1.692V297.12Z" transform="translate(-359.972 -297.12)" fill="#9165d1"/>
        </g>
        <g id="Grupo_70703" data-name="Grupo 70703" transform="translate(6.033)">
          <path id="Trazado_110401" data-name="Trazado 110401" d="M351.25,301.445c0,4.254,6.481,7.7,14.48,7.7s14.478-3.447,14.478-7.7-6.483-7.7-14.478-7.7S351.25,297.191,351.25,301.445Z" transform="translate(-351.25 -276.599)" fill="#b292ef"/>
          <path id="Trazado_110402" data-name="Trazado 110402" d="M352.974,307.469h-.032l4.181-19.695h13.255l4.172,19.658h-.03a3.228,3.228,0,0,1,.183.972c0,3.219-4.9,5.826-10.954,5.826S352.8,311.623,352.8,308.4A3.218,3.218,0,0,1,352.974,307.469Z" transform="translate(-349.272 -284.247)" fill="#9165d1"/>
          <path id="Trazado_110403" data-name="Trazado 110403" d="M354.692,289.755c0,1.946,2.965,3.524,6.627,3.524s6.629-1.578,6.629-3.524-2.968-3.527-6.629-3.527S354.692,287.807,354.692,289.755Z" transform="translate(-346.84 -286.228)" fill="#b292ef"/>
          <path id="Trazado_110404" data-name="Trazado 110404" d="M355.923,288.622c0,1.122,1.711,2.033,3.821,2.033s3.821-.91,3.821-2.033-1.711-2.032-3.821-2.032S355.923,287.5,355.923,288.622Z" transform="translate(-345.266 -285.764)" fill="#a179e0"/>
        </g>
      </g>
    </g>
    <g id="Grupo_74608" data-name="Grupo 74608" transform="translate(446.293 533.334)">
      <path id="Trazado_110212" data-name="Trazado 110212" d="M324.083,328.718c.284-5.119,8.155-9.223,17.848-9.223s17.561,4.1,17.846,9.223c.007.1.028.188.028.284,0,5.252-8,9.507-17.873,9.507s-17.875-4.255-17.875-9.507C324.055,328.906,324.076,328.814,324.083,328.718Z" transform="translate(-313.894 -293.33)" fill="#92b4d1" opacity="0.229"/>
      <path id="Trazado_110213" data-name="Trazado 110213" d="M304.953,325.97c.287-5.119,8.157-9.223,17.848-9.223s17.561,4.1,17.848,9.223c0,.094.028.188.028.284,0,5.252-8,9.507-17.876,9.507s-17.876-4.255-17.876-9.507C304.925,326.158,304.948,326.064,304.953,325.97Z" transform="translate(-250.908 -296.882)" fill="#92b4d1" opacity="0.229"/>
      <path id="Trazado_110214" data-name="Trazado 110214" d="M328.494,320.727c.287-5.126,8.166-9.235,17.871-9.235s17.582,4.108,17.869,9.235c0,.1.027.188.027.284,0,5.259-8.013,9.519-17.9,9.519s-17.9-4.26-17.9-9.519C328.467,320.915,328.49,320.823,328.494,320.727Z" transform="translate(-328.467 -303.674)" fill="#92b4d1" opacity="0.229"/>
      <g id="Grupo_70711" data-name="Grupo 70711" transform="translate(3.205)">
        <g id="Grupo_70706" data-name="Grupo 70706" transform="translate(53.915 11.447)">
          <path id="Trazado_110405" data-name="Trazado 110405" d="M306.284,324.369v-7.795h29.538v7.857a4.265,4.265,0,0,1-.044.449c-.44,4.129-6.855,7.407-14.728,7.407-8.157,0-14.771-3.517-14.771-7.857C306.279,324.41,306.284,324.389,306.284,324.369Z" transform="translate(-306.279 -308.552)" fill="#9165d1"/>
          <g id="Grupo_70705" data-name="Grupo 70705">
            <path id="Trazado_110406" data-name="Trazado 110406" d="M321.05,313.075c8.157,0,14.771,3.515,14.771,7.854a4.151,4.151,0,0,1-.044.449c-.44,4.129-6.855,7.407-14.728,7.407-8.157,0-14.771-3.517-14.771-7.857S312.893,313.075,321.05,313.075Z" transform="translate(-306.279 -313.075)" fill="#b292ef"/>
          </g>
          <path id="Trazado_110407" data-name="Trazado 110407" d="M310.171,326.339l19.92-11.5s-.685-.39-1.116-.6c-.468-.227-1.165-.5-1.165-.5L307.922,325.22s.628.371,1.013.564C309.442,326.034,310.171,326.339,310.171,326.339Z" transform="translate(-304.316 -312.221)" fill="#9165d1"/>
        </g>
        <g id="Grupo_70708" data-name="Grupo 70708" transform="translate(0)">
          <path id="Trazado_110408" data-name="Trazado 110408" d="M329.8,319.376v-7.795h29.536v7.857a4.206,4.206,0,0,1-.041.449c-.442,4.129-6.857,7.407-14.728,7.407-8.159,0-14.774-3.517-14.774-7.857C329.8,319.417,329.8,319.4,329.8,319.376Z" transform="translate(-329.796 -303.559)" fill="#9165d1"/>
          <g id="Grupo_70707" data-name="Grupo 70707">
            <path id="Trazado_110409" data-name="Trazado 110409" d="M344.57,308.082c8.157,0,14.769,3.517,14.769,7.857a4.2,4.2,0,0,1-.041.449c-.442,4.129-6.857,7.407-14.728,7.407-8.159,0-14.774-3.517-14.774-7.857S336.41,308.082,344.57,308.082Z" transform="translate(-329.796 -308.082)" fill="#b292ef"/>
          </g>
          <path id="Trazado_110410" data-name="Trazado 110410" d="M333.686,321.346l19.921-11.5s-.683-.39-1.114-.6c-.468-.227-1.167-.5-1.167-.5l-19.886,11.481s.626.374,1.013.564C332.957,321.042,333.686,321.346,333.686,321.346Z" transform="translate(-327.83 -307.226)" fill="#9165d1"/>
        </g>
        <g id="Grupo_70710" data-name="Grupo 70710" transform="translate(10.058 18.348)">
          <path id="Trazado_110411" data-name="Trazado 110411" d="M325.416,327.378v-7.793h29.536v7.854a4.141,4.141,0,0,1-.041.449c-.44,4.129-6.857,7.407-14.728,7.407-8.159,0-14.774-3.517-14.774-7.857C325.409,327.419,325.416,327.4,325.416,327.378Z" transform="translate(-325.409 -311.561)" fill="#9165d1"/>
          <g id="Grupo_70709" data-name="Grupo 70709">
            <path id="Trazado_110412" data-name="Trazado 110412" d="M340.183,316.085c8.157,0,14.769,3.517,14.769,7.857a4.194,4.194,0,0,1-.041.449c-.44,4.129-6.857,7.407-14.728,7.407-8.159,0-14.774-3.517-14.774-7.857S332.023,316.085,340.183,316.085Z" transform="translate(-325.409 -316.085)" fill="#b292ef"/>
          </g>
          <path id="Trazado_110413" data-name="Trazado 110413" d="M329.3,329.349l19.918-11.5s-.683-.39-1.114-.6c-.468-.227-1.167-.5-1.167-.5l-19.886,11.481s.626.374,1.013.566C328.57,329.045,329.3,329.349,329.3,329.349Z" transform="translate(-323.443 -315.229)" fill="#9165d1"/>
        </g>
      </g>
    </g>
    <g id="Grupo_74609" data-name="Grupo 74609" transform="translate(408.903 483.617)">
      <path id="Trazado_110215" data-name="Trazado 110215" d="M305.459,254.069l34.179-19.736a15.765,15.765,0,0,1,6.334-1.876l-28.483-16.445c-4.139-2.391-4.595-6.039-1.009-8.109h0c3.586-2.071,9.906-1.808,14.045.581L364.7,228.217c4.139,2.391,4.595,6.041,1.009,8.109-2.46,1.421-6.2,1.718-9.652,1.007-.027,1.579-1.149,3.235-3.386,4.528l-34.179,19.733c-4.139,2.389-10.459,2.652-14.045.581S301.319,256.458,305.459,254.069Z" transform="translate(-302.032 -198.139)" fill="#92b4d1" opacity="0.174"/>
      <g id="Grupo_70714" data-name="Grupo 70714" transform="translate(1.404)">
        <g id="Grupo_70712" data-name="Grupo 70712" transform="translate(13.122)">
          <path id="Trazado_110414" data-name="Trazado 110414" d="M313.685,206.867a8.072,8.072,0,0,1,10.995-2.945l15.292,8.826-.08.053s-4.37,9.144-6.89,14.514l-16.37-9.453A8.074,8.074,0,0,1,313.685,206.867Z" transform="translate(-312.614 -202.849)" fill="#00bcd4"/>
          <path id="Trazado_110415" data-name="Trazado 110415" d="M302.8,217.748c.082-3.819,2.4-8.308,5.187-10.025,1.348-.833,2.457-1.009,3.336-.38L329.946,218.1a8.048,8.048,0,1,1-8.047,13.94s-17.052-9.837-17.493-10.1C303.294,221.37,302.754,219.92,302.8,217.748Z" transform="translate(-284.143 -197.546)" fill="#9165d1"/>
        </g>
        <g id="Grupo_70713" data-name="Grupo 70713" transform="translate(0 26.739)">
          <path id="Trazado_110416" data-name="Trazado 110416" d="M334.816,218.554a8.073,8.073,0,0,0-10.995-2.947l-15.29,8.828.078.053s4.373,9.144,6.89,14.512l16.37-9.45A8.073,8.073,0,0,0,334.816,218.554Z" transform="translate(-286.066 -214.535)" fill="#00bcd4"/>
          <path id="Trazado_110417" data-name="Trazado 110417" d="M347.848,229.434c-.082-3.821-2.4-8.308-5.187-10.025-1.348-.833-2.457-1.009-3.336-.382L320.7,229.78a8.049,8.049,0,0,0,8.05,13.942s17.049-9.837,17.491-10.1C347.354,233.057,347.9,231.6,347.848,229.434Z" transform="translate(-316.684 -209.231)" fill="#9165d1"/>
        </g>
      </g>
    </g>
    <g id="Grupo_74607" data-name="Grupo 74607" transform="translate(506.061 421.048)">
      <path id="Trazado_110210" data-name="Trazado 110210" d="M324.578,207.359c.418-7.482,11.923-13.48,26.089-13.48s25.667,6,26.085,13.48c.006.138.039.276.039.416,0,7.675-11.7,13.9-26.123,13.9s-26.127-6.221-26.127-13.9C324.539,207.635,324.572,207.5,324.578,207.359Z" transform="translate(-324.539 -116.47)" fill="#92b4d1" opacity="0.156"/>
      <g id="Grupo_70720" data-name="Grupo 70720" transform="translate(4.688)">
        <g id="Grupo_70715" data-name="Grupo 70715" transform="translate(2.344 33.443)">
          <path id="Trazado_110418" data-name="Trazado 110418" d="M347.1,187.4c10.571,0,19.142-4.558,19.142-10.183V221.5c0,5.625-8.571,10.181-19.142,10.181s-19.146-4.556-19.146-10.181V177.218C327.957,182.843,336.528,187.4,347.1,187.4Z" transform="translate(-327.957 -167.037)" fill="#d1bdbd"/>
          <path id="Trazado_110419" data-name="Trazado 110419" d="M347.1,172.2c10.571,0,19.142,4.558,19.142,10.181s-8.571,10.183-19.142,10.183S327.957,188,327.957,182.378,336.528,172.2,347.1,172.2Z" transform="translate(-327.957 -172.197)" fill="#f4e6e6"/>
        </g>
        <path id="Trazado_110420" data-name="Trazado 110420" d="M348.29,184.011c11.838,0,21.435-5.1,21.435-11.4v54.732c0,6.3-9.6,11.4-21.435,11.4s-21.439-5.1-21.439-11.4V172.609C326.851,178.907,336.448,184.011,348.29,184.011Z" transform="translate(-326.851 -138.33)" fill="#e8d6d6" opacity="0.7"/>
        <path id="Trazado_110421" data-name="Trazado 110421" d="M326.883,178.047c.343-6.14,9.782-11.061,21.407-11.061s21.06,4.921,21.4,11.061c.006.114.032.225.032.341,0,6.3-9.6,11.4-21.435,11.4s-21.439-5.1-21.439-11.4C326.851,178.272,326.877,178.161,326.883,178.047Z" transform="translate(-326.851 -144.109)" fill="#e8d6d6" opacity="0.5"/>
        <path id="Trazado_110422" data-name="Trazado 110422" d="M330.669,171.335c.219-3.934,6.268-7.087,13.713-7.087s13.495,3.153,13.714,7.087c0,.073.022.144.022.219,0,4.035-6.15,7.3-13.736,7.3s-13.734-3.269-13.734-7.3C330.649,171.479,330.665,171.408,330.669,171.335Z" transform="translate(-322.946 -146.923)" fill="#e8d6d6" opacity="0.7"/>
        <g id="Grupo_70716" data-name="Grupo 70716" transform="translate(0 51.271)">
          <path id="Trazado_110423" data-name="Trazado 110423" d="M348.29,192.391c11.838,0,21.435-5.1,21.435-11.4v19.983c0,6.3-9.6,11.4-21.435,11.4s-21.439-5.1-21.439-11.4V180.989C326.851,187.287,336.448,192.391,348.29,192.391Z" transform="translate(-326.851 -180.989)" fill="#7e5ee3"/>
        </g>
        <g id="Grupo_70717" data-name="Grupo 70717" transform="translate(2.427 10.619)">
          <path id="Trazado_110424" data-name="Trazado 110424" d="M344.395,170.5c0-.1.022-.2.028-.3v-9.214h4.844v16.256C346.248,175.451,344.395,173.093,344.395,170.5Z" transform="translate(-344.395 -160.896)" fill="#bca4a4"/>
          <path id="Trazado_110425" data-name="Trazado 110425" d="M348.019,161.03c.2-.039.42-.055.625-.089V180.18a24.617,24.617,0,0,1-8.383-2.894V161.03Z" transform="translate(-335.388 -160.941)" fill="#af9797"/>
        </g>
        <g id="Grupo_70718" data-name="Grupo 70718" transform="translate(15.682 10.11)">
          <path id="Trazado_110426" data-name="Trazado 110426" d="M333.468,160.985v16.708a21.276,21.276,0,0,1-2.628,1.152v-17.86Z" transform="translate(-314.365 -160.387)" fill="#bca4a4"/>
          <path id="Trazado_110427" data-name="Trazado 110427" d="M330.53,160.985V170.2c.006.1.028.2.028.3a6.925,6.925,0,0,1-2.51,5.009V160.985Z" transform="translate(-305.794 -160.387)" fill="#bca4a4"/>
          <path id="Trazado_110428" data-name="Trazado 110428" d="M341.525,160.69c1.146,0,2.265.061,3.354.166v19.89c-1.091.1-2.208.166-3.354.166a34.714,34.714,0,0,1-5.757-.474V161.2A33.949,33.949,0,0,1,341.525,160.69Z" transform="translate(-335.768 -160.69)" fill="#bca4a4"/>
          <path id="Trazado_110429" data-name="Trazado 110429" d="M332.437,160.985v14.523a14.564,14.564,0,0,1-3.151,2.186V160.985Z" transform="translate(-310.183 -160.387)" fill="#bca4a4"/>
          <path id="Trazado_110430" data-name="Trazado 110430" d="M332.437,160.985v14.523a14.564,14.564,0,0,1-3.151,2.186V160.985Z" transform="translate(-310.183 -160.387)" fill="#fff" opacity="0.3"/>
          <path id="Trazado_110431" data-name="Trazado 110431" d="M335.161,161.2H339.5v17.86a29.95,29.95,0,0,1-7.365,1.6v-19.89C333.174,160.873,334.186,161.017,335.161,161.2Z" transform="translate(-323.025 -160.606)" fill="#bca4a4"/>
          <path id="Trazado_110432" data-name="Trazado 110432" d="M335.161,161.2H339.5v17.86a29.95,29.95,0,0,1-7.365,1.6v-19.89C333.174,160.873,334.186,161.017,335.161,161.2Z" transform="translate(-323.025 -160.606)" fill="#fff" opacity="0.3"/>
        </g>
        <path id="Trazado_110433" data-name="Trazado 110433" d="M328.078,165.512c.3-5.444,8.673-9.808,18.982-9.808s18.675,4.364,18.979,9.808c0,.1.028.2.028.3,0,5.586-8.51,10.112-19.008,10.112s-19.012-4.526-19.012-10.112C328.048,165.713,328.072,165.613,328.078,165.512Z" transform="translate(-325.621 -155.704)" fill="#f4e6e6"/>
        <g id="Grupo_70719" data-name="Grupo 70719" transform="translate(11.933 4.396)">
          <path id="Trazado_110434" data-name="Trazado 110434" d="M342.29,159.129c-4.966,0-9,2.032-9.421,4.613a2.787,2.787,0,0,1-.134-.815c0-.051.01-.1.014-.152.152-2.721,4.337-4.9,9.49-4.9s9.34,2.182,9.49,4.9c0,.051.016.1.016.152a2.821,2.821,0,0,1-.081.625C351.074,161.062,347.13,159.129,342.29,159.129Z" transform="translate(-332.735 -157.872)" fill="#af9797"/>
          <path id="Trazado_110435" data-name="Trazado 110435" d="M342.145,167.345c-4.725,0-8.634-1.835-9.37-4.24.426-2.581,4.455-4.613,9.421-4.613,4.84,0,8.784,1.932,9.374,4.422C350.99,165.411,347,167.345,342.145,167.345Z" transform="translate(-332.641 -157.235)" fill="#d1bdbd"/>
        </g>
      </g>
    </g>
  </g>
</svg>
