<svg xmlns="http://www.w3.org/2000/svg" width="155" height="155" viewBox="0 0 155 155">
  <g id="Grupo_75141" data-name="Grupo 75141" transform="translate(-4776 12937)">
    <path id="Trazado_146293" data-name="Trazado 146293" d="M29.321,19V4.781H33.9a6.737,6.737,0,0,1,3.389.854,6.006,6.006,0,0,1,2.349,2.412,7.283,7.283,0,0,1,.854,3.491v.654a7.325,7.325,0,0,1-.825,3.5,6.032,6.032,0,0,1-2.324,2.422A6.589,6.589,0,0,1,34,19ZM32.749,7.428v8.936H33.94a2.666,2.666,0,0,0,2.266-1.05A5.145,5.145,0,0,0,37,12.193v-.615a5.1,5.1,0,0,0-.791-3.105,2.713,2.713,0,0,0-2.3-1.045ZM45.571,19h-3.3V8.434h3.3Zm-3.5-13.3a1.482,1.482,0,0,1,.508-1.159,2.149,2.149,0,0,1,2.637,0A1.482,1.482,0,0,1,45.728,5.7a1.482,1.482,0,0,1-.508,1.159,2.149,2.149,0,0,1-2.637,0A1.482,1.482,0,0,1,42.075,5.7ZM53.55,19a3.716,3.716,0,0,1-.312-.947A3.06,3.06,0,0,1,50.7,19.2a3.749,3.749,0,0,1-2.539-.9,2.875,2.875,0,0,1-1.045-2.271,2.955,2.955,0,0,1,1.27-2.6,6.468,6.468,0,0,1,3.691-.879h1.016v-.559q0-1.462-1.26-1.462a1.03,1.03,0,0,0-1.172,1.158H47.368a2.95,2.95,0,0,1,1.3-2.487A5.479,5.479,0,0,1,52,8.238a4.8,4.8,0,0,1,3.193.986,3.429,3.429,0,0,1,1.2,2.705v4.678a4.79,4.79,0,0,0,.449,2.227V19Zm-2.061-2.148a1.836,1.836,0,0,0,1.021-.264,1.653,1.653,0,0,0,.581-.6V14.3h-.957q-1.719,0-1.719,1.543a.942.942,0,0,0,.3.728A1.1,1.1,0,0,0,51.489,16.852ZM52.31,4h3.477L53.071,7.066l-2.686,0Zm9.375,15h-3.3V4h3.3ZM63.3,13.619a6.236,6.236,0,0,1,.615-2.817,4.4,4.4,0,0,1,1.768-1.9,5.323,5.323,0,0,1,2.705-.664,4.858,4.858,0,0,1,3.74,1.47,5.64,5.64,0,0,1,1.367,4v.117a5.472,5.472,0,0,1-1.372,3.921A4.871,4.871,0,0,1,68.4,19.2a4.927,4.927,0,0,1-3.623-1.353,5.29,5.29,0,0,1-1.475-3.667Zm3.291.205a3.932,3.932,0,0,0,.459,2.148,1.529,1.529,0,0,0,1.357.684q1.758,0,1.8-2.705v-.332q0-2.842-1.816-2.842-1.65,0-1.787,2.451Zm7.969-.186a7.134,7.134,0,0,1,.527-2.832,4.245,4.245,0,0,1,1.514-1.9,3.99,3.99,0,0,1,2.295-.669A3.173,3.173,0,0,1,81.47,9.352l.117-.918h2.988V18.6a4.455,4.455,0,0,1-.649,2.427,4.167,4.167,0,0,1-1.88,1.582,6.91,6.91,0,0,1-2.852.552,5.961,5.961,0,0,1-2.251-.439,4.063,4.063,0,0,1-1.665-1.143l1.377-1.934a3.018,3.018,0,0,0,2.422,1.084,1.96,1.96,0,0,0,2.188-2.246V18.15A3.09,3.09,0,0,1,78.872,19.2a3.819,3.819,0,0,1-3.125-1.479,6.13,6.13,0,0,1-1.191-3.96Zm3.3.205a3.759,3.759,0,0,0,.488,2.056,1.541,1.541,0,0,0,1.367.757,1.748,1.748,0,0,0,1.553-.713V11.5a1.7,1.7,0,0,0-1.533-.723,1.551,1.551,0,0,0-1.377.786A4.287,4.287,0,0,0,77.856,13.844Zm8.174-.225a6.236,6.236,0,0,1,.615-2.817,4.4,4.4,0,0,1,1.768-1.9,5.323,5.323,0,0,1,2.705-.664,4.858,4.858,0,0,1,3.74,1.47,5.64,5.64,0,0,1,1.367,4v.117a5.472,5.472,0,0,1-1.372,3.921,4.871,4.871,0,0,1-3.716,1.45,4.927,4.927,0,0,1-3.623-1.353,5.29,5.29,0,0,1-1.475-3.667Zm3.291.205a3.932,3.932,0,0,0,.459,2.148,1.529,1.529,0,0,0,1.357.684q1.758,0,1.8-2.705v-.332q0-2.842-1.816-2.842-1.65,0-1.787,2.451Z" transform="translate(4791 -12821)" fill="#12263f"/>
    <g id="Grupo_75135" data-name="Grupo 75135">
      <rect id="Rectángulo_32804" data-name="Rectángulo 32804" width="155" height="155" transform="translate(4776 -12937)" fill="none"/>
      <path id="Trazado_146292" data-name="Trazado 146292" d="M42.5,0A42.5,42.5,0,1,1,0,42.5,42.5,42.5,0,0,1,42.5,0Z" transform="translate(4811 -12922)" fill="#7e5ee3"/>
      <g id="Grupo_74993" data-name="Grupo 74993" transform="translate(4390.508 -13737.671)">
        <path id="Trazado_130843" data-name="Trazado 130843" d="M492.218,845.028a12.216,12.216,0,0,0-12.188-10.486c-9.938-.017-19.873-.035-29.81.009a11.964,11.964,0,0,0-10.458,5.812,15.033,15.033,0,0,0-1.793,9.405,1.383,1.383,0,0,0,1.415,1.348c.042,0,.084,0,.125-.009A1.438,1.438,0,0,0,441,849.727V849.7c.068-.783.022-1.575.024-2.363a9.151,9.151,0,0,1,8.555-9.711,9.012,9.012,0,0,1,1.157,0h28.782a9.186,9.186,0,0,1,9.758,9.683q.019,5.859,0,11.719a9.164,9.164,0,0,1-8.581,9.712,9.317,9.317,0,0,1-1.147,0c-5.379,0-10.76.018-16.139,0a5.317,5.317,0,0,0-4.71,2.4c-1.307,1.882-2.685,3.717-4.035,5.571-.934,1.279-1.868,2.557-2.815,3.856-.09-.112-.123-.134-.123-.158q-.014-3.341-.021-6.68a4.869,4.869,0,0,0-3.991-5.306,8.927,8.927,0,0,1-6.537-7.186,23.738,23.738,0,0,1-.149-4.109c-.036-1.195-.6-1.868-1.58-1.853-.943.013-1.494.665-1.507,1.806q-.015,1.337,0,2.672a12.112,12.112,0,0,0,8.894,11.605c1.47.424,1.782.844,1.783,2.428,0,2.845.013,5.688,0,8.531a2.536,2.536,0,0,0,4.749,1.424c2.585-3.537,5.183-7.065,7.715-10.645a2.828,2.828,0,0,1,2.586-1.294q8.172.053,16.343,0a12.183,12.183,0,0,0,12.071-9.641c.087-.374-.025-.828.351-1.121V845.435C492.2,845.379,492.252,845.189,492.218,845.028Z" fill="#fff"/>
        <path id="Trazado_130845" data-name="Trazado 130845" d="M484.215,861.421a6.079,6.079,0,0,0-1.025-.039h-29.3a8.552,8.552,0,0,0-1.027.027,1.386,1.386,0,0,0-1.307,1.358,1.437,1.437,0,0,0,1.032,1.584,3.42,3.42,0,0,0,1.22.116h29.4a3.072,3.072,0,0,0,1.307-.158,1.434,1.434,0,0,0,.9-1.569A1.373,1.373,0,0,0,484.215,861.421Z" transform="translate(-2.396 -4.693)" fill="#fff"/>
        <path id="Trazado_130846" data-name="Trazado 130846" d="M483.433,847.226H456.641c-1.2,0-2.4-.024-3.593.015a1.5,1.5,0,0,0-1.513,1.475v.019A1.568,1.568,0,0,0,453,850.3a5.256,5.256,0,0,0,.614.011h29.772c1.362,0,2.079-.56,2.064-1.578C485.428,847.742,484.75,847.226,483.433,847.226Z" transform="translate(-2.395 -2.219)" fill="#fff"/>
      </g>
    </g>
  </g>
</svg>
