<svg xmlns="http://www.w3.org/2000/svg" width="505" height="527" viewBox="0 0 505 527">
  <g id="Grupo_74936" data-name="Grupo 74936" transform="translate(-915.243 -1364.136)">
    <rect id="Rectángulo_32526" data-name="Rectángulo 32526" width="505" height="527" transform="translate(915.243 1364.136)" fill="none"/>
    <g id="freepik--background-complete--inject-8" transform="translate(938.428 1427.565)">
      <g id="Grupo_74934" data-name="Grupo 74934" transform="translate(-870.471 -48.212)">
        <path id="Trazado_145134" data-name="Trazado 145134" d="M640.046,146.762c-6.323,15.808-16.421,41.361-21.072,53.1a6.752,6.752,0,0,0,3.791,8.748l43.187,17.2a6.737,6.737,0,0,0,8.755-3.757l.008-.018,20.949-52.672a14.979,14.979,0,0,0-8.355-19.466l-.025-.009h0l3.069-7.674L662.085,131l-2.916,7.275h-.107A14.98,14.98,0,0,0,640.046,146.762Z" transform="translate(259.132 1.604)" fill="#f5f5f5"/>
        <path id="Trazado_145135" data-name="Trazado 145135" d="M647.137,131.61l-1.4,3.515L673.611,147.4l1.811-4.527Z" transform="translate(273.697 1.93)" fill="#e0e0e0"/>
        <path id="Trazado_145136" data-name="Trazado 145136" d="M653.469,124.343l26.362,10.5a4.6,4.6,0,0,1,2.574,5.981l-2.795,7.015a2.963,2.963,0,0,1-3.848,1.656l-29.4-11.711a2.963,2.963,0,0,1-1.656-3.848l2.795-7.015a4.6,4.6,0,0,1,5.981-2.574Z" transform="translate(273.032 -2.13)" fill="#ebebeb"/>
        <path id="Trazado_145137" data-name="Trazado 145137" d="M646.84,138.3a36.2,36.2,0,0,1,2.409-7.121,36.839,36.839,0,0,1,3.161-6.845A36.613,36.613,0,0,1,650,131.5,34.182,34.182,0,0,1,646.84,138.3Z" transform="translate(274.285 -1.963)" fill="#e0e0e0"/>
        <path id="Trazado_145138" data-name="Trazado 145138" d="M649.27,139.266a36.576,36.576,0,0,1,2.409-7.136,34.252,34.252,0,0,1,3.162-6.83,36.585,36.585,0,0,1-2.41,7.136A34.265,34.265,0,0,1,649.27,139.266Z" transform="translate(275.584 -1.444)" fill="#e0e0e0"/>
        <path id="Trazado_145139" data-name="Trazado 145139" d="M651.7,140.241a36.133,36.133,0,0,1,2.409-7.136,34.59,34.59,0,0,1,3.162-6.845,35.912,35.912,0,0,1-2.41,7.136A36.846,36.846,0,0,1,651.7,140.241Z" transform="translate(276.883 -0.932)" fill="#e0e0e0"/>
        <path id="Trazado_145140" data-name="Trazado 145140" d="M654.13,141.211a34.739,34.739,0,0,1,2.41-7.136,34.6,34.6,0,0,1,3.161-6.845,36.06,36.06,0,0,1-2.425,7.136A36.829,36.829,0,0,1,654.13,141.211Z" transform="translate(278.183 -0.413)" fill="#e0e0e0"/>
        <path id="Trazado_145141" data-name="Trazado 145141" d="M656.56,142.166a35.278,35.278,0,0,1,2.41-7.136,35.794,35.794,0,0,1,3.069-6.83,35.27,35.27,0,0,1-2.41,7.136A35.8,35.8,0,0,1,656.56,142.166Z" transform="translate(279.482 0.106)" fill="#e0e0e0"/>
        <path id="Trazado_145142" data-name="Trazado 145142" d="M659,143.141A36.051,36.051,0,0,1,661.425,136a36.823,36.823,0,0,1,3.146-6.845,34.746,34.746,0,0,1-2.41,7.136A34.6,34.6,0,0,1,659,143.141Z" transform="translate(280.787 0.619)" fill="#e0e0e0"/>
        <path id="Trazado_145143" data-name="Trazado 145143" d="M661.41,144.111a35.919,35.919,0,0,1,2.41-7.137,36.856,36.856,0,0,1,3.162-6.845,36.149,36.149,0,0,1-2.41,7.136A34.585,34.585,0,0,1,661.41,144.111Z" transform="translate(282.076 1.138)" fill="#e0e0e0"/>
        <path id="Trazado_145144" data-name="Trazado 145144" d="M663.84,145.066a36.209,36.209,0,0,1,2.409-7.121,34.6,34.6,0,0,1,3.161-6.845A36.593,36.593,0,0,1,667,138.236,35.357,35.357,0,0,1,663.84,145.066Z" transform="translate(283.375 1.657)" fill="#e0e0e0"/>
        <path id="Trazado_145145" data-name="Trazado 145145" d="M666.373,187.493a4.383,4.383,0,0,1,.154-.46l.46-1.258,1.8-4.742c1.535-4.1,3.837-9.884,6.569-16.882l.169.414-35.544-14.073c-.107,0,.982-.414.522-.215h0v.092l-.077.2-.154.384-.307.767-.614,1.535c-.414,1.013-.814,2.026-1.213,3.069-.8,2.01-1.535,3.99-2.379,5.939l-4.481,11.188-.2-.476,25.415,10.313,7.305,3.069,1.964.829a7.055,7.055,0,0,1,.69.322l-.644-.215-1.918-.721-7.305-2.793L630.8,173.7l-.338-.123.138-.353c1.412-3.561,2.885-7.305,4.435-11.2.767-1.949,1.535-3.929,2.363-5.939.4-1.013.8-2.026,1.213-3.069l.6-1.535.322-.767.153-.384.077-.2v-.092h0l.537-.23,35.5,14.119.292.123-.123.292c-2.885,7.06-5.264,12.861-6.937,16.989l-1.934,4.6-.506,1.182C666.465,187.385,666.393,187.513,666.373,187.493Z" transform="translate(265.526 11.656)" fill="#e0e0e0"/>
        <path id="Trazado_145146" data-name="Trazado 145146" d="M662.793,166.027a107.547,107.547,0,0,1-12.278-4.435,105.956,105.956,0,0,1-11.925-5.172,104.666,104.666,0,0,1,12.278,4.435A106.649,106.649,0,0,1,662.793,166.027Z" transform="translate(269.873 15.196)" fill="#e0e0e0"/>
        <path id="Trazado_145147" data-name="Trazado 145147" d="M661.733,168.7a103.654,103.654,0,0,1-12.278-4.435,109.065,109.065,0,0,1-11.925-5.172,105.9,105.9,0,0,1,12.278,4.435A107.76,107.76,0,0,1,661.733,168.7Z" transform="translate(269.306 16.624)" fill="#e0e0e0"/>
        <path id="Trazado_145148" data-name="Trazado 145148" d="M660.713,171.267a102.565,102.565,0,0,1-12.278-4.435,107.74,107.74,0,0,1-11.925-5.172,103.642,103.642,0,0,1,12.278,4.435A109.06,109.06,0,0,1,660.713,171.267Z" transform="translate(268.761 17.998)" fill="#e0e0e0"/>
        <path id="Trazado_145149" data-name="Trazado 145149" d="M671.506,146.422a124.928,124.928,0,0,1-13.306-4.865,127.879,127.879,0,0,1-13.03-5.617,121.43,121.43,0,0,1,13.321,4.865A126.135,126.135,0,0,1,671.506,146.422Z" transform="translate(273.392 4.245)" fill="#e0e0e0"/>
        <path id="Trazado_145150" data-name="Trazado 145150" d="M621.12,194.273a17.712,17.712,0,0,1,.859-2.548c.66-1.734,1.535-4.036,2.609-6.829,2.225-5.755,5.356-13.674,8.871-22.407,1.765-4.359,3.438-8.518,4.988-12.278a26.391,26.391,0,0,1,5.6-9.331,11.772,11.772,0,0,1,6.523-3.33,8.808,8.808,0,0,1,2.01,0,2.625,2.625,0,0,1,.675.169,17.652,17.652,0,0,0-2.64.153,11.96,11.96,0,0,0-6.139,3.422,26.438,26.438,0,0,0-5.325,9.208c-1.535,3.806-3.177,7.965-4.927,12.278-3.5,8.733-6.722,16.636-9.085,22.33l-2.839,6.722A15.815,15.815,0,0,1,621.12,194.273Z" transform="translate(260.532 5.075)" fill="#fff"/>
        <path id="Trazado_145151" data-name="Trazado 145151" d="M670.247,199.587a10.53,10.53,0,0,1-1.688-1.366c-.522-.476-1.182-1.028-1.964-1.642s-1.627-1.366-2.655-2.087a74.872,74.872,0,0,0-7.321-4.85,78.539,78.539,0,0,0-9.653-4.6,79.407,79.407,0,0,0-10.237-3.238,74.545,74.545,0,0,0-8.641-1.535c-1.243-.184-2.379-.23-3.361-.322s-1.857-.123-2.548-.138a13.112,13.112,0,0,1-2.179-.169,10.694,10.694,0,0,1,2.179-.153h2.563a20.611,20.611,0,0,1,3.392.2,67.556,67.556,0,0,1,8.763,1.351,76.132,76.132,0,0,1,10.375,3.208,74.468,74.468,0,0,1,9.73,4.8,68.791,68.791,0,0,1,7.29,5.034c1,.752,1.842,1.535,2.594,2.195a24.888,24.888,0,0,1,1.872,1.75A11.674,11.674,0,0,1,670.247,199.587Z" transform="translate(259.933 27.524)" fill="#fff"/>
      </g>
      <rect id="Rectángulo_32486" data-name="Rectángulo 32486" width="139.276" height="191.334" rx="2.41" transform="translate(0 274.237) rotate(-25.7)" fill="#e0e0e0"/>
      <rect id="Rectángulo_32487" data-name="Rectángulo 32487" width="123.729" height="178.089" transform="translate(8.783 274.535) rotate(-25.7)" fill="#fafafa"/>
      <path id="Trazado_145152" data-name="Trazado 145152" d="M120,205.441a15.133,15.133,0,0,0-15.854-1.658l-3.422-6.737a10.39,10.39,0,0,0-13.813-4.865h0a10.406,10.406,0,0,0-4.874,13.885l.009.02,3.422,7.106-2.379,1.2A15.177,15.177,0,0,0,74.73,227.74v3.53l48.543-23.359ZM94.1,206.546a5.691,5.691,0,1,1,.018-.009Z" transform="translate(-31.636 33.779)" fill="#ebebeb"/>
      <path id="Trazado_145153" data-name="Trazado 145153" d="M96.981,225.333c.107.2-6.584,3.622-14.933,7.674s-15.194,7.106-15.347,6.906,6.584-3.622,14.933-7.674S96.889,225.134,96.981,225.333Z" transform="translate(-35.931 52.04)" fill="#e0e0e0"/>
      <path id="Trazado_145154" data-name="Trazado 145154" d="M82.9,233.56a40.879,40.879,0,0,1-7.106,3.868A40.7,40.7,0,0,1,68.34,240.5a41.466,41.466,0,0,1,7.152-3.791A42.862,42.862,0,0,1,82.9,233.56Z" transform="translate(-35.053 56.444)" fill="#e0e0e0"/>
      <path id="Trazado_145155" data-name="Trazado 145155" d="M157.874,220.551c.092.184-18.662,9.423-41.9,20.6S73.832,261.237,73.74,261.1s18.662-9.485,41.837-20.673S157.782,220.352,157.874,220.551Z" transform="translate(-32.166 49.486)" fill="#e0e0e0"/>
      <path id="Trazado_145156" data-name="Trazado 145156" d="M160.394,225.771c.092.2-18.662,9.423-41.9,20.611s-42.144,20.09-42.236,19.951,18.647-9.423,41.9-20.611S160.271,225.572,160.394,225.771Z" transform="translate(-30.818 52.278)" fill="#e0e0e0"/>
      <path id="Trazado_145157" data-name="Trazado 145157" d="M162.9,231c.107.2-18.662,9.423-41.883,20.611S78.878,271.7,78.77,271.564s18.662-9.423,41.9-20.611S162.812,230.8,162.9,231Z" transform="translate(-29.476 55.074)" fill="#e0e0e0"/>
      <path id="Trazado_145158" data-name="Trazado 145158" d="M165.424,236.231c.092.2-18.662,9.423-41.9,20.611S81.382,276.917,81.29,276.794s18.662-9.423,41.9-20.6S165.332,236.032,165.424,236.231Z" transform="translate(-28.129 57.871)" fill="#e0e0e0"/>
      <path id="Trazado_145159" data-name="Trazado 145159" d="M167.944,241.451c.092.2-18.662,9.439-41.9,20.611S83.9,282.152,83.81,282.014s18.708-9.485,41.883-20.673S167.836,241.267,167.944,241.451Z" transform="translate(-26.781 60.662)" fill="#e0e0e0"/>
      <path id="Trazado_145160" data-name="Trazado 145160" d="M170.454,246.681c.092.2-18.662,9.423-41.883,20.611s-42.159,20.09-42.251,19.951,18.662-9.423,41.9-20.611S170.362,246.482,170.454,246.681Z" transform="translate(-25.439 63.459)" fill="#e0e0e0"/>
      <path id="Trazado_145161" data-name="Trazado 145161" d="M130.657,264.59a7.81,7.81,0,0,1-1.535.936l-4.451,2.287c-3.775,1.888-9.024,4.466-14.825,7.259s-11.1,5.295-14.933,7.06l-4.6,2.057a7.422,7.422,0,0,1-1.719.645,9.6,9.6,0,0,1,1.535-.936l4.451-2.271c3.775-1.9,9.024-4.481,14.825-7.275s11.1-5.279,14.933-7.044l4.6-2.057A8.138,8.138,0,0,1,130.657,264.59Z" transform="translate(-24.225 73.037)" fill="#e0e0e0"/>
      <path id="Trazado_145162" data-name="Trazado 145162" d="M129.345,206.35a35.492,35.492,0,0,1-6.569,3.607,34.951,34.951,0,0,1-6.906,2.885,35.487,35.487,0,0,1,6.569-3.607A34.947,34.947,0,0,1,129.345,206.35Z" transform="translate(-9.638 41.894)" fill="#e0e0e0"/>
      <path id="Trazado_145163" data-name="Trazado 145163" d="M116.609,282a90.213,90.213,0,0,1-10.743,5.617,92.648,92.648,0,0,1-11.1,4.9,90.214,90.214,0,0,1,10.743-5.617A92.64,92.64,0,0,1,116.609,282Z" transform="translate(-20.92 82.346)" fill="#e0e0e0"/>
      <path id="Trazado_145164" data-name="Trazado 145164" d="M119.517,286.5a93.183,93.183,0,0,1-10.927,5.694,94.221,94.221,0,0,1-11.28,4.988,96.329,96.329,0,0,1,10.927-5.709A95.714,95.714,0,0,1,119.517,286.5Z" transform="translate(-19.562 84.753)" fill="#e0e0e0"/>
      <path id="Trazado_145165" data-name="Trazado 145165" d="M153.679,261.39a21.017,21.017,0,0,1-5.1,2.9,21.516,21.516,0,0,1-5.464,2.179,22.371,22.371,0,0,1,5.111-2.9A22.146,22.146,0,0,1,153.679,261.39Z" transform="translate(4.934 71.326)" fill="#e0e0e0"/>
      <path id="Trazado_145166" data-name="Trazado 145166" d="M155.949,265.55a22.368,22.368,0,0,1-5.111,2.9,22.144,22.144,0,0,1-5.448,2.179,21.016,21.016,0,0,1,5.1-2.9A21.516,21.516,0,0,1,155.949,265.55Z" transform="translate(6.147 73.55)" fill="#e0e0e0"/>
      <path id="Trazado_145167" data-name="Trazado 145167" d="M111.1,294.68a20.588,20.588,0,0,1-4.926,2.809,20.768,20.768,0,0,1-5.279,2.1,20.884,20.884,0,0,1,4.926-2.885A20.494,20.494,0,0,1,111.1,294.68Z" transform="translate(-17.648 89.127)" fill="#e0e0e0"/>
      <path id="Trazado_145168" data-name="Trazado 145168" d="M157.563,270.42a11.387,11.387,0,0,1-3.637,2.195,12.292,12.292,0,0,1-4.006,1.535,11.427,11.427,0,0,1,3.653-2.21A11.63,11.63,0,0,1,157.563,270.42Z" transform="translate(8.57 76.154)" fill="#e0e0e0"/>
      <path id="Trazado_145169" data-name="Trazado 145169" d="M105.87,314.837a2.662,2.662,0,0,1,.43-.322l1.289-.859,4.957-3.177,17.818-11.188.353-.23.153.384a10.108,10.108,0,0,1,.2,6.768,8.258,8.258,0,0,1-4.911,5.31,8.166,8.166,0,0,1-7.674-.844,7.138,7.138,0,0,1-2.532-7.474,6.609,6.609,0,0,1,1.535-2.793,5.09,5.09,0,0,1,.583-.553,3.092,3.092,0,0,1,.691-.476,1.165,1.165,0,0,1,1.074,0,1.867,1.867,0,0,1,.614.706,13.381,13.381,0,0,1,1.535,5.678,13.216,13.216,0,0,1-.875,5.6,8.484,8.484,0,0,1-3.3,4.374,4.893,4.893,0,0,1-5.187-.107,7.454,7.454,0,0,1-3.069-3.852,17.94,17.94,0,0,1,0-8.671l.092-.583.4.445a12.111,12.111,0,0,1,2.931,6.615,13,13,0,0,1-.522,5.448,11.549,11.549,0,0,1-1.535,3.069c-.246.322-.445.537-.583.691s-.2.23-.215.215a14.3,14.3,0,0,0,2.041-4.082,13.123,13.123,0,0,0,.368-5.295,11.594,11.594,0,0,0-2.9-6.292l.491-.138a17.267,17.267,0,0,0,0,8.349,6.746,6.746,0,0,0,2.809,3.468,4.173,4.173,0,0,0,4.435.077,7.871,7.871,0,0,0,2.977-4.006,12.86,12.86,0,0,0,.8-5.31,12.655,12.655,0,0,0-1.535-5.326.951.951,0,0,0-.322-.414.34.34,0,0,0-.338,0,3.781,3.781,0,0,0-1,.829,5.773,5.773,0,0,0-1.289,2.44,6.355,6.355,0,0,0,2.241,6.645,7.414,7.414,0,0,0,6.845.767,7.518,7.518,0,0,0,4.481-4.819,9.339,9.339,0,0,0-.138-6.277l.506.169-17.972,10.943-5.065,3.069-1.335.767A1.968,1.968,0,0,1,105.87,314.837Z" transform="translate(-14.985 91.469)" fill="#e0e0e0"/>
      <path id="Trazado_145170" data-name="Trazado 145170" d="M164.328,286.873a4.614,4.614,0,0,1-.246,1.443,6.11,6.11,0,0,1-.706,1.627,3.434,3.434,0,0,1-1.918,1.535,2.389,2.389,0,0,1-1.535,0,3.076,3.076,0,0,1-1.289-1,29.106,29.106,0,0,1-1.719-2.916l-3.76-7.029.691-.153c-.123,3.515-.246,7.351-.4,11.372a24.82,24.82,0,0,1-.107,2.839v1.535l-.691-1.427c-2.1-4.313-4.052-8.349-5.771-11.848h.645a40.9,40.9,0,0,0-1.535,10.743c0,2.624.169,4.113.092,4.128a3.529,3.529,0,0,1-.23-1.074,30.663,30.663,0,0,1-.261-3.069,37.423,37.423,0,0,1,1.2-10.881l.23-.89.4.829,5.878,11.8-.767.153a25.5,25.5,0,0,1,.107-2.839c.169-4.021.322-7.858.46-11.372V279l.629,1.212c1.351,2.532,2.594,4.9,3.714,7.014a30.71,30.71,0,0,0,1.611,2.9,2.055,2.055,0,0,0,2.225.936,3.932,3.932,0,0,0,2.5-2.732A11.772,11.772,0,0,1,164.328,286.873Z" transform="translate(6.24 80.742)" fill="#e0e0e0"/>
      <path id="Trazado_145171" data-name="Trazado 145171" d="M167.706,280.392c.123.169-6.216,4.7-14.15,10.1s-14.472,9.623-14.6,9.439,6.139-4.7,14.15-10.1S167.583,280.208,167.706,280.392Z" transform="translate(2.708 81.483)" fill="#e0e0e0"/>
      <path id="Trazado_145172" data-name="Trazado 145172" d="M170.171,281.26A121.278,121.278,0,0,1,159.8,290.7a122.122,122.122,0,0,1-10.9,8.84,124.269,124.269,0,0,1,10.375-9.439A122.134,122.134,0,0,1,170.171,281.26Z" transform="translate(8.024 81.951)" fill="#e0e0e0"/>
      <g id="Grupo_74935" data-name="Grupo 74935" transform="translate(-12.278 -51)">
        <path id="Trazado_145173" data-name="Trazado 145173" d="M218.328,77.183h-6.461L197.855,57.493V44.6s-9.991-.614-8.809,16.268-.092,12.569-.092,12.569-21.195.092-23.021,1.934c-1.289,1.335-1.857,22.392-2.087,33.764a12.371,12.371,0,0,0,8.763,12.447,8.891,8.891,0,0,0,2.225.368c5.279,0,32.229-4.3,32.229-4.3h11.157Z" transform="translate(16.008 -44.599)" fill="#f5f5f5"/>
        <path id="Trazado_145174" data-name="Trazado 145174" d="M216.63,63.52l-3.975,44.169H201.59V64.41Z" transform="translate(36.199 -34.48)" fill="#f5f5f5"/>
      </g>
    </g>
    <g id="freepik--Icons--inject-8" transform="translate(1032.345 1346.968)">
      <path id="Trazado_145176" data-name="Trazado 145176" d="M556.291,93.206a1.963,1.963,0,0,1-.445,0l-1.3-.092-5.019-.414-18.417-1.688.338-.2c-2.225,5.786-4.819,12.569-7.674,19.951l-.46,1.2L523,110.7c-2.348-9.7-4.957-20.581-7.674-32.045-.844-3.545-1.688-7.044-2.5-10.451l.783.153L499.552,87.7l-.138.184h-.23L466.832,84.5l-9.208-1.013-2.425-.307a3.25,3.25,0,0,1-.829-.153,4.308,4.308,0,0,1,.844,0l2.425.169,9.208.8,32.383,3.069-.353.153,14-19.368.553-.783.215.936c.829,3.407,1.657,6.891,2.517,10.451l7.674,32.06h-.767c2.9-7.413,5.556-14.181,7.827-19.951l.077-.23h.246L549.63,92.3l4.988.583,1.3.169A1.52,1.52,0,0,1,556.291,93.206Z" transform="translate(-184.55 -37.789)" fill="#fafafa"/>
      <rect id="Rectángulo_32488" data-name="Rectángulo 32488" width="10.129" height="45.412" transform="translate(33.273 115.195)" fill="#7e5ee3"/>
      <rect id="Rectángulo_32489" data-name="Rectángulo 32489" width="45.412" height="10.129" transform="translate(15.623 132.829)" fill="#7e5ee3"/>
      <path id="Trazado_145177" data-name="Trazado 145177" d="M354.606,151.214a5.176,5.176,0,0,1-.077-.614c0-.445-.077-1.044-.123-1.8a6.749,6.749,0,0,0-.092-1.32c-.092-.476-.154-1.013-.246-1.535a27.223,27.223,0,0,0-.8-3.9,36.064,36.064,0,0,0-4.205-10.006,37.493,37.493,0,0,0-45.075-16.007,38.144,38.144,0,0,0-4.9,2.149,39.488,39.488,0,0,0-4.6,2.962,42.526,42.526,0,0,0-4.251,3.607,43.622,43.622,0,0,0-3.668,4.343,36.606,36.606,0,0,0-5.356,10.313,37.122,37.122,0,0,0,0,23.65,36.407,36.407,0,0,0,5.356,10.313,40.423,40.423,0,0,0,3.668,4.343,40.87,40.87,0,0,0,4.251,3.622,39.488,39.488,0,0,0,4.6,2.962,40.6,40.6,0,0,0,4.9,2.149,37.616,37.616,0,0,0,45.075-15.992,35.935,35.935,0,0,0,4.205-10.022,26.566,26.566,0,0,0,.8-3.883c.092-.583.2-1.105.246-1.535a12.151,12.151,0,0,1,.092-1.32c0-.767.092-1.351.123-1.8a4.622,4.622,0,0,1,.077-.614,3.721,3.721,0,0,1,0,.614v3.131a14.044,14.044,0,0,1-.2,1.535,28.434,28.434,0,0,1-.737,3.929,36.156,36.156,0,0,1-4.128,10.175,38.138,38.138,0,0,1-45.75,16.437,37.148,37.148,0,0,1-14.027-8.871,41.484,41.484,0,0,1-3.745-4.42,36.633,36.633,0,0,1-5.479-10.544,40.722,40.722,0,0,1-1.98-12.078,41.181,41.181,0,0,1,1.98-12.063,36.956,36.956,0,0,1,5.479-10.528,43.379,43.379,0,0,1,3.745-4.435,44.225,44.225,0,0,1,4.343-3.668,37.91,37.91,0,0,1,55.281,11.265,36.266,36.266,0,0,1,4.128,10.16,28.934,28.934,0,0,1,.737,3.944c0,.568.169,1.105.2,1.535v3.131A3.768,3.768,0,0,1,354.606,151.214Z" transform="translate(-278.56 -13.198)" fill="#7e5ee3"/>
    </g>
    <g id="freepik--character-1--inject-8" transform="translate(1017.423 1385.783)">
      <path id="Trazado_145250" data-name="Trazado 145250" d="M291.421,168.506c.184-6.691-5.985-11.848-12.278-14.3s-13.137-3.376-18.693-7.106c-4.911-3.315-8.211-8.472-12.37-12.677a41.178,41.178,0,0,0-69.247,18.892c-2.379,9.515-.752,20.765,6.753,27.1,8.717,7.336,21.624,5.709,32.782,3.422s23.8-4.6,33.119,2.01c5.617,3.96,8.84,10.39,12.278,16.345s7.674,12.017,14.242,14.258,15.347-1.627,15.577-8.487" transform="translate(4.627 -122.165)" fill="#263238"/>
      <path id="Trazado_145251" data-name="Trazado 145251" d="M298.31,165.169c-.737,5.6,3.315,10.62,7.351,14.58s8.594,8.149,9.316,13.813c.829,6.553-3.96,13-2.563,19.46.875,4.1,4.067,7.244,6,10.973a23.389,23.389,0,0,1,1.182,17.174c-1.658,5.648-4.313,18.248-8.242,22.637-10.85,12.124-28.116,22.591-43.97,26.228s-32.337,3.668-48.574,2.67c-13.291-.813-28.592-.2-39.673-18.493-5.74-9.485-8.579-22.069-11.618-32.72-2.64-9.208-4.911-18.985-2.179-28.132,1.535-5.31,4.8-10.052,6.369-15.347,1.964-6.661,1.243-13.813,2.026-20.673a47.437,47.437,0,0,1,67.528-37.463" transform="translate(-2.706 -115.16)" fill="#263238"/>
      <path id="Trazado_145252" data-name="Trazado 145252" d="M174.993,183.843c1.243-19.077,13.935-42.466,32.951-40.409l59.332,15.132a11.219,11.219,0,0,1,9.991,11.372L270.591,313.1l.414.077s-13.521,40.379-52.764,28.055c-7.781-2.456-11.342-10.958-12.876-19.721h-.4v-3.069a93.953,93.953,0,0,1-.23-19.66h0c-.107-11.556-.092-16.283-.107-16.176s-24.371-4.113-29.344-35.928C172.753,230.975,173.612,205.038,174.993,183.843Z" transform="translate(2.406 -110.859)" fill="#ffbe9d"/>
      <path id="Trazado_145253" data-name="Trazado 145253" d="M180.76,183.492a4.066,4.066,0,0,0,3.914,4.128,3.912,3.912,0,0,0,4.214-3.587l.006-.081a4.083,4.083,0,0,0-3.929-4.128,3.9,3.9,0,0,0-4.2,3.573Z" transform="translate(6.2 -91.34)" fill="#263238"/>
      <path id="Trazado_145254" data-name="Trazado 145254" d="M178.194,180.007c.506.537,3.607-1.75,8-1.734s7.674,2.225,8.088,1.688c.23-.23-.292-1.2-1.688-2.21a11.055,11.055,0,0,0-6.461-2.01,10.75,10.75,0,0,0-6.369,2.026C178.409,178.81,177.933,179.761,178.194,180.007Z" transform="translate(4.791 -93.517)" fill="#263238"/>
      <path id="Trazado_145255" data-name="Trazado 145255" d="M208.87,183.493a4.082,4.082,0,0,0,3.929,4.128,3.9,3.9,0,0,0,4.2-3.573l.006-.1a4.066,4.066,0,0,0-3.914-4.128,3.9,3.9,0,0,0-4.213,3.556C208.875,183.418,208.872,183.456,208.87,183.493Z" transform="translate(21.231 -91.34)" fill="#263238"/>
      <path id="Trazado_145256" data-name="Trazado 145256" d="M206.312,180.6c.506.537,3.607-1.734,8-1.719s7.6,2.225,8.073,1.688c.23-.246-.276-1.2-1.688-2.225a11.254,11.254,0,0,0-6.461-2.01,10.744,10.744,0,0,0-6.354,2.041C206.527,179.4,206.066,180.428,206.312,180.6Z" transform="translate(19.83 -93.201)" fill="#263238"/>
      <path id="Trazado_145257" data-name="Trazado 145257" d="M199.714,213.038c0-.246-2.7-.721-7.121-1.3-1.12-.107-2.179-.338-2.379-1.105a5.674,5.674,0,0,1,.767-3.315l3.33-8.533c4.6-12.14,7.981-22.131,7.489-22.3s-4.6,9.5-9.208,21.655q-1.687,4.482-3.192,8.579a6.444,6.444,0,0,0-.6,4.389,2.824,2.824,0,0,0,1.842,1.642,7.82,7.82,0,0,0,1.9.276C196.936,213.268,199.7,213.3,199.714,213.038Z" transform="translate(10.421 -93.122)" fill="#263238"/>
      <path id="Trazado_145258" data-name="Trazado 145258" d="M193.81,238.08a80.85,80.85,0,0,0,42.619-11.28s-10.743,21.993-42.589,18.954Z" transform="translate(13.178 -66.214)" fill="#eb996e"/>
      <path id="Trazado_145259" data-name="Trazado 145259" d="M197.213,208.235a7.873,7.873,0,0,1,7.09-2.916,7.181,7.181,0,0,1,4.988,2.686,4.6,4.6,0,0,1,.322,5.218,5.248,5.248,0,0,1-5.755,1.443,16.679,16.679,0,0,1-5.6-3.361,4.522,4.522,0,0,1-1.243-1.289,1.534,1.534,0,0,1,0-1.642" transform="translate(14.764 -77.73)" fill="#eb996e"/>
      <path id="Trazado_145260" data-name="Trazado 145260" d="M209.157,202.3c-.706,0-.721,4.727-4.819,8.088s-9.208,2.839-9.208,3.515c0,.292,1.136.921,3.269.982a11.834,11.834,0,0,0,7.674-2.655,10.329,10.329,0,0,0,3.729-6.783C210.017,203.451,209.5,202.27,209.157,202.3Z" transform="translate(13.884 -79.315)" fill="#263238"/>
      <path id="Trazado_145261" data-name="Trazado 145261" d="M205.007,175.241c.43,1.2,4.819.645,9.96,1.274s9.316,2.041,10.006.982c.307-.506-.414-1.642-2.1-2.793a16.39,16.39,0,0,0-7.4-2.609,16.66,16.66,0,0,0-7.8.89C205.789,173.752,204.838,174.673,205.007,175.241Z" transform="translate(19.155 -95.535)" fill="#263238"/>
      <path id="Trazado_145262" data-name="Trazado 145262" d="M179.283,171.8c.783,1,3.806,0,7.443,0s6.707.675,7.428-.353c.307-.506-.184-1.535-1.535-2.456a10.743,10.743,0,0,0-11.971.338C179.375,170.292,178.915,171.321,179.283,171.8Z" transform="translate(5.344 -98.014)" fill="#263238"/>
      <path id="Trazado_145263" data-name="Trazado 145263" d="M280.1,265.581a28.239,28.239,0,0,1-33.6-31.232c.982-7.812,5.2-15.762,2.486-23.159-3.576-9.776-17.281-12.784-20.918-22.545-2.118-5.663-.215-12.278-2.609-17.849-2.256-5.233-7.75-8.241-13.107-10.175s-11.081-3.269-15.577-6.753-7.29-10.083-4.389-14.979a300.806,300.806,0,0,1,69.492,16.882c5.2,1.934,10.651,4.267,13.72,8.886,3.254,4.88,3.069,11.188,2.824,17.051l-4.006,85.668" transform="translate(11.787 -113.221)" fill="#263238"/>
      <path id="Trazado_145264" data-name="Trazado 145264" d="M278.818,282.139a3.629,3.629,0,0,0,.522-.322l1.412-1.074c1.228-.967,3.069-2.394,5.264-4.374a54.367,54.367,0,0,0,7.474-7.858,29.343,29.343,0,0,0,5.955-13.107,19.951,19.951,0,0,0-4.1-16.729,63.974,63.974,0,0,0-7.413-6.323,17.2,17.2,0,0,1-5.786-7.858c-2.348-6.477-1.3-13.981-2.21-21.655a43.067,43.067,0,0,0-9.024-21.916,29.617,29.617,0,0,0-9.423-7.674,57.592,57.592,0,0,0-11.127-3.745,25.943,25.943,0,0,1-9.776-4.819,38.762,38.762,0,0,1-7.09-7.812c-3.99-5.678-6.952-11.725-10.743-16.775a35.947,35.947,0,0,0-6.262-6.645,24.036,24.036,0,0,0-7.428-4.052,15.871,15.871,0,0,0-14.135,1.412,13.029,13.029,0,0,0-5.019,9.515,9.546,9.546,0,0,0,1.918,6.553,6.113,6.113,0,0,0,1.289,1.243,2.2,2.2,0,0,0,.522.338,3.47,3.47,0,0,0-.43-.445,7.056,7.056,0,0,1-1.151-1.3,9.361,9.361,0,0,1-1.535-6.338,12.479,12.479,0,0,1,4.926-8.932,15.04,15.04,0,0,1,13.352-1.1,23.034,23.034,0,0,1,7.075,3.944,36.548,36.548,0,0,1,6.016,6.507c3.683,4.957,6.584,11,10.636,16.882a39.489,39.489,0,0,0,7.305,8.119,26.937,26.937,0,0,0,10.083,4.988,56.477,56.477,0,0,1,10.881,3.683,28.365,28.365,0,0,1,8.994,7.367,41.728,41.728,0,0,1,8.779,21.179c.936,7.413-.138,15.04,2.364,21.931a18.619,18.619,0,0,0,6.139,8.395,64.882,64.882,0,0,1,7.321,6.139,18.922,18.922,0,0,1,3.99,15.808,28.753,28.753,0,0,1-5.586,12.784A58.841,58.841,0,0,1,285.57,276c-2.164,2.026-3.914,3.515-5.08,4.6A18.835,18.835,0,0,0,278.818,282.139Z" transform="translate(11.077 -118.852)" fill="#455a64"/>
      <path id="Trazado_145265" data-name="Trazado 145265" d="M257.634,232.106c6.538-6.323,17.7-.829,23.19,6.415s9.377,16.606,17.711,20.258,19.153.506,26.09,6.308c9.638,8.011,4.221,26.566,14.657,33.534,4.128,2.762,9.592,2.67,14.012,4.942,10.421,5.371,10.3,20.074,8.686,31.692-2.195,16.345-4.681,33.227-13.674,47.039s-26.5,23.466-42.067,18.156c-14.964-5.111-22.653-21.256-28.745-35.851q-12.615-30.358-25.261-60.576c-4.865-11.679-9.792-23.543-11.372-36.1s.537-26.09,8.533-35.943" transform="translate(38.076 -64.859)" fill="#263238"/>
      <path id="Trazado_145266" data-name="Trazado 145266" d="M260.392,222.087c4.742-.568,8.38,5.249,7.121,9.868s-5.678,7.674-10.206,9.208a15.222,15.222,0,0,1-7.873.905,7.676,7.676,0,0,1-5.97-4.8,4.512,4.512,0,0,1,2.179-5.97c3.069-1.949,4.957-3.484,7.428-4.85,3.775-2.072,3.545-2.348,7.321-4.435" transform="translate(39.508 -68.775)" fill="#7e5ee3"/>
      <path id="Trazado_145267" data-name="Trazado 145267" d="M186.954,261.832,205.4,247.851,274.94,243.4l2.793,9.331L255.111,393.864l17.849,168.39H175.95Z" transform="translate(3.628 -57.337)" fill="#7e5ee3"/>
      <g id="Grupo_73246" data-name="Grupo 73246" transform="translate(183.891 436.131)" opacity="0.3">
        <path id="Trazado_145268" data-name="Trazado 145268" d="M259.9,415.395c-2.225-2.379-5.863-5.632-9.1-5.709-23.236-.507-46.947-2.824-70.183-3.346l-1.857,68.817c5.556-9.792,10.82-19.951,12.278-31.155.645-4.88,1.535-10.743,5.909-12.8,2.517-1.182,5.479-.721,8.2-.169,8.395,1.658,16.729,3.821,25.262,4.359s17.48-.721,24.648-5.387a15.114,15.114,0,0,0,5.893-6.369A7.81,7.81,0,0,0,259.9,415.395Z" transform="translate(-178.76 -406.34)"/>
      </g>
      <path id="Trazado_145269" data-name="Trazado 145269" d="M193.834,268.78,191.67,248.6a6.415,6.415,0,0,1,5.709-7.051l.092-.009,64-5.786a3.07,3.07,0,0,1,3.294,2.827l.006.089.721,24.018-18.539,31.446L227.905,300.2h-23.3l-13.4-14.3Z" transform="translate(11.788 -61.431)" fill="#7e5ee3"/>
      <path id="Trazado_145270" data-name="Trazado 145270" d="M255.658,248.6a21.745,21.745,0,0,1-2.563-.261,46.116,46.116,0,0,0-6.968-.123,67.6,67.6,0,0,0-10.252,1.535c-3.821.8-7.981,1.918-12.385,2.993a80.475,80.475,0,0,1-12.6,2.241,32.564,32.564,0,0,1-10.452-.706,21.694,21.694,0,0,1-6.507-2.7,15.6,15.6,0,0,1-1.535-1.136c-.338-.276-.506-.445-.476-.46s.752.506,2.195,1.32a23.821,23.821,0,0,0,6.492,2.425,33.087,33.087,0,0,0,10.252.522,84.808,84.808,0,0,0,12.477-2.287c4.389-1.059,8.564-2.164,12.416-2.931a61.793,61.793,0,0,1,10.375-1.32,37.172,37.172,0,0,1,7.044.368q1.243.214,1.888.368C255.444,248.51,255.674,248.571,255.658,248.6Z" transform="translate(12.166 -55.05)" fill="#263238"/>
      <g id="Grupo_73247" data-name="Grupo 73247" transform="translate(205.999 192.964)" opacity="0.3">
        <path id="Trazado_145271" data-name="Trazado 145271" d="M194.308,251.662c-1.719,4.712-1.765,10.544,1.719,14.15,2.824,2.947,7.382,3.683,11.388,2.885a35.91,35.91,0,0,0,11.127-5c8.809-5.233,17.772-10.666,27.779-12.892a3.553,3.553,0,0,0,1.8-.752,1.181,1.181,0,0,0,.064-1.67q-.032-.035-.064-.064a1.676,1.676,0,0,0-.829-.23c-8.855-.89-17.649,1.535-26.32,3.561s-17.956,3.33-26.321.307" transform="translate(-193.165 -247.897)"/>
      </g>
      <path id="Trazado_145272" data-name="Trazado 145272" d="M203.237,239.109a5.894,5.894,0,0,0-2.195,2.087c-1.013,1.627-.952,4.389-.875,7.367.169,5.97,1.151,10.743.921,10.743a10.432,10.432,0,0,1-.875-3.069,48.43,48.43,0,0,1-.844-7.674,35.588,35.588,0,0,1,.092-4.282,7.392,7.392,0,0,1,1.1-3.392,4.429,4.429,0,0,1,1.8-1.611C202.9,239.063,203.221,239.063,203.237,239.109Z" transform="translate(16.137 -59.645)" fill="#263238"/>
      <path id="Trazado_145273" data-name="Trazado 145273" d="M213.86,257.246a92.53,92.53,0,0,0-.46-9.761c-.737-5.356-2.517-9.423-2.271-9.515a8.417,8.417,0,0,1,1.3,2.594,31.723,31.723,0,0,1,1.765,6.8,31.127,31.127,0,0,1,.2,7.029A8.6,8.6,0,0,1,213.86,257.246Z" transform="translate(22.426 -60.241)" fill="#263238"/>
      <path id="Trazado_145274" data-name="Trazado 145274" d="M226.736,236.86a6.308,6.308,0,0,1,1.212,2.379,16.8,16.8,0,0,1,.844,6.4,16.536,16.536,0,0,1-1.688,6.246,6.131,6.131,0,0,1-1.535,2.195,21.178,21.178,0,0,0,1.151-17.22Z" transform="translate(30.161 -60.835)" fill="#263238"/>
      <path id="Trazado_145275" data-name="Trazado 145275" d="M190.891,261.33s-21.824,14.611-27.625,41.008c-4.512,20.75-16.882,130.359-16.882,130.359L124.76,474.78l14.119,33.58h0a51.627,51.627,0,0,0,33.917-9.684l9.5-6.906,17.419-25.829Z" transform="translate(-23.744 -47.75)" fill="#ebebeb"/>
      <path id="Trazado_145276" data-name="Trazado 145276" d="M214.441,248.71l-36.987,19.368-8.733,28.684-7.781,83.167,14.641,97.5L149.89,559.123l44.307.322,1.059-47.883,4.42-155.007,4.343-98.744Z" transform="translate(-10.307 -54.498)" fill="#ebebeb"/>
      <path id="Trazado_145277" data-name="Trazado 145277" d="M184.795,374.934a8.419,8.419,0,0,1-.691-1.166l-1.842-3.392c-.767-1.535-1.535-3.407-2.471-5.586-.445-1.1-.829-2.317-1.274-3.591s-.936-2.624-1.32-4.067c-3.484-11.5-5.786-28.085-5.295-46.379,0-1.412.107-2.808.2-4.205V306.3l.23-.092,6.477-2.732-.092.675-6.477-5.2-.138-.107v-.153a55.987,55.987,0,0,1,2.947-18.493c1.627-5.418,3.407-10.083,4.973-13.92s2.931-6.829,3.9-8.855c.491-1.028.875-1.811,1.136-2.317a5.245,5.245,0,0,1,.445-.783,3.728,3.728,0,0,1-.322.829l-1.028,2.379c-.89,2.057-2.179,5.08-3.683,8.932s-3.223,8.518-4.788,13.92a56.156,56.156,0,0,0-2.809,18.248l-.153-.261,6.492,5.172.506.414-.6.261-6.477,2.732.246-.338c-.092,1.366-.153,2.762-.2,4.174-.476,18.217,1.719,34.731,5.049,46.18.353,1.458.829,2.793,1.243,4.067s.783,2.5,1.228,3.607c.906,2.179,1.535,4.1,2.333,5.6l1.688,3.453A10.207,10.207,0,0,1,184.795,374.934Z" transform="translate(1.429 -51.498)" fill="#263238"/>
      <path id="Trazado_145278" data-name="Trazado 145278" d="M164.028,413.425a11.249,11.249,0,0,1-.353-1.2q-.322-1.305-.875-3.5c-.384-1.535-.813-3.376-1.243-5.54s-1-4.6-1.427-7.413-1.013-5.771-1.427-9.024-.829-6.753-1.212-10.421c-.675-7.367-1.12-15.485-1.12-24.018s.506-16.652,1.2-24c.414-3.668.767-7.167,1.274-10.421s.952-6.277,1.443-9.024,1.013-5.218,1.535-7.4.89-4.036,1.274-5.54.66-2.624.89-3.484a8.981,8.981,0,0,1,.353-1.212,7.113,7.113,0,0,1-.2,1.243l-.737,3.514c-.338,1.535-.752,3.392-1.136,5.571s-.936,4.6-1.351,7.413-.952,5.755-1.335,9.009-.813,6.737-1.2,10.39c-.645,7.351-1.1,15.439-1.136,23.957s.43,16.59,1.044,23.942c.384,3.653.691,7.152,1.151,10.39s.875,6.277,1.32,9.024.921,5.233,1.3,7.413.783,4.052,1.12,5.571.552,2.64.721,3.515A5.927,5.927,0,0,1,164.028,413.425Z" transform="translate(-6.842 -31.762)" fill="#263238"/>
      <path id="Trazado_145279" data-name="Trazado 145279" d="M174.045,419.63a15.8,15.8,0,0,1-1.8,3.729,60.218,60.218,0,0,1-5.663,8.211,59.311,59.311,0,0,1-6.937,7.167,16.627,16.627,0,0,1-3.3,2.5,29.393,29.393,0,0,1,2.916-2.916,83.645,83.645,0,0,0,12.508-15.255A29.581,29.581,0,0,1,174.045,419.63Z" transform="translate(-6.853 36.897)" fill="#263238"/>
      <path id="Trazado_145280" data-name="Trazado 145280" d="M314.438,260.582a50.907,50.907,0,0,1,31.216,36.22c12.109,53.347,32.812,124.313,33.15,147.226.4,29.16-12.278,49.111-28.991,52.794-13.168,2.916-132.477-3.622-132.477-3.622l-5.586-44.507,96.688-14.227-13.229-73.789L308.3,258.28Z" transform="translate(22.771 -49.381)" fill="#ebebeb"/>
      <path id="Trazado_145281" data-name="Trazado 145281" d="M300.84,267.786l-26.72-10.912L245.958,240.36l-.169,4.834h0a28.336,28.336,0,0,1,3.392,19.583L225.7,387.034l5.31,89.336,10.912,87.479h84.732L287.749,472.3l13.736-123.376Z" transform="translate(30.231 -58.963)" fill="#ebebeb"/>
      <path id="Trazado_145282" data-name="Trazado 145282" d="M333.151,436.477l-.583.077-1.7.169c-1.535.154-3.729.138-6.615.215-5.74,0-14.089-.123-24.479-.46-20.765-.691-49.664-2.087-82.307-3.975h-.322v-.338c-.66-5.295-1.366-10.881-2.072-16.544-1.212-9.592-2.379-18.954-3.5-27.9v-.384h.368l73.79-10.743,21.67-3.069,5.817-.783,1.535-.2h.522l-.507.107-1.535.261-5.8.921-21.624,3.3-73.667,11,.322-.445c1.136,8.963,2.317,18.309,3.515,27.9.721,5.678,1.412,11.265,2.072,16.56l-.368-.338c32.628,1.9,61.542,3.392,82.292,4.236,10.375.4,18.708.629,24.448.706,2.87,0,5.111,0,6.6-.092l1.7-.092Z" transform="translate(22.675 11.717)" fill="#263238"/>
      <path id="Trazado_145283" data-name="Trazado 145283" d="M265.647,320.08a3.154,3.154,0,0,1,.215.829c.123.629.276,1.4.46,2.363.4,2.164.936,5.126,1.535,8.733,1.3,7.49,3.069,17.634,5.034,28.853s3.561,21.394,4.819,28.9c.568,3.622,1.028,6.584,1.366,8.763.138.967.246,1.765.338,2.394a3.527,3.527,0,0,1,0,.844,2.951,2.951,0,0,1-.23-.813c-.123-.629-.276-1.412-.476-2.363-.4-2.179-.952-5.126-1.627-8.733-1.335-7.382-3.069-17.573-5.034-28.853s-3.622-21.486-4.8-28.9c-.553-3.622-1.013-6.6-1.351-8.779q-.184-1.443-.322-2.394A3.892,3.892,0,0,1,265.647,320.08Z" transform="translate(51.55 -16.335)" fill="#263238"/>
      <path id="Trazado_145284" data-name="Trazado 145284" d="M257.332,246a.74.74,0,0,0,.107.307l.246.89c.2.8.537,1.949.859,3.484a111.6,111.6,0,0,1,2.026,13.153,147.073,147.073,0,0,1,.506,20.074c-.261,7.674-1.059,16.069-2.21,25.016v.276h-.276l-8.794,1.627.292-.537c.506,1.351,1.013,2.793,1.412,4.282a54.417,54.417,0,0,1-1,29.636,92.778,92.778,0,0,1-10.252,22.1c-3.653,5.924-6.937,10.467-9.208,13.613l-2.655,3.591c-.276.384-.522.675-.706.921a1.25,1.25,0,0,1-.261.307s0-.123.2-.353l.645-.967c.614-.89,1.535-2.118,2.517-3.683,2.195-3.192,5.418-7.781,8.978-13.72A94.7,94.7,0,0,0,249.8,344.008c2.532-8.7,3.729-19.046.936-29.16a43.434,43.434,0,0,0-1.381-4.205l-.169-.445.476-.092,8.733-1.611-.322.338c1.166-8.917,2.01-17.327,2.3-24.939a154.3,154.3,0,0,0-.322-19.951,122.363,122.363,0,0,0-1.8-13.153c-.276-1.535-.583-2.7-.721-3.5-.077-.368-.138-.66-.184-.905A1.01,1.01,0,0,1,257.332,246Z" transform="translate(31.15 -55.947)" fill="#263238"/>
      <path id="Trazado_145285" data-name="Trazado 145285" d="M249.441,335.845V316.37s.246-4.8-3.806-3.791-3.3,8.61-3.3,8.61-.752,29.636,1.013,29.39,2.456-2.532,2.456-2.532v-11.4Z" transform="translate(39.041 -20.421)" fill="#7e5ee3"/>
      <path id="Trazado_145286" data-name="Trazado 145286" d="M265.173,328.636a67.365,67.365,0,0,1-10.452.4,67.364,67.364,0,0,1-10.451-.4,69.71,69.71,0,0,1,10.451-.4A69.711,69.711,0,0,1,265.173,328.636Z" transform="translate(40.16 -11.999)" fill="#263238"/>
      <path id="Trazado_145287" data-name="Trazado 145287" d="M293.726,267.32a14.309,14.309,0,0,1-2.179.813,49.184,49.184,0,0,0-5.8,2.5A45.116,45.116,0,0,0,270.061,284a33.424,33.424,0,0,0-3.069,5.019,32.484,32.484,0,0,0-1.842,5.157,50.846,50.846,0,0,0-1.535,9.208c-.215,2.655-.261,4.834-.276,6.323a19.712,19.712,0,0,1,0,2.333,9.44,9.44,0,0,1-.307-2.241,55.793,55.793,0,0,1,0-6.369,47.4,47.4,0,0,1,1.4-9.362,32.356,32.356,0,0,1,1.857-5.31,34.216,34.216,0,0,1,3.146-5.157,43.342,43.342,0,0,1,16.084-13.4,39.943,39.943,0,0,1,5.939-2.3A11.485,11.485,0,0,1,293.726,267.32Z" transform="translate(50.144 -44.547)" fill="#263238"/>
      <path id="Trazado_145288" data-name="Trazado 145288" d="M58.94,372.99l139.583,51.69L316.19,442.667l-139.905-68.2Z" transform="translate(-58.94 11.957)" fill="#263238"/>
      <path id="Trazado_145289" data-name="Trazado 145289" d="M101.193,419.907a59.426,59.426,0,0,0-7.459-21.148,15.365,15.365,0,0,1-1.9-3.975,4.516,4.516,0,0,1,.783-4.159c1.8-1.949,5.065-1.09,7.275.384a25.564,25.564,0,0,1,9.393,13.168,76.4,76.4,0,0,1,3.069,16.13" transform="translate(-41.461 20.782)" fill="#ffbe9d"/>
      <path id="Trazado_145290" data-name="Trazado 145290" d="M154.337,409.271H147.4a13.6,13.6,0,0,0-6.139-3.5,4.821,4.821,0,0,0-4.6,1.8c3.069-5.111,6.446-10.743,7.09-12.278,1.243-2.993-1.535-5.233-6-5.233s-24.233,27.978-24.233,27.978,12.278-22.514,13.46-25.952c2.977-8.594-6.43-9.208-9.838-5.08-4.236,5.141-21.348,31.032-21.348,31.032s-3.254,5.249-1.013,10.237,8.748,3.069,8.748,3.069a8.379,8.379,0,0,0,4.6,6.937c5,2.793,11.6-.445,11.6-.445l25.584,5.74,9.208-.921a28.361,28.361,0,0,0,25.231-24.064h0Z" transform="translate(-40.2 18.127)" fill="#ffbe9d"/>
      <path id="Trazado_145291" data-name="Trazado 145291" d="M127.629,399.28c.292.184-3.069,5.525-7.52,11.94-2.21,3.208-4.251,6.139-5.771,8.134a20.28,20.28,0,0,1-2.578,3.223,20.8,20.8,0,0,1,2.118-3.545c1.4-2.133,3.361-5.065,5.571-8.272s4.236-6.139,5.709-8.165l1.78-2.44A6.225,6.225,0,0,1,127.629,399.28Z" transform="translate(-30.696 26.015)" fill="#eb996e"/>
      <path id="Trazado_145292" data-name="Trazado 145292" d="M121.1,427.631a25.258,25.258,0,0,1,2.271-4.174c1.535-2.517,3.653-5.939,6.016-9.746,1.182-1.888,2.317-3.7,3.238-5.372a6.217,6.217,0,0,0,.568-4.742,11.792,11.792,0,0,0-2.179-4.067,4.122,4.122,0,0,1,.982.829,7.939,7.939,0,0,1,1.734,3.069,6.642,6.642,0,0,1-.445,5.233c-.921,1.734-2.041,3.561-3.208,5.464-2.379,3.806-4.6,7.182-6.231,9.623A33.453,33.453,0,0,1,121.1,427.631Z" transform="translate(-25.702 26.149)" fill="#eb996e"/>
      <path id="Trazado_145293" data-name="Trazado 145293" d="M130.989,426.708a14.318,14.318,0,0,1,1.366-3.975l1.826-4.174a34.029,34.029,0,0,0,1.872-5.141,6.046,6.046,0,0,0-.813-4.988,4.706,4.706,0,0,0-1.826-1.3,5.064,5.064,0,0,0-1.9-.537,7.694,7.694,0,0,0-2.747.967,3.27,3.27,0,0,1-1.044.43,7.026,7.026,0,0,1,.89-.706,12.828,12.828,0,0,1,1.151-.691,4.533,4.533,0,0,1,1.75-.568,5.648,5.648,0,0,1,2.179.491,5.187,5.187,0,0,1,2.118,1.443,6.584,6.584,0,0,1,1.013,5.632,29.479,29.479,0,0,1-1.98,5.279c-.721,1.535-1.412,2.931-1.98,4.1A39.624,39.624,0,0,1,130.989,426.708Z" transform="translate(-22.162 29.619)" fill="#eb996e"/>
      <path id="Trazado_145294" data-name="Trazado 145294" d="M132.92,403.76a2.728,2.728,0,0,1,1.074.322,12.546,12.546,0,0,1,2.67,1.535,14.55,14.55,0,0,1,4.128,18.509,12.546,12.546,0,0,1-1.734,2.563c-.491.537-.813.783-.844.752a22.367,22.367,0,0,0,2.072-3.561,14.794,14.794,0,0,0-3.975-17.818A36.769,36.769,0,0,0,132.92,403.76Z" transform="translate(-19.381 28.411)" fill="#eb996e"/>
      <path id="Trazado_145295" data-name="Trazado 145295" d="M107.876,394.19a75.015,75.015,0,0,1-5.786,9.208,73.829,73.829,0,0,1-6.43,8.917,73.757,73.757,0,0,1,5.771-9.208A74.7,74.7,0,0,1,107.876,394.19Z" transform="translate(-39.305 23.294)" fill="#eb996e"/>
      <path id="Trazado_145296" data-name="Trazado 145296" d="M244.154,391.327l-15.961-3.607-15.347-14.442A10.97,10.97,0,0,0,206,370.332L178.115,368.8a10.831,10.831,0,0,0-7.674,2.548L150.49,388.227l87.034,42.282,11.94,1.059Z" transform="translate(-9.986 9.704)" fill="#ffbe9d"/>
      <path id="Trazado_145297" data-name="Trazado 145297" d="M192.41,379.188c0,.123-2.057-.246-5.371-.675s-8.042-.813-12.631,1.32a32.631,32.631,0,0,0-6.016,3.76c-1.765,1.32-3.346,2.548-4.742,3.484a25.409,25.409,0,0,1-3.453,2.01,5,5,0,0,1-1.366.506c0-.123,1.826-.967,4.5-2.977,1.335-.982,2.87-2.256,4.6-3.622a31.612,31.612,0,0,1,6.139-3.9,18.067,18.067,0,0,1,7.121-1.535,31.761,31.761,0,0,1,5.909.46,37,37,0,0,1,3.9.8A4.3,4.3,0,0,1,192.41,379.188Z" transform="translate(-5.526 14.4)" fill="#eb996e"/>
      <path id="Trazado_145298" data-name="Trazado 145298" d="M191.242,389.19c0,.123-1.136-.384-3.069-.568a15.876,15.876,0,0,0-7.167,1,36.923,36.923,0,0,0-6.569,3.361,13.692,13.692,0,0,1-2.716,1.535,11.177,11.177,0,0,1,2.394-2,28.317,28.317,0,0,1,6.615-3.637,14.663,14.663,0,0,1,7.52-.813A5.7,5.7,0,0,1,191.242,389.19Z" transform="translate(1.366 19.929)" fill="#eb996e"/>
      <path id="Trazado_145299" data-name="Trazado 145299" d="M211.576,395.441c-.2.123-2.44-3.223-5.4-7.182s-5.51-7.075-5.341-7.229a35.775,35.775,0,0,1,5.97,6.753A35.21,35.21,0,0,1,211.576,395.441Z" transform="translate(16.929 16.257)" fill="#eb996e"/>
      <path id="Trazado_145300" data-name="Trazado 145300" d="M182.937,383.33l35.3-32.92a3.376,3.376,0,0,0,.178-4.771,3.474,3.474,0,0,0-.424-.385h0a3.376,3.376,0,0,0-4.313.169L172.24,382.593" transform="translate(1.644 -3.247)" fill="#7e5ee3"/>
      <g id="Grupo_73248" data-name="Grupo 73248" transform="translate(173.884 341.309)" opacity="0.3">
        <path id="Trazado_145301" data-name="Trazado 145301" d="M182.937,383.33l35.3-32.92a3.376,3.376,0,0,0,.178-4.771,3.474,3.474,0,0,0-.424-.385h0a3.376,3.376,0,0,0-4.313.169L172.24,382.593" transform="translate(-172.24 -344.556)"/>
      </g>
    </g>
  </g>
</svg>
