<svg xmlns="http://www.w3.org/2000/svg" xmlns:xlink="http://www.w3.org/1999/xlink" width="101" height="101" viewBox="0 0 101 101">
  <defs>
    <clipPath id="clip-path">
      <circle id="Elipse_4709" data-name="Elipse 4709" cx="50.5" cy="50.5" r="50.5" fill="none"/>
    </clipPath>
  </defs>
  <g id="Grupo_75302" data-name="Grupo 75302" transform="translate(-3284.811 6321.121)">
    <g id="Grupo_75290" data-name="Grupo 75290" transform="translate(2109.865 -8797.811)">
      <g id="Grupo_75029" data-name="Grupo 75029" transform="translate(1174.945 2476.689)">
        <g id="Grupo_75028" data-name="Grupo 75028">
          <g id="Grupo_75027" data-name="Grupo 75027" transform="translate(0 0)">
            <g id="Grupo_75025" data-name="Grupo 75025">
              <g id="Grupo_75024" data-name="Grupo 75024" clip-path="url(#clip-path)">
                <g id="Grupo_75023" data-name="Grupo 75023" transform="translate(-24.945 -30.06)">
                  <path id="Trazado_145963" data-name="Trazado 145963" d="M3188.722,758.138c14.474-13.627,32.425-16.181,49.257-14.026l-62.093-41.077-63.768,96.391C3142.668,801.085,3153.1,791.675,3188.722,758.138Z" transform="translate(-3109.746 -703.035)" fill="#54c7fe"/>
                  <path id="Trazado_145964" data-name="Trazado 145964" d="M3197.748,884.908l66.14-99.977-27.248-18.026c-16.832-2.156-34.783.4-49.257,14.026-35.623,33.537-46.054,42.948-76.6,41.288l-2.372,3.585Z" transform="translate(-3108.408 -725.829)" fill="#5477cd"/>
                  <g id="Grupo_75022" data-name="Grupo 75022" transform="translate(26.561 30.94)">
                    <path id="Trazado_145965" data-name="Trazado 145965" d="M3179.439,751.431a2.127,2.127,0,0,1,.986,2.047c-.058,1.709,0,3.422-.027,5.132-.01.594.2.793.784.778,1.291-.033,2.582-.011,3.874-.012a3.283,3.283,0,0,1,2.925-.005q20.418,0,40.836.007c.407,0,.841-.13,1.22.145-.36.437-.87.351-1.336.355q-2.833.024-5.664,0c-5.523.034-11.046.013-16.568.015q-16.422.007-32.844-.006c-.6,0-1.241.155-1.752-.334a14.77,14.77,0,0,1,3.912-.158c1.714-.054,1.715-.013,1.715-1.766,0-1.385.045-2.771-.016-4.152a2.11,2.11,0,0,1,.985-2.041Z" transform="translate(-3157.861 -751.431)" fill="#f2e9e5"/>
                    <path id="Trazado_145966" data-name="Trazado 145966" d="M3174.724,822.909q.005-19.306.01-38.612a1.623,1.623,0,0,1,1.278-.311q23.244-.012,46.488,0c1.355,0,1.555.226,1.586,1.586.005.226,0,.452,0,.678q0,35.689-.005,71.378a3.376,3.376,0,0,1-.244,1.892,1.845,1.845,0,0,1-1.282.293q-4.137.015-8.275,0a1.953,1.953,0,0,1-1.2-.251,1.584,1.584,0,0,1-.24-1.1q-.01-9.313,0-18.624a2.331,2.331,0,0,1,.119-.949c.377-.606,1.129-.205,1.585-.6a1.08,1.08,0,0,0,.4-1.033c.015-1.453.024-2.907,0-4.36-.017-.981-.215-1.178-1.223-1.2q-2.082-.039-4.167,0-9.277.011-18.552.005c-.354,0-.709.012-1.062.008a.972.972,0,0,0-1.131,1.1c-.008,1.449,0,2.9,0,4.348,0,.688.248,1.1,1,1.119a1,1,0,0,1,.99.481,3.76,3.76,0,0,1,.146,1.437q.005,8.867,0,17.735a2.663,2.663,0,0,1-.253,1.6,2.09,2.09,0,0,1-1.393.282q-6.63.012-13.261,0a2.221,2.221,0,0,1-1.312-.24,1.242,1.242,0,0,1-.283-.9c0-4.335-.074-8.67.031-13a1.236,1.236,0,0,1,.75-.937c5.05-2.7,6.89-9.238,5.328-14.356a11.145,11.145,0,0,0-5.27-6.871C3175.033,823.379,3174.735,823.269,3174.724,822.909Z" transform="translate(-3158.776 -763.171)" fill="#f2e9e5"/>
                    <path id="Trazado_145967" data-name="Trazado 145967" d="M3222.847,856.4q0-37.112.027-74.222c0-.894-.371-.967-1.093-.967q-23.983.024-47.964.014a13.89,13.89,0,0,1-.174-3.8c-.049-1.327-.012-1.324-1.346-1.445a1.675,1.675,0,0,1-.431-.166c.517-.474,1.161-.323,1.757-.323q17.926-.014,35.851-.007,5.573,0,11.144,0c2.288,0,4.564.376,6.858.248a.943.943,0,0,1,.8.26l0,22.681a1.315,1.315,0,0,1,.2.314,39.958,39.958,0,0,1,.1,4.833c.026,1.13,0,2.261.008,3.391s.085,1.222,1.2,1.229c2.357.014,4.715-.011,7.073.016.477.006,1.062-.156,1.327.484a1.769,1.769,0,0,1-1.373.3c-2.386.014-4.772-.009-7.157.013-.936.009-1.052.18-1.083,1.069-.025.75.3,1.034,1.031,1.031q3.675-.017,7.351,0a2.012,2.012,0,0,1,1.391.271c-.167.664-.734.51-1.163.515-2.385.033-4.77.01-7.156.017-1.425,0-1.444.026-1.446,1.47,0,1.386-.013,2.772,0,4.158.011,1,.109,1.108,1.118,1.116,2.514.019,5.029-.009,7.542.017.478.005,1.06-.152,1.331.481-.393.388-.9.306-1.372.309-2.386.013-4.772,0-7.157.007-1.431,0-1.462.038-1.467,1.459,0,.323,0,.645-.021.967.037,2.5.042,5,0,7.5.029.992.03,1.984,0,2.977q.057,3.747,0,7.494c0,.257.021.515.022.772,0,1.675.006,1.676,1.73,1.677,2.29,0,4.578-.006,6.868.005a1.9,1.9,0,0,1,1.383.29c-.24.66-.829.5-1.3.5-2.446.028-4.893.008-7.34.014-1.3,0-1.335.038-1.338,1.371-.005,3.413,0,6.825-.006,10.237a2.4,2.4,0,0,1-.258,1.5,2.162,2.162,0,0,1-1.377.269c-1.017.009-2.036.018-3.053-.006A1.25,1.25,0,0,1,3222.847,856.4Z" transform="translate(-3157.858 -760.101)" fill="#dfd1cd"/>
                    <path id="Trazado_145968" data-name="Trazado 145968" d="M3227.95,771.9c-18.481-.391-36.963-.1-55.445-.2-.322,0-.645.011-.967.017a1.029,1.029,0,0,1-.58-1.1q.02-2.691,0-5.382a1.079,1.079,0,0,1,.585-1.109q8.659.011,17.318.02,16.934.01,33.867.012c.6.27.67.808.674,1.372.014,1.637.05,3.275-.016,4.91-.03.743.133,1.026.932.986,1.377-.068,2.759-.029,4.139-.013.439,0,.911-.064,1.265.311C3229.16,772.064,3228.537,771.8,3227.95,771.9Z" transform="translate(-3157.531 -756.012)" fill="#b7abab"/>
                    <path id="Trazado_145969" data-name="Trazado 145969" d="M3285.936,811.835c1.068.231,1.169,1.016,1.168,1.925q-.015,27.206-.006,54.412c0,.419.018.838.028,1.258-.047.045-.088.121-.141.13a14,14,0,0,1-5.541-.064,3.057,3.057,0,0,1-.269-1.88q-.011-23.222-.006-46.445,0-2.709,0-5.419a8.188,8.188,0,0,0-.492-3.875,1.583,1.583,0,0,1,1.454-.285A35.366,35.366,0,0,0,3285.936,811.835Z" transform="translate(-3197.106 -773.11)" fill="#9c9595"/>
                    <path id="Trazado_145970" data-name="Trazado 145970" d="M3160.036,867.077a11.409,11.409,0,0,1-6.334-8.3c-.982-5.015.186-9.412,4.211-12.806a7.372,7.372,0,0,1,3.8-1.763,7.16,7.16,0,0,1,4.573,2.642,13.461,13.461,0,0,1,0,18,9.03,9.03,0,0,1-4.562,2.776A2.071,2.071,0,0,1,3160.036,867.077Z" transform="translate(-3151.188 -784.894)" fill="#80d161"/>
                    <path id="Trazado_145971" data-name="Trazado 145971" d="M3234.322,901.908l5.653.008c1.388,0,2.777,0,4.165.017,1.071.012,1.685.544,1.694,1.435s-.607,1.441-1.664,1.468c-.226.006-.452,0-.678,0h-91.239c-.258,0-.517.01-.775,0a1.428,1.428,0,0,1-1.521-1.413,1.409,1.409,0,0,1,1.541-1.483c2.1-.022,4.2-.006,6.3-.009.323,0,.646-.013.968-.02,1.122-.539,2.311-.192,3.468-.264.892-.04,1.784-.02,2.677-.011a1.35,1.35,0,0,1,.986.277l15.958-.008a1.15,1.15,0,0,1,.864-.247c2.883-.056,5.767-.043,8.65-.012.122,0,.244,0,.366,0,.972-.03,1.945-.023,2.917,0,3.112.006,6.225-.133,9.336.07a1.792,1.792,0,0,1,.333.18l10.628,0,5.419.006a1.924,1.924,0,0,1,1.291-.286q5.692-.009,11.382,0A1.792,1.792,0,0,1,3234.322,901.908Z" transform="translate(-3149.955 -805.597)" fill="#746e6e"/>
                    <path id="Trazado_145972" data-name="Trazado 145972" d="M3166.378,867.366a17.049,17.049,0,0,0,3.49-1.993,12.01,12.01,0,0,0,4.088-7.45,12.93,12.93,0,0,0-3-10.9,9.346,9.346,0,0,0-3.685-2.585c-.292-.12-.637-.125-.865-.387a7.736,7.736,0,0,1,4.413.134c.337.1.671.2,1.007.3a11.766,11.766,0,0,1,6.56,10.7c.157,5.175-1.893,9.244-6.614,11.738-1.134.938-2.5.859-3.839.866C3167.4,867.707,3166.758,868.014,3166.378,867.366Z" transform="translate(-3155.879 -784.745)" fill="#4fc022"/>
                    <path id="Trazado_145973" data-name="Trazado 145973" d="M3258.931,771.713c-1.9-.006-3.807-.033-5.711-.01-.656.008-.993-.006-.937-.887.116-1.832.02-3.677.046-5.517a1.763,1.763,0,0,0-.393-1.153l6.979-.058a.8.8,0,0,1,.6.874c0,1.965,0,3.929,0,5.893C3259.519,771.268,3259.428,771.633,3258.931,771.713Z" transform="translate(-3186.74 -755.997)" fill="#9c9595"/>
                    <path id="Trazado_145974" data-name="Trazado 145974" d="M3165.422,880.421c.51.283,1.1.048,1.625.261.483.221.444.678.447,1.08q.036,5.681,0,11.362a1.311,1.311,0,0,1-.3.987h-3.471q.021-7.065.043-14.129Z" transform="translate(-3154.923 -797.799)" fill="#d77e49"/>
                    <path id="Trazado_145975" data-name="Trazado 145975" d="M3260.113,807.057l0-.213c1.323,0,2.647-.029,3.97.013.665.021.906-.18.893-.871-.04-2-.027-4-.008-6,.012-1.268.545-1.871,1.57-1.862.939.008,1.324.389,1.329,1.371.01,2.131.035,4.262-.014,6.392-.018.775.223,1.013.987.978,1.224-.057,2.453-.013,3.68-.012a.232.232,0,0,1-.115.318,2.323,2.323,0,0,1-1.134.18q-4.931.011-9.864,0A1.839,1.839,0,0,1,3260.113,807.057Z" transform="translate(-3189.688 -768.271)" fill="#f2e9e5"/>
                    <path id="Trazado_145976" data-name="Trazado 145976" d="M3279.515,808.33c0-.056,0-.112,0-.168.328-.32.18-.73.185-1.1.019-1.286.007-2.573.008-3.86a1.322,1.322,0,0,1,1.173-1.414,1.28,1.28,0,0,1,1.594,1.039,20.459,20.459,0,0,1,.132,4.032c.037,1.293.009,1.274,1.311,1.3.532.013,1.092-.17,1.6.146l-5.23.038A.511.511,0,0,1,3279.515,808.33Z" transform="translate(-3196.687 -769.585)" fill="#f2e9e5"/>
                    <path id="Trazado_145977" data-name="Trazado 145977" d="M3195.417,760.565l-2.926.005c0-1.38-.019-2.76.019-4.14a1.544,1.544,0,0,1,1.1-1.626,1.407,1.407,0,0,1,1.585.614,1.3,1.3,0,0,1,.212.91Q3195.412,758.448,3195.417,760.565Z" transform="translate(-3165.296 -752.625)" fill="#f2e9e5"/>
                    <path id="Trazado_145978" data-name="Trazado 145978" d="M3222.64,865.353c-.494.322-1.052.075-1.571.177a5.552,5.552,0,0,1-3.229.232,57.351,57.351,0,0,0-6.384-.088,18.341,18.341,0,0,0-3.118,0c-2.856-.11-5.714-.023-8.571-.05a2.555,2.555,0,0,1-1.138-.106,1.457,1.457,0,0,0-1.119-.163c-.814.055-1.09-.336-1.082-1.1.018-1.644.029-3.289,0-4.933-.018-.892.388-1.19,1.235-1.18,2.224.028,4.449.007,6.674.01q6.624.009,13.25.024c.628.261.649.82.655,1.374.014,1.508.04,3.017-.011,4.524-.025.719.235.985.942.955.8-.034,1.6-.022,2.406,0C3221.954,865.045,3222.357,865.008,3222.64,865.353Z" transform="translate(-3166.717 -789.923)" fill="#b7abab"/>
                    <path id="Trazado_145979" data-name="Trazado 145979" d="M3199.862,869.578a1.263,1.263,0,0,1,.738-.174q4.151,0,8.3,0a1.287,1.287,0,0,1,.738.176c.411.333.354.81.355,1.25q.018,9.135,0,18.271a1.534,1.534,0,0,1-.3,1.183h-.2a1.554,1.554,0,0,1-.269-1.192q-.008-7.352-.007-14.7c0-.388.085-.767.091-.965a2.427,2.427,0,0,1-.373.955c-2.535,5-4.942,10.074-7.6,15.015a1.853,1.853,0,0,1-.713.889l-.782.008Q3199.853,879.934,3199.862,869.578Z" transform="translate(-3167.949 -793.984)" fill="#6bd8e6"/>
                    <path id="Trazado_145980" data-name="Trazado 145980" d="M3219.564,869.562c.306-.257.673-.152,1.017-.164,2.915-.1,5.822.18,8.735.182q0,10.345.008,20.692l-.092.016-.093-.01c-.343-.29-.3-.694-.3-1.075q-.013-8.9-.007-17.8c0-.288.065-.568.084-.924a2.646,2.646,0,0,1-.343.947q-4.044,8.088-8.091,16.175a2.5,2.5,0,0,1-.581.882c-.2.163-.346.1-.459-.111a3.457,3.457,0,0,1-.145-1.341q-.005-7.991,0-15.982A2.2,2.2,0,0,1,3219.564,869.562Z" transform="translate(-3174.963 -793.973)" fill="#6bd8e6"/>
                    <path id="Trazado_145981" data-name="Trazado 145981" d="M3169.071,894.109q0-6.15,0-12.3a1.847,1.847,0,0,0-.15-1.13,14.475,14.475,0,0,0,3.771-.7q.023,7.067.043,14.134Z" transform="translate(-3156.795 -797.798)" fill="#c76d35"/>
                    <path id="Trazado_145982" data-name="Trazado 145982" d="M3241.782,790.851q.03,5.13.061,10.259c0,.461-.207.742-.69.742q-3,.007-6,0a.456.456,0,0,1-.494-.371,19.125,19.125,0,0,1,2.261-3.787c1.3-2.137,2.674-4.234,4.06-6.32C3241.154,791.108,3241.233,790.589,3241.782,790.851Z" transform="translate(-3180.506 -765.624)" fill="#00c6dc"/>
                    <path id="Trazado_145983" data-name="Trazado 145983" d="M3190.491,832.963c-.43-.221-.384-.633-.385-1.009-.006-3.03.01-6.06-.012-9.09-.006-.811.266-1.163,1.127-1.138,1.739.049,3.48.011,5.221.018.28,0,.588-.082.815.179a1.667,1.667,0,0,1-.463,1.21C3194.679,826.4,3192.6,829.688,3190.491,832.963Z" transform="translate(-3164.433 -776.786)" fill="#6bd8e6"/>
                    <path id="Trazado_145984" data-name="Trazado 145984" d="M3219.662,790.889q.034,5.128.066,10.258c0,.458-.207.741-.693.742q-3,0-6,0a.454.454,0,0,1-.492-.371,18.543,18.543,0,0,1,2.1-3.542c1.343-2.11,2.66-4.237,4.051-6.316C3218.921,791.316,3219.067,790.8,3219.662,790.889Z" transform="translate(-3172.529 -765.66)" fill="#00c6dc"/>
                    <path id="Trazado_145985" data-name="Trazado 145985" d="M3212.42,832.606c-.315-.244-.189-.593-.191-.9q-.014-4.34,0-8.68c0-1.217.079-1.287,1.33-1.289,1.607,0,3.215-.008,4.822.006.338,0,.714-.122,1,.18.121.361-.124.611-.287.872-1.9,3.033-3.844,6.041-5.783,9.051C3213.1,832.174,3212.968,832.651,3212.42,832.606Z" transform="translate(-3172.409 -776.785)" fill="#6bd8e6"/>
                    <path id="Trazado_145986" data-name="Trazado 145986" d="M3197.537,790.884c.183,3.419.038,6.841.074,10.261a.641.641,0,0,1-.7.742q-3,0-6.007,0a.452.452,0,0,1-.492-.371,3.547,3.547,0,0,1,.745-1.438c1.8-2.807,3.59-5.623,5.4-8.423C3196.79,791.307,3196.944,790.8,3197.537,790.884Z" transform="translate(-3164.55 -765.658)" fill="#00c6dc"/>
                    <path id="Trazado_145987" data-name="Trazado 145987" d="M3241.625,822.046c.34.229.214.584.216.885.01,3.036-.011,6.073.018,9.109.007.766-.2,1.119-1.039,1.1-1.775-.047-3.552-.006-5.329-.021-.316,0-.758.162-.836-.391a29.6,29.6,0,0,1,2.436-4.03c1.223-1.965,2.5-3.9,3.738-5.853C3241.032,822.523,3241.2,822.153,3241.625,822.046Z" transform="translate(-3180.506 -776.902)" fill="#00c6dc"/>
                    <path id="Trazado_145988" data-name="Trazado 145988" d="M3241.509,821.932q-3.1,4.857-6.216,9.71c-.22.341-.356.761-.754.969-.307-.249-.183-.6-.183-.9q-.014-4.341,0-8.682c0-1.2.085-1.282,1.236-1.285,1.672,0,3.344-.006,5.016,0C3240.911,821.749,3241.254,821.644,3241.509,821.932Z" transform="translate(-3180.389 -776.788)" fill="#6bd8e6"/>
                    <path id="Trazado_145989" data-name="Trazado 145989" d="M3197.418,790.736a5.667,5.667,0,0,0-1.419,1.912c-1.819,2.814-3.613,5.644-5.421,8.464a1.5,1.5,0,0,1-.281.256c-.281-.215-.193-.527-.194-.8-.005-2.961.019-5.923-.016-8.884-.011-.922.311-1.249,1.248-1.212,1.7.066,3.411.01,5.117.026C3196.782,790.5,3197.175,790.35,3197.418,790.736Z" transform="translate(-3164.431 -765.51)" fill="#6bd8e6"/>
                    <path id="Trazado_145990" data-name="Trazado 145990" d="M3219.543,790.741a8.265,8.265,0,0,0-1.742,2.394c-1.7,2.621-3.364,5.267-5.048,7.9a2.235,2.235,0,0,1-.333.336c-.306-.249-.188-.6-.189-.9-.009-2.934.019-5.869-.021-8.8-.011-.86.223-1.226,1.145-1.195,1.739.059,3.482.008,5.223.024C3218.908,790.5,3219.3,790.353,3219.543,790.741Z" transform="translate(-3172.41 -765.512)" fill="#6bd8e6"/>
                    <path id="Trazado_145991" data-name="Trazado 145991" d="M3212.541,832.72a32.934,32.934,0,0,0,2.778-4.123c1.437-2.157,2.794-4.368,4.184-6.557.338.224.223.577.224.879.01,3.021-.02,6.043.021,9.063.012.889-.288,1.185-1.174,1.155-1.733-.058-3.471-.01-5.206-.024C3213.053,833.11,3212.614,833.273,3212.541,832.72Z" transform="translate(-3172.53 -776.899)" fill="#00c6dc"/>
                    <path id="Trazado_145992" data-name="Trazado 145992" d="M3241.666,790.739a7.958,7.958,0,0,0-1.763,2.443c-1.739,2.654-3.427,5.343-5.139,8.016-.048.075-.148.116-.224.173-.3-.251-.183-.6-.184-.9-.009-2.933.019-5.867-.02-8.8-.011-.86.22-1.227,1.142-1.195,1.739.059,3.481.009,5.222.024C3241.03,790.5,3241.422,790.354,3241.666,790.739Z" transform="translate(-3180.39 -765.512)" fill="#6bd8e6"/>
                    <path id="Trazado_145993" data-name="Trazado 145993" d="M3190.715,833.074c.153-1.249,1.094-2.076,1.7-3.072,1.632-2.691,3.373-5.316,5.07-7.968.344.22.239.574.239.878.009,3.034-.015,6.068.019,9.1.01.836-.269,1.146-1.121,1.119C3194.651,833.072,3192.683,833.089,3190.715,833.074Z" transform="translate(-3164.657 -776.898)" fill="#00c6dc"/>
                    <path id="Trazado_145994" data-name="Trazado 145994" d="M3234.579,865.354c-1.348-.009-2.7-.026-4.043-.023-.493,0-.751.033-.7-.705.127-1.853.04-3.721.06-5.582,0-.362-.227-.586-.374-.862,1.512-.008,3.024-.005,4.536-.031.786-.014,1.1.352,1.09,1.116-.019,1.705-.007,3.411-.006,5.116C3235.142,864.817,3235.128,865.241,3234.579,865.354Z" transform="translate(-3178.655 -789.924)" fill="#9c9595"/>
                    <path id="Trazado_145995" data-name="Trazado 145995" d="M3272.506,812.035l.772.019a1.787,1.787,0,0,1,.788,1.551q-.025,28-.021,56l-13.959,0c.005-4.126.028-8.252,0-12.378-.005-.752.191-1,.97-.985,2.771.045,5.544.022,8.316.013.341,0,.717.116,1.006-.19a.946.946,0,0,1,.119-.363c.741-1.352.351-2.04-1.22-2.059-2.6-.032-5.2,0-7.807-.015-.471,0-.977.089-1.365-.309l0-7.519a1.86,1.86,0,0,1,1.378-.3c2.48-.008,4.96,0,7.44,0a3.511,3.511,0,0,0,1.242-.132,1.076,1.076,0,0,0,0-2.049,3.509,3.509,0,0,0-1.242-.132c-2.48,0-4.96,0-7.44,0a1.86,1.86,0,0,1-1.378-.3l0-7.518c.387-.4.893-.308,1.364-.31,2.474-.01,4.948,0,7.422-.006a4.564,4.564,0,0,0,1.056-.064,1.058,1.058,0,0,0,.753-1.677,1.788,1.788,0,0,1-.323-.689c-.289-.306-.666-.189-1.007-.19-2.773-.01-5.548-.035-8.321.013-.791.013-.983-.251-.963-.994q.07-2.707,0-5.417c-.02-.749.182-1.005.968-.991,2.708.047,5.418.022,8.127.013.342,0,.716.114,1.014-.173a.935.935,0,0,1,.219-.309c.907-.985.869-1.373-.217-2.225a.7.7,0,0,1-.192-.209c-.3-.276-.674-.166-1.018-.167-2.644-.009-5.289-.034-7.932.013-.783.014-.979-.24-.969-.99.039-2.966.017-5.933.018-8.9Z" transform="translate(-3189.679 -773.291)" fill="#b7abab"/>
                    <path id="Trazado_145996" data-name="Trazado 145996" d="M3260.113,860.258c3.186,0,6.372,0,9.558.017a1.438,1.438,0,0,1,1.448,2.138,1.539,1.539,0,0,1-1.545.767c-3.154-.006-6.307,0-9.461.007Z" transform="translate(-3189.689 -790.685)" fill="#f2e9e5"/>
                    <path id="Trazado_145997" data-name="Trazado 145997" d="M3270,827.808a1.3,1.3,0,0,1,1.282,1.286,1.345,1.345,0,0,1-1.093,1.457c-3.062,0-6.125-.031-9.187,0-.731.008-.945-.221-.922-.937.071-2.128-.258-1.763,1.8-1.783C3264.589,827.807,3267.3,827.815,3270,827.808Z" transform="translate(-3189.678 -778.98)" fill="#f2e9e5"/>
                    <path id="Trazado_145998" data-name="Trazado 145998" d="M3270.325,844.137c.621.41,1.1.865.817,1.729-.293.883-.963,1-1.752,1-3.112,0-6.224.008-9.336.014.037-.862-.362-1.961.155-2.524.572-.623,1.7-.2,2.589-.209C3265.306,844.113,3267.815,844.136,3270.325,844.137Z" transform="translate(-3189.627 -784.827)" fill="#f2e9e5"/>
                    <path id="Trazado_145999" data-name="Trazado 145999" d="M3260.1,876.6c3.112.006,6.224.017,9.336.014.789,0,1.459.12,1.752,1,.287.864-.2,1.318-.816,1.729-3.12,0-6.241-.02-9.362.015-.718.008-.993-.2-.927-.927C3260.14,877.828,3260.1,877.213,3260.1,876.6Z" transform="translate(-3189.676 -796.58)" fill="#f2e9e5"/>
                    <path id="Trazado_146000" data-name="Trazado 146000" d="M3219.615,888.987a2.715,2.715,0,0,0,.583-.989q4.166-8.305,8.32-16.618a2.085,2.085,0,0,1,.634-.814v20.141l-9.6,0A1.557,1.557,0,0,1,3219.615,888.987Z" transform="translate(-3174.977 -794.403)" fill="#00c6dc"/>
                    <path id="Trazado_146001" data-name="Trazado 146001" d="M3201.065,892.333l8.7-17.245.172.021q0,8.612,0,17.225Z" transform="translate(-3168.39 -796.034)" fill="#00c6dc"/>
                    <path id="Trazado_146002" data-name="Trazado 146002" d="M3218.115,888.547q-.031.858-.062,1.716h-2.834l-.052-20.7a5.185,5.185,0,0,1,2.91-.007Q3218.1,879.05,3218.115,888.547Z" transform="translate(-3173.477 -793.963)" fill="#f2e9e5"/>
                  </g>
                </g>
              </g>
            </g>
            <g id="Grupo_75026" data-name="Grupo 75026" transform="translate(3.802 0.88)">
              <path id="Trazado_146003" data-name="Trazado 146003" d="M3179.439,751.431a2.127,2.127,0,0,1,.986,2.047c-.058,1.709,0,3.422-.027,5.132-.01.594.2.793.784.778,1.291-.033,2.582-.011,3.874-.012a3.283,3.283,0,0,1,2.925-.005q20.418,0,40.836.007c.407,0,.841-.13,1.22.145-.36.437-.87.351-1.336.355q-2.833.024-5.664,0c-5.523.034-11.046.013-16.568.015q-16.422.007-32.844-.006c-.6,0-1.241.155-1.752-.334a14.77,14.77,0,0,1,3.912-.158c1.714-.054,1.715-.013,1.715-1.766,0-1.385.045-2.771-.016-4.152a2.11,2.11,0,0,1,.985-2.041Z" transform="translate(-3160.046 -751.431)" fill="#f2e9e5"/>
              <path id="Trazado_146004" data-name="Trazado 146004" d="M3227.95,771.9c-18.481-.391-36.963-.1-55.445-.2-.322,0-.645.011-.967.017a1.029,1.029,0,0,1-.58-1.1q.02-2.691,0-5.382a1.079,1.079,0,0,1,.585-1.109q8.659.011,17.318.02,16.934.01,33.867.012c.6.27.67.808.674,1.372.014,1.637.05,3.275-.016,4.91-.03.743.133,1.026.932.986,1.377-.068,2.759-.029,4.139-.013.439,0,.911-.064,1.265.311C3229.16,772.064,3228.537,771.8,3227.95,771.9Z" transform="translate(-3159.716 -756.012)" fill="#b7abab"/>
              <path id="Trazado_146005" data-name="Trazado 146005" d="M3258.931,771.713c-1.9-.006-3.807-.033-5.711-.01-.656.008-.993-.006-.937-.887.116-1.832.02-3.677.046-5.517a1.763,1.763,0,0,0-.393-1.153l6.979-.058a.8.8,0,0,1,.6.874c0,1.965,0,3.929,0,5.893C3259.519,771.268,3259.428,771.633,3258.931,771.713Z" transform="translate(-3188.925 -755.997)" fill="#9c9595"/>
              <path id="Trazado_146006" data-name="Trazado 146006" d="M3279.515,808.33c0-.056,0-.112,0-.168.328-.32.18-.73.185-1.1.019-1.286.007-2.573.008-3.86a1.322,1.322,0,0,1,1.173-1.414,1.28,1.28,0,0,1,1.594,1.039,20.459,20.459,0,0,1,.132,4.032c.037,1.293.009,1.274,1.311,1.3.532.013,1.092-.17,1.6.146l-5.23.038A.511.511,0,0,1,3279.515,808.33Z" transform="translate(-3198.872 -769.585)" fill="#f2e9e5"/>
              <path id="Trazado_146007" data-name="Trazado 146007" d="M3195.417,760.565l-2.926.005c0-1.38-.019-2.76.019-4.14a1.544,1.544,0,0,1,1.1-1.626,1.407,1.407,0,0,1,1.585.614,1.3,1.3,0,0,1,.212.91Q3195.412,758.448,3195.417,760.565Z" transform="translate(-3167.481 -752.625)" fill="#f2e9e5"/>
              <path id="Trazado_146008" data-name="Trazado 146008" d="M3160.036,867.077a11.409,11.409,0,0,1-6.334-8.3c-.982-5.015.186-9.412,4.211-12.806a7.372,7.372,0,0,1,3.8-1.763,7.16,7.16,0,0,1,4.573,2.642,13.461,13.461,0,0,1,0,18,9.03,9.03,0,0,1-4.562,2.776A2.071,2.071,0,0,1,3160.036,867.077Z" transform="translate(-3153.373 -784.894)" fill="#80d161"/>
              <path id="Trazado_146009" data-name="Trazado 146009" d="M3166.378,867.366a17.049,17.049,0,0,0,3.49-1.993,12.01,12.01,0,0,0,4.088-7.45,12.93,12.93,0,0,0-3-10.9,9.346,9.346,0,0,0-3.685-2.585c-.292-.12-.637-.125-.865-.387a7.736,7.736,0,0,1,4.413.134c.337.1.671.2,1.007.3a11.766,11.766,0,0,1,6.56,10.7c.157,5.175-1.893,9.244-6.614,11.738-1.134.938-2.5.859-3.839.866C3167.4,867.707,3166.758,868.014,3166.378,867.366Z" transform="translate(-3158.064 -784.745)" fill="#4fc022"/>
            </g>
          </g>
        </g>
      </g>
    </g>
  </g>
</svg>
