<svg xmlns="http://www.w3.org/2000/svg" width="155" height="155" viewBox="0 0 155 155">
  <g id="Grupo_75145" data-name="Grupo 75145" transform="translate(-5185 13145)">
    <g id="Grupo_75132" data-name="Grupo 75132">
      <rect id="Rectángulo_32801" data-name="Rectángulo 32801" width="155" height="155" transform="translate(5185 -13145)" fill="none"/>
      <path id="Trazado_146286" data-name="Trazado 146286" d="M46.792,13.971H44.937V19H41.509V4.781h5.6A6.246,6.246,0,0,1,51.06,5.9a3.8,3.8,0,0,1,1.426,3.17,4.616,4.616,0,0,1-.6,2.458A4.263,4.263,0,0,1,50,13.112l2.969,5.741V19H49.3Zm-1.855-2.637H47.1a1.946,1.946,0,0,0,1.47-.514,1.987,1.987,0,0,0,.493-1.434,2.01,2.01,0,0,0-.5-1.444A1.928,1.928,0,0,0,47.1,7.418H44.937ZM59.517,19.2a5.432,5.432,0,0,1-3.936-1.45,5.008,5.008,0,0,1-1.5-3.774V13.7a6.489,6.489,0,0,1,.6-2.861,4.395,4.395,0,0,1,1.753-1.919,5.292,5.292,0,0,1,2.734-.679A4.574,4.574,0,0,1,62.681,9.62a5.43,5.43,0,0,1,1.289,3.853v1.279H57.427a2.372,2.372,0,0,0,.771,1.4,2.3,2.3,0,0,0,1.543.508,2.958,2.958,0,0,0,2.441-1.094l1.5,1.777a4.2,4.2,0,0,1-1.743,1.353A5.891,5.891,0,0,1,59.517,19.2Zm-.371-8.418q-1.445,0-1.719,1.914h3.32v-.254a1.63,1.63,0,0,0-.4-1.226A1.593,1.593,0,0,0,59.146,10.777Zm11.68,5.254a.76.76,0,0,0-.439-.674,6.685,6.685,0,0,0-1.67-.527,7.615,7.615,0,0,1-2.031-.718,3.4,3.4,0,0,1-1.221-1.079,2.577,2.577,0,0,1-.42-1.455,2.92,2.92,0,0,1,1.2-2.4,4.948,4.948,0,0,1,3.145-.942,5.482,5.482,0,0,1,3.359.947,2.962,2.962,0,0,1,1.27,2.49h-3.3q0-1.27-1.338-1.27a1.326,1.326,0,0,0-.869.288.892.892,0,0,0-.352.718.819.819,0,0,0,.43.713,4.06,4.06,0,0,0,1.372.449,11.857,11.857,0,0,1,1.655.42A3.007,3.007,0,0,1,74,15.934a2.767,2.767,0,0,1-1.284,2.354,5.631,5.631,0,0,1-3.325.908,5.747,5.747,0,0,1-2.422-.488,4.05,4.05,0,0,1-1.66-1.328,3.007,3.007,0,0,1-.6-1.768h3.076a1.272,1.272,0,0,0,.488,1.069,2.009,2.009,0,0,0,1.2.337,1.58,1.58,0,0,0,1.011-.273A.875.875,0,0,0,70.825,16.031Zm14.521-2.236a6.372,6.372,0,0,1-1.108,3.931,3.554,3.554,0,0,1-2.993,1.47,3.046,3.046,0,0,1-2.393-1.064v4.932H75.562V8.434h3.076l.1.977a3.046,3.046,0,0,1,2.49-1.172,3.582,3.582,0,0,1,3.037,1.44,6.45,6.45,0,0,1,1.084,3.96Zm-3.291-.205q0-2.812-1.641-2.812a1.549,1.549,0,0,0-1.562.84v4.16a1.6,1.6,0,0,0,1.582.879q1.572,0,1.621-2.715ZM91.909,19.2a5.432,5.432,0,0,1-3.936-1.45,5.008,5.008,0,0,1-1.5-3.774V13.7a6.489,6.489,0,0,1,.6-2.861,4.395,4.395,0,0,1,1.753-1.919,5.292,5.292,0,0,1,2.734-.679A4.574,4.574,0,0,1,95.073,9.62a5.43,5.43,0,0,1,1.289,3.853v1.279H89.819a2.372,2.372,0,0,0,.771,1.4,2.3,2.3,0,0,0,1.543.508,2.958,2.958,0,0,0,2.441-1.094l1.5,1.777a4.2,4.2,0,0,1-1.743,1.353A5.891,5.891,0,0,1,91.909,19.2Zm-.371-8.418q-1.445,0-1.719,1.914h3.32v-.254a1.63,1.63,0,0,0-.4-1.226A1.593,1.593,0,0,0,91.538,10.777Zm9.98-4.971V8.434h1.738v2.285h-1.738v4.834a1.234,1.234,0,0,0,.215.83,1.152,1.152,0,0,0,.85.234,4.828,4.828,0,0,0,.82-.059v2.354a6.074,6.074,0,0,1-1.855.283,3.448,3.448,0,0,1-2.51-.8,3.282,3.282,0,0,1-.811-2.432V10.719H96.88V8.434h1.348V5.807Zm2.324,7.813a6.236,6.236,0,0,1,.615-2.817,4.4,4.4,0,0,1,1.768-1.9,5.323,5.323,0,0,1,2.705-.664,4.858,4.858,0,0,1,3.74,1.47,5.64,5.64,0,0,1,1.367,4v.117a5.472,5.472,0,0,1-1.372,3.921,4.871,4.871,0,0,1-3.716,1.45,4.927,4.927,0,0,1-3.623-1.353,5.29,5.29,0,0,1-1.475-3.667Zm3.291.205a3.932,3.932,0,0,0,.459,2.148,1.529,1.529,0,0,0,1.357.684q1.758,0,1.8-2.705v-.332q0-2.842-1.816-2.842-1.65,0-1.787,2.451Z" transform="translate(5185 -13029.273)" fill="#12263f"/>
      <path id="Trazado_146287" data-name="Trazado 146287" d="M42.5,0A42.5,42.5,0,1,1,0,42.5,42.5,42.5,0,0,1,42.5,0Z" transform="translate(5219.676 -13130)" fill="#7e5ee3"/>
      <g id="Grupo_62201" data-name="Grupo 62201" transform="translate(4910.462 -14123)">
        <g id="Grupo_60430" data-name="Grupo 60430" transform="translate(330.214 1005)">
          <g id="magnetism">
            <path id="Trazado_129150" data-name="Trazado 129150" d="M374.7,1024.283h.007a5.465,5.465,0,1,0-.007-10.929h0a5.465,5.465,0,1,0,0,10.929Zm0-8.986h0a3.522,3.522,0,1,1,0,7.043h0v-.018a3.513,3.513,0,0,1,0-7.026Z" transform="translate(-353.356 -1009.954)" fill="#fff"/>
            <path id="Trazado_129151" data-name="Trazado 129151" d="M406,1015.808h.074a5.4,5.4,0,0,0,.048-10.808H406a5.4,5.4,0,1,0,0,10.808h0Zm0-8.865h0a3.492,3.492,0,0,1,3.5,3.487v.011a3.412,3.412,0,0,1-3.4,3.428H406a3.461,3.461,0,0,1,0-6.922Z" transform="translate(-371.951 -1005)" fill="#fff"/>
            <path id="Trazado_129152" data-name="Trazado 129152" d="M331.145,1049.187h11.7v2.559a.992.992,0,0,0,1,.963H359.28a.929.929,0,0,0,.93-.927c0-.012,0-.024,0-.036v-2.559h11.821a.9.9,0,0,0,.929-.861c0-.02,0-.04,0-.06v-7.121a7.461,7.461,0,0,0-7.421-7.5h-2.354a7.639,7.639,0,0,0-6.891,4.346,7.522,7.522,0,0,0-3.579-.946h-2.291a7.536,7.536,0,0,0-3.571.94,7.585,7.585,0,0,0-6.864-4.34H337.72a7.461,7.461,0,0,0-7.505,7.417c0,.02,0,.039,0,.059v7.145a.9.9,0,0,0,.869.921h.06Zm32.041-13.6h2.282a5.523,5.523,0,0,1,5.553,5.492v6.167H360.21v-2.62a7.491,7.491,0,0,0-2.18-5.338c-.049-.049-.092-.066-.138-.112a5.713,5.713,0,0,1,5.295-3.59Zm-12.76,3.4h2.288a5.524,5.524,0,0,1,3.94,1.657,5.588,5.588,0,0,1,1.613,3.978v6.147H344.788V1044.6a5.651,5.651,0,0,1,5.639-5.615Zm-18.267,2.135a5.523,5.523,0,0,1,5.513-5.532h2.317a5.622,5.622,0,0,1,5.237,3.581,7.449,7.449,0,0,0-2.382,5.431v2.65H332.158Z" transform="translate(-330.214 -1021.986)" fill="#fff"/>
            <path id="Trazado_129153" data-name="Trazado 129153" d="M343.581,1015.808h0a5.424,5.424,0,0,0,5.441-5.4h0a5.425,5.425,0,0,0-5.44-5.41h0a5.4,5.4,0,0,0,0,10.808Zm-2.473-7.852a3.466,3.466,0,0,1,2.476-1.013h0a3.465,3.465,0,0,1,2.471,1.013,3.408,3.408,0,0,1,1.024,2.433,3.49,3.49,0,0,1-3.5,3.476h0a3.474,3.474,0,0,1-3.5-3.45v-.017a3.4,3.4,0,0,1,1.023-2.441Z" transform="translate(-334.935 -1005)" fill="#fff"/>
            <path id="Trazado_129154" data-name="Trazado 129154" d="M377.264,1103.423a.959.959,0,0,0-.687-.276h0l-5.405-.006a.966.966,0,0,0-.971.962h0l-.017,8.642a4.129,4.129,0,0,1-4.105,4.121h-.005a4.1,4.1,0,0,1-4.081-4.114l.01-4.846c0-.034,0-.068,0-.1v-.092l.006-3.6a.971.971,0,0,0-.967-.975h0l-5.4.017a.969.969,0,0,0-.966.969l0,3.682h0l-.022,4.948a11.374,11.374,0,0,0,11.351,11.4h.077a11.491,11.491,0,0,0,11.461-11.45l.007-4.493a.9.9,0,0,0,0-.2l.005-3.913a.953.953,0,0,0-.284-.682Zm-1.657,1.648v2.08l-3.464.006v-2.082Zm-15.54.026v1.749l-3.462.006v-1.742Zm6,17.12h-.031a9.433,9.433,0,0,1-9.453-9.414v-.046l.008-3.971,3.462-.006-.009,3.963a6.047,6.047,0,0,0,6.023,6.07h.008a6.075,6.075,0,0,0,6.047-6.064l.007-3.641,3.464-.012-.005,3.609a9.544,9.544,0,0,1-9.523,9.51Z" transform="translate(-344.702 -1063.197)" fill="#fff"/>
            <path id="Trazado_129155" data-name="Trazado 129155" d="M361.408,1090.3a.991.991,0,0,0,.971-.991l.01-3.381a.967.967,0,0,0-.967-.967h0a.96.96,0,0,0-.971.949v0l-.01,3.4a.984.984,0,0,0,.968.989Z" transform="translate(-348.138 -1052.417)" fill="#fff"/>
            <path id="Trazado_129156" data-name="Trazado 129156" d="M370.841,1096.615l2.393-2.393a.971.971,0,1,0-1.373-1.373l-2.393,2.393a.972.972,0,1,0,1.326,1.421c.016-.016.032-.031.048-.048Z" transform="translate(-353.308 -1056.925)" fill="#fff"/>
            <path id="Trazado_129157" data-name="Trazado 129157" d="M351.261,1095.095a.971.971,0,0,0,0-1.373h0l-2.393-2.393a.971.971,0,0,0-1.373,1.373l2.393,2.393a.971.971,0,0,0,1.373,0Z" transform="translate(-340.293 -1056.024)" fill="#fff"/>
            <path id="Trazado_129158" data-name="Trazado 129158" d="M400.979,1090.188a.949.949,0,0,0,.971-.928v-.016l.006-3.348a.937.937,0,0,0-.947-.926h-.023a.947.947,0,0,0-.971.923v.017l-.005,3.35a.937.937,0,0,0,.941.933h.029Z" transform="translate(-371.603 -1052.422)" fill="#fff"/>
            <path id="Trazado_129159" data-name="Trazado 129159" d="M412.308,1093.421a.971.971,0,0,0-1.373-1.373l-2.393,2.393a.972.972,0,0,0,1.374,1.374Z" transform="translate(-376.502 -1056.45)" fill="#fff"/>
            <path id="Trazado_129160" data-name="Trazado 129160" d="M390.355,1095.367a.971.971,0,0,0,.687-1.657l-2.393-2.393a.972.972,0,0,0-1.374,1.373l2.393,2.393a.967.967,0,0,0,.687.285Z" transform="translate(-363.896 -1056.03)" fill="#fff"/>
          </g>
        </g>
      </g>
    </g>
  </g>
</svg>
