<svg xmlns="http://www.w3.org/2000/svg" width="100" height="104.406" viewBox="0 0 100 104.406">
  <g id="Grupo_75305" data-name="Grupo 75305" transform="translate(-3282 6780.783)">
    <g id="d8L36R" transform="translate(1497.257 -7491.783)">
      <g id="Grupo_75000" data-name="Grupo 75000" transform="translate(1784.743 711)">
        <path id="Trazado_145721" data-name="Trazado 145721" d="M2055.086,1118.729a43.987,43.987,0,0,1-6.981,8.016,51.74,51.74,0,0,1-29.02,13.37,3.775,3.775,0,0,0-1.913.372h-1.481a1.145,1.145,0,0,0-1.058,0h-2.539c-.472-.232-.975-.054-1.46-.109-.429.055-.877-.12-1.291.109h-.635a1.066,1.066,0,0,0-.032-.208,2.068,2.068,0,0,1-.309-1.412q-.01-9.4,0-18.79a2.27,2.27,0,0,1,.283-1.423,2.321,2.321,0,0,1,1.523-.3q21.661-.011,43.322,0C2054.046,1118.355,2054.64,1118.251,2055.086,1118.729Z" transform="translate(-1964.804 -1036.082)" fill="#febc85"/>
        <path id="Trazado_145722" data-name="Trazado 145722" d="M2072.538,711a7.972,7.972,0,0,1,4.038,2.677,4.449,4.449,0,0,1,1.347,3.43c.043,1.586.01,3.173.013,4.759,0,1.71,0,1.708,1.674,1.721a4.663,4.663,0,0,1,1.366.093c.232.072.594.119.367.535a2.282,2.282,0,0,1-1.327.241q-7.9.01-15.8,0a3.194,3.194,0,0,1-1.245-.156c-.488-.275-.451-.764-.456-1.211-.021-1.971-.051-3.944.006-5.914a6.739,6.739,0,0,1,2.231-4.853,5.569,5.569,0,0,1,3.134-1.321Z" transform="translate(-2006.323 -711)" fill="#fd9801"/>
        <path id="Trazado_145723" data-name="Trazado 145723" d="M2044.149,711a8.794,8.794,0,0,0-3.243,1.836,6.449,6.449,0,0,0-1.827,4.464c-.032,2.256-.009,4.513-.009,6.77-.042.1-.079.213-.172.259-1.811.912-2.24,2.473-2.088,4.34a1.676,1.676,0,0,1-.326,1.492,11.968,11.968,0,0,1-3.885.22,2.859,2.859,0,0,1-.212-1.448q-.008-5.763,0-11.526c0-.623-.094-1.291.492-1.758A6.572,6.572,0,0,1,2037.8,711Z" transform="translate(-1982.126 -711)" fill="#fa8701"/>
        <path id="Trazado_145724" data-name="Trazado 145724" d="M2018.7,1221.941c.5.07,1.039-.2,1.489.205h-1.481c-.068-.043-.092-.088-.072-.134S2018.677,1221.941,2018.7,1221.941Z" transform="translate(-1970.962 -1117.74)" fill="#fec596"/>
        <path id="Trazado_145725" data-name="Trazado 145725" d="M2014.261,1221.946c0,.068.007.137.008.206H2013C2013.366,1221.751,2013.841,1222.017,2014.261,1221.946Z" transform="translate(-1966.476 -1117.746)" fill="#fed8b8"/>
        <path id="Trazado_145726" data-name="Trazado 145726" d="M2038,1222.122a.711.711,0,0,1,1.058,0Z" transform="translate(-1986.376 -1117.716)" fill="#fecea7"/>
        <path id="Trazado_145727" data-name="Trazado 145727" d="M1870.033,1079.071a47.369,47.369,0,0,1-13.942-5.521,50.7,50.7,0,0,1-13.573-11.391,9.528,9.528,0,0,1-.1-1.259c.009-4.783.023-9.566,0-14.349-.011-1.977.713-3.406,2.661-4.069a17.287,17.287,0,0,1,3.436-.114q9.1-.089,18.19,0c2.32.018,3.667,1.536,3.675,4.008.02,6.8.006,13.608.007,20.412,0,3.561.007,7.121-.006,10.682C1870.374,1078.017,1870.481,1078.608,1870.033,1079.071Z" transform="translate(-1830.212 -976.146)" fill="#9b9b9b"/>
        <path id="Trazado_145728" data-name="Trazado 145728" d="M1891.238,1040.5q0-16.529,0-33.058a3.183,3.183,0,0,0-3.414-3.33q-9.082-.021-18.165-.029a2.972,2.972,0,0,1-.263-2.241,5.562,5.562,0,0,1,1.307-3.571,6.6,6.6,0,0,1,2.194-.167c.739,0,1.478.006,2.217.012a6.342,6.342,0,0,0,5.935-3.525c.221-.394.348-.861.832-1.048a38.545,38.545,0,0,1,4.932-.111c.123,0,.246.01.369.011a20.218,20.218,0,0,1,5.616.439,8.976,8.976,0,0,1,6.586,9.216c-.03,2.36,0,4.721-.007,7.083.067,2.938.02,5.874.025,8.811a1.7,1.7,0,0,1-.3,1.192q-.017,9.373-.036,18.746c0,.947-.017,1.895-.027,2.843A40.431,40.431,0,0,1,1891.238,1040.5Z" transform="translate(-1852.328 -937.579)" fill="#89c8fd"/>
        <path id="Trazado_145729" data-name="Trazado 145729" d="M1919.817,732.946a10.177,10.177,0,0,0-.15,1.243q-.011,6.782,0,13.564a.693.693,0,0,1-.272.745,3.468,3.468,0,0,0-.944,2.9c.038.629.006,1.262.007,1.893,0,2.214.743,3.193,2.861,3.789,1.912-.153,2.711.845,3.138,2.627a6.369,6.369,0,0,0,2.512,3.426c.311.239.991.395.587,1.074a9.092,9.092,0,0,1-2.539.163c-1.512-.045-3.024-.008-4.536-.01-2.839,0-3.511.561-4.009,3.334a1.061,1.061,0,0,1-.659.622,5.317,5.317,0,0,0-3.1,3.047c-.073.185-.176.389-.45.339a5.6,5.6,0,0,1-2.238-4.526c.115-2.2-.145-4.412.138-6.611a1.767,1.767,0,0,1,.839-.769,6.568,6.568,0,0,0,3.216-7.029,11.351,11.351,0,0,0-11.716-10.215c-2.112,0-4.223-.005-6.337.01-2.1.036-4.21-.016-6.312.092-.314.016-.636.065-.884-.206a50.388,50.388,0,0,1,20.8-8.672A51.788,51.788,0,0,1,1919.817,732.946Z" transform="translate(-1868.196 -728.297)" fill="#e1e1e1"/>
        <path id="Trazado_145730" data-name="Trazado 145730" d="M1841.2,776.852a42.208,42.208,0,0,1,7.422-.209c-.082.646-.654.549-1.05.643a15.158,15.158,0,0,0-9.376,6.561,13.725,13.725,0,0,0-2.378,7.669c-.058,9.758-.04,19.516-.012,29.274a6.227,6.227,0,0,0,4,5.939c.357.166.863.149.969.682l-2.328.069c-2.876.642-5.575.441-7.879-1.653a8.165,8.165,0,0,1-2.16-6.011c-.035-8.953-.047-17.907.017-26.86a8.869,8.869,0,0,1,.7-4.228,16,16,0,0,1,5.481-8.759A16.318,16.318,0,0,1,1841.2,776.852Z" transform="translate(-1819.144 -762.704)" fill="#6d3326"/>
        <path id="Trazado_145731" data-name="Trazado 145731" d="M1794.721,834a49.425,49.425,0,0,0-.318,7.683c0,7.853.019,15.706-.014,23.558a7.776,7.776,0,0,0,2.075,5.778c.077.394-.174.664-.374.943a7.79,7.79,0,0,0-1.493,5.031,2.076,2.076,0,0,1-.264,1.514,2.547,2.547,0,0,1-1.44.221c-2.849.031-3.75.95-3.785,3.834-.006.543.16,1.142-.334,1.591a38.7,38.7,0,0,1-2.878-9,49.084,49.084,0,0,1-1.074-13.284,52.815,52.815,0,0,1,3.759-16.855A51.752,51.752,0,0,1,1794.721,834Z" transform="translate(-1784.743 -809.729)" fill="#e1e1e1"/>
        <path id="Trazado_145732" data-name="Trazado 145732" d="M1803.808,1048.19q.021-1.255.041-2.511a3.127,3.127,0,0,1,3.25-3.213l2.2-.031a8.9,8.9,0,0,1,5.339.06c-1.935.826-2.391,2.366-2.353,4.343.088,4.638.032,9.279.021,13.919,0,.4.166.853-.223,1.189a49.235,49.235,0,0,1-8.055-12.953A5.742,5.742,0,0,1,1803.808,1048.19Z" transform="translate(-1799.774 -975.116)" fill="#828282"/>
        <path id="Trazado_145733" data-name="Trazado 145733" d="M2151.868,785.994a51.241,51.241,0,0,1,14.586,18.287,50.173,50.173,0,0,1,4.442,14.427,50.562,50.562,0,0,1-3.412,27.81,5.986,5.986,0,0,1-4.054.043,3.132,3.132,0,0,1-.289-1.948c-.009-11.383-.044-22.766.02-34.148.017-2.946-.937-4.362-4.271-4.273-4.4.117-8.809.031-13.215.027a5.575,5.575,0,0,1-1.573-.109c-.753-.393-.13-.685.115-.908a11.268,11.268,0,0,0,1.665-1.586,8.073,8.073,0,0,0,1.578-3.282,1.336,1.336,0,0,1,1.57-1.288,2.713,2.713,0,0,0,1.138-.136c2.062-.564,2.855-1.585,2.864-3.69,0-.492-.028-.985.006-1.474a4.19,4.19,0,0,0-1.153-3.672,1.184,1.184,0,0,1-.307-.663C2151.589,788.263,2151.2,787.083,2151.868,785.994Z" transform="translate(-2071.541 -770.127)" fill="#e1e1e1"/>
        <path id="Trazado_145734" data-name="Trazado 145734" d="M2010.122,1080.824l-.005-10.145c1.008-.621,2.116-.236,3.178-.317,1.3-.054,2.592-.021,3.888-.018a1.885,1.885,0,0,1,1.207.276,2.26,2.26,0,0,1,.289,1.421c.023.81-.049,1.623.047,2.429a1.8,1.8,0,0,0,1.689,1.735,10.292,10.292,0,0,0,1.583.053q17.648,0,35.3.008c.651,0,1.351-.167,1.922.338a19.12,19.12,0,0,1-2.746,4.258c-.773-.011-1.547-.031-2.321-.031Q2032.135,1080.825,2010.122,1080.824Z" transform="translate(-1966.187 -997.343)" fill="#e99a58"/>
        <path id="Trazado_145735" data-name="Trazado 145735" d="M2089.853,1076.568l-38.142-.006c-2.015,0-2.727-.711-2.729-2.72q0-1.585-.005-3.17c.41-.455.964-.347,1.476-.354.875-.013,1.75-.034,2.625.013.131,0,.263,0,.4,0,.917-.03,1.835-.021,2.753,0,1.477-.041,2.954-.036,4.431,0q6.614-.067,13.226,0,1.72-.049,3.442,0c1.474-.038,2.948-.041,4.422,0,1-.022,2.005-.039,3.008,0,1.337.088,2.71-.321,4.01.286l4,.04A31.023,31.023,0,0,1,2089.853,1076.568Z" transform="translate(-1996.825 -997.181)" fill="#f5a86c"/>
        <path id="Trazado_145736" data-name="Trazado 145736" d="M2140.312,736.812q-.022,1.795-.044,3.59a17.714,17.714,0,0,1-3.75-.3,1.7,1.7,0,0,1-.326-1.488c.108-1.844-.266-3.433-2.088-4.341-.093-.047-.13-.161-.172-.258a6.532,6.532,0,0,0-2.689-.144c-.851.021-1.183-.2-1.138-1.107.072-1.433-.046-2.875.036-4.307a8.667,8.667,0,0,0-1.057-4.837c1.408.007,2.818-.04,4.222.033a7.321,7.321,0,0,1,6.965,7.245C2140.31,732.87,2140.3,734.841,2140.312,736.812Z" transform="translate(-2059.188 -720.946)" fill="#fa8701"/>
        <path id="Trazado_145737" data-name="Trazado 145737" d="M2065.195,772.775a3.336,3.336,0,0,1,2.524,3.617c.007.765.031,1.529.048,2.294a2.474,2.474,0,0,1,.3,1.525c.006,2.144,0,4.289,0,6.433,0,1.432,0,1.432,1.363,1.8a.8.8,0,0,1,.441.268c-.124.058-.26.184-.372.165-1.413-.241-1.969.355-2.278,1.762a8.043,8.043,0,0,1-3.717,4.8,1.5,1.5,0,0,1-.754.667,3.015,3.015,0,0,1-.691.25,1.186,1.186,0,0,0-1.016,1.45,9.125,9.125,0,0,1-.012,1.47c-.03.329.033.727-.41.873-.62-.557-.368-1.3-.4-1.971-.054-1.242-.094-1.331-1.309-1.328-2.028,0-4.054-.058-6.081-.028a8.1,8.1,0,0,1-1.63-.071,17.026,17.026,0,0,1-2.225-.678,1.439,1.439,0,0,1-.709-.634,8.706,8.706,0,0,1-4.024-5.918c-.08-.5-.368-.605-.806-.633-.514-.033-1.061.175-1.537-.179a.8.8,0,0,1,.441-.268c1.357-.364,1.36-.364,1.362-1.8,0-2.144,0-4.289,0-6.433a2.48,2.48,0,0,1,.3-1.525c.017-.73.044-1.46.047-2.19.01-2.072.609-2.963,2.523-3.723Z" transform="translate(-1990.189 -759.704)" fill="#fdd1a3"/>
        <path id="Trazado_145738" data-name="Trazado 145738" d="M2032,800.722c.012,3.064.007,6.127.046,9.191.009.68-.274.86-.882.817-.42-.029-.844.007-1.267.014a3.407,3.407,0,0,1-3.171-3.413c-.011-.56.038-1.124-.013-1.68a4.82,4.82,0,0,1,1.524-4.455C2029.433,800.582,2030.733,800.79,2032,800.722Z" transform="translate(-1977.441 -782.496)" fill="#febc86"/>
        <path id="Trazado_145739" data-name="Trazado 145739" d="M1835.054,1016.411l-5.338-.06c-.054-2.285.05-4.534,1.506-6.468.23-.305.462-.608.694-.912a7.552,7.552,0,0,0,5.785,1.707c.593-.045,1.193.014,1.79.026a10.268,10.268,0,0,0-1.051,5.651Z" transform="translate(-1820.192 -948.378)" fill="#60b6fe"/>
        <path id="Trazado_145740" data-name="Trazado 145740" d="M1867.28,827.366a6.885,6.885,0,0,1-5.166-5.263,5.487,5.487,0,0,1-.11-1.253q-.008-14.484,0-28.967a15.362,15.362,0,0,1,12.579-15.043c.21-.039.423-.035.552-.242,2.919.04,5.865-.316,8.75.242a11.494,11.494,0,0,1,9.2,13.309,6.236,6.236,0,0,1-3.959,4.617c-.471-.416-.263-.981-.328-1.487-.047-.364.161-.879-.284-1.034-.411-.143-.665.315-.929.578q-2.591,2.566-5.161,5.155c-1.54,1.549-3.112,3.066-4.616,4.651-.321.338-.667.688-1.184.508a1.156,1.156,0,0,1-.712-1.19c-.041-.951.009-1.9-.025-2.854-.037-1.009-.431-1.3-1.431-1.1a3.118,3.118,0,0,0-2.624,3.018c-.057,1.408-.03,2.819-.012,4.228a3.191,3.191,0,0,0,2.909,3.429c1.541.288,1.729.5,1.738,2.086.015,2.713-.01,5.426.017,8.141.028.881.037,1.761-.009,2.64a1.927,1.927,0,0,1-.491,1.251C1874.147,826.64,1872.264,827.632,1867.28,827.366Z" transform="translate(-1846.5 -762.661)" fill="#873f2e"/>
        <path id="Trazado_145741" data-name="Trazado 145741" d="M1911.556,875.208c-.011-2.815-.043-5.63-.024-8.445.006-.866-.251-1.27-1.194-1.309a3.442,3.442,0,0,1-3.5-3.677c-.014-1.408-.026-2.816.007-4.223a3.49,3.49,0,0,1,3.436-3.447c.795-.029,1.28.238,1.25,1.146-.035,1.055,0,2.112-.009,3.167,0,.43-.033.9.475,1.061.457.149.686-.257.951-.523q4.909-4.947,9.813-9.9a6.58,6.58,0,0,1,.68-.662c.562-.421.959-.243,1.01.432.06.8.011,1.618.01,2.427-.009,2.534,0,5.069-.038,7.6-.019,1.184.872,1.873,1.382,2.768a6.8,6.8,0,0,0,.726.894,4.3,4.3,0,0,1,1.867,2.45c.338.957-.164,1.641-1.189,1.813a5.515,5.515,0,0,1-1.053.045,1.315,1.315,0,0,0-1.612,1.221,9.032,9.032,0,0,1-6.4,7.021,1.315,1.315,0,0,0-1.079,1.492c.006.887.275,1.825-.26,2.666l-.1.013-.1-.012c-.547-.763-.276-1.636-.318-2.462-.057-1.127-.1-1.2-1.206-1.223-.775-.014-1.55.008-2.325-.01A1.553,1.553,0,0,1,1911.556,875.208Z" transform="translate(-1882.174 -820.62)" fill="#fdd1a3"/>
        <path id="Trazado_145742" data-name="Trazado 145742" d="M1996.714,904.447c.709-.073,1.591.231,2.013-.565.459-.867-.238-1.518-.677-2.179-.29-.437-.613-.853-.921-1.279a4.681,4.681,0,0,1,2.958-3.475c.278-.137.579-.228.87-.339a.847.847,0,0,1,.558-.267c1.7,0,3.412-.32,5.09.2.167.587-.369.613-.662.74a5.075,5.075,0,0,0-3.188,5.121q0,14.583-.007,29.165c0,.618.146,1.28-.32,1.824l-3.151.041c-.009-2.138-.095-4.279-.009-6.413a10.042,10.042,0,0,0-2.566-7.327,2.926,2.926,0,0,1-.335-1.523q0-6.165.005-12.329A1.918,1.918,0,0,1,1996.714,904.447Z" transform="translate(-1953.39 -859.213)" fill="#f7f5f5"/>
        <path id="Trazado_145743" data-name="Trazado 145743" d="M1963.283,934.836q-.006,7.625-.013,15.25a10.512,10.512,0,0,0-7.939-2.547c-.453.021-.908-.01-1.362-.017,0-1.161.011-2.321,0-3.482-.006-.451.125-.638.617-.768a8.681,8.681,0,0,0,6.838-7.026C1961.642,935.15,1962.146,934.625,1963.283,934.836Z" transform="translate(-1919.585 -889.437)" fill="#e1e1e1"/>
        <path id="Trazado_145744" data-name="Trazado 145744" d="M1928.3,975.928c1.369,0,2.74.044,4.107-.008.762-.029.973.26.94.975-.048,1.015-.011,2.035-.011,3.053l-5.278.043A25.717,25.717,0,0,0,1928.3,975.928Z" transform="translate(-1898.891 -921.975)" fill="#febc86"/>
        <path id="Trazado_145745" data-name="Trazado 145745" d="M2023.746,883.846l-5.691-.041c-.049-2.651,1.07-3.8,3.7-3.8,1.646,0,3.293.014,4.94.021.066.315-.177.444-.376.565a3.273,3.273,0,0,0-1.7,2.747.75.75,0,0,1-.254.561A.535.535,0,0,1,2023.746,883.846Z" transform="translate(-1970.64 -845.591)" fill="#9b9b9b"/>
        <path id="Trazado_145746" data-name="Trazado 145746" d="M2047.888,883.7c-.187-1.843.84-2.937,2.317-3.753l2.766-.043a.821.821,0,0,1,.652.407,7.464,7.464,0,0,1-2.821,3.655C2049.82,884,2048.81,884.318,2047.888,883.7Z" transform="translate(-1994.329 -845.514)" fill="#ababab"/>
        <path id="Trazado_145747" data-name="Trazado 145747" d="M2140.926,880.312a.815.815,0,0,1,.652-.408l16.076.021c2.333,0,3.6,1.257,3.6,3.578q.006,18.509.008,37.018l-4.1-.015a2.822,2.822,0,0,1-.254-1.742q-.012-13.885,0-27.771a16.279,16.279,0,0,0-.191-2.523,4.97,4.97,0,0,0-4.99-4.395c-2.111-.052-4.223-.008-6.335-.015a8.572,8.572,0,0,1-1.578-.073A7.168,7.168,0,0,1,2140.926,880.312Z" transform="translate(-2069.321 -846.237)" fill="#ababab"/>
        <path id="Trazado_145748" data-name="Trazado 145748" d="M2166.135,810.747c-2.137-.068-2.141-.068-2.136-2.2q.01-3.909.033-7.817c1.266.067,2.566-.141,3.763.473,2.273,1.951,1.5,4.568,1.4,6.969C2169.149,809.485,2167.586,810.583,2166.135,810.747Z" transform="translate(-2086.82 -782.498)" fill="#febc86"/>
        <path id="Trazado_145749" data-name="Trazado 145749" d="M2029.86,897.845l3.178.037c.122.463-.251.7-.472,1q-2.624,3.514-5.258,7.02c-1.054,1.411-.981,1.783.558,2.712.936.565,1.844,1.17,2.742,1.791,1.064.737,1.053,1.1-.035,1.85-.87.6-1.76,1.169-2.636,1.76-1.281.865-1.318.97-.538,2.253,2.175,3.583,4.244,7.229,6.444,10.8a4.554,4.554,0,0,1,.748,2.687c-.055,1.231-.006,2.465-.017,3.7,0,.413.083.857-.27,1.2l-4.229.081-5.07-.069q0-15.537,0-31.074a5.22,5.22,0,0,1,3.858-5.482,2.917,2.917,0,0,0,.365-.189Z" transform="translate(-1976.195 -860.482)" fill="#fefefe"/>
        <path id="Trazado_145750" data-name="Trazado 145750" d="M2102.49,967.437l-13.316-.028c-.472-.54-.33-1.2-.331-1.819q-.014-11.93,0-23.859c0-1.447,0-1.43-1.457-1.459a4.012,4.012,0,0,1-2.167-.257c-.12-.633.412-.529.718-.571a15.257,15.257,0,0,1,2.3-.021,5.525,5.525,0,0,1,1.364.079,3.386,3.386,0,0,0,.828.147,1.015,1.015,0,0,1,1.164,1.165c-.019.879.42,1.171,1.243,1.142,1.054-.037,2.111.012,3.167-.012,1.335-.014,2.668-.009,4,0,.776,0,1.3-.24,1.334-1.109.038-.885.542-1.211,1.388-1.188,1.648.045,3.3-.071,4.947.061.936.361.875,1.191.879,1.954q.032,5.536,0,11.073a15.193,15.193,0,0,1-.154,3.777.768.768,0,0,1-.608.4c-1.084.063-2.173-.011-3.26.036-1.515.065-1.995.854-1.33,2.218a.91.91,0,0,1-.037,1.067,1.419,1.419,0,0,0-.115,1.676,1.273,1.273,0,0,1-.02,1.388c-.2.345-.356.8-.119,1.1C2103.817,965.579,2102.889,966.462,2102.49,967.437Z" transform="translate(-2024.598 -893.426)" fill="#0181fb"/>
        <path id="Trazado_145751" data-name="Trazado 145751" d="M2161.56,924q0-7.75.009-15.5c0-.584.005-1.154-.741-1.308a6.812,6.812,0,0,1-1.143-.029,4.292,4.292,0,0,1-1.1-1.261c-1.739-2.253-3.388-4.575-5.156-6.807-.246-.311-.63-.6-.51-1.093l7.6,0c3.914,0,6.066,2,6.085,5.938.048,10.278,0,20.556-.006,30.834l-2.879.027c-.342-.7.146-1.348.123-2.042-.06-1.75-.055-3.5-.009-5.255a2.8,2.8,0,0,0-1.822-3.09A.811.811,0,0,1,2161.56,924Z" transform="translate(-2078.761 -860.604)" fill="#fefefe"/>
        <path id="Trazado_145752" data-name="Trazado 145752" d="M2038.963,922.018a33.708,33.708,0,0,1,.029-3.7,7.547,7.547,0,0,0-1.453-5.012c-2.109-3.361-4.1-6.8-6.143-10.2a.975.975,0,0,1,.4-1.5c1.2-.79,2.386-1.615,3.6-2.392.6-.383.624-.667.007-1.05-1.253-.779-2.5-1.572-3.722-2.395a1.277,1.277,0,0,1-.341-2.135q3.172-4.195,6.358-8.379l2.557-3.425,2.111.678a5.773,5.773,0,0,1,.165,3.7c-.167.824-1.1.571-1.695.776-1.274.318-1.312.355-1.313,1.95q-.009,15.588-.01,31.175c0,.652.157,1.353-.355,1.919l-.1.005Z" transform="translate(-1980.956 -847.767)" fill="#e9f5fe"/>
        <path id="Trazado_145753" data-name="Trazado 145753" d="M2082.118,941.979c1.161,0,2.322.01,3.483,0,.407,0,.574.032.572.564-.033,8.969-.028,17.939-.031,26.909H2081.7a1.8,1.8,0,0,1-.343-1.393q-.012-12.238.011-24.476C2081.372,942.978,2081.146,942.173,2082.118,941.979Z" transform="translate(-2020.977 -895.477)" fill="#0172fa"/>
        <path id="Trazado_145754" data-name="Trazado 145754" d="M2073.059,912.749c-.577.242-.415.757-.415,1.189q-.008,13.142,0,26.283h-2.776q0-16.843-.008-33.685c0-1.57.1-1.665,1.7-1.626a7.352,7.352,0,0,1,1.518,2.119c.985,1.495,1.912,3.026,2.828,4.563.167.281.491.537.284.94C2075.153,912.68,2074.079,912.33,2073.059,912.749Z" transform="translate(-2011.862 -866.081)" fill="#22b17f"/>
        <path id="Trazado_145755" data-name="Trazado 145755" d="M2182.451,1020.891c2.049.585,2.578,1.274,2.58,3.369,0,1.481-.018,2.961.007,4.441a6.712,6.712,0,0,1-.421,2.99h-4.446a1.737,1.737,0,0,1-.718-1.45c-.048-2.237-.106-4.478.021-6.712a2.462,2.462,0,0,1,2.369-2.58Z" transform="translate(-2099.653 -957.962)" fill="#fdd1a3"/>
        <path id="Trazado_145756" data-name="Trazado 145756" d="M2171.936,1021.006a3.005,3.005,0,0,0-2.117,3.335c.046,1.546.031,3.094,0,4.64a5.692,5.692,0,0,0,.442,2.766l-3.41.007a1.91,1.91,0,0,1,.579-1.717c.3-.234.1-.362-.075-.55a1.485,1.485,0,0,1-.1-2.168c.289-.343.291-.5,0-.844a1.464,1.464,0,0,1,.1-2.163c.267-.266.263-.378,0-.629a1.45,1.45,0,0,1-.333-1.819,1.614,1.614,0,0,1,1.644-.9C2169.76,1021,2170.848,1020.994,2171.936,1021.006Z" transform="translate(-2089.069 -958.018)" fill="#febc86"/>
        <path id="Trazado_145757" data-name="Trazado 145757" d="M2135.555,885.255c2.289,3.009,4.634,5.976,6.788,9.086a33.24,33.24,0,0,1-4.3.109c-.41.018-.573-.264-.627-.585-.131-.773-.653-.891-1.311-.9a3.372,3.372,0,0,1-1.953-.279.9.9,0,0,1-.232-.285,20.51,20.51,0,0,1-.15-3.936c-.052-1.194-.16-1.32-1.4-1.43-.6-.155-1.524.2-1.5-.942.011-.56.03-1.12.031-1.68,0-2.123,0-2.123,2.1-2.585Z" transform="translate(-2060.619 -847.169)" fill="#e9f5fe"/>
        <path id="Trazado_145758" data-name="Trazado 145758" d="M2082.539,896.867l-4.63-7.622a1.374,1.374,0,0,1,.49-.138c.887.106,1.07-.345,1.028-1.125-.052-.98-.008-1.964-.006-2.947h1.677a6.129,6.129,0,0,0,2.083.084c.625-.013.965.2.93.823-.071,1.249.455,2.621-.8,3.637-.379.308-.082.718.112,1.05.638,1.093,1.331,2.153,2,3.227a2.4,2.4,0,0,1,.533,1.458c-.23,1.779-.23,1.779-2.108,1.6Z" transform="translate(-2018.316 -849.711)" fill="#f5a86c"/>
        <path id="Trazado_145759" data-name="Trazado 145759" d="M2097.644,895.083a35.949,35.949,0,0,0-2.562-4.337c-.409-.715-.886-1.334.292-1.785.355-.136.382-.56.363-.928-.007-.141.008-.282,0-.423-.052-.766.307-1.7-.163-2.256s-1.4-.124-2.118-.22a1.989,1.989,0,0,1-.47-.192c2.283,0,4.567.028,6.85-.025.808-.019,1.014.258,1.008,1.027a5.825,5.825,0,0,0,.159,2.584c.247.809.952.527,1.5.627a.449.449,0,0,1,.007.494,41.285,41.285,0,0,1-3.416,5.352A1.987,1.987,0,0,1,2097.644,895.083Z" transform="translate(-2030.369 -849.592)" fill="#febc85"/>
        <path id="Trazado_145760" data-name="Trazado 145760" d="M2089.119,851.409a6.955,6.955,0,0,1-4.191-1.671c-.976-.9-1.212-1.808-.574-2.533s1.6-.669,2.634.123a3.659,3.659,0,0,0,4.843-.029,4.545,4.545,0,0,1,.419-.319,1.671,1.671,0,0,1,2.265.348,1.568,1.568,0,0,1-.36,2.171A7.2,7.2,0,0,1,2089.119,851.409Z" transform="translate(-2023.241 -819.073)" fill="#e99a58"/>
        <path id="Trazado_145761" data-name="Trazado 145761" d="M2100.631,814.13a2.4,2.4,0,0,1-2.717-2.667c0-.808.017-1.616,0-2.424a1.386,1.386,0,0,1,1.281-1.53,1.459,1.459,0,0,1,1.707,1.057,1.96,1.96,0,0,1,.173.815,1.5,1.5,0,0,0,1.09,1.872c.973.357.857,2-.085,2.515A2.73,2.73,0,0,1,2100.631,814.13Z" transform="translate(-2034.169 -787.856)" fill="#e99b58"/>
        <path id="Trazado_145762" data-name="Trazado 145762" d="M2131.022,798.516a6.653,6.653,0,0,1-.014,1.258,1.454,1.454,0,0,1-1.438,1.3,1.437,1.437,0,0,1-1.569-1.122,6.254,6.254,0,0,1-.046-2.705,1.4,1.4,0,0,1,1.628-1.18,1.472,1.472,0,0,1,1.457,1.5c.009.315,0,.631,0,.947Z" transform="translate(-2057.953 -778.741)" fill="#e99b58"/>
        <path id="Trazado_145763" data-name="Trazado 145763" d="M2075.1,798.588a6.868,6.868,0,0,1-.009,1.049,1.533,1.533,0,0,1-1.458,1.412,1.559,1.559,0,0,1-1.671-1.421,13.811,13.811,0,0,1-.015-2,1.581,1.581,0,1,1,3.159.009c.02.314,0,.63,0,.946Z" transform="translate(-2013.43 -778.703)" fill="#e99b58"/>
        <path id="Trazado_145764" data-name="Trazado 145764" d="M1964.146,888.584c0,1.79-.482,2.528-1.656,2.522-1.065,0-1.515-.757-1.514-2.536,0-.317-.017-.635.007-.95a1.58,1.58,0,1,1,3.16.014C1964.166,887.949,1964.146,888.267,1964.146,888.584Z" transform="translate(-1925.077 -850.408)" fill="#e99b58"/>
        <path id="Trazado_145765" data-name="Trazado 145765" d="M2135.374,931.685a6.234,6.234,0,0,0,2.487.158c.741.01,1.149.257,1.069,1.039-.064.626.243.77.8.753,1.292-.04,2.586-.036,3.878-.05l1.121.105c-1.646.02-3.29.074-4.932.044-.7-.012-.89.228-.884.9.013,1.41-.093,1.483-1.5,1.48s-2.8-.02-4.2-.031a1.122,1.122,0,0,1-.713-1.169c-.028-.666-.023-1.332,0-2a1.172,1.172,0,0,1,1.3-1.3A7.088,7.088,0,0,1,2135.374,931.685Z" transform="translate(-2061.928 -886.695)" fill="#9b9b9b"/>
        <path id="Trazado_145766" data-name="Trazado 145766" d="M2114.485,930.467c-.5.411-1.084.153-1.628.21-.352.037-.86-.009-.862.408-.006,1.266-.474,2.588.332,3.785-1.23.014-2.461.016-3.691.049-.658.017-1.056-.258-.963-.923.157-1.13-.223-1.65-1.4-1.456-.084.014-.187-.08-.28-.124a1.256,1.256,0,0,1,.31-.039c.925.115,1.584-.052,1.407-1.222-.022-.146.123-.318.191-.477a3.71,3.71,0,0,1,1.441-.205,8.147,8.147,0,0,1,5.121.008Z" transform="translate(-2040.7 -885.47)" fill="#828383"/>
        <path id="Trazado_145767" data-name="Trazado 145767" d="M2126.936,910.644l-5.121-.008,3.413-5.721c1.625-.054,1.735.048,1.733,1.661C2126.959,907.932,2126.945,909.288,2126.936,910.644Z" transform="translate(-2053.215 -865.448)" fill="#22b17f"/>
      </g>
    </g>
  </g>
</svg>
