<svg xmlns="http://www.w3.org/2000/svg" xmlns:xlink="http://www.w3.org/1999/xlink" width="327.477" height="325.809" viewBox="0 0 327.477 325.809">
  <defs>
    <clipPath id="clip-path">
      <path id="Trazado_146359" data-name="Trazado 146359" d="M108.907-14.626c55.4-2.946,118.5-11.239,142.053,0,53.359,25.459,32.859,103.617,32.859,161.23,0,21.937,10.174,83.071,0,102.624-21.123,40.6-76.746,33.2-117.4,46.544a122.762,122.762,0,0,1-37.985,6.4c-70.583,0-150.179-67.1-150.179-149.882,0-58.193-42.664-127.3,5.65-157.746C4.113-18.188,54.783-11.748,108.907-14.626Z" transform="translate(97.393 9.877)" fill="#e4ddfa"/>
    </clipPath>
    <clipPath id="clip-path-2">
      <path id="Trazado_146326" data-name="Trazado 146326" d="M91.525,275.582l24.716-3.873A92.369,92.369,0,1,0,161.269,98.691c-50.988,0-90.885,41.346-91.489,92.372-.324,27.276,9.826,50.935,29.8,68.725a19.7,19.7,0,0,1-1.253,7.821A22.619,22.619,0,0,1,91.525,275.582Z" transform="translate(-69.772 -98.691)" fill="none"/>
    </clipPath>
  </defs>
  <g id="Grupo_75176" data-name="Grupo 75176" transform="translate(-4650.282 8365.496)">
    <path id="Trazado_146297" data-name="Trazado 146297" d="M158.061,0C70.766,0,0,72.478,0,161.885S70.766,323.77,158.061,323.77s158.061-72.478,158.061-161.885S245.355,0,158.061,0Z" transform="translate(4658.455 -8365.496)" fill="#e4ddfa"/>
    <g id="Grupo_75175" data-name="Grupo 75175" transform="translate(4592.024 -8351.738)" clip-path="url(#clip-path)">
      <g id="Grupo_75174" data-name="Grupo 75174" transform="translate(81.3 0)">
        <g id="background" transform="translate(55.856 101.341)">
          <g id="Grupo_75148" data-name="Grupo 75148">
            <path id="Trazado_146298" data-name="Trazado 146298" d="M163.36,287.928a95.655,95.655,0,1,0-81.285-45.205l10.17,13.494c.052.067.108.134.164.2,1.938,2.138,3.983,4.2,6.095,6.145a15.139,15.139,0,0,1-1.009,5.448,20,20,0,0,1-5.845,6.818A2.859,2.859,0,0,0,93.728,280l23.861-3.737A95.55,95.55,0,0,0,163.36,287.928Zm0-185.617a89.948,89.948,0,1,1-43.842,168.474,2.863,2.863,0,0,0-1.843-.329l-16.47,2.578a18.878,18.878,0,0,0,1.513-2.685,22.693,22.693,0,0,0,1.516-9.09,2.866,2.866,0,0,0-.95-2.086,91.954,91.954,0,0,1-6.549-6.508l-9.947-13.177A89.974,89.974,0,0,1,163.36,102.311ZM94.53,254.493h0Z" transform="translate(-67.69 -96.59)" fill="#1e5259"/>
          </g>
          <ellipse id="Elipse_4739" data-name="Elipse 4739" cx="92.376" cy="92.375" rx="92.376" ry="92.375" transform="translate(3.005 3.616)" fill="#6a8f9b"/>
          <path id="Trazado_146299" data-name="Trazado 146299" d="M68.216,187.813a1.419,1.419,0,0,0,1.2-.649L91,154.15a1.426,1.426,0,0,0,.191-1.143,1.443,1.443,0,0,0-.723-.907L61.3,136.854a1.432,1.432,0,0,0-1.327,2.537L87.746,153.9,67.02,185.6a1.43,1.43,0,0,0,1.2,2.213Z" transform="translate(114.704 -67.67)" fill="#6a8f9b"/>
        </g>
        <g id="window_4" data-name="window 4" transform="translate(128.683 0)">
          <rect id="Rectángulo_32808" data-name="Rectángulo 32808" width="134.611" height="126.826" rx="4.85" transform="translate(1.431 1.429)" fill="#fff"/>
          <path id="Trazado_146300" data-name="Trazado 146300" d="M66.539,50.777a3.69,3.69,0,1,0,3.69-3.69A3.69,3.69,0,0,0,66.539,50.777Z" transform="translate(46.574 -30.949)" fill="#81f2ef"/>
          <path id="Trazado_146301" data-name="Trazado 146301" d="M80.686,50.777a3.69,3.69,0,1,0,3.69-3.69A3.69,3.69,0,0,0,80.686,50.777Z" transform="translate(8.077 -30.949)" fill="#81f2ef"/>
          <path id="Trazado_146302" data-name="Trazado 146302" d="M94.832,50.777a3.69,3.69,0,1,0,3.69-3.69A3.69,3.69,0,0,0,94.832,50.777Z" transform="translate(-30.417 -30.949)" fill="#81f2ef"/>
          <path id="Trazado_146303" data-name="Trazado 146303" d="M108.979,50.777a3.689,3.689,0,1,0,3.69-3.69A3.69,3.69,0,0,0,108.979,50.777Z" transform="translate(-68.912 -30.949)" fill="#81f2ef"/>
          <path id="Trazado_146304" data-name="Trazado 146304" d="M123.125,50.777a3.69,3.69,0,1,0,3.69-3.69A3.69,3.69,0,0,0,123.125,50.777Z" transform="translate(-107.407 -30.949)" fill="#81f2ef"/>
          <g id="Grupo_75149" data-name="Grupo 75149" transform="translate(0)">
            <path id="Trazado_146305" data-name="Trazado 146305" d="M66.451,167.4v-2.861a6.925,6.925,0,0,1-6.917-6.917V47.487a6.925,6.925,0,0,1,6.917-6.916H184.368a6.925,6.925,0,0,1,6.919,6.916V157.619a6.926,6.926,0,0,1-6.919,6.917H168.206V167.4h16.162a9.792,9.792,0,0,0,9.78-9.778V47.487a9.79,9.79,0,0,0-9.78-9.776H66.451a9.79,9.79,0,0,0-9.778,9.776V157.619A9.791,9.791,0,0,0,66.451,167.4Z" transform="translate(-56.673 -37.711)" fill="#7e5ee3"/>
          </g>
          <g id="Grupo_75150" data-name="Grupo 75150" transform="translate(12.334 28.961)">
            <path id="Trazado_146306" data-name="Trazado 146306" d="M172.606,55.645l.315,83.758H67.832L66.356,55.645Z" transform="translate(-64.448 -53.738)" fill="#7e5ee3"/>
            <path id="Trazado_146307" data-name="Trazado 146307" d="M68.63,142.111H173.722a1.907,1.907,0,0,0,1.907-1.916l-.317-83.758a1.907,1.907,0,0,0-1.907-1.9H67.155a1.908,1.908,0,0,0-1.36.57,1.928,1.928,0,0,0-.547,1.372l1.475,83.758A1.91,1.91,0,0,0,68.63,142.111Zm103.176-3.816H70.5L69.1,58.351H171.505Z" transform="translate(-65.248 -54.537)" fill="#7e5ee3"/>
          </g>
          <g id="Grupo_75151" data-name="Grupo 75151" transform="translate(26.323 34.549)">
            <path id="Trazado_146308" data-name="Trazado 146308" d="M160.011,82.318a1.432,1.432,0,0,0,1.095-2.353L149.42,66.086a1.437,1.437,0,0,0-1.983-.2L130.649,79.179l-11.831-6.441a1.438,1.438,0,0,0-1.234-.065l-11.327,4.694L67.6,57.936a1.43,1.43,0,1,0-1.282,2.556l39.245,19.725a1.4,1.4,0,0,0,1.188.045l11.3-4.682,12.059,6.565a1.427,1.427,0,0,0,1.571-.136l16.442-13.017,10.792,12.818A1.435,1.435,0,0,0,160.011,82.318Z" transform="translate(-65.525 -57.784)" fill="#e4ddfa"/>
          </g>
          <g id="Grupo_75152" data-name="Grupo 75152" transform="translate(24.906 56.22)">
            <path id="Trazado_146309" data-name="Trazado 146309" d="M119.547,112.441a1.431,1.431,0,0,0,1.145-.57L133.32,95.083,160.71,110.9a1.431,1.431,0,1,0,1.43-2.479L133.655,91.973a1.429,1.429,0,0,0-1.859.379l-11.831,15.726L108.712,78.487a1.43,1.43,0,0,0-2.143-.671l-11.69,7.973L67.651,70.559a1.429,1.429,0,1,0-1.392,2.5l28,15.663a1.426,1.426,0,0,0,1.5-.067L106.681,81.2l11.529,30.319a1.435,1.435,0,0,0,1.138.907A1.114,1.114,0,0,0,119.547,112.441Z" transform="translate(-65.524 -70.375)" fill="#e4ddfa"/>
          </g>
        </g>
        <g id="doctor" transform="translate(59.742 25.535)">
          <path id="Trazado_146310" data-name="Trazado 146310" d="M140.99,126.917c-.365,0-9.563.174-10.522-3.165-1.165-4.059-1.341-46.527.059-52.74s26.98-13.244,26.98-13.244.866,65.74.676,65.74S140.99,126.917,140.99,126.917Z" transform="translate(-77.204 -48.782)" fill="#682f2c"/>
          <path id="Trazado_146311" data-name="Trazado 146311" d="M113.218,108.579a7.7,7.7,0,0,0,6.256.876c-.077.687-.153,1.222-.191,1.565-.5,5.112,0,15.563,5.608,20.446a28.013,28.013,0,0,0,6.2,3.656l-.6,9.009L117.834,155.8s22.391,17.319,25.558,17.319S167,156.07,167,156.07l-19.95-9.766s.365-4.019.652-7.174a31.057,31.057,0,0,0,9.076-.112c8.888-1.487,15.105-12.167,16.821-19.492,1.68-7.286,8.508-39.9,8.508-39.9V72.8L169.217,61.582s-42.152,4.158-43.105,4.883c-.571.42-2.053,13.3-3.732,25.131-3.246-2.8-9.148-2.446-11.869.656C105.652,97.789,108.335,105.908,113.218,108.579Z" transform="translate(-63.941 -46.03)" fill="#f9aa8f"/>
          <path id="Trazado_146312" data-name="Trazado 146312" d="M122.989,104.308a36.415,36.415,0,0,0,10.045,2.923,55.774,55.774,0,0,1,6.565,1.086l-.652,7.174,9.162,3.914-2.678,3.816-10.2-4.485.447-7.67a72.481,72.481,0,0,1-7.367-3.024A18.669,18.669,0,0,1,122.989,104.308Z" transform="translate(-55.835 -15.217)" fill="#cc6148"/>
          <path id="Trazado_146313" data-name="Trazado 146313" d="M152.669,77.684c-2.6.124-11.778-7.7-19.635-6.823s-16.544,9.1-18.227,22.811c-.337,2.749-.274,3.793-.4,5.081-.138,1.4-2.091-1.353-5.182-2.262-3.2-.94-2.8-16.838-1.723-23.637,1.7-10.713,13.038-20.625,24.238-20.3s24.69,1.086,34.443,9.465c8.644,7.427,8.475,13.635,7.792,21.792a41.338,41.338,0,0,1-4.334,14.275s1.046-15.534-2.525-18.942S156.077,77.522,152.669,77.684Z" transform="translate(-53.982 -52.546)" fill="#682f2c"/>
          <path id="Trazado_146314" data-name="Trazado 146314" d="M119.05,106c2.182,0,5.84-.468,6.41-3.537a15.079,15.079,0,0,0-.477-5.238,23.53,23.53,0,0,1-.647-6.849c.442-4.141,5.084-8.451,5.129-8.494a.953.953,0,0,0-1.289-1.4c-.212.194-5.219,4.847-5.74,9.694a24.974,24.974,0,0,0,.678,7.418,14.269,14.269,0,0,1,.468,4.522c-.394,2.126-4.522,2.088-5.914,1.905a.954.954,0,1,0-.246,1.892A13.56,13.56,0,0,0,119.05,106Z" transform="translate(-26.484 -32.581)" fill="#cc6148"/>
          <path id="Trazado_146315" data-name="Trazado 146315" d="M133.406,103.32a.954.954,0,0,0,0-1.907,6.577,6.577,0,0,1-5.8-4.263.951.951,0,1,0-1.764.711A8.453,8.453,0,0,0,133.406,103.32Z" transform="translate(-46.883 -20.81)" fill="#cc6148"/>
          <path id="Trazado_146316" data-name="Trazado 146316" d="M148.533,88.571a1.007,1.007,0,0,0,.246-.033.954.954,0,0,0,.678-1.158,6.407,6.407,0,0,0-5.417-4.425.941.941,0,0,0-1.081.807.951.951,0,0,0,.806,1.081,4.533,4.533,0,0,1,3.849,3.024A.955.955,0,0,0,148.533,88.571Z" transform="translate(-91.57 -30.623)" fill="#cc6148"/>
          <path id="Trazado_146317" data-name="Trazado 146317" d="M139.46,82.632s1.136-2.516.811-3.814-3.9-2.029-7.79-1.623a12.275,12.275,0,0,0-6.413,2.663,58.493,58.493,0,0,1,8.293.583A14.933,14.933,0,0,1,139.46,82.632Z" transform="translate(-53.353 -34.851)" fill="#682f2c"/>
          <path id="Trazado_146318" data-name="Trazado 146318" d="M124.056,86.612a10.784,10.784,0,0,0-2.083-4.475c-1.542-1.7-6.088-3.021-7.711-2.759s-3.9,3.084-3.9,3.084a39.857,39.857,0,0,1,6.735.744C119.618,83.841,124.056,86.612,124.056,86.612Z" transform="translate(-10.058 -33.22)" fill="#682f2c"/>
          <path id="Trazado_146319" data-name="Trazado 146319" d="M129.361,86.726c-.4,1.971.244,3.761,1.434,4s2.473-1.162,2.871-3.131-.244-3.763-1.434-4S129.759,84.757,129.361,86.726Z" transform="translate(-52.276 -30.175)" fill="#682f2c"/>
          <path id="Trazado_146320" data-name="Trazado 146320" d="M115.027,89.084c-.4,1.969.244,3.761,1.432,4s2.475-1.162,2.873-3.133-.244-3.761-1.434-4S115.424,87.113,115.027,89.084Z" transform="translate(-13.268 -28.475)" fill="#682f2c"/>
          <g id="Grupo_75154" data-name="Grupo 75154" transform="translate(0 79.423)">
            <g id="Grupo_75153" data-name="Grupo 75153" transform="translate(0)" clip-path="url(#clip-path-2)">
              <path id="Trazado_146321" data-name="Trazado 146321" d="M173.142,119.525,149.1,111.716s3.005,4.076,1.291,8.379c-1.633,4.093-11.948,4.553-15.544-2.639-2.432-4.869-2.3-7.914-2.3-7.914l-24.6,12.176L122.8,268.78l36.035,13.88,25.327-4.871Z" transform="translate(-65.99 -90.865)" fill="#00bcd4"/>
              <path id="Trazado_146322" data-name="Trazado 146322" d="M125.844,230.025l3.394,34.255s73.851,54.281,75.453,13.16c.609-15.869.5-29.792-.153-42.074-2.212-43.6-10.757-66.641-15.143-82.014-5.418-19.11-18.5-38.449-19.3-39.634l-.038-.076s-2.9,1.22-6.866,2.976c-5.99,2.707-14.5,6.713-19.341,9.917-8.01,5.379-13.732,12.664-14.952,18.768C125.615,161.363,125.844,230.025,125.844,230.025Z" transform="translate(-117.726 -87.909)" fill="#fff"/>
              <path id="Trazado_146323" data-name="Trazado 146323" d="M127.154,141.48l14.5,9.5-6.828,14.267s11.444,17.394,17.776,27.961c6.331,10.528,14.914,42.494,14.914,42.494-2.212-43.6-10.757-66.641-15.143-82.014-5.418-19.11-18.5-38.449-19.3-39.634l-.038-.076s-.191-.8-.878-.8-5.492,1.907-5.912,2.632a5.3,5.3,0,0,0-.076,1.145C126.125,121.95,127.154,141.48,127.154,141.48Z" transform="translate(-80.701 -88.244)" fill="#cdedfc"/>
              <path id="Trazado_146324" data-name="Trazado 146324" d="M61.824,113.155s4.616,28.341,5.57,45.393c.571,9.651.954,45.2,1.22,74.309v.114c.153,22.315.229,40.778.229,40.778l37.764-7.59.5-30.174,19.721-4.883,37-60.842L126.558,151,105.616,183.19s-1.145-30.25-3.663-41.694a27.307,27.307,0,0,0-15.41-19.721c-4.2-2.021-12.169-4.692-17.892-6.484C64.724,113.993,61.824,113.155,61.824,113.155Z" transform="translate(33.723 -88.26)" fill="#fff"/>
              <path id="Trazado_146325" data-name="Trazado 146325" d="M109.236,113.559s4.616,28.341,5.57,45.393c.571,9.651.954,45.2,1.22,74.309.5-2.862,4.578-26.169,6.256-35.744,1.792-10.222,7.935-37.191,7.935-37.191l-9.079-12.969,7.706-11.024S119,120.272,116.064,115.7c-.458-.687-.762-1.145-.838-1.222a17.409,17.409,0,0,0-5.99-1.867C108.473,112.8,109.236,113.559,109.236,113.559Z" transform="translate(-13.689 -88.664)" fill="#cdedfc"/>
            </g>
          </g>
          <g id="Grupo_75155" data-name="Grupo 75155" transform="translate(44.43 171.795)">
            <path id="Trazado_146327" data-name="Trazado 146327" d="M150.477,170.418a1.906,1.906,0,0,0,1.907-1.907V154.266a1.907,1.907,0,1,0-3.814,0v14.244A1.907,1.907,0,0,0,150.477,170.418Z" transform="translate(-148.57 -152.359)" fill="#ff7769"/>
          </g>
          <g id="Grupo_75156" data-name="Grupo 75156" transform="translate(32.662 171.46)">
            <path id="Trazado_146328" data-name="Trazado 146328" d="M157.005,178.906a3.813,3.813,0,0,0,3.814-3.814V155.978a3.814,3.814,0,0,0-7.628,0v19.114A3.813,3.813,0,0,0,157.005,178.906Z" transform="translate(-153.191 -152.164)" fill="#dd4231"/>
          </g>
          <path id="Trazado_146329" data-name="Trazado 146329" d="M170.737,158.483H146.06S143.3,195.5,158.4,195.5,170.737,158.483,170.737,158.483Z" transform="translate(-118.03 23.853)" fill="#939aa0"/>
          <g id="Grupo_75157" data-name="Grupo 75157" transform="translate(34.569 166.184)">
            <path id="Trazado_146330" data-name="Trazado 146330" d="M156.206,179.209a1.9,1.9,0,0,0,1.907-1.907v-26.3a1.907,1.907,0,1,0-3.814,0v26.3A1.906,1.906,0,0,0,156.206,179.209Z" transform="translate(-154.299 -149.099)" fill="#dd4231"/>
          </g>
          <path id="Trazado_146331" data-name="Trazado 146331" d="M47.8,146.213a98.894,98.894,0,0,1,5.439-10.287c2.845-4.262,19.591-6.3,21.69-7.122,4.057-1.582,6.182-1.485,5.174.852-1.6,3.714-7.95,4.344-9.009,5.763s6.931,1.141,9.974,1.01,10.017-3.838,13.193-3.31,1.854,2.382,1.854,2.382,3.176-1.059,4.1-.263,0,1.985,0,1.985,2.515-.53,3.573.53-.8,2.382-.8,2.382,1.448,1.294,1.122,2.632-7.167,8.353-14.976,9.411-27.794,3.045-27.794,3.045Z" transform="translate(117.517 1.68)" fill="#f9aa8f"/>
          <path id="Trazado_146332" data-name="Trazado 146332" d="M75.165,135.14,113.4,155.118l-17.762,26.9L61.263,156.511Z" transform="translate(85.116 7.018)" fill="#fff"/>
        </g>
        <g id="window_3" data-name="window 3" transform="translate(132.18 215.598)">
          <path id="Trazado_146333" data-name="Trazado 146333" d="M50.84,172.891h78.827l.04-9.086a17.256,17.256,0,0,0,5.01,6.413c3.313,2.384,9.324,2.673,9.324,2.673H191.1a8.348,8.348,0,0,1,8.348,8.346v17.455a8.348,8.348,0,0,1-8.348,8.346H50.84a8.348,8.348,0,0,1-8.348-8.346V181.237A8.348,8.348,0,0,1,50.84,172.891Z" transform="translate(-41.062 -162.373)" fill="#fff"/>
          <path id="Trazado_146334" data-name="Trazado 146334" d="M50.577,180.9a3.69,3.69,0,1,0,3.69-3.69A3.69,3.69,0,0,0,50.577,180.9Z" transform="translate(86.512 -152.702)" fill="#939aa0"/>
          <path id="Trazado_146335" data-name="Trazado 146335" d="M64.724,180.9a3.69,3.69,0,1,0,3.69-3.69A3.69,3.69,0,0,0,64.724,180.9Z" transform="translate(48.015 -152.702)" fill="#939aa0"/>
          <path id="Trazado_146336" data-name="Trazado 146336" d="M78.87,180.9a3.69,3.69,0,1,0,3.69-3.69A3.69,3.69,0,0,0,78.87,180.9Z" transform="translate(9.521 -152.702)" fill="#939aa0"/>
          <path id="Trazado_146337" data-name="Trazado 146337" d="M93.016,180.9a3.69,3.69,0,1,0,3.69-3.69A3.69,3.69,0,0,0,93.016,180.9Z" transform="translate(-28.973 -152.702)" fill="#939aa0"/>
          <path id="Trazado_146338" data-name="Trazado 146338" d="M107.163,180.9a3.69,3.69,0,1,0,3.69-3.69A3.69,3.69,0,0,0,107.163,180.9Z" transform="translate(-67.469 -152.702)" fill="#939aa0"/>
          <path id="Trazado_146339" data-name="Trazado 146339" d="M121.309,180.9a3.69,3.69,0,1,0,3.69-3.69A3.69,3.69,0,0,0,121.309,180.9Z" transform="translate(-105.963 -152.702)" fill="#939aa0"/>
          <g id="Grupo_75158" data-name="Grupo 75158" transform="translate(63.668)">
            <path id="Trazado_146340" data-name="Trazado 146340" d="M128.029,209.07a9.791,9.791,0,0,0,9.778-9.78V181.837a9.789,9.789,0,0,0-9.778-9.778H80.974c.014,0-5.563-.3-8.491-2.4a15.761,15.761,0,0,1-4.53-5.811,1.417,1.417,0,0,0-1.6-.843,1.433,1.433,0,0,0-1.148,1.4l-.033,7.661H43.092a1.43,1.43,0,0,0,0,2.861H66.6a1.431,1.431,0,0,0,1.43-1.425l.019-4.155a14.95,14.95,0,0,0,2.768,2.637c3.618,2.6,9.828,2.929,10.093,2.941l47.123,0a6.925,6.925,0,0,1,6.917,6.917V199.29a6.925,6.925,0,0,1-6.917,6.917,1.431,1.431,0,0,0,0,2.862Z" transform="translate(-41.662 -162.973)" fill="#7e5ee3"/>
          </g>
          <g id="Grupo_75159" data-name="Grupo 75159" transform="translate(47.925 9.086)">
            <path id="Trazado_146341" data-name="Trazado 146341" d="M102.712,171.113h6.411a1.43,1.43,0,0,0,0-2.861h-6.411a1.43,1.43,0,0,0,0,2.861Z" transform="translate(-101.282 -168.252)" fill="#7e5ee3"/>
          </g>
          <g id="Grupo_75160" data-name="Grupo 75160" transform="translate(0 9.086)">
            <path id="Trazado_146342" data-name="Trazado 146342" d="M99.416,205.263h66.031a1.431,1.431,0,0,0,0-2.862H99.416a6.925,6.925,0,0,1-6.917-6.917V178.03a6.925,6.925,0,0,1,6.917-6.917h31.374a1.43,1.43,0,0,0,0-2.861H99.416a9.791,9.791,0,0,0-9.78,9.778v17.453A9.792,9.792,0,0,0,99.416,205.263Z" transform="translate(-89.636 -168.252)" fill="#7e5ee3"/>
          </g>
        </g>
        <g id="window_2" data-name="window 2" transform="translate(0 11.282)">
          <path id="Trazado_146343" data-name="Trazado 146343" d="M165.486,45.1H240.6a8.348,8.348,0,0,1,8.348,8.348v84.162a8.347,8.347,0,0,1-8.348,8.348H231.6l-.04,9.246a17.235,17.235,0,0,0-5.01-6.413c-3.313-2.384-9.324-2.673-9.324-2.673v-.16h-51.74a8.346,8.346,0,0,1-8.346-8.348V53.445A8.348,8.348,0,0,1,165.486,45.1Z" transform="translate(-155.708 -43.667)" fill="#fff"/>
          <ellipse id="Elipse_4740" data-name="Elipse 4740" cx="18.424" cy="18.424" rx="18.424" ry="18.424" transform="translate(33.602 55.264) rotate(-103.283)" fill="#6a8f9b"/>
          <path id="Trazado_146344" data-name="Trazado 146344" d="M177.347,82.764a18.428,18.428,0,0,0,22.353.076,13.283,13.283,0,0,0-9.117-7.248V72.731a7.933,7.933,0,0,0,5.456-7.706,7.495,7.495,0,1,0-14.954,0,8,8,0,0,0,5.339,7.706v2.861A13.291,13.291,0,0,0,177.347,82.764Z" transform="translate(-141.245 -35.072)" fill="#fff"/>
          <g id="Grupo_75161" data-name="Grupo 75161" transform="translate(27.461 13.227)">
            <path id="Trazado_146345" data-name="Trazado 146345" d="M192.138,91.66a19.871,19.871,0,1,0-12.084-4.108A19.812,19.812,0,0,0,192.138,91.66Zm0-36.849A17,17,0,0,1,202.4,85.357a17.263,17.263,0,0,1-20.611-.076,16.835,16.835,0,0,1-6.649-13.475A17.014,17.014,0,0,1,192.138,54.812Z" transform="translate(-172.282 -51.951)" fill="#1e5259"/>
          </g>
          <g id="Grupo_75162" data-name="Grupo 75162" transform="translate(12.558 75.696)">
            <path id="Trazado_146346" data-name="Trazado 146346" d="M232.487,89.077h0Z" transform="translate(-164.53 -87.645)" fill="#fff"/>
            <rect id="Rectángulo_32809" data-name="Rectángulo 32809" width="67.958" height="2.861" transform="translate(0)" fill="#939aa0"/>
          </g>
          <g id="Grupo_75163" data-name="Grupo 75163" transform="translate(12.558 86.36)">
            <path id="Trazado_146347" data-name="Trazado 146347" d="M232.487,95.272h0Z" transform="translate(-164.53 -93.841)" fill="#fff"/>
            <rect id="Rectángulo_32810" data-name="Rectángulo 32810" width="67.958" height="2.861" transform="translate(0)" fill="#939aa0"/>
          </g>
          <rect id="Rectángulo_32811" data-name="Rectángulo 32811" width="67.956" height="7.536" transform="translate(12.558 61.253)" fill="#939aa0"/>
          <g id="Grupo_75164" data-name="Grupo 75164" transform="translate(0 56.382)">
            <path id="Trazado_146348" data-name="Trazado 146348" d="M211.077,89.716a1.43,1.43,0,0,0,1.43-1.43V78.454a1.43,1.43,0,0,0-2.861,0v9.831A1.43,1.43,0,0,0,211.077,89.716Z" transform="translate(-209.647 -77.024)" fill="#939aa0"/>
          </g>
          <g id="Grupo_75165" data-name="Grupo 75165" transform="translate(0 80.243)">
            <path id="Trazado_146349" data-name="Trazado 146349" d="M232.162,123.607a1.568,1.568,0,0,0,.282-.028,1.43,1.43,0,0,0,1.148-1.4l.033-7.821h7.57a9.791,9.791,0,0,0,9.78-9.778v-3.007a1.431,1.431,0,0,0-2.862,0v3.007a6.924,6.924,0,0,1-6.917,6.917H232.2a1.431,1.431,0,0,0-1.43,1.425l-.019,4.317a14.9,14.9,0,0,0-2.768-2.639c-3-2.16-7.794-2.754-9.485-2.9a1.247,1.247,0,0,0-.673-.2H166.089a6.926,6.926,0,0,1-6.919-6.917V92.317a1.43,1.43,0,0,0-2.861,0v12.267a9.791,9.791,0,0,0,9.78,9.778H217.22a1.216,1.216,0,0,0,.535.158c.057,0,5.637.3,8.561,2.4a15.927,15.927,0,0,1,4.53,5.816A1.432,1.432,0,0,0,232.162,123.607Z" transform="translate(-156.309 -90.887)" fill="#7e5ee3"/>
          </g>
          <g id="Grupo_75166" data-name="Grupo 75166" transform="translate(0)">
            <path id="Trazado_146350" data-name="Trazado 146350" d="M249.542,97.22a1.432,1.432,0,0,0,1.432-1.43V54.046a9.792,9.792,0,0,0-9.78-9.78H166.089a9.792,9.792,0,0,0-9.78,9.78v6.047a1.43,1.43,0,1,0,2.861,0V54.046a6.925,6.925,0,0,1,6.919-6.917h75.106a6.923,6.923,0,0,1,6.917,6.917V95.79A1.431,1.431,0,0,0,249.542,97.22Z" transform="translate(-156.309 -44.266)" fill="#7e5ee3"/>
          </g>
        </g>
        <g id="window_1" data-name="window 1" transform="translate(229.472 56.646)">
          <rect id="Rectángulo_32812" data-name="Rectángulo 32812" width="59.096" height="82.843" rx="4.85" transform="translate(1.429 1.005)" fill="#fff"/>
          <g id="Grupo_75167" data-name="Grupo 75167" transform="translate(12.556 11.39)">
            <path id="Trazado_146351" data-name="Trazado 146351" d="M86.061,78.071h0Z" transform="translate(-49.381 -76.64)" fill="#fff"/>
            <rect id="Rectángulo_32813" data-name="Rectángulo 32813" width="36.678" height="2.861" transform="translate(0.001)" fill="#939aa0"/>
          </g>
          <g id="Grupo_75168" data-name="Grupo 75168" transform="translate(14.527 33.594)">
            <path id="Trazado_146352" data-name="Trazado 146352" d="M51.261,93.274v32.5a2.3,2.3,0,0,0,2.3,2.293H79.012a2.3,2.3,0,0,0,2.291-2.293v-32.5a2.3,2.3,0,0,0-2.291-2.3H53.564A2.3,2.3,0,0,0,51.261,93.274Z" transform="translate(-49.829 -89.541)" fill="#ff9d00"/>
            <path id="Trazado_146353" data-name="Trazado 146353" d="M54.162,130.1H79.613a3.725,3.725,0,0,0,3.721-3.721v-32.5a3.732,3.732,0,0,0-3.721-3.733H54.162a3.736,3.736,0,0,0-3.733,3.733v32.5A3.729,3.729,0,0,0,54.162,130.1ZM79.613,93a.866.866,0,0,1,.859.873v32.5a.872.872,0,0,1-.859.861H54.162a.866.866,0,0,1-.871-.861v-32.5A.872.872,0,0,1,54.162,93Z" transform="translate(-50.429 -90.14)" fill="#ff9d00"/>
          </g>
          <g id="Grupo_75169" data-name="Grupo 75169" transform="translate(20.32 21.761)">
            <rect id="Rectángulo_32814" data-name="Rectángulo 32814" width="18.456" height="11.856" rx="1.337" transform="translate(1.431 1.432)" fill="#81f2ef"/>
            <path id="Trazado_146354" data-name="Trazado 146354" d="M57.527,97.983H71.382a3.735,3.735,0,0,0,3.732-3.73V87a3.736,3.736,0,0,0-3.732-3.733H57.527A3.736,3.736,0,0,0,53.8,87v7.255A3.735,3.735,0,0,0,57.527,97.983ZM71.382,86.126a.872.872,0,0,1,.871.873v7.255a.87.87,0,0,1-.871.869H57.527a.87.87,0,0,1-.871-.869V87a.872.872,0,0,1,.871-.873Z" transform="translate(-53.795 -83.265)" fill="#2d918a"/>
          </g>
          <g id="Grupo_75170" data-name="Grupo 75170" transform="translate(37.214 41.422)">
            <path id="Trazado_146355" data-name="Trazado 146355" d="M56.134,115.8a1.432,1.432,0,0,0,1.43-1.432V96.12a1.43,1.43,0,1,0-2.861,0v18.251A1.432,1.432,0,0,0,56.134,115.8Z" transform="translate(-54.704 -94.688)" fill="#fff"/>
          </g>
          <g id="Grupo_75171" data-name="Grupo 75171" transform="translate(0 57.405)">
            <path id="Trazado_146356" data-name="Trazado 146356" d="M51.767,132.274h42.4a9.79,9.79,0,0,0,9.778-9.778v-4.317a1.43,1.43,0,0,0-2.861,0V122.5a6.924,6.924,0,0,1-6.917,6.916h-42.4A6.925,6.925,0,0,1,44.85,122.5V105.4a1.43,1.43,0,0,0-2.861,0V122.5A9.79,9.79,0,0,0,51.767,132.274Z" transform="translate(-41.989 -103.974)" fill="#7e5ee3"/>
          </g>
          <g id="Grupo_75172" data-name="Grupo 75172" transform="translate(59.099 52.143)">
            <path id="Trazado_146357" data-name="Trazado 146357" d="M43.419,112.2a1.43,1.43,0,0,0,1.43-1.43v-8.425a1.43,1.43,0,1,0-2.861,0v8.425A1.431,1.431,0,0,0,43.419,112.2Z" transform="translate(-41.989 -100.917)" fill="#7e5ee3"/>
          </g>
          <g id="Grupo_75173" data-name="Grupo 75173" transform="translate(0)">
            <path id="Trazado_146358" data-name="Trazado 146358" d="M102.518,107.958a1.43,1.43,0,0,0,1.43-1.43V80.4a9.79,9.79,0,0,0-9.778-9.778h-42.4A9.79,9.79,0,0,0,41.989,80.4v24.694a1.43,1.43,0,1,0,2.861,0V80.4a6.925,6.925,0,0,1,6.917-6.917h42.4a6.924,6.924,0,0,1,6.917,6.917v26.128A1.431,1.431,0,0,0,102.518,107.958Z" transform="translate(-41.989 -70.622)" fill="#7e5ee3"/>
          </g>
        </g>
      </g>
    </g>
  </g>
</svg>
