<svg xmlns="http://www.w3.org/2000/svg" width="155" height="155" viewBox="0 0 155 155">
  <g id="Grupo_75147" data-name="Grupo 75147" transform="translate(-5016 12325)">
    <rect id="Rectángulo_32802" data-name="Rectángulo 32802" width="155" height="155" transform="translate(5016 -12325)" fill="none"/>
    <g id="Grupo_75146" data-name="Grupo 75146" transform="translate(-50.324 101)">
      <path id="Trazado_146296" data-name="Trazado 146296" d="M48.423,4.781h3.418v9.756a4.665,4.665,0,0,1-.63,2.422,4.3,4.3,0,0,1-1.758,1.65,5.372,5.372,0,0,1-2.515.586,5.179,5.179,0,0,1-3.613-1.172,4.259,4.259,0,0,1-1.289-3.32h3.438a2.348,2.348,0,0,0,.337,1.416,1.334,1.334,0,0,0,1.128.439,1.276,1.276,0,0,0,1.1-.532,2.5,2.5,0,0,0,.386-1.489ZM60.142,17.857A3.393,3.393,0,0,1,57.319,19.2a3.328,3.328,0,0,1-2.632-1.011,4.251,4.251,0,0,1-.894-2.905V8.434h3.291V15.3A1.183,1.183,0,0,0,58.4,16.656a1.72,1.72,0,0,0,1.611-.811V8.434h3.311V19H60.239Zm10.518-1.826a.76.76,0,0,0-.439-.674,6.685,6.685,0,0,0-1.67-.527,7.615,7.615,0,0,1-2.031-.718A3.4,3.4,0,0,1,65.3,13.033a2.577,2.577,0,0,1-.42-1.455,2.92,2.92,0,0,1,1.2-2.4,4.948,4.948,0,0,1,3.145-.942,5.482,5.482,0,0,1,3.359.947,2.962,2.962,0,0,1,1.27,2.49h-3.3q0-1.27-1.338-1.27a1.326,1.326,0,0,0-.869.288.892.892,0,0,0-.352.718.819.819,0,0,0,.43.713,4.06,4.06,0,0,0,1.372.449,11.857,11.857,0,0,1,1.655.42,3.007,3.007,0,0,1,2.383,2.939,2.767,2.767,0,0,1-1.284,2.354,5.631,5.631,0,0,1-3.325.908,5.747,5.747,0,0,1-2.422-.488,4.05,4.05,0,0,1-1.66-1.328,3.007,3.007,0,0,1-.6-1.768h3.076a1.272,1.272,0,0,0,.488,1.069,2.009,2.009,0,0,0,1.2.337,1.58,1.58,0,0,0,1.011-.273A.875.875,0,0,0,70.659,16.031ZM79.2,5.807V8.434h1.738v2.285H79.2v4.834a1.234,1.234,0,0,0,.215.83,1.152,1.152,0,0,0,.85.234,4.828,4.828,0,0,0,.82-.059v2.354a6.074,6.074,0,0,1-1.855.283,3.448,3.448,0,0,1-2.51-.8,3.282,3.282,0,0,1-.811-2.432V10.719H74.565V8.434h1.348V5.807ZM85.708,19h-3.3V8.434h3.3Zm-3.5-13.3A1.482,1.482,0,0,1,82.72,4.54a2.149,2.149,0,0,1,2.637,0A1.482,1.482,0,0,1,85.864,5.7a1.482,1.482,0,0,1-.508,1.159,2.149,2.149,0,0,1-2.637,0A1.482,1.482,0,0,1,82.212,5.7ZM92.2,16.656a1.464,1.464,0,0,0,1.074-.376,1.379,1.379,0,0,0,.371-1.05h3.086a3.653,3.653,0,0,1-1.245,2.852A4.631,4.631,0,0,1,92.28,19.2a4.689,4.689,0,0,1-3.633-1.445,5.7,5.7,0,0,1-1.328-4v-.137a6.436,6.436,0,0,1,.591-2.827,4.3,4.3,0,0,1,1.7-1.885,5.081,5.081,0,0,1,2.637-.659,4.573,4.573,0,0,1,3.271,1.143,4.053,4.053,0,0,1,1.211,3.1H93.647a1.806,1.806,0,0,0-.4-1.26,1.382,1.382,0,0,0-1.074-.439q-1.279,0-1.494,1.631a11.508,11.508,0,0,0-.068,1.426,4.52,4.52,0,0,0,.381,2.207A1.319,1.319,0,0,0,92.2,16.656ZM101.6,19H98.3V8.434h3.3ZM98.1,5.7a1.482,1.482,0,0,1,.508-1.159,2.149,2.149,0,0,1,2.637,0,1.482,1.482,0,0,1,.508,1.159,1.482,1.482,0,0,1-.508,1.159,2.149,2.149,0,0,1-2.637,0A1.482,1.482,0,0,1,98.1,5.7ZM109.575,19a3.716,3.716,0,0,1-.312-.947,3.06,3.06,0,0,1-2.539,1.143,3.749,3.749,0,0,1-2.539-.9,2.875,2.875,0,0,1-1.045-2.271,2.955,2.955,0,0,1,1.27-2.6,6.468,6.468,0,0,1,3.691-.879h1.016v-.559q0-1.462-1.26-1.462a1.03,1.03,0,0,0-1.172,1.158h-3.291a2.95,2.95,0,0,1,1.3-2.487,5.479,5.479,0,0,1,3.325-.956,4.8,4.8,0,0,1,3.193.986,3.429,3.429,0,0,1,1.2,2.705v4.678a4.79,4.79,0,0,0,.449,2.227V19Zm-2.061-2.148a1.836,1.836,0,0,0,1.021-.264,1.653,1.653,0,0,0,.581-.6V14.3h-.957q-1.719,0-1.719,1.543a.942.942,0,0,0,.3.728A1.1,1.1,0,0,0,107.515,16.852Z" transform="translate(5066.324 -12310.273)" fill="#12263f"/>
      <circle id="Elipse_4087" data-name="Elipse 4087" cx="42.5" cy="42.5" r="42.5" transform="translate(5101 -12411)" fill="#7e5ee3"/>
      <path id="justicia" d="M51.117,49.748l-.406-1.343a9.511,9.511,0,0,0-6.072-6.256l-2.608-.874a1.717,1.717,0,0,1-.5-.825,2.32,2.32,0,0,1,.1-1.719,5.228,5.228,0,0,0,.1-3.575,4.861,4.861,0,0,0-2.211-2.766,1.973,1.973,0,0,1-1.027-1.206,2.321,2.321,0,0,1,.1-1.72,5.23,5.23,0,0,0,.1-3.575,4.3,4.3,0,0,1-.119-3.3A16.237,16.237,0,0,0,23.679.5H14.645c-3.8,0-5.709,2.129-6.23,4.122a4.8,4.8,0,0,0,.923,4.356,16.119,16.119,0,0,0-1.668,4.73,1.461,1.461,0,0,0-.032.175l0,.02q-.131.76-.189,1.533l-.025.206L6.389,19.854a1.465,1.465,0,0,0-.03.162L5.193,24.809A2.5,2.5,0,0,0,7.622,27.9H8.808l.413,4.652,0,.026a5.5,5.5,0,0,0,6.864,4.736l3.147-.827v2.035L10.907,41.19a19.419,19.419,0,0,0-9.4,6.55L.318,49.259a1.5,1.5,0,1,0,2.362,1.848l1.189-1.519a16.429,16.429,0,0,1,7.954-5.542l9.369-3a1.5,1.5,0,0,0,1.042-1.428V35.7l.1-.026a1.5,1.5,0,0,0-.762-2.9l-6.244,1.64a2.5,2.5,0,0,1-3.118-2.141l-.533-6A1.5,1.5,0,0,0,10.18,24.9H8.257L9,21.838,28.44,23.86l0,2.021a2.052,2.052,0,0,1-.655,1.437,5.1,5.1,0,0,0-.233,6.611,2.085,2.085,0,0,1,.556,1.52,2.047,2.047,0,0,1-.655,1.462,5.1,5.1,0,0,0-.233,6.611,2.083,2.083,0,0,1,.556,1.52,2.047,2.047,0,0,1-.655,1.462,4.948,4.948,0,0,0-1.334,3.261c0,.017,0,.035,0,.052v.365a1.5,1.5,0,1,0,3,0v-.337a2.051,2.051,0,0,1,.654-1.439,5.1,5.1,0,0,0,.233-6.611,2.086,2.086,0,0,1-.556-1.52,2.048,2.048,0,0,1,.656-1.462,5.1,5.1,0,0,0,.233-6.611,2.084,2.084,0,0,1-.556-1.52,2.047,2.047,0,0,1,.656-1.462,4.945,4.945,0,0,0,1.334-3.26c0-.018,0-.036,0-.055l0-1.733,3.9.4a10.4,10.4,0,0,0,.506,2.245,2.319,2.319,0,0,1-.1,1.72,5.228,5.228,0,0,0-.1,3.575,4.86,4.86,0,0,0,2.211,2.766,1.975,1.975,0,0,1,1.027,1.207,2.32,2.32,0,0,1-.1,1.719,5.228,5.228,0,0,0-.1,3.575,4.859,4.859,0,0,0,2.211,2.766,1.973,1.973,0,0,1,1.027,1.206,2.317,2.317,0,0,1-.1,1.719,5.228,5.228,0,0,0-.1,3.575,1.5,1.5,0,0,0,2.85-.934,2.32,2.32,0,0,1,.1-1.719,5.644,5.644,0,0,0,.35-2.38,6.506,6.506,0,0,1,2.824,3.657l.406,1.343a1.5,1.5,0,0,0,2.871-.868ZM11.317,5.381c.312-1.2,1.526-1.882,3.328-1.882h9a13.159,13.159,0,0,1,12.2,17.824l-14.179-4.69a17.6,17.6,0,0,1-2.541-1.408,2.863,2.863,0,0,1-.856-1.809,5.8,5.8,0,0,0-1.707-3.363,8.647,8.647,0,0,0-3.147-2.073c-.353-.148-.717-.3-1.159-.531a1.511,1.511,0,0,0-.129-.1,1.47,1.47,0,0,0-.328-.161,1.736,1.736,0,0,1-.481-1.813Zm.561,5.206c.133.058.259.111.376.16a5.717,5.717,0,0,1,2.222,1.462,2.861,2.861,0,0,1,.855,1.809c.036.175.075.364.123.562l-4.56-1.508a13.108,13.108,0,0,1,.984-2.485ZM9.716,18.9l.573-2.357a1.485,1.485,0,0,0,.119-.471l10.213,3.378h0L23.2,20.3Zm0,0" transform="translate(5119.701 -12396.591)" fill="#fff"/>
    </g>
  </g>
</svg>
