<svg xmlns="http://www.w3.org/2000/svg" width="210" height="190" viewBox="0 0 210 190">
  <g id="Grupo_73482" data-name="Grupo 73482" transform="translate(-262 -2950)">
    <rect id="Rectángulo_5223" data-name="Rectángulo 5223" width="210" height="190" transform="translate(262 2950)" fill="none"/>
    <g id="Grupo_74637" data-name="Grupo 74637" transform="translate(272.079 2996.583)">
      <path id="Trazado_116350" data-name="Trazado 116350" d="M-181.832,282.317-227.6,308.741c-5.166,2.984-14.277,2.606-20.245-.84l-120.814-69.751c-5.968-3.444-6.62-8.7-1.454-11.689l45.768-26.422c5.169-2.984,14.277-2.606,20.245.838l120.814,69.751C-177.318,274.073-176.665,279.333-181.832,282.317Z" transform="translate(373.598 -192.25)" fill="#92b4d1" opacity="0.251"/>
      <g id="Grupo_73423" data-name="Grupo 73423" transform="translate(5.49)">
        <g id="Grupo_73389" data-name="Grupo 73389" transform="translate(0.012 5.562)">
          <path id="Trazado_116351" data-name="Trazado 116351" d="M-185.254,267.01l-4.01.456c-.227-.148-.447-.295-.692-.436l-114.986-66.388c-5.679-3.278-14.351-3.639-19.269-.8l-43.559,25.15c-.258.148-.489.306-.716.465l-2.587-1.107v5.195a3.4,3.4,0,0,0,0,.367v.1l0,0c.092,2.133,1.666,4.359,4.682,6.1L-251.4,302.506c5.68,3.278,14.352,3.639,19.271.8l43.559-25.149c2.087-1.2,3.167-2.8,3.294-4.492l.024-.011Z" transform="translate(371.077 -197.927)" fill="#c0d5ff"/>
        </g>
        <g id="Grupo_73390" data-name="Grupo 73390">
          <path id="Trazado_116352" data-name="Trazado 116352" d="M-188.566,275.607l-43.559,25.149c-4.92,2.84-13.592,2.48-19.271-.8L-366.382,233.57c-5.68-3.279-6.3-8.286-1.382-11.125l43.559-25.149c4.918-2.84,13.59-2.48,19.269.8l114.986,66.388C-184.27,267.76-183.648,272.767-188.566,275.607Z" transform="translate(371.083 -195.379)" fill="#f6f6f6"/>
        </g>
        <g id="Grupo_73422" data-name="Grupo 73422" transform="translate(18.911 8.394)">
          <g id="Grupo_73393" data-name="Grupo 73393" transform="translate(25.337 30.074)">
            <g id="Grupo_73392" data-name="Grupo 73392">
              <path id="Trazado_116353" data-name="Trazado 116353" d="M-342.554,219.407c-4.562,0-8.257-1.967-8.257-4.392v5.8c0,2.425,3.7,4.392,8.257,4.392s8.255-1.967,8.255-4.392v-5.8C-334.3,217.44-337.994,219.407-342.554,219.407Z" transform="translate(350.811 -210.623)" fill="#748fff"/>
              <g id="Grupo_73391" data-name="Grupo 73391">
                <path id="Trazado_116354" data-name="Trazado 116354" d="M-342.554,213c-4.562,0-8.257,1.967-8.257,4.392s3.7,4.392,8.257,4.392,8.255-1.967,8.255-4.392S-337.994,213-342.554,213Z" transform="translate(350.811 -213.003)" fill="#6abff4"/>
              </g>
            </g>
          </g>
          <g id="Grupo_73421" data-name="Grupo 73421">
            <g id="Grupo_73396" data-name="Grupo 73396" transform="translate(27.801)">
              <g id="Grupo_73395" data-name="Grupo 73395">
                <path id="Trazado_116355" data-name="Trazado 116355" d="M-341.425,205.629c-4.56,0-8.257-1.967-8.257-4.392v5.8c0,2.425,3.7,4.392,8.257,4.392s8.255-1.967,8.255-4.392v-5.8C-333.17,203.662-336.865,205.629-341.425,205.629Z" transform="translate(349.682 -196.845)" fill="#748fff"/>
                <g id="Grupo_73394" data-name="Grupo 73394">
                  <path id="Trazado_116356" data-name="Trazado 116356" d="M-341.425,199.225c-4.56,0-8.257,1.967-8.257,4.392s3.7,4.392,8.257,4.392,8.255-1.967,8.255-4.392S-336.865,199.225-341.425,199.225Z" transform="translate(349.682 -199.225)" fill="#6abff4"/>
                </g>
              </g>
            </g>
            <g id="Grupo_73399" data-name="Grupo 73399" transform="translate(0 15.438)">
              <g id="Grupo_73398" data-name="Grupo 73398">
                <path id="Trazado_116357" data-name="Trazado 116357" d="M-354.164,212.7c-4.56,0-8.255-1.967-8.255-4.392v5.8c0,2.425,3.7,4.392,8.255,4.392s8.257-1.967,8.257-4.392v-5.8C-345.907,210.735-349.6,212.7-354.164,212.7Z" transform="translate(362.419 -203.918)" fill="#748fff"/>
                <g id="Grupo_73397" data-name="Grupo 73397">
                  <path id="Trazado_116358" data-name="Trazado 116358" d="M-354.164,206.3c-4.56,0-8.255,1.964-8.255,4.392s3.7,4.392,8.255,4.392,8.257-1.967,8.257-4.392S-349.6,206.3-354.164,206.3Z" transform="translate(362.419 -206.298)" fill="#6abff4"/>
                </g>
              </g>
            </g>
            <g id="Grupo_73402" data-name="Grupo 73402" transform="translate(53.139 14.637)">
              <g id="Grupo_73401" data-name="Grupo 73401">
                <path id="Trazado_116359" data-name="Trazado 116359" d="M-329.817,212.335c-4.56,0-8.257-1.967-8.257-4.392v5.8c0,2.425,3.7,4.392,8.257,4.392s8.257-1.967,8.257-4.392v-5.8C-321.559,210.368-325.257,212.335-329.817,212.335Z" transform="translate(338.074 -203.551)" fill="#748fff"/>
                <g id="Grupo_73400" data-name="Grupo 73400">
                  <path id="Trazado_116360" data-name="Trazado 116360" d="M-329.817,205.931c-4.56,0-8.257,1.964-8.257,4.392s3.7,4.392,8.257,4.392,8.257-1.967,8.257-4.392S-325.257,205.931-329.817,205.931Z" transform="translate(338.074 -205.931)" fill="#6abff4"/>
                </g>
              </g>
            </g>
            <g id="Grupo_73405" data-name="Grupo 73405" transform="translate(78.478 28.576)">
              <g id="Grupo_73404" data-name="Grupo 73404">
                <path id="Trazado_116361" data-name="Trazado 116361" d="M-318.21,218.721c-4.56,0-8.255-1.967-8.255-4.392v5.8c0,2.425,3.7,4.392,8.255,4.392s8.257-1.967,8.257-4.392v-5.8C-309.953,216.754-313.65,218.721-318.21,218.721Z" transform="translate(326.465 -209.937)" fill="#748fff"/>
                <g id="Grupo_73403" data-name="Grupo 73403">
                  <path id="Trazado_116362" data-name="Trazado 116362" d="M-318.21,212.317c-4.56,0-8.255,1.967-8.255,4.392s3.7,4.392,8.255,4.392,8.257-1.967,8.257-4.392S-313.65,212.317-318.21,212.317Z" transform="translate(326.465 -212.317)" fill="#6abff4"/>
                </g>
              </g>
            </g>
            <g id="Grupo_73408" data-name="Grupo 73408" transform="translate(50.674 44.015)">
              <g id="Grupo_73407" data-name="Grupo 73407">
                <path id="Trazado_116363" data-name="Trazado 116363" d="M-330.946,225.794c-4.56,0-8.257-1.967-8.257-4.392v5.8c0,2.425,3.7,4.392,8.257,4.392s8.255-1.967,8.255-4.392v-5.8C-322.691,223.827-326.386,225.794-330.946,225.794Z" transform="translate(339.203 -217.01)" fill="#748fff"/>
                <g id="Grupo_73406" data-name="Grupo 73406">
                  <path id="Trazado_116364" data-name="Trazado 116364" d="M-330.946,219.39c-4.56,0-8.257,1.967-8.257,4.392s3.7,4.392,8.257,4.392,8.255-1.967,8.255-4.392S-326.386,219.39-330.946,219.39Z" transform="translate(339.203 -219.39)" fill="#6abff4"/>
                </g>
              </g>
            </g>
            <g id="Grupo_73411" data-name="Grupo 73411" transform="translate(103.815 43.214)">
              <g id="Grupo_73410" data-name="Grupo 73410">
                <path id="Trazado_116365" data-name="Trazado 116365" d="M-306.6,225.427c-4.56,0-8.255-1.967-8.255-4.392v5.8c0,2.425,3.7,4.392,8.255,4.392s8.257-1.967,8.257-4.392v-5.8C-298.345,223.46-302.042,225.427-306.6,225.427Z" transform="translate(314.857 -216.643)" fill="#748fff"/>
                <g id="Grupo_73409" data-name="Grupo 73409">
                  <path id="Trazado_116366" data-name="Trazado 116366" d="M-306.6,219.023c-4.56,0-8.255,1.964-8.255,4.392s3.7,4.392,8.255,4.392,8.257-1.967,8.257-4.392S-302.042,219.023-306.6,219.023Z" transform="translate(314.857 -219.023)" fill="#6abff4"/>
                </g>
              </g>
            </g>
            <g id="Grupo_73414" data-name="Grupo 73414" transform="translate(76.011 58.65)">
              <g id="Grupo_73413" data-name="Grupo 73413">
                <path id="Trazado_116367" data-name="Trazado 116367" d="M-319.338,232.5c-4.56,0-8.257-1.967-8.257-4.392v5.8c0,2.425,3.7,4.392,8.257,4.392s8.257-1.967,8.257-4.392v-5.8C-311.08,230.532-314.778,232.5-319.338,232.5Z" transform="translate(327.595 -223.715)" fill="#748fff"/>
                <g id="Grupo_73412" data-name="Grupo 73412">
                  <path id="Trazado_116368" data-name="Trazado 116368" d="M-319.338,226.095c-4.56,0-8.257,1.967-8.257,4.392s3.7,4.392,8.257,4.392,8.257-1.967,8.257-4.392S-314.778,226.095-319.338,226.095Z" transform="translate(327.595 -226.095)" fill="#6abff4"/>
                </g>
              </g>
            </g>
            <g id="Grupo_73417" data-name="Grupo 73417" transform="translate(129.152 57.849)">
              <g id="Grupo_73416" data-name="Grupo 73416">
                <path id="Trazado_116369" data-name="Trazado 116369" d="M-294.992,232.132c-4.56,0-8.257-1.967-8.257-4.392v5.8c0,2.425,3.7,4.392,8.257,4.392s8.255-1.967,8.255-4.392v-5.8C-286.737,230.165-290.432,232.132-294.992,232.132Z" transform="translate(303.249 -223.348)" fill="#748fff"/>
                <g id="Grupo_73415" data-name="Grupo 73415">
                  <path id="Trazado_116370" data-name="Trazado 116370" d="M-294.992,225.728c-4.56,0-8.257,1.967-8.257,4.392s3.7,4.392,8.257,4.392,8.255-1.967,8.255-4.392S-290.432,225.728-294.992,225.728Z" transform="translate(303.249 -225.728)" fill="#6abff4"/>
                </g>
              </g>
            </g>
            <g id="Grupo_73420" data-name="Grupo 73420" transform="translate(101.351 73.285)">
              <g id="Grupo_73419" data-name="Grupo 73419">
                <path id="Trazado_116371" data-name="Trazado 116371" d="M-307.731,239.206c-4.56,0-8.255-1.967-8.255-4.394v5.8c0,2.425,3.7,4.392,8.255,4.392s8.257-1.967,8.257-4.392v-5.8C-299.474,237.239-303.171,239.206-307.731,239.206Z" transform="translate(315.986 -230.42)" fill="#748fff"/>
                <g id="Grupo_73418" data-name="Grupo 73418">
                  <path id="Trazado_116372" data-name="Trazado 116372" d="M-307.731,232.8c-4.56,0-8.255,1.967-8.255,4.392s3.7,4.394,8.255,4.394,8.257-1.967,8.257-4.394S-303.171,232.8-307.731,232.8Z" transform="translate(315.986 -232.8)" fill="#6abff4"/>
                </g>
              </g>
            </g>
          </g>
        </g>
      </g>
    </g>
  </g>
</svg>
