<svg xmlns="http://www.w3.org/2000/svg" xmlns:xlink="http://www.w3.org/1999/xlink" width="100" height="100" viewBox="0 0 100 100">
  <defs>
    <clipPath id="clip-path">
      <circle id="Elipse_4706" data-name="Elipse 4706" cx="50" cy="50" r="50" fill="none"/>
    </clipPath>
  </defs>
  <g id="Grupo_75310" data-name="Grupo 75310" transform="translate(-3282 7518.623)">
    <g id="Grupo_75299" data-name="Grupo 75299" transform="translate(598 -7814.375)">
      <g id="Grupo_74996" data-name="Grupo 74996" transform="translate(2684 295.752)">
        <g id="Grupo_74995" data-name="Grupo 74995" clip-path="url(#clip-path)">
          <g id="Grupo_74994" data-name="Grupo 74994" transform="translate(-24.698 -29.762)">
            <path id="Trazado_145667" data-name="Trazado 145667" d="M2727.023,306.6c14.33-13.491,32.1-16.021,48.769-13.886l-61.478-40.671-63.136,95.436C2681.425,349.123,2691.753,339.805,2727.023,306.6Z" transform="translate(-2648.83 -252.043)" fill="#54c7fe"/>
            <path id="Trazado_145668" data-name="Trazado 145668" d="M2736.185,428.291l65.485-98.986-26.978-17.848c-16.666-2.135-34.439.395-48.769,13.886-35.271,33.206-45.6,42.523-75.846,40.88l-2.348,3.55Z" transform="translate(-2647.729 -270.787)" fill="#5477cd"/>
            <path id="Trazado_145669" data-name="Trazado 145669" d="M2742.732,365.908l1.5-1.127c.66.037.742.627.955,1.051,2.284,4.542,4.548,9.094,6.834,13.635,1.426,2.9,2.875,5.8,4.437,8.891,1.583-3.089,3.014-5.991,4.45-8.89,2.3-4.534,4.543-9.1,6.837-13.637.214-.424.3-1.013.955-1.053l2.28,1.713a.5.5,0,0,1,.115.528c-.734,2.146-.552,4.373-.586,6.58.024,3.791.046,7.581,0,11.371a11.787,11.787,0,0,0,1.8,6.723,1.761,1.761,0,0,1,.3.7c-.062.587-.552.826-.948,1.125-2.334,1.764-4.667,3.531-7.021,5.268a7.722,7.722,0,0,0-3.32,6.623c.023,3.721.009,7.443,0,11.164,0,.466.1.965-.264,1.366h-9.168c-.366-.4-.264-.9-.264-1.366-.008-3.689-.032-7.379,0-11.068a7.823,7.823,0,0,0-3.4-6.778c-2.337-1.708-4.638-3.465-6.948-5.208-.4-.3-.885-.539-.947-1.128a1.084,1.084,0,0,1,.156-.448,13.263,13.263,0,0,0,1.947-7.824c-.084-4.546-.042-9.1-.014-13.644-.057-1.173-.026-2.344-.017-3.516A1.22,1.22,0,0,1,2742.732,365.908Z" transform="translate(-2677.277 -288.015)" fill="#486bdf"/>
            <path id="Trazado_145670" data-name="Trazado 145670" d="M2769.664,326.728c.011,5.4.081,10.791,0,16.185a10.322,10.322,0,0,1-2.253,5.856c-.513,1.285-1.672,1.911-2.722,2.639a10.112,10.112,0,0,1-1.331.7,10.833,10.833,0,0,1-8.7.054,18.848,18.848,0,0,1-3.36-2.3,2.054,2.054,0,0,1-.706-1.1,12.069,12.069,0,0,1-2.318-7.583c.073-4.864.025-9.73.028-14.6a6.289,6.289,0,0,1,4.6-3.108,5.541,5.541,0,0,1,3.62,1.916,3.393,3.393,0,0,0,3.486.973,2.72,2.72,0,0,0,1.212-.724,10.975,10.975,0,0,1,1.057-.963c2.319-1.788,4.577-1.534,6.429.746A5.255,5.255,0,0,1,2769.664,326.728Z" transform="translate(-2679.81 -274.837)" fill="#f4c89c"/>
            <path id="Trazado_145671" data-name="Trazado 145671" d="M2733.733,371.1c0,5.34.057,10.68-.011,16.018a10.559,10.559,0,0,1-2.25,5.971c-.51,1.294-1.686,1.908-2.732,2.645a9.468,9.468,0,0,1-1.338.706,10.555,10.555,0,0,1-8.687.005,12.441,12.441,0,0,1-3.3-2.2,1.962,1.962,0,0,1-.776-1.154,12.215,12.215,0,0,1-2.315-7.687c.084-4.773.035-9.548.042-14.322a1.844,1.844,0,0,1,.988-.3,6.27,6.27,0,0,0,4.565-3.536c.173-.336.2-.968.885-.672a2.991,2.991,0,0,1,.473.82,5.778,5.778,0,0,0,5.485,3.42c2.566.052,5.134.007,7.7.016A1.682,1.682,0,0,1,2733.733,371.1Z" transform="translate(-2668.341 -288.562)" fill="#f4c89c"/>
            <path id="Trazado_145672" data-name="Trazado 145672" d="M2786.528,393.005a12.367,12.367,0,0,1-2.314-7.969c.1-3.652.042-7.308.052-10.963a1.977,1.977,0,0,1,1.059-.392,5.854,5.854,0,0,0,4.757-5.69,5.881,5.881,0,0,1,.094-1.425c.043-.149.1-.323.291-.323.128,0,.215.122.287.23a4.673,4.673,0,0,1,.338.684,5.789,5.789,0,0,0,5.606,3.582c2.549.04,5.1,0,7.646.013a1.812,1.812,0,0,1,1.283.242c0,5.314.054,10.629-.006,15.942a10.6,10.6,0,0,1-2.264,6.064c-.507,1.3-1.685,1.909-2.731,2.647a9.567,9.567,0,0,1-1.337.707,10.525,10.525,0,0,1-8.687,0,12.435,12.435,0,0,1-3.3-2.2A1.96,1.96,0,0,1,2786.528,393.005Z" transform="translate(-2691.277 -288.482)" fill="#f4c89c"/>
            <path id="Trazado_145673" data-name="Trazado 145673" d="M2782.231,405.546a12.736,12.736,0,0,0,3.985,3.074,4.057,4.057,0,0,1,.594,1.958,22.954,22.954,0,0,1,.587,3.24,1.346,1.346,0,0,1-.5.774c-.833.861-.781,1.526.172,2.272.2.155.421.281.506.541a28.4,28.4,0,0,1-.353,4.73c-.206,2.4-.475,4.8-.7,7.195a2.662,2.662,0,0,1-.461,1.616h-15.306c0-4.105.054-8.212-.011-12.316a8.3,8.3,0,0,1,3.718-7.29C2777.08,409.448,2779.644,407.48,2782.231,405.546Z" transform="translate(-2686.98 -301.023)" fill="#5489fe"/>
            <path id="Trazado_145674" data-name="Trazado 145674" d="M2710.349,405.547a12.73,12.73,0,0,0,3.984,3.074,4.055,4.055,0,0,1,.594,1.958,22.883,22.883,0,0,1,.587,3.24,1.344,1.344,0,0,1-.5.773c-.832.861-.78,1.526.173,2.272.2.155.42.281.506.541a28.528,28.528,0,0,1-.353,4.73c-.207,2.4-.476,4.8-.705,7.195a2.663,2.663,0,0,1-.461,1.616c-4.873.01-9.747.012-14.621.042-.556,0-.693-.186-.69-.713.021-4.205-.035-8.411.038-12.615a7.227,7.227,0,0,1,3.043-5.8C2704.737,409.739,2707.548,407.65,2710.349,405.547Z" transform="translate(-2664.046 -301.023)" fill="#5489fe"/>
            <path id="Trazado_145675" data-name="Trazado 145675" d="M2733.9,408.626a12.245,12.245,0,0,0,4.022-3.08c2.814,2.108,5.643,4.2,8.435,6.332a7.3,7.3,0,0,1,3.019,5.892c.059,4.391.02,8.783.022,13.175H2734.09c-.716-1.2-.475-2.578-.647-3.873-.1-.748-.468-1.551.08-2.294a2.457,2.457,0,0,1,1.389-.217c2.254-.008,4.508.006,6.762-.012.419,0,.979.164,1.184-.355a2.4,2.4,0,0,0-.01-1.772c-.17-.42-.655-.315-1.023-.317-2.413-.014-4.825,0-7.238-.01a2.8,2.8,0,0,1-1.4-.188,1.388,1.388,0,0,1-.364-1.035,16.477,16.477,0,0,1-.258-3.456c.1-.331.411-.453.652-.648a1.273,1.273,0,0,0,.121-2.1c-.237-.25-.528-.454-.591-.826A18.555,18.555,0,0,1,2733.9,408.626Z" transform="translate(-2674.789 -301.023)" fill="#5489fe"/>
            <path id="Trazado_145676" data-name="Trazado 145676" d="M2805.776,408.626a12.188,12.188,0,0,0,4.024-3.084q4.125,3.1,8.251,6.194a7.645,7.645,0,0,1,3.217,6.4c.01,4.014,0,8.029.01,12.043,0,.5-.014.818-.687.812-4.874-.038-9.748-.035-14.621-.046-.687-.978-.438-2.144-.6-3.22-.179-1.153-.252-2.327-.357-3.493a1.149,1.149,0,0,1,.208-.985,2.46,2.46,0,0,1,1.39-.217c2.794-.007,5.588,0,8.382-.005,1.333,0,1.4-.112,1.4-1.4,0-.78-.311-1.068-1.076-1.063-2.444.016-4.889.008-7.333,0-.7,0-1.4.016-2.095-.012a1.215,1.215,0,0,1-1.151-.529,6.269,6.269,0,0,1-.279-2.642c.113-.323.426-.436.664-.631a1.268,1.268,0,0,0,.159-2.024c-.25-.274-.585-.479-.653-.887A18.684,18.684,0,0,1,2805.776,408.626Z" transform="translate(-2697.72 -301.021)" fill="#5489fe"/>
            <path id="Trazado_145677" data-name="Trazado 145677" d="M2805.63,368.212c-3.122.005-6.247.093-9.365-.009a5.8,5.8,0,0,1-5.379-3.643,6.73,6.73,0,0,0-.47-.936,7.79,7.79,0,0,1-1.355,5.3,6.11,6.11,0,0,1-4.792,2.37,17.951,17.951,0,0,1,.715-7.115,11.1,11.1,0,0,1,6.326-6A10.691,10.691,0,0,1,2805.63,368.212Z" transform="translate(-2691.281 -285.698)" fill="#b0792c"/>
            <path id="Trazado_145678" data-name="Trazado 145678" d="M2771.655,323.244c-.728-.707-1.418-1.46-2.193-2.112a3.513,3.513,0,0,0-4.71,0c-.442.362-.847.769-1.266,1.16a3.554,3.554,0,0,1-5.125-.147,5.283,5.283,0,0,0-3.493-1.933,5.93,5.93,0,0,1,.2-4.545,4.972,4.972,0,0,1,5.271-3.083c1.107.074,2.237-.066,3.326.094a9.131,9.131,0,0,1,8.036,9.336C2771.7,322.421,2771.67,322.832,2771.655,323.244Z" transform="translate(-2681.802 -271.353)" fill="#b0792c"/>
            <path id="Trazado_145679" data-name="Trazado 145679" d="M2736.478,368.947q-4.3,0-8.6,0c-3.364,0-5.324-1.382-6.482-4.561a2.364,2.364,0,0,1,.2-3.077,3.331,3.331,0,0,1,3.075-1.55c2.258.039,4.516.009,6.775.012,2.993,0,4.743,1.563,5.094,4.536Q2736.509,366.626,2736.478,368.947Z" transform="translate(-2671.085 -286.413)" fill="#b0792c"/>
            <path id="Trazado_145680" data-name="Trazado 145680" d="M2801.682,428.648q.363,3.808.726,7.615h-9.168q.634-6.3,1.267-12.593c.038-.378.047-.759.071-1.139a1.112,1.112,0,0,1,.873-.3q2.374-.04,4.747,0a1.11,1.11,0,0,1,.873.3q.13,1.35.26,2.7A5.334,5.334,0,0,1,2801.682,428.648Z" transform="translate(-2694.159 -306.341)" fill="#f5ba00"/>
            <path id="Trazado_145681" data-name="Trazado 145681" d="M2729.184,422.532l.45,4.583a4.423,4.423,0,0,1,.336,3.063q.276,3.043.552,6.086h-9.168q.634-6.3,1.267-12.593c.038-.378.048-.759.071-1.139a1.112,1.112,0,0,1,.873-.3q2.374-.04,4.747,0A1.11,1.11,0,0,1,2729.184,422.532Z" transform="translate(-2671.221 -306.341)" fill="#f5ba00"/>
            <path id="Trazado_145682" data-name="Trazado 145682" d="M2769.938,363.684a11.342,11.342,0,0,0,4.036-3.064l3.822,2.832c-.365.159-.431.534-.583.837q-3.268,6.516-6.526,13.04c-.155.309-.344.6-.518.9a.623.623,0,0,1-.348-.426,35.359,35.359,0,0,1-.986-5.37c1.226-1.717,1.226-1.717,0-3.343A17.269,17.269,0,0,1,2769.938,363.684Z" transform="translate(-2686.372 -286.688)" fill="#e4e6e8"/>
            <path id="Trazado_145683" data-name="Trazado 145683" d="M2749.887,360.614c1.073,1.4,2.66,2.168,3.983,3.261a1.178,1.178,0,0,1,.405.829,28.887,28.887,0,0,1,.748,4.366c-1.219,1.706-1.219,1.706-.006,3.343a34.006,34.006,0,0,1-.979,5.385.625.625,0,0,1-.349.427q-2.177-4.286-4.354-8.571c-.9-1.786-1.787-3.582-2.689-5.368-.153-.3-.215-.678-.584-.834Z" transform="translate(-2679.105 -286.686)" fill="#e4e6e8"/>
            <path id="Trazado_145684" data-name="Trazado 145684" d="M2718.862,362.03a4.311,4.311,0,0,0-.2,3.077c-.392.152-.374.562-.527.859a6.244,6.244,0,0,1-5.755,3.683c-.006-1.519-.037-3.038-.013-4.557a3.018,3.018,0,0,1,3.075-3.065C2716.583,362,2717.723,362.027,2718.862,362.03Z" transform="translate(-2668.351 -287.133)" fill="#946625"/>
            <path id="Trazado_145685" data-name="Trazado 145685" d="M2753.082,317.107a25.1,25.1,0,0,0-.2,4.545,4.7,4.7,0,0,0-3.121,1.585,5.5,5.5,0,0,1-1.454,1.312c0-1.393-.015-2.786-.005-4.179a3.057,3.057,0,0,1,3.257-3.275C2752.069,317.089,2752.576,317.1,2753.082,317.107Z" transform="translate(-2679.82 -272.799)" fill="#946625"/>
            <path id="Trazado_145686" data-name="Trazado 145686" d="M2757.263,383.547l1.2-5.952a1.145,1.145,0,0,1,.88-.285q2.522-.036,5.044,0a1.142,1.142,0,0,1,.88.286l1.205,5.953c-1.382,3.124-3.021,6.119-4.6,9.361-.614-1.213-1.157-2.241-1.659-3.287C2759.246,387.591,2758.117,385.635,2757.263,383.547Z" transform="translate(-2682.679 -292.007)" fill="#f5ba00"/>
            <path id="Trazado_145687" data-name="Trazado 145687" d="M2758.552,370.664q-.51-2.676-1.023-5.351a13.447,13.447,0,0,1,2.7.613,10.853,10.853,0,0,0,6.1-.806q-.49,2.773-.98,5.545a1.15,1.15,0,0,1-.88.285q-2.52.035-5.039,0A1.148,1.148,0,0,1,2758.552,370.664Z" transform="translate(-2682.764 -288.124)" fill="#f5ba00"/>
            <path id="Trazado_145688" data-name="Trazado 145688" d="M2764.148,348.533a4.941,4.941,0,0,0,.667,0c.691-.094.8.239.855.87a4.822,4.822,0,0,1-5.41,5.273c-.6-.052-.792-.246-.731-.8a4.432,4.432,0,0,0,0-.477c0-1.655,0-1.655,1.612-1.809a1.5,1.5,0,0,0,1.447-1.578C2762.664,348.533,2762.664,348.533,2764.148,348.533Z" transform="translate(-2683.398 -282.825)" fill="#c69269"/>
            <path id="Trazado_145689" data-name="Trazado 145689" d="M2770.81,335.047c2.462,0,2.447,0,2.267,2.475-.034.462-.2.6-.631.589-1.111-.019-2.224-.035-3.334,0-.909.031-.706-.659-.6-1.045.18-.675-.706-1.723.591-2A8.333,8.333,0,0,1,2770.81,335.047Z" transform="translate(-2686.226 -278.516)" fill="#b0792c"/>
            <path id="Trazado_145690" data-name="Trazado 145690" d="M2755.1,335.064c2.374,0,2.355,0,2.278,2.37-.017.545-.188.714-.719.7q-1.618-.048-3.239,0c-.505.014-.635-.176-.656-.663C2752.658,335.063,2752.644,335.064,2755.1,335.064Z" transform="translate(-2681.233 -278.533)" fill="#b0792c"/>
            <path id="Trazado_145691" data-name="Trazado 145691" d="M2771.577,343.356a1.525,1.525,0,1,1-1.48-1.544A1.522,1.522,0,0,1,2771.577,343.356Z" transform="translate(-2686.273 -280.686)" fill="#956726"/>
            <path id="Trazado_145692" data-name="Trazado 145692" d="M2756.568,344.859a1.524,1.524,0,1,1,1.531-1.495A1.518,1.518,0,0,1,2756.568,344.859Z" transform="translate(-2681.973 -280.686)" fill="#956726"/>
            <path id="Trazado_145693" data-name="Trazado 145693" d="M2730.4,410.066l-1.029,5.36c-.214.473-.659.439-1.056.446q-2.315.04-4.63,0c-.4-.008-.842.022-1.056-.449q-.526-2.682-1.051-5.362A10.864,10.864,0,0,0,2730.4,410.066Z" transform="translate(-2671.294 -302.463)" fill="#f5ba00"/>
            <path id="Trazado_145694" data-name="Trazado 145694" d="M2723.581,398a3.447,3.447,0,0,0,0-.477c-.115-.771.164-1.147.981-1.01a.553.553,0,0,0,.1,0c1.514-.012,2.02-.476,1.969-2-.027-.808.16-1.224,1.037-1.064a1.051,1.051,0,0,0,.191,0c2.051,0,2.131.01,1.821,2.041-.435,2.849-2.735,4.409-5.677,4.073-.338-.039-.41-.238-.41-.52Q2723.584,398.524,2723.581,398Z" transform="translate(-2671.922 -297.153)" fill="#c69269"/>
            <path id="Trazado_145695" data-name="Trazado 145695" d="M2734.877,379.989c2.309,0,2.292,0,2.255,2.3-.008.556-.128.8-.739.776a30.252,30.252,0,0,1-3.234-.045c-1.313-.2-.415-1.312-.6-1.986-.1-.382-.31-1.095.6-1.046C2733.733,380.015,2734.306,379.99,2734.877,379.989Z" transform="translate(-2674.755 -292.866)" fill="#b0792c"/>
            <path id="Trazado_145696" data-name="Trazado 145696" d="M2719.044,383.049c-2.358,0-2.342,0-2.227-2.421.024-.5.188-.658.672-.646,1.111.025,2.223.022,3.334,0,.459-.009.577.176.6.614C2721.585,383.049,2721.6,383.049,2719.044,383.049Z" transform="translate(-2669.761 -292.866)" fill="#b0792c"/>
            <path id="Trazado_145697" data-name="Trazado 145697" d="M2722.155,388.229a1.525,1.525,0,1,1-1.534-1.489A1.525,1.525,0,0,1,2722.155,388.229Z" transform="translate(-2670.504 -295.022)" fill="#956726"/>
            <path id="Trazado_145698" data-name="Trazado 145698" d="M2735.634,388.3a1.525,1.525,0,1,1-1.459-1.565A1.524,1.524,0,0,1,2735.634,388.3Z" transform="translate(-2674.805 -295.021)" fill="#956726"/>
            <path id="Trazado_145699" data-name="Trazado 145699" d="M2802.287,410.068q-.514,2.679-1.027,5.359c-.214.473-.659.439-1.056.446q-2.314.04-4.63,0c-.4-.008-.842.022-1.055-.449q-.526-2.681-1.051-5.362A10.855,10.855,0,0,0,2802.287,410.068Z" transform="translate(-2694.231 -302.463)" fill="#f5ba00"/>
            <path id="Trazado_145700" data-name="Trazado 145700" d="M2795.467,398.062a4.6,4.6,0,0,0,0-.667c-.112-.746.24-.9.925-.892,1.735.024,2.162-.389,2.12-2.114-.02-.786.257-1.037.981-.93a1.371,1.371,0,0,0,.191,0c2.007,0,2.3.372,1.847,2.363a4.91,4.91,0,0,1-5.59,3.758c-.3-.052-.467-.152-.464-.469,0-.35,0-.7,0-1.049Z" transform="translate(-2694.861 -297.159)" fill="#c69269"/>
            <path id="Trazado_145701" data-name="Trazado 145701" d="M2806.743,379.993c2.38,0,2.364,0,2.3,2.349-.015.52-.14.738-.7.72-1.079-.035-2.16-.027-3.239,0-.477.011-.653-.129-.678-.64C2804.306,379.992,2804.289,379.993,2806.743,379.993Z" transform="translate(-2697.715 -292.869)" fill="#b0792c"/>
            <path id="Trazado_145702" data-name="Trazado 145702" d="M2791.028,379.975c2.462,0,2.448,0,2.266,2.475-.034.462-.2.6-.631.59-1.112-.019-2.224-.035-3.334,0-.909.031-.706-.66-.6-1.045.18-.675-.7-1.723.592-2A8.332,8.332,0,0,1,2791.028,379.975Z" transform="translate(-2692.677 -292.852)" fill="#b0792c"/>
            <path id="Trazado_145703" data-name="Trazado 145703" d="M2792.506,389.788a1.525,1.525,0,1,1,1.535-1.49A1.518,1.518,0,0,1,2792.506,389.788Z" transform="translate(-2693.442 -295.022)" fill="#956726"/>
            <path id="Trazado_145704" data-name="Trazado 145704" d="M2807.52,388.229a1.525,1.525,0,1,1-1.535-1.489A1.526,1.526,0,0,1,2807.52,388.229Z" transform="translate(-2697.742 -295.022)" fill="#956726"/>
            <path id="Trazado_145705" data-name="Trazado 145705" d="M2794.448,417.936a3.2,3.2,0,0,0,1.763.155,27.156,27.156,0,0,0,4.979-.152c.082.092.147.221.25.27a1.484,1.484,0,0,1,.954,1.567,1.537,1.537,0,0,1-1.322,1.39h-6.493a1.535,1.535,0,0,1-1.322-1.388,1.481,1.481,0,0,1,.949-1.569C2794.307,418.162,2794.369,418.029,2794.448,417.936Z" transform="translate(-2694.161 -304.976)" fill="#dd9300"/>
            <path id="Trazado_145706" data-name="Trazado 145706" d="M2722.563,417.936a3.2,3.2,0,0,0,1.763.155,27.153,27.153,0,0,0,4.979-.152c.083.092.148.221.251.27a1.485,1.485,0,0,1,.954,1.567,1.537,1.537,0,0,1-1.322,1.39h-6.493a1.536,1.536,0,0,1-1.323-1.388,1.483,1.483,0,0,1,.949-1.569C2722.422,418.162,2722.483,418.029,2722.563,417.936Z" transform="translate(-2671.224 -304.976)" fill="#dd9300"/>
            <path id="Trazado_145707" data-name="Trazado 145707" d="M2733.85,432.468l-.336-3.063c3.052,0,6.1.02,9.153-.012.692-.007.94.165.936.9-.011,2.174.021,2.174-2.126,2.174Z" transform="translate(-2675.101 -308.632)" fill="#486bdf"/>
            <path id="Trazado_145708" data-name="Trazado 145708" d="M2805.473,430.063q-.177-1.708-.353-3.415c.256.46.7.353,1.1.353,3.247,0,6.493.023,9.739-.015.753-.009.981.206.97.965-.029,2.11.005,2.11-2.1,2.111Z" transform="translate(-2697.949 -307.756)" fill="#486bdf"/>
            <path id="Trazado_145709" data-name="Trazado 145709" d="M2758.48,373.262h6.8a1.574,1.574,0,0,1,.007,3.046h-6.8a1.575,1.575,0,0,1,0-3.047Z" transform="translate(-2682.693 -290.722)" fill="#dd9300"/>
          </g>
        </g>
      </g>
    </g>
  </g>
</svg>
