<svg xmlns="http://www.w3.org/2000/svg" width="155" height="155" viewBox="0 0 155 155">
  <g id="Grupo_75139" data-name="Grupo 75139" transform="translate(-5185 12937)">
    <g id="Grupo_75137" data-name="Grupo 75137">
      <rect id="Rectángulo_32803" data-name="Rectángulo 32803" width="155" height="155" transform="translate(5185 -12937)" fill="none"/>
      <path id="Trazado_146288" data-name="Trazado 146288" d="M27.8,7.428H23.53V19H20.1V7.428H15.913V4.781H27.8Zm-1.152,6.191a6.236,6.236,0,0,1,.615-2.817,4.4,4.4,0,0,1,1.768-1.9,5.323,5.323,0,0,1,2.705-.664,4.858,4.858,0,0,1,3.74,1.47,5.64,5.64,0,0,1,1.367,4v.117a5.472,5.472,0,0,1-1.372,3.921,4.871,4.871,0,0,1-3.716,1.45,4.927,4.927,0,0,1-3.623-1.353,5.29,5.29,0,0,1-1.475-3.667Zm3.291.205a3.932,3.932,0,0,0,.459,2.148,1.529,1.529,0,0,0,1.357.684q1.758,0,1.8-2.705v-.332q0-2.842-1.816-2.842-1.65,0-1.787,2.451ZM41.763,19h-3.3V4h3.3Zm7.139.2a5.432,5.432,0,0,1-3.936-1.45,5.008,5.008,0,0,1-1.5-3.774V13.7a6.489,6.489,0,0,1,.6-2.861,4.395,4.395,0,0,1,1.753-1.919,5.292,5.292,0,0,1,2.734-.679A4.574,4.574,0,0,1,52.065,9.62a5.43,5.43,0,0,1,1.289,3.853v1.279H46.812a2.372,2.372,0,0,0,.771,1.4,2.3,2.3,0,0,0,1.543.508,2.958,2.958,0,0,0,2.441-1.094l1.5,1.777a4.2,4.2,0,0,1-1.743,1.353A5.891,5.891,0,0,1,48.9,19.2Zm-.371-8.418q-1.445,0-1.719,1.914h3.32v-.254a1.63,1.63,0,0,0-.4-1.226A1.593,1.593,0,0,0,48.53,10.777Zm12.539.635-1.084-.078a1.947,1.947,0,0,0-1.992.977V19H54.7V8.434h3.086L57.9,9.791A2.548,2.548,0,0,1,60.21,8.238a3.209,3.209,0,0,1,.918.117ZM67.915,19a3.716,3.716,0,0,1-.312-.947A3.06,3.06,0,0,1,65.063,19.2a3.749,3.749,0,0,1-2.539-.9,2.875,2.875,0,0,1-1.045-2.271,2.955,2.955,0,0,1,1.27-2.6,6.468,6.468,0,0,1,3.691-.879h1.016v-.559q0-1.462-1.26-1.462a1.03,1.03,0,0,0-1.172,1.158H61.733a2.95,2.95,0,0,1,1.3-2.487,5.479,5.479,0,0,1,3.325-.956,4.8,4.8,0,0,1,3.193.986,3.429,3.429,0,0,1,1.2,2.705v4.678a4.79,4.79,0,0,0,.449,2.227V19Zm-2.061-2.148a1.836,1.836,0,0,0,1.021-.264,1.653,1.653,0,0,0,.581-.6V14.3H66.5q-1.719,0-1.719,1.543a.942.942,0,0,0,.3.728A1.1,1.1,0,0,0,65.854,16.852ZM75.6,8.434l.107,1.24a3.583,3.583,0,0,1,3.018-1.436,3.015,3.015,0,0,1,2.466.986,4.7,4.7,0,0,1,.845,2.969V19h-3.3V12.33a1.783,1.783,0,0,0-.322-1.177,1.491,1.491,0,0,0-1.172-.376,1.569,1.569,0,0,0-1.436.762V19H72.515V8.434Zm12.725,8.223A1.464,1.464,0,0,0,89.4,16.28a1.379,1.379,0,0,0,.371-1.05h3.086a3.653,3.653,0,0,1-1.245,2.852A4.631,4.631,0,0,1,88.4,19.2a4.689,4.689,0,0,1-3.633-1.445,5.7,5.7,0,0,1-1.328-4v-.137a6.436,6.436,0,0,1,.591-2.827,4.3,4.3,0,0,1,1.7-1.885,5.081,5.081,0,0,1,2.637-.659,4.573,4.573,0,0,1,3.271,1.143,4.053,4.053,0,0,1,1.211,3.1H89.771a1.806,1.806,0,0,0-.4-1.26,1.382,1.382,0,0,0-1.074-.439q-1.279,0-1.494,1.631a11.508,11.508,0,0,0-.068,1.426,4.52,4.52,0,0,0,.381,2.207A1.319,1.319,0,0,0,88.325,16.656ZM97.72,19h-3.3V8.434h3.3Zm-3.5-13.3a1.482,1.482,0,0,1,.508-1.159,2.149,2.149,0,0,1,2.637,0A1.482,1.482,0,0,1,97.876,5.7a1.482,1.482,0,0,1-.508,1.159,2.149,2.149,0,0,1-2.637,0A1.482,1.482,0,0,1,94.224,5.7ZM105.7,19a3.716,3.716,0,0,1-.312-.947,3.06,3.06,0,0,1-2.539,1.143,3.749,3.749,0,0,1-2.539-.9,2.875,2.875,0,0,1-1.045-2.271,2.955,2.955,0,0,1,1.27-2.6,6.468,6.468,0,0,1,3.691-.879h1.016v-.559q0-1.462-1.26-1.462a1.03,1.03,0,0,0-1.172,1.158H99.517a2.95,2.95,0,0,1,1.3-2.487,5.479,5.479,0,0,1,3.325-.956,4.8,4.8,0,0,1,3.193.986,3.429,3.429,0,0,1,1.2,2.705v4.678a4.79,4.79,0,0,0,.449,2.227V19Zm-2.061-2.148a1.836,1.836,0,0,0,1.021-.264,1.653,1.653,0,0,0,.581-.6V14.3h-.957q-1.719,0-1.719,1.543a.942.942,0,0,0,.3.728A1.1,1.1,0,0,0,103.638,16.852Z" transform="translate(5200 -12821)" fill="#12263f"/>
      <path id="Trazado_146289" data-name="Trazado 146289" d="M42.5,0A42.5,42.5,0,1,1,0,42.5,42.5,42.5,0,0,1,42.5,0Z" transform="translate(5220 -12922)" fill="#7e5ee3"/>
      <g id="Grupo_74990" data-name="Grupo 74990" transform="translate(3863.655 -14297.346)">
        <path id="Trazado_145656" data-name="Trazado 145656" d="M1396.745,1453.689c-1.613-.227-3.237-.39-4.836-.691a34.9,34.9,0,0,1-14.222-6.225,1.057,1.057,0,1,1,1.238-1.689,31.344,31.344,0,0,0,10.417,5.128c12.83,3.375,24.108.532,33.587-8.788a31.483,31.483,0,0,0,9.307-18.841c1.434-11.137-1.8-20.8-9.744-28.774a31.864,31.864,0,0,0-18.9-9.354c-11.135-1.434-20.8,1.793-28.775,9.734a31.976,31.976,0,0,0-9.366,18.891,33.158,33.158,0,0,0,8.6,27.637c.156.174.323.338.48.51.592.652.629,1.162.123,1.643s-1.054.423-1.637-.182a35.656,35.656,0,0,1-9.9-22.14,5,5,0,0,0-.117-.6v-4.34c.229-1.587.4-3.185.694-4.76a35.844,35.844,0,0,1,28.9-28.292c1.33-.219,2.671-.369,4.007-.552h4.481c.18.039.358.088.54.116,1.84.285,3.705.456,5.516.869a35.777,35.777,0,0,1,27.006,28.681c.218,1.306.364,2.626.543,3.938v4.481c-.04.18-.09.359-.117.541-.243,1.659-.4,3.335-.737,4.974a35.853,35.853,0,0,1-28.746,27.537c-1.33.216-2.67.37-4,.552Z" transform="translate(0)" fill="#fff"/>
        <path id="Trazado_145657" data-name="Trazado 145657" d="M1404.118,1407.912a13.413,13.413,0,0,1,18.992,18.8c2.682,3.836,1.591,6.7-2.888,7.478-.2,2.645-1.674,4.07-4.355,4.325a4.353,4.353,0,0,1-4.349,4.369c-.819,4.345-3.792,5.53-7.329,2.951a4.262,4.262,0,0,1-7.327-2.922c-3.046-.637-3.829-1.419-4.351-4.375a4.324,4.324,0,0,1-4.345-4.368,4.142,4.142,0,0,1-3.987-2.627,4.223,4.223,0,0,1,1.072-4.677,13.729,13.729,0,0,1-2.927-11.2,12.82,12.82,0,0,1,4.1-7.459A13.6,13.6,0,0,1,1404.118,1407.912Zm.492,27.257c.173.018.355.032.535.058a3.871,3.871,0,0,1,3.4,2.545,5.786,5.786,0,0,0,1.611,2.291,1.891,1.891,0,0,0,2.853.065,1.945,1.945,0,0,0,.035-2.91c-.176-.187-.362-.364-.543-.545-2.095-2.1-4.2-4.179-6.269-6.3a1.414,1.414,0,0,1-.366-1.094,1.142,1.142,0,0,1,.8-.733,1.677,1.677,0,0,1,1.13.486c2.252,2.2,4.465,4.443,6.7,6.666a1.84,1.84,0,0,0,2.411.358,1.945,1.945,0,0,0,.454-3.225c-2.251-2.269-4.519-4.521-6.775-6.786-.6-.6-.595-1.226-.022-1.676.5-.392.974-.328,1.537.233q2.726,2.716,5.445,5.443c.478.479.942.973,1.44,1.429a2.162,2.162,0,0,0,2.925-.076,1.738,1.738,0,0,0,.165-2.56,9.422,9.422,0,0,0-1.064-1.2c-1.118-1.092-2.263-2.156-3.377-3.254-.221-.217-.508-.547-.481-.794a1.385,1.385,0,0,1,.539-1.005,1.326,1.326,0,0,1,1.178.142c.926.774,1.761,1.656,2.659,2.524a11.289,11.289,0,0,0-3.655-17.219,11.186,11.186,0,0,0-12.577,1.714c-2.509,2.37-4.913,4.853-7.329,7.319a2.277,2.277,0,0,0-.554,1.229,2.049,2.049,0,0,0,1.254,2,1.847,1.847,0,0,0,2.232-.469q3.253-3.231,6.487-6.48c.861-.859,1.292-.9,2.173-.028,1.762,1.734,3.492,3.5,5.227,5.265.563.573.592,1.125.13,1.589-.479.479-1.065.438-1.645-.138q-2.159-2.147-4.308-4.3c-.158-.158-.331-.3-.6-.542a7.138,7.138,0,0,1-.509.646q-2.716,2.73-5.441,5.448a3.943,3.943,0,0,1-2.7,1.3,4.491,4.491,0,0,1-4.089-2.683,3.748,3.748,0,0,1,.924-4.413c1.837-1.858,3.693-3.7,5.54-5.547.156-.157.3-.328.448-.492a11.3,11.3,0,0,0-14.823.439c-4.845,4.516-4.007,10.965-.821,15.493.706-.739,1.356-1.51,2.1-2.176a4.094,4.094,0,0,1,6.746,2.219c.075.355.119.717.178,1.072a4.264,4.264,0,0,1,3.067,1.248,4.409,4.409,0,0,1,1.249,3.07C1402.983,1431.119,1404.162,1432.3,1404.61,1435.169Zm-4.494-2.241a4.26,4.26,0,0,0-1.074.6c-1.283,1.217-2.532,2.474-3.762,3.745a2.053,2.053,0,0,0,.006,2.894,1.994,1.994,0,0,0,2.832-.025c1.274-1.228,2.513-2.492,3.757-3.751a1.759,1.759,0,0,0,.385-2.117A2.328,2.328,0,0,0,1400.116,1432.928Zm-1.211,10.06a2.313,2.313,0,0,0,1.31,1.912,1.909,1.909,0,0,0,2.255-.4q1.879-1.825,3.708-3.7a1.91,1.91,0,0,0-.036-2.852,1.889,1.889,0,0,0-2.852.019c-1.216,1.188-2.433,2.377-3.594,3.618A6.65,6.65,0,0,0,1398.9,1442.988Zm-10.672-10.968a2.518,2.518,0,0,0,.935-.4c1.429-1.364,2.851-2.742,4.191-4.193a1.8,1.8,0,0,0-.309-2.566,1.831,1.831,0,0,0-2.584-.154q-2.075,1.969-4.044,4.049a1.811,1.811,0,0,0-.2,2.156A2.006,2.006,0,0,0,1388.232,1432.02Zm9.99-1.226a2.62,2.62,0,0,0-1.484-2.027,1.81,1.81,0,0,0-2.111.442c-1.223,1.213-2.447,2.424-3.652,3.655a2.047,2.047,0,0,0-.025,2.939,1.993,1.993,0,0,0,2.876-.069c1.235-1.2,2.461-2.412,3.645-3.661A6.445,6.445,0,0,0,1398.221,1430.794Zm7.514,13.511c1.168,1.052,2.392,1.031,3.2-.012a1.96,1.96,0,0,0-.476-2.844Z" transform="translate(-5.271 -6.278)" fill="#fff"/>
      </g>
    </g>
  </g>
</svg>
