<svg xmlns="http://www.w3.org/2000/svg" xmlns:xlink="http://www.w3.org/1999/xlink" width="100" height="101.739" viewBox="0 0 100 101.739">
  <defs>
    <clipPath id="clip-path">
      <ellipse id="Elipse_4705" data-name="Elipse 4705" cx="50" cy="49.993" rx="50" ry="49.993" fill="none"/>
    </clipPath>
  </defs>
  <g id="Grupo_75308" data-name="Grupo 75308" transform="translate(-3282 7223.708)">
    <g id="Grupo_75291" data-name="Grupo 75291" transform="translate(570.906 -7969.459)">
      <g id="Grupo_74987" data-name="Grupo 74987" transform="translate(2711.094 747.505)">
        <g id="Grupo_74986" data-name="Grupo 74986" clip-path="url(#clip-path)">
          <path id="Trazado_145621" data-name="Trazado 145621" d="M2754.118,759.146c14.331-13.489,32.1-16.018,48.769-13.884L2741.408,704.6l-63.136,95.423C2708.52,801.663,2718.848,792.347,2754.118,759.146Z" transform="translate(-2700.622 -734.355)" fill="#54c7fe"/>
          <path id="Trazado_145622" data-name="Trazado 145622" d="M2763.28,880.828l65.484-98.972-26.978-17.845c-16.665-2.134-34.438.395-48.769,13.884-35.27,33.2-45.6,42.517-75.845,40.874l-2.348,3.549Z" transform="translate(-2699.521 -753.105)" fill="#5477cd"/>
          <g id="Grupo_74985" data-name="Grupo 74985" transform="translate(-6.957 66.744)">
            <path id="Trazado_145623" data-name="Trazado 145623" d="M2739.041,848.065q0,9.526,0,19.053c-.018.82-.078,1.639-.039,2.457.025.525-.143.75-1.029.748q-18.012-.028-36.023,0c-.832,0-1.073-.157-1.071-.72q.038-11.283,0-22.564c0-.594.323-.7,1.1-.694q17.933.021,35.864,0c.877,0,1.262.145,1.154.765A4.239,4.239,0,0,0,2739.041,848.065Z" transform="translate(-2700.878 -846.34)" fill="#0092b9"/>
            <path id="Trazado_145624" data-name="Trazado 145624" d="M2745.953,872.4c-1.649,0-1.649,0-1.649-1.934,0-1.49,0-1.49,1.988-1.489,1.437,0,1.449,0,1.432,2.04C2747.709,872.653,2747.959,872.375,2745.953,872.4Z" transform="translate(-2714.734 -853.567)" fill="#7dcbe5"/>
          </g>
        </g>
      </g>
      <path id="Trazado_145625" data-name="Trazado 145625" d="M2824.195,792.135a15.648,15.648,0,0,1,3,.183,5.17,5.17,0,0,1-1.381,10.188,3.529,3.529,0,0,1-.539,0c-.836-.125-1.126.189-1.09,1.06a17.428,17.428,0,0,1-1.533,8.174c-2.973,6.384-7.872,10.381-14.941,11.231a41.342,41.342,0,0,1-13.083-.183c-7.082-1.422-11.795-5.734-14.3-12.484-.112-.3-.23-.6-.345-.9-.893-1.271-.783-2.779-.948-4.209a20.18,20.18,0,0,1-.014-2.779q-.074-5.1,0-10.2a34.744,34.744,0,0,1,.114-5.023c.284-.571.832-.473,1.318-.495a28.793,28.793,0,0,0,3.76-.143,9.955,9.955,0,0,0,8.349-7.555,2.169,2.169,0,0,1,.328-.9.5.5,0,0,1,.5-.008,1.911,1.911,0,0,1,.334.9,10.219,10.219,0,0,0,9.978,7.7c1.76.01,3.521-.026,5.28.014.842.019,1.161-.3,1.135-1.135a17.875,17.875,0,0,1,.047-2.8c.026-.206.075-.468.329-.5s.343.22.424.408c.226.528.365,1.088.577,1.623a11.924,11.924,0,0,0,11.042,7.572A2.469,2.469,0,0,1,2824.195,792.135Z" transform="translate(-22.106 -10.442)" fill="#f4bd99"/>
      <path id="Trazado_145626" data-name="Trazado 145626" d="M2762.933,799.525a27.28,27.28,0,0,0,.663,6.873c-3.342,0-6.685.039-10.026-.01-.836-.012-1.017.245-.994,1.029.056,1.894.019,3.792.019,5.884l-3.417-2.276c-2.033-1.355-4.075-2.694-6.091-4.073a2.958,2.958,0,0,0-1.795-.555c-3.054.031-6.109.023-9.163.01a5.171,5.171,0,0,1-5.418-5.423q-.015-13.583,0-27.167a5.127,5.127,0,0,1,5.036-5.358c11.031-.026,22.063,0,33.1,0,.217.5-.073.91-.273,1.32a13.678,13.678,0,0,0-1.295,5.955c-.021,2.264,0,4.529-.008,6.793a2.09,2.09,0,0,1-.3,1.445l-.036,5.16c-.41.41-.938.291-1.428.3a4.9,4.9,0,1,0,0,9.787C2762,799.234,2762.523,799.115,2762.933,799.525Z" transform="translate(-4.892 -7.342)" fill="#87be40"/>
      <path id="Trazado_145627" data-name="Trazado 145627" d="M2779.5,780.818c.061-3.53-.225-7.064.177-10.59a14.917,14.917,0,0,1,1.7-4.922,14.023,14.023,0,0,1,12.681-6.932c5.387.04,10.775,0,16.162.011a13.931,13.931,0,0,1,14.131,14.125c.01,4.49,0,8.979,0,13.469a12.735,12.735,0,0,1-9.858-3.17,11.987,11.987,0,0,1-3.5-5.7,1.8,1.8,0,0,0-.437-.862c0,1.266.008,2.532-.006,3.8,0,.323.148.794-.446.77-3.147-.128-6.332.4-9.438-.453a10.236,10.236,0,0,1-7.19-8.331q-.176-.342-.356,0a10.281,10.281,0,0,1-9.726,8.771C2782.094,780.843,2780.8,780.812,2779.5,780.818Z" transform="translate(-22.259 -3.956)" fill="#354f5c"/>
      <path id="Trazado_145628" data-name="Trazado 145628" d="M2824.428,747.518c0-1.841,0-1.862,1.605-1.707a23.124,23.124,0,0,1,8.717,2.464,22.6,22.6,0,0,1,11.823,15.307c.141.582.094.965-.629,1.043-.636.069-1.257.254-1.891.355-.464.074-.739-.008-.886-.608-2-8.1-7.173-12.966-15.238-14.843a13.866,13.866,0,0,0-1.908-.265C2824.429,749.121,2824.428,749.131,2824.428,747.518Z" transform="translate(-36.352)" fill="#cbdbe4"/>
      <path id="Trazado_145629" data-name="Trazado 145629" d="M2854.1,782.043a3.415,3.415,0,0,0-.537,0c-.936.15-1.24-.2-1.208-1.172.067-2.07.013-2.072,2.023-2.071,1.452,0,1.452,0,1.453,1.437,0,.036,0,.071,0,.107C2855.8,782.292,2856.073,782.016,2854.1,782.043Z" transform="translate(-45.104 -10.553)" fill="#cbdbe4"/>
      <path id="Trazado_145630" data-name="Trazado 145630" d="M2790.762,798.6c1.33,0,2.66-.011,3.99,0a3.41,3.41,0,0,1,3.575,3.607c.015,1.869.046,3.739-.016,5.606-.029.864.172,1.289,1.109,1.148a2.672,2.672,0,0,1,.966.027,1.619,1.619,0,0,1,1.379,1.573,1.528,1.528,0,0,1-1.267,1.752,6.589,6.589,0,0,1-3.3-.122,3.371,3.371,0,0,1-2.312-3.3c-.019-1.941-.041-3.883.012-5.822.021-.786-.175-1.061-1.009-1.042-2.406.056-4.815.025-7.224.018-1.376,0-2.134-.628-2.133-1.727s.752-1.714,2.134-1.721C2788.031,798.6,2789.4,798.6,2790.762,798.6Z" transform="translate(-23.518 -16.909)" fill="#a2783b"/>
      <path id="Trazado_145631" data-name="Trazado 145631" d="M2776.316,808.968a15.249,15.249,0,0,1-2.991-.192A5.168,5.168,0,0,1,2774.7,798.6c.538,0,1.075-.012,1.614-.018Q2776.316,803.773,2776.316,808.968Z" transform="translate(-18.63 -16.89)" fill="#eb907e"/>
      <path id="Trazado_145632" data-name="Trazado 145632" d="M2814.889,798.6c1.077,0,2.154-.016,3.23,0a1.724,1.724,0,1,1,.056,3.437q-3.337.037-6.674,0a1.724,1.724,0,1,1,.052-3.437C2812.664,798.586,2813.777,798.6,2814.889,798.6Z" transform="translate(-31.516 -16.872)" fill="#a2783b"/>
      <path id="Trazado_145633" data-name="Trazado 145633" d="M2808.081,831.283c.609,0,1.221-.035,1.828.008a1.669,1.669,0,0,1,1.621,1.679,1.647,1.647,0,0,1-1.561,1.732c-1.252.062-2.512.061-3.764,0a1.645,1.645,0,0,1-1.566-1.727,1.694,1.694,0,0,1,1.613-1.692,2.038,2.038,0,0,1,.215-.005h1.614Z" transform="translate(-29.887 -27.304)" fill="#a3783b"/>
      <path id="Trazado_145634" data-name="Trazado 145634" d="M2791.225,809.589a1.721,1.721,0,1,1,1.771-1.644A1.7,1.7,0,0,1,2791.225,809.589Z" transform="translate(-25.051 -19.283)" fill="#a3783c"/>
      <path id="Trazado_145635" data-name="Trazado 145635" d="M2818.132,807.921a1.721,1.721,0,1,1-1.64-1.772A1.708,1.708,0,0,1,2818.132,807.921Z" transform="translate(-33.076 -19.283)" fill="#a3783c"/>
      <path id="Trazado_145636" data-name="Trazado 145636" d="M2799.325,777.884c-.028-.273-.122-.555.153-.817.369.2.213.531.2.818Z" transform="translate(-28.143 -9.994)" fill="#696d6d"/>
      <path id="Trazado_145637" data-name="Trazado 145637" d="M2748.837,791.993c-3.7,0-7.4-.016-11.1.013-.726.006-1-.175-1-.955-.008-2.51-.039-2.51,2.452-2.51,6.861,0,13.723.014,20.584-.019.868,0,1.186.2,1.167,1.123-.048,2.346,0,2.347-2.4,2.347Z" transform="translate(-8.227 -13.656)" fill="#c4d95d"/>
      <path id="Trazado_145638" data-name="Trazado 145638" d="M2745.391,802.048c-2.55,0-5.1-.021-7.649.013-.72.01-1-.165-1.006-.951-.008-2.514-.041-2.514,2.446-2.514,4.6,0,9.194.016,13.79-.016.773-.005,1.067.168,1.062,1.007-.016,2.46.023,2.46-2.394,2.46Z" transform="translate(-8.211 -16.867)" fill="#c4d95d"/>
      <path id="Trazado_145639" data-name="Trazado 145639" d="M2745.316,812.1c-2.55,0-5.1-.021-7.649.013-.7.01-.921-.205-.931-.915-.034-2.549-.059-2.549,2.516-2.549,4.561,0,9.123.02,13.683-.018.842-.007,1.109.218,1.1,1.082-.036,2.387,0,2.387-2.358,2.387Z" transform="translate(-8.209 -20.076)" fill="#c4d95d"/>
      <path id="Trazado_145640" data-name="Trazado 145640" d="M2758.734,781.939c-1.975,0-3.951-.028-5.924.014-.739.016-.99-.2-.993-.964-.006-2.5-.036-2.5,2.457-2.5,3.447,0,6.894.023,10.341-.016.79-.009,1.053.2,1.048,1.021-.016,2.447.02,2.447-2.4,2.447Z" transform="translate(-13.03 -10.446)" fill="#c4d95d"/>
      <path id="Trazado_145641" data-name="Trazado 145641" d="M2743.464,781.943c-1.971-.034-1.666.279-1.669-1.963,0-1.772-.264-1.476,2.034-1.482,1.686,0,1.393-.216,1.4,2.009C2745.242,782.193,2745.393,781.917,2743.464,781.943Z" transform="translate(-9.797 -10.45)" fill="#c4d95d"/>
      <path id="Trazado_145642" data-name="Trazado 145642" d="M2800.515,862.268c3.664-1.267,7.145-2.981,10.733-4.431,1.463-.591,2.9-1.236,4.358-1.848,2.654-1.116,5.305-.145,6.313,2.306a4.7,4.7,0,0,1-2.856,6.285q-6.831,2.612-13.67,5.206c-4.457,1.7-8.881,3.484-13.377,5.068a27.61,27.61,0,0,1-20.161-.516c-5.048-2.053-10.073-4.165-15.107-6.251-.437-.38-.38-.906-.381-1.4q-.02-8.209,0-16.42a1.638,1.638,0,0,1,.38-1.4c1.867,0,3.734.016,5.6,0a38.91,38.91,0,0,1,17.645,4.013,11.414,11.414,0,0,0,5.186,1.178c4.272-.033,8.545-.014,12.818-.008a4.243,4.243,0,0,1,4.234,3,4.185,4.185,0,0,1-1.919,5,.962.962,0,0,1-.592.361.812.812,0,0,1-.3.076c.167.072.279-.092.427-.1C2800.055,862.287,2800.3,862.377,2800.515,862.268Z" transform="translate(-15.018 -33.165)" fill="#f4bd99"/>
      <path id="Trazado_145643" data-name="Trazado 145643" d="M2797.27,869.921c-2.726,0-5.452,0-8.178,0-1.31,0-2.027-.6-2.054-1.676-.028-1.13.706-1.77,2.066-1.771q8.178-.006,16.356,0c1.4,0,2.078.575,2.076,1.729s-.678,1.717-2.088,1.719C2802.722,869.925,2800,869.921,2797.27,869.921Z" transform="translate(-24.342 -38.681)" fill="#eb907f"/>
    </g>
  </g>
</svg>
