<svg xmlns="http://www.w3.org/2000/svg" width="155" height="155" viewBox="0 0 155 155">
  <g id="Grupo_75143" data-name="Grupo 75143" transform="translate(-4776 13145)">
    <path id="Trazado_146282" data-name="Trazado 146282" d="M17.329,14.186a5.193,5.193,0,0,1-.8,2.622,4.833,4.833,0,0,1-2.056,1.763,7,7,0,0,1-3.022.625,5.584,5.584,0,0,1-4.414-1.826,7.54,7.54,0,0,1-1.611-5.156v-.7a8.607,8.607,0,0,1,.728-3.657A5.513,5.513,0,0,1,8.247,5.431a5.844,5.844,0,0,1,3.164-.854,6.129,6.129,0,0,1,4.16,1.362,5.383,5.383,0,0,1,1.787,3.755H13.94a2.547,2.547,0,0,0-.654-1.865,2.691,2.691,0,0,0-1.875-.566,2.048,2.048,0,0,0-1.875.957,6.151,6.151,0,0,0-.625,3.057v1.006a6.806,6.806,0,0,0,.571,3.252,2.091,2.091,0,0,0,1.968.977,2.632,2.632,0,0,0,1.807-.557,2.363,2.363,0,0,0,.664-1.768Zm1.055-.566A6.236,6.236,0,0,1,19,10.8a4.4,4.4,0,0,1,1.768-1.9,5.323,5.323,0,0,1,2.705-.664,4.858,4.858,0,0,1,3.74,1.47,5.64,5.64,0,0,1,1.367,4v.117a5.472,5.472,0,0,1-1.372,3.921,4.871,4.871,0,0,1-3.716,1.45,4.927,4.927,0,0,1-3.623-1.353,5.29,5.29,0,0,1-1.475-3.667Zm3.291.205a3.932,3.932,0,0,0,.459,2.148,1.529,1.529,0,0,0,1.357.684q1.758,0,1.8-2.705v-.332q0-2.842-1.816-2.842-1.65,0-1.787,2.451ZM33.14,8.434l.107,1.24a3.633,3.633,0,0,1,3.018-1.436A2.675,2.675,0,0,1,38.97,9.83a3.516,3.516,0,0,1,3.105-1.592q3.213,0,3.3,3.887V19h-3.3V12.33a2.014,2.014,0,0,0-.273-1.182,1.164,1.164,0,0,0-1-.371,1.559,1.559,0,0,0-1.455.869l.01.137V19h-3.3V12.35a2.117,2.117,0,0,0-.264-1.2,1.161,1.161,0,0,0-1.006-.371,1.578,1.578,0,0,0-1.445.869V19H30.054V8.434Zm23.926,5.361a6.372,6.372,0,0,1-1.108,3.931,3.554,3.554,0,0,1-2.993,1.47,3.046,3.046,0,0,1-2.393-1.064v4.932H47.28V8.434h3.076l.1.977a3.046,3.046,0,0,1,2.49-1.172,3.582,3.582,0,0,1,3.037,1.44,6.45,6.45,0,0,1,1.084,3.96Zm-3.291-.205q0-2.812-1.641-2.812a1.549,1.549,0,0,0-1.562.84v4.16a1.6,1.6,0,0,0,1.582.879q1.572,0,1.621-2.715Zm11.133-2.178-1.084-.078a1.947,1.947,0,0,0-1.992.977V19H58.54V8.434h3.086l.107,1.357a2.548,2.548,0,0,1,2.314-1.553,3.209,3.209,0,0,1,.918.117Zm.42,2.207a6.236,6.236,0,0,1,.615-2.817A4.4,4.4,0,0,1,67.71,8.9a5.323,5.323,0,0,1,2.705-.664,4.858,4.858,0,0,1,3.74,1.47,5.64,5.64,0,0,1,1.367,4v.117a5.472,5.472,0,0,1-1.372,3.921,4.871,4.871,0,0,1-3.716,1.45,4.927,4.927,0,0,1-3.623-1.353,5.29,5.29,0,0,1-1.475-3.667Zm3.291.205a3.932,3.932,0,0,0,.459,2.148,1.529,1.529,0,0,0,1.357.684q1.758,0,1.8-2.705v-.332q0-2.842-1.816-2.842-1.65,0-1.787,2.451ZM80.083,8.434l.107,1.24a3.633,3.633,0,0,1,3.018-1.436A2.675,2.675,0,0,1,85.913,9.83a3.517,3.517,0,0,1,3.105-1.592q3.213,0,3.3,3.887V19h-3.3V12.33a2.014,2.014,0,0,0-.273-1.182,1.164,1.164,0,0,0-1-.371,1.559,1.559,0,0,0-1.455.869l.01.137V19H83V12.35a2.117,2.117,0,0,0-.264-1.2,1.161,1.161,0,0,0-1.006-.371,1.578,1.578,0,0,0-1.445.869V19H77V8.434ZM97.671,19h-3.3V8.434h3.3Zm-3.5-13.3a1.482,1.482,0,0,1,.508-1.159,2.149,2.149,0,0,1,2.637,0A1.482,1.482,0,0,1,97.827,5.7a1.482,1.482,0,0,1-.508,1.159,2.149,2.149,0,0,1-2.637,0A1.482,1.482,0,0,1,94.175,5.7Zm11.055,10.332a.76.76,0,0,0-.439-.674,6.685,6.685,0,0,0-1.67-.527,7.615,7.615,0,0,1-2.031-.718,3.4,3.4,0,0,1-1.221-1.079,2.577,2.577,0,0,1-.42-1.455,2.92,2.92,0,0,1,1.2-2.4,4.948,4.948,0,0,1,3.145-.942,5.482,5.482,0,0,1,3.359.947,2.962,2.962,0,0,1,1.27,2.49h-3.3q0-1.27-1.338-1.27a1.326,1.326,0,0,0-.869.288.892.892,0,0,0-.352.718.819.819,0,0,0,.43.713,4.06,4.06,0,0,0,1.372.449,11.857,11.857,0,0,1,1.655.42,3.007,3.007,0,0,1,2.383,2.939,2.767,2.767,0,0,1-1.284,2.354,5.631,5.631,0,0,1-3.325.908,5.747,5.747,0,0,1-2.422-.488,4.05,4.05,0,0,1-1.66-1.328,3.007,3.007,0,0,1-.6-1.768h3.076a1.272,1.272,0,0,0,.488,1.069,2.009,2.009,0,0,0,1.2.337,1.58,1.58,0,0,0,1.011-.273A.875.875,0,0,0,105.229,16.031Zm4.3-2.412a6.236,6.236,0,0,1,.615-2.817,4.4,4.4,0,0,1,1.768-1.9,5.323,5.323,0,0,1,2.705-.664,4.858,4.858,0,0,1,3.74,1.47,5.64,5.64,0,0,1,1.367,4v.117a5.472,5.472,0,0,1-1.372,3.921,4.871,4.871,0,0,1-3.716,1.45,4.927,4.927,0,0,1-3.623-1.353,5.29,5.29,0,0,1-1.475-3.667Zm3.291.205a3.932,3.932,0,0,0,.459,2.148,1.529,1.529,0,0,0,1.357.684q1.758,0,1.8-2.705v-.332q0-2.842-1.816-2.842-1.65,0-1.787,2.451Z" transform="translate(4791 -13029)" fill="#12263f"/>
    <g id="Grupo_75134" data-name="Grupo 75134">
      <rect id="Rectángulo_32799" data-name="Rectángulo 32799" width="155" height="155" transform="translate(4776 -13145)" fill="none"/>
      <path id="Trazado_146283" data-name="Trazado 146283" d="M42.5,0A42.5,42.5,0,1,1,0,42.5,42.5,42.5,0,0,1,42.5,0Z" transform="translate(4811 -13130)" fill="#7e5ee3"/>
      <g id="Grupo_74988" data-name="Grupo 74988" transform="translate(3951.46 -13333.957)">
        <path id="Trazado_145644" data-name="Trazado 145644" d="M987.114,290.919c-.686,1.219-1.221,1.427-2.571.991-.765-.246-1.534-.482-2.292-.747a1.629,1.629,0,1,1,1-3.1,19.565,19.565,0,0,1,2.681.906,5.226,5.226,0,0,1,1.185,1.1Z" transform="translate(-54.131 -34.452)" fill="#fff"/>
        <path id="Trazado_145645" data-name="Trazado 145645" d="M932.862,239.016a4.107,4.107,0,0,1-1.363,3.049q-4.7,4.568-9.394,9.144a1.341,1.341,0,0,0-.448,1.334c.771,4.378,1.511,8.761,2.249,13.145a3.853,3.853,0,0,1-1.561,3.935,3.809,3.809,0,0,1-4.264.39c-2.456-1.249-4.884-2.552-7.323-3.832-1.5-.785-3-1.556-4.482-2.367a1.437,1.437,0,0,0-1.521-.007q-5.806,3.087-11.641,6.123a4.02,4.02,0,0,1-5.876-2.382,5.485,5.485,0,0,1-.064-2.256c.688-4.249,1.422-8.491,2.178-12.728a1.389,1.389,0,0,0-.471-1.385c-3.109-3.014-6.2-6.05-9.309-9.058a4.106,4.106,0,0,1,2.364-7.2c4.3-.6,8.6-1.259,12.9-1.869a1.352,1.352,0,0,0,1.131-.843q2.89-5.906,5.813-11.8a4.069,4.069,0,0,1,5.162-2.147,4.138,4.138,0,0,1,2.309,2.18c1.926,3.916,3.867,7.824,5.784,11.744a1.388,1.388,0,0,0,1.179.863c4.363.612,8.721,1.262,13.08,1.9A4.068,4.068,0,0,1,932.862,239.016ZM919.806,267.2a.872.872,0,0,0,.864-1.126c-.732-4.263-1.439-8.53-2.211-12.785a4.609,4.609,0,0,1,1.426-4.481c3.083-2.953,6.123-5.952,9.178-8.934a2.593,2.593,0,0,0,.407-.443c.345-.547.025-1.132-.71-1.242-4.3-.639-8.6-1.294-12.9-1.881a4.506,4.506,0,0,1-3.742-2.653c-1.779-3.674-3.606-7.326-5.413-10.987-.151-.306-.29-.621-.463-.915a.8.8,0,0,0-1.482.017c-.081.139-.147.286-.218.431-1.9,3.841-3.8,7.677-5.682,11.527a4.259,4.259,0,0,1-3.368,2.53c-2.269.336-4.54.656-6.81.986-2.17.316-4.341.626-6.509.957a.79.79,0,0,0-.681,1.142,2.056,2.056,0,0,0,.43.5q4.669,4.558,9.344,9.11a4.192,4.192,0,0,1,1.331,3.934c-.75,4.341-1.479,8.686-2.229,13.027-.073.42-.124.8.253,1.1.409.321.789.134,1.176-.07,3.809-2,7.63-3.986,11.425-6.017a4.476,4.476,0,0,1,4.534-.019c3.8,2.028,7.616,4.014,11.427,6.013C919.411,267.041,919.654,267.132,919.806,267.2Z" transform="translate(-3.464 0)" fill="#fff"/>
        <path id="Trazado_145646" data-name="Trazado 145646" d="M928.87,328.983c0-.543-.038-1.088.008-1.627a1.564,1.564,0,0,1,1.614-1.465,1.525,1.525,0,0,1,1.576,1.433,32.348,32.348,0,0,1,0,3.314,1.532,1.532,0,0,1-1.575,1.437,1.567,1.567,0,0,1-1.615-1.465C928.833,330.071,928.87,329.525,928.87,328.983Z" transform="translate(-28.436 -53.117)" fill="#fff"/>
        <path id="Trazado_145647" data-name="Trazado 145647" d="M875.177,287.968a1.77,1.77,0,0,1,1.936,1.217,1.541,1.541,0,0,1-.835,1.824,31.783,31.783,0,0,1-3.32,1.084,1.531,1.531,0,0,1-1.737-1,1.462,1.462,0,0,1,.586-1.9C872.995,288.668,874.25,288.3,875.177,287.968Z" transform="translate(0 -34.447)" fill="#fff"/>
        <path id="Trazado_145648" data-name="Trazado 145648" d="M895.034,221.826a4.24,4.24,0,0,1,1.054.722,26.387,26.387,0,0,1,1.715,2.332,1.625,1.625,0,1,1-2.637,1.9q-.893-1.177-1.732-2.4a1.543,1.543,0,0,1-.065-1.713A1.787,1.787,0,0,1,895.034,221.826Z" transform="translate(-10.854 -1.884)" fill="#fff"/>
        <path id="Trazado_145649" data-name="Trazado 145649" d="M966.152,223.552a5.578,5.578,0,0,1-.42.975c-.517.767-1.067,1.512-1.626,2.25a1.631,1.631,0,1,1-2.63-1.921c.555-.79,1.117-1.576,1.71-2.338a1.549,1.549,0,0,1,1.836-.53A1.764,1.764,0,0,1,966.152,223.552Z" transform="translate(-44.313 -1.909)" fill="#fff"/>
      </g>
    </g>
  </g>
</svg>
