<svg xmlns="http://www.w3.org/2000/svg" width="729.397" height="244.958" viewBox="0 0 729.397 244.958">
  <g id="Grupo_75122" data-name="Grupo 75122" transform="translate(6468.5 1447.136)">
    <path id="Trazado_117962" data-name="Trazado 117962" d="M109.5,180.5V148.21H652.221V180.5" transform="translate(-6494.644 -1572.891)" fill="none" stroke="#7e5ee3" stroke-miterlimit="10" stroke-width="3"/>
    <path id="Trazado_146241" data-name="Trazado 146241" d="M0,0H122.254V31.043H0Z" transform="translate(-6441.208 -1392.386)" fill="#fc9b27"/>
    <path id="Trazado_146242" data-name="Trazado 146242" d="M0,0H122.254V31.043H0Z" transform="translate(-5896.1 -1392.386)" fill="#fc9b27"/>
    <path id="Trazado_146243" data-name="Trazado 146243" d="M0,0H152.135V31.043H0Z" transform="translate(-6190.258 -1447.136)" fill="#e4ddfa"/>
    <path id="Trazado_146244" data-name="Trazado 146244" d="M0,0H235.711V31.043H0Z" transform="translate(-6232.046 -1392.386)" fill="#cdedfc"/>
    <path id="Trazado_146245" data-name="Trazado 146245" d="M0,0H131.621V38.493H0Z" transform="translate(-6445.891 -1316.427)" fill="#7e5ee3"/>
    <path id="Trazado_117963" data-name="Trazado 117963" d="M172.095,241.282l39.183,37.232-39.183,31.622Z" transform="translate(-6494.644 -1572.891)" fill="#7e5ee3"/>
    <path id="Trazado_146246" data-name="Trazado 146246" d="M0,0H131.621V38.493H0Z" transform="translate(-6272.461 -1316.427)" fill="#7e5ee3"/>
    <path id="Trazado_117964" data-name="Trazado 117964" d="M345.525,241.282l39.183,37.232-39.183,31.622Z" transform="translate(-6494.644 -1572.891)" fill="#7e5ee3"/>
    <path id="Trazado_146247" data-name="Trazado 146247" d="M0,0H131.621V38.493H0Z" transform="translate(-6097.566 -1316.427)" fill="#7e5ee3"/>
    <path id="Trazado_117965" data-name="Trazado 117965" d="M520.42,241.282,559.6,278.515,520.42,310.137Z" transform="translate(-6494.644 -1572.891)" fill="#7e5ee3"/>
    <path id="Trazado_146248" data-name="Trazado 146248" d="M0,0H131.621V38.493H0Z" transform="translate(-5924.94 -1316.427)" fill="#7e5ee3"/>
    <path id="Trazado_117966" data-name="Trazado 117966" d="M693.046,241.282l39.183,37.232-39.183,31.622Z" transform="translate(-6494.644 -1572.891)" fill="#7e5ee3"/>
    <path id="Trazado_146249" data-name="Trazado 146249" d="M1.566,0V-13.495H5.376a6.132,6.132,0,0,1,3.114.779A5.265,5.265,0,0,1,10.58-10.5a7.21,7.21,0,0,1,.746,3.3v.862a7.235,7.235,0,0,1-.737,3.346,5.183,5.183,0,0,1-2.1,2.206A6.523,6.523,0,0,1,5.3,0Zm1.78-12.04V-1.455H5.218a4.074,4.074,0,0,0,3.2-1.28A5.289,5.289,0,0,0,9.565-6.381V-7.17a5.373,5.373,0,0,0-1.08-3.576A3.842,3.842,0,0,0,5.422-12.04Zm9.945,6.933a5.923,5.923,0,0,1,.579-2.651,4.321,4.321,0,0,1,1.613-1.817,4.39,4.39,0,0,1,2.359-.64A4.229,4.229,0,0,1,21.155-8.8,5.456,5.456,0,0,1,22.42-5.024v.12a5.975,5.975,0,0,1-.561,2.628,4.258,4.258,0,0,1-1.6,1.812,4.44,4.44,0,0,1-2.4.649,4.219,4.219,0,0,1-3.3-1.418,5.428,5.428,0,0,1-1.265-3.754Zm1.724.2a4.29,4.29,0,0,0,.774,2.679,2.477,2.477,0,0,0,2.072,1.01,2.462,2.462,0,0,0,2.076-1.024,4.692,4.692,0,0,0,.769-2.869,4.283,4.283,0,0,0-.783-2.674,2.49,2.49,0,0,0-2.081-1.024,2.462,2.462,0,0,0-2.048,1.01A4.657,4.657,0,0,0,15.015-4.9ZM30.41-2.66a1.262,1.262,0,0,0-.524-1.08A5.041,5.041,0,0,0,28.06-4.4a8.633,8.633,0,0,1-2.067-.667A2.94,2.94,0,0,1,24.863-6,2.217,2.217,0,0,1,24.5-7.276a2.6,2.6,0,0,1,1.043-2.085,4.072,4.072,0,0,1,2.665-.853,4.19,4.19,0,0,1,2.767.881,2.8,2.8,0,0,1,1.061,2.252H30.308a1.548,1.548,0,0,0-.6-1.214,2.24,2.24,0,0,0-1.506-.51A2.344,2.344,0,0,0,26.74-8.4a1.284,1.284,0,0,0-.528,1.066A1.04,1.04,0,0,0,26.7-6.4a6.044,6.044,0,0,0,1.775.6,9.248,9.248,0,0,1,2.081.686,3.035,3.035,0,0,1,1.182.959,2.359,2.359,0,0,1,.385,1.367A2.567,2.567,0,0,1,31.049-.626a4.51,4.51,0,0,1-2.79.811,5.05,5.05,0,0,1-2.132-.426,3.467,3.467,0,0,1-1.451-1.191,2.871,2.871,0,0,1-.524-1.654h1.715a1.775,1.775,0,0,0,.691,1.367,2.679,2.679,0,0,0,1.7.505,2.765,2.765,0,0,0,1.562-.394A1.21,1.21,0,0,0,30.41-2.66ZM43.219.185A4.382,4.382,0,0,1,39.9-1.154a4.971,4.971,0,0,1-1.279-3.582v-.315a6.018,6.018,0,0,1,.57-2.665,4.447,4.447,0,0,1,1.594-1.835,4.008,4.008,0,0,1,2.22-.663,3.756,3.756,0,0,1,3.04,1.288A5.578,5.578,0,0,1,47.13-5.237v.714H40.336a3.565,3.565,0,0,0,.867,2.4,2.724,2.724,0,0,0,2.109.913,2.986,2.986,0,0,0,1.539-.371,3.866,3.866,0,0,0,1.1-.982L47-1.752A4.211,4.211,0,0,1,43.219.185Zm-.213-8.99a2.287,2.287,0,0,0-1.742.755,3.672,3.672,0,0,0-.871,2.118h5.024v-.13a3.266,3.266,0,0,0-.7-2.025A2.153,2.153,0,0,0,43.006-8.805ZM54.953-2.66a1.262,1.262,0,0,0-.524-1.08A5.041,5.041,0,0,0,52.6-4.4a8.633,8.633,0,0,1-2.067-.667A2.94,2.94,0,0,1,49.406-6a2.217,2.217,0,0,1-.366-1.279,2.6,2.6,0,0,1,1.043-2.085,4.072,4.072,0,0,1,2.665-.853,4.19,4.19,0,0,1,2.767.881,2.8,2.8,0,0,1,1.061,2.252H54.851a1.548,1.548,0,0,0-.6-1.214,2.24,2.24,0,0,0-1.506-.51,2.344,2.344,0,0,0-1.464.408,1.284,1.284,0,0,0-.528,1.066,1.04,1.04,0,0,0,.491.936,6.044,6.044,0,0,0,1.775.6,9.248,9.248,0,0,1,2.081.686,3.035,3.035,0,0,1,1.182.959,2.359,2.359,0,0,1,.385,1.367A2.567,2.567,0,0,1,55.592-.626,4.51,4.51,0,0,1,52.8.185a5.05,5.05,0,0,1-2.132-.426A3.467,3.467,0,0,1,49.22-1.432,2.871,2.871,0,0,1,48.7-3.086h1.715A1.775,1.775,0,0,0,51.1-1.719a2.679,2.679,0,0,0,1.7.505,2.765,2.765,0,0,0,1.562-.394A1.21,1.21,0,0,0,54.953-2.66Zm7.971,1.446a2.47,2.47,0,0,0,1.6-.556,1.956,1.956,0,0,0,.76-1.39h1.622a3.109,3.109,0,0,1-.593,1.641,3.907,3.907,0,0,1-1.46,1.242,4.212,4.212,0,0,1-1.932.463,4.131,4.131,0,0,1-3.258-1.367,5.445,5.445,0,0,1-1.21-3.74v-.287a6.038,6.038,0,0,1,.538-2.6,4.094,4.094,0,0,1,1.543-1.77,4.384,4.384,0,0,1,2.377-.63,4.022,4.022,0,0,1,2.8,1.01,3.611,3.611,0,0,1,1.191,2.623H65.287a2.363,2.363,0,0,0-.737-1.6,2.292,2.292,0,0,0-1.636-.626,2.4,2.4,0,0,0-2.025.941,4.418,4.418,0,0,0-.718,2.72v.324a4.33,4.33,0,0,0,.714,2.669A2.411,2.411,0,0,0,62.924-1.214ZM73,.185A4.382,4.382,0,0,1,69.68-1.154,4.971,4.971,0,0,1,68.4-4.736v-.315a6.018,6.018,0,0,1,.57-2.665,4.447,4.447,0,0,1,1.594-1.835,4.008,4.008,0,0,1,2.22-.663,3.756,3.756,0,0,1,3.04,1.288A5.578,5.578,0,0,1,76.91-5.237v.714H70.116a3.565,3.565,0,0,0,.867,2.4,2.724,2.724,0,0,0,2.109.913,2.986,2.986,0,0,0,1.539-.371,3.866,3.866,0,0,0,1.1-.982l1.047.816A4.211,4.211,0,0,1,73,.185Zm-.213-8.99a2.287,2.287,0,0,0-1.742.755,3.672,3.672,0,0,0-.871,2.118H75.2v-.13a3.266,3.266,0,0,0-.7-2.025A2.153,2.153,0,0,0,72.785-8.805Zm7.73-1.223.056,1.261a3.654,3.654,0,0,1,3-1.446q3.179,0,3.207,3.587V0H85.066V-6.636a2.309,2.309,0,0,0-.5-1.6,1.987,1.987,0,0,0-1.515-.519,2.475,2.475,0,0,0-1.464.445,3.021,3.021,0,0,0-.982,1.168V0H78.893V-10.028ZM95.558,0a3.6,3.6,0,0,1-.241-1.057A3.826,3.826,0,0,1,92.462.185a3.54,3.54,0,0,1-2.433-.839,2.714,2.714,0,0,1-.95-2.127A2.835,2.835,0,0,1,90.27-5.214a5.615,5.615,0,0,1,3.351-.867h1.668v-.788A1.926,1.926,0,0,0,94.752-8.3a2.16,2.16,0,0,0-1.585-.533,2.5,2.5,0,0,0-1.539.463,1.366,1.366,0,0,0-.621,1.121H89.283A2.366,2.366,0,0,1,89.816-8.7a3.637,3.637,0,0,1,1.446-1.108,4.864,4.864,0,0,1,2.007-.408,3.965,3.965,0,0,1,2.716.867A3.126,3.126,0,0,1,97-6.961v4.616a5.643,5.643,0,0,0,.352,2.2V0ZM92.712-1.307a3.014,3.014,0,0,0,1.529-.417,2.523,2.523,0,0,0,1.047-1.084V-4.866H93.945q-3.151,0-3.151,1.844a1.561,1.561,0,0,0,.538,1.261A2.066,2.066,0,0,0,92.712-1.307ZM104.539-8.49a5.138,5.138,0,0,0-.843-.065,2.26,2.26,0,0,0-2.289,1.437V0H99.692V-10.028h1.668l.028,1.159a2.67,2.67,0,0,1,2.391-1.344,1.752,1.752,0,0,1,.76.13ZM107.978,0h-1.715V-10.028h1.715Zm-1.854-12.689a1.024,1.024,0,0,1,.255-.7.957.957,0,0,1,.755-.287.972.972,0,0,1,.76.287,1.013,1.013,0,0,1,.26.7.979.979,0,0,1-.26.7.989.989,0,0,1-.76.278.974.974,0,0,1-.755-.278A.99.99,0,0,1,106.124-12.689Zm4.143,7.582a5.923,5.923,0,0,1,.579-2.651,4.321,4.321,0,0,1,1.613-1.817,4.39,4.39,0,0,1,2.359-.64A4.229,4.229,0,0,1,118.131-8.8,5.456,5.456,0,0,1,119.4-5.024v.12a5.975,5.975,0,0,1-.561,2.628,4.258,4.258,0,0,1-1.6,1.812,4.44,4.44,0,0,1-2.4.649,4.219,4.219,0,0,1-3.3-1.418,5.428,5.428,0,0,1-1.265-3.754Zm1.724.2a4.29,4.29,0,0,0,.774,2.679,2.477,2.477,0,0,0,2.072,1.01,2.462,2.462,0,0,0,2.076-1.024,4.692,4.692,0,0,0,.769-2.869,4.283,4.283,0,0,0-.783-2.674,2.49,2.49,0,0,0-2.081-1.024,2.462,2.462,0,0,0-2.048,1.01A4.657,4.657,0,0,0,111.991-4.9ZM127.386-2.66a1.262,1.262,0,0,0-.524-1.08,5.041,5.041,0,0,0-1.826-.663,8.633,8.633,0,0,1-2.067-.667A2.94,2.94,0,0,1,121.839-6a2.217,2.217,0,0,1-.366-1.279,2.6,2.6,0,0,1,1.043-2.085,4.072,4.072,0,0,1,2.665-.853,4.19,4.19,0,0,1,2.767.881,2.8,2.8,0,0,1,1.061,2.252h-1.724a1.548,1.548,0,0,0-.6-1.214,2.24,2.24,0,0,0-1.506-.51,2.344,2.344,0,0,0-1.464.408,1.284,1.284,0,0,0-.528,1.066,1.04,1.04,0,0,0,.491.936,6.044,6.044,0,0,0,1.775.6,9.248,9.248,0,0,1,2.081.686,3.035,3.035,0,0,1,1.182.959,2.359,2.359,0,0,1,.385,1.367,2.567,2.567,0,0,1-1.075,2.155,4.51,4.51,0,0,1-2.79.811A5.05,5.05,0,0,1,123.1-.241a3.467,3.467,0,0,1-1.451-1.191,2.871,2.871,0,0,1-.524-1.654h1.715a1.775,1.775,0,0,0,.691,1.367,2.679,2.679,0,0,0,1.7.505,2.765,2.765,0,0,0,1.562-.394A1.21,1.21,0,0,0,127.386-2.66Z" transform="translate(-6179.885 -1424.681)" fill="#13273e"/>
    <path id="Trazado_146250" data-name="Trazado 146250" d="M9.018-3.531H3.364L2.095,0H.26L5.413-13.495H6.97L12.132,0H10.307ZM3.9-4.986H8.49L6.191-11.3Zm11.391-5.042.046,1.112a3.7,3.7,0,0,1,2.975-1.3A2.867,2.867,0,0,1,21.178-8.6a3.8,3.8,0,0,1,1.3-1.168,3.846,3.846,0,0,1,1.9-.445q3.3,0,3.355,3.494V0H26.017V-6.618a2.3,2.3,0,0,0-.491-1.608,2.163,2.163,0,0,0-1.65-.533,2.274,2.274,0,0,0-1.585.57,2.312,2.312,0,0,0-.732,1.534V0H19.835V-6.571a1.913,1.913,0,0,0-2.141-2.187,2.294,2.294,0,0,0-2.308,1.437V0H13.671V-10.028ZM38.807-4.9A5.963,5.963,0,0,1,37.75-1.21,3.376,3.376,0,0,1,34.914.185a3.5,3.5,0,0,1-2.938-1.344L31.893,0H30.317V-14.236h1.715v5.311A3.476,3.476,0,0,1,34.9-10.214a3.4,3.4,0,0,1,2.869,1.381,6.142,6.142,0,0,1,1.043,3.782ZM37.092-5.1A4.633,4.633,0,0,0,36.416-7.8a2.24,2.24,0,0,0-1.946-.955,2.517,2.517,0,0,0-2.438,1.576v4.338A2.588,2.588,0,0,0,34.488-1.27a2.228,2.228,0,0,0,1.919-.955A4.927,4.927,0,0,0,37.092-5.1ZM47.158-.992A3.642,3.642,0,0,1,44.22.185a3.117,3.117,0,0,1-2.442-.931A4.032,4.032,0,0,1,40.93-3.5v-6.525h1.715V-3.55q0,2.28,1.854,2.28a2.567,2.567,0,0,0,2.614-1.464v-7.294h1.715V0H47.2ZM53.294,0H51.579V-14.236h1.715Zm8.935,0a3.6,3.6,0,0,1-.241-1.057A3.826,3.826,0,0,1,59.133.185,3.54,3.54,0,0,1,56.7-.653a2.714,2.714,0,0,1-.95-2.127,2.835,2.835,0,0,1,1.191-2.433,5.615,5.615,0,0,1,3.351-.867H61.96v-.788A1.926,1.926,0,0,0,61.422-8.3a2.16,2.16,0,0,0-1.585-.533,2.5,2.5,0,0,0-1.539.463,1.366,1.366,0,0,0-.621,1.121H55.954A2.366,2.366,0,0,1,56.487-8.7a3.637,3.637,0,0,1,1.446-1.108,4.864,4.864,0,0,1,2.007-.408,3.965,3.965,0,0,1,2.716.867,3.126,3.126,0,0,1,1.02,2.387v4.616a5.643,5.643,0,0,0,.352,2.2V0ZM59.383-1.307a3.014,3.014,0,0,0,1.529-.417A2.523,2.523,0,0,0,61.96-2.808V-4.866H60.616q-3.151,0-3.151,1.844A1.561,1.561,0,0,0,58-1.761,2.066,2.066,0,0,0,59.383-1.307Zm9.306-11.15v2.428h1.872V-8.7H68.689v6.227a1.392,1.392,0,0,0,.25.9,1.053,1.053,0,0,0,.853.3,4.151,4.151,0,0,0,.816-.111V0a5,5,0,0,1-1.316.184,2.135,2.135,0,0,1-1.733-.7,2.986,2.986,0,0,1-.584-1.974V-8.7H65.148v-1.325h1.826v-2.428Zm3.235,7.35A5.923,5.923,0,0,1,72.5-7.758a4.321,4.321,0,0,1,1.613-1.817,4.39,4.39,0,0,1,2.359-.64A4.229,4.229,0,0,1,79.788-8.8a5.456,5.456,0,0,1,1.265,3.772v.12a5.975,5.975,0,0,1-.561,2.628,4.258,4.258,0,0,1-1.6,1.812,4.44,4.44,0,0,1-2.4.649,4.219,4.219,0,0,1-3.3-1.418,5.428,5.428,0,0,1-1.265-3.754Zm1.724.2a4.29,4.29,0,0,0,.774,2.679,2.477,2.477,0,0,0,2.072,1.01,2.462,2.462,0,0,0,2.076-1.024,4.692,4.692,0,0,0,.769-2.869,4.283,4.283,0,0,0-.783-2.674,2.49,2.49,0,0,0-2.081-1.024,2.462,2.462,0,0,0-2.048,1.01A4.657,4.657,0,0,0,73.647-4.9ZM88.05-8.49a5.138,5.138,0,0,0-.843-.065,2.26,2.26,0,0,0-2.289,1.437V0H83.2V-10.028h1.668L84.9-8.87a2.67,2.67,0,0,1,2.391-1.344,1.752,1.752,0,0,1,.76.13ZM91.489,0H89.774V-10.028h1.715ZM89.635-12.689a1.024,1.024,0,0,1,.255-.7.957.957,0,0,1,.755-.287.972.972,0,0,1,.76.287,1.013,1.013,0,0,1,.26.7.979.979,0,0,1-.26.7.989.989,0,0,1-.76.278.974.974,0,0,1-.755-.278A.99.99,0,0,1,89.635-12.689Zm4.143,7.582a5.923,5.923,0,0,1,.579-2.651A4.321,4.321,0,0,1,95.97-9.574a4.39,4.39,0,0,1,2.359-.64A4.229,4.229,0,0,1,101.643-8.8a5.456,5.456,0,0,1,1.265,3.772v.12a5.975,5.975,0,0,1-.561,2.628,4.258,4.258,0,0,1-1.6,1.812,4.44,4.44,0,0,1-2.4.649,4.219,4.219,0,0,1-3.3-1.418,5.428,5.428,0,0,1-1.265-3.754Zm1.724.2a4.29,4.29,0,0,0,.774,2.679,2.477,2.477,0,0,0,2.071,1.01,2.462,2.462,0,0,0,2.076-1.024,4.692,4.692,0,0,0,.769-2.869,4.283,4.283,0,0,0-.783-2.674,2.49,2.49,0,0,0-2.081-1.024,2.462,2.462,0,0,0-2.048,1.01A4.657,4.657,0,0,0,95.5-4.9Z" transform="translate(-6432.475 -1371.319)" fill="#13273e"/>
    <path id="Trazado_146251" data-name="Trazado 146251" d="M11.938,0H10.149V-6.238h-6.8V0H1.566V-13.495h1.78v5.8h6.8v-5.8h1.789Zm2.438-5.107a5.923,5.923,0,0,1,.579-2.651,4.321,4.321,0,0,1,1.613-1.817,4.39,4.39,0,0,1,2.359-.64A4.229,4.229,0,0,1,22.24-8.8,5.456,5.456,0,0,1,23.5-5.024v.12a5.975,5.975,0,0,1-.561,2.628,4.258,4.258,0,0,1-1.6,1.812,4.44,4.44,0,0,1-2.4.649,4.219,4.219,0,0,1-3.3-1.418,5.428,5.428,0,0,1-1.265-3.754Zm1.724.2a4.29,4.29,0,0,0,.774,2.679,2.477,2.477,0,0,0,2.072,1.01,2.462,2.462,0,0,0,2.076-1.024,4.692,4.692,0,0,0,.769-2.869,4.283,4.283,0,0,0-.783-2.674,2.49,2.49,0,0,0-2.081-1.024,2.462,2.462,0,0,0-2.048,1.01A4.657,4.657,0,0,0,16.1-4.9ZM31.494-2.66a1.262,1.262,0,0,0-.524-1.08A5.041,5.041,0,0,0,29.145-4.4a8.633,8.633,0,0,1-2.067-.667A2.94,2.94,0,0,1,25.947-6a2.217,2.217,0,0,1-.366-1.279,2.6,2.6,0,0,1,1.043-2.085,4.072,4.072,0,0,1,2.665-.853,4.19,4.19,0,0,1,2.767.881,2.8,2.8,0,0,1,1.061,2.252H31.392a1.548,1.548,0,0,0-.6-1.214,2.24,2.24,0,0,0-1.506-.51,2.344,2.344,0,0,0-1.464.408A1.284,1.284,0,0,0,27.3-7.331a1.04,1.04,0,0,0,.491.936,6.044,6.044,0,0,0,1.775.6,9.248,9.248,0,0,1,2.081.686,3.035,3.035,0,0,1,1.182.959,2.359,2.359,0,0,1,.385,1.367A2.567,2.567,0,0,1,32.134-.626a4.51,4.51,0,0,1-2.79.811,5.05,5.05,0,0,1-2.132-.426,3.467,3.467,0,0,1-1.451-1.191,2.871,2.871,0,0,1-.524-1.654h1.715a1.775,1.775,0,0,0,.691,1.367,2.679,2.679,0,0,0,1.7.505,2.765,2.765,0,0,0,1.562-.394A1.21,1.21,0,0,0,31.494-2.66ZM43.914-4.9a6,6,0,0,1-1.047,3.689,3.357,3.357,0,0,1-2.836,1.4A3.678,3.678,0,0,1,37.157-.973V3.856H35.443V-10.028h1.566l.083,1.112a3.532,3.532,0,0,1,2.91-1.3,3.42,3.42,0,0,1,2.859,1.362,6.07,6.07,0,0,1,1.052,3.791ZM42.2-5.1a4.431,4.431,0,0,0-.723-2.679,2.329,2.329,0,0,0-1.983-.982,2.521,2.521,0,0,0-2.336,1.381v4.792a2.525,2.525,0,0,0,2.354,1.372,2.318,2.318,0,0,0,1.96-.978A4.837,4.837,0,0,0,42.2-5.1ZM47.955,0H46.24V-10.028h1.715ZM46.1-12.689a1.024,1.024,0,0,1,.255-.7.957.957,0,0,1,.755-.287.972.972,0,0,1,.76.287,1.013,1.013,0,0,1,.26.7.979.979,0,0,1-.26.7.989.989,0,0,1-.76.278.974.974,0,0,1-.755-.278A.99.99,0,0,1,46.1-12.689Zm6.924.232v2.428H54.9V-8.7H53.025v6.227a1.392,1.392,0,0,0,.25.9,1.053,1.053,0,0,0,.853.3,4.151,4.151,0,0,0,.816-.111V0a5,5,0,0,1-1.316.184,2.135,2.135,0,0,1-1.733-.7,2.986,2.986,0,0,1-.584-1.974V-8.7H49.484v-1.325H51.31v-2.428ZM63.09,0a3.6,3.6,0,0,1-.241-1.057A3.826,3.826,0,0,1,59.995.185a3.54,3.54,0,0,1-2.433-.839,2.714,2.714,0,0,1-.95-2.127A2.835,2.835,0,0,1,57.8-5.214a5.615,5.615,0,0,1,3.351-.867h1.668v-.788A1.926,1.926,0,0,0,62.284-8.3,2.16,2.16,0,0,0,60.7-8.833a2.5,2.5,0,0,0-1.539.463,1.366,1.366,0,0,0-.621,1.121H56.816A2.366,2.366,0,0,1,57.349-8.7a3.637,3.637,0,0,1,1.446-1.108,4.864,4.864,0,0,1,2.007-.408,3.965,3.965,0,0,1,2.716.867,3.126,3.126,0,0,1,1.02,2.387v4.616a5.643,5.643,0,0,0,.352,2.2V0ZM60.245-1.307a3.014,3.014,0,0,0,1.529-.417,2.523,2.523,0,0,0,1.047-1.084V-4.866H61.478q-3.151,0-3.151,1.844a1.561,1.561,0,0,0,.538,1.261A2.066,2.066,0,0,0,60.245-1.307ZM69.087,0H67.372V-14.236h1.715Zm8.935,0a3.6,3.6,0,0,1-.241-1.057A3.826,3.826,0,0,1,74.926.185a3.54,3.54,0,0,1-2.433-.839,2.714,2.714,0,0,1-.95-2.127,2.835,2.835,0,0,1,1.191-2.433,5.615,5.615,0,0,1,3.351-.867h1.668v-.788A1.926,1.926,0,0,0,77.216-8.3a2.16,2.16,0,0,0-1.585-.533,2.5,2.5,0,0,0-1.539.463,1.366,1.366,0,0,0-.621,1.121H71.747A2.366,2.366,0,0,1,72.28-8.7a3.637,3.637,0,0,1,1.446-1.108,4.864,4.864,0,0,1,2.007-.408,3.965,3.965,0,0,1,2.716.867,3.126,3.126,0,0,1,1.02,2.387v4.616a5.643,5.643,0,0,0,.352,2.2V0ZM75.177-1.307a3.014,3.014,0,0,0,1.529-.417,2.523,2.523,0,0,0,1.047-1.084V-4.866H76.409q-3.151,0-3.151,1.844A1.561,1.561,0,0,0,73.8-1.761,2.066,2.066,0,0,0,75.177-1.307ZM87-8.49a5.138,5.138,0,0,0-.843-.065A2.26,2.26,0,0,0,83.87-7.118V0H82.156V-10.028h1.668l.028,1.159a2.67,2.67,0,0,1,2.391-1.344,1.752,1.752,0,0,1,.76.13ZM90.442,0H88.727V-10.028h1.715ZM88.588-12.689a1.024,1.024,0,0,1,.255-.7.957.957,0,0,1,.755-.287.972.972,0,0,1,.76.287,1.013,1.013,0,0,1,.26.7.979.979,0,0,1-.26.7.989.989,0,0,1-.76.278.974.974,0,0,1-.755-.278A.99.99,0,0,1,88.588-12.689Zm4.143,7.582a5.923,5.923,0,0,1,.579-2.651,4.321,4.321,0,0,1,1.613-1.817,4.39,4.39,0,0,1,2.359-.64A4.229,4.229,0,0,1,100.6-8.8a5.456,5.456,0,0,1,1.265,3.772v.12a5.975,5.975,0,0,1-.561,2.628A4.258,4.258,0,0,1,99.7-.463a4.44,4.44,0,0,1-2.4.649A4.219,4.219,0,0,1,94-1.233a5.428,5.428,0,0,1-1.265-3.754Zm1.724.2a4.29,4.29,0,0,0,.774,2.679A2.477,2.477,0,0,0,97.3-1.214a2.462,2.462,0,0,0,2.076-1.024,4.692,4.692,0,0,0,.769-2.869,4.283,4.283,0,0,0-.783-2.674,2.49,2.49,0,0,0-2.081-1.024,2.462,2.462,0,0,0-2.048,1.01A4.657,4.657,0,0,0,94.455-4.9Z" transform="translate(-5885.564 -1370.046)" fill="#13273e"/>
    <path id="Trazado_146252" data-name="Trazado 146252" d="M9.194-6.238H3.346v4.783H10.14V0H1.566V-13.495h8.481v1.455h-6.7v4.347H9.194Zm5.218-6.219v2.428h1.872V-8.7H14.412v6.227a1.392,1.392,0,0,0,.25.9,1.053,1.053,0,0,0,.853.3,4.151,4.151,0,0,0,.816-.111V0a5,5,0,0,1-1.316.184,2.135,2.135,0,0,1-1.733-.7A2.986,2.986,0,0,1,12.7-2.484V-8.7H10.872v-1.325H12.7v-2.428ZM24.478,0a3.6,3.6,0,0,1-.241-1.057A3.826,3.826,0,0,1,21.382.185a3.54,3.54,0,0,1-2.433-.839A2.714,2.714,0,0,1,18-2.781,2.835,2.835,0,0,1,19.19-5.214a5.615,5.615,0,0,1,3.351-.867h1.668v-.788A1.926,1.926,0,0,0,23.672-8.3a2.16,2.16,0,0,0-1.585-.533,2.5,2.5,0,0,0-1.539.463,1.366,1.366,0,0,0-.621,1.121H18.2A2.366,2.366,0,0,1,18.736-8.7a3.637,3.637,0,0,1,1.446-1.108,4.864,4.864,0,0,1,2.007-.408,3.965,3.965,0,0,1,2.716.867,3.126,3.126,0,0,1,1.02,2.387v4.616a5.643,5.643,0,0,0,.352,2.2V0ZM21.633-1.307a3.014,3.014,0,0,0,1.529-.417,2.523,2.523,0,0,0,1.047-1.084V-4.866H22.865q-3.151,0-3.151,1.844a1.561,1.561,0,0,0,.538,1.261A2.066,2.066,0,0,0,21.633-1.307ZM37.083-4.9a6,6,0,0,1-1.047,3.689A3.357,3.357,0,0,1,33.2.185,3.678,3.678,0,0,1,30.326-.973V3.856H28.612V-10.028h1.566l.083,1.112a3.532,3.532,0,0,1,2.91-1.3,3.42,3.42,0,0,1,2.859,1.362,6.07,6.07,0,0,1,1.052,3.791ZM35.368-5.1a4.431,4.431,0,0,0-.723-2.679,2.329,2.329,0,0,0-1.983-.982,2.521,2.521,0,0,0-2.336,1.381v4.792a2.525,2.525,0,0,0,2.354,1.372,2.318,2.318,0,0,0,1.96-.978A4.837,4.837,0,0,0,35.368-5.1ZM45.453,0a3.6,3.6,0,0,1-.241-1.057A3.826,3.826,0,0,1,42.357.185a3.54,3.54,0,0,1-2.433-.839,2.714,2.714,0,0,1-.95-2.127,2.835,2.835,0,0,1,1.191-2.433,5.615,5.615,0,0,1,3.351-.867h1.668v-.788A1.926,1.926,0,0,0,44.646-8.3a2.16,2.16,0,0,0-1.585-.533,2.5,2.5,0,0,0-1.539.463A1.366,1.366,0,0,0,40.9-7.248H39.178A2.366,2.366,0,0,1,39.711-8.7a3.637,3.637,0,0,1,1.446-1.108,4.864,4.864,0,0,1,2.007-.408,3.965,3.965,0,0,1,2.716.867A3.126,3.126,0,0,1,46.9-6.961v4.616a5.643,5.643,0,0,0,.352,2.2V0ZM42.607-1.307a3.014,3.014,0,0,0,1.529-.417,2.523,2.523,0,0,0,1.047-1.084V-4.866H43.84q-3.151,0-3.151,1.844a1.561,1.561,0,0,0,.538,1.261A2.066,2.066,0,0,0,42.607-1.307ZM55.425-2.66A1.262,1.262,0,0,0,54.9-3.74,5.041,5.041,0,0,0,53.076-4.4a8.633,8.633,0,0,1-2.067-.667A2.94,2.94,0,0,1,49.878-6a2.217,2.217,0,0,1-.366-1.279,2.6,2.6,0,0,1,1.043-2.085,4.072,4.072,0,0,1,2.665-.853,4.19,4.19,0,0,1,2.767.881,2.8,2.8,0,0,1,1.061,2.252H55.323a1.548,1.548,0,0,0-.6-1.214,2.24,2.24,0,0,0-1.506-.51,2.344,2.344,0,0,0-1.464.408,1.284,1.284,0,0,0-.528,1.066,1.04,1.04,0,0,0,.491.936,6.044,6.044,0,0,0,1.775.6,9.248,9.248,0,0,1,2.081.686,3.035,3.035,0,0,1,1.182.959,2.359,2.359,0,0,1,.385,1.367A2.567,2.567,0,0,1,56.065-.626a4.51,4.51,0,0,1-2.79.811,5.05,5.05,0,0,1-2.132-.426,3.467,3.467,0,0,1-1.451-1.191,2.871,2.871,0,0,1-.524-1.654h1.715a1.775,1.775,0,0,0,.691,1.367,2.679,2.679,0,0,0,1.7.505,2.765,2.765,0,0,0,1.562-.394A1.21,1.21,0,0,0,55.425-2.66ZM63.656-5.1A5.875,5.875,0,0,1,64.75-8.81a3.459,3.459,0,0,1,2.864-1.4,3.478,3.478,0,0,1,2.79,1.2v-5.227h1.715V0H70.542l-.083-1.075A3.492,3.492,0,0,1,67.595.185a3.425,3.425,0,0,1-2.841-1.427,5.942,5.942,0,0,1-1.1-3.726ZM65.37-4.9a4.448,4.448,0,0,0,.7,2.669,2.277,2.277,0,0,0,1.946.964A2.5,2.5,0,0,0,70.4-2.734V-7.341A2.521,2.521,0,0,0,68.04-8.759a2.288,2.288,0,0,0-1.965.973A4.9,4.9,0,0,0,65.37-4.9ZM78.94.185a4.382,4.382,0,0,1-3.318-1.339,4.971,4.971,0,0,1-1.279-3.582v-.315a6.018,6.018,0,0,1,.57-2.665,4.447,4.447,0,0,1,1.594-1.835,4.008,4.008,0,0,1,2.22-.663,3.756,3.756,0,0,1,3.04,1.288,5.578,5.578,0,0,1,1.084,3.689v.714H76.057a3.565,3.565,0,0,0,.867,2.4,2.724,2.724,0,0,0,2.109.913,2.986,2.986,0,0,0,1.539-.371,3.866,3.866,0,0,0,1.1-.982l1.047.816A4.211,4.211,0,0,1,78.94.185Zm-.213-8.99a2.287,2.287,0,0,0-1.742.755,3.672,3.672,0,0,0-.871,2.118h5.024v-.13a3.266,3.266,0,0,0-.7-2.025A2.153,2.153,0,0,0,78.726-8.805ZM86.7,0H84.983V-14.236H86.7Zm9.055-10.028L95.8-8.916a3.7,3.7,0,0,1,2.975-1.3A2.867,2.867,0,0,1,101.638-8.6a3.8,3.8,0,0,1,1.3-1.168,3.846,3.846,0,0,1,1.9-.445q3.3,0,3.355,3.494V0h-1.715V-6.618a2.3,2.3,0,0,0-.491-1.608,2.163,2.163,0,0,0-1.65-.533,2.274,2.274,0,0,0-1.585.57,2.312,2.312,0,0,0-.732,1.534V0h-1.724V-6.571a1.913,1.913,0,0,0-2.141-2.187,2.294,2.294,0,0,0-2.308,1.437V0H94.131V-10.028ZM114.938.185a4.382,4.382,0,0,1-3.318-1.339,4.971,4.971,0,0,1-1.279-3.582v-.315a6.018,6.018,0,0,1,.57-2.665,4.447,4.447,0,0,1,1.594-1.835,4.008,4.008,0,0,1,2.22-.663,3.756,3.756,0,0,1,3.04,1.288,5.578,5.578,0,0,1,1.084,3.689v.714h-6.794a3.565,3.565,0,0,0,.867,2.4,2.724,2.724,0,0,0,2.109.913,2.986,2.986,0,0,0,1.539-.371,3.866,3.866,0,0,0,1.1-.982l1.047.816A4.211,4.211,0,0,1,114.938.185Zm-.213-8.99a2.287,2.287,0,0,0-1.742.755,3.672,3.672,0,0,0-.871,2.118h5.024v-.13a3.266,3.266,0,0,0-.7-2.025A2.153,2.153,0,0,0,114.725-8.805ZM120.416-5.1A5.875,5.875,0,0,1,121.51-8.81a3.459,3.459,0,0,1,2.864-1.4,3.478,3.478,0,0,1,2.79,1.2v-5.227h1.715V0H127.3l-.083-1.075A3.492,3.492,0,0,1,124.355.185a3.425,3.425,0,0,1-2.841-1.427,5.941,5.941,0,0,1-1.1-3.726Zm1.715.195a4.448,4.448,0,0,0,.7,2.669,2.277,2.277,0,0,0,1.946.964,2.5,2.5,0,0,0,2.382-1.464V-7.341A2.521,2.521,0,0,0,124.8-8.759a2.288,2.288,0,0,0-1.965.973A4.9,4.9,0,0,0,122.131-4.9ZM133.4,0h-1.715V-10.028H133.4Zm-1.854-12.689a1.024,1.024,0,0,1,.255-.7.957.957,0,0,1,.755-.287.972.972,0,0,1,.76.287,1.013,1.013,0,0,1,.26.7.979.979,0,0,1-.26.7.989.989,0,0,1-.76.278.974.974,0,0,1-.755-.278A.99.99,0,0,1,131.547-12.689Zm8.62,11.474a2.47,2.47,0,0,0,1.6-.556,1.957,1.957,0,0,0,.76-1.39h1.622a3.109,3.109,0,0,1-.593,1.641A3.907,3.907,0,0,1,142.1-.278a4.212,4.212,0,0,1-1.932.463,4.131,4.131,0,0,1-3.258-1.367,5.445,5.445,0,0,1-1.21-3.74v-.287a6.038,6.038,0,0,1,.538-2.6,4.094,4.094,0,0,1,1.543-1.77,4.384,4.384,0,0,1,2.377-.63,4.022,4.022,0,0,1,2.8,1.01,3.611,3.611,0,0,1,1.191,2.623H142.53a2.363,2.363,0,0,0-.737-1.6,2.292,2.292,0,0,0-1.636-.626,2.4,2.4,0,0,0-2.025.941,4.418,4.418,0,0,0-.718,2.72v.324a4.33,4.33,0,0,0,.714,2.669A2.411,2.411,0,0,0,140.167-1.214ZM152.272,0a3.6,3.6,0,0,1-.241-1.057A3.826,3.826,0,0,1,149.176.185a3.54,3.54,0,0,1-2.433-.839,2.714,2.714,0,0,1-.95-2.127,2.835,2.835,0,0,1,1.191-2.433,5.615,5.615,0,0,1,3.351-.867H152v-.788a1.926,1.926,0,0,0-.538-1.432,2.16,2.16,0,0,0-1.585-.533,2.5,2.5,0,0,0-1.539.463,1.366,1.366,0,0,0-.621,1.121H146A2.366,2.366,0,0,1,146.53-8.7a3.637,3.637,0,0,1,1.446-1.108,4.864,4.864,0,0,1,2.007-.408,3.965,3.965,0,0,1,2.716.867,3.126,3.126,0,0,1,1.02,2.387v4.616a5.643,5.643,0,0,0,.352,2.2V0Zm-2.845-1.307a3.014,3.014,0,0,0,1.529-.417A2.523,2.523,0,0,0,152-2.808V-4.866h-1.344q-3.151,0-3.151,1.844a1.561,1.561,0,0,0,.538,1.261A2.066,2.066,0,0,0,149.426-1.307Zm8.592-8.722.046,1.112a3.7,3.7,0,0,1,2.975-1.3A2.867,2.867,0,0,1,163.9-8.6a3.8,3.8,0,0,1,1.3-1.168,3.846,3.846,0,0,1,1.9-.445q3.3,0,3.355,3.494V0h-1.715V-6.618a2.3,2.3,0,0,0-.491-1.608,2.163,2.163,0,0,0-1.65-.533,2.274,2.274,0,0,0-1.585.57,2.312,2.312,0,0,0-.732,1.534V0H162.56V-6.571a1.913,1.913,0,0,0-2.141-2.187,2.294,2.294,0,0,0-2.308,1.437V0H156.4V-10.028ZM177.2.185a4.382,4.382,0,0,1-3.318-1.339,4.971,4.971,0,0,1-1.279-3.582v-.315a6.018,6.018,0,0,1,.57-2.665,4.446,4.446,0,0,1,1.594-1.835,4.008,4.008,0,0,1,2.22-.663,3.756,3.756,0,0,1,3.04,1.288,5.578,5.578,0,0,1,1.084,3.689v.714h-6.794a3.565,3.565,0,0,0,.867,2.4,2.724,2.724,0,0,0,2.109.913,2.986,2.986,0,0,0,1.539-.371,3.866,3.866,0,0,0,1.1-.982l1.047.816A4.211,4.211,0,0,1,177.2.185Zm-.213-8.99a2.287,2.287,0,0,0-1.742.755,3.672,3.672,0,0,0-.871,2.118H179.4v-.13a3.266,3.266,0,0,0-.7-2.025A2.153,2.153,0,0,0,176.991-8.805Zm7.73-1.223.056,1.261a3.654,3.654,0,0,1,3-1.446q3.179,0,3.207,3.587V0h-1.715V-6.636a2.309,2.309,0,0,0-.5-1.6,1.987,1.987,0,0,0-1.515-.519,2.475,2.475,0,0,0-1.464.445,3.021,3.021,0,0,0-.982,1.168V0H183.1V-10.028ZM195.9-12.457v2.428h1.872V-8.7H195.9v6.227a1.392,1.392,0,0,0,.25.9,1.053,1.053,0,0,0,.853.3,4.151,4.151,0,0,0,.816-.111V0A5,5,0,0,1,196.5.185a2.135,2.135,0,0,1-1.733-.7,2.986,2.986,0,0,1-.584-1.974V-8.7h-1.826v-1.325h1.826v-2.428Zm3.235,7.35a5.923,5.923,0,0,1,.579-2.651,4.321,4.321,0,0,1,1.613-1.817,4.39,4.39,0,0,1,2.359-.64A4.229,4.229,0,0,1,207-8.8a5.456,5.456,0,0,1,1.265,3.772v.12a5.975,5.975,0,0,1-.561,2.628,4.258,4.258,0,0,1-1.6,1.812,4.44,4.44,0,0,1-2.4.649,4.219,4.219,0,0,1-3.3-1.418,5.428,5.428,0,0,1-1.265-3.754Zm1.724.2a4.29,4.29,0,0,0,.774,2.679,2.477,2.477,0,0,0,2.072,1.01,2.462,2.462,0,0,0,2.076-1.024,4.691,4.691,0,0,0,.769-2.869,4.283,4.283,0,0,0-.783-2.674,2.49,2.49,0,0,0-2.081-1.024,2.462,2.462,0,0,0-2.048,1.01A4.657,4.657,0,0,0,200.857-4.9Z" transform="translate(-6219.375 -1371.319)" fill="#13273e"/>
    <path id="Trazado_146253" data-name="Trazado 146253" d="M9.009-5.96H3.346V0H1.566V-13.495h8.36v1.455H3.346v4.625H9.009ZM17.666,0a3.6,3.6,0,0,1-.241-1.057A3.826,3.826,0,0,1,14.57.185a3.54,3.54,0,0,1-2.433-.839,2.714,2.714,0,0,1-.95-2.127,2.835,2.835,0,0,1,1.191-2.433,5.615,5.615,0,0,1,3.351-.867H17.4v-.788A1.926,1.926,0,0,0,16.859-8.3a2.16,2.16,0,0,0-1.585-.533,2.5,2.5,0,0,0-1.539.463,1.366,1.366,0,0,0-.621,1.121H11.391A2.366,2.366,0,0,1,11.924-8.7,3.637,3.637,0,0,1,13.37-9.806a4.864,4.864,0,0,1,2.007-.408,3.965,3.965,0,0,1,2.716.867,3.126,3.126,0,0,1,1.02,2.387v4.616a5.643,5.643,0,0,0,.352,2.2V0ZM14.82-1.307a3.014,3.014,0,0,0,1.529-.417A2.523,2.523,0,0,0,17.4-2.808V-4.866H16.053q-3.151,0-3.151,1.844a1.561,1.561,0,0,0,.538,1.261A2.066,2.066,0,0,0,14.82-1.307ZM30.289-4.9A5.963,5.963,0,0,1,29.233-1.21,3.376,3.376,0,0,1,26.4.185a3.5,3.5,0,0,1-2.938-1.344L23.375,0H21.8V-14.236h1.715v5.311a3.476,3.476,0,0,1,2.864-1.288,3.4,3.4,0,0,1,2.869,1.381,6.142,6.142,0,0,1,1.043,3.782ZM28.575-5.1A4.633,4.633,0,0,0,27.9-7.8a2.24,2.24,0,0,0-1.946-.955,2.517,2.517,0,0,0-2.438,1.576v4.338A2.588,2.588,0,0,0,25.97-1.27a2.228,2.228,0,0,0,1.919-.955A4.927,4.927,0,0,0,28.575-5.1ZM37.3-8.49a5.138,5.138,0,0,0-.843-.065,2.26,2.26,0,0,0-2.289,1.437V0H32.449V-10.028h1.668l.028,1.159a2.67,2.67,0,0,1,2.391-1.344,1.752,1.752,0,0,1,.76.13ZM40.735,0H39.02V-10.028h1.715ZM38.881-12.689a1.024,1.024,0,0,1,.255-.7.957.957,0,0,1,.755-.287.972.972,0,0,1,.76.287,1.013,1.013,0,0,1,.26.7.979.979,0,0,1-.26.7.989.989,0,0,1-.76.278.974.974,0,0,1-.755-.278A.99.99,0,0,1,38.881-12.689ZM47.5-1.214a2.47,2.47,0,0,0,1.6-.556,1.957,1.957,0,0,0,.76-1.39h1.622a3.109,3.109,0,0,1-.593,1.641,3.907,3.907,0,0,1-1.46,1.242A4.212,4.212,0,0,1,47.5.185a4.131,4.131,0,0,1-3.258-1.367,5.445,5.445,0,0,1-1.21-3.74v-.287a6.038,6.038,0,0,1,.538-2.6,4.094,4.094,0,0,1,1.543-1.77,4.384,4.384,0,0,1,2.377-.63A4.022,4.022,0,0,1,50.3-9.2a3.611,3.611,0,0,1,1.191,2.623H49.864a2.363,2.363,0,0,0-.737-1.6,2.292,2.292,0,0,0-1.636-.626,2.4,2.4,0,0,0-2.025.941,4.418,4.418,0,0,0-.718,2.72v.324a4.33,4.33,0,0,0,.714,2.669A2.411,2.411,0,0,0,47.5-1.214ZM59.606,0a3.6,3.6,0,0,1-.241-1.057A3.826,3.826,0,0,1,56.51.185a3.54,3.54,0,0,1-2.433-.839,2.714,2.714,0,0,1-.95-2.127,2.835,2.835,0,0,1,1.191-2.433,5.615,5.615,0,0,1,3.351-.867h1.668v-.788A1.926,1.926,0,0,0,58.8-8.3a2.16,2.16,0,0,0-1.585-.533,2.5,2.5,0,0,0-1.539.463,1.366,1.366,0,0,0-.621,1.121H53.331A2.366,2.366,0,0,1,53.864-8.7,3.637,3.637,0,0,1,55.31-9.806a4.864,4.864,0,0,1,2.007-.408,3.965,3.965,0,0,1,2.716.867,3.126,3.126,0,0,1,1.02,2.387v4.616a5.643,5.643,0,0,0,.352,2.2V0ZM56.76-1.307a3.014,3.014,0,0,0,1.529-.417,2.523,2.523,0,0,0,1.047-1.084V-4.866H57.993q-3.151,0-3.151,1.844a1.561,1.561,0,0,0,.538,1.261A2.066,2.066,0,0,0,56.76-1.307Zm11,.093a2.47,2.47,0,0,0,1.6-.556,1.956,1.956,0,0,0,.76-1.39h1.622a3.109,3.109,0,0,1-.593,1.641,3.907,3.907,0,0,1-1.46,1.242,4.212,4.212,0,0,1-1.932.463A4.131,4.131,0,0,1,64.5-1.182a5.445,5.445,0,0,1-1.21-3.74v-.287a6.038,6.038,0,0,1,.538-2.6,4.094,4.094,0,0,1,1.543-1.77,4.384,4.384,0,0,1,2.377-.63,4.022,4.022,0,0,1,2.8,1.01,3.611,3.611,0,0,1,1.191,2.623H70.125a2.363,2.363,0,0,0-.737-1.6,2.292,2.292,0,0,0-1.636-.626,2.4,2.4,0,0,0-2.025.941,4.418,4.418,0,0,0-.718,2.72v.324a4.33,4.33,0,0,0,.714,2.669A2.411,2.411,0,0,0,67.762-1.214ZM75.538,0H73.823V-10.028h1.715ZM73.684-12.689a1.024,1.024,0,0,1,.255-.7.957.957,0,0,1,.755-.287.972.972,0,0,1,.76.287,1.013,1.013,0,0,1,.26.7.979.979,0,0,1-.26.7.989.989,0,0,1-.76.278.974.974,0,0,1-.755-.278A.99.99,0,0,1,73.684-12.689Zm4.143,7.582a5.923,5.923,0,0,1,.579-2.651,4.321,4.321,0,0,1,1.613-1.817,4.39,4.39,0,0,1,2.359-.64A4.229,4.229,0,0,1,85.692-8.8a5.456,5.456,0,0,1,1.265,3.772v.12A5.975,5.975,0,0,1,86.4-2.275a4.258,4.258,0,0,1-1.6,1.812,4.44,4.44,0,0,1-2.4.649,4.219,4.219,0,0,1-3.3-1.418,5.428,5.428,0,0,1-1.265-3.754Zm1.724.2a4.29,4.29,0,0,0,.774,2.679A2.477,2.477,0,0,0,82.4-1.214a2.462,2.462,0,0,0,2.076-1.024,4.692,4.692,0,0,0,.769-2.869,4.283,4.283,0,0,0-.783-2.674,2.49,2.49,0,0,0-2.081-1.024,2.462,2.462,0,0,0-2.048,1.01A4.657,4.657,0,0,0,79.551-4.9Zm3.605-9.315h2.076l-2.484,2.725-1.381,0Zm7.572,4.189.056,1.261a3.654,3.654,0,0,1,3-1.446q3.179,0,3.207,3.587V0H95.28V-6.636a2.309,2.309,0,0,0-.5-1.6,1.987,1.987,0,0,0-1.515-.519,2.475,2.475,0,0,0-1.464.445,3.021,3.021,0,0,0-.982,1.168V0H89.107V-10.028Z" transform="translate(-6428.534 -1291.635)" fill="#fff"/>
    <path id="Trazado_146254" data-name="Trazado 146254" d="M3.346-5.283V0H1.566V-13.495H6.544a5,5,0,0,1,3.471,1.131A3.833,3.833,0,0,1,11.27-9.37a3.783,3.783,0,0,1-1.228,3.026A5.224,5.224,0,0,1,6.525-5.283Zm0-1.455h3.2a3.2,3.2,0,0,0,2.187-.673,2.461,2.461,0,0,0,.76-1.945,2.543,2.543,0,0,0-.76-1.931,3,3,0,0,0-2.085-.752h-3.3ZM18.12-8.49a5.138,5.138,0,0,0-.843-.065,2.26,2.26,0,0,0-2.289,1.437V0H13.272V-10.028h1.668l.028,1.159a2.67,2.67,0,0,1,2.391-1.344,1.752,1.752,0,0,1,.76.13ZM23.681.185a4.382,4.382,0,0,1-3.318-1.339,4.971,4.971,0,0,1-1.279-3.582v-.315a6.018,6.018,0,0,1,.57-2.665,4.446,4.446,0,0,1,1.594-1.835,4.008,4.008,0,0,1,2.22-.663,3.756,3.756,0,0,1,3.04,1.288,5.578,5.578,0,0,1,1.084,3.689v.714H20.8a3.565,3.565,0,0,0,.867,2.4,2.724,2.724,0,0,0,2.109.913,2.986,2.986,0,0,0,1.539-.371,3.866,3.866,0,0,0,1.1-.982l1.047.816A4.211,4.211,0,0,1,23.681.185Zm-.213-8.99a2.287,2.287,0,0,0-1.742.755,3.672,3.672,0,0,0-.871,2.118h5.024v-.13a3.266,3.266,0,0,0-.7-2.025A2.153,2.153,0,0,0,23.468-8.805ZM35.415-2.66a1.262,1.262,0,0,0-.524-1.08A5.041,5.041,0,0,0,33.065-4.4,8.633,8.633,0,0,1,31-5.07,2.94,2.94,0,0,1,29.868-6,2.217,2.217,0,0,1,29.5-7.276a2.6,2.6,0,0,1,1.043-2.085,4.072,4.072,0,0,1,2.665-.853,4.19,4.19,0,0,1,2.767.881,2.8,2.8,0,0,1,1.061,2.252H35.313a1.548,1.548,0,0,0-.6-1.214,2.24,2.24,0,0,0-1.506-.51,2.344,2.344,0,0,0-1.464.408,1.284,1.284,0,0,0-.528,1.066,1.04,1.04,0,0,0,.491.936,6.044,6.044,0,0,0,1.775.6,9.248,9.248,0,0,1,2.081.686,3.035,3.035,0,0,1,1.182.959,2.359,2.359,0,0,1,.385,1.367A2.567,2.567,0,0,1,36.054-.626a4.51,4.51,0,0,1-2.79.811,5.05,5.05,0,0,1-2.132-.426,3.467,3.467,0,0,1-1.451-1.191,2.871,2.871,0,0,1-.524-1.654h1.715a1.775,1.775,0,0,0,.691,1.367,2.679,2.679,0,0,0,1.7.505,2.765,2.765,0,0,0,1.562-.394A1.21,1.21,0,0,0,35.415-2.66Zm7.971,1.446a2.47,2.47,0,0,0,1.6-.556,1.957,1.957,0,0,0,.76-1.39h1.622a3.109,3.109,0,0,1-.593,1.641,3.907,3.907,0,0,1-1.46,1.242,4.212,4.212,0,0,1-1.932.463,4.131,4.131,0,0,1-3.258-1.367,5.445,5.445,0,0,1-1.21-3.74v-.287a6.038,6.038,0,0,1,.538-2.6A4.094,4.094,0,0,1,41-9.584a4.384,4.384,0,0,1,2.377-.63,4.022,4.022,0,0,1,2.8,1.01,3.611,3.611,0,0,1,1.191,2.623H45.749a2.363,2.363,0,0,0-.737-1.6,2.292,2.292,0,0,0-1.636-.626,2.4,2.4,0,0,0-2.025.941,4.418,4.418,0,0,0-.718,2.72v.324a4.33,4.33,0,0,0,.714,2.669A2.411,2.411,0,0,0,43.386-1.214ZM54.146-8.49a5.138,5.138,0,0,0-.843-.065,2.26,2.26,0,0,0-2.289,1.437V0H49.3V-10.028h1.668L51-8.87a2.67,2.67,0,0,1,2.391-1.344,1.752,1.752,0,0,1,.76.13ZM57.585,0H55.87V-10.028h1.715ZM55.731-12.689a1.024,1.024,0,0,1,.255-.7.957.957,0,0,1,.755-.287.972.972,0,0,1,.76.287,1.013,1.013,0,0,1,.26.7.979.979,0,0,1-.26.7.989.989,0,0,1-.76.278.974.974,0,0,1-.755-.278A.99.99,0,0,1,55.731-12.689ZM68.8-4.9a6,6,0,0,1-1.047,3.689,3.357,3.357,0,0,1-2.836,1.4A3.678,3.678,0,0,1,62.043-.973V3.856H60.328V-10.028h1.566l.083,1.112a3.532,3.532,0,0,1,2.91-1.3,3.42,3.42,0,0,1,2.859,1.362A6.07,6.07,0,0,1,68.8-5.061ZM67.085-5.1a4.431,4.431,0,0,0-.723-2.679,2.329,2.329,0,0,0-1.983-.982,2.521,2.521,0,0,0-2.336,1.381v4.792A2.525,2.525,0,0,0,64.4-1.214a2.318,2.318,0,0,0,1.96-.978A4.837,4.837,0,0,0,67.085-5.1ZM75-1.214a2.47,2.47,0,0,0,1.6-.556,1.956,1.956,0,0,0,.76-1.39h1.622a3.109,3.109,0,0,1-.593,1.641,3.907,3.907,0,0,1-1.46,1.242A4.212,4.212,0,0,1,75,.185a4.131,4.131,0,0,1-3.258-1.367,5.445,5.445,0,0,1-1.21-3.74v-.287a6.038,6.038,0,0,1,.538-2.6,4.094,4.094,0,0,1,1.543-1.77,4.384,4.384,0,0,1,2.377-.63,4.022,4.022,0,0,1,2.8,1.01,3.611,3.611,0,0,1,1.191,2.623H77.364a2.363,2.363,0,0,0-.737-1.6,2.292,2.292,0,0,0-1.636-.626,2.4,2.4,0,0,0-2.025.941,4.418,4.418,0,0,0-.718,2.72v.324a4.33,4.33,0,0,0,.714,2.669A2.411,2.411,0,0,0,75-1.214ZM82.777,0H81.062V-10.028h1.715ZM80.923-12.689a1.024,1.024,0,0,1,.255-.7.957.957,0,0,1,.755-.287.972.972,0,0,1,.76.287,1.013,1.013,0,0,1,.26.7.979.979,0,0,1-.26.7.989.989,0,0,1-.76.278.974.974,0,0,1-.755-.278A.99.99,0,0,1,80.923-12.689Zm4.143,7.582a5.923,5.923,0,0,1,.579-2.651,4.321,4.321,0,0,1,1.613-1.817,4.39,4.39,0,0,1,2.359-.64A4.229,4.229,0,0,1,92.93-8.8,5.456,5.456,0,0,1,94.2-5.024v.12a5.975,5.975,0,0,1-.561,2.628,4.258,4.258,0,0,1-1.6,1.812,4.44,4.44,0,0,1-2.4.649,4.219,4.219,0,0,1-3.3-1.418,5.428,5.428,0,0,1-1.265-3.754Zm1.724.2a4.29,4.29,0,0,0,.774,2.679,2.477,2.477,0,0,0,2.072,1.01,2.462,2.462,0,0,0,2.076-1.024,4.692,4.692,0,0,0,.769-2.869A4.283,4.283,0,0,0,91.7-7.781a2.49,2.49,0,0,0-2.081-1.024,2.462,2.462,0,0,0-2.048,1.01A4.657,4.657,0,0,0,86.79-4.9ZM90.4-14.218h2.076l-2.484,2.725-1.381,0Zm7.572,4.189.056,1.261a3.654,3.654,0,0,1,3-1.446q3.179,0,3.207,3.587V0h-1.715V-6.636a2.309,2.309,0,0,0-.5-1.6,1.987,1.987,0,0,0-1.515-.519,2.475,2.475,0,0,0-1.464.445,3.021,3.021,0,0,0-.982,1.168V0H96.346V-10.028Z" transform="translate(-6247.728 -1291.635)" fill="#fff"/>
    <path id="Trazado_146255" data-name="Trazado 146255" d="M1.566,0V-13.495H5.376a6.132,6.132,0,0,1,3.114.779A5.265,5.265,0,0,1,10.58-10.5a7.21,7.21,0,0,1,.746,3.3v.862a7.235,7.235,0,0,1-.737,3.346,5.183,5.183,0,0,1-2.1,2.206A6.523,6.523,0,0,1,5.3,0Zm1.78-12.04V-1.455H5.218a4.074,4.074,0,0,0,3.2-1.28A5.289,5.289,0,0,0,9.565-6.381V-7.17a5.373,5.373,0,0,0-1.08-3.576A3.842,3.842,0,0,0,5.422-12.04ZM15.608,0H13.893V-10.028h1.715ZM13.754-12.689a1.024,1.024,0,0,1,.255-.7.957.957,0,0,1,.755-.287.972.972,0,0,1,.76.287,1.013,1.013,0,0,1,.26.7.979.979,0,0,1-.26.7.989.989,0,0,1-.76.278.974.974,0,0,1-.755-.278A.99.99,0,0,1,13.754-12.689ZM24.191-2.66a1.262,1.262,0,0,0-.524-1.08A5.041,5.041,0,0,0,21.841-4.4a8.633,8.633,0,0,1-2.067-.667A2.94,2.94,0,0,1,18.644-6a2.217,2.217,0,0,1-.366-1.279A2.6,2.6,0,0,1,19.32-9.361a4.072,4.072,0,0,1,2.665-.853,4.19,4.19,0,0,1,2.767.881,2.8,2.8,0,0,1,1.061,2.252H24.089a1.548,1.548,0,0,0-.6-1.214,2.24,2.24,0,0,0-1.506-.51A2.344,2.344,0,0,0,20.52-8.4a1.284,1.284,0,0,0-.528,1.066,1.04,1.04,0,0,0,.491.936,6.044,6.044,0,0,0,1.775.6,9.248,9.248,0,0,1,2.081.686,3.035,3.035,0,0,1,1.182.959,2.359,2.359,0,0,1,.385,1.367A2.567,2.567,0,0,1,24.83-.626a4.51,4.51,0,0,1-2.79.811,5.05,5.05,0,0,1-2.132-.426,3.467,3.467,0,0,1-1.451-1.191,2.871,2.871,0,0,1-.524-1.654h1.715a1.775,1.775,0,0,0,.691,1.367,2.679,2.679,0,0,0,1.7.505A2.765,2.765,0,0,0,23.6-1.608,1.21,1.21,0,0,0,24.191-2.66ZM36.61-4.9a6,6,0,0,1-1.047,3.689,3.357,3.357,0,0,1-2.836,1.4A3.678,3.678,0,0,1,29.854-.973V3.856H28.139V-10.028h1.566l.083,1.112a3.532,3.532,0,0,1,2.91-1.3,3.42,3.42,0,0,1,2.859,1.362A6.07,6.07,0,0,1,36.61-5.061ZM34.9-5.1a4.431,4.431,0,0,0-.723-2.679,2.329,2.329,0,0,0-1.983-.982,2.521,2.521,0,0,0-2.336,1.381v4.792a2.525,2.525,0,0,0,2.354,1.372,2.318,2.318,0,0,0,1.96-.978A4.837,4.837,0,0,0,34.9-5.1ZM42.95.185a4.382,4.382,0,0,1-3.318-1.339,4.971,4.971,0,0,1-1.279-3.582v-.315a6.018,6.018,0,0,1,.57-2.665,4.447,4.447,0,0,1,1.594-1.835,4.008,4.008,0,0,1,2.22-.663,3.756,3.756,0,0,1,3.04,1.288,5.578,5.578,0,0,1,1.084,3.689v.714H40.068a3.565,3.565,0,0,0,.867,2.4,2.724,2.724,0,0,0,2.109.913,2.986,2.986,0,0,0,1.539-.371,3.866,3.866,0,0,0,1.1-.982l1.047.816A4.211,4.211,0,0,1,42.95.185Zm-.213-8.99a2.287,2.287,0,0,0-1.742.755,3.672,3.672,0,0,0-.871,2.118h5.024v-.13a3.266,3.266,0,0,0-.7-2.025A2.153,2.153,0,0,0,42.737-8.805Zm7.73-1.223.056,1.261a3.654,3.654,0,0,1,3-1.446q3.179,0,3.207,3.587V0H55.018V-6.636a2.309,2.309,0,0,0-.5-1.6,1.987,1.987,0,0,0-1.515-.519,2.475,2.475,0,0,0-1.464.445,3.021,3.021,0,0,0-.982,1.168V0H48.845V-10.028ZM65.157-2.66a1.262,1.262,0,0,0-.524-1.08A5.041,5.041,0,0,0,62.808-4.4a8.633,8.633,0,0,1-2.067-.667A2.94,2.94,0,0,1,59.61-6a2.217,2.217,0,0,1-.366-1.279,2.6,2.6,0,0,1,1.043-2.085,4.072,4.072,0,0,1,2.665-.853,4.19,4.19,0,0,1,2.767.881,2.8,2.8,0,0,1,1.061,2.252H65.055a1.548,1.548,0,0,0-.6-1.214,2.24,2.24,0,0,0-1.506-.51,2.344,2.344,0,0,0-1.464.408,1.284,1.284,0,0,0-.528,1.066,1.04,1.04,0,0,0,.491.936,6.044,6.044,0,0,0,1.775.6,9.248,9.248,0,0,1,2.081.686,3.035,3.035,0,0,1,1.182.959,2.359,2.359,0,0,1,.385,1.367A2.567,2.567,0,0,1,65.8-.626a4.51,4.51,0,0,1-2.79.811,5.05,5.05,0,0,1-2.132-.426,3.467,3.467,0,0,1-1.451-1.191A2.871,2.871,0,0,1,58.9-3.086h1.715a1.775,1.775,0,0,0,.691,1.367,2.679,2.679,0,0,0,1.7.505,2.765,2.765,0,0,0,1.562-.394A1.21,1.21,0,0,0,65.157-2.66ZM75.3,0a3.6,3.6,0,0,1-.241-1.057A3.826,3.826,0,0,1,72.2.185a3.54,3.54,0,0,1-2.433-.839,2.714,2.714,0,0,1-.95-2.127,2.835,2.835,0,0,1,1.191-2.433A5.615,5.615,0,0,1,73.36-6.08h1.668v-.788A1.926,1.926,0,0,0,74.491-8.3a2.16,2.16,0,0,0-1.585-.533,2.5,2.5,0,0,0-1.539.463,1.366,1.366,0,0,0-.621,1.121H69.022A2.366,2.366,0,0,1,69.555-8.7,3.637,3.637,0,0,1,71-9.806a4.864,4.864,0,0,1,2.007-.408,3.965,3.965,0,0,1,2.716.867,3.126,3.126,0,0,1,1.02,2.387v4.616a5.643,5.643,0,0,0,.352,2.2V0ZM72.452-1.307a3.014,3.014,0,0,0,1.529-.417,2.523,2.523,0,0,0,1.047-1.084V-4.866H73.684q-3.151,0-3.151,1.844a1.561,1.561,0,0,0,.538,1.261A2.066,2.066,0,0,0,72.452-1.307Zm11,.093a2.47,2.47,0,0,0,1.6-.556,1.956,1.956,0,0,0,.76-1.39h1.622a3.109,3.109,0,0,1-.593,1.641,3.907,3.907,0,0,1-1.46,1.242,4.212,4.212,0,0,1-1.932.463A4.131,4.131,0,0,1,80.2-1.182a5.445,5.445,0,0,1-1.21-3.74v-.287a6.038,6.038,0,0,1,.538-2.6,4.094,4.094,0,0,1,1.543-1.77,4.384,4.384,0,0,1,2.377-.63,4.022,4.022,0,0,1,2.8,1.01,3.611,3.611,0,0,1,1.191,2.623H85.817a2.363,2.363,0,0,0-.737-1.6,2.292,2.292,0,0,0-1.636-.626,2.4,2.4,0,0,0-2.025.941,4.418,4.418,0,0,0-.718,2.72v.324a4.33,4.33,0,0,0,.714,2.669A2.411,2.411,0,0,0,83.453-1.214ZM91.23,0H89.515V-10.028H91.23ZM89.376-12.689a1.024,1.024,0,0,1,.255-.7.957.957,0,0,1,.755-.287.972.972,0,0,1,.76.287,1.013,1.013,0,0,1,.26.7.979.979,0,0,1-.26.7.989.989,0,0,1-.76.278.974.974,0,0,1-.755-.278A.99.99,0,0,1,89.376-12.689Zm4.143,7.582A5.923,5.923,0,0,1,94.1-7.758a4.321,4.321,0,0,1,1.613-1.817,4.39,4.39,0,0,1,2.359-.64A4.229,4.229,0,0,1,101.383-8.8a5.456,5.456,0,0,1,1.265,3.772v.12a5.975,5.975,0,0,1-.561,2.628,4.258,4.258,0,0,1-1.6,1.812,4.44,4.44,0,0,1-2.4.649,4.219,4.219,0,0,1-3.3-1.418,5.428,5.428,0,0,1-1.265-3.754Zm1.724.2a4.29,4.29,0,0,0,.774,2.679,2.477,2.477,0,0,0,2.071,1.01,2.462,2.462,0,0,0,2.076-1.024,4.692,4.692,0,0,0,.769-2.869,4.283,4.283,0,0,0-.783-2.674A2.49,2.49,0,0,0,98.07-8.805a2.462,2.462,0,0,0-2.048,1.01A4.657,4.657,0,0,0,95.243-4.9Zm3.605-9.315h2.076L98.44-11.493l-1.381,0Zm7.572,4.189.056,1.261a3.654,3.654,0,0,1,3-1.446q3.179,0,3.207,3.587V0h-1.715V-6.636a2.309,2.309,0,0,0-.5-1.6,1.987,1.987,0,0,0-1.515-.519,2.475,2.475,0,0,0-1.464.445,3.021,3.021,0,0,0-.982,1.168V0H104.8V-10.028Z" transform="translate(-6082.826 -1291.635)" fill="#fff"/>
    <path id="Trazado_146256" data-name="Trazado 146256" d="M11.067-13.495v9.176A4.3,4.3,0,0,1,9.866-1.2,4.837,4.837,0,0,1,6.636.167L6.164.185a5.051,5.051,0,0,1-3.531-1.2A4.276,4.276,0,0,1,1.3-4.3v-9.194H3.059v9.139a3.087,3.087,0,0,0,.806,2.275,3.1,3.1,0,0,0,2.3.811,3.12,3.12,0,0,0,2.312-.806,3.081,3.081,0,0,0,.8-2.271v-9.148ZM19.445-2.66a1.262,1.262,0,0,0-.524-1.08A5.041,5.041,0,0,0,17.1-4.4a8.633,8.633,0,0,1-2.067-.667A2.94,2.94,0,0,1,13.9-6a2.217,2.217,0,0,1-.366-1.279,2.6,2.6,0,0,1,1.043-2.085,4.072,4.072,0,0,1,2.665-.853,4.19,4.19,0,0,1,2.767.881,2.8,2.8,0,0,1,1.061,2.252H19.343a1.548,1.548,0,0,0-.6-1.214,2.24,2.24,0,0,0-1.506-.51,2.344,2.344,0,0,0-1.464.408,1.284,1.284,0,0,0-.528,1.066,1.04,1.04,0,0,0,.491.936,6.044,6.044,0,0,0,1.775.6,9.248,9.248,0,0,1,2.081.686,3.035,3.035,0,0,1,1.182.959,2.359,2.359,0,0,1,.385,1.367A2.567,2.567,0,0,1,20.085-.626a4.51,4.51,0,0,1-2.79.811,5.05,5.05,0,0,1-2.132-.426,3.467,3.467,0,0,1-1.451-1.191,2.871,2.871,0,0,1-.524-1.654H14.9a1.775,1.775,0,0,0,.691,1.367,2.679,2.679,0,0,0,1.7.505,2.765,2.765,0,0,0,1.562-.394A1.21,1.21,0,0,0,19.445-2.66Zm3.494-2.447a5.923,5.923,0,0,1,.579-2.651,4.321,4.321,0,0,1,1.613-1.817,4.39,4.39,0,0,1,2.359-.64A4.229,4.229,0,0,1,30.8-8.8a5.456,5.456,0,0,1,1.265,3.772v.12a5.975,5.975,0,0,1-.561,2.628A4.258,4.258,0,0,1,29.9-.463a4.44,4.44,0,0,1-2.4.649,4.219,4.219,0,0,1-3.3-1.418,5.428,5.428,0,0,1-1.265-3.754Zm1.724.2a4.29,4.29,0,0,0,.774,2.679,2.477,2.477,0,0,0,2.072,1.01,2.462,2.462,0,0,0,2.076-1.024,4.692,4.692,0,0,0,.769-2.869,4.283,4.283,0,0,0-.783-2.674A2.49,2.49,0,0,0,27.49-8.805a2.462,2.462,0,0,0-2.048,1.01A4.657,4.657,0,0,0,24.663-4.9ZM42.941-1.214a2.47,2.47,0,0,0,1.6-.556,1.957,1.957,0,0,0,.76-1.39h1.622a3.109,3.109,0,0,1-.593,1.641,3.907,3.907,0,0,1-1.46,1.242,4.212,4.212,0,0,1-1.932.463,4.131,4.131,0,0,1-3.258-1.367,5.445,5.445,0,0,1-1.21-3.74v-.287a6.038,6.038,0,0,1,.538-2.6,4.094,4.094,0,0,1,1.543-1.77,4.384,4.384,0,0,1,2.377-.63,4.022,4.022,0,0,1,2.8,1.01,3.611,3.611,0,0,1,1.191,2.623H45.3a2.363,2.363,0,0,0-.737-1.6,2.292,2.292,0,0,0-1.636-.626,2.4,2.4,0,0,0-2.025.941,4.418,4.418,0,0,0-.718,2.72v.324A4.33,4.33,0,0,0,40.9-2.15,2.411,2.411,0,0,0,42.941-1.214ZM48.4-5.107a5.923,5.923,0,0,1,.579-2.651,4.321,4.321,0,0,1,1.613-1.817,4.39,4.39,0,0,1,2.359-.64A4.229,4.229,0,0,1,56.264-8.8a5.456,5.456,0,0,1,1.265,3.772v.12a5.975,5.975,0,0,1-.561,2.628,4.258,4.258,0,0,1-1.6,1.812,4.44,4.44,0,0,1-2.4.649,4.219,4.219,0,0,1-3.3-1.418A5.428,5.428,0,0,1,48.4-4.986Zm1.724.2A4.29,4.29,0,0,0,50.9-2.224a2.477,2.477,0,0,0,2.072,1.01,2.462,2.462,0,0,0,2.076-1.024,4.692,4.692,0,0,0,.769-2.869,4.283,4.283,0,0,0-.783-2.674,2.49,2.49,0,0,0-2.081-1.024A2.462,2.462,0,0,0,50.9-7.795,4.657,4.657,0,0,0,50.124-4.9Zm14.4-3.587a5.138,5.138,0,0,0-.843-.065,2.26,2.26,0,0,0-2.289,1.437V0H59.68V-10.028h1.668l.028,1.159a2.67,2.67,0,0,1,2.391-1.344,1.752,1.752,0,0,1,.76.13Zm6.423,0a5.138,5.138,0,0,0-.843-.065,2.26,2.26,0,0,0-2.289,1.437V0H66.1V-10.028h1.668L67.8-8.87a2.67,2.67,0,0,1,2.391-1.344,1.752,1.752,0,0,1,.76.13ZM76.511.185a4.382,4.382,0,0,1-3.318-1.339,4.971,4.971,0,0,1-1.279-3.582v-.315a6.018,6.018,0,0,1,.57-2.665,4.447,4.447,0,0,1,1.594-1.835,4.008,4.008,0,0,1,2.22-.663,3.756,3.756,0,0,1,3.04,1.288,5.578,5.578,0,0,1,1.084,3.689v.714H73.629a3.565,3.565,0,0,0,.867,2.4,2.724,2.724,0,0,0,2.109.913,2.986,2.986,0,0,0,1.539-.371,3.866,3.866,0,0,0,1.1-.982l1.047.816A4.211,4.211,0,0,1,76.511.185ZM76.3-8.805a2.287,2.287,0,0,0-1.742.755,3.672,3.672,0,0,0-.871,2.118h5.024v-.13A3.266,3.266,0,0,0,78-8.087,2.153,2.153,0,0,0,76.3-8.805Zm10.13,7.591a2.47,2.47,0,0,0,1.6-.556,1.956,1.956,0,0,0,.76-1.39h1.622a3.109,3.109,0,0,1-.593,1.641,3.907,3.907,0,0,1-1.46,1.242,4.212,4.212,0,0,1-1.932.463,4.131,4.131,0,0,1-3.258-1.367,5.445,5.445,0,0,1-1.21-3.74v-.287a6.038,6.038,0,0,1,.538-2.6,4.094,4.094,0,0,1,1.543-1.77,4.384,4.384,0,0,1,2.377-.63,4.022,4.022,0,0,1,2.8,1.01,3.611,3.611,0,0,1,1.191,2.623H88.792a2.363,2.363,0,0,0-.737-1.6,2.292,2.292,0,0,0-1.636-.626,2.4,2.4,0,0,0-2.025.941,4.418,4.418,0,0,0-.718,2.72v.324a4.33,4.33,0,0,0,.714,2.669A2.411,2.411,0,0,0,86.428-1.214Zm8.24-11.243v2.428H96.54V-8.7H94.668v6.227a1.392,1.392,0,0,0,.25.9,1.053,1.053,0,0,0,.853.3,4.151,4.151,0,0,0,.816-.111V0a5,5,0,0,1-1.316.184,2.135,2.135,0,0,1-1.733-.7,2.986,2.986,0,0,1-.584-1.974V-8.7H91.128v-1.325h1.826v-2.428ZM97.9-5.107a5.923,5.923,0,0,1,.579-2.651,4.321,4.321,0,0,1,1.613-1.817,4.39,4.39,0,0,1,2.359-.64A4.229,4.229,0,0,1,105.767-8.8a5.456,5.456,0,0,1,1.265,3.772v.12a5.975,5.975,0,0,1-.561,2.628,4.258,4.258,0,0,1-1.6,1.812,4.44,4.44,0,0,1-2.4.649,4.219,4.219,0,0,1-3.3-1.418A5.428,5.428,0,0,1,97.9-4.986Zm1.724.2a4.29,4.29,0,0,0,.774,2.679,2.477,2.477,0,0,0,2.071,1.01,2.462,2.462,0,0,0,2.076-1.024,4.692,4.692,0,0,0,.769-2.869,4.283,4.283,0,0,0-.783-2.674,2.49,2.49,0,0,0-2.081-1.024,2.462,2.462,0,0,0-2.048,1.01A4.657,4.657,0,0,0,99.627-4.9Z" transform="translate(-5907.844 -1291.635)" fill="#fff"/>
    <path id="Trazado_146257" data-name="Trazado 146257" d="M9.194-6.238H3.346v4.783H10.14V0H1.566V-13.495h8.481v1.455h-6.7v4.347H9.194Zm4.514-3.791.056,1.261a3.654,3.654,0,0,1,3-1.446q3.179,0,3.207,3.587V0H18.259V-6.636a2.309,2.309,0,0,0-.5-1.6,1.987,1.987,0,0,0-1.515-.519,2.475,2.475,0,0,0-1.464.445A3.021,3.021,0,0,0,13.8-7.146V0H12.086V-10.028ZM31.281-1.214a2.47,2.47,0,0,0,1.6-.556,1.956,1.956,0,0,0,.76-1.39h1.622a3.109,3.109,0,0,1-.593,1.641,3.907,3.907,0,0,1-1.46,1.242,4.212,4.212,0,0,1-1.932.463,4.131,4.131,0,0,1-3.258-1.367,5.445,5.445,0,0,1-1.21-3.74v-.287a6.038,6.038,0,0,1,.538-2.6,4.094,4.094,0,0,1,1.543-1.77,4.384,4.384,0,0,1,2.377-.63,4.022,4.022,0,0,1,2.8,1.01,3.611,3.611,0,0,1,1.191,2.623H33.645a2.363,2.363,0,0,0-.737-1.6,2.292,2.292,0,0,0-1.636-.626,2.4,2.4,0,0,0-2.025.941,4.418,4.418,0,0,0-.718,2.72v.324a4.33,4.33,0,0,0,.714,2.669A2.411,2.411,0,0,0,31.281-1.214ZM43.386,0a3.6,3.6,0,0,1-.241-1.057A3.826,3.826,0,0,1,40.29.185a3.54,3.54,0,0,1-2.433-.839,2.714,2.714,0,0,1-.95-2.127A2.835,2.835,0,0,1,38.1-5.214a5.615,5.615,0,0,1,3.351-.867h1.668v-.788A1.926,1.926,0,0,0,42.579-8.3a2.16,2.16,0,0,0-1.585-.533,2.5,2.5,0,0,0-1.539.463,1.366,1.366,0,0,0-.621,1.121H37.111A2.366,2.366,0,0,1,37.644-8.7,3.637,3.637,0,0,1,39.09-9.806a4.864,4.864,0,0,1,2.007-.408,3.965,3.965,0,0,1,2.716.867,3.126,3.126,0,0,1,1.02,2.387v4.616a5.643,5.643,0,0,0,.352,2.2V0ZM40.54-1.307a3.014,3.014,0,0,0,1.529-.417,2.523,2.523,0,0,0,1.047-1.084V-4.866H41.773q-3.151,0-3.151,1.844a1.561,1.561,0,0,0,.538,1.261A2.066,2.066,0,0,0,40.54-1.307ZM47.1-5.1A5.875,5.875,0,0,1,48.2-8.81a3.459,3.459,0,0,1,2.864-1.4,3.478,3.478,0,0,1,2.79,1.2v-5.227h1.715V0H53.989l-.083-1.075A3.492,3.492,0,0,1,51.041.185,3.425,3.425,0,0,1,48.2-1.242a5.942,5.942,0,0,1-1.1-3.726Zm1.715.195a4.448,4.448,0,0,0,.7,2.669,2.277,2.277,0,0,0,1.946.964A2.5,2.5,0,0,0,53.85-2.734V-7.341a2.521,2.521,0,0,0-2.363-1.418,2.288,2.288,0,0,0-1.965.973A4.9,4.9,0,0,0,48.817-4.9ZM64.416,0a3.6,3.6,0,0,1-.241-1.057A3.826,3.826,0,0,1,61.32.185a3.54,3.54,0,0,1-2.433-.839,2.714,2.714,0,0,1-.95-2.127,2.835,2.835,0,0,1,1.191-2.433,5.615,5.615,0,0,1,3.351-.867h1.668v-.788A1.926,1.926,0,0,0,63.609-8.3a2.16,2.16,0,0,0-1.585-.533,2.5,2.5,0,0,0-1.539.463,1.366,1.366,0,0,0-.621,1.121H58.141A2.366,2.366,0,0,1,58.674-8.7,3.637,3.637,0,0,1,60.12-9.806a4.864,4.864,0,0,1,2.007-.408,3.965,3.965,0,0,1,2.716.867,3.126,3.126,0,0,1,1.02,2.387v4.616a5.643,5.643,0,0,0,.352,2.2V0ZM61.57-1.307A3.014,3.014,0,0,0,63.1-1.724a2.523,2.523,0,0,0,1.047-1.084V-4.866H62.8q-3.151,0-3.151,1.844a1.561,1.561,0,0,0,.538,1.261A2.066,2.066,0,0,0,61.57-1.307ZM77.41.185a4.382,4.382,0,0,1-3.318-1.339,4.971,4.971,0,0,1-1.279-3.582v-.315a6.018,6.018,0,0,1,.57-2.665,4.447,4.447,0,0,1,1.594-1.835,4.008,4.008,0,0,1,2.22-.663,3.756,3.756,0,0,1,3.04,1.288,5.578,5.578,0,0,1,1.084,3.689v.714H74.528a3.565,3.565,0,0,0,.867,2.4,2.724,2.724,0,0,0,2.109.913,2.986,2.986,0,0,0,1.539-.371,3.866,3.866,0,0,0,1.1-.982l1.047.816A4.211,4.211,0,0,1,77.41.185ZM77.2-8.805a2.287,2.287,0,0,0-1.742.755,3.672,3.672,0,0,0-.871,2.118h5.024v-.13a3.266,3.266,0,0,0-.7-2.025A2.153,2.153,0,0,0,77.2-8.805Zm8.434-3.652v2.428H87.5V-8.7H85.631v6.227a1.392,1.392,0,0,0,.25.9,1.053,1.053,0,0,0,.853.3,4.151,4.151,0,0,0,.816-.111V0a5,5,0,0,1-1.316.184A2.135,2.135,0,0,1,84.5-.51a2.986,2.986,0,0,1-.584-1.974V-8.7H82.091v-1.325h1.826v-2.428ZM95.7,0a3.6,3.6,0,0,1-.241-1.057A3.826,3.826,0,0,1,92.6.185a3.54,3.54,0,0,1-2.433-.839,2.714,2.714,0,0,1-.95-2.127,2.835,2.835,0,0,1,1.191-2.433A5.615,5.615,0,0,1,93.76-6.08h1.668v-.788A1.926,1.926,0,0,0,94.891-8.3a2.16,2.16,0,0,0-1.585-.533,2.5,2.5,0,0,0-1.539.463,1.366,1.366,0,0,0-.621,1.121H89.422A2.366,2.366,0,0,1,89.955-8.7,3.637,3.637,0,0,1,91.4-9.806a4.864,4.864,0,0,1,2.007-.408,3.965,3.965,0,0,1,2.716.867,3.126,3.126,0,0,1,1.02,2.387v4.616a5.643,5.643,0,0,0,.352,2.2V0ZM92.851-1.307a3.014,3.014,0,0,0,1.529-.417,2.523,2.523,0,0,0,1.047-1.084V-4.866H94.084q-3.151,0-3.151,1.844a1.561,1.561,0,0,0,.538,1.261A2.066,2.066,0,0,0,92.851-1.307ZM108.3-4.9a6,6,0,0,1-1.047,3.689,3.357,3.357,0,0,1-2.836,1.4,3.678,3.678,0,0,1-2.873-1.159V3.856H99.831V-10.028H101.4l.083,1.112a3.532,3.532,0,0,1,2.91-1.3,3.42,3.42,0,0,1,2.859,1.362A6.07,6.07,0,0,1,108.3-5.061ZM106.587-5.1a4.431,4.431,0,0,0-.723-2.679,2.329,2.329,0,0,0-1.983-.982,2.521,2.521,0,0,0-2.336,1.381v4.792A2.525,2.525,0,0,0,103.9-1.214a2.318,2.318,0,0,0,1.96-.978A4.837,4.837,0,0,0,106.587-5.1ZM116.671,0a3.6,3.6,0,0,1-.241-1.057A3.826,3.826,0,0,1,113.576.185a3.54,3.54,0,0,1-2.433-.839,2.714,2.714,0,0,1-.95-2.127,2.835,2.835,0,0,1,1.191-2.433,5.615,5.615,0,0,1,3.351-.867H116.4v-.788a1.926,1.926,0,0,0-.538-1.432,2.16,2.16,0,0,0-1.585-.533,2.5,2.5,0,0,0-1.539.463,1.366,1.366,0,0,0-.621,1.121H110.4A2.366,2.366,0,0,1,110.93-8.7a3.637,3.637,0,0,1,1.446-1.108,4.864,4.864,0,0,1,2.007-.408,3.965,3.965,0,0,1,2.716.867,3.126,3.126,0,0,1,1.02,2.387v4.616a5.643,5.643,0,0,0,.352,2.2V0Zm-2.845-1.307a3.014,3.014,0,0,0,1.529-.417A2.523,2.523,0,0,0,116.4-2.808V-4.866h-1.344q-3.151,0-3.151,1.844a1.561,1.561,0,0,0,.538,1.261A2.066,2.066,0,0,0,113.826-1.307ZM131.343-2.66a1.262,1.262,0,0,0-.524-1.08,5.04,5.04,0,0,0-1.826-.663,8.632,8.632,0,0,1-2.067-.667A2.94,2.94,0,0,1,125.8-6a2.217,2.217,0,0,1-.366-1.279,2.6,2.6,0,0,1,1.043-2.085,4.072,4.072,0,0,1,2.665-.853,4.19,4.19,0,0,1,2.767.881,2.8,2.8,0,0,1,1.061,2.252h-1.724a1.548,1.548,0,0,0-.6-1.214,2.24,2.24,0,0,0-1.506-.51,2.344,2.344,0,0,0-1.464.408,1.284,1.284,0,0,0-.528,1.066,1.04,1.04,0,0,0,.491.936,6.044,6.044,0,0,0,1.775.6,9.248,9.248,0,0,1,2.081.686,3.035,3.035,0,0,1,1.182.959,2.359,2.359,0,0,1,.385,1.367,2.567,2.567,0,0,1-1.075,2.155,4.51,4.51,0,0,1-2.79.811,5.05,5.05,0,0,1-2.132-.426,3.467,3.467,0,0,1-1.451-1.191,2.871,2.871,0,0,1-.524-1.654H126.8a1.775,1.775,0,0,0,.69,1.367,2.679,2.679,0,0,0,1.7.505,2.765,2.765,0,0,0,1.562-.394A1.21,1.21,0,0,0,131.343-2.66Zm8.11,2.845a4.382,4.382,0,0,1-3.318-1.339,4.971,4.971,0,0,1-1.279-3.582v-.315a6.018,6.018,0,0,1,.57-2.665,4.446,4.446,0,0,1,1.594-1.835,4.008,4.008,0,0,1,2.22-.663,3.756,3.756,0,0,1,3.04,1.288,5.578,5.578,0,0,1,1.084,3.689v.714h-6.794a3.565,3.565,0,0,0,.867,2.4,2.724,2.724,0,0,0,2.109.913,2.986,2.986,0,0,0,1.539-.371,3.866,3.866,0,0,0,1.1-.982l1.047.816A4.211,4.211,0,0,1,139.453.185Zm-.213-8.99a2.287,2.287,0,0,0-1.742.755,3.672,3.672,0,0,0-.871,2.118h5.023v-.13a3.266,3.266,0,0,0-.7-2.025A2.153,2.153,0,0,0,139.24-8.805Zm19.278,3.9a6,6,0,0,1-1.047,3.689,3.357,3.357,0,0,1-2.836,1.4,3.678,3.678,0,0,1-2.873-1.159V3.856h-1.715V-10.028h1.566l.083,1.112a3.532,3.532,0,0,1,2.91-1.3,3.42,3.42,0,0,1,2.859,1.362,6.07,6.07,0,0,1,1.052,3.791ZM156.8-5.1a4.431,4.431,0,0,0-.723-2.679,2.329,2.329,0,0,0-1.983-.982,2.521,2.521,0,0,0-2.336,1.381v4.792a2.525,2.525,0,0,0,2.354,1.372,2.318,2.318,0,0,0,1.96-.978A4.837,4.837,0,0,0,156.8-5.1ZM166.888-.992A3.642,3.642,0,0,1,163.95.185a3.117,3.117,0,0,1-2.442-.931A4.032,4.032,0,0,1,160.66-3.5v-6.525h1.715V-3.55q0,2.28,1.854,2.28a2.567,2.567,0,0,0,2.614-1.464v-7.294h1.715V0h-1.631ZM175.322.185A4.382,4.382,0,0,1,172-1.154a4.971,4.971,0,0,1-1.279-3.582v-.315a6.018,6.018,0,0,1,.57-2.665,4.446,4.446,0,0,1,1.594-1.835,4.008,4.008,0,0,1,2.22-.663,3.756,3.756,0,0,1,3.04,1.288,5.578,5.578,0,0,1,1.084,3.689v.714H172.44a3.565,3.565,0,0,0,.867,2.4,2.724,2.724,0,0,0,2.109.913,2.986,2.986,0,0,0,1.539-.371,3.866,3.866,0,0,0,1.1-.982l1.047.816A4.211,4.211,0,0,1,175.322.185Zm-.213-8.99a2.287,2.287,0,0,0-1.742.755,3.672,3.672,0,0,0-.871,2.118h5.023v-.13a3.266,3.266,0,0,0-.7-2.025A2.153,2.153,0,0,0,175.109-8.805ZM180.8-5.1a5.875,5.875,0,0,1,1.094-3.712,3.459,3.459,0,0,1,2.864-1.4,3.478,3.478,0,0,1,2.79,1.2v-5.227h1.715V0h-1.576L187.6-1.075A3.492,3.492,0,0,1,184.739.185,3.425,3.425,0,0,1,181.9-1.242a5.942,5.942,0,0,1-1.1-3.726Zm1.715.195a4.448,4.448,0,0,0,.7,2.669,2.277,2.277,0,0,0,1.946.964,2.5,2.5,0,0,0,2.382-1.464V-7.341a2.521,2.521,0,0,0-2.363-1.418,2.288,2.288,0,0,0-1.965.973A4.9,4.9,0,0,0,182.515-4.9ZM196.084.185a4.382,4.382,0,0,1-3.318-1.339,4.971,4.971,0,0,1-1.279-3.582v-.315a6.018,6.018,0,0,1,.57-2.665,4.446,4.446,0,0,1,1.594-1.835,4.008,4.008,0,0,1,2.22-.663,3.756,3.756,0,0,1,3.04,1.288,5.578,5.578,0,0,1,1.084,3.689v.714H193.2a3.565,3.565,0,0,0,.867,2.4,2.724,2.724,0,0,0,2.109.913,2.986,2.986,0,0,0,1.539-.371,3.866,3.866,0,0,0,1.1-.982l1.047.816A4.211,4.211,0,0,1,196.084.185Zm-.213-8.99a2.287,2.287,0,0,0-1.742.755,3.672,3.672,0,0,0-.871,2.118h5.023v-.13a3.266,3.266,0,0,0-.7-2.025A2.153,2.153,0,0,0,195.87-8.805Zm7.73-1.223.056,1.261a3.654,3.654,0,0,1,3-1.446q3.179,0,3.207,3.587V0h-1.715V-6.636a2.309,2.309,0,0,0-.5-1.6,1.987,1.987,0,0,0-1.515-.519,2.475,2.475,0,0,0-1.464.445,3.021,3.021,0,0,0-.982,1.168V0h-1.715V-10.028Zm17.573,8.814a2.47,2.47,0,0,0,1.6-.556,1.957,1.957,0,0,0,.76-1.39h1.622a3.109,3.109,0,0,1-.593,1.641,3.907,3.907,0,0,1-1.46,1.242,4.212,4.212,0,0,1-1.932.463,4.131,4.131,0,0,1-3.258-1.367,5.445,5.445,0,0,1-1.21-3.74v-.287a6.038,6.038,0,0,1,.538-2.6,4.094,4.094,0,0,1,1.543-1.77,4.384,4.384,0,0,1,2.377-.63,4.022,4.022,0,0,1,2.8,1.01,3.611,3.611,0,0,1,1.191,2.623h-1.622a2.363,2.363,0,0,0-.737-1.6,2.292,2.292,0,0,0-1.636-.626,2.4,2.4,0,0,0-2.025.941,4.418,4.418,0,0,0-.718,2.72v.324a4.33,4.33,0,0,0,.714,2.669A2.411,2.411,0,0,0,221.173-1.214Zm5.459-3.893a5.923,5.923,0,0,1,.579-2.651,4.321,4.321,0,0,1,1.613-1.817,4.39,4.39,0,0,1,2.359-.64A4.229,4.229,0,0,1,234.5-8.8a5.456,5.456,0,0,1,1.265,3.772v.12a5.975,5.975,0,0,1-.561,2.628,4.258,4.258,0,0,1-1.6,1.812,4.44,4.44,0,0,1-2.4.649,4.219,4.219,0,0,1-3.3-1.418,5.428,5.428,0,0,1-1.265-3.754Zm1.724.2a4.29,4.29,0,0,0,.774,2.679,2.477,2.477,0,0,0,2.072,1.01,2.462,2.462,0,0,0,2.076-1.024,4.691,4.691,0,0,0,.769-2.869,4.283,4.283,0,0,0-.783-2.674,2.49,2.49,0,0,0-2.081-1.024,2.462,2.462,0,0,0-2.048,1.01A4.657,4.657,0,0,0,228.356-4.9Zm11.169-5.125.046,1.112a3.7,3.7,0,0,1,2.975-1.3A2.867,2.867,0,0,1,245.41-8.6a3.8,3.8,0,0,1,1.3-1.168,3.846,3.846,0,0,1,1.9-.445q3.3,0,3.355,3.494V0h-1.715V-6.618a2.3,2.3,0,0,0-.491-1.608,2.163,2.163,0,0,0-1.65-.533,2.274,2.274,0,0,0-1.585.57,2.312,2.312,0,0,0-.732,1.534V0h-1.724V-6.571a1.913,1.913,0,0,0-2.141-2.187,2.294,2.294,0,0,0-2.308,1.437V0H237.9V-10.028ZM258.711.185a4.382,4.382,0,0,1-3.318-1.339,4.971,4.971,0,0,1-1.279-3.582v-.315a6.018,6.018,0,0,1,.57-2.665,4.446,4.446,0,0,1,1.594-1.835,4.008,4.008,0,0,1,2.22-.663,3.756,3.756,0,0,1,3.04,1.288,5.578,5.578,0,0,1,1.084,3.689v.714h-6.794a3.565,3.565,0,0,0,.867,2.4,2.724,2.724,0,0,0,2.109.913,2.986,2.986,0,0,0,1.539-.371,3.865,3.865,0,0,0,1.1-.982l1.047.816A4.211,4.211,0,0,1,258.711.185Zm-.213-8.99a2.287,2.287,0,0,0-1.742.755,3.672,3.672,0,0,0-.871,2.118h5.024v-.13a3.266,3.266,0,0,0-.7-2.025A2.153,2.153,0,0,0,258.5-8.805Zm8.434-3.652v2.428H268.8V-8.7h-1.872v6.227a1.392,1.392,0,0,0,.25.9,1.053,1.053,0,0,0,.853.3,4.151,4.151,0,0,0,.816-.111V0a5,5,0,0,1-1.316.184,2.135,2.135,0,0,1-1.733-.7,2.986,2.986,0,0,1-.584-1.974V-8.7h-1.826v-1.325h1.826v-2.428ZM274.968.185a4.382,4.382,0,0,1-3.318-1.339,4.971,4.971,0,0,1-1.279-3.582v-.315a6.018,6.018,0,0,1,.57-2.665,4.447,4.447,0,0,1,1.594-1.835,4.008,4.008,0,0,1,2.22-.663,3.756,3.756,0,0,1,3.04,1.288,5.578,5.578,0,0,1,1.084,3.689v.714h-6.794a3.565,3.565,0,0,0,.867,2.4,2.724,2.724,0,0,0,2.109.913,2.986,2.986,0,0,0,1.539-.371,3.865,3.865,0,0,0,1.1-.982l1.047.816A4.211,4.211,0,0,1,274.968.185Zm-.213-8.99a2.287,2.287,0,0,0-1.742.755,3.672,3.672,0,0,0-.871,2.118h5.024v-.13a3.266,3.266,0,0,0-.7-2.025A2.153,2.153,0,0,0,274.754-8.805Zm10.955.315a5.138,5.138,0,0,0-.843-.065,2.26,2.26,0,0,0-2.289,1.437V0h-1.715V-10.028h1.668l.028,1.159a2.67,2.67,0,0,1,2.391-1.344,1.752,1.752,0,0,1,.76.13ZM296.146.185a4.382,4.382,0,0,1-3.318-1.339,4.971,4.971,0,0,1-1.279-3.582v-.315a6.018,6.018,0,0,1,.57-2.665,4.447,4.447,0,0,1,1.594-1.835,4.008,4.008,0,0,1,2.22-.663,3.756,3.756,0,0,1,3.04,1.288,5.578,5.578,0,0,1,1.084,3.689v.714h-6.794a3.565,3.565,0,0,0,.867,2.4,2.724,2.724,0,0,0,2.109.913,2.986,2.986,0,0,0,1.539-.371,3.865,3.865,0,0,0,1.1-.982l1.047.816A4.211,4.211,0,0,1,296.146.185Zm-.213-8.99a2.287,2.287,0,0,0-1.742.755,3.672,3.672,0,0,0-.871,2.118h5.024v-.13a3.266,3.266,0,0,0-.7-2.025A2.153,2.153,0,0,0,295.933-8.805Zm10.955.315a5.138,5.138,0,0,0-.843-.065,2.26,2.26,0,0,0-2.289,1.437V0h-1.715V-10.028h1.668l.028,1.159a2.67,2.67,0,0,1,2.391-1.344,1.752,1.752,0,0,1,.76.13Zm6.423,0a5.138,5.138,0,0,0-.843-.065,2.26,2.26,0,0,0-2.289,1.437V0h-1.715V-10.028h1.668l.028,1.159a2.67,2.67,0,0,1,2.391-1.344,1.752,1.752,0,0,1,.76.13Zm.936,3.383a5.924,5.924,0,0,1,.579-2.651,4.321,4.321,0,0,1,1.613-1.817,4.39,4.39,0,0,1,2.359-.64A4.229,4.229,0,0,1,322.112-8.8a5.456,5.456,0,0,1,1.265,3.772v.12a5.975,5.975,0,0,1-.561,2.628,4.258,4.258,0,0,1-1.6,1.812,4.44,4.44,0,0,1-2.4.649,4.219,4.219,0,0,1-3.3-1.418,5.428,5.428,0,0,1-1.265-3.754Zm1.724.2a4.29,4.29,0,0,0,.774,2.679,2.477,2.477,0,0,0,2.072,1.01,2.462,2.462,0,0,0,2.076-1.024,4.692,4.692,0,0,0,.769-2.869,4.283,4.283,0,0,0-.783-2.674A2.49,2.49,0,0,0,318.8-8.805a2.462,2.462,0,0,0-2.048,1.01A4.657,4.657,0,0,0,315.971-4.9Zm14.4-3.587a5.138,5.138,0,0,0-.843-.065,2.26,2.26,0,0,0-2.289,1.437V0h-1.715V-10.028H327.2l.028,1.159a2.67,2.67,0,0,1,2.391-1.344,1.752,1.752,0,0,1,.76.13ZM335.936.185a4.382,4.382,0,0,1-3.318-1.339,4.971,4.971,0,0,1-1.279-3.582v-.315a6.018,6.018,0,0,1,.57-2.665A4.447,4.447,0,0,1,333.5-9.551a4.008,4.008,0,0,1,2.22-.663,3.756,3.756,0,0,1,3.04,1.288,5.578,5.578,0,0,1,1.084,3.689v.714h-6.794a3.565,3.565,0,0,0,.867,2.4,2.724,2.724,0,0,0,2.109.913,2.986,2.986,0,0,0,1.539-.371,3.865,3.865,0,0,0,1.1-.982l1.047.816A4.211,4.211,0,0,1,335.936.185Zm-.213-8.99a2.287,2.287,0,0,0-1.742.755,3.672,3.672,0,0,0-.871,2.118h5.024v-.13a3.266,3.266,0,0,0-.7-2.025A2.153,2.153,0,0,0,335.722-8.805ZM347.669-2.66a1.262,1.262,0,0,0-.524-1.08A5.04,5.04,0,0,0,345.32-4.4a8.633,8.633,0,0,1-2.067-.667A2.941,2.941,0,0,1,342.122-6a2.217,2.217,0,0,1-.366-1.279A2.6,2.6,0,0,1,342.8-9.361a4.072,4.072,0,0,1,2.665-.853,4.19,4.19,0,0,1,2.767.881,2.8,2.8,0,0,1,1.061,2.252h-1.724a1.548,1.548,0,0,0-.6-1.214,2.24,2.24,0,0,0-1.506-.51A2.344,2.344,0,0,0,344-8.4a1.284,1.284,0,0,0-.528,1.066,1.04,1.04,0,0,0,.491.936,6.044,6.044,0,0,0,1.775.6,9.248,9.248,0,0,1,2.081.686A3.035,3.035,0,0,1,349-4.148a2.359,2.359,0,0,1,.385,1.367,2.567,2.567,0,0,1-1.075,2.155,4.51,4.51,0,0,1-2.79.811,5.05,5.05,0,0,1-2.132-.426,3.467,3.467,0,0,1-1.451-1.191,2.871,2.871,0,0,1-.524-1.654h1.715a1.775,1.775,0,0,0,.69,1.367,2.679,2.679,0,0,0,1.7.505,2.765,2.765,0,0,0,1.562-.394A1.21,1.21,0,0,0,347.669-2.66Zm3.893,5.348-.973-.667a4.473,4.473,0,0,0,.908-2.5V-2.03h1.678V-.686a4.222,4.222,0,0,1-.459,1.872A4.384,4.384,0,0,1,351.562,2.688ZM361.906,0h-1.715V-14.236h1.715ZM364.2-5.107a5.924,5.924,0,0,1,.579-2.651,4.321,4.321,0,0,1,1.613-1.817,4.39,4.39,0,0,1,2.359-.64A4.229,4.229,0,0,1,372.059-8.8a5.456,5.456,0,0,1,1.265,3.772v.12a5.975,5.975,0,0,1-.561,2.628,4.258,4.258,0,0,1-1.6,1.812,4.44,4.44,0,0,1-2.4.649,4.219,4.219,0,0,1-3.3-1.418A5.428,5.428,0,0,1,364.2-4.986Zm1.724.2a4.29,4.29,0,0,0,.774,2.679,2.477,2.477,0,0,0,2.072,1.01,2.462,2.462,0,0,0,2.076-1.024,4.692,4.692,0,0,0,.769-2.869,4.283,4.283,0,0,0-.783-2.674,2.49,2.49,0,0,0-2.081-1.024,2.462,2.462,0,0,0-2.048,1.01A4.657,4.657,0,0,0,365.919-4.9ZM381.314-2.66a1.262,1.262,0,0,0-.524-1.08,5.04,5.04,0,0,0-1.826-.663A8.633,8.633,0,0,1,376.9-5.07,2.941,2.941,0,0,1,375.767-6a2.217,2.217,0,0,1-.366-1.279,2.6,2.6,0,0,1,1.043-2.085,4.072,4.072,0,0,1,2.665-.853,4.19,4.19,0,0,1,2.767.881,2.8,2.8,0,0,1,1.061,2.252h-1.724a1.548,1.548,0,0,0-.6-1.214,2.24,2.24,0,0,0-1.506-.51,2.344,2.344,0,0,0-1.464.408,1.284,1.284,0,0,0-.528,1.066,1.04,1.04,0,0,0,.491.936,6.044,6.044,0,0,0,1.775.6,9.248,9.248,0,0,1,2.081.686,3.035,3.035,0,0,1,1.182.959,2.359,2.359,0,0,1,.385,1.367,2.567,2.567,0,0,1-1.075,2.155,4.51,4.51,0,0,1-2.79.811,5.05,5.05,0,0,1-2.132-.426,3.467,3.467,0,0,1-1.451-1.191,2.871,2.871,0,0,1-.524-1.654h1.715a1.775,1.775,0,0,0,.69,1.367,2.679,2.679,0,0,0,1.7.505,2.765,2.765,0,0,0,1.562-.394A1.21,1.21,0,0,0,381.314-2.66Zm12.67,1.446a2.47,2.47,0,0,0,1.6-.556,1.956,1.956,0,0,0,.76-1.39h1.622a3.11,3.11,0,0,1-.593,1.641,3.907,3.907,0,0,1-1.46,1.242,4.212,4.212,0,0,1-1.932.463,4.131,4.131,0,0,1-3.258-1.367,5.445,5.445,0,0,1-1.21-3.74v-.287a6.038,6.038,0,0,1,.538-2.6,4.094,4.094,0,0,1,1.543-1.77,4.384,4.384,0,0,1,2.377-.63,4.022,4.022,0,0,1,2.8,1.01,3.611,3.611,0,0,1,1.191,2.623h-1.622a2.363,2.363,0,0,0-.737-1.6,2.292,2.292,0,0,0-1.636-.626,2.4,2.4,0,0,0-2.025.941,4.418,4.418,0,0,0-.718,2.72v.324a4.33,4.33,0,0,0,.714,2.669A2.411,2.411,0,0,0,393.984-1.214Zm12.1.222A3.642,3.642,0,0,1,403.15.185a3.117,3.117,0,0,1-2.442-.931A4.032,4.032,0,0,1,399.86-3.5v-6.525h1.715V-3.55q0,2.28,1.854,2.28a2.567,2.567,0,0,0,2.614-1.464v-7.294h1.715V0h-1.631ZM416.553,0a3.6,3.6,0,0,1-.241-1.057A3.826,3.826,0,0,1,413.457.185a3.54,3.54,0,0,1-2.433-.839,2.714,2.714,0,0,1-.95-2.127,2.835,2.835,0,0,1,1.191-2.433,5.615,5.615,0,0,1,3.351-.867h1.668v-.788a1.926,1.926,0,0,0-.538-1.432,2.16,2.16,0,0,0-1.585-.533,2.5,2.5,0,0,0-1.539.463A1.366,1.366,0,0,0,412-7.248h-1.724a2.366,2.366,0,0,1,.533-1.451,3.637,3.637,0,0,1,1.446-1.108,4.864,4.864,0,0,1,2.007-.408,3.965,3.965,0,0,1,2.716.867A3.126,3.126,0,0,1,418-6.961v4.616a5.643,5.643,0,0,0,.352,2.2V0Zm-2.845-1.307a3.014,3.014,0,0,0,1.529-.417,2.523,2.523,0,0,0,1.047-1.084V-4.866H414.94q-3.151,0-3.151,1.844a1.561,1.561,0,0,0,.538,1.261A2.066,2.066,0,0,0,413.707-1.307ZM422.549,0h-1.715V-14.236h1.715Zm6.9.185a4.382,4.382,0,0,1-3.318-1.339,4.971,4.971,0,0,1-1.279-3.582v-.315a6.018,6.018,0,0,1,.57-2.665,4.447,4.447,0,0,1,1.594-1.835,4.008,4.008,0,0,1,2.22-.663,3.756,3.756,0,0,1,3.04,1.288,5.578,5.578,0,0,1,1.084,3.689v.714h-6.794a3.565,3.565,0,0,0,.867,2.4,2.724,2.724,0,0,0,2.109.913,2.986,2.986,0,0,0,1.539-.371,3.865,3.865,0,0,0,1.1-.982l1.047.816A4.211,4.211,0,0,1,429.454.185Zm-.213-8.99a2.287,2.287,0,0,0-1.742.755,3.672,3.672,0,0,0-.871,2.118h5.024v-.13a3.266,3.266,0,0,0-.7-2.025A2.153,2.153,0,0,0,429.241-8.805ZM441.188-2.66a1.262,1.262,0,0,0-.524-1.08,5.04,5.04,0,0,0-1.826-.663,8.633,8.633,0,0,1-2.067-.667A2.941,2.941,0,0,1,435.641-6a2.217,2.217,0,0,1-.366-1.279,2.6,2.6,0,0,1,1.043-2.085,4.072,4.072,0,0,1,2.665-.853,4.19,4.19,0,0,1,2.767.881,2.8,2.8,0,0,1,1.061,2.252h-1.724a1.548,1.548,0,0,0-.6-1.214,2.24,2.24,0,0,0-1.506-.51,2.344,2.344,0,0,0-1.464.408,1.284,1.284,0,0,0-.528,1.066,1.04,1.04,0,0,0,.491.936,6.044,6.044,0,0,0,1.775.6,9.248,9.248,0,0,1,2.081.686,3.035,3.035,0,0,1,1.182.959,2.359,2.359,0,0,1,.385,1.367,2.567,2.567,0,0,1-1.075,2.155,4.51,4.51,0,0,1-2.79.811,5.05,5.05,0,0,1-2.132-.426,3.467,3.467,0,0,1-1.451-1.191,2.871,2.871,0,0,1-.524-1.654h1.715a1.775,1.775,0,0,0,.69,1.367,2.679,2.679,0,0,0,1.7.505,2.765,2.765,0,0,0,1.562-.394A1.21,1.21,0,0,0,441.188-2.66ZM451.7,0h-1.715V-14.236H451.7Zm4.606,0H454.59V-14.236h1.715Zm6.9.185a4.382,4.382,0,0,1-3.318-1.339,4.971,4.971,0,0,1-1.279-3.582v-.315a6.018,6.018,0,0,1,.57-2.665,4.447,4.447,0,0,1,1.594-1.835,4.008,4.008,0,0,1,2.22-.663,3.756,3.756,0,0,1,3.04,1.288,5.578,5.578,0,0,1,1.084,3.689v.714h-6.794a3.565,3.565,0,0,0,.867,2.4,2.724,2.724,0,0,0,2.109.913,2.986,2.986,0,0,0,1.539-.371,3.865,3.865,0,0,0,1.1-.982l1.047.816A4.211,4.211,0,0,1,463.21.185ZM463-8.805a2.287,2.287,0,0,0-1.742.755,3.672,3.672,0,0,0-.871,2.118h5.024v-.13a3.266,3.266,0,0,0-.7-2.025A2.153,2.153,0,0,0,463-8.805Zm9.3,6.479,2.484-7.7h1.752L472.933,0h-1.307l-3.633-10.028h1.752ZM484.231,0a3.6,3.6,0,0,1-.241-1.057A3.826,3.826,0,0,1,481.135.185,3.54,3.54,0,0,1,478.7-.653a2.714,2.714,0,0,1-.95-2.127,2.835,2.835,0,0,1,1.191-2.433,5.615,5.615,0,0,1,3.351-.867h1.668v-.788a1.926,1.926,0,0,0-.538-1.432,2.16,2.16,0,0,0-1.585-.533,2.5,2.5,0,0,0-1.539.463,1.366,1.366,0,0,0-.621,1.121h-1.724a2.366,2.366,0,0,1,.533-1.451,3.637,3.637,0,0,1,1.446-1.108,4.864,4.864,0,0,1,2.007-.408,3.965,3.965,0,0,1,2.716.867,3.126,3.126,0,0,1,1.02,2.387v4.616a5.643,5.643,0,0,0,.352,2.2V0Zm-2.845-1.307a3.014,3.014,0,0,0,1.529-.417,2.523,2.523,0,0,0,1.047-1.084V-4.866h-1.344q-3.151,0-3.151,1.844A1.561,1.561,0,0,0,480-1.761,2.066,2.066,0,0,0,481.386-1.307Zm8.6-8.722.056,1.261a3.654,3.654,0,0,1,3-1.446q3.179,0,3.207,3.587V0h-1.715V-6.636a2.309,2.309,0,0,0-.5-1.6,1.987,1.987,0,0,0-1.515-.519,2.475,2.475,0,0,0-1.464.445,3.021,3.021,0,0,0-.982,1.168V0h-1.715V-10.028ZM509.729,0a3.6,3.6,0,0,1-.241-1.057A3.826,3.826,0,0,1,506.633.185,3.54,3.54,0,0,1,504.2-.653a2.714,2.714,0,0,1-.95-2.127,2.835,2.835,0,0,1,1.191-2.433,5.615,5.615,0,0,1,3.351-.867h1.668v-.788a1.926,1.926,0,0,0-.538-1.432,2.16,2.16,0,0,0-1.585-.533,2.5,2.5,0,0,0-1.539.463,1.366,1.366,0,0,0-.621,1.121h-1.724a2.366,2.366,0,0,1,.533-1.451,3.637,3.637,0,0,1,1.446-1.108,4.864,4.864,0,0,1,2.007-.408,3.965,3.965,0,0,1,2.716.867,3.126,3.126,0,0,1,1.02,2.387v4.616a5.643,5.643,0,0,0,.352,2.2V0Zm-2.845-1.307a3.014,3.014,0,0,0,1.529-.417,2.523,2.523,0,0,0,1.047-1.084V-4.866h-1.344q-3.151,0-3.151,1.844a1.561,1.561,0,0,0,.538,1.261A2.066,2.066,0,0,0,506.883-1.307ZM518.154-5.1a5.894,5.894,0,0,1,1.084-3.731,3.468,3.468,0,0,1,2.873-1.386,3.45,3.45,0,0,1,2.864,1.3l.083-1.112h1.566V-.241a4.08,4.08,0,0,1-1.154,3.068,4.258,4.258,0,0,1-3.1,1.121,5.158,5.158,0,0,1-2.122-.463,3.653,3.653,0,0,1-1.585-1.27l.89-1.029a3.353,3.353,0,0,0,2.7,1.362,2.627,2.627,0,0,0,1.951-.7,2.692,2.692,0,0,0,.7-1.983V-1A3.524,3.524,0,0,1,522.093.185a3.425,3.425,0,0,1-2.85-1.418A6.2,6.2,0,0,1,518.154-5.1Zm1.724.195a4.5,4.5,0,0,0,.7,2.665,2.259,2.259,0,0,0,1.946.969A2.512,2.512,0,0,0,524.9-2.743V-7.322a2.541,2.541,0,0,0-2.363-1.437,2.279,2.279,0,0,0-1.956.973A4.9,4.9,0,0,0,519.877-4.9ZM534.058-8.49a5.138,5.138,0,0,0-.843-.065,2.26,2.26,0,0,0-2.289,1.437V0h-1.715V-10.028h1.668l.028,1.159a2.67,2.67,0,0,1,2.391-1.344,1.752,1.752,0,0,1,.76.13Zm7.4,8.49a3.6,3.6,0,0,1-.241-1.057A3.826,3.826,0,0,1,538.359.185a3.54,3.54,0,0,1-2.433-.839,2.714,2.714,0,0,1-.95-2.127,2.835,2.835,0,0,1,1.191-2.433,5.615,5.615,0,0,1,3.351-.867h1.668v-.788a1.926,1.926,0,0,0-.538-1.432,2.16,2.16,0,0,0-1.585-.533,2.5,2.5,0,0,0-1.539.463,1.366,1.366,0,0,0-.621,1.121H535.18a2.366,2.366,0,0,1,.533-1.451,3.637,3.637,0,0,1,1.446-1.108,4.864,4.864,0,0,1,2.007-.408,3.965,3.965,0,0,1,2.716.867,3.126,3.126,0,0,1,1.02,2.387v4.616a5.643,5.643,0,0,0,.352,2.2V0Zm-2.845-1.307a3.014,3.014,0,0,0,1.529-.417,2.523,2.523,0,0,0,1.047-1.084V-4.866h-1.344q-3.151,0-3.151,1.844a1.561,1.561,0,0,0,.538,1.261A2.066,2.066,0,0,0,538.609-1.307Zm10.149-1.02,2.484-7.7h1.752L549.4,0h-1.307l-3.633-10.028h1.752ZM558.685.185a4.382,4.382,0,0,1-3.318-1.339,4.971,4.971,0,0,1-1.279-3.582v-.315a6.017,6.017,0,0,1,.57-2.665,4.446,4.446,0,0,1,1.594-1.835,4.008,4.008,0,0,1,2.22-.663,3.756,3.756,0,0,1,3.04,1.288A5.578,5.578,0,0,1,562.6-5.237v.714H555.8a3.565,3.565,0,0,0,.867,2.4,2.724,2.724,0,0,0,2.109.913,2.986,2.986,0,0,0,1.539-.371,3.866,3.866,0,0,0,1.1-.982l1.047.816A4.211,4.211,0,0,1,558.685.185Zm-.213-8.99a2.287,2.287,0,0,0-1.742.755,3.671,3.671,0,0,0-.871,2.118h5.023v-.13a3.266,3.266,0,0,0-.7-2.025A2.153,2.153,0,0,0,558.471-8.805ZM570.418-2.66a1.262,1.262,0,0,0-.524-1.08,5.041,5.041,0,0,0-1.826-.663A8.633,8.633,0,0,1,566-5.07,2.94,2.94,0,0,1,564.871-6a2.217,2.217,0,0,1-.366-1.279,2.6,2.6,0,0,1,1.043-2.085,4.072,4.072,0,0,1,2.665-.853,4.19,4.19,0,0,1,2.767.881,2.8,2.8,0,0,1,1.061,2.252h-1.724a1.548,1.548,0,0,0-.6-1.214,2.24,2.24,0,0,0-1.506-.51,2.344,2.344,0,0,0-1.464.408,1.284,1.284,0,0,0-.528,1.066,1.04,1.04,0,0,0,.491.936,6.044,6.044,0,0,0,1.775.6,9.25,9.25,0,0,1,2.081.686,3.035,3.035,0,0,1,1.182.959,2.359,2.359,0,0,1,.385,1.367,2.567,2.567,0,0,1-1.075,2.155,4.51,4.51,0,0,1-2.79.811,5.05,5.05,0,0,1-2.132-.426,3.467,3.467,0,0,1-1.451-1.191,2.871,2.871,0,0,1-.524-1.654h1.715a1.776,1.776,0,0,0,.69,1.367,2.679,2.679,0,0,0,1.7.505,2.765,2.765,0,0,0,1.562-.394A1.21,1.21,0,0,0,570.418-2.66Zm12.67,1.446a2.47,2.47,0,0,0,1.6-.556,1.956,1.956,0,0,0,.76-1.39h1.622a3.109,3.109,0,0,1-.593,1.641,3.907,3.907,0,0,1-1.46,1.242,4.212,4.212,0,0,1-1.932.463,4.131,4.131,0,0,1-3.258-1.367,5.445,5.445,0,0,1-1.21-3.74v-.287a6.038,6.038,0,0,1,.538-2.6,4.1,4.1,0,0,1,1.543-1.77,4.384,4.384,0,0,1,2.377-.63,4.022,4.022,0,0,1,2.8,1.01,3.611,3.611,0,0,1,1.191,2.623h-1.622a2.363,2.363,0,0,0-.737-1.6,2.292,2.292,0,0,0-1.636-.626,2.4,2.4,0,0,0-2.025.941,4.418,4.418,0,0,0-.718,2.72v.324a4.33,4.33,0,0,0,.714,2.669A2.411,2.411,0,0,0,583.088-1.214Zm5.459-3.893a5.924,5.924,0,0,1,.579-2.651,4.322,4.322,0,0,1,1.613-1.817,4.39,4.39,0,0,1,2.359-.64A4.229,4.229,0,0,1,596.412-8.8a5.456,5.456,0,0,1,1.265,3.772v.12a5.975,5.975,0,0,1-.561,2.628,4.258,4.258,0,0,1-1.6,1.812,4.44,4.44,0,0,1-2.4.649,4.219,4.219,0,0,1-3.3-1.418,5.428,5.428,0,0,1-1.265-3.754Zm1.724.2a4.29,4.29,0,0,0,.774,2.679,2.477,2.477,0,0,0,2.071,1.01,2.462,2.462,0,0,0,2.076-1.024,4.691,4.691,0,0,0,.769-2.869,4.283,4.283,0,0,0-.783-2.674A2.49,2.49,0,0,0,593.1-8.805a2.462,2.462,0,0,0-2.048,1.01A4.657,4.657,0,0,0,590.271-4.9Zm11.178-5.125.056,1.261a3.654,3.654,0,0,1,3-1.446q3.179,0,3.207,3.587V0H606V-6.636a2.309,2.309,0,0,0-.5-1.6,1.987,1.987,0,0,0-1.515-.519,2.475,2.475,0,0,0-1.464.445,3.021,3.021,0,0,0-.982,1.168V0h-1.715V-10.028ZM616.14-2.66a1.262,1.262,0,0,0-.524-1.08A5.041,5.041,0,0,0,613.79-4.4a8.633,8.633,0,0,1-2.067-.667A2.94,2.94,0,0,1,610.593-6a2.217,2.217,0,0,1-.366-1.279,2.6,2.6,0,0,1,1.043-2.085,4.072,4.072,0,0,1,2.665-.853,4.19,4.19,0,0,1,2.767.881,2.8,2.8,0,0,1,1.061,2.252h-1.724a1.548,1.548,0,0,0-.6-1.214,2.24,2.24,0,0,0-1.506-.51,2.344,2.344,0,0,0-1.464.408,1.284,1.284,0,0,0-.528,1.066,1.04,1.04,0,0,0,.491.936,6.044,6.044,0,0,0,1.775.6,9.25,9.25,0,0,1,2.081.686,3.035,3.035,0,0,1,1.182.959,2.359,2.359,0,0,1,.385,1.367,2.567,2.567,0,0,1-1.075,2.155,4.51,4.51,0,0,1-2.79.811,5.05,5.05,0,0,1-2.132-.426,3.467,3.467,0,0,1-1.451-1.191,2.871,2.871,0,0,1-.524-1.654H611.6a1.776,1.776,0,0,0,.69,1.367,2.679,2.679,0,0,0,1.7.505,2.765,2.765,0,0,0,1.562-.394A1.21,1.21,0,0,0,616.14-2.66ZM624.25.185a4.382,4.382,0,0,1-3.318-1.339,4.971,4.971,0,0,1-1.279-3.582v-.315a6.017,6.017,0,0,1,.57-2.665,4.446,4.446,0,0,1,1.594-1.835,4.008,4.008,0,0,1,2.22-.663,3.756,3.756,0,0,1,3.04,1.288,5.578,5.578,0,0,1,1.084,3.689v.714h-6.794a3.565,3.565,0,0,0,.867,2.4,2.724,2.724,0,0,0,2.109.913,2.986,2.986,0,0,0,1.539-.371,3.866,3.866,0,0,0,1.1-.982l1.047.816A4.211,4.211,0,0,1,624.25.185Zm-.213-8.99a2.287,2.287,0,0,0-1.742.755,3.671,3.671,0,0,0-.871,2.118h5.023v-.13a3.266,3.266,0,0,0-.7-2.025A2.153,2.153,0,0,0,624.036-8.805Zm10.13,7.591a2.47,2.47,0,0,0,1.6-.556,1.956,1.956,0,0,0,.76-1.39h1.622a3.109,3.109,0,0,1-.593,1.641A3.907,3.907,0,0,1,636.1-.278a4.212,4.212,0,0,1-1.932.463,4.131,4.131,0,0,1-3.258-1.367,5.445,5.445,0,0,1-1.21-3.74v-.287a6.038,6.038,0,0,1,.538-2.6,4.1,4.1,0,0,1,1.543-1.77,4.384,4.384,0,0,1,2.377-.63,4.022,4.022,0,0,1,2.8,1.01,3.611,3.611,0,0,1,1.191,2.623H636.53a2.363,2.363,0,0,0-.737-1.6,2.292,2.292,0,0,0-1.636-.626,2.4,2.4,0,0,0-2.025.941,4.418,4.418,0,0,0-.718,2.72v.324a4.33,4.33,0,0,0,.714,2.669A2.411,2.411,0,0,0,634.167-1.214Zm12.1.222A3.642,3.642,0,0,1,643.333.185a3.118,3.118,0,0,1-2.442-.931,4.032,4.032,0,0,1-.848-2.757v-6.525h1.715V-3.55q0,2.28,1.854,2.28a2.567,2.567,0,0,0,2.614-1.464v-7.294h1.715V0h-1.631ZM654.706.185a4.382,4.382,0,0,1-3.318-1.339,4.971,4.971,0,0,1-1.279-3.582v-.315a6.017,6.017,0,0,1,.57-2.665,4.446,4.446,0,0,1,1.594-1.835,4.008,4.008,0,0,1,2.22-.663,3.756,3.756,0,0,1,3.04,1.288,5.578,5.578,0,0,1,1.084,3.689v.714h-6.794a3.565,3.565,0,0,0,.867,2.4,2.724,2.724,0,0,0,2.109.913,2.986,2.986,0,0,0,1.539-.371,3.866,3.866,0,0,0,1.1-.982l1.047.816A4.211,4.211,0,0,1,654.706.185Zm-.213-8.99a2.287,2.287,0,0,0-1.742.755,3.671,3.671,0,0,0-.871,2.118H656.9v-.13a3.266,3.266,0,0,0-.7-2.025A2.153,2.153,0,0,0,654.493-8.805Zm7.73-1.223.056,1.261a3.654,3.654,0,0,1,3-1.446q3.179,0,3.207,3.587V0h-1.715V-6.636a2.309,2.309,0,0,0-.5-1.6,1.987,1.987,0,0,0-1.515-.519,2.475,2.475,0,0,0-1.464.445,3.021,3.021,0,0,0-.982,1.168V0H660.6V-10.028ZM675.1-1.214a2.47,2.47,0,0,0,1.6-.556,1.956,1.956,0,0,0,.76-1.39h1.622a3.109,3.109,0,0,1-.593,1.641,3.907,3.907,0,0,1-1.46,1.242A4.212,4.212,0,0,1,675.1.185a4.131,4.131,0,0,1-3.258-1.367,5.445,5.445,0,0,1-1.21-3.74v-.287a6.038,6.038,0,0,1,.538-2.6,4.1,4.1,0,0,1,1.543-1.77,4.384,4.384,0,0,1,2.377-.63,4.022,4.022,0,0,1,2.8,1.01,3.611,3.611,0,0,1,1.191,2.623H677.46a2.363,2.363,0,0,0-.737-1.6,2.292,2.292,0,0,0-1.636-.626,2.4,2.4,0,0,0-2.025.941,4.418,4.418,0,0,0-.718,2.72v.324a4.33,4.33,0,0,0,.714,2.669A2.411,2.411,0,0,0,675.1-1.214ZM682.873,0h-1.715V-10.028h1.715Zm-1.854-12.689a1.024,1.024,0,0,1,.255-.7.957.957,0,0,1,.755-.287.972.972,0,0,1,.76.287,1.013,1.013,0,0,1,.26.7.979.979,0,0,1-.26.7.989.989,0,0,1-.76.278.974.974,0,0,1-.755-.278A.99.99,0,0,1,681.019-12.689ZM691.807,0a3.6,3.6,0,0,1-.241-1.057A3.826,3.826,0,0,1,688.712.185a3.54,3.54,0,0,1-2.433-.839,2.714,2.714,0,0,1-.95-2.127,2.835,2.835,0,0,1,1.191-2.433,5.615,5.615,0,0,1,3.351-.867h1.668v-.788A1.926,1.926,0,0,0,691-8.3a2.16,2.16,0,0,0-1.585-.533,2.5,2.5,0,0,0-1.539.463,1.366,1.366,0,0,0-.621,1.121h-1.724a2.366,2.366,0,0,1,.533-1.451,3.637,3.637,0,0,1,1.446-1.108,4.864,4.864,0,0,1,2.007-.408,3.965,3.965,0,0,1,2.716.867,3.126,3.126,0,0,1,1.02,2.387v4.616a5.643,5.643,0,0,0,.352,2.2V0Zm-2.845-1.307a3.014,3.014,0,0,0,1.529-.417,2.523,2.523,0,0,0,1.047-1.084V-4.866h-1.344q-3.151,0-3.151,1.844a1.561,1.561,0,0,0,.538,1.261A2.066,2.066,0,0,0,688.962-1.307ZM701.78-2.66a1.262,1.262,0,0,0-.524-1.08,5.041,5.041,0,0,0-1.826-.663,8.633,8.633,0,0,1-2.067-.667A2.94,2.94,0,0,1,696.233-6a2.217,2.217,0,0,1-.366-1.279,2.6,2.6,0,0,1,1.043-2.085,4.072,4.072,0,0,1,2.665-.853,4.19,4.19,0,0,1,2.767.881A2.8,2.8,0,0,1,703.4-7.081h-1.724a1.548,1.548,0,0,0-.6-1.214,2.24,2.24,0,0,0-1.506-.51,2.344,2.344,0,0,0-1.464.408,1.284,1.284,0,0,0-.528,1.066,1.04,1.04,0,0,0,.491.936,6.044,6.044,0,0,0,1.775.6,9.25,9.25,0,0,1,2.081.686,3.035,3.035,0,0,1,1.182.959,2.359,2.359,0,0,1,.385,1.367A2.567,2.567,0,0,1,702.42-.626a4.51,4.51,0,0,1-2.79.811A5.05,5.05,0,0,1,697.5-.241a3.467,3.467,0,0,1-1.451-1.191,2.871,2.871,0,0,1-.524-1.654h1.715a1.776,1.776,0,0,0,.69,1.367,2.679,2.679,0,0,0,1.7.505,2.765,2.765,0,0,0,1.562-.394A1.21,1.21,0,0,0,701.78-2.66ZM705.766-.9a1.074,1.074,0,0,1,.264-.741,1.006,1.006,0,0,1,.792-.3,1.037,1.037,0,0,1,.8.3A1.052,1.052,0,0,1,707.9-.9a1,1,0,0,1-.273.714,1.055,1.055,0,0,1-.8.287,1.024,1.024,0,0,1-.792-.287A1.015,1.015,0,0,1,705.766-.9Z" transform="translate(-6455.15 -1214.834)" fill="#13273e"/>
    <path id="Trazado_117967" data-name="Trazado 117967" d="M94.7,303.4v19.867H652.221V303.4" transform="translate(-6494.644 -1572.891)" fill="none" stroke="#7e5ee3" stroke-miterlimit="10" stroke-width="3"/>
    <path id="Trazado_146258" data-name="Trazado 146258" d="M0,0V14.9" transform="translate(-6121.186 -1249.622)" fill="none" stroke="#7e5ee3" stroke-width="3"/>
    <path id="Trazado_146259" data-name="Trazado 146259" d="M0,0H726.4V31.043H0Z" transform="translate(-6467 -1234.721)" fill="none" stroke="#7e5ee3" stroke-width="3"/>
  </g>
</svg>
